<svg xmlns="http://www.w3.org/2000/svg" width="77.693" height="78.066" viewBox="0 0 77.693 78.066">
  <g id="Grupo_844290" data-name="Grupo 844290" transform="translate(55.996 959.136)">
    <path id="Trazado_580803" data-name="Trazado 580803" d="M4.976-888.768a1.326,1.326,0,0,1-1.746,1.033c-1.433-.264-1.968.427-2.219,1.714-.222,1.14-.627,2.245-.941,3.369a1.978,1.978,0,0,1-2.118,1.583q-8.231-.011-16.462,0a1.945,1.945,0,0,1-2.141-2.052c-.039-.556,0-1.118-.013-1.676-.022-.91.249-2.018-.175-2.672s-1.6-.16-2.447-.252a1.82,1.82,0,0,1-1.794-1.732,11.376,11.376,0,0,1-.036-1.37q0-32.544,0-65.089c0-2.882.343-3.219,3.256-3.219H49.625c2.481,0,2.946.454,2.947,2.917q0,32.7,0,65.393c0,2.715-.372,3.15-3.054,3.077-1.147-.031-1.542.272-1.422,1.428a21.683,21.683,0,0,1,.013,3.046c-.056,1.477-.72,2.185-2.149,2.191-5.487.024-10.974.006-16.461.013a1.981,1.981,0,0,1-2.115-1.588,31.523,31.523,0,0,1-.987-3.511c-.217-1.368-.936-1.594-2.174-1.576-4.775.068-9.552.012-14.327.04-.955.005-1.726-.127-1.975-1.2-.152-.974.533-1.225,1.252-1.374a9.806,9.806,0,0,1,1.977-.068q18.213,0,36.426,0c2.3,0,2.3-.006,2.3-2.27q0-30.713-.008-61.426c0-.686.212-1.443-.414-2.008a4.6,4.6,0,0,0-2.1-.195q-31.525-.01-63.049,0c-2.136.13-4.3-.313-6.412.268a2.446,2.446,0,0,0-.31,1.758q-.011,30.925,0,61.85c0,1.973.055,2.024,2.078,2.025q11.12.008,22.24,0a15.557,15.557,0,0,1,2.13.062C4.813-890.076,5.253-889.646,4.976-888.768Z" transform="translate(-30.877 0)" fill="#010000"/>
    <path id="Trazado_580804" data-name="Trazado 580804" d="M25.439-883.272a1.635,1.635,0,0,0-.7-1.17,1.392,1.392,0,0,0-.506-.243c-5.862-.091-11.724-.01-17.586-.044a5.273,5.273,0,0,1-1.952-.146.97.97,0,0,1-.179-1.346.865.865,0,0,1,.552-.2c1.878.094,3.757.04,5.636.042,18.539.021,37.077-.031,55.608.025.272.033.624.156.432-.377.487-.719,1.414-1.023,1.737-1.89.089-1.731.028-3.456.029-5.18q.009-25.8,0-51.6a16.514,16.514,0,0,0-.074-2.43c0-1.228,1.049-1.887,1.562-2.84a.521.521,0,0,1,.317.428q.008,31.928,0,63.851a4.256,4.256,0,0,1-.082,1.361,3.126,3.126,0,0,1-1.642.15c-12.811.01-25.623.008-38.133.007-.5.072-.2.345-.321.183-.04-.052,0-.067.114-.1a4.618,4.618,0,0,1,1.5-.066q18.437-.012,36.873-.022c.559,0,1.22.308,1.688-.3.038-21.631.005-43.261.016-64.889a.582.582,0,0,0-.2-.5c-.155-.363.162-.472.351-.65.535.374.265.929.266,1.39q.022,31.916.044,63.833c0,1.308-.39,1.564-1.617,1.56-12.847-.045-25.694-.025-38.541-.033-.935,0-1.873-.082-2.251,1.064Z" transform="translate(-51.34 -5.496)" fill="#e89a57"/>
    <path id="Trazado_580805" data-name="Trazado 580805" d="M9.337-884.722l0,.283c-8.524-.009-17.048-.047-25.572,0-1.281.008-1.578-.366-1.576-1.605q.056-31.891.041-63.783c0-.462-.268-1.017.261-1.4,2.009.4,4.039.073,6.054.182.159,0,.32,0,.479.005a.389.389,0,0,1,.326.289c-.035.419.244.917-.3,1.211-.144.008-.29.012-.434.011-.565,0-1.131.005-1.518,0a12.783,12.783,0,0,0,2.255-.073,4.659,4.659,0,0,1,1.959-.2q29.24-.008,58.481,0a5.839,5.839,0,0,1,1.815.14c.258.156.569.285.351.685a4.48,4.48,0,0,1-2.8.42q-30.291.018-60.582,0a7.972,7.972,0,0,0-3.972.769c-.049-.009-.1-.02-.148-.028s-.091-.011-.136-.016c.336,19.229.055,38.46.146,57.69a10.819,10.819,0,0,0,.04,1.513c.3.86,1.19,1.186,1.713,1.841.853.526,1.957-.238,2.77.532a1.171,1.171,0,0,1,.069.5c-.007.414,0,.888-.568.864-1.929-.084-3.874.29-5.787-.208-.091-4.368-.034-8.736-.036-13.1q-.013-25.067,0-50.135a4.786,4.786,0,0,1-.015-1.271c0,21.258,0,42.78,0,64.3.142.7.7.426,1.094.432,1.851.03,3.7.009,5.556.008,6.129.011,12.258,0,18.387.011A3.31,3.31,0,0,1,9.337-884.722Z" transform="translate(-35.939 -5.499)" fill="#d68954"/>
    <path id="Trazado_580806" data-name="Trazado 580806" d="M177.883-723.989l0,3.05c-.527.438-1.161.294-1.757.3-3.047.027-6.094-.024-9.14.029q-.271.048-.543.1a1.2,1.2,0,0,1-.668-.46c-.312-1.07-1.351-2.111-.141-3.249,3.75-.151,7.5-.038,11.252-.062A1.414,1.414,0,0,1,177.883-723.989Z" transform="translate(-163.032 -163.183)" fill="#a34f3e"/>
    <path id="Trazado_580807" data-name="Trazado 580807" d="M25.092-723.672a12.109,12.109,0,0,1-.9,3.053.556.556,0,0,1-.537.039c-2.881-.132-5.765-.016-8.647-.062a4.449,4.449,0,0,1-1.8-.156,3.169,3.169,0,0,1-.287-3.035.831.831,0,0,1,.42-.382c3.55-.176,7.1-.045,10.654-.07a1.164,1.164,0,0,1,.966.355Z" transform="translate(-57.142 -163.178)" fill="#a34f3e"/>
    <path id="Trazado_580808" data-name="Trazado 580808" d="M-23.344-951.9v66.936H-23.5v-66.984Z" transform="translate(-32.005 -4.993)" fill="#030303"/>
    <path id="Trazado_580809" data-name="Trazado 580809" d="M227.636-951.911v66.863h-.153v-66.925Z" transform="translate(-206.407 -4.977)" fill="#030303"/>
    <path id="Trazado_580810" data-name="Trazado 580810" d="M70.855-951.446l-.313.338a3.568,3.568,0,0,1-2.05.433q-30.816,0-61.632-.006a2.527,2.527,0,0,1-1.878-.426v0q-.232-.175,0-.352c.4-.027.806-.077,1.209-.077q31.731-.006,63.461,0C70.051-951.539,70.453-951.479,70.855-951.446Z" transform="translate(-51.712 -5.276)" fill="#fca65f"/>
    <path id="Trazado_580811" data-name="Trazado 580811" d="M2.487-724.114l.016,3.049.071.257a.532.532,0,0,1-.468.2,31.914,31.914,0,0,1-4.776-.144v-3.358A9.21,9.21,0,0,1,2.487-724.114Z" transform="translate(-46.477 -163.057)" fill="#873f2e"/>
    <path id="Trazado_580812" data-name="Trazado 580812" d="M155.715-723.976c-.127,1.083.628,1.984.625,3.041.038.329-.151.455-.438.445a21.408,21.408,0,0,1-3.892-.12,9.783,9.783,0,0,1-.872-3.062c.315-.722.967-.6,1.555-.607.852,0,1.706-.042,2.558.034A.828.828,0,0,1,155.715-723.976Z" transform="translate(-153.357 -163.19)" fill="#873e2e"/>
    <path id="Trazado_580813" data-name="Trazado 580813" d="M2.486-724.608H-2.671c0-.617.459-.557.856-.558q7.791-.017,15.583-.027c.634,0,1.227.032.658.906l-.1-.051a.665.665,0,0,0-.591-.408c-3.743.061-7.49-.206-11.229.14Z" transform="translate(-46.476 -162.564)" fill="#8d4230"/>
    <path id="Trazado_580814" data-name="Trazado 580814" d="M155.01-724.7c-1.428.142-2.9-.3-4.291.313-.6-1.194.408-.851.883-.856,3.2-.036,6.391-.032,9.587-.038,1.725,0,3.45-.02,5.174.012.471.009,1.024-.237,1.406.278-3.657.316-7.321.046-10.981.146A3.822,3.822,0,0,0,155.01-724.7Z" transform="translate(-152.937 -162.475)" fill="#8e4230"/>
    <path id="Trazado_580815" data-name="Trazado 580815" d="M165.2-724.021c.453-.481,1.043-.281,1.573-.283,3.728-.017,7.456-.008,11.185-.008a.307.307,0,0,1,.018.295l-12.491.005Z" transform="translate(-163.13 -163.154)" fill="#ab5241"/>
    <path id="Trazado_580816" data-name="Trazado 580816" d="M168.932-712.7l.3,0a85.748,85.748,0,0,1,11.266,0c-.127.483-.532.388-.861.387q-5.361-.016-10.721-.052-.125-.118-.077-.227C168.872-712.66,168.9-712.7,168.932-712.7Z" transform="translate(-165.648 -171.118)" fill="#b05543"/>
    <path id="Trazado_580817" data-name="Trazado 580817" d="M181.427-713.035l-11.266,0c.449-.49,1.041-.292,1.573-.3,3.231-.017,6.462-.009,9.693-.009Q181.426-713.188,181.427-713.035Z" transform="translate(-166.575 -170.779)" fill="#9f4d3c"/>
    <path id="Trazado_580818" data-name="Trazado 580818" d="M24.662-712.7l.365.021c-.175.426-.558.374-.9.372q-5.071-.023-10.141-.06-.146-.114-.095-.224c.034-.072.068-.109.1-.109l.009.006A76.86,76.86,0,0,1,24.662-712.7Z" transform="translate(-57.975 -171.119)" fill="#b05543"/>
    <path id="Trazado_580819" data-name="Trazado 580819" d="M-10.046-951.5c0,.117,0,.235,0,.352-1.768,0-3.537.007-5.3-.012-.485,0-1.027.161-1.409-.323A53.459,53.459,0,0,1-10.046-951.5Z" transform="translate(-36.686 -5.239)" fill="#e9955b"/>
    <path id="Trazado_580820" data-name="Trazado 580820" d="M-8.5-719.383v-4.771h.152v4.745Z" transform="translate(-42.428 -163.285)" fill="#040404"/>
    <path id="Trazado_580821" data-name="Trazado 580821" d="M212.574-724.15v4.774h-.144v-4.774Z" transform="translate(-195.947 -163.289)" fill="#040404"/>
    <path id="Trazado_580822" data-name="Trazado 580822" d="M2.494-712.281q0,.166-.007.332c-1.717-.134-3.483.5-5.157-.329Z" transform="translate(-46.477 -171.536)" fill="#924431"/>
    <path id="Trazado_580823" data-name="Trazado 580823" d="M158.626-712.98c0,.112-.009.223-.014.335-1.538-.111-3.121.424-4.615-.321,1.436-.2,2.928.34,4.33-.326Z" transform="translate(-155.343 -170.834)" fill="#934431"/>
    <path id="Trazado_580824" data-name="Trazado 580824" d="M-9.232-881.861a2.775,2.775,0,0,1-1.856-1.564c-.347-.4-.188-.876-.189-1.315q-.013-28.484,0-56.967c0-.436-.173-.92.2-1.306a2.442,2.442,0,0,1,2.455-1.4q32.054.042,64.108.036c.355,0,.709.035,1.064.053,1.1.075,1.144.981,1.371,1.745q0,28.771-.011,57.538c0,.538.194,1.117-.188,1.618a2.738,2.738,0,0,1-1.854,1.566c-.446.485-1.04.336-1.58.336q-29.423.014-58.846.014c-.613,0-1.209-.117-1.816-.143C-7.317-881.8-8.3-881.44-9.232-881.861Z" transform="translate(-40.47 -10.227)"/>
    <path id="Trazado_580825" data-name="Trazado 580825" d="M68.717-946.677A3.909,3.909,0,0,0,67.552-948l-.312-.329a1.334,1.334,0,0,0-.523-.249c-4.063-.089-8.126-.037-12.189-.034-16.406.012-32.812-.048-49.217.029a.766.766,0,0,1-.574-.035c-.084-.3-.464-.61,0-.913a2.833,2.833,0,0,1,1.493-.142q31.134-.01,62.269,0a2.8,2.8,0,0,1,1.492.142c.369,1.2-.522,1.774-1.215,2.447A.239.239,0,0,1,68.717-946.677Z" transform="translate(-51.467 -6.552)" fill="#e99a58"/>
    <path id="Trazado_580826" data-name="Trazado 580826" d="M220.123-883.58v-65.56c.457.4.3.943.3,1.431q0,32.067-.007,64.134A.168.168,0,0,1,220.123-883.58Z" transform="translate(-201.293 -6.946)" fill="#ef9e5a"/>
    <path id="Trazado_580827" data-name="Trazado 580827" d="M70.506-949.822H5.252c0-.1,0-.2,0-.3h65.56q0,.15,0,.3Z" transform="translate(-51.98 -6.264)" fill="#e49756"/>
    <path id="Trazado_580828" data-name="Trazado 580828" d="M4-739.507c.4-.03.806-.087,1.209-.087q30.083-.007,60.165,0c.354,0,.707.04,1.061.061.108.135.584-.132.377.346a2.855,2.855,0,0,1-1.493.141q-29.607.011-59.214,0a2.862,2.862,0,0,1-1.493-.141l-.307,0c-.1.156-.2.146-.3-.006v0q-.159-.1-.11-.2T4-739.507Z" transform="translate(-51.035 -152.554)" fill="#f7a35d"/>
    <path id="Trazado_580829" data-name="Trazado 580829" d="M6.27-738.257h62.2c-.452.491-1.047.295-1.581.3q-29.519.015-59.037,0C7.317-737.962,6.722-737.766,6.27-738.257Z" transform="translate(-52.689 -153.486)" fill="#e59856"/>
    <path id="Trazado_580830" data-name="Trazado 580830" d="M214.943-940.712c.02-.137.041-.274.061-.41.461.4.294.944.294,1.431q.011,28.794,0,57.588a9.211,9.211,0,0,1-.1,1.02c0,.015-.087.036-.128.026a.449.449,0,0,1-.127-.081Q214.947-910.925,214.943-940.712Z" transform="translate(-197.693 -12.517)" fill="#ed9d59"/>
    <path id="Trazado_580831" data-name="Trazado 580831" d="M128.02-734.267l.29,0c-.352.423-.84.288-1.281.288q-19.506.009-39.013,0a.455.455,0,0,1-.438-.294Z" transform="translate(-109.19 -156.258)" fill="#f3a15c"/>
    <path id="Trazado_580832" data-name="Trazado 580832" d="M25.184-734.046l-20.1-.031q-.145-.078-.108-.173c.026-.066.053-.1.083-.1q9.2,0,18.392.01C24.034-734.338,24.68-734.564,25.184-734.046Z" transform="translate(-51.786 -156.175)" fill="#f3a15c"/>
    <path id="Trazado_580833" data-name="Trazado 580833" d="M-9.986-737.056a1.312,1.312,0,0,0,.025.272c-2.239-.129-4.5.386-6.722-.268.1-.151.193-.16.294,0,1.647,0,3.3-.045,4.941.017.959.036,1.254-.381,1.164-1.243l.3.006Z" transform="translate(-36.739 -153.468)" fill="#e19057"/>
    <path id="Trazado_580834" data-name="Trazado 580834" d="M-16.389-882.7q-.147,0-.294,0v-65.177h.294Z" transform="translate(-36.739 -7.829)" fill="#dc8c57"/>
    <path id="Trazado_580835" data-name="Trazado 580835" d="M4.313-946.539l.31,0a2.844,2.844,0,0,1,1.493-.141q29.608-.011,59.217,0a2.8,2.8,0,0,1,1.492.143c0,.1,0,.191-.009.286q-30.393,0-60.785,0c-.66,0-1.32-.024-1.98-.037-.126-.038-.172-.086-.139-.144s.072-.094.11-.094Z" transform="translate(-51.043 -8.636)" fill="#f5a25c"/>
    <path id="Trazado_580836" data-name="Trazado 580836" d="M-11.528-940.031q-.007,29.794-.014,59.588c-.694.085-.333-.459-.333-.664q-.03-29.15-.014-58.3a3.872,3.872,0,0,1,.11-.7c0-.013.09-.025.13-.011A.478.478,0,0,1-11.528-940.031Z" transform="translate(-40.015 -13.21)" fill="#db8b56"/>
    <path id="Trazado_580837" data-name="Trazado 580837" d="M-2.584-739.362q0,.154.008.308c-.989,0-1.979-.007-2.969-.017-.016,0-.052-.1-.044-.108.108-.075.222-.142.335-.21Z" transform="translate(-44.448 -152.699)" fill="#e49159"/>
    <path id="Trazado_580838" data-name="Trazado 580838" d="M-1.8-946.118a.84.84,0,0,0,.029.239H-4.467l-.013-.238Z" transform="translate(-45.219 -9.046)" fill="#e29058"/>
    <path id="Trazado_580839" data-name="Trazado 580839" d="M14.294-724.01c.3-.382.724-.294,1.118-.295,3.179,0,6.358-.013,9.537.009.439,0,1.083-.264,1.166.554a5,5,0,0,0-2.54-.261C20.481-724.023,17.388-724.01,14.294-724.01Z" transform="translate(-58.265 -163.16)" fill="#ab5341"/>
    <path id="Trazado_580840" data-name="Trazado 580840" d="M24.943-713.04l-10.662.008q0-.156,0-.311c3.029,0,6.058-.008,9.087.01C23.9-713.33,24.493-713.529,24.943-713.04Z" transform="translate(-58.256 -170.779)" fill="#9f4d3c"/>
    <path id="Trazado_580841" data-name="Trazado 580841" d="M130.074-888.28a1.569,1.569,0,0,0,1.846,1.182c1.163-.047,2.334.056,3.492-.031,1.065-.08,1.507.141,1.457,1.362-.109,2.68-.133,5.372.006,8.049.074,1.44-.648,1.331-1.623,1.359-1.068.031-1.736-.1-1.541-1.424a17.877,17.877,0,0,0,.02-2.427c.006-.665-.237-1.372-.838-1.477-1.22-.214-1.032-1.046-.975-1.8a2.122,2.122,0,0,0-1.291-2.327,7.293,7.293,0,0,0-3.546,0c-1.33.546-1.313,1.674-1.29,2.852.022,1.145-.023,1.146-1.207.786a1.321,1.321,0,0,0,.257-.515,1.093,1.093,0,0,0-.014-.677,1.456,1.456,0,0,1-.243,1.194,3.836,3.836,0,0,1-.148-1.87,2.088,2.088,0,0,0-1.161-1.742,7.126,7.126,0,0,0-3.778,0,2.6,2.6,0,0,0-1.259,1.57.931.931,0,0,1-.29-.075,4.28,4.28,0,0,0-.02,1.6,1.332,1.332,0,0,0,.253.519c-1.168.342-1.211.341-1.207-.69,0-1.19.1-2.379-1.288-2.945a7.292,7.292,0,0,0-3.546,0,2.117,2.117,0,0,0-1.292,2.332c.06.763.237,1.592-.984,1.8-.6.105-.84.818-.83,1.485a16.351,16.351,0,0,0,.018,2.13c.208,1.412-.345,1.781-1.717,1.731-1.09-.04-1.48-.226-1.436-1.411.1-2.738.08-5.484.006-8.223-.026-.981.3-1.162,1.2-1.157,5.99.039,11.981.017,17.972.024.829,0,1.662.059,2.019-.936A2.133,2.133,0,0,1,130.074-888.28Z" transform="translate(-121.916 -48.897)" fill="#fee4c1"/>
    <path id="Trazado_580842" data-name="Trazado 580842" d="M137-826.934c.022,3.1.012,6.195.083,9.291.027,1.183-.775.787-1.342.824-.583.039-1.236.19-1.182-.832.072-1.368.043-2.744.009-4.115-.036-1.472-.689-2.161-2.146-2.164q-10.822-.03-21.643,0c-1.449,0-2.02.7-2.135,2.19-.124,1.616.365,3.27-.29,4.852-.35-1.277-.031-2.579-.152-3.692-.014.673-.007,1.52,0,2.367,0,.628.067,1.2-.885,1.2-.9,0-.951-.478-.946-1.157.016-2.527.009-5.055,0-7.582a1.409,1.409,0,0,0-.142-.879l0-.307a2.541,2.541,0,0,1,1.759-.3q13.626-.012,27.251,0A2.531,2.531,0,0,1,137-826.934Z" transform="translate(-122.154 -91.645)" fill="#fee4c1"/>
    <path id="Trazado_580843" data-name="Trazado 580843" d="M39.378-821.445c-.64-.729-.289-1.606-.268-2.39a2.5,2.5,0,0,0-1.609-2.758,49.234,49.234,0,0,0-8.8-.037c-.505-1.079-.265-2.622-1.877-3.012-2.026-.394-4.072-.086-6.108-.17-1.156-.048-2.314.019-3.472-.028-.694-.718-.917-1.465-.139-2.273l.7-.952c.911-1.032,1.915-.877,2.958-.233.239,1.064.987,1.221,1.946,1.217q8.716-.04,17.432,0c.44,0,1.006-.326,1.34.281a1.9,1.9,0,0,1-1.183.144q-8.675.011-17.349.007c5.642.011,11.285.042,16.926-.024,1.24-.015,1.539.379,1.5,1.544-.083,2.331-.01,4.667-.034,7-.007.688.325,1.629-.994,1.547-1.249-.077-.669-.954-.813-1.426C39.394-822.587,39.7-821.973,39.378-821.445Z" transform="translate(-59.881 -87.087)" fill="#fee4c1"/>
    <path id="Trazado_580844" data-name="Trazado 580844" d="M110.55-933.943a2.148,2.148,0,0,0-1.3,2.319c.072,1.463-.074,2.939.046,4.4.1,1.24-.352,1.661-1.5,1.44-.506-.1-1.1.308-1.523-.252.724-.4,1.6.1,2.269-.253a4.514,4.514,0,0,1-2.3-.051v-9.148a.925.925,0,0,1,.565-.149c9.29.042,18.581,0,27.871.025.794,0,1.642-.183,2.332.429q0,4.422,0,8.844a4.506,4.506,0,0,1-2.3.05c.667.355,1.544-.147,2.267.252-.815.564-1.723.2-2.582.219-.619.011-.4-.593-.407-.948-.022-1.617-.061-3.237.008-4.852a2.161,2.161,0,0,0-1.295-2.321,28.893,28.893,0,0,0-7.2,0c-1.04.311-1.1,1.364-1.58,2.094a15.27,15.27,0,0,0-4.573,0c-.5-.72-.541-1.785-1.584-2.094A28.891,28.891,0,0,0,110.55-933.943Z" transform="translate(-122.156 -16.325)" fill="#fee4c1"/>
    <path id="Trazado_580845" data-name="Trazado 580845" d="M23.03-878.426c-1.184.36-1.229.359-1.207-.786.023-1.178.037-2.306-1.292-2.852-1.088-.436-2.242,0-3.345-.253-.357-.252-.561-.543-.251-.965q11.946-.035,23.891-.083c.655,0,.878.182.871.856-.031,2.994-.039,5.988,0,8.981.018,1.543-1.108.771-1.732.865-.6.091-1.5.367-1.4-.892.079-.958.007-1.927.015-2.891.006-.667-.229-1.379-.832-1.483-1.223-.212-1.04-1.044-.982-1.805a2.119,2.119,0,0,0-1.293-2.33,7.275,7.275,0,0,0-3.546,0c-1.384.566-1.293,1.755-1.288,2.945,0,1.031-.04,1.032-1.207.69a2.512,2.512,0,0,0-.057-2.041,2.6,2.6,0,0,0-1.256-1.569,7.117,7.117,0,0,0-3.777,0c-1.7.746-.87,2.411-1.312,3.614a1.428,1.428,0,0,1-.24-1.185,1.081,1.081,0,0,0-.013.681A1.307,1.307,0,0,0,23.03-878.426Z" transform="translate(-59.995 -52.652)" fill="#fde4c1"/>
    <path id="Trazado_580846" data-name="Trazado 580846" d="M41.146-935.5v9.149a2.6,2.6,0,0,1-1.722.055c.47.343,1.176-.14,1.688.249-2.124.665-2.388.5-2.389-1.489,0-.86-.052-1.724.012-2.579a2.353,2.353,0,0,0-1.588-2.619c-.445-.373-.968-.162-1.449-.166-6.3-.049-12.595.056-18.893-.063-.75-.84-1.087-1.678,0-2.518a7.657,7.657,0,0,1,2.258-.145c7.176-.02,14.352.022,21.528-.025A.905.905,0,0,1,41.146-935.5Z" transform="translate(-59.527 -16.319)" fill="#fee4c1"/>
    <path id="Trazado_580847" data-name="Trazado 580847" d="M136.85-771.283c.022,2.081.031,4.161.075,6.241.013.579-.177.756-.772.8-2.3.188-2.3.216-2.338-2.126-.038-2.463-1.3-3.8-3.751-3.8-1.546,0-3.165-.358-4.6.613a.685.685,0,0,1-.553,0,8.448,8.448,0,0,0-6.9,0,.683.683,0,0,1-.553,0c-1.384-.947-2.949-.612-4.447-.616-2.636-.008-3.877,1.3-3.9,3.956-.016,1.883-.829,2.459-2.649,1.962-.517-.141-.453-.461-.45-.795.015-2.181.042-4.363.065-6.545a.926.926,0,0,1,.564-.149c9.291.042,18.581,0,27.872.026C135.311-771.71,136.16-771.9,136.85-771.283Z" transform="translate(-121.999 -130.22)" fill="#fde4c1"/>
    <path id="Trazado_580848" data-name="Trazado 580848" d="M3.183-883.3l.29.886c-.024.173-.195.222-.287.337a2.247,2.247,0,0,0-1.238,2.513c.066.692.149,1.358-.888,1.551a1.351,1.351,0,0,0-.926,1.428,14.571,14.571,0,0,0,.013,2.274c.216,1.441-.4,1.74-1.729,1.711-1.111-.024-1.462-.26-1.423-1.42.094-2.78.059-5.565.013-8.347-.013-.8.22-1.055,1.022-1.019C-.254-883.31,1.465-883.322,3.183-883.3Z" transform="translate(-46.242 -52.636)" fill="#fdd1a3"/>
    <path id="Trazado_580849" data-name="Trazado 580849" d="M41.418-771.649c.023,2.073-.01,4.149.095,6.218.052,1.012-.349,1.149-1.218,1.134-1.909-.033-1.844.009-1.933-1.933-.062-1.342.583-2.891-.9-3.922a5.779,5.779,0,0,0-2.106-.12c-6.081-.015-12.161-.005-18.242-.01a.592.592,0,0,1-.509-.219.973.973,0,0,1-.018-.845.979.979,0,0,1,.995-.472c7.763.078,15.526.042,23.29.016A.882.882,0,0,1,41.418-771.649Z" transform="translate(-59.799 -130.159)" fill="#fde4c1"/>
    <path id="Trazado_580850" data-name="Trazado 580850" d="M22.9-812.171h6.707a12.989,12.989,0,0,1,0,5.769H22.9A7.308,7.308,0,0,1,22.9-812.171Z" transform="translate(-63.835 -102.124)" fill="#fc5326"/>
    <path id="Trazado_580851" data-name="Trazado 580851" d="M3.494-828.319c-.279.715.146,1.428,0,2.143a.718.718,0,0,1-.289.293c-.5.026-1.01.048-1.515.079a1.968,1.968,0,0,0-2.143,2.2c-.033,1.675-.082,3.356.016,5.026.07,1.182-.648.975-1.342,1.01-.736.037-1.226,0-1.2-1,.086-3.043.068-6.089.091-9.134a36.127,36.127,0,0,1,5.107-.137c-1.412-.2-3.273.2-5.1-.167,1.113-.633,2.319-.192,3.478-.284C1.563-828.363,2.531-828.313,3.494-828.319Z" transform="translate(-46.264 -90.88)" fill="#fcd1a3"/>
    <path id="Trazado_580852" data-name="Trazado 580852" d="M3.705-935.635c-.724.707.174,1.421-.009,2.13a.688.688,0,0,1-.287.3c-.449.024-.9.054-1.349.073-1.62.068-2.272.708-2.308,2.313-.021.954,0,1.909,0,2.864,0,1.969-.273,2.135-2.39,1.469.511-.388,1.215.094,1.684-.248a2.6,2.6,0,0,1-1.719-.055q0-4.575,0-9.149c1.882-.659,3.822-.146,5.73-.29a1.41,1.41,0,0,1,.531.13A.321.321,0,0,1,3.705-935.635Z" transform="translate(-46.473 -15.88)" fill="#fdd1a3"/>
    <path id="Trazado_580853" data-name="Trazado 580853" d="M1.361-770.209a1.949,1.949,0,0,0-1.239,2.187c.041.655-.076,1.328.025,1.97.229,1.458-.286,1.934-1.775,1.817-.984-.077-1.435-.183-1.371-1.314.115-2.017.072-4.042.094-6.064a.74.74,0,0,1,.452-.16c1.515.121,3.038-.043,4.552.11.294.03.68.1.724.439.061.46-.408.48-.7.625a2.853,2.853,0,0,0-.409.145C1.6-770.373,1.477-770.292,1.361-770.209Z" transform="translate(-46.244 -130.196)" fill="#fcd1a3"/>
    <path id="Trazado_580854" data-name="Trazado 580854" d="M63.111-799.641c-2.334.022-4.669.007-7,.081-1.238.039-.909-.808-.91-1.442s-.328-1.481.91-1.441c2.332.074,4.667.059,7,.081A4.824,4.824,0,0,1,63.111-799.641Z" transform="translate(-86.663 -108.883)" fill="#fc5325"/>
    <path id="Trazado_580855" data-name="Trazado 580855" d="M106.234-838.964v-.612a2.033,2.033,0,0,1,1.185-.143q14.2-.008,28.4,0a2.038,2.038,0,0,1,1.185.143v.614a10.7,10.7,0,0,1-3,.3q-12.388,0-24.775,0A10.5,10.5,0,0,1,106.234-838.964Z" transform="translate(-122.153 -82.968)" fill="#f0a56a"/>
    <path id="Trazado_580856" data-name="Trazado 580856" d="M106.228-895.407c-.056-.7.476-.519.831-.52q14.553-.012,29.107,0c.355,0,.887-.182.831.52a2.449,2.449,0,0,1-1.869.433q-13.514.012-27.029,0A2.467,2.467,0,0,1,106.228-895.407Z" transform="translate(-122.145 -43.908)" fill="#feb171"/>
    <path id="Trazado_580857" data-name="Trazado 580857" d="M28.093-894.895v.611a2.021,2.021,0,0,1-1.185.144q-14.2.008-28.4,0a2.022,2.022,0,0,1-1.185-.143v-.612a2.539,2.539,0,0,1,1.759-.3q13.625-.012,27.25,0A2.548,2.548,0,0,1,28.093-894.895Z" transform="translate(-46.473 -44.42)" fill="#f2a66a"/>
    <path id="Trazado_580858" data-name="Trazado 580858" d="M28.084-895.408H-2.683c-.056-.7.475-.519.831-.52q14.553-.012,29.107,0C27.609-895.927,28.141-896.109,28.084-895.408Z" transform="translate(-46.464 -43.908)" fill="#feb171"/>
    <path id="Trazado_580859" data-name="Trazado 580859" d="M106.508-772.5l-.294,0c-.094-.71.441-.533.8-.533q14.588-.011,29.176,0c.356,0,.888-.175.8.533a2,2,0,0,1-1.184.145q-14.052.008-28.1,0A2.039,2.039,0,0,1,106.508-772.5Z" transform="translate(-122.131 -129.304)" fill="#feefca"/>
    <path id="Trazado_580860" data-name="Trazado 580860" d="M136.986-783.235c.078.693-.44.54-.8.541q-14.58.009-29.161,0c-.364,0-.883.153-.8-.541a2.467,2.467,0,0,1,1.87-.433q13.515-.012,27.029,0A2.45,2.45,0,0,1,136.986-783.235Z" transform="translate(-122.136 -121.926)" fill="#feaf70"/>
    <path id="Trazado_580861" data-name="Trazado 580861" d="M28.076-783.235c.08.694-.439.54-.8.541q-14.58.01-29.161,0c-.365,0-.883.152-.8-.541a2.45,2.45,0,0,1,1.869-.433q13.515-.012,27.029,0A2.467,2.467,0,0,1,28.076-783.235Z" transform="translate(-46.456 -121.926)" fill="#feaf70"/>
    <path id="Trazado_580862" data-name="Trazado 580862" d="M137-827.789H106.229c-.058-1.078.775-.575,1.174-.577,6.636-.033,13.272-.024,19.909-.024,2.888,0,5.775-.015,8.662.019C136.354-828.367,137.111-828.762,137-827.789Z" transform="translate(-122.148 -90.79)" fill="#fde7c3"/>
    <path id="Trazado_580863" data-name="Trazado 580863" d="M106.5-936.437H106.2c-.114-.7.41-.552.776-.552q14.608-.009,29.216,0c.366,0,.888-.151.777.552a2,2,0,0,1-1.184.145q-14.052.008-28.1,0A2.032,2.032,0,0,1,106.5-936.437Z" transform="translate(-122.119 -15.379)" fill="#feedc9"/>
    <path id="Trazado_580864" data-name="Trazado 580864" d="M137-783.984H106.237v-.308c.307-.572.853-.448,1.345-.448q14.039-.005,28.078,0c.49,0,1.039-.129,1.343.448Z" transform="translate(-122.155 -121.176)" fill="#f2a66a"/>
    <path id="Trazado_580865" data-name="Trazado 580865" d="M28.094-783.985H-2.674v-.309c.305-.576.853-.447,1.344-.447q14.039-.006,28.078,0c.492,0,1.038-.124,1.344.449Z" transform="translate(-46.474 -121.176)" fill="#f2a66a"/>
    <path id="Trazado_580866" data-name="Trazado 580866" d="M106.227-837.2H137c-.018.569-.461.443-.78.443q-14.628.011-29.255,0C106.658-836.758,106.181-836.576,106.227-837.2Z" transform="translate(-122.146 -84.731)" fill="#feb574"/>
    <path id="Trazado_580867" data-name="Trazado 580867" d="M163.956-806.619c-.1.618.348,1.774-.2,2.015a7.947,7.947,0,0,1-2.958.187c-.386,0-.479-.285-.477-.626,0-1.162.021-2.325-.007-3.486-.015-.616.283-.724.828-.772C163.958-809.556,163.956-809.572,163.956-806.619Z" transform="translate(-159.734 -104.045)" fill="#f9ea97"/>
    <path id="Trazado_580868" data-name="Trazado 580868" d="M144.7-806.52c0,2.333-.862,2.965-3.139,2.387-.5-.126-.489-.407-.491-.761q0-1.059,0-2.119c0-2.017,0-2.017,1.981-2.014C144.7-809.023,144.7-809.023,144.7-806.52Z" transform="translate(-146.361 -104.309)" fill="#f7d964"/>
    <path id="Trazado_580869" data-name="Trazado 580869" d="M16.891-812.171q0,2.886,0,5.772l-3.051,0a22.843,22.843,0,0,1,0-5.767Z" transform="translate(-57.821 -102.124)" fill="#ee4324"/>
    <path id="Trazado_580870" data-name="Trazado 580870" d="M106.234-894.176H137v.612c-1.958.354-3.939,0-5.9.2-1.471-.046-2.942.034-4.414-.02-6.272-.064-12.543,0-18.814-.034a3.3,3.3,0,0,1-1.639-.141Q106.233-893.87,106.234-894.176Z" transform="translate(-122.152 -45.14)" fill="#f2a66a"/>
    <path id="Trazado_580871" data-name="Trazado 580871" d="M28.094-839.577v.612a2.28,2.28,0,0,1-1.606.3c-5.984,0-11.968.023-17.951-.009a24.826,24.826,0,0,0-4.97,0c-1.6.032-3.206.014-4.809.012a1.983,1.983,0,0,1-1.433-.3v-.613a2.039,2.039,0,0,1,1.185-.143q14.2-.008,28.4,0A2.033,2.033,0,0,1,28.094-839.577Z" transform="translate(-46.473 -82.968)" fill="#f0a56a"/>
    <path id="Trazado_580872" data-name="Trazado 580872" d="M35.813-915.878c-.192.578.454,1.639-.371,1.939a8.317,8.317,0,0,1-2.855.077c-.308-.005-.4-.281-.4-.545-.008-1.114,0-2.228-.006-3.342,0-.433.186-.657.63-.648.152,0,.3,0,.456-.008C35.813-918.511,35.813-918.511,35.813-915.878Z" transform="translate(-70.697 -28.281)" fill="#028dcb"/>
    <path id="Trazado_580873" data-name="Trazado 580873" d="M54.743-916.036c.006,2.161-1.146,3.123-3.093,2.184-1.26-.607-.315-2.186-.508-3.31-.072-.419-.276-1.12.533-1.172s1.625,0,2.438-.016c.445-.006.643.194.633.637C54.735-917.154,54.743-916.6,54.743-916.036Z" transform="translate(-83.759 -28.335)" fill="#08a6ed"/>
    <path id="Trazado_580874" data-name="Trazado 580874" d="M150.34-855.718h-.455c-2.139,0-2.6-.625-2.141-2.754.127-.592.478-.543.877-.544,1.162,0,2.324.031,3.485-.012.68-.025.819.257.854.886C153.1-855.717,153.123-855.718,150.34-855.718Z" transform="translate(-150.887 -69.562)" fill="#c6edfb"/>
    <path id="Trazado_580875" data-name="Trazado 580875" d="M41.461-855.837h-.455c-2.184,0-2.6-.559-2.163-2.734.117-.585.449-.565.858-.565a18.62,18.62,0,0,0,2.573-.022c1.47-.207,1.94.313,1.8,1.79C43.932-855.848,44.042-855.837,41.461-855.837Z" transform="translate(-75.216 -69.443)" fill="#c6edfb"/>
    <path id="Trazado_580876" data-name="Trazado 580876" d="M3.883-838.049a7.233,7.233,0,0,1,4.575,0c.462.328.986.146,1.475.148,5.536.016,11.073.005,16.609.017a3.386,3.386,0,0,1,1.647.135c-.5.365-1.075.172-1.609.173q-8.482.026-16.963,0c-.911,0-1.733.043-2.08,1.075-.986.085-2-.2-2.959.234-.056-1.051-.717-1.28-1.637-1.312-1.789-.062-3.59.232-5.367-.172a33.829,33.829,0,0,1,4.676-.147C2.794-837.931,3.362-837.749,3.883-838.049Z" transform="translate(-46.646 -83.882)" fill="#f3a76b"/>
    <path id="Trazado_580877" data-name="Trazado 580877" d="M182.97-804.55c-3.151.24-3.151.24-3.151-2.254,0-2.784.53-3.139,3.447-2.31C182.851-807.613,183.385-806.051,182.97-804.55Z" transform="translate(-173.286 -103.975)" fill="#fbdc65"/>
    <path id="Trazado_580878" data-name="Trazado 580878" d="M128.919-922.111l2.743,0a35.391,35.391,0,0,1,.135,5.246.372.372,0,0,1-.376.329c-.864-.322-1.89.247-2.682-.484A7.148,7.148,0,0,1,128.919-922.111Z" transform="translate(-137.528 -25.728)" fill="#56bd91"/>
    <path id="Trazado_580879" data-name="Trazado 580879" d="M177.887-922.111l2.743,0a35.435,35.435,0,0,1,.134,5.246.372.372,0,0,1-.376.329c-.864-.322-1.89.247-2.682-.484A7.148,7.148,0,0,1,177.887-922.111Z" transform="translate(-171.555 -25.728)" fill="#56bd91"/>
    <path id="Trazado_580880" data-name="Trazado 580880" d="M74.111-914.026a3.05,3.05,0,0,1-2.751.172c-1.553-.693-.376-2.29-.681-3.454-.153-.586,0-1.114.838-1.048.757.06,1.519.05,2.279.071C74.215-916.888,73.657-915.419,74.111-914.026Z" transform="translate(-97.347 -28.333)" fill="#028ecd"/>
    <path id="Trazado_580881" data-name="Trazado 580881" d="M122.209-808.875c.983-.5,2.031-.193,3.047-.207.5-.007.388.467.308.814-.456,1.291.117,2.662-.31,3.955h-2.747C122.092-805.813,122.622-807.375,122.209-808.875Z" transform="translate(-133.254 -104.213)" fill="#feed99"/>
    <path id="Trazado_580882" data-name="Trazado 580882" d="M14.058-918.3c3.16-.227,3.19-.226,3.12,2.91-.012.527.611,1.539-.707,1.535-.81-.161-1.652.123-2.453-.171a.325.325,0,0,1,.085-.43,13.043,13.043,0,0,1,1.972-.031c-.249-.139-.606-.025-.939-.01-.79.036-1.082-.333-1.079-1.083a17.537,17.537,0,0,0-.046-2.261A.476.476,0,0,1,14.058-918.3Z" transform="translate(-58.041 -28.316)" fill="#08a8f0"/>
    <path id="Trazado_580883" data-name="Trazado 580883" d="M3.369-936.424l-6.088,0c-.106-.541.245-.558.627-.558q14.9,0,29.8.008c.1,0,.209.157.313.241a3.45,3.45,0,0,1-2.066.3Q14.661-936.416,3.369-936.424Z" transform="translate(-46.429 -15.396)" fill="#fed9a9"/>
    <path id="Trazado_580884" data-name="Trazado 580884" d="M-2.42-772.476l-.29,0c-.094-.553.281-.539.649-.539q14.875,0,29.75,0c.11,0,.22.149.33.229a2.631,2.631,0,0,1-1.612.3c-7.484-.066-14.969.142-22.451-.1a1.1,1.1,0,0,0-.567.193A32.651,32.651,0,0,1-2.42-772.476Z" transform="translate(-46.439 -129.33)" fill="#fedbac"/>
    <path id="Trazado_580885" data-name="Trazado 580885" d="M155.871-758.635c1.077.868.445,2.037.5,3.072.02.352-.447.309-.734.307-.75-.006-1.5-.031-2.251-.049-1.041-.674-.809-1.656-.563-2.584.284-1.07,1.209-.879,2-.874A1.863,1.863,0,0,1,155.871-758.635Z" transform="translate(-154.385 -139.225)" fill="#fa5325"/>
    <path id="Trazado_580886" data-name="Trazado 580886" d="M51.7-816.859v-3.41a5.217,5.217,0,0,1,.3,2.314c.036.464.171.774.7.793.59.021.82-.27.819-.828,0-2.691,0-5.382,0-8.072,0-1.071-.82-.834-1.43-.836q-8.148-.018-16.3-.007H34.346l.007-.3H53.808c.026,3.189.127,6.379.048,9.566C53.814-815.932,52.429-817.113,51.7-816.859Z" transform="translate(-72.199 -91.673)" fill="#fde7c3"/>
    <path id="Trazado_580887" data-name="Trazado 580887" d="M153.05-915.288c4.042-.086,3.317-.733,3.258,3.348a.652.652,0,0,1-.46.016c-.955-.118-1.916.069-2.873-.058A3.051,3.051,0,0,1,153.05-915.288Z" transform="translate(-154.32 -30.408)" fill="#55bc90"/>
    <path id="Trazado_580888" data-name="Trazado 580888" d="M47.4-758.423c.015.15.041.3.045.452.061,3.016.06,3.016-3.046,2.859-1.153-1.011-.9-2.152-.311-3.324.954-.072,1.914.089,2.869-.039A.443.443,0,0,1,47.4-758.423Z" transform="translate(-78.622 -139.411)" fill="#07a7ee"/>
    <path id="Trazado_580889" data-name="Trazado 580889" d="M131.468-758.646c1.105.848.485,2.019.54,3.052.021.393-.411.36-.7.358-.8-.006-1.6-.032-2.4-.049a1.373,1.373,0,0,1-.378-.639c-.544-2.1.051-2.867,2.2-2.819A2.272,2.272,0,0,1,131.468-758.646Z" transform="translate(-137.512 -139.249)" fill="#fa5325"/>
    <path id="Trazado_580890" data-name="Trazado 580890" d="M180.436-758.646c1.106.848.485,2.019.54,3.052.021.393-.411.36-.7.358-.8-.006-1.6-.032-2.4-.049a1.373,1.373,0,0,1-.378-.639c-.544-2.1.051-2.867,2.2-2.819A2.272,2.272,0,0,1,180.436-758.646Z" transform="translate(-171.54 -139.249)" fill="#fa5325"/>
    <path id="Trazado_580891" data-name="Trazado 580891" d="M128.419-916.647l.33.007q.2-.244.31.047a9.954,9.954,0,0,1-4.906-.037,19.393,19.393,0,0,0,.17-3.859,3.659,3.659,0,0,1,.143-1.62l1.53,0q.006,2.586.013,5.173C126.775-916.531,127.65-917.027,128.419-916.647Z" transform="translate(-134.604 -25.728)" fill="#22b07d"/>
    <path id="Trazado_580892" data-name="Trazado 580892" d="M177.387-916.647l.33.007q.2-.244.311.047a9.954,9.954,0,0,1-4.906-.037,19.415,19.415,0,0,0,.17-3.859,3.655,3.655,0,0,1,.143-1.62l1.53,0q.007,2.586.013,5.173C175.744-916.531,176.619-917.027,177.387-916.647Z" transform="translate(-168.632 -25.728)" fill="#22b07d"/>
    <path id="Trazado_580893" data-name="Trazado 580893" d="M28.03-784.754a3.123,3.123,0,0,0-1.769-.3q-13.614,0-27.228,0a3.109,3.109,0,0,0-1.769.3c-.162-.784.415-.654.841-.654q14.544-.008,29.087,0C27.619-785.409,28.195-785.538,28.03-784.754Z" transform="translate(-46.411 -120.715)" fill="#f6a96b"/>
    <path id="Trazado_580894" data-name="Trazado 580894" d="M136.942-784.755a3.1,3.1,0,0,0-1.769-.3q-13.614,0-27.228,0a3.131,3.131,0,0,0-1.769.3c-.164-.784.413-.654.838-.655q14.544-.008,29.088,0C136.528-785.409,137.1-785.538,136.942-784.755Z" transform="translate(-122.092 -120.715)" fill="#f6a96b"/>
    <path id="Trazado_580895" data-name="Trazado 580895" d="M69.065-855.019a8.307,8.307,0,0,1-4.964,0,1.119,1.119,0,0,0,.315-.665c.132-1.772.3-1.913,2.243-1.9,1.815.012,1.953.138,2.085,1.908A1.053,1.053,0,0,0,69.065-855.019Z" transform="translate(-92.875 -70.566)" fill="#c7edfc"/>
    <path id="Trazado_580896" data-name="Trazado 580896" d="M129-855.021a8.309,8.309,0,0,1-4.964,0,1.067,1.067,0,0,0,.322-.66c.133-1.778.3-1.919,2.237-1.907,1.82.011,1.96.138,2.091,1.9A1.11,1.11,0,0,0,129-855.021Z" transform="translate(-134.522 -70.566)" fill="#c7edfc"/>
    <path id="Trazado_580897" data-name="Trazado 580897" d="M177.967-855.021a8.308,8.308,0,0,1-4.963,0,1.066,1.066,0,0,0,.321-.66c.133-1.778.3-1.919,2.237-1.907,1.82.01,1.96.138,2.091,1.9A1.11,1.11,0,0,0,177.967-855.021Z" transform="translate(-168.55 -70.566)" fill="#c7edfc"/>
    <path id="Trazado_580898" data-name="Trazado 580898" d="M20.1-855.019a8.307,8.307,0,0,1-4.964,0,1.119,1.119,0,0,0,.315-.665c.132-1.772.3-1.913,2.243-1.9,1.815.012,1.953.138,2.085,1.908A1.053,1.053,0,0,0,20.1-855.019Z" transform="translate(-58.848 -70.566)" fill="#c7edfc"/>
    <path id="Trazado_580899" data-name="Trazado 580899" d="M-2.675-892.171H28.094c-.221.63-.764.357-1.152.358q-14.233.027-28.465,0C-1.912-891.814-2.455-891.539-2.675-892.171Z" transform="translate(-46.473 -46.533)" fill="#fbac6f"/>
    <path id="Trazado_580900" data-name="Trazado 580900" d="M137.38-833.834H107.343v-.153h30.084Z" transform="translate(-122.923 -86.964)" fill="#040201"/>
    <path id="Trazado_580901" data-name="Trazado 580901" d="M28.45-842.829H-1.587v-.152H28.5Z" transform="translate(-47.229 -80.714)" fill="#040201"/>
    <path id="Trazado_580902" data-name="Trazado 580902" d="M107.423-843.06h29.963v.152H107.355Z" transform="translate(-122.932 -80.66)" fill="#040201"/>
    <path id="Trazado_580903" data-name="Trazado 580903" d="M28.094-840.312H-2.675c.217-.752.839-.4,1.263-.4q14.121-.033,28.242,0C27.255-840.716,27.877-841.064,28.094-840.312Z" transform="translate(-46.473 -82.232)" fill="#feb473"/>
    <path id="Trazado_580904" data-name="Trazado 580904" d="M137-840.313H106.234c.218-.751.839-.4,1.264-.405q14.121-.032,28.242,0C136.164-840.716,136.786-841.065,137-840.313Z" transform="translate(-122.153 -82.232)" fill="#feb473"/>
    <path id="Trazado_580905" data-name="Trazado 580905" d="M107.2-935.149l30.474,0v.306q-14.371,0-28.742-.01C108.353-934.857,107.706-934.63,107.2-935.149Z" transform="translate(-122.825 -16.667)" fill="#fbe1bf"/>
    <path id="Trazado_580906" data-name="Trazado 580906" d="M23.148-755.543c-.985.644-2.056.2-3.087.243a1.7,1.7,0,0,1-.47-1.094c-.255-1.879.173-2.38,2.041-2.363a2.767,2.767,0,0,1,1.2.11l-.025.014C23.207-757.633,22.644-756.529,23.148-755.543Z" transform="translate(-61.899 -139.233)" fill="#08a7ee"/>
    <path id="Trazado_580907" data-name="Trazado 580907" d="M72.116-755.543c-.985.644-2.056.2-3.087.243a1.7,1.7,0,0,1-.47-1.094c-.255-1.879.173-2.38,2.041-2.363a2.767,2.767,0,0,1,1.2.11l-.025.014C72.175-757.633,71.612-756.529,72.116-755.543Z" transform="translate(-95.926 -139.233)" fill="#08a7ee"/>
    <path id="Trazado_580908" data-name="Trazado 580908" d="M107.2-771.244l30.474,0v.306q-14.371,0-28.742-.01C108.354-770.952,107.707-770.725,107.2-771.244Z" transform="translate(-122.826 -130.562)" fill="#fbe1be"/>
    <path id="Trazado_580909" data-name="Trazado 580909" d="M44.27-759.068q-.132,0-.264,0a5.723,5.723,0,0,1-2.728,0,4.073,4.073,0,0,0-.009,3.308c-.706-.044-1.758.437-2.022-.313a8.7,8.7,0,0,1-.05-2.975.41.41,0,0,1,.294-.273C41.084-759.237,42.711-759.779,44.27-759.068Z" transform="translate(-75.492 -138.766)" fill="#018dcb"/>
    <path id="Trazado_580910" data-name="Trazado 580910" d="M149.884-915.336c.15,1.1-.365,2.258.3,3.308a6.04,6.04,0,0,1,2.7.008c.084.008.167.018.25.031-1.5.584-3.05.146-4.574.227-.476.025-.537-.357-.537-.735a7.723,7.723,0,0,0-.013-1.209C147.768-915.269,148.5-915.67,149.884-915.336Z" transform="translate(-151.155 -30.36)" fill="#20af7c"/>
    <path id="Trazado_580911" data-name="Trazado 580911" d="M17.049-771.985c.514-.492,1.155-.274,1.737-.276q11.453-.032,22.905-.029a1.428,1.428,0,0,1,.07.2c.007.032-.019.072-.03.108l-.294,0a1.707,1.707,0,0,1-1.033.144q-10.857.006-21.714,0a1.7,1.7,0,0,1-1.033-.145l-.592.3q-.145-.093-.1-.2C16.989-771.95,17.018-771.985,17.049-771.985Z" transform="translate(-60.111 -129.825)" fill="#feefca"/>
    <path id="Trazado_580912" data-name="Trazado 580912" d="M17.277-935.908c.509-.506,1.152-.278,1.732-.28q11.459-.032,22.918-.027.015.155.03.309h-.294a1.7,1.7,0,0,1-1.034.145q-11.015.006-22.031,0a1.835,1.835,0,0,1-1.038-.134Q17.418-935.9,17.277-935.908Z" transform="translate(-60.338 -15.912)" fill="#feedc9"/>
    <path id="Trazado_580913" data-name="Trazado 580913" d="M152.346-759.059c-.1,0-.2.012-.3.013-2.532.028-3.031.786-2.182,3.317q-3.081.171-2.071-2.737c.144-.414.419-.782.837-.792C149.873-759.289,151.138-759.636,152.346-759.059Z" transform="translate(-150.86 -138.801)" fill="#ec4423"/>
    <path id="Trazado_580914" data-name="Trazado 580914" d="M173.215-893.022a5.459,5.459,0,0,1,3.964,0c.123.116.315.157.374.342a2.105,2.105,0,0,0-.986,1.187c-.992.089-2.015-.21-2.977.239a1.6,1.6,0,0,0-.788-1.4C172.868-892.86,173.086-892.892,173.215-893.022Z" transform="translate(-168.411 -45.682)" fill="#f3a76b"/>
    <path id="Trazado_580915" data-name="Trazado 580915" d="M11.3-767.767a1.032,1.032,0,0,1,.029-.218,1.765,1.765,0,0,1,1.808-.049q9.49.028,18.98.065c.582,0,1.226-.215,1.731.3Z" transform="translate(-56.188 -132.638)" fill="#e3d4b3"/>
    <path id="Trazado_580916" data-name="Trazado 580916" d="M19.806-759.145C17-759.06,17-759.06,17.034-755.8l-1.538,0c-.431-1.075.165-2.251-.328-3.319A7.8,7.8,0,0,1,19.806-759.145Z" transform="translate(-58.872 -138.734)" fill="#018ecc"/>
    <path id="Trazado_580917" data-name="Trazado 580917" d="M17.267-926.874l.287-.3q10.163,0,20.326.011a1.5,1.5,0,0,1,.384.105l-.313.216Z" transform="translate(-60.331 -22.209)" fill="#fee8c4"/>
    <path id="Trazado_580918" data-name="Trazado 580918" d="M68.774-759.145c-2.807.085-2.807.085-2.772,3.346l-1.538,0c-.431-1.075.165-2.251-.328-3.319A7.8,7.8,0,0,1,68.774-759.145Z" transform="translate(-92.899 -138.734)" fill="#018ecc"/>
    <path id="Trazado_580919" data-name="Trazado 580919" d="M126.957-892.173l-.413.366c-6.336,0-12.672.012-19.008-.011-.432,0-1.032.341-1.3-.355Z" transform="translate(-122.152 -46.532)" fill="#fbac6f"/>
    <path id="Trazado_580920" data-name="Trazado 580920" d="M177.722-759.159c-2.58.137-2.58.137-2.563,3.361l-1.533,0c-.363-.971.037-2-.227-2.979C174.754-759.888,176.247-759.422,177.722-759.159Z" transform="translate(-168.825 -138.735)" fill="#eb4223"/>
    <path id="Trazado_580921" data-name="Trazado 580921" d="M128.754-759.159c-2.58.137-2.58.137-2.563,3.361l-1.533,0c-.363-.971.037-2-.227-2.979C125.785-759.888,127.279-759.422,128.754-759.159Z" transform="translate(-134.798 -138.735)" fill="#eb4223"/>
    <path id="Trazado_580922" data-name="Trazado 580922" d="M52.978-836.91q-9.7-.006-19.393-.013a.524.524,0,0,1-.283-.048c-.05-.035-.038-.156-.054-.239l19.809,0Z" transform="translate(-71.435 -84.725)" fill="#feb574"/>
    <path id="Trazado_580923" data-name="Trazado 580923" d="M106.085-825.206c.641,1.3.195,2.686.274,4.028.083,1.417.018,2.843.02,4.265,0,.569-.048,1.172.811,1.141.764-.027.708-.579.71-1.089a15.777,15.777,0,0,1,.307-3.747v5.141c-2.19.177-2.2.177-2.189-2C106.031-820.046,106.062-822.626,106.085-825.206Z" transform="translate(-122.002 -93.066)" fill="#fde7c3"/>
    <path id="Trazado_580924" data-name="Trazado 580924" d="M17.287-820.93l.289-.293q4.9,0,9.8.006c.076,0,.152.07.229.108l-.314.214Z" transform="translate(-60.345 -95.834)" fill="#fee8c4"/>
    <path id="Trazado_580925" data-name="Trazado 580925" d="M56.15-812.2c.219-.09-.516-1.557.61-.409.211.215.77.115,1.168.117,2.367.008,4.734,0,7.1.008.077,0,.153.07.229.107l-.313.214Z" transform="translate(-87.324 -101.514)" fill="#fee8c5"/>
    <path id="Trazado_580926" data-name="Trazado 580926" d="M46.24-806.4v-5.769c.95,1.23.344,2.651.432,3.977C46.71-807.625,47.122-806.805,46.24-806.4Z" transform="translate(-80.464 -102.126)" fill="#fe5929"/>
    <path id="Trazado_580927" data-name="Trazado 580927" d="M124.219-858.849a10.222,10.222,0,0,1,4.853,0c-.124.221-.244.446-.538.473-1.26-.035-2.519-.037-3.779,0C124.452-858.393,124.329-858.613,124.219-858.849Z" transform="translate(-134.65 -69.484)" fill="#d1f9fe"/>
    <path id="Trazado_580928" data-name="Trazado 580928" d="M173.187-858.849a10.222,10.222,0,0,1,4.853,0c-.124.221-.244.446-.538.473-1.259-.035-2.519-.037-3.779,0C173.42-858.393,173.3-858.613,173.187-858.849Z" transform="translate(-168.678 -69.484)" fill="#d1f9fe"/>
    <path id="Trazado_580929" data-name="Trazado 580929" d="M64.281-858.85a10.227,10.227,0,0,1,4.853,0,.67.67,0,0,1-.535.474c-1.259-.041-2.519-.036-3.779,0C64.525-858.4,64.4-858.628,64.281-858.85Z" transform="translate(-93 -69.485)" fill="#d1f9fe"/>
    <path id="Trazado_580930" data-name="Trazado 580930" d="M15.312-858.85a10.228,10.228,0,0,1,4.853,0,.67.67,0,0,1-.535.474c-1.259-.041-2.519-.036-3.779,0C15.556-858.4,15.436-858.628,15.312-858.85Z" transform="translate(-58.972 -69.485)" fill="#d1f9fe"/>
    <path id="Trazado_580931" data-name="Trazado 580931" d="M119.64-930.822a.391.391,0,0,1-.146-.035,1.553,1.553,0,0,1-.176-.177,1.375,1.375,0,0,1,.374-.113q3.628-.01,7.255,0c.074,0,.147.075.22.115l-.324.211Z" transform="translate(-131.245 -19.446)" fill="#fee9c5"/>
    <path id="Trazado_580932" data-name="Trazado 580932" d="M168.608-930.822a.388.388,0,0,1-.145-.035,1.553,1.553,0,0,1-.176-.177,1.377,1.377,0,0,1,.374-.113q3.627-.01,7.255,0c.074,0,.147.075.221.115l-.324.211Z" transform="translate(-165.273 -19.446)" fill="#fee9c5"/>
    <path id="Trazado_580933" data-name="Trazado 580933" d="M155.674-870.539c.055.6-.267.776-.818.765-.523-.011-.687-.271-.7-.753-.012-.593.271-.785.829-.771C155.514-871.285,155.7-871.028,155.674-870.539Z" transform="translate(-155.455 -61.036)" fill="#524b6b"/>
    <path id="Trazado_580934" data-name="Trazado 580934" d="M46.756-870.59c.064.57-.186.827-.768.816-.486-.009-.734-.185-.744-.705-.01-.56.192-.836.781-.82C46.509-871.286,46.794-871.119,46.756-870.59Z" transform="translate(-79.771 -61.036)" fill="#524b6b"/>
    <path id="Trazado_580935" data-name="Trazado 580935" d="M3.711-837.2c-2.077.651-4.211.094-6.31.3l-.076-.3Z" transform="translate(-46.473 -84.731)" fill="#feb573"/>
    <path id="Trazado_580936" data-name="Trazado 580936" d="M187.52-891.834l-.374-.342,6.082,0c-.507.787-1.279.3-1.911.344C190.056-891.749,188.786-891.823,187.52-891.834Z" transform="translate(-178.377 -46.529)" fill="#fbad6f"/>
    <path id="Trazado_580937" data-name="Trazado 580937" d="M180.264-870.407c0,.432-.13.709-.6.724-.521.017-.743-.229-.724-.729.014-.367.033-.749.541-.732A.775.775,0,0,1,180.264-870.407Z" transform="translate(-172.674 -61.144)" fill="#534c6d"/>
    <path id="Trazado_580938" data-name="Trazado 580938" d="M71.351-870.468c-.02.645-.29.784-.708.773-.572-.015-.631-.387-.615-.831.015-.418.174-.7.641-.618A.756.756,0,0,1,71.351-870.468Z" transform="translate(-96.992 -61.135)" fill="#534c6d"/>
    <path id="Trazado_580939" data-name="Trazado 580939" d="M22.379-870.461c-.016.624-.276.776-.7.767-.567-.011-.64-.373-.624-.822.015-.412.159-.7.632-.629A.76.76,0,0,1,22.379-870.461Z" transform="translate(-62.964 -61.136)" fill="#534c6d"/>
    <path id="Trazado_580940" data-name="Trazado 580940" d="M130.609-871.142a.776.776,0,0,1,.68.805.562.562,0,0,1-.637.654c-.541.006-.7-.287-.684-.768C129.982-870.837,130.052-871.166,130.609-871.142Z" transform="translate(-138.643 -61.145)" fill="#534c6d"/>
    <path id="Trazado_580941" data-name="Trazado 580941" d="M-2.664-827.209H2.722l0,.3h-5.4Z" transform="translate(-46.473 -91.674)" fill="#fed5a6"/>
    <path id="Trazado_580942" data-name="Trazado 580942" d="M13.172-812.167q0,2.884,0,5.767c-.6-.131-.44-.642-.4-.982C12.973-808.973,12.265-810.639,13.172-812.167Z" transform="translate(-57.155 -102.127)" fill="#fe4926"/>
    <path id="Trazado_580943" data-name="Trazado 580943" d="M173.232-922.106c-.171,1.823.372,3.686-.313,5.479-.031-1.6-.066-3.2-.088-4.8C172.826-921.716,172.82-922.043,173.232-922.106Z" transform="translate(-168.429 -25.731)" fill="#24bf89"/>
    <path id="Trazado_580944" data-name="Trazado 580944" d="M188.473-916.588l-.311-.047q0-2.734-.009-5.468c.761.3.381.957.393,1.434C188.578-919.31,188.5-917.949,188.473-916.588Z" transform="translate(-179.077 -25.734)" fill="#5dcc9d"/>
    <path id="Trazado_580945" data-name="Trazado 580945" d="M139.5-916.588l-.31-.047q0-2.734-.009-5.468c.761.3.382.957.393,1.434C139.609-919.31,139.536-917.949,139.5-916.588Z" transform="translate(-145.049 -25.734)" fill="#5dcc9d"/>
    <path id="Trazado_580946" data-name="Trazado 580946" d="M124.264-922.106c-.171,1.823.373,3.686-.313,5.479-.031-1.6-.066-3.2-.088-4.8C123.858-921.716,123.852-922.043,124.264-922.106Z" transform="translate(-134.402 -25.731)" fill="#24bf89"/>
    <path id="Trazado_580947" data-name="Trazado 580947" d="M149.173-924.195c.557-.817,1.349-.233,1.986-.237.848,0,1.793-.478,2.587.235A28.247,28.247,0,0,1,149.173-924.195Z" transform="translate(-151.99 -23.978)" fill="#fee8c4"/>
    <path id="Trazado_580948" data-name="Trazado 580948" d="M125.634-879.92a.4.4,0,0,1-.145-.035,1.6,1.6,0,0,1-.177-.175,14.716,14.716,0,0,1,4.192,0c-.014.037-.019.1-.045.109a2.708,2.708,0,0,1-.279.1Z" transform="translate(-135.41 -54.797)" fill="#feeac6"/>
    <path id="Trazado_580949" data-name="Trazado 580949" d="M65.677-879.918a.394.394,0,0,1-.144-.035,1.645,1.645,0,0,1-.18-.174,14.667,14.667,0,0,1,4.192,0c-.014.037-.017.1-.043.109a2.649,2.649,0,0,1-.279.1Z" transform="translate(-93.745 -54.797)" fill="#feeac6"/>
    <path id="Trazado_580950" data-name="Trazado 580950" d="M174.6-879.92a.4.4,0,0,1-.145-.035,1.6,1.6,0,0,1-.177-.175,14.707,14.707,0,0,1,4.192,0c-.014.037-.019.1-.045.109a2.705,2.705,0,0,1-.279.1Z" transform="translate(-169.438 -54.797)" fill="#feeac6"/>
    <path id="Trazado_580951" data-name="Trazado 580951" d="M121.724-808.217c.655,1.485.128,3.047.3,4.563-.791-.159-.429-.8-.424-1.2A12.306,12.306,0,0,1,121.724-808.217Z" transform="translate(-132.768 -104.872)" fill="#fefea6"/>
    <path id="Trazado_580952" data-name="Trazado 580952" d="M190.055-803.655c.168-1.517-.353-3.078.3-4.564C190.386-806.689,190.971-805.123,190.055-803.655Z" transform="translate(-180.371 -104.87)" fill="#feee6e"/>
    <path id="Trazado_580953" data-name="Trazado 580953" d="M41.554-879.827c.474-.354.474-.367,1.365-.35.827.016,1.653.063,2.479.1a.213.213,0,0,1,.017.126.467.467,0,0,1-.084.122Z" transform="translate(-77.207 -54.864)" fill="#feeac6"/>
    <path id="Trazado_580954" data-name="Trazado 580954" d="M150.477-879.982c.3-.714.918-.3,1.369-.328a21.742,21.742,0,0,1,2.477.083.214.214,0,0,1,.016.126.474.474,0,0,1-.084.122Z" transform="translate(-152.897 -54.71)" fill="#feeac6"/>
    <path id="Trazado_580955" data-name="Trazado 580955" d="M81.446-913.85c-.666-1.378-.158-2.843-.314-4.259C81.981-916.745,81.436-915.277,81.446-913.85Z" transform="translate(-104.682 -28.509)" fill="#029bde"/>
    <path id="Trazado_580956" data-name="Trazado 580956" d="M17.293-879.853l.287-.337c1.188.006,2.377.011,3.565.022.022,0,.064.1.061.1-.1.073-.213.141-.321.209Z" transform="translate(-60.349 -54.858)" fill="#fee9c5"/>
    <path id="Trazado_580957" data-name="Trazado 580957" d="M13.162-914.158c0,.094-.013.187-.024.28-.085.129-.181.144-.29.027,0-1.426-.546-2.891.309-4.254q0,.145,0,.29A9.366,9.366,0,0,1,13.162-914.158Z" transform="translate(-57.14 -28.512)" fill="#08b5fe"/>
    <path id="Trazado_580958" data-name="Trazado 580958" d="M132.094-802.271c.175-1.313-.367-2.682.31-3.955C132.347-804.9,132.909-803.534,132.094-802.271Z" transform="translate(-140.094 -106.255)" fill="#fefea6"/>
    <path id="Trazado_580959" data-name="Trazado 580959" d="M81.217-799.454v-2.721A1.939,1.939,0,0,1,81.217-799.454Z" transform="translate(-104.769 -109.07)" fill="#fd5928"/>
    <path id="Trazado_580960" data-name="Trazado 580960" d="M14.837-758.291c.694,1.049.169,2.218.328,3.319C14.3-756,14.9-757.18,14.837-758.291Z" transform="translate(-58.541 -139.564)" fill="#029ade"/>
    <path id="Trazado_580961" data-name="Trazado 580961" d="M63.805-758.291c.694,1.049.169,2.218.328,3.319C63.263-756,63.872-757.18,63.805-758.291Z" transform="translate(-92.569 -139.564)" fill="#029ade"/>
    <path id="Trazado_580962" data-name="Trazado 580962" d="M78.817-857.88l.3-.3a6.2,6.2,0,0,1,.056,2.748l-.355-.315A3.367,3.367,0,0,1,78.817-857.88Z" transform="translate(-102.98 -70.152)" fill="#d7fdfd"/>
    <path id="Trazado_580963" data-name="Trazado 580963" d="M79.478-755.232c-.727-.962-.189-2.063-.341-3.088C79.974-757.37,79.45-756.271,79.478-755.232Z" transform="translate(-103.288 -139.544)" fill="#08b5fd"/>
    <path id="Trazado_580964" data-name="Trazado 580964" d="M123.8-858.183l.3.3a3.367,3.367,0,0,1,0,2.131l-.355.317A6.208,6.208,0,0,1,123.8-858.183Z" transform="translate(-134.232 -70.151)" fill="#d7fdfd"/>
    <path id="Trazado_580965" data-name="Trazado 580965" d="M172.769-858.183l.3.3a3.365,3.365,0,0,1,0,2.131l-.355.317A6.2,6.2,0,0,1,172.769-858.183Z" transform="translate(-168.259 -70.151)" fill="#d7fdfd"/>
    <path id="Trazado_580966" data-name="Trazado 580966" d="M123.845-757.175c.47.963.125,1.988.227,2.979C123.261-755.133,123.676-756.163,123.845-757.175Z" transform="translate(-134.212 -140.34)" fill="#fc4825"/>
    <path id="Trazado_580967" data-name="Trazado 580967" d="M172.813-757.175c.47.963.125,1.988.227,2.979C172.229-755.133,172.645-756.163,172.813-757.175Z" transform="translate(-168.239 -140.34)" fill="#fc4825"/>
    <path id="Trazado_580968" data-name="Trazado 580968" d="M29.849-857.88l.3-.3a6.2,6.2,0,0,1,.056,2.748l-.355-.315A3.365,3.365,0,0,1,29.849-857.88Z" transform="translate(-68.952 -70.152)" fill="#d7fdfd"/>
    <path id="Trazado_580969" data-name="Trazado 580969" d="M30.51-755.232c-.727-.962-.189-2.063-.341-3.088C31.006-757.37,30.482-756.271,30.51-755.232Z" transform="translate(-69.261 -139.544)" fill="#08b5fd"/>
    <path id="Trazado_580970" data-name="Trazado 580970" d="M138.778-857.883l.289-.3a6.539,6.539,0,0,1,.055,2.748l-.346-.313A3.363,3.363,0,0,1,138.778-857.883Z" transform="translate(-144.646 -70.149)" fill="#d6fdfd"/>
    <path id="Trazado_580971" data-name="Trazado 580971" d="M187.747-857.883l.289-.3a6.529,6.529,0,0,1,.055,2.748l-.346-.313A3.365,3.365,0,0,1,187.747-857.883Z" transform="translate(-178.674 -70.149)" fill="#d6fdfd"/>
    <path id="Trazado_580972" data-name="Trazado 580972" d="M14.916-858.187l.289.3a3.365,3.365,0,0,1,0,2.132l-.346.315A6.543,6.543,0,0,1,14.916-858.187Z" transform="translate(-58.576 -70.148)" fill="#d6fdfd"/>
    <path id="Trazado_580973" data-name="Trazado 580973" d="M13.241-904.224c.1-.008.193-.016.29-.027.805.135,1.652-.188,2.433.219C15.051-904.031,14.114-903.678,13.241-904.224Z" transform="translate(-57.533 -38.139)" fill="#07a5ec"/>
    <path id="Trazado_580974" data-name="Trazado 580974" d="M201.565-904.861h-2.371l0-.3h2.4Z" transform="translate(-186.749 -37.504)" fill="#feedc9"/>
    <path id="Trazado_580975" data-name="Trazado 580975" d="M106.167-905.165h2.344l.016.3H106.2a1.5,1.5,0,0,1-.065-.2C106.13-905.091,106.155-905.13,106.167-905.165Z" transform="translate(-122.084 -37.504)" fill="#feedc9"/>
    <path id="Trazado_580976" data-name="Trazado 580976" d="M63.884-858.187l.289.3a3.363,3.363,0,0,1,0,2.132l-.346.315A6.538,6.538,0,0,1,63.884-858.187Z" transform="translate(-92.603 -70.148)" fill="#d6fdfd"/>
    <path id="Trazado_580977" data-name="Trazado 580977" d="M57.831-873.874c.7.661.417,1.35.057,2.041A4.244,4.244,0,0,1,57.831-873.874Z" transform="translate(-88.451 -59.247)" fill="#fef6d0"/>
    <path id="Trazado_580978" data-name="Trazado 580978" d="M144.778-875.178l.358.4a4.24,4.24,0,0,1-.056,2.042l-.308-.311A3.365,3.365,0,0,1,144.778-875.178Z" transform="translate(-148.814 -58.341)" fill="#fef6d0"/>
    <path id="Trazado_580979" data-name="Trazado 580979" d="M94.085-904.862H92.35l-.007-.3h1.776Z" transform="translate(-112.5 -37.504)" fill="#feedc9"/>
    <path id="Trazado_580980" data-name="Trazado 580980" d="M-2.676-905.164H-.931l.018.3H-2.641Z" transform="translate(-46.473 -37.504)" fill="#fed8a8"/>
    <path id="Trazado_580981" data-name="Trazado 580981" d="M68.469-946.9l-62.2,0c.452-.492,1.047-.3,1.581-.3q29.521-.015,59.041,0C67.424-947.2,68.019-947.4,68.469-946.9Z" transform="translate(-52.688 -8.266)" fill="#e69856"/>
    <path id="Trazado_580982" data-name="Trazado 580982" d="M144.116-875.911q0,1.065-.006,2.129c-.6-.718-.109-1.661-.46-2.446A1,1,0,0,1,144.116-875.911Z" transform="translate(-148.152 -57.608)" fill="#f8dfbd"/>
    <path id="Trazado_580983" data-name="Trazado 580983" d="M167.149-872.74c.179-.8-.261-1.687.305-2.444a3.362,3.362,0,0,1,.007,2.131l-.313.312Z" transform="translate(-164.482 -58.337)" fill="#fef6d0"/>
    <path id="Trazado_580984" data-name="Trazado 580984" d="M168.158-873.053q0-1.065-.007-2.131A1.767,1.767,0,0,1,168.158-873.053Z" transform="translate(-165.178 -58.337)" fill="#f8dfbd"/>
    <path id="Trazado_580985" data-name="Trazado 580985" d="M119.191-818.937c.348-.42.831-.3,1.272-.3q10.163-.008,20.325,0c.441,0,.924-.119,1.271.3a1.7,1.7,0,0,1-1.033.146q-10.4.005-20.8,0A1.689,1.689,0,0,1,119.191-818.937Z" transform="translate(-131.156 -97.203)" fill="#fbe1be"/>
    <path id="Trazado_580986" data-name="Trazado 580986" d="M119.191-818.216H142.06c-.352.413-.835.291-1.275.292q-10.159.009-20.318,0C120.026-817.925,119.543-817.8,119.191-818.216Z" transform="translate(-131.156 -97.923)" fill="#feeeca"/>
    <path id="Trazado_580987" data-name="Trazado 580987" d="M35.851-875.184c.566.757.126,1.639.305,2.444h0l-.313-.312A3.367,3.367,0,0,1,35.851-875.184Z" transform="translate(-73.121 -58.337)" fill="#fef6d0"/>
    <path id="Trazado_580988" data-name="Trazado 580988" d="M35.431-875.184l-.007,2.131A1.767,1.767,0,0,1,35.431-875.184Z" transform="translate(-72.702 -58.337)" fill="#f8dfbd"/>
    <path id="Trazado_580989" data-name="Trazado 580989" d="M18.207-935.134l24.1-.011c-.452.491-1.047.294-1.58.3q-11.256.018-22.512.006C18.217-934.941,18.214-935.037,18.207-935.134Z" transform="translate(-60.984 -16.671)" fill="#fbe1bf"/>
    <path id="Trazado_580990" data-name="Trazado 580990" d="M149.176-769.089a7.17,7.17,0,0,1,4.571,0A14.765,14.765,0,0,1,149.176-769.089Z" transform="translate(-151.993 -131.801)" fill="#f9e0be"/>
    <path id="Trazado_580991" data-name="Trazado 580991" d="M149.176-768.237h4.571A7.694,7.694,0,0,1,149.176-768.237Z" transform="translate(-151.993 -132.653)" fill="#fef3ce"/>
    <path id="Trazado_580992" data-name="Trazado 580992" d="M174.157-769.085a6.337,6.337,0,0,1,4.268,0A12.58,12.58,0,0,1,174.157-769.085Z" transform="translate(-169.352 -131.807)" fill="#f9e0be"/>
    <path id="Trazado_580993" data-name="Trazado 580993" d="M129.456-768.663a6.838,6.838,0,0,1-4.269,0A12.42,12.42,0,0,1,129.456-768.663Z" transform="translate(-135.323 -132.229)" fill="#fef3cf"/>
    <path id="Trazado_580994" data-name="Trazado 580994" d="M129.456-769.084h-4.269A6.341,6.341,0,0,1,129.456-769.084Z" transform="translate(-135.323 -131.807)" fill="#f9e0be"/>
    <path id="Trazado_580995" data-name="Trazado 580995" d="M174.157-768.243h4.268A6.834,6.834,0,0,1,174.157-768.243Z" transform="translate(-169.352 -132.649)" fill="#fef3cf"/>
    <path id="Trazado_580996" data-name="Trazado 580996" d="M19.26-771.239H43.041c-.4.457-.938.3-1.424.3q-10.466.014-20.933,0C20.2-770.942,19.658-770.781,19.26-771.239Z" transform="translate(-61.716 -130.567)" fill="#fbe1be"/>
    <path id="Trazado_580997" data-name="Trazado 580997" d="M4.069-771.251q0,.15.015.3-.011.306-.023.612a2.426,2.426,0,0,1-1.825,0c.254-.484.862-.12,1.216-.505-1.736-.408-3.519.334-5.179-.408Z" transform="translate(-47.131 -130.559)" fill="#facea1"/>
    <path id="Trazado_580998" data-name="Trazado 580998" d="M11.261-768.257l1.826,0a1.648,1.648,0,0,0,.025.226l-1.809.048A.955.955,0,0,1,11.261-768.257Z" transform="translate(-56.157 -132.636)" fill="#fee0ae"/>
    <path id="Trazado_580999" data-name="Trazado 580999" d="M154.106-857.784h-3.853v-.146h3.86Z" transform="translate(-152.741 -70.327)" fill="#d1fafe"/>
    <ellipse id="Elipse_7324" data-name="Elipse 7324" cx="2.73" cy="0.1" rx="2.73" ry="0.1" transform="translate(-36.49 -928.267)" fill="#d1fafe"/>
    <path id="Trazado_581000" data-name="Trazado 581000" d="M132.646-904.937c-.8-.105-1.669.325-2.41-.291C131.036-905.1,131.9-905.523,132.646-904.937Z" transform="translate(-138.831 -37.439)" fill="#59c497"/>
    <path id="Trazado_581001" data-name="Trazado 581001" d="M181.614-904.937c-.8-.105-1.669.325-2.409-.291C180-905.1,180.871-905.523,181.614-904.937Z" transform="translate(-172.859 -37.439)" fill="#59c497"/>
    <path id="Trazado_581002" data-name="Trazado 581002" d="M125.381-808.013h1.406l.006.144h-1.407Z" transform="translate(-135.458 -105.013)" fill="#fefea6"/>
    <path id="Trazado_581003" data-name="Trazado 581003" d="M14.266-913.5l0-3.657c.371.294.318.713.3,1.1-.072,1.46-.188,2.941,2.433,2.029l-.359.524Z" transform="translate(-58.244 -29.173)" fill="#07a5ec"/>
    <path id="Trazado_581004" data-name="Trazado 581004" d="M157.945-904.992l-2.7-.008A2.887,2.887,0,0,1,157.945-904.992Z" transform="translate(-156.207 -37.388)" fill="#5ac498"/>
    <path id="Trazado_581005" data-name="Trazado 581005" d="M46.27-758.222l2.728,0A2.809,2.809,0,0,1,46.27-758.222Z" transform="translate(-80.484 -139.609)" fill="#08adf5"/>
    <path id="Trazado_581006" data-name="Trazado 581006" d="M65.23-855.06q0-1.066,0-2.131H69.5q0,1.065,0,2.131c-.274-1.217-.708-1.9-2.28-1.921C65.575-857,65.6-855.985,65.23-855.06Z" transform="translate(-93.658 -70.839)" fill="#c4eaf9"/>
    <path id="Trazado_581007" data-name="Trazado 581007" d="M129.457-857.192q0,1.066,0,2.131c-.369-.925-.345-1.944-1.982-1.921-1.573.022-2.007.7-2.28,1.921q0-1.065,0-2.131Z" transform="translate(-135.325 -70.839)" fill="#c4eaf9"/>
    <path id="Trazado_581008" data-name="Trazado 581008" d="M178.425-857.192q0,1.066,0,2.131c-.369-.925-.345-1.944-1.982-1.921-1.573.022-2.007.7-2.28,1.921q0-1.065,0-2.131Z" transform="translate(-169.352 -70.839)" fill="#c4eaf9"/>
    <path id="Trazado_581009" data-name="Trazado 581009" d="M16.262-855.06q0-1.066,0-2.131h4.267q0,1.065,0,2.131c-.274-1.217-.708-1.9-2.28-1.921C16.607-857,16.631-855.985,16.262-855.06Z" transform="translate(-59.631 -70.839)" fill="#c4eaf9"/>
  </g>
</svg>
