<svg xmlns="http://www.w3.org/2000/svg" xmlns:xlink="http://www.w3.org/1999/xlink" width="94" height="94" viewBox="0 0 94 94">
  <defs>
    <clipPath id="clip-path">
      <rect id="Rectángulo_279690" data-name="Rectángulo 279690" width="94" height="94" transform="translate(257 6702)" fill="#fff" stroke="#707070" stroke-width="1"/>
    </clipPath>
  </defs>
  <g id="Enmascarar_grupo_700185" data-name="Enmascarar grupo 700185" transform="translate(-257 -6702)" clip-path="url(#clip-path)">
    <g id="Grupo_843950" data-name="Grupo 843950" transform="translate(878.439 7174.943)">
      <g id="Grupo_843948" data-name="Grupo 843948" transform="translate(-583.374 -464.579)">
        <path id="Trazado_579076" data-name="Trazado 579076" d="M-511.4-418.959a2.162,2.162,0,0,1-1.155-2.177q.053-20.764,0-41.528c0-1.409.461-1.919,1.9-1.916q22.545.055,45.089.024c1.771,0,1.923.159,1.924,1.991q0,36.095,0,72.19c0,1.939-.122,2.065-2,2.065q-22.47,0-44.94,0c-1.8,0-1.945-.151-1.945-1.97q-.006-12.429-.006-24.857c0-.888-.012-1.746,1.2-1.811.9-.267,1.136.343,1.277,1.009a7.877,7.877,0,0,1,.063,1.63q0,10.474.007,20.949a4.308,4.308,0,0,0,.176,1.9.86.86,0,0,0,.921.248,1.084,1.084,0,0,0,.717-1.174c.008-.546.008-1.092.008-1.638q0-31.193,0-62.386a11.58,11.58,0,0,1,.111-2.524,2.058,2.058,0,0,1,1.973-1.317c.346-.031.693-.04,1.039-.04q16.94-.008,33.881,0c1.187,0,2.442-.075,3.028,1.331a5.912,5.912,0,0,1,.122,1.623q.006,23.017,0,46.034a8.056,8.056,0,0,1-.066,1.334,1.522,1.522,0,0,1-1.769,1.26,1.733,1.733,0,0,1-1.083-1.774c-.033-.991-.017-1.981-.017-2.972q0-20.584-.007-41.168a4.246,4.246,0,0,0-.2-2.041c-.416-.442-.964-.286-1.471-.321q-15.171,0-30.338.005a3.64,3.64,0,0,0-1.892.216c-.5.481-.37,1.108-.37,1.688q-.011,31.04,0,62.08c0,.58-.133,1.209.391,1.671a3.9,3.9,0,0,0,1.9.2q15.146.012,30.29,0c.5-.031,1.043.107,1.478-.289a3.159,3.159,0,0,0,.215-1.75c.015-3.969-.008-7.939.016-11.908.007-1.061.156-2.044,1.586-1.987,1.2.36,1.33,1.328,1.333,2.368.01,3.967-.007,7.935.013,11.9,0,.613-.176,1.347.7,1.588a.972.972,0,0,0,1.108-1.091c0-.3.011-.595.011-.893q0-33.26,0-66.521c0-1,.171-2.108-1.39-2.041q-20.215-.029-40.429,0a3.1,3.1,0,0,0-1.6.2c-.592.567-.386,1.3-.387,1.973q-.019,18.579-.011,37.158a19.921,19.921,0,0,1-.05,2.228A1.322,1.322,0,0,1-511.4-418.959Z" transform="translate(512.552 464.579)" fill="#010000"/>
        <path id="Trazado_579077" data-name="Trazado 579077" d="M-507.4-384.724c-.436-.463-.224-1.036-.225-1.553q-.023-11.412-.01-22.824c0-.8.1-1.64-.979-1.866q-.033-1.006-.066-2.012l1.03-.917a1.458,1.458,0,0,0,.217-.526c.076-13.158.008-26.315.041-39.472a3.456,3.456,0,0,1,.233-2.026,3.308,3.308,0,0,1,1.465-.117q20.2-.007,40.407,0a.674.674,0,0,1,.533.188.46.46,0,0,1-.255.475,6.066,6.066,0,0,1-2.637.268q-17.691.013-35.383.006h-.743c-2.621.008-2.787.209-2.363,2.85a8.191,8.191,0,0,1,.072,1.632q0,31.6-.008,63.208c0,.854.271,1.829-.692,2.426-.571.045-.478-.386-.478-.707q-.011-11.971,0-23.942a.531.531,0,0,1,.039-.166,4.643,4.643,0,0,0-.045,1.313q-.009,11.079-.012,22.158A3.148,3.148,0,0,1-507.4-384.724Z" transform="translate(509.831 458.599)" fill="#a44f17"/>
        <path id="Trazado_579078" data-name="Trazado 579078" d="M-502.181-451.233c-.592-.808-.2-1.723-.273-2.587-.04-.507.313-.679.769-.682.4,0,.793-.007,1.189-.007h40c.744.848.5,1.886.5,2.852q.023,29.178.011,58.356c0,2.431.005,4.863,0,7.294a5.387,5.387,0,0,1-.188,1.915,2.923,2.923,0,0,1-.314.51c-1.141.178-.859-.676-.861-1.248-.016-4.309-.026-8.619.006-12.928a1.936,1.936,0,0,0-.954-1.989,1.348,1.348,0,0,1-.278-2.015c.421-.284.927-.457,1.209-.923a1.92,1.92,0,0,0,.262-.781c.021-15.95.049-31.9-.014-47.847a1.491,1.491,0,0,0-.213-.52,1.845,1.845,0,0,0-1.869-.9q-17.847.03-35.694,0c-.8,0-1.487.09-1.853.909a.943.943,0,0,1-.314.463,1.523,1.523,0,0,1-.36.128A1.91,1.91,0,0,1-502.181-451.233Z" transform="translate(505.507 457.51)" fill="#a85018"/>
        <path id="Trazado_579079" data-name="Trazado 579079" d="M-500.9-445.211l.25-.284q.016,18.672.03,37.344c.005,9.82-.014,19.64.022,29.46,0,1.129-.229,1.724-1.473,1.421-.091-.118-.275-.149-.308-.323a3.606,3.606,0,0,0,.294-2.028q0-32.642,0-65.285c.217-.343.565-.291.894-.3a3.708,3.708,0,0,1,.138,1.757q.013,31.869.01,63.738a12.236,12.236,0,0,0,0,1.353c-.034-.164.01-.614.01-1.06q0-32.167,0-64.334A2.942,2.942,0,0,1-500.9-445.211Z" transform="translate(505.413 451.182)" fill="#9a4916"/>
        <path id="Trazado_579080" data-name="Trazado 579080" d="M-375.986-391.884l.278,2.015c-1.146.079-1.273.848-1.269,1.78q.026,6.458,0,12.916c0,.466.209.988-.2,1.406a24.044,24.044,0,0,1-.132-4.577c-.033-3.356-.011-6.712-.013-10.068q-.009,6.855,0,13.71c0,.682-.329.864-.923.8a.757.757,0,0,1-.531-.174,1.41,1.41,0,0,1-.261-.513,3.744,3.744,0,0,1-.114-1.029c-.012-9.841-.029-19.681,0-29.522a.863.863,0,0,1,.846-.917c.924.233.817.987.823,1.67.026,3.1-.033,6.2.029,9.266-.181-14.513-.167-29-.148-43.487a2.39,2.39,0,0,1,.419-1.832c.42.471.2,1.04.2,1.556q.022,22.289.006,44.579C-376.976-393.344-377.034-392.4-375.986-391.884Z" transform="translate(418.918 447.632)" fill="#e7834d"/>
        <path id="Trazado_579081" data-name="Trazado 579081" d="M-361.769-385.274v-.338a1.671,1.671,0,0,0,.634-1.284c.029-.6.054-1.189.054-1.784q0-32.372-.015-64.745c0-1.048.313-2.215-.671-3.07l0,0q-.235-.173.008-.335c1.4-.319,1.737.263,1.735,1.635q-.06,34.146,0,68.292C-360.027-385.526-360.385-384.965-361.769-385.274Z" transform="translate(406.787 459.202)" fill="#a24d17"/>
        <path id="Trazado_579082" data-name="Trazado 579082" d="M-488.929-373.749c-.375-.374-.186-.845-.187-1.265q-.017-32.057,0-64.113c0-.419-.189-.891.187-1.264a1.011,1.011,0,0,1,.6.618,7.274,7.274,0,0,1,.117,1.922q.006,30.78,0,61.561a7.363,7.363,0,0,1-.115,1.924A1.006,1.006,0,0,1-488.929-373.749Z" transform="translate(496.133 447.6)" fill="#f99e74"/>
        <path id="Trazado_579083" data-name="Trazado 579083" d="M-364.407-445.533l.249.007a2.416,2.416,0,0,1,.136,1.31q.009,23.11,0,46.221a2.434,2.434,0,0,1-.135,1.31l-.285.3q0-23.981,0-47.963C-364.445-444.742-364.421-445.138-364.407-445.533Z" transform="translate(408.583 451.209)" fill="#9a4916"/>
        <path id="Trazado_579084" data-name="Trazado 579084" d="M-376.215-440.81q-.006,22.966-.022,45.932c0,.569.215,1.2-.27,1.7a11.076,11.076,0,0,1-.142-3.09c-.383-14.056-.272-28.117-.291-42.176a2.6,2.6,0,0,0-.225-1.443,2.339,2.339,0,0,0-.383-.345c-.059-.061-.118-.124-.176-.185a.351.351,0,0,1,.036-.458A2.233,2.233,0,0,1-376.215-440.81Z" transform="translate(417.953 448.004)" fill="#f68a52"/>
        <path id="Trazado_579085" data-name="Trazado 579085" d="M-462-456.751l-.008.335h-42.281a.256.256,0,0,1-.342.053.269.269,0,0,1,.044-.349c.343-.03.686-.087,1.028-.088q20.41-.006,40.82,0C-462.5-456.8-462.249-456.767-462-456.751Z" transform="translate(507.026 459.119)" fill="#b55719"/>
        <path id="Trazado_579086" data-name="Trazado 579086" d="M-505.074-456.5l.035.291a3.143,3.143,0,0,1,.105,1.32q.007,19.682,0,39.364a2.5,2.5,0,0,1-.132,1.311l-.258.009q0-20.3.014-40.593C-505.309-455.361-505.543-455.986-505.074-456.5Z" transform="translate(507.509 458.906)" fill="#9a4916"/>
        <ellipse id="Elipse_7190" data-name="Elipse 7190" cx="23.898" cy="0.076" rx="23.898" ry="0.076" transform="translate(0.541 6.339)" fill="#040202"/>
        <ellipse id="Elipse_7191" data-name="Elipse 7191" cx="23.901" cy="0.077" rx="23.901" ry="0.077" transform="translate(0.538 74.545)" fill="#040202"/>
        <path id="Trazado_579087" data-name="Trazado 579087" d="M-455.317-440.841l-.014.337c-.513.537-1.189.421-1.818.422q-14.552.017-29.1,0a2.448,2.448,0,0,1-1.83-.422l-.292-.261a6.639,6.639,0,0,1,1-.151q15.66-.012,31.32,0A6.969,6.969,0,0,1-455.317-440.841Z" transform="translate(495.581 447.97)" fill="#fda175"/>
        <path id="Trazado_579088" data-name="Trazado 579088" d="M-488.378-218.386l.292-.26a2.446,2.446,0,0,1,1.83-.422q14.548-.011,29.1,0a2.468,2.468,0,0,1,1.832.419h.013q.134.116.088.229c-.031.076-.061.113-.091.113-2.817.027-5.635.072-8.453.076q-11.5.016-23.007,0A2.98,2.98,0,0,1-488.378-218.386Z" transform="translate(495.582 292.237)" fill="#fda175"/>
        <path id="Trazado_579089" data-name="Trazado 579089" d="M-503.785-277.192l.308.323-.9-.038v-25.565a3.045,3.045,0,0,1,.288,1.857c.012,7.243,0,14.487.018,21.73C-504.072-278.317-504.3-277.683-503.785-277.192Z" transform="translate(506.815 350.781)" fill="#b25619"/>
        <path id="Trazado_579090" data-name="Trazado 579090" d="M-377.448-252.16q0-.171,0-.343c1.067.16,1.2-.444,1.19-1.322-.029-4.49-.013-8.981.281-13.473v15.073A2.245,2.245,0,0,1-377.448-252.16Z" transform="translate(417.71 326.09)" fill="#f68b52"/>
        <path id="Trazado_579091" data-name="Trazado 579091" d="M-361.495-455.561c1.224-.181,1.2.607,1.2,1.469q-.021,11.448-.008,22.9,0,22.451,0,44.9c0,.84.19,1.8-1.192,1.616q0-35.294,0-70.589Q-361.5-455.414-361.495-455.561Z" transform="translate(406.514 458.267)" fill="#9a4916"/>
        <path id="Trazado_579092" data-name="Trazado 579092" d="M-504.356-413.524q.013-21,.027-41.995l.264,0q0,20.147-.012,40.294C-504.077-414.652-503.859-414.022-504.356-413.524Z" transform="translate(506.799 458.219)" fill="#b25619"/>
        <path id="Trazado_579093" data-name="Trazado 579093" d="M-498.1-444.541V-377.6h-.289v-66.934C-498.294-444.534-498.2-444.536-498.1-444.541Z" transform="translate(502.61 450.513)" fill="#9d4b16"/>
        <path id="Trazado_579094" data-name="Trazado 579094" d="M-363.482-396.67q0-24.42,0-48.84c.475.443.285,1.023.286,1.545q.015,22.876,0,45.751C-363.2-397.693-363.006-397.113-363.482-396.67Z" transform="translate(407.907 451.193)" fill="#ad5318"/>
        <path id="Trazado_579095" data-name="Trazado 579095" d="M-363.1-266.346v13.893h-.148v-13.9Z" transform="translate(407.743 325.426)" fill="#ad5318"/>
        <path id="Trazado_579096" data-name="Trazado 579096" d="M-454.611-404.374c.433.462.253,1.036.254,1.561q.014,14.707,0,29.415a2.747,2.747,0,0,1-1.458.139c-9.865.008-19.731-.014-29.6.032-1.2.006-1.581-.271-1.578-1.537q.061-31.388,0-62.776c0-1.24.329-1.564,1.558-1.558,9.914.049,19.83.027,29.744.03a4.292,4.292,0,0,1,1.329.078,2.05,2.05,0,0,1,.419,1.672q.016,13.885,0,27.77a2.787,2.787,0,0,1-.24,1.443c-1.549.313-3.015.975-4.6,1.157-.341.039-.69,0-1.028.073-.439.092-.949.193-.915.764s.575.7.994.665C-457.9-405.612-456.36-404.5-454.611-404.374Z" transform="translate(494.604 446.691)" fill="#ea956d"/>
        <path id="Trazado_579097" data-name="Trazado 579097" d="M-454.643-439.224c-10.212,0-20.425.025-30.637-.031-1.385-.008-1.856.3-1.852,1.777q.072,31.016,0,62.033c0,1.48.469,1.784,1.853,1.777,10.212-.056,20.424-.03,30.637-.03,0,.1,0,.2,0,.295l-32.757,0v-66.121l32.753,0,.02.006a.181.181,0,0,1,.056.2C-454.595-439.256-454.62-439.224-454.643-439.224Z" transform="translate(494.893 446.991)" fill="#e6926a"/>
        <path id="Trazado_579098" data-name="Trazado 579098" d="M-377.125-439.518c.753-.068.909.359.9,1.008-.024,1.435-.007,2.872-.007,4.308q0,21.019,0,42.037c-.482-.434-.289-1.011-.292-1.528-.016-3.34-.007-6.68-.01-10.02,0-.581.109-1.208-.561-1.549a6.791,6.791,0,0,1-.218-3.067c.093-9.863.011-19.724.047-29.585A3.164,3.164,0,0,1-377.125-439.518Z" transform="translate(417.676 446.991)" fill="#e3804b"/>
        <path id="Trazado_579099" data-name="Trazado 579099" d="M-393.741-335.006a2.729,2.729,0,0,1,.076,2.541l-.589.588a2.3,2.3,0,0,1-2.741-.336c-.7-.635-1.614-.245-2.428-.294s-1.58-.212-1.582-1.157.753-1.148,1.578-1.148c1.118,0,2.223.127,3.194-.765.53-.487,1.323-.153,1.975.117C-394.094-335.3-393.774-335.317-393.741-335.006Z" transform="translate(434.248 374.194)" fill="#030201"/>
        <path id="Trazado_579100" data-name="Trazado 579100" d="M-377.849-407.79l-.518-.454c.441-.459.257-1.034.257-1.558q.015-14.705,0-29.41c0-.1.009-.2.019-.295.094,0,.188,0,.282,0Q-377.827-423.648-377.849-407.79Z" transform="translate(418.355 446.979)" fill="#e7834e"/>
        <path id="Trazado_579101" data-name="Trazado 579101" d="M-472.358-409.889l0-2.207a5.128,5.128,0,0,0,.684-2.976c-.018-1.68-.049-3.363.016-5.042.064-1.64.435-2.067,2.03-2.082,5.98-.055,11.96-.044,17.94-.006a2.237,2.237,0,0,1,1.406.386,2.711,2.711,0,0,1,.433,1.841q.023,10.114.008,20.228a.835.835,0,0,1-.276.5,3.33,3.33,0,0,1-1.876.276q-8.445.014-16.891,0c-2.216,0-2.39-.215-2.431-2.495-.043-2.368.13-4.738-.11-7.1C-471.557-409.124-472.131-409.387-472.358-409.889Z" transform="translate(484.338 434.854)" fill="#d46723"/>
        <path id="Trazado_579102" data-name="Trazado 579102" d="M-474.636-292.7a1.631,1.631,0,0,1-1.029-1.764q.038-11.838,0-23.675c-.006-1.323.545-1.718,1.79-1.713q11.685.047,23.371,0c1.385-.007,1.8.541,1.795,1.864-.039,7.792-.028,15.585-.007,23.377,0,.867-.117,1.579-1.026,1.914-.247.231-.556.172-.848.172q-11.6,0-23.2,0C-474.08-292.526-474.389-292.467-474.636-292.7Z" transform="translate(486.66 362.984)" fill="#010101"/>
        <path id="Trazado_579103" data-name="Trazado 579103" d="M-474.688-414.656a1.523,1.523,0,0,1,1.192.675,80.975,80.975,0,0,1,.1,8.611c-.008,1.146.351,1.4,1.438,1.393,6.151-.05,12.3-.021,18.456-.026,1.933,0,2.194-.276,2.2-2.277,0-5.905-.027-11.811.026-17.716a2.235,2.235,0,0,0-1.391-2.465c-6.588-.016-13.176-.016-19.763-.066-.926-.007-1.042.4-1.031,1.165.032,2.279-.008,4.559.021,6.838.012.91-.21,1.568-1.241,1.661a1.312,1.312,0,0,1-.974-1.46c.017-2.97.029-5.941-.008-8.911a1.556,1.556,0,0,1,1.025-1.613c.248-.229.557-.171.849-.171q11.6,0,23.2,0c.291,0,.6-.058.849.171a1.63,1.63,0,0,1,1.026,1.765q-.037,11.829,0,23.658c.006,1.3-.513,1.736-1.773,1.731q-11.677-.048-23.355,0c-1.35.007-1.857-.473-1.829-1.83.064-3.123.03-6.249.013-9.374C-475.67-413.688-475.609-414.4-474.688-414.656Z" transform="translate(486.668 439.621)" fill="#020101"/>
        <path id="Trazado_579104" data-name="Trazado 579104" d="M-448.062-429.2h-24.9a.4.4,0,0,1-.142-.038,1.587,1.587,0,0,1-.173-.174,4.083,4.083,0,0,1,.665-.108q12.1-.009,24.2,0a4.084,4.084,0,0,1,.664.108c-.013.038-.016.1-.041.109A2.676,2.676,0,0,1-448.062-429.2Z" transform="translate(484.979 439.968)" fill="#f49b71"/>
        <path id="Trazado_579105" data-name="Trazado 579105" d="M-472.955-228.73h24.891a.4.4,0,0,1,.142.038,1.662,1.662,0,0,1,.176.173,4,4,0,0,1-.662.111q-12.1.009-24.2,0a3.993,3.993,0,0,1-.662-.111c.014-.037.017-.1.043-.108A2.653,2.653,0,0,1-472.955-228.73Z" transform="translate(484.979 299.015)" fill="#f49b71"/>
        <path id="Trazado_579106" data-name="Trazado 579106" d="M-478.241-291.968c-.569-.069-.284-.511-.285-.76q-.025-11.8-.01-23.608c0-.431-.118-.9.3-1.243a1.681,1.681,0,0,1,.14,1.01q.005,11.8,0,23.592A1.659,1.659,0,0,1-478.241-291.968Z" transform="translate(488.716 361.386)" fill="#e7936b"/>
        <path id="Trazado_579107" data-name="Trazado 579107" d="M-383.845-317.579a1.045,1.045,0,0,1,.3.946q0,12.1,0,24.2a1.391,1.391,0,0,1-.059.425c-.011.035-.155.027-.238.039a1.661,1.661,0,0,1-.142-1.009q-.005-11.8,0-23.592A1.681,1.681,0,0,1-383.845-317.579Z" transform="translate(422.307 361.386)" fill="#e7936b"/>
        <path id="Trazado_579108" data-name="Trazado 579108" d="M-472.184-321.443h24.79v.144h-24.858Z" transform="translate(484.261 364.099)" fill="#f59c72"/>
        <path id="Trazado_579109" data-name="Trazado 579109" d="M-477.4-291.968q0-12.806,0-25.611c.437.4.279.921.28,1.4q.013,11.41,0,22.821C-477.123-292.888-476.964-292.362-477.4-291.968Z" transform="translate(487.878 361.386)" fill="#f59c72"/>
        <path id="Trazado_579110" data-name="Trazado 579110" d="M-384.213-317.579q0,12.806,0,25.611c-.44-.394-.281-.92-.281-1.395q-.013-11.41,0-22.821C-384.492-316.658-384.65-317.184-384.213-317.579Z" transform="translate(422.675 361.386)" fill="#f59c72"/>
        <ellipse id="Elipse_7192" data-name="Elipse 7192" cx="0.075" cy="17.586" rx="0.075" ry="17.586" transform="translate(38.234 6.89)" fill="#f59c72"/>
        <path id="Trazado_579111" data-name="Trazado 579111" d="M-447.26-336.051h-24.79v-.144h24.858Z" transform="translate(484.121 374.455)" fill="#f59c72"/>
        <path id="Trazado_579112" data-name="Trazado 579112" d="M-478.06-366.932c-.094-.166-.268-.331-.269-.5q-.023-5.309,0-10.618c0-.166.176-.332.269-.5A94.851,94.851,0,0,1-478.06-366.932Z" transform="translate(488.535 404.184)" fill="#e7936b"/>
        <path id="Trazado_579113" data-name="Trazado 579113" d="M-477.4-366.933q0-5.807,0-11.613a1.066,1.066,0,0,1,.285.945q0,4.862,0,9.723A1.065,1.065,0,0,1-477.4-366.933Z" transform="translate(487.875 404.185)" fill="#f59c71"/>
        <path id="Trazado_579114" data-name="Trazado 579114" d="M-477.273-414.55v-9.607l.144,0v9.667Z" transform="translate(487.786 436.204)" fill="#f59c71"/>
        <path id="Trazado_579115" data-name="Trazado 579115" d="M-375.208-407.14v-30.235h.149v30.281Z" transform="translate(416.138 445.482)" fill="#e7834e"/>
        <path id="Trazado_579116" data-name="Trazado 579116" d="M-447.559-420.632c1.313-.29,1.8.1,1.781,1.57-.084,6.5-.063,13-.012,19.5.009,1.144-.258,1.528-1.469,1.518-6.647-.055-13.294-.033-19.942.005-.908.005-1.2-.266-1.189-1.182.047-2.977.013-5.954.01-8.931.433.4.277.923.279,1.4.014,2.326.053,4.653-.015,6.977-.031,1.059.22,1.48,1.384,1.469,6.48-.061,12.962-.043,19.442-.052,1.019-.006,1.1-.638,1.093-1.47-.026-6.136-.017-12.271-.008-18.407,0-.471-.128-.974.084-1.332-.3.331-.085.842-.086,1.3-.017,6.185-.009,12.37-.015,18.556,0,.674.168,1.55-1.04,1.1-.493-.5-.277-1.126-.278-1.694Q-447.566-410.473-447.559-420.632Z" transform="translate(481.551 433.791)" fill="#b6581e"/>
        <path id="Trazado_579117" data-name="Trazado 579117" d="M-466.169-377.315c0,2.472.049,4.946-.023,7.416-.032,1.1.3,1.455,1.425,1.445,5.5-.052,11.008-.028,16.513-.015a2.381,2.381,0,0,1,1.645.289h-6.454c-4.017,0-8.034-.027-12.05.019-1.015.012-1.4-.274-1.376-1.339.065-2.617.021-5.236.021-7.854Z" transform="translate(480.216 403.348)" fill="#d16522"/>
        <path id="Trazado_579118" data-name="Trazado 579118" d="M-397.552-397.1c1.166.046.89-.823.891-1.46q.018-9.228.007-18.455v-1.542c.438.257.286.57.286.812.01,6.5,0,13,.018,19.5,0,.884-.009,1.645-1.23,1.41A1.159,1.159,0,0,0-397.552-397.1Z" transform="translate(431.843 432.273)" fill="#bb5c1e"/>
        <path id="Trazado_579119" data-name="Trazado 579119" d="M-467.262-410.344v-7.822l.146,0v7.882Z" transform="translate(480.759 431.999)" fill="#de6b24"/>
        <path id="Trazado_579120" data-name="Trazado 579120" d="M-447.253-289.659l-20.53-.018a1.821,1.821,0,0,1-.151-1.154q-.009-9.955,0-19.911c0-.655-.229-1.4.938-1.385,6.582.084,13.166-.087,19.748.1a1.67,1.67,0,0,1,.418,1.375c.011,6.639.03,13.278-.008,19.917a2.308,2.308,0,0,1-.093.586A1.5,1.5,0,0,1-447.253-289.659Z" transform="translate(481.245 357.56)" fill="#d46623"/>
        <path id="Trazado_579121" data-name="Trazado 579121" d="M-447.608-289.993c0-.088.007-.176.009-.264a3.123,3.123,0,0,0,.143-1.6c.053-6.706-.08-13.414.073-20.12,1.123-.524,1.118.229,1.118.985q0,6.843,0,13.685c0,1.96.041,3.921.01,5.881q0-9.695-.009-19.39c0-.573.3-1.405-.811-1.344a.9.9,0,0,1-.533-.125c-6.295,0-12.59.025-18.884-.044-1.284-.014-1.694.294-1.68,1.639.072,6.891.036,13.782.037,20.673-.5-.311-.27-.808-.271-1.214-.016-6.644.012-13.288-.034-19.931-.007-1.073.225-1.457,1.383-1.446q9.74.088,19.48.01c1.292-.01,1.774.26,1.754,1.7q-.131,9.667,0,19.335C-445.809-290.095-446.3-289.7-447.608-289.993Z" transform="translate(481.6 357.893)" fill="#b6581e"/>
        <path id="Trazado_579122" data-name="Trazado 579122" d="M-398.5-311.526a2.887,2.887,0,0,1,.292,0q.173.082.122.177c-.035.065-.07.1-.107.1q0,10.026-.012,20.052c0,.568.216,1.2-.283,1.694Q-398.494-300.515-398.5-311.526Z" transform="translate(432.489 357.139)" fill="#c96120"/>
        <path id="Trazado_579123" data-name="Trazado 579123" d="M-397.5-311.29a2.658,2.658,0,0,0-.015-.275c.746-.089,1.219.049,1.215.99-.025,6.883-.013,13.767-.307,20.662v-1.321q0-9.3-.008-18.595C-396.621-310.461-396.334-311.337-397.5-311.29Z" transform="translate(431.801 357.181)" fill="#bc5c1f"/>
      </g>
      <g id="Grupo_843949" data-name="Grupo 843949" transform="translate(-613.439 -440.505)">
        <path id="Trazado_579124" data-name="Trazado 579124" d="M-586.647-379.575q1.411-4.357,5.308-4.218a4.928,4.928,0,0,1,2.937,1.112c4.748,3.766,9.51,7.517,14.229,11.319a5,5,0,0,1,0,7.965c-4.719,3.8-9.487,7.546-14.226,11.323a5.135,5.135,0,0,1-8.249-3.109c-.169-.384-.024-.815-.184-1.2-1.8-.192-3.611-.053-5.416-.077-.654-.009-1.089-.2-1.174-.9.073-.654.49-.889,1.093-.9,1.983-.021,3.966-.035,5.948.005.97.02,1.346.432,1.422,1.41a8.7,8.7,0,0,0,.059.986,2.359,2.359,0,0,1,.113.465,3.1,3.1,0,0,0,1.624,2.244,3.442,3.442,0,0,0,1.13.389,1.8,1.8,0,0,0,1.175-.091,2.993,2.993,0,0,0,1.245-.6c4.78-3.719,9.46-7.565,14.243-11.278a3.431,3.431,0,0,0,.055-5.272c-3.781-3.043-7.721-5.887-11.393-9.069-1.054-.913-2.265-1.635-3.322-2.552a1.591,1.591,0,0,0-.829-.314c-1.4-.59-3.719.8-3.914,2.519a2.614,2.614,0,0,1-.116.478c-.082,2.787-.735,2.434-2.688,2.436q-10.092.012-20.185.006a3.492,3.492,0,0,0-3.758,3c-.072,3.986-.007,7.971-.029,11.953a3.441,3.441,0,0,0,2.811,3.227c3.623.105,7.245.015,10.865.046.731.006,1.462-.027,2.193.027.394.072.72.221.765.684.134.806-.281,1.086-1.018,1.085-4.095,0-8.191.05-12.285-.024a5.183,5.183,0,0,1-5.215-5.409c-.015-3.494,0-6.989,0-10.484,0-3.813,2.1-5.9,5.946-5.9q9.788-.007,19.576-.006a2.38,2.38,0,0,0,1.081-.081C-586.672-378.76-586.815-379.191-586.647-379.575Z" transform="translate(613.439 383.797)" fill="#010101"/>
        <path id="Trazado_579125" data-name="Trazado 579125" d="M-581.265-351.911a2.31,2.31,0,0,1-.11-1.269c.043-.834-.265-1.221-1.145-1.206-1.991.033-3.983.026-5.974,0a1.121,1.121,0,0,0-1.128.63c-.445-.472-1.017.029-1.494-.2l-.518-.442a1.418,1.418,0,0,0-.96-.183c-4.23.007-8.46-.026-12.689.018a3.577,3.577,0,0,1-2.745-3.02,1.153,1.153,0,0,0,.179-.492q.035-5.707,0-11.413a1.149,1.149,0,0,0-.179-.491,3.59,3.59,0,0,1,3.893-3.2q10.4-.012,20.8,0c1.878,0,1.876,0,1.955-1.89a3.722,3.722,0,0,1,.114-.576c.392.317.192.74.2,1.124a4.532,4.532,0,0,0,0-1.089,1.325,1.325,0,0,0-.154-.363,3.36,3.36,0,0,1,4.178-2.591c-.257.547.193.745.507.991,4,3.128,7.933,6.341,11.939,9.462a6.126,6.126,0,0,1,2.1,2.215c.188.428.617,1.028-.307,1.229a2.315,2.315,0,0,1-1.009-.621c-4.152-3.4-8.441-6.62-12.58-10.033a4.725,4.725,0,0,0-.567-.41c-.934-.561-1.658-.227-1.762.853-.086.9-.021,1.8-.031,2.7-.017,1.552-.149,1.69-1.738,1.692q-7,.008-14,0a2.713,2.713,0,0,0-1.795.468,2.122,2.122,0,0,1-1.754-.163,2.508,2.508,0,0,0-1.257-.26c-1.331-.007-2.662-.023-3.993,0-1.6.032-2.161.557-2.209,2.178-.069,2.361-.017,4.723-.023,7.085,0,.665-.026,1.331.02,2,.114,1.625.538,2.059,2.172,2.071,4.16.032,8.32.009,12.479.012,3.494,0,6.988-.01,10.482.006,1.407.006,1.614.227,1.644,1.624.015.7.018,1.4,0,2.1a3,3,0,0,0,.518,1.885c.054.12-.01-.035.043.087.667,1.551.413,1.937-1.353,2.053a2.911,2.911,0,0,1-1.708-2.23.9.9,0,0,0,.146-.225,3.4,3.4,0,0,0-.027-1.226C-581.043-352.641-580.89-352.235-581.265-351.911Z" transform="translate(609.641 380.196)" fill="#f4f4f4"/>
        <path id="Trazado_579126" data-name="Trazado 579126" d="M-491.574-364.516c.44-1.149-.416-1.8-1.087-2.345-4.621-3.729-9.294-7.394-13.994-11.114l.718-.346c1.338.187,2.122,1.276,3.122,1.985,1.975,1.4,3.8,3,5.681,4.526,2.085,1.686,4.32,3.191,6.26,5.057.229.221.569.324.814.533a3.541,3.541,0,0,1-.008,5.365c-2.1,1.7-4.281,3.3-6.4,4.981-2.092,1.664-4.1,3.433-6.233,5.047-1.015.769-1.851,1.873-3.241,2.076-.24-.213-.574.1-.808-.145-.052-.723.6-.909,1.009-1.226,3.977-3.116,7.878-6.328,11.866-9.429a11.079,11.079,0,0,0,1.382-1.142,2.629,2.629,0,0,0,.833-1.859A3.739,3.739,0,0,0-491.574-364.516Z" transform="translate(538.543 379.953)" fill="#eae4ec"/>
        <path id="Trazado_579127" data-name="Trazado 579127" d="M-495.478-325.47c.392,1.082-.344,1.765-1.009,2.3-4.658,3.746-9.36,7.437-14.047,11.148a.584.584,0,0,0-.1.168.5.5,0,0,1-.412.232,1.661,1.661,0,0,1-1.26-.4c.06-.026.122-.051.181-.079,1.313-.64,1.313-.64,1.1-1.769,2.176-.935,3.77-2.677,5.6-4.085,3.054-2.35,6.065-4.757,9.059-7.186A.97.97,0,0,1-495.478-325.47Z" transform="translate(542.447 342.87)" fill="#f3f3f3"/>
        <path id="Trazado_579128" data-name="Trazado 579128" d="M-598.817-298.329a2.124,2.124,0,0,1,1.06-.224c3.9.006,7.8,0,11.7.01.331,0,.774-.168.89.378q-6.345.008-12.69.012A1.406,1.406,0,0,1-598.817-298.329Z" transform="translate(603.175 323.966)" fill="#f7f7f7"/>
        <path id="Trazado_579129" data-name="Trazado 579129" d="M-575.41-363.922h-21.657v-.1h21.7Z" transform="translate(601.946 369.915)" fill="#050505"/>
        <ellipse id="Elipse_7193" data-name="Elipse 7193" cx="9.146" cy="0.068" rx="9.146" ry="0.068" transform="translate(2.156 26.842)" fill="#050505"/>
        <path id="Trazado_579130" data-name="Trazado 579130" d="M-608.135-337.3l-.193.2a26.051,26.051,0,0,1-.087-4.161c.022-2.745-.134-5.492.087-8.235l.193.2a1.852,1.852,0,0,1,.093.975q.01,5.023,0,10.046A1.851,1.851,0,0,1-608.135-337.3Z" transform="translate(609.94 359.722)" fill="#fefefe"/>
        <path id="Trazado_579131" data-name="Trazado 579131" d="M-609.972-336.475v-11.452h.1v11.5Z" transform="translate(611.005 358.617)" fill="#040404"/>
        <ellipse id="Elipse_7194" data-name="Elipse 7194" cx="4.041" cy="0.055" rx="4.041" ry="0.055" transform="translate(19.647 26.855)" fill="#050505"/>
        <path id="Trazado_579132" data-name="Trazado 579132" d="M-518.17-369.626l.181.2a4.266,4.266,0,0,1,0,2c-.394-.584-.069-1.257-.234-1.869Z" transform="translate(546.598 373.849)" fill="#fdfdfd"/>
        <path id="Trazado_579133" data-name="Trazado 579133" d="M-518.221-293.284c.164-.612-.16-1.285.233-1.868a5.188,5.188,0,0,1,0,2.2l-.088,0h-.088Z" transform="translate(546.597 321.569)" fill="#fdfdfd"/>
        <path id="Trazado_579134" data-name="Trazado 579134" d="M-508.082-279.49a.417.417,0,0,1,.412-.232c.274.027.58-.085.8.187A1.507,1.507,0,0,1-508.082-279.49Z" transform="translate(539.479 310.738)" fill="#f8f2fa"/>
        <path id="Trazado_579135" data-name="Trazado 579135" d="M-589.041-356.17a3.658,3.658,0,0,0,1.489.149,4.914,4.914,0,0,0,2.511.457c4.623-.013,9.245-.006,13.868-.006a2.7,2.7,0,0,0,1.892-.449,3.059,3.059,0,0,1,.271-.183c.084-.059.172-.114.258-.169.279-.344.142-.754.175-1.136.031-.354-.024-.73.3-.994.467-.167.76.168,1.059.406,3.069,2.448,6.17,4.856,9.219,7.329,1.08.876,1.092,1.337.027,2.206-3.067,2.5-6.2,4.922-9.3,7.391-.277.221-.554.5-.977.381-.386-.281-.3-.7-.331-1.092-.03-.356.084-.736-.174-1.055-.094-.056-.182-.116-.274-.175s-.2-.123-.295-.19a2.927,2.927,0,0,0-2.008-.418q-10.979-.006-21.958,0a7.108,7.108,0,0,1-1.295-.043c-.293-.054-.713,0-.683-.51a2.753,2.753,0,0,1,1.087-.072q11.488-.007,22.976,0a8.172,8.172,0,0,0,.929-.038c.125-.079-.061-.245.006-.129.03.052,0,.065-.034.1-.174.143-.374.061-.556.062q-11.938.008-23.875,0a1.622,1.622,0,0,1-.593-.057,1.211,1.211,0,0,1-.264-.935q-.017-4.3,0-8.6a1.415,1.415,0,0,1,.187-.864,42.433,42.433,0,0,1,5.237-.14c-1.555-.022-3.32.028-5.083-.03-.033-.662.5-.542.854-.561,1.116-.061,2.235-.048,3.352-.016A2.707,2.707,0,0,0-589.041-356.17Z" transform="translate(600.914 366.071)" fill="#fcde7c"/>
        <path id="Trazado_579136" data-name="Trazado 579136" d="M-598.811-352.947c.331.345.755.179,1.132.179q11.763.017,23.526,0c.745,0,1.395.084,1.761.831.429.924.116,1.9.212,2.852.026.258-.1.606.133.751.325.2.532-.17.745-.34,3.766-3.017,7.572-5.984,11.331-9.01.8-.641.8-.666,0-1.307-3.759-3.026-7.565-5.993-11.331-9.01-.213-.17-.42-.539-.745-.34-.238.145-.107.493-.133.751-.1.949.216,1.928-.212,2.851a1.554,1.554,0,0,1-1.564.831q-7.983-.025-15.967,0c-.6,0-1.059-.117-1.162-.8.183-.75.774-.694,1.348-.693,4.957,0,9.913-.019,14.869.022.819.007,1.105-.184,1.041-1.025-.076-.992,0-1.994-.023-2.991a1.322,1.322,0,0,1,.726-1.4,1.484,1.484,0,0,1,1.6.343c2.566,1.875,4.918,4.017,7.5,5.882,2.264,1.638,4.368,3.495,6.544,5.255a1.42,1.42,0,0,1,0,1.964q-3.608,2.839-7.215,5.679c-2.377,1.872-4.758,3.739-7.122,5.627a1.633,1.633,0,0,1-1.216.291,1.665,1.665,0,0,1-.824-1.677c.048-.864-.072-1.743.032-2.6.135-1.1-.322-1.27-1.311-1.265-7.534.04-15.069.026-22.6.02-2.455,0-2.835-.339-2.871-2.851-.042-2.9-.014-5.8-.008-8.7,0-1.926.642-2.562,2.571-2.571,1.433-.006,2.867,0,4.3,0,.482,0,.947,0,1.17.544.015.735-.391.958-1.068.947-1.415-.022-2.831-.015-4.246,0-.311,0-.666-.131-.924.18a.791.791,0,0,0-.132.508c.028,3.372-.058,6.744.045,10.115Z" transform="translate(604.448 374.757)" fill="#010101"/>
        <path id="Trazado_579137" data-name="Trazado 579137" d="M-594.636-304.367c-.04-.314.2-.182.321-.182q11.978-.009,23.956,0a1.066,1.066,0,0,1,.289.032c.024.007.024.1.036.155a1.34,1.34,0,0,1-.779.093q-11.523,0-23.045,0A1.335,1.335,0,0,1-594.636-304.367Z" transform="translate(600.243 328.185)" fill="#fefefe"/>
        <path id="Trazado_579138" data-name="Trazado 579138" d="M-594.626-303.873h24.6c0,.066,0,.133,0,.2h0q-11.733,0-23.466-.007C-593.871-303.681-594.3-303.532-594.626-303.873Z" transform="translate(600.233 327.691)" fill="#f0f0f0"/>
        <path id="Trazado_579139" data-name="Trazado 579139" d="M-597.138-359.388h22.53v.1h-22.536Z" transform="translate(601.999 366.662)" fill="#f7f7f7"/>
        <path id="Trazado_579140" data-name="Trazado 579140" d="M-550.708-353.775c-.008.363-.288.178-.424.178q-7.618.017-15.237.008c-.26,0-.539.056-.742-.183a1.1,1.1,0,0,1,.677-.1q7.523,0,15.047,0A1.117,1.117,0,0,1-550.708-353.775Z" transform="translate(580.917 362.794)" fill="#fefefe"/>
        <path id="Trazado_579141" data-name="Trazado 579141" d="M-550.708-354.061l-16.4,0c.33-.342.755-.193,1.136-.194q7.634-.015,15.267-.007h0C-550.707-354.194-550.708-354.127-550.708-354.061Z" transform="translate(580.917 363.079)" fill="#f0f0f0"/>
        <path id="Trazado_579142" data-name="Trazado 579142" d="M-607.38-336.834v-12c.275.228.2.544.2.833q.006,5.165,0,10.331C-607.184-337.378-607.1-337.062-607.38-336.834Z" transform="translate(609.186 359.251)" fill="#efefef"/>
        <path id="Trazado_579143" data-name="Trazado 579143" d="M-543.443-298.334h6.525v.1h-6.534Z" transform="translate(564.31 323.803)" fill="#f7f7f7"/>
        <path id="Trazado_579144" data-name="Trazado 579144" d="M-588.884-353.81c-.678.394-1.415.148-2.121.172-1.215.04-2.433,0-3.649-.014-.019,0-.05-.04-.054-.065a.254.254,0,0,1,.024-.094A35.357,35.357,0,0,1-588.884-353.81Z" transform="translate(600.291 362.831)" fill="#fefefe"/>
        <path id="Trazado_579145" data-name="Trazado 579145" d="M-588.826-354.125h-5.8c1.142-.448,2.33-.141,3.493-.177A4.147,4.147,0,0,1-588.826-354.125Z" transform="translate(600.233 363.146)" fill="#f0f0f0"/>
        <path id="Trazado_579146" data-name="Trazado 579146" d="M-512.069-363.086v-3.771c.078,1.259.435,2.524,0,3.771Z" transform="translate(542.278 371.905)" fill="#f9f9f9"/>
        <path id="Trazado_579147" data-name="Trazado 579147" d="M-512.069-303.2c.458,1.247.052,2.513,0,3.771V-303.2Z" transform="translate(542.278 327.221)" fill="#f9f9f9"/>
        <path id="Trazado_579148" data-name="Trazado 579148" d="M-517.451-292.952l0-2.2A2.6,2.6,0,0,1-517.451-292.952Z" transform="translate(546.056 321.569)" fill="#f0f0f0"/>
        <path id="Trazado_579149" data-name="Trazado 579149" d="M-517.438-366.963v-2A2.25,2.25,0,0,1-517.438-366.963Z" transform="translate(546.047 373.383)" fill="#f0f0f0"/>
        <path id="Trazado_579150" data-name="Trazado 579150" d="M-505.875-360.038v-4.112c.37-.188.483.041.619.149q6.226,4.935,12.446,9.877c.384.3.654.473.084.921-4.242,3.334-8.459,6.7-12.686,10.057a5.013,5.013,0,0,1-.463.259v-4.348a1.2,1.2,0,0,1,.17,0c.4.735.058,1.54.213,2.3.1.125.2.228.37.1q4.96-3.911,9.916-7.826c1.051-.835,1.051-1.108,0-1.943q-4.946-3.928-9.916-7.827c-.166-.13-.273-.03-.373.1-.151.759.187,1.561-.211,2.3l-.085,0Z" transform="translate(537.93 370.055)" fill="#facd62"/>
        <path id="Trazado_579151" data-name="Trazado 579151" d="M-594.755-311.238h25.172v.187h-25.151l-.021-.017c-.06-.037-.08-.075-.06-.113S-594.776-311.238-594.755-311.238Z" transform="translate(600.37 332.861)" fill="#fee580"/>
        <ellipse id="Elipse_7195" data-name="Elipse 7195" cx="11.669" cy="0.051" rx="11.669" ry="0.051" transform="translate(10.819 11.063)" fill="#fee57f"/>
        <path id="Trazado_579152" data-name="Trazado 579152" d="M-595.211-335.879a1.3,1.3,0,0,0,0,.17c-.318-.144-.256-.44-.256-.693q-.008-4.749,0-9.5a1.655,1.655,0,0,1,.094-.382c.053-.081.1-.075.146.007Z" transform="translate(600.825 357.502)" fill="#fde47f"/>
        <path id="Trazado_579153" data-name="Trazado 579153" d="M-594.987-346.6c-.048,0-.1-.007-.146-.007l.18-.194h5.532l0,.2Z" transform="translate(600.588 357.823)" fill="#fce47f"/>
        <path id="Trazado_579154" data-name="Trazado 579154" d="M-505.161-304.625c-.412-.841-.071-1.737-.191-2.6q.092,0,.182-.005A7.427,7.427,0,0,1-505.161-304.625Z" transform="translate(537.577 330.048)" fill="#feee84"/>
        <path id="Trazado_579155" data-name="Trazado 579155" d="M-504.684-304.625q0-1.3-.009-2.605c.381.419.133.929.2,1.393.049.339-.117.72.2,1.006A.427.427,0,0,1-504.684-304.625Z" transform="translate(537.1 330.048)" fill="#f7da78"/>
        <path id="Trazado_579156" data-name="Trazado 579156" d="M-504.958-358.917a.424.424,0,0,1,.393.206c-.375.421-.131.93-.2,1.394-.049.339.118.721-.2,1A7.138,7.138,0,0,1-504.958-358.917Z" transform="translate(537.373 366.332)" fill="#f7da78"/>
        <path id="Trazado_579157" data-name="Trazado 579157" d="M-505.115-358.972q0,1.3-.008,2.6c-.061,0-.122,0-.182,0,.011-.855.021-1.71.034-2.565,0-.021.038-.053.062-.057A.256.256,0,0,1-505.115-358.972Z" transform="translate(537.531 366.386)" fill="#feee84"/>
      </g>
    </g>
  </g>
</svg>
