<svg xmlns="http://www.w3.org/2000/svg" xmlns:xlink="http://www.w3.org/1999/xlink" width="450.639" height="451.72" viewBox="0 0 450.639 451.72">
  <defs>
    <filter id="Trazado_582589" x="236" y="3.081" width="117.639" height="117.639" filterUnits="userSpaceOnUse">
      <feOffset dx="5" dy="5" input="SourceAlpha"/>
      <feGaussianBlur stdDeviation="12.5" result="blur"/>
      <feFlood flood-opacity="0.161"/>
      <feComposite operator="in" in2="blur"/>
      <feComposite in="SourceGraphic"/>
    </filter>
    <filter id="Trazado_582589-2" x="236" y="334.081" width="117.639" height="117.639" filterUnits="userSpaceOnUse">
      <feOffset dx="5" dy="5" input="SourceAlpha"/>
      <feGaussianBlur stdDeviation="12.5" result="blur-2"/>
      <feFlood flood-opacity="0.161"/>
      <feComposite operator="in" in2="blur-2"/>
      <feComposite in="SourceGraphic"/>
    </filter>
    <filter id="Trazado_582589-3" x="98.087" y="334.081" width="117.639" height="117.639" filterUnits="userSpaceOnUse">
      <feOffset dx="5" dy="5" input="SourceAlpha"/>
      <feGaussianBlur stdDeviation="12.5" result="blur-3"/>
      <feFlood flood-opacity="0.161"/>
      <feComposite operator="in" in2="blur-3"/>
      <feComposite in="SourceGraphic"/>
    </filter>
    <filter id="Trazado_582589-4" x="98.087" y="3.081" width="117.639" height="117.639" filterUnits="userSpaceOnUse">
      <feOffset dx="5" dy="5" input="SourceAlpha"/>
      <feGaussianBlur stdDeviation="12.5" result="blur-4"/>
      <feFlood flood-opacity="0.161"/>
      <feComposite operator="in" in2="blur-4"/>
      <feComposite in="SourceGraphic"/>
    </filter>
    <filter id="Trazado_582589-5" x="333" y="104.012" width="117.639" height="117.639" filterUnits="userSpaceOnUse">
      <feOffset dx="5" dy="5" input="SourceAlpha"/>
      <feGaussianBlur stdDeviation="12.5" result="blur-5"/>
      <feFlood flood-opacity="0.161"/>
      <feComposite operator="in" in2="blur-5"/>
      <feComposite in="SourceGraphic"/>
    </filter>
    <filter id="Trazado_582589-6" x="0" y="104.012" width="117.639" height="117.639" filterUnits="userSpaceOnUse">
      <feOffset dx="5" dy="5" input="SourceAlpha"/>
      <feGaussianBlur stdDeviation="12.5" result="blur-6"/>
      <feFlood flood-opacity="0.161"/>
      <feComposite operator="in" in2="blur-6"/>
      <feComposite in="SourceGraphic"/>
    </filter>
    <filter id="Trazado_582589-7" x="330" y="238.477" width="117.639" height="117.639" filterUnits="userSpaceOnUse">
      <feOffset dx="5" dy="5" input="SourceAlpha"/>
      <feGaussianBlur stdDeviation="12.5" result="blur-7"/>
      <feFlood flood-opacity="0.161"/>
      <feComposite operator="in" in2="blur-7"/>
      <feComposite in="SourceGraphic"/>
    </filter>
    <filter id="Trazado_582589-8" x="0" y="238.477" width="117.639" height="117.639" filterUnits="userSpaceOnUse">
      <feOffset dx="5" dy="5" input="SourceAlpha"/>
      <feGaussianBlur stdDeviation="12.5" result="blur-8"/>
      <feFlood flood-opacity="0.161"/>
      <feComposite operator="in" in2="blur-8"/>
      <feComposite in="SourceGraphic"/>
    </filter>
    <filter id="Elipse_7352" x="79.768" y="81.332" width="293" height="293" filterUnits="userSpaceOnUse">
      <feOffset dx="5" dy="5" input="SourceAlpha"/>
      <feGaussianBlur stdDeviation="12.5" result="blur-9"/>
      <feFlood flood-color="#242424" flood-opacity="0.078"/>
      <feComposite operator="in" in2="blur-9"/>
      <feComposite in="SourceGraphic"/>
    </filter>
  </defs>
  <g id="Grupo_845316" data-name="Grupo 845316" transform="translate(-223.732 -863.168)">
    <g id="Grupo_845315" data-name="Grupo 845315">
      <g id="Grupo_845314" data-name="Grupo 845314">
        <path id="Trazado_572450" data-name="Trazado 572450" d="M1202.617-750.384l-57.293,57.293a138.268,138.268,0,0,0-95.161-39.432v-81.013A219.045,219.045,0,0,1,1202.617-750.384Z" transform="translate(-603.572 1676.705)" fill="#00e7bf" fill-rule="evenodd"/>
        <path id="Trazado_572451" data-name="Trazado 572451" d="M1212.569-632.833h-81.013a138.269,138.269,0,0,0-39.432-95.161l57.292-57.293A219,219,0,0,1,1212.569-632.833Z" transform="translate(-547.569 1714.409)" fill="#c5eafb" fill-rule="evenodd"/>
        <path id="Trazado_572452" data-name="Trazado 572452" d="M1212.569-718.277a219,219,0,0,1-63.153,152.454l-57.292-57.293a138.268,138.268,0,0,0,39.432-95.161Z" transform="translate(-547.569 1803.847)" fill="#4a2efc" fill-rule="evenodd"/>
        <path id="Trazado_572453" data-name="Trazado 572453" d="M1202.617-619.024a219.046,219.046,0,0,1-152.454,63.153v-81.013a138.269,138.269,0,0,0,95.161-39.433Z" transform="translate(-603.572 1859.849)" fill="#c0b6fe" fill-rule="evenodd"/>
        <path id="Trazado_572454" data-name="Trazado 572454" d="M1135.607-636.884v81.013a219.045,219.045,0,0,1-152.454-63.153l57.293-57.293A138.269,138.269,0,0,0,1135.607-636.884Z" transform="translate(-693.009 1859.849)" fill="#f27b58" fill-rule="evenodd"/>
        <path id="Trazado_572455" data-name="Trazado 572455" d="M1075.349-623.116l-57.293,57.293A219,219,0,0,1,954.9-718.277h81.013A138.268,138.268,0,0,0,1075.349-623.116Z" transform="translate(-730.713 1803.847)" fill="#ffbaa5" fill-rule="evenodd"/>
        <path id="Trazado_572456" data-name="Trazado 572456" d="M1075.349-727.994a138.268,138.268,0,0,0-39.432,95.161H954.9a219,219,0,0,1,63.153-152.454Z" transform="translate(-730.713 1714.409)" fill="#ffd400" fill-rule="evenodd"/>
        <path id="Trazado_572457" data-name="Trazado 572457" d="M1135.607-813.537v81.013a138.268,138.268,0,0,0-95.161,39.432l-57.293-57.293A219,219,0,0,1,1135.607-813.537Z" transform="translate(-693.009 1676.705)" fill="#fff0a6" fill-rule="evenodd" opacity="0.75"/>
        <g transform="matrix(1, 0, 0, 1, 223.73, 863.17)" filter="url(#Trazado_582589)">
          <path id="Trazado_582589-9" data-name="Trazado 582589" d="M21.319,0A21.319,21.319,0,1,1,0,21.319,21.319,21.319,0,0,1,21.319,0Z" transform="translate(268.5 35.58)" fill="#fff"/>
        </g>
        <path id="Trazado_582936" data-name="Trazado 582936" d="M17.88,13.771a6.11,6.11,0,0,1-1.165,4,4.024,4.024,0,0,1-3.283,1.406,4.046,4.046,0,0,1-3.3-1.415,6.1,6.1,0,0,1-1.169-3.99V11.433a6.11,6.11,0,0,1,1.165-4,4.034,4.034,0,0,1,3.292-1.406,4.036,4.036,0,0,1,3.3,1.415,6.116,6.116,0,0,1,1.169,4Zm-2.962-2.716a4.564,4.564,0,0,0-.36-2.061,1.2,1.2,0,0,0-1.143-.681,1.176,1.176,0,0,0-1.112.633,4.3,4.3,0,0,0-.374,1.916v3.27a4.6,4.6,0,0,0,.36,2.1,1.209,1.209,0,0,0,1.143.664,1.193,1.193,0,0,0,1.116-.646,4.39,4.39,0,0,0,.369-2.026ZM25.983,19H23.013V9.543l-2.918.853V8.146L25.711,6.2h.272Z" transform="translate(495.051 908.068)" fill="#12263f"/>
        <g transform="matrix(1, 0, 0, 1, 223.73, 863.17)" filter="url(#Trazado_582589-2)">
          <path id="Trazado_582589-10" data-name="Trazado 582589" d="M21.319,0A21.319,21.319,0,1,1,0,21.319,21.319,21.319,0,0,1,21.319,0Z" transform="translate(268.5 366.58)" fill="#fff"/>
        </g>
        <path id="Trazado_582939" data-name="Trazado 582939" d="M17.88,13.771a6.11,6.11,0,0,1-1.165,4,4.024,4.024,0,0,1-3.283,1.406,4.046,4.046,0,0,1-3.3-1.415,6.1,6.1,0,0,1-1.169-3.99V11.433a6.11,6.11,0,0,1,1.165-4,4.034,4.034,0,0,1,3.292-1.406,4.036,4.036,0,0,1,3.3,1.415,6.116,6.116,0,0,1,1.169,4Zm-2.962-2.716a4.564,4.564,0,0,0-.36-2.061,1.2,1.2,0,0,0-1.143-.681,1.176,1.176,0,0,0-1.112.633,4.3,4.3,0,0,0-.374,1.916v3.27a4.6,4.6,0,0,0,.36,2.1,1.209,1.209,0,0,0,1.143.664,1.193,1.193,0,0,0,1.116-.646,4.39,4.39,0,0,0,.369-2.026ZM27.24,14h1.3v2.285h-1.3V19H24.278V16.284H19.33l-.176-1.811,5.124-8.244V6.2H27.24Zm-5.265,0h2.3V10.062l-.185.3Z" transform="translate(495.051 1239.068)" fill="#12263f"/>
        <g transform="matrix(1, 0, 0, 1, 223.73, 863.17)" filter="url(#Trazado_582589-3)">
          <path id="Trazado_582589-11" data-name="Trazado 582589" d="M21.319,0A21.319,21.319,0,1,1,0,21.319,21.319,21.319,0,0,1,21.319,0Z" transform="translate(130.59 366.58)" fill="#fff"/>
        </g>
        <path id="Trazado_582940" data-name="Trazado 582940" d="M17.88,13.771a6.11,6.11,0,0,1-1.165,4,4.024,4.024,0,0,1-3.283,1.406,4.046,4.046,0,0,1-3.3-1.415,6.1,6.1,0,0,1-1.169-3.99V11.433a6.11,6.11,0,0,1,1.165-4,4.034,4.034,0,0,1,3.292-1.406,4.036,4.036,0,0,1,3.3,1.415,6.116,6.116,0,0,1,1.169,4Zm-2.962-2.716a4.564,4.564,0,0,0-.36-2.061,1.2,1.2,0,0,0-1.143-.681,1.176,1.176,0,0,0-1.112.633,4.3,4.3,0,0,0-.374,1.916v3.27a4.6,4.6,0,0,0,.36,2.1,1.209,1.209,0,0,0,1.143.664,1.193,1.193,0,0,0,1.116-.646,4.39,4.39,0,0,0,.369-2.026Zm4.676,1.694L20.376,6.2h7.479v2.3H22.784l-.29,2.542a3.493,3.493,0,0,1,.831-.327,4.179,4.179,0,0,1,3.938.988,4.549,4.549,0,0,1,1.024,3.168,4.541,4.541,0,0,1-.549,2.228,3.776,3.776,0,0,1-1.542,1.534,4.87,4.87,0,0,1-2.347.536,5.24,5.24,0,0,1-2.259-.5,4.052,4.052,0,0,1-1.652-1.361,3.308,3.308,0,0,1-.589-1.954h2.971a1.68,1.68,0,0,0,.448,1.114,1.423,1.423,0,0,0,1.063.412q1.494,0,1.494-2.21,0-2.044-1.828-2.044a1.824,1.824,0,0,0-1.547.667Z" transform="translate(357.139 1239.068)" fill="#12263f"/>
        <g transform="matrix(1, 0, 0, 1, 223.73, 863.17)" filter="url(#Trazado_582589-4)">
          <path id="Trazado_582589-12" data-name="Trazado 582589" d="M21.319,0A21.319,21.319,0,1,1,0,21.319,21.319,21.319,0,0,1,21.319,0Z" transform="translate(130.59 35.58)" fill="#fff"/>
        </g>
        <path id="Trazado_582935" data-name="Trazado 582935" d="M17.88,13.771a6.11,6.11,0,0,1-1.165,4,4.024,4.024,0,0,1-3.283,1.406,4.046,4.046,0,0,1-3.3-1.415,6.1,6.1,0,0,1-1.169-3.99V11.433a6.11,6.11,0,0,1,1.165-4,4.034,4.034,0,0,1,3.292-1.406,4.036,4.036,0,0,1,3.3,1.415,6.116,6.116,0,0,1,1.169,4Zm-2.962-2.716a4.564,4.564,0,0,0-.36-2.061,1.2,1.2,0,0,0-1.143-.681,1.176,1.176,0,0,0-1.112.633,4.3,4.3,0,0,0-.374,1.916v3.27a4.6,4.6,0,0,0,.36,2.1,1.209,1.209,0,0,0,1.143.664,1.193,1.193,0,0,0,1.116-.646,4.39,4.39,0,0,0,.369-2.026ZM28.049,9.622a2.954,2.954,0,0,1-.461,1.644,3.361,3.361,0,0,1-1.27,1.143,3.7,3.7,0,0,1,1.45,1.226,3.164,3.164,0,0,1,.536,1.841,3.349,3.349,0,0,1-1.182,2.707,4.909,4.909,0,0,1-3.256.993,5,5,0,0,1-3.287-1,3.325,3.325,0,0,1-1.2-2.7,3.2,3.2,0,0,1,.527-1.819A3.586,3.586,0,0,1,21.4,12.408a3.38,3.38,0,0,1-1.283-1.143,2.934,2.934,0,0,1-.466-1.644A3.284,3.284,0,0,1,20.78,6.985a4.558,4.558,0,0,1,3.059-.967,4.586,4.586,0,0,1,3.076.967A3.284,3.284,0,0,1,28.049,9.622Zm-2.716,5.616a1.69,1.69,0,0,0-.409-1.217,1.423,1.423,0,0,0-1.077-.426,1.438,1.438,0,0,0-1.081.426,1.678,1.678,0,0,0-.413,1.217,1.693,1.693,0,0,0,.417,1.208,1.433,1.433,0,0,0,1.094.444,1.377,1.377,0,0,0,1.063-.439A1.723,1.723,0,0,0,25.333,15.238ZM23.839,8.3a1.1,1.1,0,0,0-.91.391,1.7,1.7,0,0,0-.312,1.085,1.8,1.8,0,0,0,.316,1.107,1.092,1.092,0,0,0,.932.422,1.047,1.047,0,0,0,.91-.422,1.856,1.856,0,0,0,.3-1.107A1.7,1.7,0,0,0,24.766,8.7,1.109,1.109,0,0,0,23.839,8.3Z" transform="translate(357.139 908.068)" fill="#12263f"/>
        <g transform="matrix(1, 0, 0, 1, 223.73, 863.17)" filter="url(#Trazado_582589-5)">
          <path id="Trazado_582589-13" data-name="Trazado 582589" d="M21.319,0A21.319,21.319,0,1,1,0,21.319,21.319,21.319,0,0,1,21.319,0Z" transform="translate(365.5 136.51)" fill="#fff"/>
        </g>
        <path id="Trazado_582937" data-name="Trazado 582937" d="M17.88,13.771a6.11,6.11,0,0,1-1.165,4,4.024,4.024,0,0,1-3.283,1.406,4.046,4.046,0,0,1-3.3-1.415,6.1,6.1,0,0,1-1.169-3.99V11.433a6.11,6.11,0,0,1,1.165-4,4.034,4.034,0,0,1,3.292-1.406,4.036,4.036,0,0,1,3.3,1.415,6.116,6.116,0,0,1,1.169,4Zm-2.962-2.716a4.564,4.564,0,0,0-.36-2.061,1.2,1.2,0,0,0-1.143-.681,1.176,1.176,0,0,0-1.112.633,4.3,4.3,0,0,0-.374,1.916v3.27a4.6,4.6,0,0,0,.36,2.1,1.209,1.209,0,0,0,1.143.664,1.193,1.193,0,0,0,1.116-.646,4.39,4.39,0,0,0,.369-2.026ZM28.348,19h-8.93V17.066l4.113-4.324a4.909,4.909,0,0,0,1.521-2.751,1.913,1.913,0,0,0-.36-1.257A1.287,1.287,0,0,0,23.645,8.3a1.3,1.3,0,0,0-1.1.576,2.366,2.366,0,0,0-.422,1.437H19.154a4.2,4.2,0,0,1,.589-2.175,4.129,4.129,0,0,1,1.635-1.56,4.856,4.856,0,0,1,2.338-.562,4.777,4.777,0,0,1,3.195.958,3.42,3.42,0,0,1,1.121,2.751A4,4,0,0,1,27.75,11.2a6.456,6.456,0,0,1-.875,1.5,22.029,22.029,0,0,1-1.912,2.1l-1.652,1.907h5.036Z" transform="translate(592.051 1008.999)" fill="#12263f"/>
        <g transform="matrix(1, 0, 0, 1, 223.73, 863.17)" filter="url(#Trazado_582589-6)">
          <path id="Trazado_582589-14" data-name="Trazado 582589" d="M21.319,0A21.319,21.319,0,1,1,0,21.319,21.319,21.319,0,0,1,21.319,0Z" transform="translate(32.5 136.51)" fill="#fff"/>
        </g>
        <path id="Trazado_582942" data-name="Trazado 582942" d="M17.88,13.771a6.11,6.11,0,0,1-1.165,4,4.024,4.024,0,0,1-3.283,1.406,4.046,4.046,0,0,1-3.3-1.415,6.1,6.1,0,0,1-1.169-3.99V11.433a6.11,6.11,0,0,1,1.165-4,4.034,4.034,0,0,1,3.292-1.406,4.036,4.036,0,0,1,3.3,1.415,6.116,6.116,0,0,1,1.169,4Zm-2.962-2.716a4.564,4.564,0,0,0-.36-2.061,1.2,1.2,0,0,0-1.143-.681,1.176,1.176,0,0,0-1.112.633,4.3,4.3,0,0,0-.374,1.916v3.27a4.6,4.6,0,0,0,.36,2.1,1.209,1.209,0,0,0,1.143.664,1.193,1.193,0,0,0,1.116-.646,4.39,4.39,0,0,0,.369-2.026Zm13.395-3.27L23.531,19H20.4l4.79-10.512h-6.1V6.2h9.22Z" transform="translate(259.051 1008.999)" fill="#12263f"/>
        <g transform="matrix(1, 0, 0, 1, 223.73, 863.17)" filter="url(#Trazado_582589-7)">
          <path id="Trazado_582589-15" data-name="Trazado 582589" d="M21.319,0A21.319,21.319,0,1,1,0,21.319,21.319,21.319,0,0,1,21.319,0Z" transform="translate(362.5 270.98)" fill="#fff"/>
        </g>
        <path id="Trazado_582938" data-name="Trazado 582938" d="M17.88,13.771a6.11,6.11,0,0,1-1.165,4,4.024,4.024,0,0,1-3.283,1.406,4.046,4.046,0,0,1-3.3-1.415,6.1,6.1,0,0,1-1.169-3.99V11.433a6.11,6.11,0,0,1,1.165-4,4.034,4.034,0,0,1,3.292-1.406,4.036,4.036,0,0,1,3.3,1.415,6.116,6.116,0,0,1,1.169,4Zm-2.962-2.716a4.564,4.564,0,0,0-.36-2.061,1.2,1.2,0,0,0-1.143-.681,1.176,1.176,0,0,0-1.112.633,4.3,4.3,0,0,0-.374,1.916v3.27a4.6,4.6,0,0,0,.36,2.1,1.209,1.209,0,0,0,1.143.664,1.193,1.193,0,0,0,1.116-.646,4.39,4.39,0,0,0,.369-2.026Zm7.207.308h1.4a1.453,1.453,0,0,0,1.661-1.626,1.406,1.406,0,0,0-.4-1.033,1.5,1.5,0,0,0-1.116-.4,1.606,1.606,0,0,0-1.024.343,1.046,1.046,0,0,0-.435.853H19.251a3.032,3.032,0,0,1,.563-1.8,3.715,3.715,0,0,1,1.56-1.235,5.334,5.334,0,0,1,2.193-.444,5.241,5.241,0,0,1,3.357.976,3.243,3.243,0,0,1,1.222,2.681,2.7,2.7,0,0,1-.505,1.56,3.6,3.6,0,0,1-1.472,1.191,3.441,3.441,0,0,1,1.6,1.121,2.951,2.951,0,0,1,.58,1.859,3.3,3.3,0,0,1-1.318,2.742,5.472,5.472,0,0,1-3.463,1.028,5.675,5.675,0,0,1-2.333-.479A3.656,3.656,0,0,1,19.6,17.37a3.45,3.45,0,0,1-.554-1.929h2.979a1.334,1.334,0,0,0,.475,1.02,1.676,1.676,0,0,0,1.169.431,1.755,1.755,0,0,0,1.248-.435,1.454,1.454,0,0,0,.466-1.112,1.7,1.7,0,0,0-.483-1.371,2.021,2.021,0,0,0-1.336-.4H22.125Z" transform="translate(589.051 1143.465)" fill="#12263f"/>
        <g transform="matrix(1, 0, 0, 1, 223.73, 863.17)" filter="url(#Trazado_582589-8)">
          <path id="Trazado_582589-16" data-name="Trazado 582589" d="M21.319,0A21.319,21.319,0,1,1,0,21.319,21.319,21.319,0,0,1,21.319,0Z" transform="translate(32.5 270.98)" fill="#fff"/>
        </g>
        <path id="Trazado_582941" data-name="Trazado 582941" d="M17.88,13.771a6.11,6.11,0,0,1-1.165,4,4.024,4.024,0,0,1-3.283,1.406,4.046,4.046,0,0,1-3.3-1.415,6.1,6.1,0,0,1-1.169-3.99V11.433a6.11,6.11,0,0,1,1.165-4,4.034,4.034,0,0,1,3.292-1.406,4.036,4.036,0,0,1,3.3,1.415,6.116,6.116,0,0,1,1.169,4Zm-2.962-2.716a4.564,4.564,0,0,0-.36-2.061,1.2,1.2,0,0,0-1.143-.681,1.176,1.176,0,0,0-1.112.633,4.3,4.3,0,0,0-.374,1.916v3.27a4.6,4.6,0,0,0,.36,2.1,1.209,1.209,0,0,0,1.143.664,1.193,1.193,0,0,0,1.116-.646,4.39,4.39,0,0,0,.369-2.026ZM26.572,6.019V8.348H26.44a4.447,4.447,0,0,0-2.729.8,3.358,3.358,0,0,0-1.314,2.21,3.464,3.464,0,0,1,2.531-.984,3.231,3.231,0,0,1,2.646,1.213,4.892,4.892,0,0,1,.984,3.182A4.48,4.48,0,0,1,27.983,17a4.108,4.108,0,0,1-1.608,1.6,4.622,4.622,0,0,1-2.29.576,4.777,4.777,0,0,1-2.435-.62,4.26,4.26,0,0,1-1.67-1.771,5.832,5.832,0,0,1-.615-2.654V12.944a7.387,7.387,0,0,1,.848-3.555,6.149,6.149,0,0,1,2.421-2.474,6.923,6.923,0,0,1,3.489-.9ZM23.9,12.637a1.7,1.7,0,0,0-.984.272,1.73,1.73,0,0,0-.589.668v.888q0,2.426,1.679,2.426a1.362,1.362,0,0,0,1.129-.606,2.472,2.472,0,0,0,.453-1.521,2.426,2.426,0,0,0-.461-1.534A1.476,1.476,0,0,0,23.9,12.637Z" transform="translate(259.051 1143.465)" fill="#12263f"/>
        <g transform="matrix(1, 0, 0, 1, 223.73, 863.17)" filter="url(#Elipse_7352)">
          <g id="Elipse_7352-2" data-name="Elipse 7352" transform="translate(112.27 113.83)" fill="#f5f5f5" stroke="#fff" stroke-width="6">
            <circle cx="109" cy="109" r="109" stroke="none"/>
            <circle cx="109" cy="109" r="106" fill="none"/>
          </g>
        </g>
        <path id="Trazado_582943" data-name="Trazado 582943" d="M20.66,11.57a6.867,6.867,0,0,1-.594,2.945,4.472,4.472,0,0,1-1.7,1.953,4.7,4.7,0,0,1-2.535.688,4.732,4.732,0,0,1-2.523-.68,4.515,4.515,0,0,1-1.719-1.941,6.67,6.67,0,0,1-.617-2.9V11.07a6.831,6.831,0,0,1,.605-2.957,4.508,4.508,0,0,1,1.711-1.961,4.706,4.706,0,0,1,2.527-.684,4.706,4.706,0,0,1,2.527.684,4.508,4.508,0,0,1,1.711,1.961,6.811,6.811,0,0,1,.605,2.949Zm-2.375-.516a4.787,4.787,0,0,0-.641-2.719,2.088,2.088,0,0,0-1.828-.93A2.088,2.088,0,0,0,14,8.324a4.732,4.732,0,0,0-.648,2.691v.555a4.847,4.847,0,0,0,.641,2.7,2.082,2.082,0,0,0,1.844.961,2.064,2.064,0,0,0,1.813-.926,4.819,4.819,0,0,0,.641-2.7Zm11.547,1.8a5.119,5.119,0,0,1-.867,3.168,2.872,2.872,0,0,1-2.422,1.137,2.639,2.639,0,0,1-2.2-1.055l-.1.9H22.215V5h2.258V9.3a2.571,2.571,0,0,1,2.055-.914,2.9,2.9,0,0,1,2.426,1.137,5.126,5.126,0,0,1,.879,3.2Zm-2.258-.164a3.363,3.363,0,0,0-.406-1.871,1.374,1.374,0,0,0-1.211-.59,1.489,1.489,0,0,0-1.484.883v3.336a1.509,1.509,0,0,0,1.5.891,1.394,1.394,0,0,0,1.438-1.078A5.562,5.562,0,0,0,27.574,12.688Zm6.039-4.141v8.914a3.024,3.024,0,0,1-.742,2.176,2.821,2.821,0,0,1-2.141.777,4.591,4.591,0,0,1-1.117-.133V18.492a4.238,4.238,0,0,0,.711.07q1.023,0,1.023-1.086V8.547ZM31.168,6.359a1.112,1.112,0,0,1,.34-.836,1.47,1.47,0,0,1,1.852,0,1.112,1.112,0,0,1,.34.836,1.108,1.108,0,0,1-.348.844,1.448,1.448,0,0,1-1.836,0A1.108,1.108,0,0,1,31.168,6.359Zm8.1,10.8a4.15,4.15,0,0,1-3.027-1.141,4.054,4.054,0,0,1-1.168-3.039v-.219a5.106,5.106,0,0,1,.492-2.277,3.612,3.612,0,0,1,1.395-1.547,3.914,3.914,0,0,1,2.059-.543,3.508,3.508,0,0,1,2.73,1.094,4.444,4.444,0,0,1,1,3.1v.922H37.363a2.1,2.1,0,0,0,.66,1.328,2,2,0,0,0,1.395.5,2.437,2.437,0,0,0,2.039-.945l1.109,1.242a3.389,3.389,0,0,1-1.375,1.121A4.511,4.511,0,0,1,39.27,17.156Zm-.258-6.945a1.411,1.411,0,0,0-1.09.455,2.357,2.357,0,0,0-.535,1.3h3.141v-.181a1.681,1.681,0,0,0-.406-1.165A1.456,1.456,0,0,0,39.012,10.211ZM46.73,6.469V8.547h1.445V10.2H46.73v4.219a1.007,1.007,0,0,0,.18.672.9.9,0,0,0,.688.2,3.6,3.6,0,0,0,.664-.055v1.711a4.648,4.648,0,0,1-1.367.2,2.156,2.156,0,0,1-2.422-2.4V10.2H43.238V8.547h1.234V6.469ZM51.816,17H49.551V8.547h2.266Zm-2.4-10.641a1.112,1.112,0,0,1,.34-.836,1.465,1.465,0,0,1,1.848,0,1.105,1.105,0,0,1,.344.836A1.108,1.108,0,0,1,51.6,7.2a1.448,1.448,0,0,1-1.836,0A1.108,1.108,0,0,1,49.418,6.359Zm7.422,7.883,1.57-5.7H60.77L57.918,17H55.762L52.91,8.547H55.27ZM61.293,12.7a5.013,5.013,0,0,1,.484-2.242A3.546,3.546,0,0,1,63.172,8.93a4.069,4.069,0,0,1,2.113-.539,3.849,3.849,0,0,1,2.793,1.047,4.2,4.2,0,0,1,1.207,2.844l.016.578a4.418,4.418,0,0,1-1.086,3.121,4.209,4.209,0,0,1-5.832,0,4.5,4.5,0,0,1-1.09-3.187Zm2.258.16A3.16,3.16,0,0,0,64,14.7a1.628,1.628,0,0,0,2.578.008,3.457,3.457,0,0,0,.461-2.015,3.128,3.128,0,0,0-.461-1.831,1.5,1.5,0,0,0-1.3-.649A1.474,1.474,0,0,0,64,10.856,3.516,3.516,0,0,0,63.551,12.856ZM75.27,14.664a.727.727,0,0,0-.41-.652,4.659,4.659,0,0,0-1.316-.426q-3.016-.633-3.016-2.562a2.323,2.323,0,0,1,.934-1.879A3.766,3.766,0,0,1,73.9,8.391a4.053,4.053,0,0,1,2.574.758,2.388,2.388,0,0,1,.965,1.969H75.184a1.092,1.092,0,0,0-.312-.8A1.322,1.322,0,0,0,73.895,10a1.351,1.351,0,0,0-.883.258.814.814,0,0,0-.312.656.7.7,0,0,0,.355.605,3.657,3.657,0,0,0,1.2.4,9.8,9.8,0,0,1,1.422.379,2.336,2.336,0,0,1,1.789,2.273,2.2,2.2,0,0,1-.992,1.871,4.28,4.28,0,0,1-2.562.715,4.47,4.47,0,0,1-1.887-.379,3.166,3.166,0,0,1-1.293-1.039,2.414,2.414,0,0,1-.469-1.426H72.4a1.179,1.179,0,0,0,.445.922,1.766,1.766,0,0,0,1.109.32,1.635,1.635,0,0,0,.98-.246A.766.766,0,0,0,75.27,14.664Zm7.281-1.953a5.094,5.094,0,0,1,.887-3.148,2.877,2.877,0,0,1,2.426-1.172,2.589,2.589,0,0,1,2.039.922V5h2.266V17H88.129l-.109-.9a2.657,2.657,0,0,1-2.172,1.055,2.869,2.869,0,0,1-2.395-1.176A5.258,5.258,0,0,1,82.551,12.711Zm2.258.168a3.337,3.337,0,0,0,.414,1.823,1.349,1.349,0,0,0,1.2.634,1.511,1.511,0,0,0,1.477-.884V11.111a1.489,1.489,0,0,0-1.461-.884Q84.809,10.227,84.809,12.879Zm11,4.277a4.15,4.15,0,0,1-3.027-1.141,4.054,4.054,0,0,1-1.168-3.039v-.219a5.106,5.106,0,0,1,.492-2.277A3.612,3.612,0,0,1,93.5,8.934a3.914,3.914,0,0,1,2.059-.543,3.508,3.508,0,0,1,2.73,1.094,4.444,4.444,0,0,1,1,3.1v.922H93.9a2.1,2.1,0,0,0,.66,1.328,2,2,0,0,0,1.395.5A2.437,2.437,0,0,0,98,14.391l1.109,1.242a3.389,3.389,0,0,1-1.375,1.121A4.511,4.511,0,0,1,95.809,17.156Zm-.258-6.945a1.411,1.411,0,0,0-1.09.455,2.357,2.357,0,0,0-.535,1.3h3.141v-.181a1.681,1.681,0,0,0-.406-1.165A1.456,1.456,0,0,0,95.551,10.211ZM22.844,39.156a4.15,4.15,0,0,1-3.027-1.141,4.054,4.054,0,0,1-1.168-3.039v-.219a5.106,5.106,0,0,1,.492-2.277,3.612,3.612,0,0,1,1.395-1.547,3.914,3.914,0,0,1,2.059-.543,3.508,3.508,0,0,1,2.73,1.094,4.444,4.444,0,0,1,1,3.1v.922H20.938a2.1,2.1,0,0,0,.66,1.328,2,2,0,0,0,1.395.5,2.437,2.437,0,0,0,2.039-.945l1.109,1.242a3.389,3.389,0,0,1-1.375,1.121A4.511,4.511,0,0,1,22.844,39.156Zm-.258-6.945a1.411,1.411,0,0,0-1.09.455,2.357,2.357,0,0,0-.535,1.3H24.1v-.181a1.681,1.681,0,0,0-.406-1.165A1.456,1.456,0,0,0,22.586,32.211Zm8.234.859,1.422-2.523h2.414L32.25,34.688,34.758,39H32.336l-1.508-2.656L29.328,39H26.9l2.508-4.312-2.4-4.141H29.43Zm7.125-1.6A2.818,2.818,0,0,1,40.2,30.391q2.75,0,2.789,3.2V39H40.734V33.648a1.57,1.57,0,0,0-.312-1.074,1.34,1.34,0,0,0-1.039-.348,1.537,1.537,0,0,0-1.437.766V39H35.688V27h2.258ZM47.078,39H44.813V30.547h2.266Zm-2.4-10.641a1.112,1.112,0,0,1,.34-.836,1.465,1.465,0,0,1,1.848,0,1.193,1.193,0,0,1,0,1.68,1.448,1.448,0,0,1-1.836,0A1.108,1.108,0,0,1,44.68,28.359Zm11.875,6.492a5.119,5.119,0,0,1-.867,3.168,2.872,2.872,0,0,1-2.422,1.137,2.639,2.639,0,0,1-2.2-1.055l-.1.9H48.938V27H51.2v4.3a2.571,2.571,0,0,1,2.055-.914,2.9,2.9,0,0,1,2.426,1.137,5.126,5.126,0,0,1,.879,3.2ZM54.3,34.688a3.363,3.363,0,0,0-.406-1.871,1.374,1.374,0,0,0-1.211-.59,1.489,1.489,0,0,0-1.484.883v3.336a1.509,1.509,0,0,0,1.5.891,1.394,1.394,0,0,0,1.438-1.078A5.562,5.562,0,0,0,54.3,34.688ZM60.328,39H58.063V30.547h2.266Zm-2.4-10.641a1.112,1.112,0,0,1,.34-.836,1.465,1.465,0,0,1,1.848,0,1.193,1.193,0,0,1,0,1.68,1.448,1.448,0,0,1-1.836,0A1.108,1.108,0,0,1,57.93,28.359ZM65.7,37.336a1.481,1.481,0,0,0,1.016-.344,1.2,1.2,0,0,0,.406-.914h2.117a2.9,2.9,0,0,1-.469,1.574,3.093,3.093,0,0,1-1.262,1.109,3.949,3.949,0,0,1-1.77.395A3.67,3.67,0,0,1,62.883,38a4.56,4.56,0,0,1-1.047-3.184v-.148a4.508,4.508,0,0,1,1.039-3.117,3.627,3.627,0,0,1,2.852-1.164,3.555,3.555,0,0,1,2.543.9,3.2,3.2,0,0,1,.973,2.4H67.125a1.551,1.551,0,0,0-.406-1.072,1.51,1.51,0,0,0-2.223.163,3.333,3.333,0,0,0-.4,1.866v.235a3.375,3.375,0,0,0,.4,1.878A1.377,1.377,0,0,0,65.7,37.336ZM72.914,39H70.648V30.547h2.266Zm-2.4-10.641a1.112,1.112,0,0,1,.34-.836,1.465,1.465,0,0,1,1.848,0,1.193,1.193,0,0,1,0,1.68,1.448,1.448,0,0,1-1.836,0A1.108,1.108,0,0,1,70.516,28.359ZM74.422,34.7a5.013,5.013,0,0,1,.484-2.242A3.546,3.546,0,0,1,76.3,30.93a4.069,4.069,0,0,1,2.113-.539,3.849,3.849,0,0,1,2.793,1.047,4.2,4.2,0,0,1,1.207,2.844l.016.578a4.418,4.418,0,0,1-1.086,3.121,4.209,4.209,0,0,1-5.832,0,4.5,4.5,0,0,1-1.09-3.187Zm2.258.16a3.16,3.16,0,0,0,.453,1.843,1.628,1.628,0,0,0,2.578.008,3.457,3.457,0,0,0,.461-2.015,3.128,3.128,0,0,0-.461-1.831,1.5,1.5,0,0,0-1.3-.649,1.474,1.474,0,0,0-1.281.646A3.516,3.516,0,0,0,76.68,34.856ZM78.859,27H81.32l-2.164,2.422H77.32ZM85.9,30.547l.07.977a2.951,2.951,0,0,1,2.43-1.133,2.453,2.453,0,0,1,2,.789,3.682,3.682,0,0,1,.672,2.359V39H88.813V33.594a1.465,1.465,0,0,0-.312-1.043,1.4,1.4,0,0,0-1.039-.324,1.553,1.553,0,0,0-1.43.813V39H83.773V30.547Z" transform="translate(387.599 1118.797)" fill="#12263f"/>
        <path id="Trazado_572458" data-name="Trazado 572458" d="M406.484-757.9a1.989,1.989,0,0,0,.293-2.321,9.484,9.484,0,0,1-.1-6.2,3.44,3.44,0,0,1,3.5-2.455,65.711,65.711,0,0,1,8.949.091,21.858,21.858,0,0,0,5.109-.025,39.408,39.408,0,0,1,8.766.017,23.083,23.083,0,0,0,5.286-.024,41.581,41.581,0,0,1,8.595.006,24.145,24.145,0,0,0,5.462,0,64.856,64.856,0,0,1,8.6-.065,3.768,3.768,0,0,1,3.91,3.874c.014,1.838.462,3.768-.7,5.47a.48.48,0,0,0-.044.62c1.237,1.738.707,3.735.751,5.631.021.9.224,1.255,1.172,1.2a39.381,39.381,0,0,1,4.04,0c.927.045,1.2-.265,1.17-1.2-.07-2.224-.011-4.451-.027-6.677-.006-.842-.006-1.832.675-2.275,1.681-1.091,1.305-2.69,1.321-4.218.024-2.337.127-2.447,2.519-2.453,1.23,0,2.461.014,3.691,0,1.18-.017,1.721.543,1.679,1.718-.025.7.018,1.407-.008,2.108a2.339,2.339,0,0,0,.954,2.408,3.187,3.187,0,0,1,1.068,2.846c.007,2.281.05,4.563.078,6.845q.19.119.125.236c-.043.077-.085.116-.128.116,0,.834.646.505,1.022.513,1.64.037,3.283-.03,4.921.031a2.636,2.636,0,0,1,2.84,2.864c.026.761.034,1.525,0,2.285a2.654,2.654,0,0,1-2.785,2.745c-.292.016-.586,0-.879,0H410.959c-.989,0-2.065.186-2.422-1.147-.434-1.384.553-1.725,1.525-2.08a20.941,20.941,0,0,1,2.979-.088q36.24-.005,72.481-.007a11.1,11.1,0,0,0,2.613-.116c.577-.4.681-.792-.026-1.173a23.615,23.615,0,0,0-2.468-.072q-38.587,0-77.175,0a11.931,11.931,0,0,0-2.618.139c-.68.274-.684.812-.534,1.405.288.635,1.06,1.136.559,1.99a1.377,1.377,0,0,1-1.715,1.107,2.4,2.4,0,0,1-2.042-1.721,8.831,8.831,0,0,1-.018-4.34,2.489,2.489,0,0,1,2.359-1.8c.561-.066,1.175.211,1.681-.236C406.622-754.157,406.053-756.057,406.484-757.9Z" transform="translate(-4.099 1845.586)"/>
        <path id="Trazado_572459" data-name="Trazado 572459" d="M405.931-900.763a1.829,1.829,0,0,1-3.192.387c-1.1-1.131-1.116-5.064-.044-6.234.965-1.052,2.214-.843,3.427-.824.484-.5.235-1.115.238-1.67.025-4.042,0-8.085.026-12.127a2.052,2.052,0,0,1,.675-2.027c.015,5.208,0,10.035.007,14.025-.1-4.352.225-9.542-.179-14.729.332-.484.843-.324,1.286-.326,3.926-.012,7.852.031,11.777-.027,1.536-.023,2.071.621,2.055,2.105-.049,4.453.008,8.906-.036,13.359-.01.988.118,1.459,1.3,1.442,1.114-.016,1.361-.359,1.348-1.409-.055-4.335-.027-8.671-.02-13.007,0-2.261.222-2.468,2.541-2.47,3.691,0,7.384.048,11.074-.023,1.61-.031,2.172.595,2.147,2.181-.068,4.393,0,8.789-.042,13.183-.011,1.04.1,1.54,1.377,1.553,1.37.014,1.331-.661,1.325-1.618-.025-4.277-.014-8.554-.008-12.831,0-2.285.154-2.44,2.361-2.443,3.692-.006,7.385.056,11.074-.028,1.661-.037,2.31.529,2.279,2.23-.079,4.393.01,8.789-.049,13.182-.015,1.123.247,1.5,1.446,1.5,1.22,0,1.292-.533,1.27-1.482-.051-2.166-.005-4.335-.02-6.5-.006-.781-.017-1.713.588-2.133,1.585-1.1,1.392-2.646,1.383-4.209-.014-2.407.158-2.558,2.61-2.562,1.172,0,2.345.024,3.516-.006,1.261-.032,1.838.553,1.791,1.807-.026.7.046,1.41-.015,2.108a2.345,2.345,0,0,0,1,2.387,3.1,3.1,0,0,1,1,2.7c0,2.051.02,4.1-.006,6.152-.012.97-.157,1.75,1.359,1.752,1.636,0,1.244-.973,1.252-1.83q.029-2.988,0-5.976c-.006-.838-.042-1.83.615-2.3,1.673-1.206,1.481-2.883,1.382-4.529s.492-2.407,2.212-2.282c1.282.094,2.578.045,3.866.012,1.242-.033,1.868.491,1.817,1.771-.028.7.042,1.41-.014,2.108a2.356,2.356,0,0,0,.989,2.392,3.071,3.071,0,0,1,1.038,2.684c-.016,2.168.039,4.337-.022,6.5-.029.994.128,1.438,1.305,1.428,2.07-.018,2.934.975,2.97,3.045a19.909,19.909,0,0,1-.017,2.284,2.527,2.527,0,0,1-2.476,2.485,12.035,12.035,0,0,1-1.23.02q-38.585,0-77.17-.005c-1.013,0-2.205.3-2.559-1.175-.4-1.168.258-1.628,1.247-1.8a13.938,13.938,0,0,1,2.455-.073q36.811,0,73.621-.015c.847,0,1.773.279,2.5-.423.251-.8-.032-1.251-.868-1.34a8.208,8.208,0,0,0-.878-.027q-39.622-.005-79.244,0c-.919,0-1.989-.179-2.029,1.255C405.455-902.355,406.517-901.744,405.931-900.763Z" transform="translate(-4.141 1946.211)" fill="#010000"/>
        <path id="Trazado_572460" data-name="Trazado 572460" d="M406.346-844.226a4.661,4.661,0,0,1,4.794-2.531c2.1.113,4.242-.169,6.323.079a22.049,22.049,0,0,0,6.16.027,24.983,24.983,0,0,1,7.012-.011,21.747,21.747,0,0,0,5.992.007,48.158,48.158,0,0,1,7.2-.07,3.952,3.952,0,0,1,4.292,4.26q.065,5.538-.009,11.078c-.016,1.074.161,1.535,1.407,1.538,1.3,0,1.23-.658,1.221-1.537q-.039-3.692,0-7.385c.031-2.9,1.573-4.527,4.47-4.407,2.647.11,5.4-.72,7.934.712a.585.585,0,0,0,.485.026c2.588-1.476,5.432-.84,8.1-.66a27.626,27.626,0,0,0,6.156-.07c1.489-.228,3.047.039,4.564-.065a4.614,4.614,0,0,1,4.794,2.527c.41,2.177.072,4.375.176,6.561a20.444,20.444,0,0,0,.188,3.978c.032.049.058.133.1.14,4.047.726,4.677,1.587,4.1,5.643a2.557,2.557,0,0,1-2.079,2.292,1.387,1.387,0,0,1-1.854-1.1c-.5-.881.295-1.38.59-2.026.06-.584.221-1.2-.5-1.529a11.232,11.232,0,0,0-2.285-.09q-38.831-.006-77.661,0a8.306,8.306,0,0,0-2.437.14c-.642.524-.651,1.036.034,1.537a10.73,10.73,0,0,0,2.631.117q36.7.009,73.405.006a14.356,14.356,0,0,1,2.28.064c1,.16,1.67.6,1.3,1.78a1.456,1.456,0,0,1-1.7,1.166c-.351-.018-.7,0-1.055,0q-38.332,0-76.664.012c-1.647,0-3.255.02-3.913-1.883a5.394,5.394,0,0,1,1.649-5.951c.782-.37,1.678.148,2.448-.314l0,0c.412-3.938.069-7.889.195-11.832A5.025,5.025,0,0,1,406.346-844.226Z" transform="translate(-3.936 1896.039)" fill="#010000"/>
        <path id="Trazado_572461" data-name="Trazado 572461" d="M484.907-947.561a1.482,1.482,0,0,1-1.656,1.237c-.468,0-.937,0-1.406,0H405.573c-3.772,0-5.488-2.766-3.9-6.294a2.568,2.568,0,0,1,2.145-1.6,12.048,12.048,0,0,1,1.4-.024q41.211,0,82.422-.01c1.385,0,2.87-.075,3.473,1.43a6.267,6.267,0,0,1-.1,5.26c-.827,1.6-2.616,1.517-3.5,0-.323-.666.192-1.1.441-1.6.33-.75.471-1.432-.585-1.717-5.567-.089-11.127-.034-16.687-.033q-32.571,0-65.134.015c-1,.273-1.136.693-.207,1.289,1,.076,2,.054,2.994.054q36.092,0,72.183,0a12.585,12.585,0,0,1,2.8.128C484.28-949.206,485.12-948.814,484.907-947.561Z" transform="translate(-3.608 1965.6)" fill="#010101"/>
        <path id="Trazado_572462" data-name="Trazado 572462" d="M411.143-709.378c.074-.852-.606-1.205-1.109-1.675a2.574,2.574,0,0,0-.066-2.121c.428-.629,1.073-.315,1.6-.315q40.653-.028,81.306,0c.53,0,1.178-.318,1.6.321a1.748,1.748,0,0,0-.417.891c-.167.72-.709.858-1.338.87-.586.011-1.172.009-1.758.01q-37.62.011-75.235.011a.686.686,0,0,0-.689.409c-.681.326-1.26.73-1.234,1.6A4.011,4.011,0,0,0,411.143-709.378Z" transform="translate(-9.367 1809.635)" fill="#cd785e"/>
        <path id="Trazado_572463" data-name="Trazado 572463" d="M494.471-866.161c-.583.593-1.321.286-1.976.286q-38.084.028-76.166.017c-1.1,0-2.334-.218-2.517,1.418h-2.634c.043-.871-.744-1.171-1.178-1.713.451-2.12.451-2.123,2.816-2.123h79.01C494.054-868.272,494.054-868.272,494.471-866.161Z" transform="translate(-9.389 1909.891)" fill="#cc785e"/>
        <path id="Trazado_572464" data-name="Trazado 572464" d="M494.081-943.126a2.262,2.262,0,0,0-.813,1.385h-2.605c-.169-1.071-.843-1.428-1.865-1.41-1.755.031-3.511.008-5.266.008q-35.809,0-71.617-.018c-.646,0-1.394.336-1.951-.319a1.8,1.8,0,0,0,.421-.9,1.09,1.09,0,0,1,1.171-.852c.41-.016.82-.018,1.23-.018q39.458,0,78.916.006c1.065,0,2.382-.322,2.409,1.448A.884.884,0,0,1,494.081-943.126Z" transform="translate(-9.364 1959.78)" fill="#cd785e"/>
        <path id="Trazado_572465" data-name="Trazado 572465" d="M490.747-786.245a1.4,1.4,0,0,0-1.621-1.429c-.937.02-1.875,0-2.812,0q-37.09,0-74.18-.014c-.666,0-1.4.273-2.008-.251.659-.573,1.458-.339,2.2-.34q36.837-.019,73.673-.013a12.061,12.061,0,0,0,1.7-.03c-25.1.072-50.172.013-75.24.029a5.245,5.245,0,0,1-.527-.011c-.514-.051-1.2,0-1.174-.722.022-.649.676-.71,1.2-.778a12.276,12.276,0,0,1,1.58-.045q38.835,0,77.67.021c1.121,0,2.595-.5,3.009,1.289a1.759,1.759,0,0,0,.324.6c-.467.506-1.2.831-1.14,1.691A4.11,4.11,0,0,0,490.747-786.245Z" transform="translate(-9.47 1859.094)" fill="#cd785f"/>
        <path id="Trazado_572466" data-name="Trazado 572466" d="M414.658-923.29a4.412,4.412,0,0,1,.339,1.165c.023,4.972.015,9.943-.294,14.921v-14.639l-.386,0c0,4.376.014,8.753-.015,13.129,0,.657.314,1.428-.411,1.95.036-4.847.063-9.693.118-14.54C414.016-922.011,413.727-922.863,414.658-923.29Z" transform="translate(-11.909 1945.539)" fill="#030303"/>
        <path id="Trazado_572467" data-name="Trazado 572467" d="M607.2-755.757c1.894-.572,1.749-2.078,1.714-3.6-.052-2.282.1-2.363,2.457-1.736-.5,1.132-.035,2.318-.152,2.906a7.827,7.827,0,0,1,.149-2.91,5.56,5.56,0,0,1,.187,2.559c.031,1.123-.1,2.25,1.434,2.544.573.109.517.7.512,1.163q-.031,3.4-.073,6.792c-1.678.711-3.426.315-5.138.258-.822-.027-.808-.851-.817-1.5-.025-1.857.019-3.714-.026-5.57A3.9,3.9,0,0,0,607.2-755.757Z" transform="translate(-137.18 1840.647)" fill="#94d5a3"/>
        <path id="Trazado_572468" data-name="Trazado 572468" d="M541.721-761.136c1.486-.768,3.073-.231,4.609-.331,1.391-.09,2.793,0,4.19.022.763.013,1.563-.007,1.749,1.015a9.437,9.437,0,0,0-.019,3.859c-.271.964-1.085.944-1.828.95-2.671.024-5.343-.011-8.014.023-.924.012-1.472-.239-1.334-1.271.173-1.3-.382-2.65.3-3.908a1.64,1.64,0,0,0,1.516.592c1.452-.229,2.969.357,4.366-.346-1.775-.393-3.612.256-5.35-.4C541.842-761,541.782-761.069,541.721-761.136Z" transform="translate(-94.294 1840.733)" fill="#6b7986"/>
        <path id="Trazado_572469" data-name="Trazado 572469" d="M462.708-761.187c2.348-.671,4.741-.249,7.111-.251,3.515,0,3.528.052,3.509,3.6-.013,2.434.346,2.271-2.279,2.2-2.958-.08-5.931.355-8.874-.236,2.724-.377,5.463-.065,8.193-.161.664-.023,1.331,0,1.991-.072.221-.132-.089-.439.02-.231.047.09.026.155-.067.16a69.925,69.925,0,0,1-10.215-.039l-.015-3.521c.959-.79,2.1-.432,3.174-.5.922-.056,1.849.021,2.773-.044.233-.016-.057.034.149-.065.1-.048.03-.21-.126-.264-1.218-.08-2.419,0-3.618-.044C463.814-760.673,463.155-760.6,462.708-761.187Z" transform="translate(-43.139 1840.74)" fill="#6b7987"/>
        <path id="Trazado_572470" data-name="Trazado 572470" d="M502.3-761.162c3.092-.6,6.206-.149,9.31-.193.52-.007.716.533,1.046.84a17.291,17.291,0,0,1-.029,4.736l0-.006a74.645,74.645,0,0,1-10.928-.025,16.468,16.468,0,0,1-.035-4.612,23.8,23.8,0,0,0,5.771.191.18.18,0,0,0,.132-.1c.012-.045-.037-.106-.079-.156a28.7,28.7,0,0,0-3.471-.1C503.4-760.632,502.728-760.526,502.3-761.162Z" transform="translate(-68.695 1840.682)" fill="#6c7987"/>
        <path id="Trazado_572471" data-name="Trazado 572471" d="M542-737.28c2.961-.011,5.922-.012,8.882-.04,1.143-.011,1.779.541,1.773,1.652a15.842,15.842,0,0,1-.124,3.948,71.079,71.079,0,0,1-10.9.021l.006.006a13.313,13.313,0,0,1-.137-3.4c.377-.957,1.237-.951,2.051-1a31.7,31.7,0,0,0,3.8-.191,29.233,29.233,0,0,0-3.636-.207C543.069-736.535,542.267-736.36,542-737.28Z" transform="translate(-94.575 1825.027)" fill="#6b7987"/>
        <path id="Trazado_572472" data-name="Trazado 572472" d="M462.1-732.193q-.006-1.762-.013-3.523c.96-.784,2.1-.432,3.173-.5.921-.054,1.848.021,2.771-.044.233-.016-.057.034.149-.064.1-.049.035-.209-.12-.265-1.348-.081-2.679-.012-4.01-.038a2.637,2.637,0,0,1-1.963-.493c.258-.6.8-.358,1.214-.359,2.91-.01,5.82.046,8.73.01.951-.012,1.438.233,1.306,1.261-.188,1.461.377,2.979-.334,4.4-1.941-.5-3.916-.092-5.872-.22C465.459-732.132,463.769-731.812,462.1-732.193Z" transform="translate(-43.144 1825.159)" fill="#6b7987"/>
        <path id="Trazado_572473" data-name="Trazado 572473" d="M422.371-731.825c-.649-1.268-.222-2.609-.267-3.919,1.015-.8,2.212-.368,3.327-.5.928-.109,1.9.277,2.768-.253-1.758-.487-3.607.28-5.322-.472-.055-.072-.11-.145-.164-.217,1.856-.682,3.778-.154,5.664-.307.577-.046,1.162.021,1.744.029,3.237.046,3.241.045,3.231,3.339,0,.639-.044,1.277-.068,1.916-3.011.392-6.036.05-9.051.18C423.611-732,422.952-732.242,422.371-731.825Z" transform="translate(-17.169 1825.173)" fill="#6b7987"/>
        <path id="Trazado_572474" data-name="Trazado 572474" d="M422.68-761.209c1.969-.731,4.013-.329,6.009-.3,4.972.073,4.686-.841,4.62,4.9a2.429,2.429,0,0,1-.052.345,2.285,2.285,0,0,1-1.659.346c-2.954-.025-5.91.082-8.863-.065-1.342-1.077-.486-2.536-.662-3.815,1.011-.8,2.208-.363,3.319-.5.912-.114,1.877.3,2.722-.269a20.737,20.737,0,0,0-3.485-.127C423.947-760.744,423.211-760.586,422.68-761.209Z" transform="translate(-17.141 1840.79)" fill="#6b7987"/>
        <path id="Trazado_572475" data-name="Trazado 572475" d="M501.472-735.2c-.439-2.184-.417-2.221,1.657-2.217,2.8.005,5.591.052,8.386.023.894-.01,1.313.263,1.208,1.193-.165,1.471.333,2.988-.3,4.428-.255-.166-.543-.307-.541-.677.027-.754.023-1.509.007-2.265.008.444-.027.891.006,1.333.068.911-.371,1.255-1.242,1.254q-3.674-.007-7.347,0c-1.054,0-1.425-.519-1.441-1.521-.017-1.042.32-1.694,1.444-1.758,1.282-.073,2.566.015,3.841-.069a1.506,1.506,0,0,0,.757-.393.46.46,0,0,0-.242-.6,43.7,43.7,0,0,0-4.875-.071.989.989,0,0,0-.893.823A.924.924,0,0,1,501.472-735.2Z" transform="translate(-68.516 1825.09)" fill="#6b7987"/>
        <path id="Trazado_572476" data-name="Trazado 572476" d="M423.542-707.382l-.456-.417a4.308,4.308,0,0,1,2.073-.166q37.529-.016,75.057-.01a17.109,17.109,0,0,0,2.107-.046,1.2,1.2,0,0,1,.652.219c-.219.761-.86.472-1.319.472q-38.884.018-77.768,0A2.268,2.268,0,0,1,423.542-707.382Z" transform="translate(-17.869 1806.041)" fill="#dd8166"/>
        <path id="Trazado_572477" data-name="Trazado 572477" d="M541.985-737.256c1.581.615,3.23.085,4.832.295.645.084,1.782-.495,1.758.747-.021,1.067-1.069.591-1.681.652-1.731.172-3.5-.283-5.209.3a2.127,2.127,0,0,1-.023-1.968A.364.364,0,0,1,541.985-737.256Z" transform="translate(-94.558 1825.004)" fill="#8796a4"/>
        <path id="Trazado_572478" data-name="Trazado 572478" d="M469.107-736.348c.768,1.149.144,1.407-.9,1.4q-3.06-.007-6.121-.011.005-.526.011-1.053c1.7-.373,3.431-.064,5.143-.175A4.112,4.112,0,0,0,469.107-736.348Z" transform="translate(-43.144 1824.396)" fill="#8999a7"/>
        <path id="Trazado_572479" data-name="Trazado 572479" d="M429.514-736.124c.116,1.063-.579,1.081-1.34,1.072-1.988-.023-3.975-.021-5.963-.03a1.2,1.2,0,0,1,.609-1.442l.077.143C425.094-736.076,427.322-736.557,429.514-736.124Z" transform="translate(-17.276 1824.511)" fill="#8999a7"/>
        <path id="Trazado_572480" data-name="Trazado 572480" d="M469.007-760.292c.757,1.135.162,1.4-.887,1.4-2.04-.01-4.081-.01-6.122-.014-.066-.422-.121-.841.3-1.134C464.528-760.332,466.783-759.891,469.007-760.292Z" transform="translate(-43.055 1839.913)" fill="#8999a7"/>
        <path id="Trazado_572481" data-name="Trazado 572481" d="M429.5-759.75c.115,1.06-.576,1.085-1.34,1.075-1.989-.024-3.978-.023-5.967-.032-.048-.381-.137-.774.3-1.012A27.842,27.842,0,0,1,429.5-759.75Z" transform="translate(-17.266 1839.695)" fill="#8999a7"/>
        <path id="Trazado_572482" data-name="Trazado 572482" d="M549.043-760.009c.088.881-.395,1.087-1.172,1.077-1.695-.021-3.4-.074-5.083.053-1.133.086-.645-.669-.775-1.124l.349-.358.082.122C544.639-760,546.855-760.422,549.043-760.009Z" transform="translate(-94.936 1839.957)" fill="#8898a6"/>
        <path id="Trazado_572483" data-name="Trazado 572483" d="M508.847-733.46a.76.76,0,0,1-.709.347,18.975,18.975,0,0,1-4.686.141c-1.184-.018-1.126.642-1.132,1.448-.007.83,0,1.423,1.156,1.432a73.7,73.7,0,0,1,8.884.139l.354.358c-3.306.037-6.613.058-9.918.123-.829.016-1.157-.3-1.1-1.115s.047-1.623.067-2.434q.057-.415.115-.832C504.208-733.9,506.572-734.474,508.847-733.46Z" transform="translate(-68.803 1822.913)" fill="#748392"/>
        <path id="Trazado_572484" data-name="Trazado 572484" d="M509-759.86c0,.469.043,1.023-.611,1.03-1.9.022-3.807,0-5.709-.039-.371-.008-.562-.367-.732-.675a.591.591,0,0,1,.409-.58C504.559-759.8,506.8-760.3,509-759.86Z" transform="translate(-68.971 1839.805)" fill="#8999a6"/>
        <path id="Trazado_572485" data-name="Trazado 572485" d="M424.155-746.174c1.92-.6,3.889-.179,5.833-.266,1.56-.07,3.126-.014,4.689-.014-.009.241-.068.518-.337.515C430.944-745.98,427.537-745.541,424.155-746.174Z" transform="translate(-18.561 1830.978)" fill="#738190"/>
        <path id="Trazado_572486" data-name="Trazado 572486" d="M607.585-744.364c.727,1.849.3,3.778.3,5.66,0,1.42.465,1.849,1.815,1.745,1.273-.1,2.56-.021,3.841-.021v.354a23.167,23.167,0,0,1-6.008.02A39.817,39.817,0,0,1,607.585-744.364Z" transform="translate(-137.287 1829.592)" fill="#91d1a0"/>
        <path id="Trazado_572487" data-name="Trazado 572487" d="M541.952-721.388l10.9-.021A50.8,50.8,0,0,1,541.952-721.388Z" transform="translate(-94.896 1814.716)" fill="#667380"/>
        <path id="Trazado_572488" data-name="Trazado 572488" d="M423.04-722.057c.5-.6,1.19-.369,1.8-.373,3.037-.022,6.074-.01,9.11-.01-.084.472-.462.46-.8.459Q428.1-722.011,423.04-722.057Z" transform="translate(-17.838 1815.404)" fill="#748392"/>
        <path id="Trazado_572489" data-name="Trazado 572489" d="M502.045-745.374l10.928.025A46.378,46.378,0,0,1,502.045-745.374Z" transform="translate(-69.035 1830.246)" fill="#636f7c"/>
        <path id="Trazado_572490" data-name="Trazado 572490" d="M462.126-746.363H472.6v.342H462.2C462.177-746.135,462.152-746.249,462.126-746.363Z" transform="translate(-43.167 1830.887)" fill="#728190"/>
        <path id="Trazado_572491" data-name="Trazado 572491" d="M462.126-722.436c3.035,0,6.07-.013,9.1.008.613,0,1.3-.227,1.8.382-3.309.025-6.619.054-9.928.067C462.726-721.978,462.249-721.857,462.126-722.436Z" transform="translate(-43.167 1815.402)" fill="#738292"/>
        <path id="Trazado_572492" data-name="Trazado 572492" d="M630.174-737.847v-8.323h.167v8.323Z" transform="translate(-152.065 1830.763)" fill="#040404"/>
        <path id="Trazado_572493" data-name="Trazado 572493" d="M606.963-744.984q0,3.871-.009,7.743.3.192,0,.387c-.137-.078-.392-.153-.4-.236a39.756,39.756,0,0,1,.128-8.23Z" transform="translate(-136.665 1830.211)" fill="#9fe5af"/>
        <path id="Trazado_572494" data-name="Trazado 572494" d="M430.132-760.1l-7.007.031.308-.4C425.66-760.237,427.934-760.87,430.132-760.1Z" transform="translate(-17.894 1840.045)" fill="#8f9fad"/>
        <path id="Trazado_572495" data-name="Trazado 572495" d="M469.107-736.36c-2.3.776-4.675.131-7.006.341l-.011-.347Z" transform="translate(-43.144 1824.408)" fill="#8d9eac"/>
        <path id="Trazado_572496" data-name="Trazado 572496" d="M469.645-760.418c-2.215.646-4.467.28-6.707.247l.325-.316Z" transform="translate(-43.693 1840.039)" fill="#8f9fae"/>
        <path id="Trazado_572497" data-name="Trazado 572497" d="M509.75-760.156c-2.212-.144-4.448.323-6.643-.264a.242.242,0,0,1,.223-.161c1.6.026,3.21.037,4.814.086C508.691-760.478,509.307-760.7,509.75-760.156Z" transform="translate(-69.724 1840.101)" fill="#90a0af"/>
        <path id="Trazado_572498" data-name="Trazado 572498" d="M639.9-718.9h-5.721v-.176h5.868Z" transform="translate(-154.658 1813.204)" fill="#050505"/>
        <path id="Trazado_572499" data-name="Trazado 572499" d="M582.117-719.109h5.455l.006.129h-5.457Z" transform="translate(-120.924 1813.226)" fill="#050505"/>
        <path id="Trazado_572500" data-name="Trazado 572500" d="M607.959-721.988q0-.194,0-.387l5.964,0c-.309.918-1.081.448-1.618.466C610.858-721.867,609.407-721.954,607.959-721.988Z" transform="translate(-137.669 1815.345)" fill="#a0e6b0"/>
        <path id="Trazado_572501" data-name="Trazado 572501" d="M541.3-737.141q.011.985.023,1.969-.031,1.8-.063,3.6A9.863,9.863,0,0,1,541.3-737.141Z" transform="translate(-94.203 1824.911)" fill="#667380"/>
        <path id="Trazado_572502" data-name="Trazado 572502" d="M533.079-754q.014-2.367.029-4.735A8.49,8.49,0,0,1,533.079-754Z" transform="translate(-89.146 1838.906)" fill="#636f7c"/>
        <path id="Trazado_572503" data-name="Trazado 572503" d="M416.356-729.376v-3.741A7.47,7.47,0,0,1,416.356-729.376Z" transform="translate(-13.507 1822.303)" fill="#040404"/>
        <path id="Trazado_572504" data-name="Trazado 572504" d="M572.183-754.5a4.737,4.737,0,0,1,.019-3.858A12.422,12.422,0,0,1,572.183-754.5Z" transform="translate(-114.227 1838.658)" fill="#738290"/>
        <path id="Trazado_572505" data-name="Trazado 572505" d="M409.767-712.448a1.577,1.577,0,0,1,.066,2.121A4.052,4.052,0,0,1,409.767-712.448Z" transform="translate(-9.167 1808.909)" fill="#dd8165"/>
        <path id="Trazado_572506" data-name="Trazado 572506" d="M648.969-710.66l-.392,0a1.36,1.36,0,0,1-.007-1.4l.4-.369Q648.97-711.546,648.969-710.66Z" transform="translate(-163.862 1808.898)" fill="#db8064"/>
        <path id="Trazado_572507" data-name="Trazado 572507" d="M536.241-916.333c.619.57.281,1.307.289,1.954.039,3.5-.025,7.011.043,10.515.022,1.161-.206,1.659-1.508,1.606-2.566-.1-5.14-.045-7.711-.022-.775.007-1.322-.011-1.31-1.073.048-4.147.015-8.3.01-12.444,0-.246.049-.454.3-.554a2.977,2.977,0,0,1,.36.507,2.18,2.18,0,0,1,.136.6c.15,2.7-.175,5.414.19,8.1a4.98,4.98,0,0,0,4.905,0c.592-2.064.114-4.166.268-6.24.064-.856-.175-1.755.36-2.545C533.752-916.49,535.067-915.779,536.241-916.333Z" transform="translate(-84.587 1941.043)" fill="#fdb444"/>
        <path id="Trazado_572508" data-name="Trazado 572508" d="M432.049-915.6c.03,4.215.041,8.43.1,12.644.014.913-.416,1.046-1.178,1.037-2.578-.029-5.158-.079-7.732.019-1.263.048-1.675-.381-1.526-1.582.093-.751.073-1.515.1-2.274,1.19-.895,2.576-.532,3.874-.522,1.433.012,1.949-.553,1.931-1.959-.029-2.2-.117-4.4.068-6.6a2,2,0,0,1,.212-.586.729.729,0,0,1,.5-.33A14.52,14.52,0,0,1,432.049-915.6Z" transform="translate(-16.963 1940.686)" fill="#fdb445"/>
        <path id="Trazado_572509" data-name="Trazado 572509" d="M494.3-866.619c-.25-1.721-1.414-1.793-2.853-1.792q-39.382.052-78.764,0c-1.46,0-2.577.126-2.853,1.8-.223-2.369-.223-2.372,2.005-2.372H492.3C494.549-868.984,494.549-868.982,494.3-866.619Z" transform="translate(-9.215 1910.348)" fill="#d98064"/>
        <path id="Trazado_572510" data-name="Trazado 572510" d="M474.17-906.135q0-4.75,0-9.5a23.639,23.639,0,0,1,6.4.022c.772,1.793.34,3.677.368,5.515.069,4.509.022,4.515-4.446,4.46C475.694-905.648,474.843-905.5,474.17-906.135Z" transform="translate(-50.972 1940.713)" fill="#fece5d"/>
        <path id="Trazado_572511" data-name="Trazado 572511" d="M583.143-912.558c.1.21.155.549.315.611,2.448.948,1.763,3.045,1.741,4.839-.019,1.555.711,3.624-.337,4.52-.894.765-2.9.266-4.412.258-.546,0-1.173.277-1.646-.262a.725.725,0,0,1,.566-.544,1.942,1.942,0,0,1,.524.16c1.367.455,2.811-.045,3.549.139a28.989,28.989,0,0,1-3.258-.051,1.644,1.644,0,0,1-1.1-1.784c.018-1.8-.1-3.608.083-5.406a2.021,2.021,0,0,0,0-1c1.2-.349,1.5-1.177,1.493-2.367,0-.97-.437-2.032.3-2.938a1.155,1.155,0,0,0,.613.347,1.2,1.2,0,0,1,1.157,1.405c-.014.571-.017,1.143.018,1.711C582.8-912.713,582.9-912.559,583.143-912.558Z" transform="translate(-118.777 1941.066)" fill="#94d5a3"/>
        <path id="Trazado_572512" data-name="Trazado 572512" d="M620.573-910.981A2.009,2.009,0,0,0,622.1-913.3c-.03-.977-.358-2.024.255-2.96a.674.674,0,0,1,.17.518c-.031.987.076,1.979-.037,2.967a20.186,20.186,0,0,1,.2-3.187,2.433,2.433,0,0,1,1.4-.044c.435,1.034.083,2.111.2,3.164-.015.235.353-.1.148.018a12.667,12.667,0,0,1-.131-2.915.668.668,0,0,1,.169-.514c.62,1.023.227,2.142.245,3.207a1.849,1.849,0,0,0,1.326,1.99c.761,2.564.214,5.184.322,7.777.017.4-.312.6-.68.683a4.185,4.185,0,0,1-.523.048c-4.73.448-4.742.448-4.722-4.245A21.163,21.163,0,0,1,620.573-910.981Z" transform="translate(-145.729 1940.98)" fill="#94d5a3"/>
        <path id="Trazado_572513" data-name="Trazado 572513" d="M428.4-915.015c0,2.668-.038,5.336.026,8,.027,1.127-.339,1.56-1.489,1.507-1.62-.075-3.247-.017-4.871-.016l0-.349c.408-2.315.07-4.649.188-6.971a6.526,6.526,0,0,1,.149-2.253A12.034,12.034,0,0,1,428.4-915.015Z" transform="translate(-17.208 1940.448)" fill="#fece5d"/>
        <path id="Trazado_572514" data-name="Trazado 572514" d="M474.167-906.792c1.58,0,3.164-.069,4.738.024,1.266.075,1.606-.434,1.574-1.626-.071-2.631-.024-5.265-.025-7.9q-.286-.211.012-.406c4.093-.378,4.137-.377,4.08,3.565-.049,3.41.241,6.827-.172,10.231-.394.12-.561-.141-.718-.422-.393-3.2-.078-6.423-.177-9.634a14.033,14.033,0,0,0-.026-1.579c-.173-1.188-.74-1.37-1.891-.639-.387,2.2-.089,4.406-.183,6.6-.1,2.227-.472,2.655-2.677,2.686a14.33,14.33,0,0,1-3.983-.182,1.892,1.892,0,0,1-.553-.374Z" transform="translate(-50.969 1941.369)" fill="#febf4a"/>
        <path id="Trazado_572515" data-name="Trazado 572515" d="M619.849-901.4c.988.367-.1.742-.026,1.172a18.52,18.52,0,0,1,.047,2.978c0,4.257.378,4.565,4.659,3.954.634-.09.964-.311.963-.967a40.751,40.751,0,0,1,.1-5.957c.092-.63-1.513-.646-.287-1.248.787.1.629.723.633,1.215.015,2.161-.018,4.322.019,6.483.014.794-.2,1.093-1.069,1.147-5.5.34-5.537.363-5.46-5.127C619.448-898.956,618.875-900.283,619.849-901.4Z" transform="translate(-145.005 1931.396)" fill="#95d6a4"/>
        <path id="Trazado_572516" data-name="Trazado 572516" d="M474.165-905.615l.311,0c.457,2.25,2.061,2.449,3.946,2.28,1.105-.1,2.225-.012,3.339-.03a1.155,1.155,0,0,0,1.29-1.3c.032-2.871.023-5.742,0-8.613-.012-1.566-1.6-1.1-2.245-1.833,2.582-.935,3.165-.573,3.165,1.971q0,5.345,0,10.69a3.247,3.247,0,0,1-2.366.333c-2.48-.136-4.991.423-7.442-.331Q474.166-904.031,474.165-905.615Z" transform="translate(-50.969 1940.543)" fill="#fab143"/>
        <path id="Trazado_572517" data-name="Trazado 572517" d="M474.138-878.272l9.808,0,.4.374c-3.089.644-6.213.111-9.317.275C474.6-877.6,474.017-877.485,474.138-878.272Z" transform="translate(-50.94 1916.368)" fill="#feba47"/>
        <path id="Trazado_572518" data-name="Trazado 572518" d="M578.8-901.314l.755.369c-.726.4-.5,1.093-.53,1.7-.1,2.011.2,4.033-.168,6.037l-.42.38a64.346,64.346,0,0,1-.148-7.867A.6.6,0,0,1,578.8-901.314Z" transform="translate(-118.411 1931.298)" fill="#9de2ad"/>
        <path id="Trazado_572519" data-name="Trazado 572519" d="M468.395-906.085V-921.54l.211,0v15.517Z" transform="translate(-47.229 1944.405)" fill="#040404"/>
        <path id="Trazado_572520" data-name="Trazado 572520" d="M527.044-915.623l-.01-.366c1.428-.371,2.883-.051,4.32-.174.556-.047,1.161.227,1.665-.221h.336q.3.2,0,.4c0,2.62.01,5.241-.008,7.861,0,.56.184,1.181-.34,1.641-.072-.072-.143-.144-.216-.215-.647-2-.238-4.068-.316-6.1-.084-2.181-.112-2.248-2.3-2.286a8.869,8.869,0,0,1-2.62-.187A2.4,2.4,0,0,1,527.044-915.623Z" transform="translate(-85.229 1941.063)" fill="#f9ca5b"/>
        <path id="Trazado_572521" data-name="Trazado 572521" d="M643.389-902.056v8.675l-.176,0v-8.629Z" transform="translate(-160.515 1931.779)" fill="#030303"/>
        <path id="Trazado_572522" data-name="Trazado 572522" d="M422.222-915.084c0,2.5.01,5.006-.008,7.508,0,.559.185,1.181-.348,1.636-.156-3.165-.146-6.331,0-9.5a.337.337,0,0,1,.419-.054A.3.3,0,0,1,422.222-915.084Z" transform="translate(-17.004 1940.517)" fill="#fed660"/>
        <path id="Trazado_572523" data-name="Trazado 572523" d="M602.367-901.008v8.278l-.176,0v-8.324Z" transform="translate(-133.932 1931.131)" fill="#040404"/>
        <path id="Trazado_572524" data-name="Trazado 572524" d="M480.473-916.606c0,.135-.007.271-.011.406h-6.284c.028-.653.54-.5.9-.5C476.876-916.683,478.674-916.639,480.473-916.606Z" transform="translate(-50.977 1941.277)" fill="#fede63"/>
        <path id="Trazado_572525" data-name="Trazado 572525" d="M422.425-916.193l-.361,0c.037-.649.545-.5.912-.5,1.81.016,3.619.061,5.429.1q.273.2,0,.406l-.008-.005A21.257,21.257,0,0,1,422.425-916.193Z" transform="translate(-17.206 1941.275)" fill="#fede64"/>
        <path id="Trazado_572526" data-name="Trazado 572526" d="M532.957-916.632c-1.945.885-4,.181-5.985.395q-.016-.192-.033-.383A32.254,32.254,0,0,1,532.957-916.632Z" transform="translate(-85.167 1941.312)" fill="#fede63"/>
        <path id="Trazado_572527" data-name="Trazado 572527" d="M578.122-916.914v-3.966l.174-.007v4.031Z" transform="translate(-118.335 1943.982)" fill="#050505"/>
        <path id="Trazado_572528" data-name="Trazado 572528" d="M440.085-916.321q0-.2,0-.406c1.3.089,2.691-.682,3.887.4Z" transform="translate(-28.881 1941.404)" fill="#fec34a"/>
        <path id="Trazado_572529" data-name="Trazado 572529" d="M590.023-912.023l-.406.442c-.391-1.152-.051-2.344-.19-3.51a.508.508,0,0,1,.295-.47C590.517-914.441,589.977-913.207,590.023-912.023Z" transform="translate(-125.657 1940.53)" fill="#9fe5af"/>
        <path id="Trazado_572530" data-name="Trazado 572530" d="M544.993-916.232q0-.2,0-.4a10.635,10.635,0,0,1,3.528.029C547.41-915.843,546.165-916.394,544.993-916.232Z" transform="translate(-96.866 1941.308)" fill="#fec34a"/>
        <path id="Trazado_572531" data-name="Trazado 572531" d="M628.058-916.543q-.031.162-.054.325c-.084.2-.184.2-.3.023H626.3c-.118.184-.219.166-.306-.025q-.018-.166-.047-.33A3.457,3.457,0,0,1,628.058-916.543Z" transform="translate(-149.327 1941.276)" fill="#a2e9b2"/>
        <path id="Trazado_572532" data-name="Trazado 572532" d="M585.31-916.213l-.369-.407c.645-.029,1.344-.4,1.877.291l-.113.12A1.388,1.388,0,0,1,585.31-916.213Z" transform="translate(-122.753 1941.299)" fill="#9ee4ae"/>
        <path id="Trazado_572533" data-name="Trazado 572533" d="M422.788-838.971c2.874-.674,5.778-.276,8.665-.171.877.032,1.124.894,1.123,1.729,0,3.738-.021,7.476.014,11.214.008.92-.344,1.231-1.237,1.22-2.687-.033-5.374-.039-8.06,0-.9.014-1.284-.269-1.218-1.2.071-.988.05-1.982.068-2.974,1.2-.894,2.582-.437,3.885-.515,1.875-.112,2.2-.3,2.162-2.13-.046-2.073.387-4.179-.336-6.209-.639-.755-1.512-.422-2.292-.488a6.459,6.459,0,0,1-2.571-.274C422.922-838.834,422.855-838.9,422.788-838.971Z" transform="translate(-17.208 1891.147)" fill="#446da1"/>
        <path id="Trazado_572534" data-name="Trazado 572534" d="M469.011-838.308c.869.348.711,1.117.712,1.8.011,3.57-.02,7.141.023,10.711.012.984-.151,1.5-1.319,1.469-2.632-.076-5.267-.028-7.9-.022-.69,0-1.294-.03-1.288-.981.026-4.036.027-8.073.047-12.11,0-.1.118-.195.18-.292.752.612.5,1.476.559,2.258.169,2.2-.323,4.422.273,6.59a14.308,14.308,0,0,1,2.789-.168c2.062-.032,2.185-.145,2.214-2.159.023-1.567-.007-3.135.012-4.7a3.766,3.766,0,0,1,.366-2.03C466.719-838.722,467.9-838.179,469.011-838.308Z" transform="translate(-41.296 1890.512)" fill="#456da1"/>
        <path id="Trazado_572535" data-name="Trazado 572535" d="M506.819-838.334c.716.224.758.815.755,1.415q-.026,5.97-.064,11.94c-.966.632-2.047.3-3.075.334-1.809.053-3.622-.017-5.431.025-1.128.026-1.617-.406-1.507-1.552.1-1.035-.392-2.3,1.383-2.466,1.3-.124,2.7.454,3.881-.517.672-1.624.193-3.32.328-4.974.1-1.255-.224-2.552.383-3.756C504.488-838.772,505.71-838.129,506.819-838.334Z" transform="translate(-66.079 1890.509)" fill="#456ea1"/>
        <path id="Trazado_572536" data-name="Trazado 572536" d="M581.671-828.971c2.287-.692,4.612-.21,6.915-.161.794.017,1.081.792,1.081,1.571,0,2.689-.021,5.378.014,8.067.011.8-.336.991-1.053.983-2.221-.026-4.443-.03-6.664,0-.738.011-1.071-.208-1.024-.992.062-1.048.046-2.1.063-3.151.455-.14.568.3.827.489a19.091,19.091,0,0,0,2.262.039c.638-.052.274-.318.39-.114.044.077,0,.141-.109.119-.917-.18-1.929.369-2.773-.362.478-.817,1.312-.649,2.034-.684a1.228,1.228,0,0,0,1.359-1.415c-.007-1.165,0-2.33.043-3.487-.318-.745-.973-.349-1.476-.417C582.906-828.575,582.2-828.4,581.671-828.971Z" transform="translate(-120.157 1884.658)" fill="#d1cbbd"/>
        <path id="Trazado_572537" data-name="Trazado 572537" d="M428.444-837.925c.7,2.765.259,5.571.27,8.358,0,.8-.586,1.18-1.447,1.155-1.695-.048-3.392-.025-5.088-.032q-.027-4.092-.055-8.184c0-.646-.019-1.3.7-1.637l.088.107C424.75-837.919,426.615-838.355,428.444-837.925Z" transform="translate(-17.245 1890.441)" fill="#5b86bc"/>
        <path id="Trazado_572538" data-name="Trazado 572538" d="M621.307-827.976c.792,1.42.318,2.956.334,4.427.02,1.838.836,4.3-.349,5.345-1.034.912-3.44.294-5.24.306-3.069.021-3.1.006-3.087-3.112.013-2.251-.351-4.518.2-6.753.824.656.47,1.59.575,2.418.122.949-.282,1.943.258,2.843,1-.061,2.027.188,2.957-.364.674-.88.256-1.894.36-2.839.092-.835-.179-1.742.516-2.451a5.05,5.05,0,0,1,3.137.075c.434,2.775.044,5.575.224,8.358-.089-2.655-.02-5.31-.015-7.965Z" transform="translate(-140.846 1884.029)" fill="#d1cbbe"/>
        <path id="Trazado_572539" data-name="Trazado 572539" d="M503.412-838.027l-.015,9.492a26.59,26.59,0,0,1-5.978.077c-.378-2.314-.062-4.646-.177-6.966a5.861,5.861,0,0,0-.158-2.244.748.748,0,0,1,.662-.751l.286.025a42.017,42.017,0,0,1,5.168.167Z" transform="translate(-65.821 1890.541)" fill="#5b86bc"/>
        <path id="Trazado_572540" data-name="Trazado 572540" d="M549.692-828.962c2.263-.63,4.556-.146,6.834-.16a.891.891,0,0,1,.9.888c-.362,2.322-.06,4.659-.17,6.987A5.685,5.685,0,0,1,557.09-819a22.108,22.108,0,0,1-8.077-.094q-.008-1.759-.015-3.518a3.3,3.3,0,0,1,2.467-.526c1.063,0,1.63-.4,1.573-1.526a16.774,16.774,0,0,0-.146-3.262c-.787-1.095-2.139-.14-3.031-.836Z" transform="translate(-99.462 1884.623)" fill="#d2ccbe"/>
        <path id="Trazado_572541" data-name="Trazado 572541" d="M410.04-791.019c.452-.581,1.088-.288,1.626-.289q40.6-.026,81.2,0c.538,0,1.173-.3,1.624.289-.188.24-.323.555-.72.5a2.688,2.688,0,0,0-.638-.125q-40.867-.037-81.728,0a2.634,2.634,0,0,0-.631.124C410.374-790.457,410.234-790.778,410.04-791.019Z" transform="translate(-9.415 1860.06)" fill="#cd785f"/>
        <path id="Trazado_572542" data-name="Trazado 572542" d="M409.783-790.35l.377.358c.062,1.38,1.034,1.242,1.989,1.241q37.536-.014,75.073,0a4.395,4.395,0,0,1,2.075.162c-.418.686-1.085.321-1.617.322q-38.933.036-77.865.029A3.693,3.693,0,0,1,409.783-790.35Z" transform="translate(-9.158 1859.392)" fill="#d98064"/>
        <path id="Trazado_572543" data-name="Trazado 572543" d="M581.554-821.382l-.636-.346c.108-1.989-.491-4.017.32-5.969a10.3,10.3,0,0,1,4.232,0c0,1.4-.077,2.812.018,4.21.091,1.337-.292,1.958-1.743,1.816a2.661,2.661,0,0,0-2.19.287Z" transform="translate(-120.074 1883.733)" fill="#fdf7e9"/>
        <path id="Trazado_572544" data-name="Trazado 572544" d="M553.454-828c0,1.563-.026,3.128.027,4.689.032.96-.308,1.379-1.3,1.326-1.1-.059-2.2-.027-3.3-.034-.021-1.659-.045-3.317-.062-4.976-.006-.6.076-1.153.756-1.376a.135.135,0,0,0,.083.159C550.919-828.021,552.208-828.39,553.454-828Z" transform="translate(-99.347 1884.025)" fill="#fdf7e9"/>
        <path id="Trazado_572545" data-name="Trazado 572545" d="M497.1-810.585l5.979,0c-1.429.765-2.967.307-4.444.317-1.277.008-1.551.486-1.57,1.655-.02,1.256.433,1.606,1.634,1.575,2.744-.072,5.491-.022,8.236-.022-.1.981-.869.584-1.349.592-2.447.042-4.9-.058-7.34.05-1.359.059-1.769-.432-1.621-1.7.094-.805.056-1.626.076-2.44Q496.887-810.875,497.1-810.585Z" transform="translate(-65.505 1872.595)" fill="#4974ab"/>
        <path id="Trazado_572546" data-name="Trazado 572546" d="M549.027-800.6h8.085q.191-.295.38,0c.048.331-.05.575-.423.576q-3.808.009-7.617,0C549.073-800.022,548.993-800.275,549.027-800.6Z" transform="translate(-99.476 1866.128)" fill="#ded8c9"/>
        <ellipse id="Elipse_7096" data-name="Elipse 7096" cx="0.096" cy="8.597" rx="0.096" ry="8.597" transform="translate(402.849 1050.742)" fill="#040404"/>
        <path id="Trazado_572547" data-name="Trazado 572547" d="M507.78-838.934c-.989.677-2.1.192-3.149.339H504.6c-1.826-.455-3.7.036-5.533-.269l-.1-.124A29.24,29.24,0,0,1,507.78-838.934Z" transform="translate(-67.041 1891.109)" fill="#4974aa"/>
        <path id="Trazado_572548" data-name="Trazado 572548" d="M470.7-838.906c-1,.629-2.1.168-3.149.312a4.393,4.393,0,0,1-.9.134c-1.6-.216-3.3.539-4.8-.532A28.4,28.4,0,0,1,470.7-838.906Z" transform="translate(-42.989 1891.109)" fill="#4974aa"/>
        <path id="Trazado_572549" data-name="Trazado 572549" d="M622.83-828.628l-3.18-.007a4.487,4.487,0,0,1-.862.13c-1.042-.12-2.19.364-3.1-.539,2.505-.235,5.025-.732,7.45.431l-.048.026Q622.931-828.4,622.83-828.628Z" transform="translate(-142.682 1884.666)" fill="#d9d3c4"/>
        <path id="Trazado_572550" data-name="Trazado 572550" d="M460.266-828.254c-.75-.248-.3-.858-.316-1.261-.075-2.659-.076-5.32-.1-7.982.051-.242.146-.449.419-.508a1.4,1.4,0,0,1,.38.549,54.712,54.712,0,0,1,.13,7.944A1.914,1.914,0,0,1,460.266-828.254Z" transform="translate(-41.679 1890.272)" fill="#5f8cc3"/>
        <path id="Trazado_572551" data-name="Trazado 572551" d="M643.206-816.358V-825l.137,0v8.644Z" transform="translate(-160.51 1881.849)" fill="#040404"/>
        <path id="Trazado_572552" data-name="Trazado 572552" d="M572.337-817.156h-.381c0-2.5-.015-5,0-7.5,0-.56-.182-1.177.326-1.644A64.432,64.432,0,0,1,572.337-817.156Z" transform="translate(-114.32 1882.686)" fill="#e2dbcc"/>
        <path id="Trazado_572553" data-name="Trazado 572553" d="M497.106-827.149l-.4.02a77.252,77.252,0,0,1,.067-9.157c.709,1.432.233,2.955.314,4.433C497.173-830.29,497.106-828.718,497.106-827.149Z" transform="translate(-65.508 1889.159)" fill="#6290ca"/>
        <path id="Trazado_572554" data-name="Trazado 572554" d="M614.173-821.349c-.792-1.108-.157-2.353-.328-3.524a22.014,22.014,0,0,1-.111-2.24.2.2,0,0,1,.158-.231.407.407,0,0,1,.517.213,15.11,15.11,0,0,1,.1,5.256A3.035,3.035,0,0,1,614.173-821.349Z" transform="translate(-141.411 1883.38)" fill="#fefef4"/>
        <path id="Trazado_572555" data-name="Trazado 572555" d="M461.085-838.056q0-.114-.012-.226a.274.274,0,0,1,.274-.15l5.3.093a.464.464,0,0,1-.308.558C464.565-837.391,462.789-837.085,461.085-838.056Z" transform="translate(-42.485 1890.55)" fill="#618ec7"/>
        <path id="Trazado_572556" data-name="Trazado 572556" d="M586.268-827.952l-4.233,0c.006-.227.142-.325.349-.35C583.666-828.049,585.028-828.674,586.268-827.952Z" transform="translate(-120.871 1883.993)" fill="#fbfaf4"/>
        <path id="Trazado_572557" data-name="Trazado 572557" d="M614.43-828.036q-.122-.007-.244-.025c.042-.31.277-.374.53-.414l3.551.15C617.08-827.006,615.757-827.5,614.43-828.036Z" transform="translate(-141.705 1884.097)" fill="#f8f8f1"/>
        <path id="Trazado_572558" data-name="Trazado 572558" d="M648.558-789.991l.37-.357a4.007,4.007,0,0,1-.012,2.115l-.17-.006-.17,0A1.967,1.967,0,0,1,648.558-789.991Z" transform="translate(-163.851 1859.39)" fill="#df8266"/>
        <path id="Trazado_572559" data-name="Trazado 572559" d="M410.957-946.637c.642-.03,1.283-.087,1.925-.087q39.884-.007,79.769.013c.709,0,1.527-.349,2.13.367a.651.651,0,0,1-.594.28q-40.646-.026-81.293-.009c-.585,0-1.17.029-1.755-.018A.341.341,0,0,1,410.957-946.637Z" transform="translate(-9.961 1960.771)" fill="#dd8166"/>
        <path id="Trazado_572560" data-name="Trazado 572560" d="M409.335-934.093h79.588v.174H409.269Z" transform="translate(-8.915 1952.54)" fill="#050505"/>
        <path id="Trazado_572561" data-name="Trazado 572561" d="M410.125-946.345v.391a1.371,1.371,0,0,1,0,1.407l-.4.368C409.746-944.922,409.238-945.761,410.125-946.345Z" transform="translate(-9.129 1960.479)" fill="#db8064"/>
        <path id="Trazado_572562" data-name="Trazado 572562" d="M648.57-943.284l-.008-.37a2.066,2.066,0,0,1-.006-1.748l.117-.108C649.192-944.743,649.382-943.99,648.57-943.284Z" transform="translate(-163.854 1959.938)" fill="#dc8165"/>
        <path id="Trazado_572563" data-name="Trazado 572563" d="M502.576-711.384q0,.7.007,1.4h-79.5c.641-.632,1.448-.34,2.175-.341q37.516-.025,75.032-.007C501.24-710.325,502.189-710.222,502.576-711.384Z" transform="translate(-17.869 1808.22)" fill="#c9765d"/>
        <ellipse id="Elipse_7097" data-name="Elipse 7097" cx="55.091" cy="0.089" rx="55.091" ry="0.089" transform="translate(389.909 1043.469)" fill="#d47d62"/>
        <path id="Trazado_572564" data-name="Trazado 572564" d="M494.8-945.223q0,.874.006,1.748c-.354-1.157-1.115-1.436-2.316-1.434q-39.553.06-79.108.024c-.948,0-1.9-.1-2.285,1.059q0-.7,0-1.407Z" transform="translate(-10.096 1959.759)" fill="#c9765d"/>
        <path id="Trazado_572565" data-name="Trazado 572565" d="M494.76-789.7q.009.878.019,1.754c-.376-1.126-1.116-1.437-2.323-1.435q-39.559.062-79.118.036a3.29,3.29,0,0,0-1.843.261c.688.724,1.479.422,2.148.423q37.186.027,74.371.029c.728,0,1.534-.289,2.178.337q-38.617,0-77.233,0c-.989,0-2.133.231-1.9-1.407l.347,0a3.255,3.255,0,0,1,1.722-.164q39.784-.012,79.567,0a3.257,3.257,0,0,1,1.722.164Z" transform="translate(-10.053 1859.102)" fill="#ca775d"/>
        <path id="Trazado_572566" data-name="Trazado 572566" d="M618.33-760.483v3.8c-.209-1.27-.76-2.557,0-3.793Z" transform="translate(-144.139 1840.037)" fill="#9ee3ae"/>
        <path id="Trazado_572567" data-name="Trazado 572567" d="M549.837-760.114c-2.2-.143-4.415.3-6.6-.229C545.442-760.394,547.66-760.833,549.837-760.114Z" transform="translate(-95.729 1840.063)" fill="#90a0ae"/>
        <path id="Trazado_572568" data-name="Trazado 572568" d="M430.848-736.155c-2.2-.141-4.43.314-6.617-.257C426.44-736.413,428.668-736.906,430.848-736.155Z" transform="translate(-18.61 1824.542)" fill="#8e9eac"/>
        <path id="Trazado_572569" data-name="Trazado 572569" d="M513.177-729.969c-2.906,0-5.814-.057-8.718.031-1.331.04-1.506-.568-1.511-1.678s.289-1.6,1.475-1.533c1.507.082,3.021.02,4.532.021-1.37.729-2.841.246-4.261.323-.912.05-1.387.232-1.388,1.273,0,1.075.533,1.24,1.422,1.226,2.1-.034,4.2-.1,6.287.019,1.493.086,2-.463,1.825-1.887a3.074,3.074,0,0,1,.337-1.907Z" transform="translate(-69.621 1822.928)" fill="#697684"/>
        <path id="Trazado_572570" data-name="Trazado 572570" d="M509.182-734.958c-2.32-.22-4.689.43-6.975-.395a.9.9,0,0,1,.641-1.016c1.473.386,2.974.074,4.458.181.623.045,1.269-.16,1.866.167Q509.178-735.49,509.182-734.958Z" transform="translate(-69.138 1824.41)" fill="#8999a7"/>
        <path id="Trazado_572571" data-name="Trazado 572571" d="M510.362-736.132c-2.1-.2-4.253.423-6.325-.348C506.142-736.305,508.29-736.908,510.362-736.132Z" transform="translate(-70.326 1824.521)" fill="#8d9eac"/>
        <path id="Trazado_572572" data-name="Trazado 572572" d="M527.062-914.237c.112-.005.224-.008.335-.008a2.017,2.017,0,0,1,.533,1.45c-.068,2.5.373,5.022-.294,7.5a.411.411,0,0,1-.569.185Z" transform="translate(-85.247 1939.678)" fill="#fed45f"/>
        <path id="Trazado_572573" data-name="Trazado 572573" d="M527.076-889.478c.109.006.219.008.329.008a6.409,6.409,0,0,1,5.626,0l0,0A10.642,10.642,0,0,1,527.076-889.478Z" transform="translate(-85.256 1924.045)" fill="#f9ca5b"/>
        <path id="Trazado_572574" data-name="Trazado 572574" d="M423.087-915.247l5.976,0q0,.177,0,.355h-5.975Q423.085-915.072,423.087-915.247Z" transform="translate(-17.868 1940.33)" fill="#f9ca5a"/>
        <path id="Trazado_572575" data-name="Trazado 572575" d="M579.949-892.527c0-2.076-.019-4.152,0-6.228.006-.581-.263-1.344.693-1.511-.366,2.6-1,5.216.351,7.74a.482.482,0,0,1-.7,0Z" transform="translate(-119.502 1930.619)" fill="#91d1a0"/>
        <path id="Trazado_572576" data-name="Trazado 572576" d="M580.981-878.275l.7,0h4.174C584.226-878.1,582.584-877.557,580.981-878.275Z" transform="translate(-120.188 1916.369)" fill="#99dda9"/>
        <path id="Trazado_572577" data-name="Trazado 572577" d="M585.99-915.231l1.394,0q0,1.93.009,3.86c-.6-.57-.39-1.322-.322-1.966A1.733,1.733,0,0,0,585.99-915.231Z" transform="translate(-123.434 1940.316)" fill="#91d1a0"/>
        <path id="Trazado_572578" data-name="Trazado 572578" d="M626.081-915.316a2.109,2.109,0,0,0,.306.025v3.44h-.306Z" transform="translate(-149.413 1940.372)" fill="#9addaa"/>
        <path id="Trazado_572579" data-name="Trazado 572579" d="M630.944-915.286a2.063,2.063,0,0,0,.3-.023q0,1.72,0,3.441l-.3.012Z" transform="translate(-152.564 1940.367)" fill="#9bdfab"/>
        <path id="Trazado_572580" data-name="Trazado 572580" d="M481.382-914.363a4.477,4.477,0,0,0,.7-.005c1.657-.268,2.235.366,2.154,2.081-.138,2.907-.079,5.826-.018,8.738.024,1.131-.337,1.569-1.495,1.515-1.628-.076-3.263-.007-4.894-.021-3.15-.027-2.738.374-2.777-2.809,1.682,0,3.364-.039,5.044.012.994.03,1.314-.377,1.3-1.335C481.355-908.913,481.381-911.639,481.382-914.363Z" transform="translate(-51.542 1939.796)" fill="#feb445"/>
        <path id="Trazado_572581" data-name="Trazado 572581" d="M533.637-905.132h-5.626q0-4.571,0-9.142c1.448,0,2.9.04,4.344-.013.994-.036,1.313.379,1.3,1.335C533.612-910.345,533.638-907.739,533.637-905.132Z" transform="translate(-85.862 1939.706)" fill="#fece5c"/>
        <path id="Trazado_572582" data-name="Trazado 572582" d="M429.9-838c-1.842-.136-3.707.276-5.532-.234C426.212-838.254,428.076-838.672,429.9-838Z" transform="translate(-18.696 1890.517)" fill="#618ec7"/>
        <path id="Trazado_572583" data-name="Trazado 572583" d="M461.083-837.884c1.853-.118,3.736.353,5.562-.283l.4.305c0,2.666-.045,5.333.012,8,.024,1.1-.3,1.586-1.47,1.524-1.5-.079-3.013-.019-4.52-.019Q461.077-833.121,461.083-837.884Z" transform="translate(-42.483 1890.378)" fill="#5c86bc"/>
        <path id="Trazado_572584" data-name="Trazado 572584" d="M582.935-809.354h3.423c-1.147.2-2.307.738-3.425,0Z" transform="translate(-121.452 1871.708)" fill="#cec8ba"/>
        <path id="Trazado_572585" data-name="Trazado 572585" d="M614.968-821.045l-.007-.372a14.817,14.817,0,0,0,.155-4.141c.006-.94.227-1.319,1.258-1.332,2.628-.035,2.653-.089,2.615,2.553a10.349,10.349,0,0,1-.159,3.273Z" transform="translate(-142.207 1883.076)" fill="#fdf8ea"/>
        <path id="Trazado_572586" data-name="Trazado 572586" d="M618.777-821.81c0-1.284-.078-2.574.02-3.851.1-1.349-.313-1.86-1.746-1.821-1.3.035-1.906.282-1.836,1.752.056,1.176.407,2.436-.307,3.568q-.014-2.8-.028-5.6c1.272-.193,2.594.284,3.837-.289l.406.259C618.916-825.8,619.517-823.767,618.777-821.81Z" transform="translate(-142.155 1883.821)" fill="#faf4e6"/>
        <path id="Trazado_572587" data-name="Trazado 572587" d="M635.97-827.293a.809.809,0,0,1,.266.041q0,4.335,0,8.668l-.265,0Z" transform="translate(-155.821 1883.331)" fill="#d6d0c2"/>
        <path id="Trazado_572588" data-name="Trazado 572588" d="M499.245-838.266c1.846.049,3.718-.413,5.533.269C502.937-838.151,501.064-837.668,499.245-838.266Z" transform="translate(-67.221 1890.512)" fill="#608ec7"/>
        <path id="Trazado_572589" data-name="Trazado 572589" d="M551.247-809.049h3.378l0,.175h-3.406Z" transform="translate(-100.9 1871.509)" fill="#cec8ba"/>
        <path id="Trazado_572590" data-name="Trazado 572590" d="M555-827.949c-1.263-.107-2.549.23-3.793-.21C552.477-828.193,553.765-828.547,555-827.949Z" transform="translate(-100.894 1883.98)" fill="#fefef8"/>
        <path id="Trazado_572591" data-name="Trazado 572591" d="M495.105-790.042H412.1c.524-.563,1.209-.337,1.826-.337q39.68-.017,79.359,0C493.9-790.379,494.582-790.6,495.105-790.042Z" transform="translate(-10.746 1859.439)" fill="#d47d62"/>
      </g>
    </g>
  </g>
</svg>
