<svg xmlns="http://www.w3.org/2000/svg" width="141" height="141" viewBox="0 0 141 141">
  <g id="Grupo_844224" data-name="Grupo 844224" transform="translate(-240.085 -1286.827)">
    <rect id="Rectángulo_38178" data-name="Rectángulo 38178" width="141" height="141" transform="translate(240.085 1286.827)" fill="none"/>
    <g id="Grupo_844228" data-name="Grupo 844228" transform="translate(67.274 1669.789)">
      <path id="Trazado_580239" data-name="Trazado 580239" d="M254.351-339.268c.476,2.675.138,5.372.2,8.059s.014,5.4.014,8.1c0,2.271,1.213,3.112,3.378,2.414.906-.293.5-.981.507-1.472.036-5,.011-10,.035-15.006,0-.7-.239-1.452.265-2.1,1.081.313.553,1.206.559,1.8.047,5.293.03,10.587.026,15.576.067.566.459.157.233.294-.077.046-.131.009-.135-.113-.193-5.578-.035-11.158-.085-16.737-.011-1.16.779-1.2,1.607-1.208,3.094-.018,6.188,0,9.282-.009,3.159-.013,6.319.046,9.478-.034a1.088,1.088,0,0,1,.738.043c.83.572.473,1.44.478,2.172.034,5.065.117,10.134-.03,15.195-.059,2.048,1.168,1.528,2.257,1.6,1.23.087,2.028.052,2-1.675-.119-6.51-.052-13.024-.044-19.537,0-2.4.179-2.566,2.6-2.577,1.382-.006,2.764.038,4.144-.011,1.535-.055,2.118.657,2.075,2.152-.061,2.1-.015,4.21-.015,6.315q0,40.162,0,80.323c0,2.955-.061,3.016-2.966,3.022-1.25,0-2.5-.023-3.75.008a2.111,2.111,0,0,1-2.053-.887c-.459-.917.559-2.359-1.027-2.874a12.246,12.246,0,0,0-2.362-.1q-38.431-.005-76.862,0a11.178,11.178,0,0,0-2.353.114c-1.6.487-.44,2.021-1.087,2.87a1.773,1.773,0,0,0-.352.052c-.561-.6-.206-1.32-.226-1.989.011.667-.4,1.39.239,1.975-.5,1.128-1.51.835-2.383.827-6.986-.062-5.93.886-5.946-5.9-.027-11.621.038-23.241.065-34.862.776-.178.735-1.272,1.567-1.393a2.015,2.015,0,0,1,1.628,1.859c.128,11.211.019,22.42.062,33.629a10.28,10.28,0,0,0,.143,2.73c1.251,1.181,1.82.457,2.2-.8a13.311,13.311,0,0,0,.071-1.978q.005-39.2,0-78.407a12.565,12.565,0,0,0-.077-1.965c-.389-1.26-.973-1.958-2.213-.757a10.051,10.051,0,0,0-.127,2.562q-.011,17.369-.008,34.738a15.356,15.356,0,0,1-.1,2.758,1.526,1.526,0,0,1-.371.658c-1.2.019-.461-.915-.676-1.38q0-19.451,0-38.9-.015,19.392-.01,38.783c.1,1.3-.106,2.321-1.811,1.949-.708-.477-.338-1.2-.339-1.785q-.036-20.373-.017-40.747c0-2.433.154-2.7,2.563-2.55,1.932.119,4.039-.8,5.778.783-.475.5-.272,1.093-.268,1.678.039,6.669.011,13.337.02,17.093-.038-3.885.083-10.684-.047-17.482a1.9,1.9,0,0,1,.283-1.3c.59.211.466.73.465,1.161q-.019,10.824-.059,21.648a5.631,5.631,0,0,0,4.262.038c-.011-5.757-.03-11.513-.025-17.27,0-.551-.191-1.207.484-1.569a1.084,1.084,0,0,1,.738-.042c6.053.082,12.106.006,18.158.039,2.2.012,2.208.026,2.211,2.186q.009,7.3-.006,14.6c0,.421.152.888.017,1.059,0-.8,0-1.815,0-2.83,0-4.342-.018-8.684.023-13.026.005-.545-.46-1.372.564-1.6.5.644.262,1.4.265,2.1.023,4.936.105,9.875-.038,14.806-.05,1.715.716,1.737,1.965,1.7,1.153-.039,2.094.157,2.041-1.647-.143-4.932-.056-9.871-.042-14.806a4.336,4.336,0,0,1,.205-2.134c.431.019.526.309.527.665.019,5.715.006,11.43.01,16.429.063-1.347,0-3.415.006-5.481.013-3.487.032-6.975-.013-10.461-.014-1.089.368-1.558,1.468-1.557,5.987,0,11.975.02,17.963-.01,1.437-.007,1.535.781,1.529,1.9q-.043,8.18.006,16.36c-.037-5.726-.006-11.453,0-17.18C253.826-338.955,253.922-339.244,254.351-339.268Z" transform="translate(0 -13.839)"/>
      <path id="Trazado_580240" data-name="Trazado 580240" d="M196.874-293.827l.1-.113-.049-.143a.371.371,0,0,1,.279-.33.5.5,0,0,0,.387-.536c-.192-12.413-.047-24.813-.087-37.212a5.587,5.587,0,0,1,.119-1.566c.266-.929.8-1.334,1.755-.814a3.812,3.812,0,0,1,.43,2.478q.016,39.385,0,78.771a4.129,4.129,0,0,1-.391,2.491c-1.067.663-1.587.133-1.816-.88a10.621,10.621,0,0,1-.1-2.352c-.011-10.81.014-21.621-.017-32.423a1.082,1.082,0,0,0-.274-.757.935.935,0,0,1-.3-.383c-.436-.5-.685-1.292-1.607-1.049a.266.266,0,0,1-.389-.074c1.356-1.1.534-2.629.778-3.948C195.82-293.328,196.317-293.608,196.874-293.827Z" transform="translate(-1.346 -19.783)" fill="#b6d3e1"/>
      <path id="Trazado_580241" data-name="Trazado 580241" d="M314.981-332.232c-.567.617-.33,1.378-.332,2.077-.019,5.318-.01,10.637-.01,16.055-.634-.433-.38-.953-.382-1.377-.021-5-.057-10,.014-15,.02-1.4-.446-1.805-1.812-1.79-5.591.063-11.185.076-16.775-.006-1.542-.023-2.047.4-2.02,1.991.092,5.378.035,10.758-.36,16.141,0-3.891.066-7.783-.026-11.672-.051-2.138.431-4.313-.318-6.418a.747.747,0,0,1,.751-.735q10.263.345,20.524,0A.756.756,0,0,1,314.981-332.232Z" transform="translate(-60.63 -20.875)" fill="#040404"/>
      <path id="Trazado_580242" data-name="Trazado 580242" d="M249.188-332.267c-.637.586-.38,1.357-.383,2.049-.021,4.733,0,9.467-.022,14.2a3.362,3.362,0,0,1-.384,2.232c0-5.391.011-10.435,0-15.479-.01-3.328.355-2.991-2.907-3-5.194-.012-10.388.006-15.582-.014-.7,0-1.461.24-2.061-.365a4.483,4.483,0,0,1,2.307-.2c6.08-.113,12.163.184,18.241-.166A.741.741,0,0,1,249.188-332.267Z" transform="translate(-21.257 -20.847)" fill="#030303"/>
      <path id="Trazado_580243" data-name="Trazado 580243" d="M381.138-332.643c-.6.6-1.365.363-2.061.365-5.326.019-10.651.01-15.976.011-2.514,0-2.515,0-2.516,2.607q0,6.8,0,13.608v1.926l-.4-.006c0-4.77.037-9.541-.024-14.311-.016-1.272.417-2.617-.37-3.824a.742.742,0,0,1,.8-.744c5.094.357,10.2.035,15.293.168C377.636-332.8,379.4-333.1,381.138-332.643Z" transform="translate(-101.045 -20.847)" fill="#030303"/>
      <path id="Trazado_580244" data-name="Trazado 580244" d="M247.839-333.312c-.612.572-1.371.335-2.066.338-6.16.025-12.321.023-18.481.03a3.463,3.463,0,0,0-.363-.012.745.745,0,0,1,.773-.478C234.415-333.426,241.129-333.675,247.839-333.312Z" transform="translate(-20.703 -20.545)" fill="#010101"/>
      <path id="Trazado_580245" data-name="Trazado 580245" d="M382.358-332.945c-6.16-.006-12.32-.006-18.48-.03-.695,0-1.454.237-2.066-.338,6.709-.362,13.423-.114,20.134-.121a.742.742,0,0,1,.772.477A3.352,3.352,0,0,0,382.358-332.945Z" transform="translate(-102.265 -20.545)" fill="#010101"/>
      <path id="Trazado_580246" data-name="Trazado 580246" d="M315.384-333.326a1.626,1.626,0,0,1-1.293.328H296.152a1.61,1.61,0,0,1-1.292-.329c5.149-.417,10.306-.1,15.458-.168A20.9,20.9,0,0,1,315.384-333.326Z" transform="translate(-61.78 -20.512)"/>
      <path id="Trazado_580247" data-name="Trazado 580247" d="M196.194-233.219c0,.783-.743.816-1.179,1.159a1.489,1.489,0,0,1-1.223-.746c.653-.417,1.814-.319,1.618-1.6q.2-.273.395,0C195.817-233.97,195.743-233.508,196.194-233.219Z" transform="translate(-0.665 -80.391)" fill="#020303"/>
      <path id="Trazado_580248" data-name="Trazado 580248" d="M219.249-284.511a3.855,3.855,0,0,1-4.262-.038A13.5,13.5,0,0,0,219.249-284.511Z" transform="translate(-13.482 -50.151)" fill="#020303"/>
      <path id="Trazado_580249" data-name="Trazado 580249" d="M193.793-218.28l.389.074c.511,1.239-.429,1.065-1.112,1.142C192.975-217.669,193.474-217.921,193.793-218.28Z" transform="translate(-0.222 -90.223)" fill="#020203"/>
      <path id="Trazado_580250" data-name="Trazado 580250" d="M227.345-265.767c.6,1.3,1.794.877,2.775.878q33.172.031,66.344.032c.684,0,1.437-.3,2.069.247-.2,1.225-1.152.609-1.724.61q-17.671.055-35.343.028-14.611,0-29.222-.009a13.784,13.784,0,0,1-2.492.007c.153-.017.754.013,1.354.013q32.283,0,64.565,0c2.233,0,2.237,0,2.237,2.244q0,15.027.006,30.053c.007-10.692,0-21.384.2-32.079.852.563.572,1.319.574,1.98.021,9.806.011,19.612.021,29.417a5.737,5.737,0,0,0,.14,2.151l1.245.853c.931,1.5.778,3.054-.38,3.87a1.856,1.856,0,0,0-.924,1.818,22.789,22.789,0,0,1-.016,2.755c-.066.721.476,1.826-.426,2.084a7.618,7.618,0,0,1-3.308.015c-.751-.132-.385-1-.388-1.532-.027-5.119-.077-10.24.015-15.358.034-1.9-.644-2.574-2.525-2.511-3.147.107-6.3-.03-9.45.058-1.244.035-1.539-.367-1.524-1.561.063-5.119.039-10.239.01-15.358,0-.675.307-1.457-.4-2.01a15,15,0,0,0-4.309-.2c-5.781.1-11.57-.3-17.346.217-.6.593-.4,1.357-.4,2.058-.015,4.87-.055,9.741.019,14.61.023,1.526-.062,2.355-2.036,2.3-1.8-.055-1.958-.731-1.933-2.211.082-4.737.038-9.476.022-14.215,0-.715-.108-1.429-.167-2.144a1.326,1.326,0,0,1-.758-.806c-.573-.488-1.26-.263-1.892-.264-5.519-.019-11.038-.013-16.557-.01-2.947,0-3.066.123-3.067,3.153,0,4.927-.041,9.855.025,14.781.017,1.265-.289,1.71-1.631,1.663-3.018-.106-6.043-.018-9.065-.041a2.3,2.3,0,0,0-2.248.889c-.323,5.519-.121,11.042-.1,16.562.005,1.627-.581,2.033-2.069,2.024-1.43-.009-1.945-.467-1.94-1.954.047-13.885.027-27.771.031-41.657,0-.481-.08-1,.518-1.383.259,14.073.258,28.128.263,42.184q.009-19.94.008-39.88c0-2.818-.3-2.559,2.511-2.558a5.529,5.529,0,0,1,1.379-.02c-.961.009-2.177,0-3.393,0-.477,0-1.12.216-1.123-.642,1.629-.556,3.309-.219,4.961-.228a3.173,3.173,0,0,0,2.565-.988A2.868,2.868,0,0,1,227.345-265.767Z" transform="translate(-13.681 -60.901)" fill="#f7f9fa"/>
      <path id="Trazado_580251" data-name="Trazado 580251" d="M227.1-271.408c-1.422-.966-2.862-.686-4.306-.06.108-1.348-.637-1.9-1.865-1.937-1.246-.034-2.493-.008-3.74-.009-2.516,0-2.6-.126-1.893-2.684.2.07-.007.615.382.388a3.477,3.477,0,0,1,1.921-.2q39.2-.018,78.395,0a4.46,4.46,0,0,1,1.949.157c.71,1.547-.122,1.816-1.434,1.811-5.129-.021-10.258-.009-15.388-.009q-25.252,0-50.5-.015c-.589,0-1.271.292-1.777-.207.192.566.731.214,1.079.214q33.144.03,66.287.03a3.632,3.632,0,0,1,2.116.2c-.682.611-1.509.309-2.262.31q-33.24.028-66.48.007C228.158-273.424,226.821-273.442,227.1-271.408Z" transform="translate(-13.437 -55.26)" fill="#4b7687"/>
      <path id="Trazado_580252" data-name="Trazado 580252" d="M428.8-268.015c.861-1.218.358-2.57.38-3.871,1.641-.2,1.633-1.377,1.632-2.631q-.023-18.356-.009-36.712,0-11.842,0-23.685c0-2.452.136-2.54,2.717-1.817a1.943,1.943,0,0,1-.665.372c-1.627-.15-1.522.931-1.522,2.043q.021,28.731.006,57.462a13,13,0,0,1-.029,2.138,5.2,5.2,0,0,0,.039-1.242q.007-29.324.006-58.647a3.412,3.412,0,0,1,.124-1.366c1-.5,1.493-.106,1.614.916a11.736,11.736,0,0,1,.031,1.38q0,39.668,0,79.336c0,.724-.064,1.446-.031,2.162a3.035,3.035,0,0,0,.43.778c-2.532.75-2.723.63-2.724-1.752,0-4.242-.028-8.483.015-12.725C430.833-267.316,430.372-268.147,428.8-268.015Z" transform="translate(-142.772 -18.358)" fill="#b6d3e1"/>
      <path id="Trazado_580253" data-name="Trazado 580253" d="M366.735-313.475c-.026-3.8,0-7.6-.1-11.4-.042-1.605,1.022-1.164,1.845-1.188.867-.026,1.871-.32,1.792,1.244-.11,2.158-.06,4.327-.017,6.49.039,1.92,1.023,2.5,2.619,1.484a3.5,3.5,0,0,1,4.039-.036c1.727,1.038,2.641.489,2.7-1.594.068-2.42.091-4.841.133-7.262.26-.038-.081-.049.181-.077,3.162-.338,3.162-.338,3.162,2.736,0,2.751-.048,5.5.022,8.252.031,1.21-.366,1.911-1.6,1.949-4.452.138-8.9.123-13.357.005A1.991,1.991,0,0,1,366.735-313.475Z" transform="translate(-105.179 -25.023)" fill="#fdc53a"/>
      <path id="Trazado_580254" data-name="Trazado 580254" d="M236.718-325.74c.042,2.355.08,4.71.128,7.066.047,2.331.883,2.834,2.871,1.692a3.443,3.443,0,0,1,3.869.132c1.6,1.007,2.583.437,2.622-1.482.044-2.163.093-4.332-.016-6.49-.079-1.563.924-1.27,1.792-1.244.821.024,1.887-.417,1.845,1.188-.1,3.8-.077,7.6-.1,11.4a3.145,3.145,0,0,1-2.394.659c-3.8.027-7.6.049-11.4-.006-2.39-.035-2.555-.244-2.557-2.595q0-4.126,0-8.253c0-2.306,0-2.3,2.392-2.245A1.857,1.857,0,0,1,236.718-325.74Z" transform="translate(-24.6 -25.023)" fill="#fdc53a"/>
      <path id="Trazado_580255" data-name="Trazado 580255" d="M366.941-186.841c.857-.725,1.858-.254,2.784-.292.942-.038.656.8.663,1.323.029,2.094-.014,4.189.02,6.283.034,2.068.952,2.61,2.689,1.548a3.486,3.486,0,0,1,4.029.053c1.6,1,2.551.435,2.641-1.5.116-2.477-.187-4.964.157-7.438a1.757,1.757,0,0,1,.557-.168c2.762-.138,2.762-.14,2.762,2.655,0,2.949-.057,5.9.027,8.848.035,1.238-.443,1.623-1.588,1.61-4.26-.048-8.522.016-12.783-.04a2.675,2.675,0,0,1-2.006-.639q0-5.927,0-11.853a6.2,6.2,0,0,1,2.4-.171C368.684-186.887,367.735-186.382,366.941-186.841Z" transform="translate(-105.337 -108.987)" fill="#fdc53a"/>
      <path id="Trazado_580256" data-name="Trazado 580256" d="M249.675-186.43q0,5.927,0,11.853a2.911,2.911,0,0,1-2.2.646c-4.13.042-8.26-.033-12.389.045-1.344.025-1.834-.424-1.788-1.819.1-3.012.029-6.029.03-9.044,0-2.328,0-2.326,2.369-2.268a1.8,1.8,0,0,1,.951.175c.05,2.414.088,4.828.154,7.242.06,2.191.938,2.7,2.807,1.59a3.433,3.433,0,0,1,3.863.051c1.741,1.06,2.654.521,2.692-1.547a44.659,44.659,0,0,0-.034-5.494c-.2-1.925.607-2.418,2.288-2.145.412.067.933-.242,1.213.324-.806.423-1.741.031-2.567.326-.243.142.187.289.028.079A3.572,3.572,0,0,1,249.675-186.43Z" transform="translate(-24.551 -109.008)" fill="#fdc53a"/>
      <path id="Trazado_580257" data-name="Trazado 580257" d="M300.031-325.5c.618-1.662,1.97-.562,2.947-.689.867-.113.55.861.559,1.373.039,2.1-.024,4.207.029,6.308.049,1.919,1.027,2.461,2.659,1.449a3.5,3.5,0,0,1,4.045,0c1.634,1.009,2.609.467,2.659-1.454.053-2.1-.01-4.206.029-6.308.009-.512-.3-1.486.563-1.369.975.131,2.331-.979,2.943.694a100.393,100.393,0,0,0-.079,10.209c.032,1.669-.626,2.248-2.142,2.259q-6,.044-12,0c-1.52-.011-2.17-.6-2.137-2.263A100.63,100.63,0,0,0,300.031-325.5Z" transform="translate(-64.907 -24.823)" fill="#fdc63a"/>
      <path id="Trazado_580258" data-name="Trazado 580258" d="M274.9-227.63c3.893,1.455,3.893,1.455,3.892-2.827q0-1.578,0-3.156c0-2.847,0-2.847,2.822-2.658.561.672.37,1.481.387,2.242.079,3.368-.131,6.739.124,10.105-.473.97-1.407.871-2.228.883q-5.81.084-11.621,0c-.91-.011-1.88,0-2.39-1.009-.023-3.676.021-7.355-.1-11.028-.056-1.745,1.093-1.2,1.961-1.278.978-.084,1.788-.1,1.686,1.356-.133,1.9-.038,3.807-.03,5.711.01,2.743.74,3.158,3.16,1.829a2.907,2.907,0,0,1,.747-.18A2.613,2.613,0,0,0,274.9-227.63Z" transform="translate(-44.201 -79.276)" fill="#fdc63a"/>
      <path id="Trazado_580259" data-name="Trazado 580259" d="M300.028-186.532c.67-1.568,1.99-.566,2.975-.652.844-.074.522.888.531,1.4.04,2.1-.026,4.2.03,6.295.051,1.913,1.028,2.446,2.663,1.432a3.484,3.484,0,0,1,4.036,0c1.634,1.013,2.611.478,2.662-1.437.055-2.1-.009-4.2.03-6.295.01-.515-.312-1.478.535-1.4.984.091,2.308-.921,2.972.657a99.814,99.814,0,0,0-.08,10.208c.032,1.669-.626,2.248-2.142,2.259q-6,.044-11.995,0c-1.52-.011-2.17-.6-2.138-2.263A99.937,99.937,0,0,0,300.028-186.532Z" transform="translate(-64.905 -108.883)" fill="#fdc53a"/>
      <path id="Trazado_580260" data-name="Trazado 580260" d="M332.728-223.672c-.027-3.814,0-7.63-.111-11.442-.048-1.58.95-1.246,1.8-1.229.826.017,1.919-.415,1.836,1.2-.1,1.969-.035,3.947-.018,5.921.008.894-.19,1.828.835,2.441s1.49-.323,2.192-.616a5.226,5.226,0,0,1,.552-.166,9.654,9.654,0,0,0,1.962-.051c1.306.365,2.655,2.047,3.876-.129.629-1.734.111-3.528.276-5.287.1-1.078-.2-2.18.193-3.241H348.5c.561.675.368,1.486.387,2.251.08,3.379-.133,6.761.119,10.139-.393.787-1.159.819-1.865.832-4.2.081-8.4.066-12.6.011A2.444,2.444,0,0,1,332.728-223.672Z" transform="translate(-84.609 -79.276)" fill="#fdc63a"/>
      <path id="Trazado_580261" data-name="Trazado 580261" d="M299.906-185.171c.693,3.044.186,6.127.292,9.191.091,2.638.021,2.641,2.7,2.641,3.748,0,7.5-.059,11.244.03,1.449.034,1.984-.376,1.924-1.881-.109-2.691-.043-5.39-.022-8.086,0-.637-.2-1.326.3-1.891.021,4.857.025,9.714.079,14.57.01.912-.238,1.268-1.207,1.26q-7.091-.06-14.183,0c-.974.008-1.214-.357-1.2-1.264C299.881-175.457,299.885-180.314,299.906-185.171Z" transform="translate(-64.783 -110.243)" fill="#fea63d"/>
      <path id="Trazado_580262" data-name="Trazado 580262" d="M299.907-324.081c.69,3.044.185,6.128.291,9.191.091,2.637.021,2.64,2.7,2.641,3.748,0,7.5-.058,11.243.03,1.449.034,1.985-.374,1.924-1.88-.109-2.691-.043-5.39-.022-8.085,0-.638-.2-1.326.3-1.892.022,4.852.025,9.7.081,14.554.011.923-.259,1.255-1.216,1.247q-7.084-.059-14.168,0c-.962.008-1.222-.333-1.211-1.252C299.882-314.378,299.885-319.229,299.907-324.081Z" transform="translate(-64.782 -26.246)" fill="#fda63d"/>
      <path id="Trazado_580263" data-name="Trazado 580263" d="M236.47-325.943a7.776,7.776,0,0,1-1.183.008c-1.558-.221-2.067.407-2,1.978.12,2.758.11,5.527,0,8.286-.058,1.522.364,2.067,1.974,2.032,4.735-.1,9.473-.039,14.21-.04.253,3.959.253,3.959-3.688,3.959-3.672,0-7.346-.083-11.014.039-1.544.051-1.84-.478-1.809-1.892.088-4.063.022-8.129.019-12.194C232.984-326.6,233.482-326.914,236.47-325.943Z" transform="translate(-24.352 -24.819)" fill="#fda63d"/>
      <path id="Trazado_580264" data-name="Trazado 580264" d="M366.74-313.561c4.737,0,9.475-.065,14.21.04,1.61.036,2.043-.51,1.973-2.032-.11-2.363-.021-4.735-.031-7.1-.015-3.789.288-3.041-3.145-3.168.845-.765,1.852-.237,2.777-.319.775-.068.705.6.7,1.119,0,4.786-.025,9.572,0,14.357.005.913-.416,1.078-1.2,1.074-4.721-.02-9.442-.031-14.163.009-.94.008-1.3-.285-1.221-1.23C366.729-311.726,366.714-312.646,366.74-313.561Z" transform="translate(-105.183 -24.937)" fill="#fda63d"/>
      <path id="Trazado_580265" data-name="Trazado 580265" d="M366.741-174.558c4.979,0,9.959-.066,14.934.062,1.229.032,1.236-.421,1.229-1.3-.024-2.947-.111-5.9.03-8.841.083-1.729-.43-2.46-2.182-2.174a5.5,5.5,0,0,1-.981-.012c.661-.65,1.48-.2,2.218-.313.926-.144,1.268.256,1.259,1.214q-.062,7.109-.017,14.219c0,.855-.3,1.146-1.145,1.142-4.74-.026-9.481-.034-14.221.007-.959.008-1.293-.314-1.214-1.247C366.729-172.715,366.715-173.638,366.741-174.558Z" transform="translate(-105.185 -109.027)" fill="#fda63d"/>
      <path id="Trazado_580266" data-name="Trazado 580266" d="M236.457-186.969a7.423,7.423,0,0,1-1.178.012c-1.567-.227-2.039.432-1.979,1.978.113,2.943.07,5.895.013,8.841-.021,1.087.082,1.529,1.436,1.492,4.909-.134,9.825-.056,14.738-.058.251,3.988.251,3.988-3.693,3.988-3.753,0-7.507-.045-11.258.025-1.208.023-1.574-.335-1.555-1.552.066-4.146.017-8.294.014-12.442C232.994-187.621,233.355-187.858,236.457-186.969Z" transform="translate(-24.362 -108.88)" fill="#fda63d"/>
      <path id="Trazado_580267" data-name="Trazado 580267" d="M202.684-252.161q0-41.876,0-83.752c-.459-.4-1-.084-1.5-.178a.932.932,0,0,1-.559-.547.333.333,0,0,1,.159-.441c.867.48,2.5-.823,2.717,1.17a4.281,4.281,0,0,1,.159,1.943q.012,39.929,0,79.858a4.286,4.286,0,0,1-.159,1.943c-.213,2.014-1.854.707-2.732,1.174a.347.347,0,0,1-.144-.449.941.941,0,0,1,.557-.544C201.679-252.077,202.224-251.758,202.684-252.161Z" transform="translate(-4.779 -18.387)" fill="#bcd9e8"/>
      <path id="Trazado_580268" data-name="Trazado 580268" d="M332.677-223.43c4.705,0,9.41.016,14.115-.011.674,0,1.459.31,2-.421a86.75,86.75,0,0,1,.059-12.122c.7.868.285,1.877.3,2.808.051,4-.039,8.007.04,12.009.026,1.327-.411,1.662-1.681,1.641-4.331-.07-8.665-.1-12.994.01-1.552.038-2.167-.4-1.928-1.954A18.131,18.131,0,0,0,332.677-223.43Z" transform="translate(-84.559 -79.518)" fill="#fca53d"/>
      <path id="Trazado_580269" data-name="Trazado 580269" d="M298.3-137.105c.665,2.53.58,2.664-1.784,2.664q-39.7,0-79.4,0c-2.364,0-2.449-.135-1.784-2.664a1.818,1.818,0,0,1,.5,1.21c.073.716.446.36.77.217a12.054,12.054,0,0,1,2.955-.178q37.282-.007,74.565,0a11.575,11.575,0,0,1,2.935.176c.221-.046.473.643.675-.009C297.883-136.177,297.872-136.726,298.3-137.105Z" transform="translate(-13.472 -139.308)" fill="#4e7b8c"/>
      <path id="Trazado_580270" data-name="Trazado 580270" d="M349.15-179.086c0-2.23.089-4.463-.027-6.687-.1-1.889,1.2-1.264,2.111-1.329.966-.07,1.908-.273,1.869,1.373-.11,4.653-.1,9.311-.009,13.965.034,1.8-1.178,1.169-1.99,1.189-.849.021-2.056.528-1.98-1.233C349.228-174.23,349.15-176.66,349.15-179.086Z" transform="translate(-94.589 -109.046)" fill="#f4f6f7"/>
      <path id="Trazado_580271" data-name="Trazado 580271" d="M286.4-178.942c0,2.36-.078,4.724.026,7.08.078,1.762-1.133,1.252-1.981,1.232-.813-.019-2.022.61-1.989-1.19.087-4.72.075-9.442.005-14.163-.024-1.619,1.057-1.217,1.854-1.153s2.13-.7,2.1,1.112C286.363-183.664,286.4-181.3,286.4-178.942Z" transform="translate(-54.278 -108.992)" fill="#f4f6f7"/>
      <path id="Trazado_580272" data-name="Trazado 580272" d="M265.872-223.855a3.235,3.235,0,0,0,1.892.381c4.193-.008,8.386,0,12.579-.01.568,0,1.2.169,1.64-.395A77.983,77.983,0,0,1,282-236.068c.631.233.358.78.359,1.179.017,4.606-.044,9.213.034,13.817.022,1.312-.495,1.5-1.617,1.487-4.474-.051-8.95-.058-13.424,0-1.17.016-1.723-.244-1.57-1.517C265.9-222.008,265.849-222.935,265.872-223.855Z" transform="translate(-44.184 -79.467)" fill="#fea63d"/>
      <path id="Trazado_580273" data-name="Trazado 580273" d="M319.293-226.891c-.6-.684-.333-1.512-.334-2.273q-.028-14.41-.013-28.822v-1.949H318.6v32.7a4.124,4.124,0,0,1-.43-2.556c-.016-9.541-.05-19.083.026-28.624.013-1.676-.524-2.082-2.131-2.079q-32.378.072-64.756.032h-2.145l-.036-.395h1.88q32.773,0,65.545-.015c.812,0,1.728.338,2.422-.43.549.631.242,1.383.244,2.067Q319.287-243.065,319.293-226.891Z" transform="translate(-34.129 -64.206)" fill="#f4f6f7"/>
      <path id="Trazado_580274" data-name="Trazado 580274" d="M215.309-261.309c1.247.916,2.668.283,4,.432.762.085,1.542.015,2.67.015a3.475,3.475,0,0,1-2.256.384c-3.6.026-3.6.015-3.6,3.708v40.035l-.35,0v-43.593a2.181,2.181,0,0,0-.423,1.786c-.011,13.552.006,27.1-.031,40.656,0,1.408.173,2.214,1.9,2.111,1.282-.077,1.7-.445,1.687-1.728-.059-4.8-.033-9.6-.012-14.407,0-.7-.236-1.459.331-2.077l.024,18.455a6.258,6.258,0,0,1-4.267-.03q.032-21.842.081-43.684C215.065-259.929,214.757-260.681,215.309-261.309Z" transform="translate(-13.477 -64.204)" fill="#f4f6f7"/>
      <path id="Trazado_580275" data-name="Trazado 580275" d="M298.844-137.327c-.276.608.521,1.438-.4,1.914a2.221,2.221,0,0,0-1.7-.844c-.789-.04-1.577-.072-2.367-.072q-37.019,0-74.037.02c-1.391,0-2.94-.414-4.07.9-.394-.44-.394-.44-.395-1.914.585-.049,1.17-.14,1.755-.14q39.728-.011,79.457,0C297.674-137.467,298.259-137.376,298.844-137.327Z" transform="translate(-14.02 -139.086)" fill="#4e7c8e"/>
      <path id="Trazado_580276" data-name="Trazado 580276" d="M439.8-250.794l-.415-.4a4.452,4.452,0,0,1-.169-2.133q-.016-39.829-.011-79.658c0-.788.032-1.578-.032-2.365a1.007,1.007,0,0,1,.258-.716c.121-.016.242-.036.361-.061.056.581.16,1.162.161,1.743q.012,40.922,0,81.843C439.951-251.958,439.851-251.376,439.8-250.794Z" transform="translate(-149.041 -18.963)" fill="#c4e4f3"/>
      <path id="Trazado_580277" data-name="Trazado 580277" d="M298.452-275.941q-39.963,0-79.925,0c-1.127,0-2.551-.417-2.645,1.549v-1.92c.585-.046,1.171-.133,1.756-.134q39.723-.01,79.445,0c.585,0,1.17.091,1.755.139C298.956-275.922,298.8-275.83,298.452-275.941Z" transform="translate(-14.023 -55.048)" fill="#518092"/>
      <path id="Trazado_580278" data-name="Trazado 580278" d="M207.821-250.376c-.028-.457-.08-.915-.08-1.372q-.005-40.5,0-81c0-.457.052-.915.08-1.372.6.6.357,1.367.358,2.061q.018,39.811,0,79.622C208.178-251.743,208.422-250.977,207.821-250.376Z" transform="translate(-9.098 -20.176)" fill="#020203"/>
      <path id="Trazado_580279" data-name="Trazado 580279" d="M318.554-275.72l.387-.365a2.3,2.3,0,0,1,.068,2.354H249.14l-.014-.411h1.918q32.68,0,65.361,0C317.517-274.14,318.8-273.882,318.554-275.72Z" transform="translate(-34.125 -55.269)" fill="#4e7c8e"/>
      <path id="Trazado_580280" data-name="Trazado 580280" d="M213.156-215.19v-44.843h.2v44.9Z" transform="translate(-12.374 -64.975)" fill="#040404"/>
      <path id="Trazado_580281" data-name="Trazado 580281" d="M319.8-323.174v.986c0,.889.275,1.859-1.318,1.618-1.125-.169-2.444.277-2.061-1.669a9.059,9.059,0,0,0,.016-1.576c.02-1.177-.44-2.434,1.7-2.42,2.178.014,1.578,1.344,1.656,2.468C319.81-323.57,319.8-323.371,319.8-323.174Z" transform="translate(-74.776 -24.945)" fill="#fc5938"/>
      <path id="Trazado_580282" data-name="Trazado 580282" d="M319.79-184.277a7,7,0,0,1-.008.986c-.109.758.535,1.916-1.217,1.72-1.257-.141-2.551.229-2.154-1.781a9.516,9.516,0,0,0,.017-1.576c.028-1.11-.4-2.281,1.609-2.326,2.123-.048,1.738,1.185,1.753,2.385C319.792-184.671,319.79-184.474,319.79-184.277Z" transform="translate(-74.767 -108.983)" fill="#fb5938"/>
      <path id="Trazado_580283" data-name="Trazado 580283" d="M285.864-233.967a9.021,9.021,0,0,0,.009,1.33c.258,1.543-.607,1.521-1.8,1.589-1.381.079-1.708-.408-1.582-1.624.067-.645.009-1.3.012-1.955.008-1.9,1.044-2.7,2.761-1.949C286.539-236.019,285.521-234.712,285.864-233.967Z" transform="translate(-54.285 -78.99)" fill="#fc5938"/>
      <path id="Trazado_580284" data-name="Trazado 580284" d="M326.122-243.237c.435-.778,1.193-.683,1.9-.684q8.93-.009,17.859,0c.7,0,1.469-.147,1.9.66l-.439.021a16.931,16.931,0,0,1-4.677.171c-5.427-.047-10.857.215-16.281-.131C326.294-243.213,326.208-243.226,326.122-243.237Z" transform="translate(-80.683 -74.713)" fill="#010101"/>
      <path id="Trazado_580285" data-name="Trazado 580285" d="M200.338-337.079l-.064.378a3.814,3.814,0,0,1,.382,2.1q0,18.422-.009,36.844c0,.7.2,1.467-.451,2.033a2.634,2.634,0,0,0-.283.243q-.026-20.1-.049-40.2C199.863-336.194,199.764-336.755,200.338-337.079Z" transform="translate(-4.333 -18.387)" fill="#020303"/>
      <path id="Trazado_580286" data-name="Trazado 580286" d="M198.28-294.464h-.395v-39.4h.395Z" transform="translate(-3.14 -20.33)" fill="#030304"/>
      <path id="Trazado_580287" data-name="Trazado 580287" d="M281.4-243.218a.738.738,0,0,1,.758.806c-.6.6-.353,1.369-.356,2.066-.02,5.189-.011,10.379-.011,15.666-.642-.422-.38-.943-.381-1.363-.021-4.87-.058-9.741.014-14.61.021-1.4-.449-1.8-1.815-1.789-6.252.059-12.505.026-18.758.026.581-.636,1.348-.381,2.037-.384,5.494-.02,10.987,0,16.481-.022C280.055-242.825,280.824-242.569,281.4-243.218Z" transform="translate(-41.214 -75.143)" fill="#040404"/>
      <path id="Trazado_580288" data-name="Trazado 580288" d="M252.551-320.711c-2.8.032-2.8.032-2.8-2.951,0-2.9.35-3.14,3.232-2.23C252.718-324.175,253.409-322.379,252.551-320.711Z" transform="translate(-34.505 -24.867)" fill="#fb5938"/>
      <path id="Trazado_580289" data-name="Trazado 580289" d="M383.682-325.89c2.843-.9,3.23-.658,3.232,2.033v.391c0,2.787,0,2.787-2.8,2.755C383.259-322.377,383.951-324.174,383.682-325.89Z" transform="translate(-115.482 -24.867)" fill="#fb5938"/>
      <path id="Trazado_580290" data-name="Trazado 580290" d="M326.772-242.142l20.958-.04c-.588.633-1.358.379-2.052.381-5.329.02-10.66.093-15.986-.032-1.926-.045-2.645.363-2.564,2.466.177,4.6.063,9.208.044,13.813a3.574,3.574,0,0,1-.4,2.3Z" transform="translate(-81.076 -75.77)" fill="#040404"/>
      <path id="Trazado_580291" data-name="Trazado 580291" d="M383.7-186.916c2.886-.854,3.206-.646,3.208,2.079v.39c0,2.759,0,2.759-2.786,2.734C383.267-183.389,383.92-185.188,383.7-186.916Z" transform="translate(-115.48 -108.918)" fill="#fb5838"/>
      <path id="Trazado_580292" data-name="Trazado 580292" d="M252.539-181.714c-2.786.025-2.786.025-2.786-2.929,0-2.934.288-3.138,3.208-2.275C252.746-185.189,253.4-183.39,252.539-181.714Z" transform="translate(-34.504 -108.917)" fill="#fb5838"/>
      <path id="Trazado_580293" data-name="Trazado 580293" d="M350.09-236.333c1.078.214,2.839-1.105,2.827,1.471-.02,4.008.058,4.008-2.827,3.97A8.252,8.252,0,0,1,350.09-236.333Z" transform="translate(-94.897 -79.215)" fill="#fc5938"/>
      <path id="Trazado_580294" data-name="Trazado 580294" d="M200.248-177.818l.058.381c-.63-.4-.457-1.038-.457-1.6q.008-18.2.033-36.4a1.564,1.564,0,0,0,.291.206c.654.562.455,1.333.456,2.03q.021,16.644.009,33.288A3.692,3.692,0,0,1,200.248-177.818Z" transform="translate(-4.315 -91.941)" fill="#020203"/>
      <path id="Trazado_580295" data-name="Trazado 580295" d="M198.3-210.959v34.966h-.2v-35.028Z" transform="translate(-3.273 -94.612)" fill="#030304"/>
      <path id="Trazado_580296" data-name="Trazado 580296" d="M212.905-342.248v22.774a2.656,2.656,0,0,1-.418-2.024c-.174-6.559.315-13.127-.265-19.68-.051-.58.28-.827.7-1.057Z" transform="translate(-11.806 -15.261)" fill="#020303"/>
      <ellipse id="Elipse_7263" data-name="Elipse 7263" cx="0.078" cy="12.811" rx="0.078" ry="12.811" transform="translate(219.415 -321.313)" fill="#050505"/>
      <path id="Trazado_580297" data-name="Trazado 580297" d="M280.309-186.018v15.67h-.2V-185.97Z" transform="translate(-52.861 -109.731)" fill="#040404"/>
      <path id="Trazado_580298" data-name="Trazado 580298" d="M294.08-170.509v-15.652h.2v15.667Z" transform="translate(-61.308 -109.645)" fill="#040404"/>
      <path id="Trazado_580299" data-name="Trazado 580299" d="M347.359-185.98v15.513l-.2,0v-15.6Z" transform="translate(-93.406 -109.706)" fill="#040404"/>
      <path id="Trazado_580300" data-name="Trazado 580300" d="M361.353-185.978v15.513l-.2,0v-15.592Z" transform="translate(-101.867 -109.709)" fill="#040404"/>
      <path id="Trazado_580301" data-name="Trazado 580301" d="M373.076-236.053q-.029,6.061-.059,12.122c-.733-1.478-.269-3.051-.321-4.574-.086-2.529-.023-5.062-.023-7.594Z" transform="translate(-108.787 -79.448)" fill="#fed03e"/>
      <path id="Trazado_580302" data-name="Trazado 580302" d="M306.137-236.087q-.011,6.095-.022,12.189c-.712-.788-.353-1.747-.366-2.621-.046-3.193-.018-6.387-.018-9.58Z" transform="translate(-68.316 -79.447)" fill="#fecb3c"/>
      <path id="Trazado_580303" data-name="Trazado 580303" d="M349.665-236.1q0,2.721,0,5.441c-.266.032-.62-.014-.573-.3C349.369-232.668,348.236-234.532,349.665-236.1Z" transform="translate(-94.473 -79.446)" fill="#fe5f3d"/>
      <path id="Trazado_580304" data-name="Trazado 580304" d="M383.35-325.169c.935,1.66.178,3.462.435,5.179-.438.221-.622-.067-.609-.4C383.238-321.984,382.923-323.591,383.35-325.169Z" transform="translate(-115.15 -25.589)" fill="#fe613d"/>
      <path id="Trazado_580305" data-name="Trazado 580305" d="M256.756-319.991c.257-1.717-.5-3.52.435-5.18.428,1.578.112,3.185.174,4.777C257.379-320.058,257.194-319.77,256.756-319.991Z" transform="translate(-38.71 -25.587)" fill="#fe613d"/>
      <path id="Trazado_580306" data-name="Trazado 580306" d="M256.749-181.031c.269-1.724-.466-3.53.422-5.2.48,1.585.128,3.2.193,4.807C257.378-181.09,257.191-180.8,256.749-181.031Z" transform="translate(-38.715 -109.6)" fill="#fe613d"/>
      <path id="Trazado_580307" data-name="Trazado 580307" d="M383.369-186.234c.889,1.674.154,3.479.422,5.2-.442.235-.628-.06-.614-.4C383.24-183.03,382.889-184.65,383.369-186.234Z" transform="translate(-115.144 -109.601)" fill="#fe613d"/>
      <path id="Trazado_580308" data-name="Trazado 580308" d="M365.931-236.1q-.012,4.252-.03,8.5c0,.04-.077.118-.111.114a2.178,2.178,0,0,1-.328-.091c-.015-2.423-.049-4.847-.028-7.269C365.438-235.281,365.107-235.947,365.931-236.1Z" transform="translate(-104.417 -79.447)" fill="#fed03d"/>
      <path id="Trazado_580309" data-name="Trazado 580309" d="M214.987-145.59a12.3,12.3,0,0,0,4.267.03A3.923,3.923,0,0,1,214.987-145.59Z" transform="translate(-13.482 -134.177)" fill="#040404"/>
      <path id="Trazado_580310" data-name="Trazado 580310" d="M212.933-118.365c-1.553-.756,0-1.83-.013-2.734v2.747Z" transform="translate(-11.821 -148.987)" fill="#020203"/>
      <path id="Trazado_580311" data-name="Trazado 580311" d="M352.793-214.619a1.387,1.387,0,0,1-1.962.051A1.773,1.773,0,0,1,352.793-214.619Z" transform="translate(-95.625 -92.271)" fill="#fed13d"/>
      <path id="Trazado_580312" data-name="Trazado 580312" d="M366.944-186.218a8.392,8.392,0,0,1,3.213.39H366.9Z" transform="translate(-105.34 -109.61)" fill="#fecf3d"/>
      <path id="Trazado_580313" data-name="Trazado 580313" d="M269.744-185.828h-3.261a8.416,8.416,0,0,1,3.215-.39Z" transform="translate(-44.621 -109.61)" fill="#fecf3d"/>
      <path id="Trazado_580314" data-name="Trazado 580314" d="M286.412-214.641a.948.948,0,0,1-1.588,0A1.349,1.349,0,0,1,286.412-214.641Z" transform="translate(-55.711 -92.266)" fill="#fed33e"/>
      <path id="Trazado_580315" data-name="Trazado 580315" d="M201.565-335.123c.544.046,1.156-.18,1.571.388-1.545-.063-1.174,1.091-1.175,1.93q-.023,16.615-.013,33.229c0,1.828-.04,3.655-.069,5.483,0,.036-.086.093-.136.1a.528.528,0,0,1-.188-.051,2.627,2.627,0,0,1-.186-1.537q-.01-19,0-38.009A2.469,2.469,0,0,1,201.565-335.123Z" transform="translate(-5.231 -19.565)" fill="#b2cfdc"/>
      <path id="Trazado_580316" data-name="Trazado 580316" d="M200.987-335.723q0,20.539-.01,41.077l-.461-.5c-.032-6.5-.077-13.01-.094-19.515q-.024-9.664.005-19.327a4.678,4.678,0,0,1,.167-2.135Z" transform="translate(-4.653 -18.965)" fill="#c4e4f3"/>
      <path id="Trazado_580317" data-name="Trazado 580317" d="M203.148-179.066c-.415.568-1.027.343-1.571.389a2.073,2.073,0,0,1-.2-1.335q-.008-17.423,0-34.845a2.272,2.272,0,0,1,.183-1.342c.686.648.387,1.49.388,2.242.02,10.984.009,21.968.024,32.951C201.975-180.166,201.595-179.005,203.148-179.066Z" transform="translate(-5.244 -91.481)" fill="#b2cfdc"/>
      <path id="Trazado_580318" data-name="Trazado 580318" d="M201.057-216.2q.007,18.761.015,37.522l-.4.4a1.1,1.1,0,0,1-.144-.363q.028-18.526.069-37.052Z" transform="translate(-4.738 -91.481)" fill="#c4e4f3"/>
      <path id="Trazado_580319" data-name="Trazado 580319" d="M256.038-223.261v-16.7h.2v16.862Z" transform="translate(-38.305 -77.116)" fill="#f3f5f6"/>
      <path id="Trazado_580320" data-name="Trazado 580320" d="M317.1-223.054v-16.8l.145,0v16.8Z" transform="translate(-75.225 -77.177)" fill="#f3f5f6"/>
      <path id="Trazado_580321" data-name="Trazado 580321" d="M437.323-335.519q0,42.266-.007,84.531c-.253-.2-1.821.537-.534-.8.279-.289.148-1.007.149-1.527q.008-39.941-.005-79.882c0-.839.378-2-1.175-1.938C436.047-336.184,436.725-335.691,437.323-335.519Z" transform="translate(-146.975 -19.169)" fill="#b2cfdc"/>
      <path id="Trazado_580322" data-name="Trazado 580322" d="M436.691-335.774c-.545.043-1.156-.179-1.572.388v62.527c-.589-.6-.376-1.121-.376-1.58q-.02-29.8-.038-59.607c0-1.527.23-2.47,2.025-2.067A2.134,2.134,0,0,0,436.691-335.774Z" transform="translate(-146.342 -18.914)" fill="#bcd9e8"/>
      <path id="Trazado_580323" data-name="Trazado 580323" d="M216.825-134.7c-.234-1.616.8-1.592,1.947-1.591q20.7.027,41.409.011,18.437,0,36.874-.011c1.148,0,2.182-.025,1.947,1.591Z" transform="translate(-14.573 -139.802)" fill="#4b7787"/>
      <path id="Trazado_580324" data-name="Trazado 580324" d="M282.945-195.665H268.222l0-.191h14.792Z" transform="translate(-45.671 -103.782)" fill="#feae41"/>
    </g>
  </g>
</svg>
