<svg xmlns="http://www.w3.org/2000/svg" width="141" height="141" viewBox="0 0 141 141">
  <g id="Grupo_844227" data-name="Grupo 844227" transform="translate(-240.085 -1286.827)">
    <rect id="Rectángulo_38178" data-name="Rectángulo 38178" width="141" height="141" transform="translate(240.085 1286.827)" fill="none"/>
    <g id="Grupo_844231" data-name="Grupo 844231" transform="translate(-999.851 1743.539)">
      <path id="Trazado_580521" data-name="Trazado 580521" d="M1355.05-344.546l1.117.116c1.143,1.164,2.283,2.332,3.468,3.454a16.145,16.145,0,0,0,.548,2.675c.866,2.126-.226,2.057-1.713,2.019-2.336-.059-4.679-.092-7.011.016-1.146.054-1.293-.48-1.252-1.354-.1-.359-.1-.677.349-.8,1.943-.076,3.9.051,5.374-.04-1.483.027-3.431.011-5.376-.005a.424.424,0,0,1-.34-.444c.693-.946,1.731-.515,2.629-.665,1.125-.188,2.363.485,3.373-.449-.588-1.206-1.8-1.45-2.881-1.9a15.365,15.365,0,0,0-1.954-.059q-40.945,0-81.889,0a13.107,13.107,0,0,0-1.94.07c-1.048.482-2.545.408-2.6,2.107a6.416,6.416,0,0,0,2.712.207q35.026.018,70.051.02c1.087,0,2.279-.248,3.162.61l-.049.52h-75.895q37.268.012,74.531.009c.7-.039.969.22.643.912a2.738,2.738,0,0,1-1.494,1.167c-5.066.022-10.133.06-15.2.062q-30.311.011-60.623,0c-2.481,0-2.64-.13-2.241-2.6a4.17,4.17,0,0,1,1.094-2.594,24.061,24.061,0,0,0,3.18-2.941l1.465-.488a4.988,4.988,0,0,1,2.118-.152q17.075-.016,34.149-.022c.685,0,1.432.27,2.062-.258l-.045.05c.089-.1.232-.2.231-.3-.024-5.488.22-10.978-.122-16.464l.009-.394c.948-.158,1.9-.786,2.844,0a4.113,4.113,0,0,1,.39,2.457c.017,3.961,0,7.921.012,11.882a5.461,5.461,0,0,0,.19,2.112c1.2,1.024,2.6.516,3.906.445.722-.039,1.017-.74,1.019-1.455q.035-11.391.005-22.782c0-.942-.4-1.526-1.388-1.453-1.188.089-2.469-.442-3.537.49a4.631,4.631,0,0,0-.2,1.922c-.051,3.268-.048,3.268-3.255,2.969-.564-1.836.071-3.762-.418-5.6-5.771-.37-11.55-.149-17.322-.113a5.787,5.787,0,0,1-4.757-1.943c-2.822-3.05-5.818-5.944-8.805-8.836-.8-.776-.771-1.2.01-1.968,3.564-3.509,7.061-7.086,10.582-10.639,6.073-.195,12.147-.027,18.221-.094a4.548,4.548,0,0,0,2.1-.17l-.009.005a18.083,18.083,0,0,0-.019-5.526,9.524,9.524,0,0,0-3.086-.152c-8.822-.018-17.645,0-26.467-.023-.688,0-1.424.235-2.071-.224,0-.566.4-.577.8-.573,9.945.08,19.891.005,29.836.031.211,0,.317.128.636.358-.565-.612-1.1-.349-1.546-.35q-13.554-.031-27.107-.017c-2.214,0-2.383-.124-2.4-2.252q-.053-8.678,0-17.355c.013-2.132.172-2.245,2.4-2.245,9.463,0,18.925-.012,27.914.005.731-.1.463-.488.554-.245.018.048-.036.052-.113.1a2.714,2.714,0,0,1-1.514.12q-14.041.024-28.082,0c-.5,0-1.217.4-1.388-.531.646-.461,1.382-.223,2.07-.225,9.147-.019,18.295-.009,27.442-.02.7,0,1.408-.1,2.113-.155.5-2.333-.1-4.722.354-7.057,1.378-3.345,3.321-4.819,6.164-4.677a5.868,5.868,0,0,1,5.518,5.754,40.367,40.367,0,0,1-.007,4.677c-.089,1.237.35,1.5,1.521,1.492,5.914-.058,11.83-.029,17.745-.022,1.081,0,4.666,2.665,4.953,3.652.195.666-.631.755-.708,1.266-.653,1.333-1.526,1.149-2.463.339-.914-.79-1.7-1.788-3.083-1.767q-27.408-.026-54.807-.005c-.39,0-.781.026-1.169.021-1.594-.021-2.326.639-2.293,2.343.077,4.029.055,8.061.009,12.09-.018,1.5.525,2.025,2.057,2.022q27.693-.059,55.387.006c1.728,0,2.741-.965,3.85-1.943,1.844-1.529,3.425-3.34,5.174-4.974,1.064-.994.994-1.845-.069-2.74a6.883,6.883,0,0,1-.813-.834c-1.08-1.276-1-1.638.58-2.631.516-.381.928-.786,1.593-.05,1.306,1.446,2.708,2.809,4.131,4.142.641.6.576.97-.02,1.55-3.122,3.031-6.207,6.1-9.305,9.155a5,5,0,0,1-3.428,1.021c-5.871-.062-11.742-.026-17.471-.028-.4.04-.005.418-.157.207-.047-.066,0-.116.152-.12,6.232-.167,12.465-.038,18.7-.067.338,0,.649.056.685.488-.626.511-1.367.265-2.05.268-5.617.023-11.235-.005-16.851.041-.577,0-1.456-.52-1.74.556a14.528,14.528,0,0,1,0,4.687c.293,1.074,1.175.554,1.757.556,9.5.038,19,.016,28.495.054.577,0,1.461-.527,1.74.561a1.2,1.2,0,0,1-.727.235c-9.823-.105-19.645-.015-29.468-.046-.253,0-.521.057-.735-.135.379.386.854.13,1.267.13,9.042.021,18.085.049,27.127-.015,1.587-.011,2.18.425,2.16,2.075-.073,5.984-.024,11.969-.035,17.954a2.525,2.525,0,0,1-.305,1.691,1.07,1.07,0,0,1-.362.141c-10.021.047-20.042.023-30.062.023-.271,0-.287-.19-.375-.344-.244-.092.238-.01.074.181-.078.091.085.173.255.173,9.761.014,19.521-.007,29.282.013.633,0,1.3-.22,1.9.18-.025.823-.5.593-.958.411a6.235,6.235,0,0,1-2.319.164c-9.041.009-18.083.038-27.125-.027-1.445-.011-1.877.348-1.862,1.833q.115,11.414,0,22.83c-.015,1.512.356,1.976,1.928,1.967,11.513-.069,23.027-.04,34.54-.029a5,5,0,0,1,2.119.152l.357.384c-.387.349-.863.222-1.3.222q-17.727.011-35.454,0c-.287,0-.6.12-.68.015,12.12,0,24.421,0,36.723,0A.91.91,0,0,0,1355.05-344.546Z" fill="#010101"/>
      <path id="Trazado_580522" data-name="Trazado 580522" d="M1369.364-394.26c-1.3,1.049-.857,1.8.218,2.809,2.334,2.183,2.41,1.77.068,4.084-1.379,1.363-2.791,2.694-4.188,4.039a6.484,6.484,0,0,1-1.729.263c-9.882-.044-19.764.007-29.645-.029a6.647,6.647,0,0,1-1.544-.15,1.292,1.292,0,0,1-1.1-1.192c-.1-1.444-1.045-1.654-2.181-1.52-2.161.255-3.545-.768-4.6-2.544-.828-1.389-1.781-2.7-2.687-4.047-.651-.965-1.2-1.192-2.052-.115-2.4,3.025-2.5,3.022-4.787-.047-.738-.99-1.2-.964-1.839.029-1.719,2.669-3.662,5.185-5.361,7.872a4.42,4.42,0,0,1-1.121,1.1,1.1,1.1,0,0,1-1.01.081,2.228,2.228,0,0,1-.722-1.935c-.062-3.379-.057-6.758,0-10.136a2.628,2.628,0,0,1,.557-1.824,5.4,5.4,0,0,1,2.675-.258q25.39-.019,50.78-.011c.843,0,1.686.032,2.527-.042a1.894,1.894,0,0,0,.689-.288,4.412,4.412,0,0,1,2.541,1.921c.809,1.074,1.438.7,2.16.011A4.678,4.678,0,0,0,1369.364-394.26Z" transform="translate(-27.208 -23.233)" fill="#e2ecf5"/>
      <path id="Trazado_580523" data-name="Trazado 580523" d="M1364.951-195.739a7.52,7.52,0,0,1,2.678,2.041.293.293,0,0,1,.034.518c-1.964.554-3.983.045-5.963.3a1.106,1.106,0,0,0-.5.338l-.114.389q.2.128.137.259c-.044.088-.088.131-.134.131-.044.212-.089.423-.134.633a4.749,4.749,0,0,0-2.886.029c-.6-.229-.509-.864-.776-1.287a.823.823,0,0,0-1.442.013c-.251.424-.175,1.042-.749,1.271a4.392,4.392,0,0,0-2.894.011.725.725,0,0,1-.447-.685,1.146,1.146,0,0,0-.207-1.118,1.387,1.387,0,0,0-.621-.221c-22.512-.09-45.017-.008-67.522-.046a23.14,23.14,0,0,1-4.668-.157c-1.275-.854-.631-1.6.134-2.34a.688.688,0,0,1,.682-.07,2.9,2.9,0,0,0,.7.225c.976.091,1.952.058,2.927.058q38.55,0,77.1,0c.911,0,1.822.018,2.729-.04a6.583,6.583,0,0,0,1-.246A1.114,1.114,0,0,1,1364.951-195.739Z" transform="translate(-10.743 -146.485)" fill="#53df71"/>
      <path id="Trazado_580524" data-name="Trazado 580524" d="M1373.566-264.916a7.356,7.356,0,0,1,1.326-.032c1.008.151,1.4-.241,1.356-1.247-.063-1.4-.059-2.8-.083-4.2q.233-.382.507-.031c.136,1.381.026,2.772.044,3.747a16.206,16.206,0,0,1,.032-1.712c0-2.235.5-2.535,2.689-1.647a5.352,5.352,0,0,1,.463,3.028q.027,8.262,0,16.524c-.006,1.283.236,2.312,1.629,2.7a1.63,1.63,0,0,1,.649.877c.03.384-.021.774.03,1.151.172,1.245-.292,1.81-1.588,1.61-1.471-.229-3.015.443-4.442-.357l-.018-17.017c-.4-.449-1.08.071-1.463-.43-.181-1.013,1.229-2.712-1.191-2.758l-.247-.191Z" transform="translate(-68.777 -100.937)" fill="#b15d1e"/>
      <path id="Trazado_580525" data-name="Trazado 580525" d="M1291.269-405.166c.671.607,1.492.336,2.243.337q13.659.029,27.318.013h2.323a3.563,3.563,0,0,1-2.243.381c-8.976.014-17.952.045-26.927-.024-1.558-.012-1.995.458-1.974,1.99q.121,8.778,0,17.56c-.021,1.531.413,2,1.973,1.992,8.975-.07,17.951-.034,26.927-.034h2.251a3.523,3.523,0,0,1-2.329.379c-9.106.018-18.212.005-27.318.025-.75,0-1.572-.272-2.242.338-.45-.252-.264-.686-.265-1.04q-.017-10.437,0-20.874C1291.006-404.478,1290.821-404.912,1291.269-405.166Z" transform="translate(-18.637 -18.94)" fill="#050505"/>
      <path id="Trazado_580526" data-name="Trazado 580526" d="M1441.347-244.48c-12.356.01-24.712.006-37.068.052-1.252,0-1.706-.361-1.7-1.658q.07-11.8-.005-23.605c-.011-1.434.541-1.73,1.835-1.723,9.885.048,19.77.038,29.655.045a4.543,4.543,0,0,1-2.11.169c-9.1.013-18.2.036-27.295-.022-1.316-.008-1.753.262-1.74,1.671q.109,11.6,0,23.2c-.013,1.355.453,1.558,1.649,1.554q17.059-.061,34.118-.014A4.617,4.617,0,0,1,1441.347-244.48Z" transform="translate(-86.643 -100.437)" fill="#010201"/>
      <path id="Trazado_580527" data-name="Trazado 580527" d="M1435.66-307.451c0-6.369-.066-12.738.043-19.1.032-1.838-.429-2.436-2.348-2.414-8.837.1-17.676.045-26.514.045h-1.92l0-.39h31.528l0,.388a3.828,3.828,0,0,0-.2,2.1c-.034,6.377.024,12.753-.036,19.13A.354.354,0,0,1,1435.66-307.451Z" transform="translate(-88.072 -65.157)" fill="#050505"/>
      <path id="Trazado_580528" data-name="Trazado 580528" d="M1313.828-203.576c-.387.631-1.022.457-1.58.457q-18.374,0-36.749-.025a4.616,4.616,0,0,1,2.659-.333q16.669-.022,33.337-.014C1312.272-203.492,1313.05-203.547,1313.828-203.576Z" transform="translate(-9.211 -141.774)" fill="#010201"/>
      <path id="Trazado_580529" data-name="Trazado 580529" d="M1435.663-273.574h.391q.2-.287.4,0l0,.39h-31.53l0-.39Z" transform="translate(-88.074 -99.035)" fill="#050505"/>
      <path id="Trazado_580530" data-name="Trazado 580530" d="M1424.923-348.862c-.625-.514-1.369-.295-2.06-.3-5.442-.018-10.885,0-16.328-.02a3.312,3.312,0,0,1-1.909-.195c7.281-.851,14.632.866,21.82-.988A4.26,4.26,0,0,1,1424.923-348.862Z" transform="translate(-87.892 -52.333)" fill="#080808"/>
      <path id="Trazado_580531" data-name="Trazado 580531" d="M1475.29-186.972q.069-.844.139-1.688a2.466,2.466,0,0,1,2.682,0q.074.849.147,1.7c.194,1.31-.616,1.281-1.58,1.326C1475.622-185.592,1475.166-185.914,1475.29-186.972Z" transform="translate(-130.937 -150.62)" fill="#040905"/>
      <path id="Trazado_580532" data-name="Trazado 580532" d="M1484.944-306.845h-.4c0-6.486-.008-12.973.01-19.46,0-.682-.253-1.445.388-2.016Q1485.2-317.583,1484.944-306.845Z" transform="translate(-136.566 -65.763)" fill="#010101"/>
      <path id="Trazado_580533" data-name="Trazado 580533" d="M1373.6-246.356a1.5,1.5,0,0,1,.349,1.256q0,7.063,0,14.126c0,.5.1,1.054-.456,1.381Q1373.548-237.974,1373.6-246.356Z" transform="translate(-68.922 -115.707)" fill="#010201"/>
      <path id="Trazado_580534" data-name="Trazado 580534" d="M1508.3-197.766c-.279.03-.428.911-.8.176a6.25,6.25,0,0,0-2.828-2.829c-.746-.377.127-.526.164-.8A5.881,5.881,0,0,1,1508.3-197.766Z" transform="translate(-148.669 -143.209)" fill="#010201"/>
      <path id="Trazado_580535" data-name="Trazado 580535" d="M1266.789-201.22c.036.273.9.45.188.779a8.06,8.06,0,0,0-3.244,3.363l-.124-1.2A5.576,5.576,0,0,1,1266.789-201.22Z" transform="translate(-1.967 -143.209)" fill="#010201"/>
      <path id="Trazado_580536" data-name="Trazado 580536" d="M1463.344-185.723q.065.336.129.67c-.068,2.46-1.875.863-2.846,1.218l1.558-1.888A.921.921,0,0,1,1463.344-185.723Z" transform="translate(-122.015 -152.527)" fill="#010201"/>
      <path id="Trazado_580537" data-name="Trazado 580537" d="M1375.022-248.466c.46.238,1.141-.279,1.463.43h-2.69C1373.989-248.792,1374.64-248.246,1375.022-248.466Z" transform="translate(-69.106 -114.421)" fill="#010201"/>
      <path id="Trazado_580538" data-name="Trazado 580538" d="M1307.406-316.679c1.95-1.994,3.917-3.972,5.839-5.992a2.14,2.14,0,0,1,1.721-.668q29.252.022,58.5.021a1.7,1.7,0,0,1,.379.088,2.242,2.242,0,0,1-.015.693c0,4.535-.1,9.069.054,13.6-.735,1.646-2.1.844-3.26.841a2.042,2.042,0,0,1-.8-.477c-2.16-2.917-4.114-5.981-6.178-8.969-1.054-1.527-1.22-1.5-2.317-.014-.269.365-.5.763-.788,1.111-1.14,1.36-1.853,1.35-2.913-.029-1.964-2.555-1.966-2.556-3.77.151-.5.756-1.115,1.45-1.556,2.233-1.184,2.1-2.733,3.375-5.326,2.99-1.735-.257-1.486,1.194-1.7,2.212a1.433,1.433,0,0,1-.323.54,1.886,1.886,0,0,1-.6.293,44.516,44.516,0,0,1-6.406.151c-6.869.023-13.738-.013-20.608.025a5.5,5.5,0,0,1-4.328-1.777c-1.552-1.653-3.225-3.19-4.781-4.84C1307.677-315.087,1306.954-315.677,1307.406-316.679Z" transform="translate(-28.567 -68.799)" fill="#fdee8e"/>
      <path id="Trazado_580539" data-name="Trazado 580539" d="M1327.88-383.871q15.481,0,30.962.007a4.706,4.706,0,0,1,2.654.4c-1.327,2.073-3.114,2.794-5.662,2.778-18.456-.116-36.913-.079-55.37-.029-1.484,0-1.974-.305-1.935-1.885.116-4.741.06-9.487.027-14.231-.007-.963.036-1.517,1.3-1.513q29.145.074,58.291.053a1.057,1.057,0,0,1,.191.035c0,.108,0,.217,0,.325a4.084,4.084,0,0,1-2.1.186q-26.2.018-52.41.019a4,4,0,0,0-2.1.19c0,3.988-.016,7.975.008,11.962,0,.638-.324,1.5.745,1.7a2.042,2.042,0,0,1,.494.289,1.663,1.663,0,0,0,.522.271c4.6.084,9.2.154,13.788-.047.085-.043.175-.084.26-.126s.152-.112.226-.17c.965-.743,2.071-.407,3.136-.409a1.391,1.391,0,0,1,.672.375c.126.113.253.226.388.328a24.858,24.858,0,0,0,4.948.088.915.915,0,0,0,.443-.446C1327.5-383.888,1327.638-384.057,1327.88-383.871Z" transform="translate(-23.243 -23.096)" fill="#c4d8eb"/>
      <path id="Trazado_580540" data-name="Trazado 580540" d="M1342.346-308.356a.654.654,0,0,1-.021-.3c2.144-1.257,4.446-.545,6.691-.545.983.271,2.023.255,3,.56a2.817,2.817,0,0,1,.6.3c2.166.513,4.364.2,6.544.224,2.642.035,5.287.118,7.928-.068.213-.06.427-.123.638-.19,1.156-.109,2.383.439,3.465-.372a123.5,123.5,0,0,1,0-14,2.545,2.545,0,0,1,.066-.32c.61.35.3.934.305,1.4.023,4.807-.024,9.615.029,14.421.013,1.183-.18,1.685-1.555,1.681q-28.747-.073-57.495-.011a2.8,2.8,0,0,1-2.191-.964c-1.9-1.957-3.844-3.873-5.772-5.8-2.122-2.124-2.123-2.123.238-4.171.159,1.078,1.188,1.491,1.728,2.272,3.517,5.078,8.288,6.493,14.374,6.03,7.092-.539,14.258-.119,21.391-.115a1.8,1.8,0,0,0,.425.306,24.434,24.434,0,0,0,3.927.039C1345.207-308.078,1343.717-307.546,1342.346-308.356Z" transform="translate(-25.979 -68.969)" fill="#fce75c"/>
      <path id="Trazado_580541" data-name="Trazado 580541" d="M1346.754-188.449h-76.818v-.37h76.526a4.64,4.64,0,0,0-2.6-.4q-36.388-.017-72.775-.051c-.6,0-2.256.884-1.681-1.133.2.045.4.095.592.148,1.052.188,2.13.014,3.183.233q35.4.04,70.791.029c.926,0,1.972-.373,2.755.51Z" transform="translate(-5.425 -149.801)" fill="#010201"/>
      <path id="Trazado_580542" data-name="Trazado 580542" d="M1386.3-422.685c.026.579.033,1.161.083,1.738.065.765-.111,1.28-1.03,1.169-.125-.015-.258.041-.385.031-1.478-.117-3.943.718-4.22-.561-.5-2.319-.933-5.032.546-7.332a2.3,2.3,0,0,1,2.682-.992,11.752,11.752,0,0,1,.109,3.286c-.069,1.313.4,2.1,1.735,2.3A3.372,3.372,0,0,1,1386.3-422.685Z" transform="translate(-73.057 -4.577)" fill="#ae5c1d"/>
      <path id="Trazado_580543" data-name="Trazado 580543" d="M1278.673-196.069l-.145-.059-.153.036c-.561.357-1.117.532-1.654-.044.622-.531,1.37-.313,2.063-.314q41.66-.016,83.319,0c.691,0,1.441-.228,2.06.313l-.759.06a4.215,4.215,0,0,1-2.464.4q-40.005.006-80.011,0A3.282,3.282,0,0,1,1278.673-196.069Z" transform="translate(-9.956 -146.086)" fill="#010201"/>
      <path id="Trazado_580544" data-name="Trazado 580544" d="M1366.01-197.977h-84.152v-.2h84.207Z" transform="translate(-13.086 -145.066)" fill="#010201"/>
      <path id="Trazado_580545" data-name="Trazado 580545" d="M1386.408-343.1c-.034.979.627,2.468-.415,2.8a10.24,10.24,0,0,1-4.982.018c-.421-.083-.349-.626-.391-1.009-.5-4.587-.135-4.993,4.487-4.879.429.011.921-.155,1.246.307-.479.7-1.48.268-1.972.922-.469,1.585.933,1.162,1.611,1.509A2.512,2.512,0,0,1,1386.408-343.1Z" transform="translate(-73.16 -54.875)" fill="#ad5b1d"/>
      <path id="Trazado_580546" data-name="Trazado 580546" d="M1381.08-271.085a.773.773,0,0,0-.378.082c1.808-1.058,3.752-.355,5.631-.391.681-.013.594.74.595,1.239q.011,12.143,0,24.287c0,.444.058,1.14-.443,1.156-1.93.059-3.922.718-5.774-.4a12.153,12.153,0,0,0,3.427.164c2.649.028,2.649.007,2.377-2.782a4.927,4.927,0,0,1-.533-2.819c-.043-6.417.094-12.834-.077-19.241-.391-1.133-1.568-.647-2.287-1.1C1382.778-271.036,1381.9-270.708,1381.08-271.085Z" transform="translate(-73.314 -100.33)" fill="#010201"/>
      <path id="Trazado_580547" data-name="Trazado 580547" d="M1443.074-201.518c-.427.559-1.045.435-1.616.436q-17.94.006-35.879,0a.775.775,0,0,1-.737-.424h38.243Z" transform="translate(-88.024 -143.027)" fill="#010201"/>
      <path id="Trazado_580548" data-name="Trazado 580548" d="M1313.551-200.978h-37.682v-.2h37.743Z" transform="translate(-9.436 -143.238)" fill="#010201"/>
      <path id="Trazado_580549" data-name="Trazado 580549" d="M1390.874-422.57c-1.824.4-2.682-.252-2.372-2.182.2-1.233-.426-2.565.449-3.717a2.869,2.869,0,0,1,2.292,2.43C1390.736-424.923,1391.381-423.685,1390.874-422.57Z" transform="translate(-78.029 -4.741)" fill="#e8955b"/>
      <ellipse id="Elipse_7267" data-name="Elipse 7267" cx="0.123" cy="17.844" rx="0.123" ry="17.844" transform="translate(1315.242 -376.16)" fill="#030303"/>
      <path id="Trazado_580550" data-name="Trazado 580550" d="M1341.68-272.8h-19.627l0-.195h19.712Z" transform="translate(-37.577 -99.478)" fill="#050505"/>
      <ellipse id="Elipse_7268" data-name="Elipse 7268" cx="13.984" cy="0.114" rx="13.984" ry="0.114" transform="translate(1280.269 -394.406)" fill="#050505"/>
      <path id="Trazado_580551" data-name="Trazado 580551" d="M1404.894-404.131h19.627l0,.2H1404.81Z" transform="translate(-88.004 -19.57)" fill="#050505"/>
      <path id="Trazado_580552" data-name="Trazado 580552" d="M1272.376-195.574l1.653.044q-.471.979-.943,1.958a.771.771,0,0,1-.266.5,1.527,1.527,0,0,1-.57.1c-.859-.1-1.746.211-2.583-.186l-.075-.395C1270.41-194.377,1271.1-195.381,1272.376-195.574Z" transform="translate(-5.611 -146.649)" fill="#01cf3b"/>
      <path id="Trazado_580553" data-name="Trazado 580553" d="M1497.255-189.977a.873.873,0,0,0-.048-.374c.858,1.029.082,1.133-.685,1.143-1.916.027-3.832.009-5.748.01a1.265,1.265,0,0,0-.1-.241c1.318-.732,2.744-.158,4.109-.338C1495.6-189.884,1496.456-189.577,1497.255-189.977Z" transform="translate(-140.321 -149.832)" fill="#010201"/>
      <path id="Trazado_580554" data-name="Trazado 580554" d="M1490.644-186.012l0-.39h6.13l.007.39Z" transform="translate(-140.303 -152.238)" fill="#010201"/>
      <path id="Trazado_580555" data-name="Trazado 580555" d="M1394.607-418.779c.152-1.153-.374-2.378.369-3.468a12.589,12.589,0,0,1,.033,3.517Z" transform="translate(-81.762 -8.532)" fill="#f39c60"/>
      <path id="Trazado_580556" data-name="Trazado 580556" d="M1388.752-344.952c.8-.736,1.791-.153,2.66-.4.015.136.031.272.046.408a3.081,3.081,0,0,1-.545.361A2.112,2.112,0,0,1,1388.752-344.952Z" transform="translate(-78.219 -55.387)" fill="#fca263"/>
      <path id="Trazado_580557" data-name="Trazado 580557" d="M1393.929-344.3h.4q0,1.177.009,2.354l-.4-.046A1.659,1.659,0,0,1,1393.929-344.3Z" transform="translate(-81.091 -56.023)" fill="#f39b60"/>
      <path id="Trazado_580558" data-name="Trazado 580558" d="M1335.693-378.822l-.505.318a7.98,7.98,0,0,1-6.085-.079l-.388-.325c-1.454-.939-2.215-2.448-3.146-3.819-.237-.348-.412-.974-.946-.746-.628.268-.627.9-.4,1.5.306.8,1.113,1.485.577,2.489a1.619,1.619,0,0,1-.575.318c-3.807.248-7.612.088-11.416.092a2.067,2.067,0,0,1-1.28-.372.488.488,0,0,1-.088-.665l6.6-9.946c.923,1.357,1.728,2.51,2.5,3.685.6.909,1.143.928,1.749.014.751-1.135,1.529-2.251,2.473-3.635,1.537,2.234,3.085,4.279,4.4,6.464a3.613,3.613,0,0,0,3.737,2.017C1335.609-381.68,1335.617-381.556,1335.693-378.822Z" transform="translate(-31.055 -28.145)" fill="#010101"/>
      <path id="Trazado_580559" data-name="Trazado 580559" d="M1408.374-372.424v2.747c-.3.666-.905.363-1.361.364q-12.431.032-24.862.013c-.635,0-1.313.137-1.814-.438a3.607,3.607,0,0,1-.027-2.593c.428-.527,1.024-.472,1.608-.472q12.739,0,25.479.008C1407.751-372.793,1408.2-372.952,1408.374-372.424Z" transform="translate(-72.937 -38.651)" fill="#050505"/>
      <path id="Trazado_580560" data-name="Trazado 580560" d="M1380.326-386.811c.578-.63,1.337-.356,2.015-.36,4.329-.025,8.658-.012,12.988-.012,2.88,0,2.88,0,2.528,3.01a5.024,5.024,0,0,1-2.654.224c-4.273.034-8.547.022-12.82.008-.691,0-1.442.2-2.023-.4A2.916,2.916,0,0,1,1380.326-386.811Z" transform="translate(-72.928 -29.87)" fill="#060707"/>
      <path id="Trazado_580561" data-name="Trazado 580561" d="M1306.71-396.976c.64-.682,1.472-.382,2.214-.383q27.2-.025,54.4-.011c-.642.674-1.473.381-2.216.382Q1333.908-396.964,1306.71-396.976Z" transform="translate(-28.229 -23.657)" fill="#e5eff8"/>
      <path id="Trazado_580562" data-name="Trazado 580562" d="M1408.525-372.782c-8.351-.04-16.7-.1-25.052-.1-.991,0-2.072-.4-2.989.355q-.175-.088-.15-.217c.018-.093.043-.14.075-.14.528-.7,1.3-.466,1.976-.467q12.131-.021,24.261.005C1407.3-373.343,1408.114-373.675,1408.525-372.782Z" transform="translate(-73.088 -38.293)" fill="#e5eff8"/>
      <path id="Trazado_580563" data-name="Trazado 580563" d="M1380.5-365.43c.324.418.787.377,1.241.377q13.017,0,26.034-.007a4.983,4.983,0,0,0,.766-.116c-.283.74-.935.573-1.489.574q-12.518.012-25.037,0c-.57,0-1.186.109-1.59-.471A.212.212,0,0,1,1380.5-365.43Z" transform="translate(-73.101 -43.152)" fill="#e5eff8"/>
      <path id="Trazado_580564" data-name="Trazado 580564" d="M1380.5-380.418c.579.629,1.338.359,2.016.363,5.172.028,10.345.024,15.517.031-.29.459-.755.439-1.211.439h-14.994c-.519,0-1.053.039-1.4-.471A.212.212,0,0,1,1380.5-380.418Z" transform="translate(-73.102 -34.019)" fill="#e5eff8"/>
      <path id="Trazado_580565" data-name="Trazado 580565" d="M1310.429-364.6l.048.508a85.73,85.73,0,0,0,13.254-.006l.033-.42c.905.3,1.305.743.426,1.541-4.409.48-8.83.156-13.246.167-.547,0-1.228-.049-1.256-.892Z" transform="translate(-30.044 -43.657)" fill="#020202"/>
      <path id="Trazado_580566" data-name="Trazado 580566" d="M1309.048-362.3c.461.692,1.171.378,1.763.381,4.369.028,8.739.014,13.108.013.285-.025.515-.006.283.367l.039-.044a1.744,1.744,0,0,1-1.438.45q-6.341.017-12.682,0a1.765,1.765,0,0,1-1.439-.452.55.55,0,0,0-.045-.323Z" transform="translate(-29.403 -45.056)" fill="#626c76"/>
      <path id="Trazado_580567" data-name="Trazado 580567" d="M1426.9-384.2a3.952,3.952,0,0,1-.058-2.348A3.716,3.716,0,0,1,1426.9-384.2Z" transform="translate(-101.339 -30.286)" fill="#eff9fd"/>
      <path id="Trazado_580568" data-name="Trazado 580568" d="M1380.023-384.044c-.022.121-.046.242-.073.361-.612-.828-.306-1.74-.241-2.629,0-.024.1-.062.152-.057a.519.519,0,0,1,.165.081Z" transform="translate(-72.628 -30.393)" fill="#ebf5fd"/>
      <path id="Trazado_580569" data-name="Trazado 580569" d="M1379.974-369.478c-.023.121-.047.242-.074.361a2.894,2.894,0,0,1,0-2.957c.027.12.052.239.074.359Z" transform="translate(-72.578 -39.103)" fill="#ebf5fd"/>
      <path id="Trazado_580570" data-name="Trazado 580570" d="M1281.717-195.59c.58-.04,1.16-.116,1.74-.116q40.624-.009,81.249,0c.581,0,1.161.071,1.742.109l-.394.4a3.647,3.647,0,0,1-1.911.181q-40.257.013-80.513,0a3.519,3.519,0,0,1-1.909-.187C1281.721-195.331,1281.72-195.46,1281.717-195.59Z" transform="translate(-13 -146.566)" fill="#59ed79"/>
      <path id="Trazado_580571" data-name="Trazado 580571" d="M1281.727-194.409l84.333.006c-.579.629-1.341.378-2.024.378q-40.144.019-80.289,0C1283.065-194.025,1282.3-193.769,1281.727-194.409Z" transform="translate(-13.006 -147.359)" fill="#52db70"/>
      <path id="Trazado_580572" data-name="Trazado 580572" d="M1277.811-190.088l.284-.423q35.724.01,71.449.035c.808,0,1.7-.321,2.418.375a3.054,3.054,0,0,1-1.714.184q-35.359.012-70.717,0A3.282,3.282,0,0,1,1277.811-190.088Z" transform="translate(-10.62 -149.711)" fill="#52da6f"/>
      <path id="Trazado_580573" data-name="Trazado 580573" d="M1277.515-189.418l74.151-.013-.041.529q-36.33,0-72.661,0c-.516,0-1.033-.059-1.549-.091a.335.335,0,0,1,.005-.461Z" transform="translate(-10.324 -150.381)" fill="#5af17b"/>
      <path id="Trazado_580574" data-name="Trazado 580574" d="M1497.255-189.51c-.186.887-.907.5-1.381.513-1.733.054-3.468.023-5.2.025,1.088-1.09,2.445-.362,3.668-.515A23.543,23.543,0,0,1,1497.255-189.51Z" transform="translate(-140.322 -150.298)" fill="#5af17b"/>
      <path id="Trazado_580575" data-name="Trazado 580575" d="M1478.358-188.981l-2.682,0A1.8,1.8,0,0,1,1478.358-188.981Z" transform="translate(-131.184 -150.301)" fill="#5af17b"/>
      <path id="Trazado_580576" data-name="Trazado 580576" d="M1390.845-247.036c-1.87.341-2.406-.407-2.38-2.3.092-6.8-.006-13.6-.033-20.406l.324-.154c.762.157,1.693-.5,2.287.475.025,6.959.007,13.916,0,20.874A2.324,2.324,0,0,1,1390.845-247.036Z" transform="translate(-78.024 -101.319)" fill="#e9965c"/>
      <path id="Trazado_580577" data-name="Trazado 580577" d="M1394.609-246.823q.009-11.346.018-22.691a.241.241,0,0,1,.4,0c.138,7.663.2,15.327-.034,22.989Z" transform="translate(-81.788 -101.532)" fill="#f49c61"/>
      <path id="Trazado_580578" data-name="Trazado 580578" d="M1382.232-247.116v16.109l-.19,0V-247.2Z" transform="translate(-74.131 -115.195)" fill="#bc641f"/>
      <path id="Trazado_580579" data-name="Trazado 580579" d="M1381.669-270.555a6.942,6.942,0,0,1,2.7-.065q.193.117.167.275t-.082.17l-.144-.026c-1.732-.255-2.525.369-2.286,2.225a4.947,4.947,0,0,1-.357,2.963Z" transform="translate(-73.903 -100.861)" fill="#be641f"/>
      <path id="Trazado_580580" data-name="Trazado 580580" d="M1291.988-381.661V-402.2h.189v20.555Z" transform="translate(-19.259 -20.748)" fill="#010101"/>
      <path id="Trazado_580581" data-name="Trazado 580581" d="M1410.524-303.836a25.007,25.007,0,0,1-6.947.143,10.44,10.44,0,0,0-.005-1.363c-.135-1.047.172-1.666,1.338-1.424,2.912.6,4.692-.685,6.014-3.211a55.4,55.4,0,0,1,3.527-5.223c.838,1.213,1.64,2.282,2.342,3.413.646,1.04,1.144,1.236,1.973.119.816-1.1,1.244-3.117,2.552-3.026.853.06,1.583,2.026,2.35,3.15q2.58,3.777,5.143,7.567c-.446.917-1.3.707-2.05.709-4.084.012-8.168.029-12.247,0-1.835-.541-1-1.619-.419-2.509.682-1.054,1.541-2.009.392-3.252C1413.005-307.239,1412.318-305.091,1410.524-303.836Z" transform="translate(-87.231 -73.933)" fill="#010101"/>
      <path id="Trazado_580582" data-name="Trazado 580582" d="M1352.8-295.084c-.545.7-1.317.425-2,.427q-11.612.025-23.223.011c-2.829,0-2.829,0-2.788-2.918.362-.584.943-.317,1.417-.318q12.379-.028,24.757-.009c.637,0,1.315-.143,1.842.394A1.8,1.8,0,0,1,1352.8-295.084Z" transform="translate(-39.24 -84.273)" fill="#060503"/>
      <path id="Trazado_580583" data-name="Trazado 580583" d="M1350.1-311.721c.362-.495.893-.437,1.412-.437q7.5,0,15.007,0c.518,0,1.05-.061,1.414.433a1.424,1.424,0,0,1,0,2.124c-.363.5-.895.435-1.413.435q-7.506,0-15.011,0c-.519,0-1.05.059-1.409-.441A1.406,1.406,0,0,1,1350.1-311.721Z" transform="translate(-54.376 -75.61)" fill="#070704"/>
      <path id="Trazado_580584" data-name="Trazado 580584" d="M1384.555-321.763h-57.5v-.195h57.583Z" transform="translate(-40.625 -69.64)" fill="#fef190"/>
      <path id="Trazado_580585" data-name="Trazado 580585" d="M1352.813-297.461a1.358,1.358,0,0,0-1.214-.439q-13.4.046-26.8.074c.328-.7.977-.524,1.533-.525q12.572-.013,25.143-.005c.515,0,1.054-.063,1.431.418A.359.359,0,0,1,1352.813-297.461Z" transform="translate(-39.253 -84.013)" fill="#fef290"/>
      <path id="Trazado_580586" data-name="Trazado 580586" d="M1429.153-285.929c4.211-.036,8.422-.064,12.632-.112.773-.009,1.545-.095,2.317-.145a.676.676,0,0,1,.172.282c-.006.145-.012.29-.018.435a63.559,63.559,0,0,1-8.875.17,35.3,35.3,0,0,1-6.743-.17q.014-.184.039-.366A.291.291,0,0,1,1429.153-285.929Z" transform="translate(-102.522 -91.437)" fill="#fefb66"/>
      <path id="Trazado_580587" data-name="Trazado 580587" d="M1476.921-322.24q0,7,0,14c-.567-.526-.347-1.216-.35-1.839q-.03-5.159,0-10.318C1476.576-321.024,1476.354-321.715,1476.921-322.24Z" transform="translate(-131.707 -69.468)" fill="#fef693"/>
      <path id="Trazado_580588" data-name="Trazado 580588" d="M1397.293-297.334a2.906,2.906,0,0,1,0,3.122A5.486,5.486,0,0,1,1397.293-297.334Z" transform="translate(-83.286 -84.644)" fill="#f8e98b"/>
      <path id="Trazado_580589" data-name="Trazado 580589" d="M1348.979-309.2a2.907,2.907,0,0,1,0-3.121A5.482,5.482,0,0,1,1348.979-309.2Z" transform="translate(-53.708 -75.511)" fill="#f8e98b"/>
      <path id="Trazado_580590" data-name="Trazado 580590" d="M1397.294-312.324a2.907,2.907,0,0,1,0,3.121A5.484,5.484,0,0,1,1397.294-312.324Z" transform="translate(-83.286 -75.511)" fill="#f8e98b"/>
      <path id="Trazado_580591" data-name="Trazado 580591" d="M1349.688-309.2v-3.121l.453.5a4.528,4.528,0,0,1,0,2.114Z" transform="translate(-54.417 -75.511)" fill="#fefd98"/>
      <path id="Trazado_580592" data-name="Trazado 580592" d="M1396.751-297.334v3.122l-.451-.5a4.518,4.518,0,0,1,0-2.117q.047-.238.1-.477A2.52,2.52,0,0,1,1396.751-297.334Z" transform="translate(-82.743 -84.644)" fill="#fefd98"/>
      <path id="Trazado_580593" data-name="Trazado 580593" d="M1396.754-312.324q0,1.561,0,3.121l-.45-.5a4.652,4.652,0,0,1,0-2.124Z" transform="translate(-82.747 -75.511)" fill="#fefd98"/>
      <ellipse id="Elipse_7269" data-name="Elipse 7269" cx="41.281" cy="0.101" rx="41.281" ry="0.101" transform="translate(1264.101 -404.546)" fill="#c7dbee"/>
      <path id="Trazado_580594" data-name="Trazado 580594" d="M1344.6-369.847l-.284-.367a1.9,1.9,0,0,0-.8-1.21c-.4-.65-.828-1.288-1.2-1.954-.659-1.172.438-1.846,1-2.377.637-.607.816.5,1.08.87,1.076,1.49,2.053,3.05,3.066,4.584C1346.615-369.473,1345.482-370.462,1344.6-369.847Z" transform="translate(-49.802 -36.752)" fill="#dde7f0"/>
      <path id="Trazado_580595" data-name="Trazado 580595" d="M1308.723-360.473l15.56,0,.04.447a44.765,44.765,0,0,1-7.712.175,48.107,48.107,0,0,1-7.907-.172Z" transform="translate(-29.444 -46.172)" fill="#d4e9fe"/>
      <path id="Trazado_580596" data-name="Trazado 580596" d="M1308.7-359.321l15.618,0A61.484,61.484,0,0,1,1308.7-359.321Z" transform="translate(-29.444 -46.872)" fill="#c0d3e6"/>
      <path id="Trazado_580597" data-name="Trazado 580597" d="M1356.723-360.683l6.085.079.507.455a23.087,23.087,0,0,1-6.638.007Z" transform="translate(-58.675 -46.044)" fill="#d4e9fe"/>
      <path id="Trazado_580598" data-name="Trazado 580598" d="M1356.677-359.311l6.638-.007A11.813,11.813,0,0,1,1356.677-359.311Z" transform="translate(-58.675 -46.876)" fill="#c0d3e6"/>
      <path id="Trazado_580599" data-name="Trazado 580599" d="M1424.752-295.109l-.477.093c-.946-.205-2.027.365-2.86-.5l3.769-5.74c1.737,1.275,1.825,2.516.492,4.034C1425.2-296.679,1424.275-296.144,1424.752-295.109Z" transform="translate(-98.121 -82.257)" fill="#f8ea8b"/>
      <path id="Trazado_580600" data-name="Trazado 580600" d="M1428.637-284.352h15.618c-.156.109-.31.314-.466.314q-7.343.025-14.686,0C1428.947-284.038,1428.792-284.243,1428.637-284.352Z" transform="translate(-102.522 -92.555)" fill="#f8e35a"/>
      <path id="Trazado_580601" data-name="Trazado 580601" d="M1410.288-284.709a11.889,11.889,0,0,1-6.636,0A23.839,23.839,0,0,1,1410.288-284.709Z" transform="translate(-87.298 -92.195)" fill="#f8e35a"/>
      <path id="Trazado_580602" data-name="Trazado 580602" d="M1410.256-285h-6.636c0-.129-.009-.257-.021-.386l.033-.034C1405.829-285.106,1408.091-285.812,1410.256-285Z" transform="translate(-87.266 -91.903)" fill="#fefb66"/>
      <path id="Trazado_580603" data-name="Trazado 580603" d="M1272.825-189.45l0,.461c-1.02-.1-2.149.571-3.036-.438Z" transform="translate(-5.729 -150.381)" fill="#03e543"/>
      <path id="Trazado_580604" data-name="Trazado 580604" d="M1390.89-344.319q0,1.154.006,2.308c-1.955.409-2.721-.369-2.312-2.318Z" transform="translate(-78.052 -56.008)" fill="#e8955b"/>
      <path id="Trazado_580605" data-name="Trazado 580605" d="M1388.669-270.31l-.085-.445c.938.054,2-.678,2.77.435h-.4Z" transform="translate(-78.117 -100.726)" fill="#fca263"/>
      <path id="Trazado_580606" data-name="Trazado 580606" d="M1327.726-373.212h-4.077a11.777,11.777,0,0,1,1.829-3.07A14.559,14.559,0,0,1,1327.726-373.212Z" transform="translate(-38.55 -36.539)" fill="#50d76d"/>
      <path id="Trazado_580607" data-name="Trazado 580607" d="M1324.962-363.318c-.367.5-.911.395-1.413.4q-5.209.009-10.418,0c-.505,0-1.044.09-1.422-.39Z" transform="translate(-31.274 -44.439)" fill="#030404"/>
      <path id="Trazado_580608" data-name="Trazado 580608" d="M1447.643-297.8h-4.353c.688-1.129,1.157-2.7,2.067-2.718C1446.352-300.536,1446.625-298.863,1447.643-297.8Z" transform="translate(-111.451 -82.704)" fill="#50d86d"/>
    </g>
  </g>
</svg>
