<svg xmlns="http://www.w3.org/2000/svg" width="107" height="107" viewBox="0 0 107 107">
  <g id="Grupo_845171" data-name="Grupo 845171" transform="translate(-240 -1286.742)">
    <rect id="Rect치ngulo_38178" data-name="Rect치ngulo 38178" width="107" height="107" transform="translate(240 1286.742)" fill="none"/>
    <g id="Grupo_845173" data-name="Grupo 845173" transform="translate(261.887 1294.67)">
      <g id="Grupo_844326" data-name="Grupo 844326" transform="translate(0 0)">
        <path id="Trazado_581654" data-name="Trazado 581654" d="M3864.244-813.55c-1.353-1.215-.651-2.418.029-3.613,6.275-11.026,15.672-17.068,28.439-16.828,12.864.242,22.194,6.663,27.854,18.088a31.965,31.965,0,0,1-5.271,35.634c-.905,1-1.819,1.986-2.708,3a12.007,12.007,0,0,0-3.223,8.937c.154,2.686.059,5.387.06,8.081a8.286,8.286,0,0,1-3.123,6.906,2.47,2.47,0,0,0-.977,2.152c-.135,5.128-3.376,8.293-8.476,8.325-2.977.019-5.955.024-8.933,0a7.942,7.942,0,0,1-8.34-8.045,3.274,3.274,0,0,0-1.256-2.694,7.775,7.775,0,0,1-2.8-6.179c-.022-2.907-.091-5.814-.06-8.721a11.087,11.087,0,0,0-2.625-7.448c-1.224-1.469-2.554-2.848-3.824-4.279a32.054,32.054,0,0,1-8.023-27.161c.191-1.307.683-2.12,2.043-2.263a1.626,1.626,0,0,1,1.727,1.26,2.347,2.347,0,0,1,.049.99c-1.807,10.543,1.549,19.369,8.965,26.821,1.613,1.622,3.257,3.3,3.946,5.459.755,2.373,2.147,3.11,4.422,2.726.245-.008.484-.009.727-.008,7.481-.076,14.96.168,22.428-.139.25-.125.542-.238.631-.527,1.359-4.36,4.6-7.418,7.432-10.757a26.207,26.207,0,0,0,6.354-15.453,11.887,11.887,0,0,0-.059-5.953c-.726-11.119-10.057-21.827-20.935-24.3a28.36,28.36,0,0,0-15.272.67,27.168,27.168,0,0,0-15.244,12.41,14.46,14.46,0,0,1-1.473,2.322C3866.067-813.375,3865.331-812.636,3864.244-813.55Z" transform="translate(-3860.569 833.998)"/>
        <path id="Trazado_581655" data-name="Trazado 581655" d="M3867.711-801.908l-1.371-1.386q.608-1.945,1.217-3.89c1.511.321,2.109-.637,2.7-1.788a28.121,28.121,0,0,1,15.053-13.625,9.706,9.706,0,0,1,1.211-.313c.134,1.292-1,1.6-1.744,2.14-7.282,5.26-12.057,12.106-13.163,21.158a29.289,29.289,0,0,0,7.559,24.1c2.125,2.367,4.417,4.6,5.813,7.523.383.806.977,1.63.25,2.561-2.235.482-3.7.152-4.464-2.526-.841-2.952-3.248-5.065-5.346-7.27a28.864,28.864,0,0,1-8.041-24.87,8.788,8.788,0,0,1,.337-1.207C3868.231-801.516,3868.119-801.715,3867.711-801.908Z" transform="translate(-3863.884 827.631)" fill="#f9a414"/>
        <path id="Trazado_581656" data-name="Trazado 581656" d="M3891.168-767.68c-.665-3.874-3.424-6.43-5.928-9.059a29.862,29.862,0,0,1-8.446-24.021c.828-9.7,5.734-17.255,13.727-22.812.677-.471,1.563-.73,1.934-1.588,10.5-3.579,19.844-1.313,27.967,5.917a26.315,26.315,0,0,1,9.022,17.94,2.157,2.157,0,0,0-.35.81c.117,1.7.09,3.395.039,5.093a1.407,1.407,0,0,0,.343.478c-.423,6.743-3.315,12.376-7.869,17.213-2.7,2.867-5.1,5.88-6.125,9.779-7.275.049-14.549.007-21.825.035a3.568,3.568,0,0,0-2.067.21Z" transform="translate(-3869.812 829.883)" fill="#f9d107"/>
        <path id="Trazado_581657" data-name="Trazado 581657" d="M3911.22-674.887h-.419a3.766,3.766,0,0,1-.419-.642c-.245-1.515-.582-3.042.433-4.434,7.413-.026,14.826-.031,22.239-.1,1.174-.011,1.759.33,1.568,1.547s.508,2.506-.409,3.625a5.763,5.763,0,0,0-3.732.06c-.741.557-1.562,1.079-1.108,2.225.424,1.073,1.353,1.022,2.292,1.114.975.1,2.462-.632,2.815.526.4,1.313-.583,2.564-1.642,3.461a3.8,3.8,0,0,1-2.884,1.12c-4.138-.506-8.292-.134-12.437-.2-1.385-.023-2.807-.313-4.173.214l-.206.049-.208-.035c-1.96-1.444-2.655-3.115-2.106-5.077,3.877-.028,7.753-.063,11.63-.078,1.03,0,2.038-.043,2.381-1.256.328-1.157-.54-1.624-1.342-2.1A62.85,62.85,0,0,0,3911.22-674.887Z" transform="translate(-3889.024 745.608)" fill="#4f748c"/>
        <path id="Trazado_581658" data-name="Trazado 581658" d="M3918.847-633.534a2.486,2.486,0,0,1-2.138-.82c-1.292-2.361-.88-3.21,1.775-3.276,4.357-.107,8.717-.061,13.076-.014a2.834,2.834,0,0,1,2.146.7,3.967,3.967,0,0,1-3.787,3.386A54.694,54.694,0,0,0,3918.847-633.534Z" transform="translate(-3892.398 721.282)" fill="#4f748c"/>
        <path id="Trazado_581659" data-name="Trazado 581659" d="M3931.792-638.382q-7.507-.005-15.014-.009c-2.6,0-2.6.007-1.983,2.6a2.971,2.971,0,0,1-1.374-1.277,2.722,2.722,0,0,1-.607-2.578c.4-.9,1.389-.429,2.1-.435,5.233-.041,10.469.026,15.7-.052C3932.165-640.159,3932.294-639.569,3931.792-638.382Z" transform="translate(-3890.484 722.721)" fill="#2a587e"/>
        <path id="Trazado_581660" data-name="Trazado 581660" d="M3906.953-659.982a10.274,10.274,0,0,0,2.106,5.077c-2.794.035-4.736-1.132-5.443-3.307-.363-1.118-.52-2.121,1.249-1.865A20.28,20.28,0,0,0,3906.953-659.982Z" transform="translate(-3885.154 734.156)" fill="#2a587d"/>
        <path id="Trazado_581661" data-name="Trazado 581661" d="M3907.052-679.833l-.023,4.634c-.781.549-1.78-.148-2.554.446l-.2.042-.207-.029a6.9,6.9,0,0,1-.008-5.091Z" transform="translate(-3885.262 745.477)" fill="#2a587e"/>
        <path id="Trazado_581662" data-name="Trazado 581662" d="M3911.712-689.117c.627-.69,1.458-.413,2.2-.416,6.436-.021,12.872-.075,19.3.071.765.017,1.692-1.28,2.386.1-.238.115-.476.329-.713.329Q3923.3-689.055,3911.712-689.117Z" transform="translate(-3889.935 751.314)" fill="#fed807"/>
        <path id="Trazado_581663" data-name="Trazado 581663" d="M3917.687-648.406c.167-.123.334-.351.5-.352q7.8-.031,15.6-.006c.169,0,.338.225.507.345Z" transform="translate(-3893.366 727.644)" fill="#557b94"/>
        <path id="Trazado_581664" data-name="Trazado 581664" d="M3912.7-668.584c.77-.779,1.746-.41,2.626-.422,3.257-.046,6.517-.02,9.775-.012.107,0,.214.1.32.155l-.448.3Z" transform="translate(-3890.5 739.305)" fill="#537993"/>
        <ellipse id="Elipse_7337" data-name="Elipse 7337" cx="0.113" cy="8.287" rx="0.113" ry="8.287" transform="translate(47.852 60.675)" fill="#050505"/>
        <path id="Trazado_581665" data-name="Trazado 581665" d="M3922.684-628.664c1.2-.88,2.578-.452,3.848-.4,2.408.091,4.863-.541,7.225.381A109.365,109.365,0,0,1,3922.684-628.664Z" transform="translate(-3896.235 716.412)" fill="#557c96"/>
        <path id="Trazado_581666" data-name="Trazado 581666" d="M3999.753-760.5h-.438a17.47,17.47,0,0,1,0-5.957l.408-.422A14.884,14.884,0,0,1,3999.753-760.5Z" transform="translate(-3940.089 795.459)" fill="#fedd07"/>
        <path id="Trazado_581667" data-name="Trazado 581667" d="M3903.637-679.828q.005,2.545.008,5.091A4.46,4.46,0,0,1,3903.637-679.828Z" transform="translate(-3884.844 745.475)" fill="#2d5e86"/>
        <path id="Trazado_581668" data-name="Trazado 581668" d="M3957.929-668.493c.99-.694,2.007-.71,3.732-.06Z" transform="translate(-3916.473 739.273)" fill="#527993"/>
        <path id="Trazado_581669" data-name="Trazado 581669" d="M3905.693-668.533c.738-.791,1.7-.306,2.554-.446,0,.147.006.3.009.442Z" transform="translate(-3886.479 739.257)" fill="#2d5e86"/>
        <path id="Trazado_581670" data-name="Trazado 581670" d="M3869.56-773.738c.8-.382.434.324.48.56.037.185.148.549-.243.551-.073,0-.148-.328-.223-.5C3869.57-773.334,3869.566-773.536,3869.56-773.738Z" transform="translate(-3865.731 799.461)" fill="#fdac15"/>
        <path id="Trazado_581671" data-name="Trazado 581671" d="M3998.965-765.887v5.957A8.884,8.884,0,0,1,3998.965-765.887Z" transform="translate(-3939.741 794.889)" fill="#f4cd06"/>
        <path id="Trazado_581672" data-name="Trazado 581672" d="M3927.345-716.1l1.442.018c.2.095.6.347.451.369a9.862,9.862,0,0,1-2.407-.017C3926.767-715.732,3927.132-716.005,3927.345-716.1Z" transform="translate(-3898.613 766.299)" fill="#fedc07"/>
        <path id="Trazado_581673" data-name="Trazado 581673" d="M3975.858-773.05a1.992,1.992,0,0,1,.046,1.842A2.012,2.012,0,0,1,3975.858-773.05Z" transform="translate(-3926.652 799.002)" fill="#fdda07"/>
        <path id="Trazado_581674" data-name="Trazado 581674" d="M3892.892-754.361c-.315-.457-.309-1.147-.1-1.206.547-.156.217.4.277.639C3893.1-754.782,3892.971-754.592,3892.892-754.361Z" transform="translate(-3878.986 788.979)" fill="#fddb07"/>
        <path id="Trazado_581675" data-name="Trazado 581675" d="M3905.824-767.513h-1.268C3905.018-768.09,3905.464-767.682,3905.824-767.513Z" transform="translate(-3885.826 795.994)" fill="#fedd07"/>
      </g>
      <g id="Grupo_844331" data-name="Grupo 844331" transform="translate(16.243 18.632)">
        <rect id="Rect치ngulo_280250" data-name="Rect치ngulo 280250" width="10.808" height="10.808" transform="translate(15.293 7.387) rotate(45)" fill="#feac15"/>
        <g id="Grupo_844327" data-name="Grupo 844327" transform="translate(14.092 0)">
          <path id="Trazado_581676" data-name="Trazado 581676" d="M3934.812-780.055l5.763-5.763a4.881,4.881,0,0,1,6.9,0h0a4.881,4.881,0,0,1,0,6.9l-5.765,5.764" transform="translate(-3933.534 788.523)" fill="#feac15"/>
          <path id="Trazado_581677" data-name="Trazado 581677" d="M3939.087-773.969a1.278,1.278,0,0,1,0-1.806l5.765-5.764a3.609,3.609,0,0,0,0-5.1,3.609,3.609,0,0,0-5.1,0l-5.763,5.764a1.277,1.277,0,0,1-1.806,0,1.276,1.276,0,0,1,0-1.806l5.764-5.764a6.166,6.166,0,0,1,8.708,0,6.164,6.164,0,0,1,0,8.709l-5.764,5.764A1.278,1.278,0,0,1,3939.087-773.969Z" transform="translate(-3931.812 790.241)"/>
        </g>
        <g id="Grupo_844328" data-name="Grupo 844328" transform="translate(0 14.092)">
          <path id="Trazado_581678" data-name="Trazado 581678" d="M3915.805-747.245l-5.764,5.764a4.88,4.88,0,0,1-6.9,0h0a4.88,4.88,0,0,1,0-6.9l5.764-5.764" transform="translate(-3900.435 755.424)" fill="#feac15"/>
          <path id="Trazado_581679" data-name="Trazado 581679" d="M3900.517-742.3a6.166,6.166,0,0,1,0-8.708l5.764-5.764a1.277,1.277,0,0,1,1.806,0,1.277,1.277,0,0,1,0,1.807l-5.764,5.764a3.607,3.607,0,0,0,0,5.1,3.607,3.607,0,0,0,5.095,0l5.765-5.764a1.278,1.278,0,0,1,1.807,0,1.277,1.277,0,0,1,0,1.807l-5.764,5.764A6.165,6.165,0,0,1,3900.517-742.3Z" transform="translate(-3898.717 757.147)"/>
        </g>
        <g id="Grupo_844329" data-name="Grupo 844329" transform="translate(0 0)">
          <path id="Trazado_581680" data-name="Trazado 581680" d="M3908.9-773.153l-5.764-5.764a4.879,4.879,0,0,1,0-6.9h0a4.88,4.88,0,0,1,6.9,0l5.764,5.763" transform="translate(-3900.435 788.523)" fill="#feac15"/>
          <path id="Trazado_581681" data-name="Trazado 581681" d="M3906.281-773.969l-5.764-5.764a6.165,6.165,0,0,1,0-8.708,6.166,6.166,0,0,1,8.708,0l5.764,5.764a1.278,1.278,0,0,1,0,1.806,1.277,1.277,0,0,1-1.807,0l-5.765-5.764a3.606,3.606,0,0,0-5.095,0,3.607,3.607,0,0,0,0,5.1l5.764,5.764a1.276,1.276,0,0,1,0,1.807A1.277,1.277,0,0,1,3906.281-773.969Z" transform="translate(-3898.717 790.241)"/>
        </g>
        <g id="Grupo_844330" data-name="Grupo 844330" transform="translate(14.092 14.092)">
          <path id="Trazado_581682" data-name="Trazado 581682" d="M3934.812-747.245l5.763,5.764a4.881,4.881,0,0,0,6.9,0h0a4.881,4.881,0,0,0,0-6.9l-5.765-5.764" transform="translate(-3933.534 755.424)" fill="#feac15"/>
          <path id="Trazado_581683" data-name="Trazado 581683" d="M3937.95-742.3l-5.764-5.764a1.277,1.277,0,0,1,0-1.807,1.278,1.278,0,0,1,1.807,0l5.764,5.764a3.607,3.607,0,0,0,5.095,0,3.608,3.608,0,0,0,0-5.1l-5.764-5.764a1.277,1.277,0,0,1,0-1.806,1.277,1.277,0,0,1,1.807,0l5.764,5.764a6.166,6.166,0,0,1,0,8.708A6.164,6.164,0,0,1,3937.95-742.3Z" transform="translate(-3931.812 757.146)"/>
        </g>
      </g>
    </g>
  </g>
</svg>
