<svg xmlns="http://www.w3.org/2000/svg" width="81.396" height="81.396" viewBox="0 0 81.396 81.396">
  <g id="Grupo_845187" data-name="Grupo 845187" transform="translate(-240 -1286.742)">
    <rect id="Rectángulo_38178" data-name="Rectángulo 38178" width="81.396" height="81.396" transform="translate(240 1286.742)" fill="none"/>
    <g id="Grupo_845192" data-name="Grupo 845192" transform="translate(301.558 2251.271)">
      <path id="Trazado_572658" data-name="Trazado 572658" d="M2.1-895.49a1.2,1.2,0,0,1-1.579.935c-1.3-.239-1.78.386-2.007,1.55-.2,1.031-.567,2.031-.851,3.047a1.789,1.789,0,0,1-1.915,1.432q-7.445-.01-14.889,0a1.759,1.759,0,0,1-1.937-1.856c-.035-.5,0-1.011-.012-1.516-.02-.823.225-1.825-.158-2.417s-1.45-.145-2.213-.228a1.647,1.647,0,0,1-1.623-1.567,10.29,10.29,0,0,1-.033-1.239q0-29.436,0-58.871c0-2.607.31-2.911,2.945-2.911H42.485c2.244,0,2.665.411,2.665,2.638q0,29.574,0,59.147c0,2.455-.336,2.849-2.763,2.783-1.037-.028-1.394.246-1.286,1.292a19.613,19.613,0,0,1,.012,2.755c-.051,1.336-.651,1.976-1.944,1.982-4.963.021-9.926.005-14.889.011a1.791,1.791,0,0,1-1.913-1.437,28.508,28.508,0,0,1-.893-3.176c-.2-1.237-.846-1.441-1.966-1.425-4.319.061-8.639.011-12.959.036-.864.005-1.561-.115-1.786-1.089-.137-.881.482-1.108,1.132-1.242a8.869,8.869,0,0,1,1.788-.062q16.473,0,32.947,0c2.079,0,2.084-.005,2.084-2.053q0-27.779-.007-55.558c0-.62.192-1.3-.375-1.816a4.165,4.165,0,0,0-1.9-.176q-28.514-.009-57.026,0c-1.932.118-3.887-.283-5.8.242a2.212,2.212,0,0,0-.281,1.59q-.01,27.971,0,55.942c0,1.785.05,1.831,1.879,1.832q10.058.007,20.115,0a14.086,14.086,0,0,1,1.927.056C1.954-896.673,2.352-896.284,2.1-895.49Z" transform="translate(-30.877)" fill="#010000"/>
      <path id="Trazado_572659" data-name="Trazado 572659" d="M23.422-889.764a1.479,1.479,0,0,0-.632-1.058,1.26,1.26,0,0,0-.458-.22c-5.3-.082-10.6-.009-15.906-.04a4.77,4.77,0,0,1-1.766-.132.878.878,0,0,1-.162-1.218.782.782,0,0,1,.5-.185c1.7.085,3.4.036,5.1.038,16.768.019,33.536-.028,50.3.023.246.03.565.141.39-.341.44-.651,1.279-.926,1.571-1.71.081-1.565.026-3.126.026-4.685q.008-23.336,0-46.673a14.938,14.938,0,0,0-.067-2.2c0-1.111.949-1.707,1.412-2.569a.471.471,0,0,1,.287.387q.007,28.878,0,57.752a3.85,3.85,0,0,1-.074,1.231,2.827,2.827,0,0,1-1.486.135c-11.588.009-23.175.007-34.49.007-.455.065-.179.312-.291.166-.036-.047,0-.061.1-.094a4.181,4.181,0,0,1,1.355-.06q16.676-.01,33.351-.02c.506,0,1.1.279,1.527-.271.034-19.564,0-39.129.014-58.691a.527.527,0,0,0-.177-.452c-.14-.328.146-.427.318-.588.484.339.24.84.24,1.257q.02,28.868.04,57.736c0,1.183-.353,1.415-1.463,1.411-11.62-.041-23.24-.023-34.859-.03-.846,0-1.694-.074-2.036.962Z" transform="translate(-52.198 -5.726)" fill="#e89a57"/>
      <path id="Trazado_572660" data-name="Trazado 572660" d="M6.741-891.074l0,.256c-7.71-.009-15.42-.043-23.129,0-1.159.007-1.427-.331-1.425-1.452q.051-28.845.037-57.69c0-.418-.242-.92.236-1.264,1.817.364,3.653.066,5.476.164.144,0,.289,0,.433.005a.352.352,0,0,1,.294.261c-.032.379.22.829-.269,1.1-.13.008-.262.011-.392.01-.511,0-1.023,0-1.373,0a11.559,11.559,0,0,0,2.039-.067,4.216,4.216,0,0,1,1.771-.183q26.447-.007,52.894,0a5.283,5.283,0,0,1,1.641.126c.233.141.515.258.317.619a4.052,4.052,0,0,1-2.537.38q-27.4.016-54.795,0a7.212,7.212,0,0,0-3.592.7c-.044-.008-.089-.018-.134-.025s-.082-.01-.123-.015c.3,17.393.049,34.787.132,52.18a9.786,9.786,0,0,0,.036,1.369c.275.778,1.076,1.073,1.549,1.665.772.475,1.77-.216,2.5.481a1.06,1.06,0,0,1,.062.45c-.006.374,0,.8-.514.781-1.744-.076-3.5.262-5.234-.188-.082-3.951-.03-7.9-.032-11.852q-.012-22.673,0-45.346a4.329,4.329,0,0,1-.013-1.15c0,19.228,0,38.694,0,58.159.128.629.637.385.99.391,1.675.027,3.35.008,5.026.007,5.544.01,11.087,0,16.631.01A2.993,2.993,0,0,1,6.741-891.074Z" transform="translate(-36.151 -5.73)" fill="#d68954"/>
      <path id="Trazado_572661" data-name="Trazado 572661" d="M176.658-724.019v2.759c-.477.4-1.05.266-1.59.27-2.756.024-5.512-.021-8.267.026-.164.029-.328.058-.491.089a1.088,1.088,0,0,1-.6-.416c-.282-.968-1.222-1.91-.128-2.939,3.392-.136,6.785-.034,10.177-.056A1.279,1.279,0,0,1,176.658-724.019Z" transform="translate(-168.575 -170.027)" fill="#a34f3e"/>
      <path id="Trazado_572662" data-name="Trazado 572662" d="M23.906-723.733a10.952,10.952,0,0,1-.811,2.761.5.5,0,0,1-.486.035c-2.606-.119-5.214-.015-7.821-.056a4.022,4.022,0,0,1-1.627-.141,2.867,2.867,0,0,1-.26-2.745.752.752,0,0,1,.379-.345c3.211-.159,6.424-.041,9.637-.063a1.053,1.053,0,0,1,.873.321Z" transform="translate(-58.244 -170.022)" fill="#a34f3e"/>
      <path id="Trazado_572663" data-name="Trazado 572663" d="M-23.358-951.907v60.542H-23.5v-60.586Z" transform="translate(-32.052 -5.202)" fill="#030303"/>
      <path id="Trazado_572664" data-name="Trazado 572664" d="M227.621-951.917v60.476h-.138v-60.532Z" transform="translate(-213.769 -5.186)" fill="#030303"/>
      <path id="Trazado_572665" data-name="Trazado 572665" d="M64.551-951.455l-.283.305a3.227,3.227,0,0,1-1.854.392q-27.872,0-55.745-.006a2.284,2.284,0,0,1-1.7-.385v0q-.21-.159,0-.318c.365-.024.729-.07,1.094-.07q28.7-.005,57.4,0C63.825-951.539,64.188-951.485,64.551-951.455Z" transform="translate(-52.586 -5.498)" fill="#fca65f"/>
      <path id="Trazado_572666" data-name="Trazado 572666" d="M1.994-724.15l.015,2.758.064.232a.481.481,0,0,1-.424.178,28.87,28.87,0,0,1-4.319-.13v-3.037A8.331,8.331,0,0,1,1.994-724.15Z" transform="translate(-47.131 -169.896)" fill="#873f2e"/>
      <path id="Trazado_572667" data-name="Trazado 572667" d="M155.278-724.006c-.115.979.568,1.794.566,2.75.035.3-.136.411-.4.4a19.363,19.363,0,0,1-3.52-.108,8.849,8.849,0,0,1-.789-2.77c.285-.653.875-.546,1.407-.549.771,0,1.543-.038,2.313.031A.749.749,0,0,1,155.278-724.006Z" transform="translate(-158.494 -170.035)" fill="#873e2e"/>
      <path id="Trazado_572668" data-name="Trazado 572668" d="M1.994-724.664H-2.671c0-.558.415-.5.774-.505q7.047-.016,14.094-.024c.573,0,1.109.029.6.82l-.091-.046a.6.6,0,0,0-.534-.369c-3.385.055-6.774-.187-10.156.127Z" transform="translate(-47.13 -169.382)" fill="#8d4230"/>
      <path id="Trazado_572669" data-name="Trazado 572669" d="M154.583-724.76c-1.291.129-2.621-.273-3.881.283-.541-1.08.369-.77.8-.775,2.89-.032,5.781-.029,8.671-.034,1.56,0,3.12-.018,4.68.011.426.008.926-.215,1.272.252-3.308.286-6.622.041-9.932.132A3.458,3.458,0,0,0,154.583-724.76Z" transform="translate(-158.056 -169.289)" fill="#8e4230"/>
      <path id="Trazado_572670" data-name="Trazado 572670" d="M165.2-724.052c.41-.435.944-.254,1.423-.256,3.372-.015,6.744-.007,10.116-.007a.278.278,0,0,1,.017.267l-11.3,0Z" transform="translate(-168.676 -169.997)" fill="#ab5241"/>
      <path id="Trazado_572671" data-name="Trazado 572671" d="M168.922-712.714l.273,0a77.537,77.537,0,0,1,10.19,0c-.115.437-.482.351-.779.35q-4.849-.015-9.7-.047-.113-.106-.07-.206C168.868-712.682,168.9-712.714,168.922-712.714Z" transform="translate(-171.301 -178.295)" fill="#b05543"/>
      <path id="Trazado_572672" data-name="Trazado 572672" d="M180.351-713.067l-10.19,0c.406-.443.942-.264,1.423-.267,2.922-.016,5.844-.008,8.767-.008Q180.35-713.206,180.351-713.067Z" transform="translate(-172.266 -177.942)" fill="#9f4d3c"/>
      <path id="Trazado_572673" data-name="Trazado 572673" d="M23.632-712.718l.33.019c-.158.386-.5.338-.815.337q-4.586-.021-9.172-.054-.132-.1-.086-.2c.031-.065.062-.1.092-.1l.008.005A69.514,69.514,0,0,1,23.632-712.718Z" transform="translate(-59.111 -178.296)" fill="#b05543"/>
      <path id="Trazado_572674" data-name="Trazado 572674" d="M-10.687-951.51c0,.106,0,.212,0,.318-1.6,0-3.2.006-4.8-.01-.438,0-.929.146-1.275-.292A48.351,48.351,0,0,1-10.687-951.51Z" transform="translate(-36.93 -5.458)" fill="#e9955b"/>
      <path id="Trazado_572675" data-name="Trazado 572675" d="M-8.5-719.839v-4.315h.138v4.292Z" transform="translate(-42.913 -170.133)" fill="#040404"/>
      <path id="Trazado_572676" data-name="Trazado 572676" d="M212.56-724.15v4.318h-.13v-4.318Z" transform="translate(-202.87 -170.137)" fill="#040404"/>
      <path id="Trazado_572677" data-name="Trazado 572677" d="M2-712.281q0,.15-.006.3c-1.553-.121-3.151.449-4.664-.3Z" transform="translate(-47.131 -178.731)" fill="#924431"/>
      <path id="Trazado_572678" data-name="Trazado 572678" d="M158.184-713.01c0,.1-.009.2-.013.3-1.391-.1-2.823.383-4.174-.291,1.3-.18,2.648.308,3.916-.294Z" transform="translate(-160.563 -177.999)" fill="#934431"/>
      <path id="Trazado_572679" data-name="Trazado 572679" d="M-9.431-887.837a2.509,2.509,0,0,1-1.679-1.415c-.313-.359-.17-.792-.171-1.19q-.012-25.763,0-51.525c0-.394-.156-.832.183-1.181a2.209,2.209,0,0,1,2.221-1.27q28.992.038,57.985.033c.321,0,.642.031.962.048,1,.068,1.035.888,1.24,1.579q0,26.023-.01,52.042c0,.486.175,1.01-.17,1.463a2.477,2.477,0,0,1-1.677,1.417c-.4.438-.941.3-1.429.3q-26.613.012-53.225.013c-.554,0-1.094-.106-1.642-.13C-7.7-887.779-8.59-887.456-9.431-887.837Z" transform="translate(-40.872 -10.656)"/>
      <path id="Trazado_572680" data-name="Trazado 572680" d="M62.584-946.967a3.536,3.536,0,0,0-1.054-1.2l-.282-.3a1.205,1.205,0,0,0-.473-.225c-3.675-.08-7.35-.033-11.025-.031-14.839.011-29.677-.043-44.516.026a.693.693,0,0,1-.519-.032c-.076-.276-.42-.551,0-.825a2.561,2.561,0,0,1,1.35-.128q28.16-.01,56.321,0a2.531,2.531,0,0,1,1.349.129c.334,1.086-.472,1.6-1.1,2.213A.216.216,0,0,1,62.584-946.967Z" transform="translate(-52.331 -6.826)" fill="#e99a58"/>
      <path id="Trazado_572681" data-name="Trazado 572681" d="M220.123-889.842q0-29.649,0-59.3c.414.363.268.853.268,1.294q0,29-.006,58.007A.152.152,0,0,1,220.123-889.842Z" transform="translate(-208.44 -7.237)" fill="#ef9e5a"/>
      <path id="Trazado_572682" data-name="Trazado 572682" d="M64.272-949.851H5.252c0-.089,0-.179,0-.269h59.3q0,.136,0,.271Z" transform="translate(-52.865 -6.526)" fill="#e49756"/>
      <path id="Trazado_572683" data-name="Trazado 572683" d="M3.992-739.516c.365-.027.729-.078,1.094-.078q27.209-.006,54.418,0c.32,0,.64.036.96.055.1.122.528-.12.341.313a2.582,2.582,0,0,1-1.35.127q-26.779.01-53.558,0a2.588,2.588,0,0,1-1.35-.127l-.277,0c-.093.141-.183.132-.27-.005v0q-.144-.089-.1-.184T3.992-739.516Z" transform="translate(-51.88 -158.953)" fill="#f7a35d"/>
      <path id="Trazado_572684" data-name="Trazado 572684" d="M6.27-738.257H62.528c-.409.444-.947.267-1.43.267q-26.7.013-53.4,0C7.217-737.99,6.679-737.813,6.27-738.257Z" transform="translate(-53.604 -159.923)" fill="#e59856"/>
      <path id="Trazado_572685" data-name="Trazado 572685" d="M214.943-940.751q.027-.185.055-.371c.417.363.266.854.266,1.294q.01,26.044,0,52.087a8.326,8.326,0,0,1-.086.923c0,.014-.079.033-.115.024a.4.4,0,0,1-.115-.073Q214.946-913.809,214.943-940.751Z" transform="translate(-204.69 -13.042)" fill="#ed9d59"/>
      <path id="Trazado_572686" data-name="Trazado 572686" d="M124.157-734.267l.263,0c-.319.383-.76.26-1.158.261q-17.643.008-35.286,0a.411.411,0,0,1-.4-.266Z" transform="translate(-112.474 -162.812)" fill="#f3a15c"/>
      <path id="Trazado_572687" data-name="Trazado 572687" d="M23.253-734.079l-18.178-.028q-.131-.07-.1-.156c.023-.06.048-.09.075-.09q8.318,0,16.635.009C22.213-734.342,22.8-734.547,23.253-734.079Z" transform="translate(-52.663 -162.725)" fill="#f3a15c"/>
      <path id="Trazado_572688" data-name="Trazado 572688" d="M-10.626-737.174a1.186,1.186,0,0,0,.022.246c-2.025-.117-4.074.349-6.08-.243.086-.137.175-.145.265,0,1.49,0,2.981-.041,4.469.016.868.033,1.134-.344,1.053-1.124l.27.005Z" transform="translate(-36.985 -159.904)" fill="#e19057"/>
      <path id="Trazado_572689" data-name="Trazado 572689" d="M-16.418-888.922q-.133,0-.265,0v-58.951h.265Z" transform="translate(-36.985 -8.157)" fill="#dc8c57"/>
      <path id="Trazado_572690" data-name="Trazado 572690" d="M4.274-946.555l.281,0a2.574,2.574,0,0,1,1.35-.128q26.78-.01,53.561,0a2.537,2.537,0,0,1,1.349.129c0,.086,0,.173-.008.259q-27.49,0-54.979,0c-.6,0-1.194-.022-1.79-.034-.114-.034-.155-.078-.126-.13s.065-.085.1-.085Z" transform="translate(-51.889 -8.998)" fill="#f5a25c"/>
      <path id="Trazado_572691" data-name="Trazado 572691" d="M-11.57-940.04q-.007,26.948-.013,53.9c-.628.077-.3-.415-.3-.6q-.027-26.366-.013-52.73a3.5,3.5,0,0,1,.1-.636c0-.012.082-.022.118-.01A.433.433,0,0,1-11.57-940.04Z" transform="translate(-40.398 -13.764)" fill="#db8b56"/>
      <path id="Trazado_572692" data-name="Trazado 572692" d="M-2.871-739.365q0,.14.007.279c-.895,0-1.79-.007-2.685-.015-.014,0-.047-.093-.04-.1.1-.068.2-.128.3-.19Z" transform="translate(-45.017 -159.104)" fill="#e49159"/>
      <path id="Trazado_572693" data-name="Trazado 572693" d="M-2.059-946.118a.761.761,0,0,0,.026.216H-4.468l-.012-.216Z" transform="translate(-45.82 -9.425)" fill="#e29058"/>
      <path id="Trazado_572694" data-name="Trazado 572694" d="M14.294-724.041c.269-.345.655-.266,1.011-.267,2.875,0,5.751-.012,8.626.008.4,0,.98-.239,1.054.5a4.526,4.526,0,0,0-2.3-.236C19.89-724.053,17.092-724.042,14.294-724.041Z" transform="translate(-59.413 -170.003)" fill="#ab5341"/>
      <path id="Trazado_572695" data-name="Trazado 572695" d="M23.925-713.072l-9.644.007q0-.141,0-.282c2.74,0,5.48-.007,8.219.009C22.982-713.334,23.518-713.514,23.925-713.072Z" transform="translate(-59.404 -177.942)" fill="#9f4d3c"/>
      <path id="Trazado_572696" data-name="Trazado 572696" d="M127.764-888.326a1.42,1.42,0,0,0,1.669,1.069c1.052-.043,2.111.05,3.158-.028.964-.072,1.363.128,1.318,1.232-.1,2.424-.12,4.859.006,7.28.067,1.3-.586,1.2-1.468,1.229-.966.028-1.57-.088-1.393-1.288a16.169,16.169,0,0,0,.018-2.2c0-.6-.214-1.241-.758-1.336-1.1-.193-.933-.946-.882-1.631a1.92,1.92,0,0,0-1.168-2.1,6.6,6.6,0,0,0-3.208,0c-1.2.493-1.187,1.514-1.167,2.58.02,1.036-.021,1.037-1.092.711a1.194,1.194,0,0,0,.233-.466.989.989,0,0,0-.013-.613,1.317,1.317,0,0,1-.22,1.08,3.469,3.469,0,0,1-.134-1.691,1.889,1.889,0,0,0-1.05-1.576,6.446,6.446,0,0,0-3.417,0,2.349,2.349,0,0,0-1.138,1.42.841.841,0,0,1-.262-.068,3.872,3.872,0,0,0-.018,1.445,1.2,1.2,0,0,0,.229.469c-1.056.309-1.1.309-1.092-.624,0-1.076.086-2.151-1.165-2.664a6.6,6.6,0,0,0-3.208,0,1.915,1.915,0,0,0-1.169,2.109c.054.69.214,1.44-.89,1.633-.546.1-.759.739-.751,1.343a14.788,14.788,0,0,0,.016,1.926c.188,1.277-.312,1.611-1.553,1.565-.985-.036-1.338-.2-1.3-1.277.091-2.477.072-4.96.006-7.438-.024-.887.27-1.051,1.087-1.046,5.418.035,10.837.015,16.255.021.75,0,1.5.053,1.826-.847A1.93,1.93,0,0,1,127.764-888.326Z" transform="translate(-125.734 -50.948)" fill="#fee4c1"/>
      <path id="Trazado_572697" data-name="Trazado 572697" d="M134.066-826.964c.02,2.8.011,5.6.075,8.4.024,1.07-.7.712-1.213.746s-1.118.172-1.069-.753c.065-1.237.039-2.482.009-3.721-.032-1.332-.623-1.954-1.941-1.958q-9.788-.027-19.575,0c-1.311,0-1.827.636-1.931,1.981-.112,1.462.33,2.957-.263,4.388a18.619,18.619,0,0,1-.138-3.339c-.012.609-.007,1.375,0,2.141,0,.568.061,1.086-.8,1.089-.816,0-.86-.432-.856-1.047.015-2.286.008-4.572,0-6.858a1.275,1.275,0,0,0-.128-.8v-.277a2.3,2.3,0,0,1,1.591-.27q12.324-.011,24.648,0A2.289,2.289,0,0,1,134.066-826.964Z" transform="translate(-125.982 -95.489)" fill="#fee4c1"/>
      <path id="Trazado_572698" data-name="Trazado 572698" d="M37.2-822.626c-.579-.659-.261-1.453-.242-2.161a2.266,2.266,0,0,0-1.455-2.494,44.529,44.529,0,0,0-7.955-.034c-.457-.976-.24-2.372-1.7-2.725a36.416,36.416,0,0,0-5.524-.154c-1.045-.043-2.093.017-3.14-.025-.628-.65-.83-1.325-.126-2.056l.635-.861a1.864,1.864,0,0,1,2.676-.211c.216.962.893,1.1,1.76,1.1q7.883-.036,15.767,0c.4,0,.91-.295,1.212.254a1.722,1.722,0,0,1-1.07.13q-7.846.01-15.692.006c5.1.01,10.207.038,15.309-.022,1.122-.014,1.392.342,1.354,1.4-.075,2.108-.009,4.221-.03,6.332-.006.622.294,1.473-.9,1.4-1.129-.07-.605-.863-.736-1.29C37.219-823.659,37.5-823.1,37.2-822.626Z" transform="translate(-61.097 -90.74)" fill="#fee4c1"/>
      <path id="Trazado_572699" data-name="Trazado 572699" d="M110.139-934.106a1.942,1.942,0,0,0-1.172,2.1c.065,1.323-.067,2.658.042,3.976.092,1.122-.319,1.5-1.361,1.3-.458-.088-.992.279-1.378-.228.655-.361,1.448.092,2.052-.229a4.084,4.084,0,0,1-2.083-.046v-8.275a.836.836,0,0,1,.511-.135c8.4.038,16.806,0,25.209.023.718,0,1.485-.166,2.109.388q0,4,0,8a4.075,4.075,0,0,1-2.081.046c.6.321,1.4-.133,2.05.228-.737.51-1.558.185-2.336.2-.56.01-.364-.536-.368-.857-.02-1.463-.055-2.928.007-4.388a1.955,1.955,0,0,0-1.171-2.1,26.131,26.131,0,0,0-6.516,0c-.94.281-.992,1.233-1.429,1.894a13.81,13.81,0,0,0-4.136,0c-.451-.652-.49-1.615-1.433-1.894A26.129,26.129,0,0,0,110.139-934.106Z" transform="translate(-125.984 -17.009)" fill="#fee4c1"/>
      <path id="Trazado_572700" data-name="Trazado 572700" d="M22.433-878.9c-1.071.326-1.112.325-1.092-.711.021-1.066.033-2.086-1.168-2.579-.984-.395-2.028,0-3.025-.229-.323-.228-.507-.491-.227-.873q10.8-.032,21.609-.075c.593,0,.794.164.788.774-.028,2.708-.035,5.416,0,8.123.017,1.4-1,.7-1.567.783-.545.082-1.357.332-1.264-.807.071-.866.006-1.743.014-2.615.005-.6-.207-1.247-.753-1.342-1.107-.192-.94-.945-.888-1.633a1.917,1.917,0,0,0-1.17-2.107,6.581,6.581,0,0,0-3.207,0c-1.252.512-1.17,1.588-1.165,2.664,0,.933-.036.933-1.092.624a2.272,2.272,0,0,0-.051-1.846,2.35,2.35,0,0,0-1.136-1.419,6.438,6.438,0,0,0-3.416,0c-1.539.674-.787,2.181-1.187,3.269a1.291,1.291,0,0,1-.217-1.072.978.978,0,0,0-.012.616A1.183,1.183,0,0,0,22.433-878.9Z" transform="translate(-61.216 -54.86)" fill="#fde4c1"/>
      <path id="Trazado_572701" data-name="Trazado 572701" d="M38.755-935.513v8.275a2.353,2.353,0,0,1-1.558.049c.426.31,1.063-.126,1.526.225-1.921.6-2.16.452-2.161-1.346,0-.778-.047-1.559.011-2.332a2.128,2.128,0,0,0-1.436-2.369c-.4-.338-.876-.147-1.31-.15-5.7-.045-11.392.051-17.089-.057-.679-.76-.983-1.518,0-2.278a6.926,6.926,0,0,1,2.043-.131c6.49-.018,12.981.02,19.471-.022A.819.819,0,0,1,38.755-935.513Z" transform="translate(-60.728 -17.004)" fill="#fee4c1"/>
      <path id="Trazado_572702" data-name="Trazado 572702" d="M133.9-771.326c.02,1.882.028,3.763.068,5.645.011.523-.16.684-.7.728-2.084.17-2.082.2-2.114-1.923-.034-2.228-1.175-3.436-3.393-3.436-1.4,0-2.862-.323-4.16.554a.62.62,0,0,1-.5,0,7.641,7.641,0,0,0-6.238,0,.618.618,0,0,1-.5,0c-1.252-.857-2.668-.553-4.022-.557-2.384-.007-3.507,1.174-3.527,3.578-.014,1.7-.75,2.224-2.4,1.775-.468-.128-.41-.417-.407-.719.014-1.973.038-3.947.059-5.92a.838.838,0,0,1,.511-.135c8.4.038,16.806,0,25.209.023C132.513-771.712,133.28-771.88,133.9-771.326Z" transform="translate(-125.821 -135.681)" fill="#fde4c1"/>
      <path id="Trazado_572703" data-name="Trazado 572703" d="M2.592-883.307l.263.8c-.022.157-.176.2-.26.3a2.032,2.032,0,0,0-1.119,2.273c.06.626.134,1.228-.8,1.4a1.222,1.222,0,0,0-.838,1.292,13.179,13.179,0,0,0,.012,2.057c.2,1.3-.358,1.574-1.564,1.548-1-.022-1.322-.235-1.287-1.284.085-2.514.053-5.033.012-7.549-.012-.723.2-.954.924-.922C-.517-883.317,1.038-883.329,2.592-883.307Z" transform="translate(-46.887 -54.843)" fill="#fdd1a3"/>
      <path id="Trazado_572704" data-name="Trazado 572704" d="M39.038-771.666c.021,1.875-.009,3.753.086,5.624.047.915-.316,1.039-1.1,1.026-1.727-.03-1.668.008-1.749-1.748-.056-1.214.527-2.615-.812-3.547a5.227,5.227,0,0,0-1.9-.109c-5.5-.013-11,0-16.5-.009a.536.536,0,0,1-.46-.2.88.88,0,0,1-.016-.764.886.886,0,0,1,.9-.427c7.021.07,14.043.038,21.065.015A.8.8,0,0,1,39.038-771.666Z" transform="translate(-61.012 -135.618)" fill="#fde4c1"/>
      <path id="Trazado_572705" data-name="Trazado 572705" d="M22.847-812.171h6.066a11.749,11.749,0,0,1,0,5.218H22.847A6.609,6.609,0,0,1,22.847-812.171Z" transform="translate(-65.217 -106.407)" fill="#fc5326"/>
      <path id="Trazado_572706" data-name="Trazado 572706" d="M2.876-828.322c-.253.646.132,1.292,0,1.938a.65.65,0,0,1-.261.265c-.457.024-.913.043-1.37.072a1.78,1.78,0,0,0-1.939,1.994c-.03,1.515-.075,3.035.015,4.546.063,1.069-.586.882-1.214.913-.666.033-1.109,0-1.083-.905.078-2.752.062-5.507.082-8.261a32.665,32.665,0,0,1,4.619-.124c-1.277-.18-2.96.182-4.609-.151,1.007-.572,2.1-.173,3.146-.257C1.129-828.362,2-828.317,2.876-828.322Z" transform="translate(-46.91 -94.692)" fill="#fcd1a3"/>
      <path id="Trazado_572707" data-name="Trazado 572707" d="M3.1-935.7c-.655.639.158,1.285-.008,1.927a.622.622,0,0,1-.26.272c-.407.022-.813.049-1.22.066-1.466.062-2.055.641-2.087,2.092-.019.863,0,1.727,0,2.591,0,1.781-.247,1.931-2.162,1.328.462-.351,1.1.085,1.523-.225a2.348,2.348,0,0,1-1.555-.049q0-4.138,0-8.275c1.7-.6,3.457-.132,5.183-.262a1.275,1.275,0,0,1,.48.117A.29.29,0,0,1,3.1-935.7Z" transform="translate(-47.127 -16.546)" fill="#fdd1a3"/>
      <path id="Trazado_572708" data-name="Trazado 572708" d="M.944-770.358A1.763,1.763,0,0,0-.177-768.38c.037.593-.068,1.2.022,1.782.207,1.319-.259,1.75-1.606,1.644-.89-.07-1.3-.165-1.24-1.189.1-1.824.065-3.656.085-5.485a.669.669,0,0,1,.409-.145c1.37.11,2.748-.039,4.117.1.265.027.615.091.655.4.055.416-.369.434-.635.566a2.581,2.581,0,0,0-.37.132C1.156-770.507,1.049-770.434.944-770.358Z" transform="translate(-46.889 -135.657)" fill="#fcd1a3"/>
      <path id="Trazado_572709" data-name="Trazado 572709" d="M62.351-799.909c-2.111.02-4.223.006-6.332.074-1.119.036-.822-.731-.823-1.3s-.3-1.339.823-1.3c2.109.067,4.221.053,6.332.073A4.363,4.363,0,0,1,62.351-799.909Z" transform="translate(-89.002 -113.449)" fill="#fc5325"/>
      <path id="Trazado_572710" data-name="Trazado 572710" d="M106.234-839.038v-.554a1.838,1.838,0,0,1,1.072-.13q12.843-.007,25.686,0a1.843,1.843,0,0,1,1.072.129v.555a9.674,9.674,0,0,1-2.712.274q-11.2,0-22.409,0A9.5,9.5,0,0,1,106.234-839.038Z" transform="translate(-125.981 -86.447)" fill="#f0a56a"/>
      <path id="Trazado_572711" data-name="Trazado 572711" d="M106.227-895.459c-.051-.634.43-.47.751-.47q13.163-.011,26.326,0c.322,0,.8-.164.751.47a2.215,2.215,0,0,1-1.69.392q-12.224.011-24.447,0A2.231,2.231,0,0,1,106.227-895.459Z" transform="translate(-125.973 -45.749)" fill="#feb171"/>
      <path id="Trazado_572712" data-name="Trazado 572712" d="M25.154-894.925v.553a1.828,1.828,0,0,1-1.072.13q-12.844.008-25.687,0a1.829,1.829,0,0,1-1.072-.13v-.554a2.3,2.3,0,0,1,1.591-.269q12.323-.011,24.647,0A2.3,2.3,0,0,1,25.154-894.925Z" transform="translate(-47.127 -46.283)" fill="#f2a66a"/>
      <path id="Trazado_572713" data-name="Trazado 572713" d="M25.145-895.459H-2.684c-.051-.634.43-.47.751-.47q13.163-.011,26.326,0C24.715-895.929,25.2-896.094,25.145-895.459Z" transform="translate(-47.118 -45.749)" fill="#feb171"/>
      <path id="Trazado_572714" data-name="Trazado 572714" d="M106.478-772.554l-.266,0c-.085-.642.4-.482.719-.482q13.195-.01,26.389,0c.322,0,.8-.158.721.482a1.805,1.805,0,0,1-1.071.131q-12.71.007-25.419,0A1.844,1.844,0,0,1,106.478-772.554Z" transform="translate(-125.958 -134.728)" fill="#feefca"/>
      <path id="Trazado_572715" data-name="Trazado 572715" d="M134.046-783.277c.071.626-.4.489-.727.489q-13.188.008-26.375,0c-.33,0-.8.138-.726-.489a2.232,2.232,0,0,1,1.691-.392q12.224-.011,24.447,0A2.217,2.217,0,0,1,134.046-783.277Z" transform="translate(-125.964 -127.04)" fill="#feaf70"/>
      <path id="Trazado_572716" data-name="Trazado 572716" d="M25.136-783.277c.072.627-.4.489-.726.489q-13.188.009-26.375,0c-.33,0-.8.137-.727-.489A2.217,2.217,0,0,1-1-783.669q12.224-.011,24.447,0A2.232,2.232,0,0,1,25.136-783.277Z" transform="translate(-47.109 -127.04)" fill="#feaf70"/>
      <path id="Trazado_572717" data-name="Trazado 572717" d="M134.059-827.855h-27.83c-.052-.975.7-.52,1.062-.522,6-.03,12-.022,18.007-.022,2.612,0,5.224-.013,7.835.017C133.476-828.378,134.161-828.735,134.059-827.855Z" transform="translate(-125.976 -94.598)" fill="#fde7c3"/>
      <path id="Trazado_572718" data-name="Trazado 572718" d="M106.466-936.491H106.2c-.1-.637.371-.5.7-.5q13.213-.008,26.426,0c.331,0,.8-.136.7.5a1.806,1.806,0,0,1-1.071.131q-12.71.007-25.42,0A1.837,1.837,0,0,1,106.466-936.491Z" transform="translate(-125.946 -16.024)" fill="#feedc9"/>
      <path id="Trazado_572719" data-name="Trazado 572719" d="M134.066-784.058H106.237v-.279c.277-.517.772-.405,1.216-.405q12.7,0,25.4,0c.443,0,.939-.116,1.215.4Z" transform="translate(-125.983 -126.259)" fill="#f2a66a"/>
      <path id="Trazado_572720" data-name="Trazado 572720" d="M25.155-784.058H-2.674v-.28c.276-.521.772-.4,1.215-.4q12.7-.006,25.4,0c.445,0,.939-.112,1.216.406Z" transform="translate(-47.128 -126.259)" fill="#f2a66a"/>
      <path id="Trazado_572721" data-name="Trazado 572721" d="M106.227-837.2h27.83c-.017.515-.417.4-.705.4q-13.23.01-26.46,0C106.617-836.8,106.185-836.636,106.227-837.2Z" transform="translate(-125.974 -88.285)" fill="#feb574"/>
      <path id="Trazado_572722" data-name="Trazado 572722" d="M163.608-806.886c-.09.559.315,1.6-.177,1.822a7.19,7.19,0,0,1-2.676.169c-.349,0-.433-.258-.432-.566,0-1.051.019-2.1-.007-3.154-.014-.557.256-.654.749-.7C163.61-809.542,163.609-809.557,163.608-806.886Z" transform="translate(-165.139 -108.409)" fill="#f9ea97"/>
      <path id="Trazado_572723" data-name="Trazado 572723" d="M144.358-806.759c0,2.11-.779,2.682-2.839,2.159-.451-.114-.442-.368-.444-.689q0-.958,0-1.916c0-1.824,0-1.824,1.792-1.822C144.358-809.024,144.358-809.024,144.358-806.759Z" transform="translate(-151.205 -108.684)" fill="#f7d964"/>
      <path id="Trazado_572724" data-name="Trazado 572724" d="M16.582-812.171q0,2.61,0,5.22l-2.76,0a20.661,20.661,0,0,1,0-5.216Z" transform="translate(-58.951 -106.407)" fill="#ee4324"/>
      <path id="Trazado_572725" data-name="Trazado 572725" d="M106.234-894.176h27.829v.554c-1.771.32-3.563,0-5.338.177-1.33-.042-2.661.031-3.993-.018-5.673-.058-11.345,0-17.017-.031a2.981,2.981,0,0,1-1.482-.128Q106.233-893.9,106.234-894.176Z" transform="translate(-125.98 -47.033)" fill="#f2a66a"/>
      <path id="Trazado_572726" data-name="Trazado 572726" d="M25.155-839.592v.554a2.063,2.063,0,0,1-1.452.27c-5.413,0-10.825.021-16.237-.008a22.458,22.458,0,0,0-4.5,0c-1.45.029-2.9.013-4.349.011a1.794,1.794,0,0,1-1.3-.27v-.555a1.843,1.843,0,0,1,1.072-.129q12.843-.007,25.686,0A1.838,1.838,0,0,1,25.155-839.592Z" transform="translate(-47.127 -86.447)" fill="#f0a56a"/>
      <path id="Trazado_572727" data-name="Trazado 572727" d="M35.467-916.123c-.174.522.41,1.482-.335,1.754a7.522,7.522,0,0,1-2.582.07c-.279-.005-.357-.255-.359-.493-.007-1.008,0-2.015-.006-3.023,0-.391.169-.594.57-.586.137,0,.275,0,.412-.007C35.467-918.5,35.467-918.5,35.467-916.123Z" transform="translate(-72.367 -29.467)" fill="#028dcb"/>
      <path id="Trazado_572728" data-name="Trazado 572728" d="M54.384-916.258c.006,1.955-1.037,2.825-2.8,1.976-1.139-.549-.285-1.977-.46-2.994-.065-.379-.249-1.012.482-1.06s1.47,0,2.2-.014c.4-.005.581.176.573.576C54.377-917.269,54.384-916.764,54.384-916.258Z" transform="translate(-85.977 -29.523)" fill="#08a6ed"/>
      <path id="Trazado_572729" data-name="Trazado 572729" d="M150.077-856.035h-.411c-1.934,0-2.349-.565-1.936-2.491.115-.536.432-.491.794-.492,1.051,0,2.1.028,3.152-.011.615-.023.741.233.773.8C152.571-856.034,152.594-856.035,150.077-856.035Z" transform="translate(-155.92 -72.48)" fill="#c6edfb"/>
      <path id="Trazado_572730" data-name="Trazado 572730" d="M41.2-856.159h-.411c-1.975,0-2.351-.505-1.956-2.472.106-.529.406-.511.776-.511a16.827,16.827,0,0,0,2.327-.02c1.33-.187,1.755.283,1.629,1.619C43.431-856.168,43.53-856.159,41.2-856.159Z" transform="translate(-77.076 -72.356)" fill="#c6edfb"/>
      <path id="Trazado_572731" data-name="Trazado 572731" d="M3.28-838.085a6.542,6.542,0,0,1,4.138,0c.418.3.892.132,1.334.134,5.007.014,10.015,0,15.022.016a3.063,3.063,0,0,1,1.489.122c-.454.33-.972.155-1.455.156q-7.671.023-15.343,0c-.824,0-1.568.039-1.882.972a7.574,7.574,0,0,0-2.676.212c-.051-.95-.648-1.158-1.481-1.187a25.46,25.46,0,0,1-4.855-.155,30.609,30.609,0,0,1,4.229-.133C2.3-837.978,2.809-837.813,3.28-838.085Z" transform="translate(-47.307 -87.401)" fill="#f3a76b"/>
      <path id="Trazado_572732" data-name="Trazado 572732" d="M182.669-805.024c-2.85.217-2.85.217-2.85-2.039,0-2.518.479-2.839,3.118-2.089C182.562-807.794,183.045-806.381,182.669-805.024Z" transform="translate(-179.259 -108.336)" fill="#fbdc65"/>
      <path id="Trazado_572733" data-name="Trazado 572733" d="M128.866-922.111l2.481,0a32.007,32.007,0,0,1,.122,4.745.336.336,0,0,1-.34.3c-.782-.291-1.709.224-2.425-.438A6.465,6.465,0,0,1,128.866-922.111Z" transform="translate(-142.001 -26.807)" fill="#56bd91"/>
      <path id="Trazado_572734" data-name="Trazado 572734" d="M177.834-922.111l2.481,0a32.05,32.05,0,0,1,.121,4.745.336.336,0,0,1-.34.3c-.782-.291-1.709.224-2.426-.438A6.465,6.465,0,0,1,177.834-922.111Z" transform="translate(-177.455 -26.807)" fill="#56bd91"/>
      <path id="Trazado_572735" data-name="Trazado 572735" d="M73.769-914.44a2.758,2.758,0,0,1-2.488.156c-1.4-.626-.34-2.071-.616-3.125-.138-.53,0-1.008.758-.948.684.054,1.374.046,2.061.065C73.863-917.029,73.359-915.7,73.769-914.44Z" transform="translate(-100.135 -29.522)" fill="#028ecd"/>
      <path id="Trazado_572736" data-name="Trazado 572736" d="M122.209-808.9a5.8,5.8,0,0,1,2.756-.187c.45-.006.351.423.278.736-.413,1.167.106,2.408-.28,3.577h-2.485C122.1-806.133,122.583-807.546,122.209-808.9Z" transform="translate(-137.547 -108.584)" fill="#feed99"/>
      <path id="Trazado_572737" data-name="Trazado 572737" d="M14.049-918.309c2.858-.205,2.886-.2,2.822,2.632-.011.476.552,1.392-.639,1.389-.733-.146-1.494.111-2.219-.155a.294.294,0,0,1,.077-.389,11.816,11.816,0,0,1,1.784-.028c-.225-.125-.548-.023-.849-.009-.715.032-.979-.3-.976-.98a15.864,15.864,0,0,0-.042-2.045A.43.43,0,0,1,14.049-918.309Z" transform="translate(-59.18 -29.503)" fill="#08a8f0"/>
      <path id="Trazado_572738" data-name="Trazado 572738" d="M2.785-936.477l-5.506,0c-.1-.489.221-.5.567-.5q13.476,0,26.952.007c.094,0,.189.142.283.218a3.12,3.12,0,0,1-1.868.275Q13-936.47,2.785-936.477Z" transform="translate(-47.082 -16.041)" fill="#fed9a9"/>
      <path id="Trazado_572739" data-name="Trazado 572739" d="M-2.449-772.528l-.262,0c-.085-.5.254-.487.587-.487q13.454,0,26.908,0c.1,0,.2.135.3.207a2.38,2.38,0,0,1-1.458.275c-6.769-.059-13.539.129-20.307-.093a.989.989,0,0,0-.513.175A29.537,29.537,0,0,1-2.449-772.528Z" transform="translate(-47.092 -134.754)" fill="#fedbac"/>
      <path id="Trazado_572740" data-name="Trazado 572740" d="M155.56-758.649c.974.785.4,1.842.457,2.779.018.319-.4.28-.664.278-.679-.005-1.357-.028-2.036-.044-.941-.609-.732-1.5-.509-2.337.257-.968,1.093-.8,1.813-.791A1.684,1.684,0,0,1,155.56-758.649Z" transform="translate(-159.565 -145.064)" fill="#fa5325"/>
      <path id="Trazado_572741" data-name="Trazado 572741" d="M50.039-817.848v-3.084a4.719,4.719,0,0,1,.275,2.093c.033.42.155.7.637.717.534.018.741-.244.74-.749,0-2.434,0-4.867,0-7.3,0-.969-.741-.755-1.294-.756q-7.37-.017-14.739-.007H34.346l.006-.276h17.6c.023,2.884.115,5.77.043,8.652C51.954-817.01,50.7-818.077,50.039-817.848Z" transform="translate(-73.932 -95.518)" fill="#fde7c3"/>
      <path id="Trazado_572742" data-name="Trazado 572742" d="M153-915.3c3.656-.078,3-.662,2.947,3.028a.59.59,0,0,1-.416.014c-.864-.107-1.733.063-2.6-.052A2.76,2.76,0,0,1,153-915.3Z" transform="translate(-159.498 -31.683)" fill="#55bc90"/>
      <path id="Trazado_572743" data-name="Trazado 572743" d="M47.036-758.431c.014.136.038.272.04.408.055,2.728.055,2.728-2.755,2.586-1.043-.914-.814-1.947-.281-3.007.863-.065,1.731.081,2.595-.035A.4.4,0,0,1,47.036-758.431Z" transform="translate(-80.624 -145.258)" fill="#07a7ee"/>
      <path id="Trazado_572744" data-name="Trazado 572744" d="M131.169-758.655c1,.767.439,1.826.489,2.761.019.355-.372.326-.634.324-.724-.006-1.448-.029-2.172-.045a1.242,1.242,0,0,1-.342-.578c-.492-1.9.046-2.593,1.989-2.55A2.056,2.056,0,0,1,131.169-758.655Z" transform="translate(-141.984 -145.089)" fill="#fa5325"/>
      <path id="Trazado_572745" data-name="Trazado 572745" d="M180.137-758.655c1,.767.439,1.826.489,2.761.019.355-.372.326-.634.324-.724-.006-1.448-.029-2.172-.045a1.242,1.242,0,0,1-.342-.578c-.492-1.9.046-2.593,1.989-2.55A2.057,2.057,0,0,1,180.137-758.655Z" transform="translate(-177.439 -145.089)" fill="#fa5325"/>
      <path id="Trazado_572746" data-name="Trazado 572746" d="M128.011-917.169l.3.006q.177-.221.281.043a9,9,0,0,1-4.437-.034,17.539,17.539,0,0,0,.154-3.491,3.31,3.31,0,0,1,.13-1.465h1.384q.006,2.339.012,4.679C126.525-917.064,127.316-917.513,128.011-917.169Z" transform="translate(-138.955 -26.807)" fill="#22b07d"/>
      <path id="Trazado_572747" data-name="Trazado 572747" d="M176.98-917.169l.3.006q.177-.221.281.043a9,9,0,0,1-4.437-.034,17.561,17.561,0,0,0,.154-3.491,3.306,3.306,0,0,1,.13-1.465h1.383q.006,2.339.012,4.679C175.493-917.064,176.285-917.513,176.98-917.169Z" transform="translate(-174.41 -26.807)" fill="#22b07d"/>
      <path id="Trazado_572748" data-name="Trazado 572748" d="M25.089-784.817a2.824,2.824,0,0,0-1.6-.275q-12.313,0-24.627,0a2.812,2.812,0,0,0-1.6.274c-.147-.709.375-.591.76-.591q13.155-.008,26.309,0C24.716-785.41,25.238-785.527,25.089-784.817Z" transform="translate(-47.063 -125.778)" fill="#f6a96b"/>
      <path id="Trazado_572749" data-name="Trazado 572749" d="M134-784.818a2.8,2.8,0,0,0-1.6-.274q-12.313,0-24.627,0a2.832,2.832,0,0,0-1.6.275c-.149-.709.373-.592.758-.592q13.155-.007,26.309,0C133.626-785.41,134.147-785.527,134-784.818Z" transform="translate(-125.918 -125.778)" fill="#f6a96b"/>
      <path id="Trazado_572750" data-name="Trazado 572750" d="M68.59-855.264a7.514,7.514,0,0,1-4.489,0,1.013,1.013,0,0,0,.285-.6c.119-1.6.27-1.73,2.029-1.719,1.642.01,1.767.125,1.885,1.725A.953.953,0,0,0,68.59-855.264Z" transform="translate(-95.475 -73.526)" fill="#c7edfc"/>
      <path id="Trazado_572751" data-name="Trazado 572751" d="M128.524-855.265a7.516,7.516,0,0,1-4.489,0,.965.965,0,0,0,.291-.6c.12-1.608.27-1.736,2.023-1.725,1.646.01,1.773.125,1.891,1.719A1,1,0,0,0,128.524-855.265Z" transform="translate(-138.87 -73.526)" fill="#c7edfc"/>
      <path id="Trazado_572752" data-name="Trazado 572752" d="M177.493-855.265a7.515,7.515,0,0,1-4.489,0,.964.964,0,0,0,.291-.6c.12-1.608.27-1.736,2.023-1.725,1.646.009,1.773.125,1.891,1.719A1,1,0,0,0,177.493-855.265Z" transform="translate(-174.325 -73.526)" fill="#c7edfc"/>
      <path id="Trazado_572753" data-name="Trazado 572753" d="M19.622-855.264a7.514,7.514,0,0,1-4.489,0,1.013,1.013,0,0,0,.285-.6c.119-1.6.27-1.73,2.029-1.719,1.642.01,1.767.125,1.885,1.725A.953.953,0,0,0,19.622-855.264Z" transform="translate(-60.021 -73.526)" fill="#c7edfc"/>
      <path id="Trazado_572754" data-name="Trazado 572754" d="M-2.675-892.171h27.83c-.2.57-.691.323-1.042.323q-12.873.024-25.746,0C-1.985-891.848-2.476-891.6-2.675-892.171Z" transform="translate(-47.127 -48.484)" fill="#fbac6f"/>
      <path id="Trazado_572755" data-name="Trazado 572755" d="M134.511-833.849H107.343v-.138h27.211Z" transform="translate(-126.784 -90.612)" fill="#040201"/>
      <path id="Trazado_572756" data-name="Trazado 572756" d="M25.581-842.844H-1.587v-.138H25.625Z" transform="translate(-47.915 -84.099)" fill="#040201"/>
      <path id="Trazado_572757" data-name="Trazado 572757" d="M107.416-843.06h27.1v.138H107.355Z" transform="translate(-126.793 -84.042)" fill="#040201"/>
      <path id="Trazado_572758" data-name="Trazado 572758" d="M25.155-840.359H-2.675c.2-.681.759-.365,1.142-.366q12.772-.03,25.545,0C24.4-840.724,24.958-841.038,25.155-840.359Z" transform="translate(-47.127 -85.681)" fill="#feb473"/>
      <path id="Trazado_572759" data-name="Trazado 572759" d="M134.064-840.359h-27.83c.2-.679.759-.365,1.143-.367q12.772-.029,25.545,0C133.305-840.724,133.868-841.04,134.064-840.359Z" transform="translate(-125.981 -85.681)" fill="#feb473"/>
      <path id="Trazado_572760" data-name="Trazado 572760" d="M107.2-935.149l27.563,0v.276q-13,0-26-.009C108.243-934.885,107.658-934.68,107.2-935.149Z" transform="translate(-126.682 -17.366)" fill="#fbe1bf"/>
      <path id="Trazado_572761" data-name="Trazado 572761" d="M22.8-755.851c-.891.582-1.859.177-2.793.22a1.535,1.535,0,0,1-.425-.989c-.231-1.7.157-2.153,1.846-2.137a2.5,2.5,0,0,1,1.086.1l-.023.013C22.856-757.741,22.346-756.743,22.8-755.851Z" transform="translate(-63.2 -145.073)" fill="#08a7ee"/>
      <path id="Trazado_572762" data-name="Trazado 572762" d="M71.77-755.851c-.891.582-1.859.177-2.792.22a1.536,1.536,0,0,1-.425-.989c-.231-1.7.157-2.153,1.846-2.137a2.5,2.5,0,0,1,1.086.1l-.023.013C71.824-757.741,71.314-756.743,71.77-755.851Z" transform="translate(-98.654 -145.073)" fill="#08a7ee"/>
      <path id="Trazado_572763" data-name="Trazado 572763" d="M107.2-771.244l27.563,0v.276q-13,0-26-.009C108.244-770.98,107.659-770.775,107.2-771.244Z" transform="translate(-126.683 -136.038)" fill="#fbe1be"/>
      <path id="Trazado_572764" data-name="Trazado 572764" d="M43.775-759.1q-.119,0-.239,0a5.175,5.175,0,0,1-2.468,0,3.684,3.684,0,0,0-.008,2.992c-.639-.039-1.59.395-1.829-.283a7.872,7.872,0,0,1-.045-2.691.371.371,0,0,1,.266-.247C40.893-759.256,42.365-759.746,43.775-759.1Z" transform="translate(-77.363 -144.586)" fill="#018dcb"/>
      <path id="Trazado_572765" data-name="Trazado 572765" d="M149.7-915.346c.136.994-.33,2.042.275,2.992a5.464,5.464,0,0,1,2.445.007c.076.007.151.016.226.028-1.356.528-2.758.132-4.137.205-.431.023-.486-.323-.486-.665a6.984,6.984,0,0,0-.012-1.094C147.788-915.286,148.446-915.648,149.7-915.346Z" transform="translate(-156.199 -31.633)" fill="#20af7c"/>
      <path id="Trazado_572766" data-name="Trazado 572766" d="M17.039-772.016c.464-.445,1.044-.248,1.571-.25q10.359-.029,20.717-.026a1.291,1.291,0,0,1,.063.18c.006.029-.017.065-.027.1l-.266,0a1.545,1.545,0,0,1-.935.13q-9.82.005-19.64,0a1.541,1.541,0,0,1-.934-.131l-.535.268q-.131-.084-.094-.177C16.985-771.984,17.012-772.016,17.039-772.016Z" transform="translate(-61.337 -135.27)" fill="#feefca"/>
      <path id="Trazado_572767" data-name="Trazado 572767" d="M17.277-935.94c.46-.458,1.042-.252,1.567-.253q10.365-.029,20.729-.025.013.14.027.28h-.266a1.537,1.537,0,0,1-.935.131q-9.963.005-19.926,0a1.661,1.661,0,0,1-.939-.121Q17.4-935.929,17.277-935.94Z" transform="translate(-61.573 -16.579)" fill="#feedc9"/>
      <path id="Trazado_572768" data-name="Trazado 572768" d="M151.888-759.091c-.09,0-.18.011-.269.012-2.29.025-2.742.711-1.973,3q-2.786.154-1.873-2.476c.131-.375.379-.708.757-.717C149.651-759.3,150.8-759.613,151.888-759.091Z" transform="translate(-155.893 -144.622)" fill="#ec4423"/>
      <path id="Trazado_572769" data-name="Trazado 572769" d="M173.176-893.058a4.937,4.937,0,0,1,3.585,0c.111.1.285.142.339.31a1.9,1.9,0,0,0-.891,1.073,7.5,7.5,0,0,0-2.693.216,1.445,1.445,0,0,0-.713-1.267C172.862-892.912,173.059-892.94,173.176-893.058Z" transform="translate(-174.179 -47.598)" fill="#f3a76b"/>
      <path id="Trazado_572770" data-name="Trazado 572770" d="M11.305-767.814a.932.932,0,0,1,.026-.2,1.6,1.6,0,0,1,1.636-.044q8.583.025,17.167.059c.526,0,1.109-.194,1.566.268Z" transform="translate(-57.249 -138.201)" fill="#e3d4b3"/>
      <path id="Trazado_572771" data-name="Trazado 572771" d="M19.363-759.178c-2.539.077-2.539.077-2.507,3.026l-1.391,0c-.389-.972.15-2.036-.3-3A7.054,7.054,0,0,1,19.363-759.178Z" transform="translate(-60.046 -144.552)" fill="#018ecc"/>
      <path id="Trazado_572772" data-name="Trazado 572772" d="M17.267-926.9l.26-.272q9.192,0,18.385.01a1.353,1.353,0,0,1,.347.1l-.283.2Z" transform="translate(-61.566 -23.14)" fill="#fee8c4"/>
      <path id="Trazado_572773" data-name="Trazado 572773" d="M68.331-759.178c-2.539.077-2.539.077-2.507,3.026l-1.391,0c-.389-.972.15-2.036-.3-3A7.054,7.054,0,0,1,68.331-759.178Z" transform="translate(-95.501 -144.552)" fill="#018ecc"/>
      <path id="Trazado_572774" data-name="Trazado 572774" d="M124.977-892.173l-.373.331c-5.731,0-11.462.01-17.193-.01-.391,0-.933.308-1.179-.321Z" transform="translate(-125.98 -48.483)" fill="#fbac6f"/>
      <path id="Trazado_572775" data-name="Trazado 572775" d="M177.309-759.19c-2.334.124-2.334.124-2.318,3.04l-1.387,0c-.328-.878.033-1.809-.205-2.695C174.624-759.85,175.975-759.427,177.309-759.19Z" transform="translate(-174.611 -144.554)" fill="#eb4223"/>
      <path id="Trazado_572776" data-name="Trazado 572776" d="M128.341-759.19c-2.334.124-2.334.124-2.318,3.04l-1.387,0c-.329-.878.033-1.809-.205-2.695C125.656-759.85,127.007-759.427,128.341-759.19Z" transform="translate(-139.156 -144.554)" fill="#eb4223"/>
      <path id="Trazado_572777" data-name="Trazado 572777" d="M51.093-836.938q-8.77-.005-17.541-.012a.474.474,0,0,1-.256-.043c-.045-.031-.035-.141-.049-.216l17.917,0Z" transform="translate(-73.136 -88.278)" fill="#feb574"/>
      <path id="Trazado_572778" data-name="Trazado 572778" d="M106.079-825.206c.58,1.178.176,2.429.248,3.644.075,1.282.016,2.571.018,3.858,0,.515-.043,1.06.734,1.032.691-.025.64-.524.642-.985a14.27,14.27,0,0,1,.278-3.389v4.65c-1.981.16-1.989.16-1.98-1.808C106.03-820.539,106.058-822.872,106.079-825.206Z" transform="translate(-125.824 -96.969)" fill="#fde7c3"/>
      <path id="Trazado_572779" data-name="Trazado 572779" d="M17.287-820.958l.262-.265q4.433,0,8.866.006c.069,0,.138.063.207.1l-.284.193Z" transform="translate(-61.58 -99.853)" fill="#fee8c4"/>
      <path id="Trazado_572780" data-name="Trazado 572780" d="M56.146-812.283c.2-.081-.467-1.409.551-.37.191.195.7.1,1.057.105,2.141.007,4.282,0,6.423.007.069,0,.138.063.208.1l-.283.194Z" transform="translate(-89.692 -105.772)" fill="#fee8c5"/>
      <path id="Trazado_572781" data-name="Trazado 572781" d="M46.24-806.95v-5.218c.86,1.113.311,2.4.391,3.6C46.665-808.059,47.038-807.318,46.24-806.95Z" transform="translate(-82.543 -106.409)" fill="#fe5929"/>
      <path id="Trazado_572782" data-name="Trazado 572782" d="M124.219-858.877a9.246,9.246,0,0,1,4.389,0c-.112.2-.221.4-.487.428-1.139-.031-2.278-.034-3.418,0C124.43-858.464,124.318-858.664,124.219-858.877Z" transform="translate(-139.003 -72.399)" fill="#d1f9fe"/>
      <path id="Trazado_572783" data-name="Trazado 572783" d="M173.187-858.877a9.246,9.246,0,0,1,4.389,0c-.112.2-.221.4-.487.428-1.139-.031-2.279-.034-3.418,0C173.4-858.464,173.286-858.664,173.187-858.877Z" transform="translate(-174.457 -72.399)" fill="#d1f9fe"/>
      <path id="Trazado_572784" data-name="Trazado 572784" d="M64.281-858.878a9.25,9.25,0,0,1,4.389,0,.606.606,0,0,1-.484.429c-1.139-.037-2.278-.033-3.418,0C64.5-858.474,64.392-858.677,64.281-858.878Z" transform="translate(-95.606 -72.399)" fill="#d1f9fe"/>
      <path id="Trazado_572785" data-name="Trazado 572785" d="M15.312-858.878a9.252,9.252,0,0,1,4.39,0,.607.607,0,0,1-.484.429c-1.139-.037-2.278-.033-3.418,0C15.533-858.474,15.424-858.677,15.312-858.878Z" transform="translate(-60.151 -72.399)" fill="#d1f9fe"/>
      <path id="Trazado_572786" data-name="Trazado 572786" d="M119.61-930.853a.356.356,0,0,1-.132-.032,1.408,1.408,0,0,1-.159-.16,1.246,1.246,0,0,1,.338-.1q3.281-.009,6.562,0c.067,0,.133.068.2.1l-.293.191Z" transform="translate(-135.455 -20.261)" fill="#fee9c5"/>
      <path id="Trazado_572787" data-name="Trazado 572787" d="M168.578-930.853a.353.353,0,0,1-.131-.032,1.41,1.41,0,0,1-.159-.16,1.248,1.248,0,0,1,.339-.1q3.281-.009,6.562,0c.067,0,.133.068.2.1l-.293.191Z" transform="translate(-170.909 -20.261)" fill="#fee9c5"/>
      <path id="Trazado_572788" data-name="Trazado 572788" d="M155.529-870.612c.049.542-.242.7-.74.692-.473-.01-.621-.245-.63-.681-.01-.536.245-.71.75-.7C155.384-871.287,155.554-871.054,155.529-870.612Z" transform="translate(-160.68 -63.596)" fill="#524b6b"/>
      <path id="Trazado_572789" data-name="Trazado 572789" d="M46.612-870.658c.058.515-.168.748-.694.738-.44-.008-.664-.168-.673-.638-.009-.507.174-.756.707-.741C46.388-871.287,46.646-871.136,46.612-870.658Z" transform="translate(-81.822 -63.596)" fill="#524b6b"/>
      <path id="Trazado_572790" data-name="Trazado 572790" d="M3.1-837.2c-1.879.589-3.809.085-5.707.269l-.068-.268Z" transform="translate(-47.127 -88.285)" fill="#feb573"/>
      <path id="Trazado_572791" data-name="Trazado 572791" d="M187.485-891.866l-.339-.31,5.5,0c-.459.712-1.157.275-1.729.312C189.778-891.79,188.63-891.857,187.485-891.866Z" transform="translate(-184.564 -48.481)" fill="#fbad6f"/>
      <path id="Trazado_572792" data-name="Trazado 572792" d="M180.138-870.477c0,.391-.118.641-.543.655-.472.015-.672-.207-.655-.66.013-.332.03-.677.49-.662A.7.7,0,0,1,180.138-870.477Z" transform="translate(-178.621 -63.709)" fill="#534c6d"/>
      <path id="Trazado_572793" data-name="Trazado 572793" d="M71.225-870.534c-.018.584-.263.709-.64.7-.517-.014-.571-.35-.557-.752.014-.378.157-.632.58-.559A.684.684,0,0,1,71.225-870.534Z" transform="translate(-99.765 -63.699)" fill="#534c6d"/>
      <path id="Trazado_572794" data-name="Trazado 572794" d="M22.253-870.528c-.015.565-.249.7-.63.694-.513-.01-.579-.338-.564-.743.014-.373.144-.637.571-.568A.687.687,0,0,1,22.253-870.528Z" transform="translate(-64.31 -63.7)" fill="#534c6d"/>
      <path id="Trazado_572795" data-name="Trazado 572795" d="M130.547-871.142a.7.7,0,0,1,.615.729.508.508,0,0,1-.576.592c-.489.006-.635-.26-.619-.695C129.98-870.867,130.044-871.164,130.547-871.142Z" transform="translate(-143.163 -63.709)" fill="#534c6d"/>
      <path id="Trazado_572796" data-name="Trazado 572796" d="M-2.665-827.209H2.207l0,.275H-2.675Z" transform="translate(-47.127 -95.519)" fill="#fed5a6"/>
      <path id="Trazado_572797" data-name="Trazado 572797" d="M13.127-812.167q0,2.608,0,5.216c-.547-.119-.4-.581-.359-.888C12.947-809.278,12.306-810.785,13.127-812.167Z" transform="translate(-58.257 -106.41)" fill="#fe4926"/>
      <path id="Trazado_572798" data-name="Trazado 572798" d="M173.193-922.106c-.155,1.648.337,3.334-.283,4.956-.028-1.446-.06-2.892-.08-4.338C172.826-921.753,172.821-922.049,173.193-922.106Z" transform="translate(-174.198 -26.811)" fill="#24bf89"/>
      <path id="Trazado_572799" data-name="Trazado 572799" d="M188.442-917.115l-.281-.043q0-2.473-.008-4.946c.688.269.345.865.355,1.3C188.537-919.577,188.471-918.345,188.442-917.115Z" transform="translate(-185.293 -26.813)" fill="#5dcc9d"/>
      <path id="Trazado_572800" data-name="Trazado 572800" d="M139.473-917.115l-.281-.043q0-2.473-.009-4.946c.688.269.345.865.355,1.3C139.569-919.577,139.5-918.345,139.473-917.115Z" transform="translate(-149.838 -26.813)" fill="#5dcc9d"/>
      <path id="Trazado_572801" data-name="Trazado 572801" d="M124.225-922.106c-.154,1.648.337,3.334-.283,4.956-.028-1.446-.06-2.892-.08-4.338C123.858-921.753,123.853-922.049,124.225-922.106Z" transform="translate(-138.744 -26.811)" fill="#24bf89"/>
      <path id="Trazado_572802" data-name="Trazado 572802" d="M149.173-924.236c.5-.739,1.22-.211,1.8-.214.767,0,1.622-.432,2.34.212A25.57,25.57,0,0,1,149.173-924.236Z" transform="translate(-157.07 -24.983)" fill="#fee8c4"/>
      <path id="Trazado_572803" data-name="Trazado 572803" d="M125.6-879.954a.359.359,0,0,1-.131-.032,1.436,1.436,0,0,1-.16-.158,13.312,13.312,0,0,1,3.791,0c-.013.034-.017.087-.041.1a2.444,2.444,0,0,1-.253.091Z" transform="translate(-139.795 -57.095)" fill="#feeac6"/>
      <path id="Trazado_572804" data-name="Trazado 572804" d="M65.646-879.953a.356.356,0,0,1-.131-.032,1.476,1.476,0,0,1-.163-.157,13.27,13.27,0,0,1,3.791,0c-.012.034-.015.087-.039.1a2.4,2.4,0,0,1-.252.091Z" transform="translate(-96.382 -57.095)" fill="#feeac6"/>
      <path id="Trazado_572805" data-name="Trazado 572805" d="M174.572-879.954a.358.358,0,0,1-.131-.032,1.461,1.461,0,0,1-.16-.158,13.3,13.3,0,0,1,3.791,0c-.013.034-.017.087-.041.1a2.444,2.444,0,0,1-.253.091Z" transform="translate(-175.249 -57.095)" fill="#feeac6"/>
      <path id="Trazado_572806" data-name="Trazado 572806" d="M121.7-808.217c.592,1.343.116,2.755.269,4.127-.715-.144-.388-.719-.384-1.082A11.13,11.13,0,0,1,121.7-808.217Z" transform="translate(-137.042 -109.27)" fill="#fefea6"/>
      <path id="Trazado_572807" data-name="Trazado 572807" d="M190.051-804.091c.152-1.372-.32-2.784.267-4.128C190.35-806.835,190.879-805.419,190.051-804.091Z" transform="translate(-186.641 -109.269)" fill="#feee6e"/>
      <path id="Trazado_572808" data-name="Trazado 572808" d="M41.554-879.861c.429-.32.429-.332,1.234-.317.748.014,1.5.057,2.243.093a.193.193,0,0,1,.015.114.421.421,0,0,1-.076.11Z" transform="translate(-79.151 -57.165)" fill="#feeac6"/>
      <path id="Trazado_572809" data-name="Trazado 572809" d="M150.477-880.022c.273-.646.83-.27,1.239-.3a19.639,19.639,0,0,1,2.24.075.193.193,0,0,1,.014.114.428.428,0,0,1-.076.11Z" transform="translate(-158.014 -57.005)" fill="#feeac6"/>
      <path id="Trazado_572810" data-name="Trazado 572810" d="M81.412-914.257c-.6-1.247-.143-2.572-.284-3.852C81.9-916.875,81.4-915.547,81.412-914.257Z" transform="translate(-107.777 -29.705)" fill="#029bde"/>
      <path id="Trazado_572811" data-name="Trazado 572811" d="M17.293-879.886l.26-.3c1.075.006,2.15.01,3.225.02.02,0,.058.09.055.092-.094.067-.193.127-.291.189Z" transform="translate(-61.585 -57.159)" fill="#fee9c5"/>
      <path id="Trazado_572812" data-name="Trazado 572812" d="M13.116-914.535c0,.085-.012.169-.022.253-.077.117-.164.13-.262.025,0-1.29-.494-2.615.28-3.848q0,.131,0,.262A8.471,8.471,0,0,1,13.116-914.535Z" transform="translate(-58.242 -29.708)" fill="#08b5fe"/>
      <path id="Trazado_572813" data-name="Trazado 572813" d="M132.09-802.649c.158-1.187-.332-2.425.28-3.577C132.319-805.031,132.827-803.791,132.09-802.649Z" transform="translate(-144.674 -110.711)" fill="#fefea6"/>
      <path id="Trazado_572814" data-name="Trazado 572814" d="M81.217-799.714v-2.461A1.754,1.754,0,0,1,81.217-799.714Z" transform="translate(-107.868 -113.645)" fill="#fd5928"/>
      <path id="Trazado_572815" data-name="Trazado 572815" d="M14.823-758.291c.627.949.153,2.006.3,3C14.333-756.221,14.884-757.286,14.823-758.291Z" transform="translate(-59.702 -145.418)" fill="#029ade"/>
      <path id="Trazado_572816" data-name="Trazado 572816" d="M63.791-758.291c.627.949.153,2.006.3,3C63.3-756.221,63.852-757.286,63.791-758.291Z" transform="translate(-95.156 -145.418)" fill="#029ade"/>
      <path id="Trazado_572817" data-name="Trazado 572817" d="M78.8-857.909l.268-.273a5.611,5.611,0,0,1,.051,2.486l-.321-.285A3.046,3.046,0,0,1,78.8-857.909Z" transform="translate(-106.004 -73.094)" fill="#d7fdfd"/>
      <path id="Trazado_572818" data-name="Trazado 572818" d="M79.44-755.527c-.658-.87-.171-1.866-.308-2.793C79.889-757.461,79.416-756.466,79.44-755.527Z" transform="translate(-106.325 -145.397)" fill="#08b5fd"/>
      <path id="Trazado_572819" data-name="Trazado 572819" d="M123.783-858.183l.268.274a3.046,3.046,0,0,1,0,1.927l-.321.286A5.616,5.616,0,0,1,123.783-858.183Z" transform="translate(-138.567 -73.093)" fill="#d7fdfd"/>
      <path id="Trazado_572820" data-name="Trazado 572820" d="M172.751-858.183l.268.274a3.044,3.044,0,0,1,0,1.927l-.321.286A5.611,5.611,0,0,1,172.751-858.183Z" transform="translate(-174.021 -73.093)" fill="#d7fdfd"/>
      <path id="Trazado_572821" data-name="Trazado 572821" d="M123.82-757.175c.425.871.113,1.8.205,2.695C123.292-755.328,123.668-756.26,123.82-757.175Z" transform="translate(-138.546 -146.226)" fill="#fc4825"/>
      <path id="Trazado_572822" data-name="Trazado 572822" d="M172.789-757.175c.425.871.113,1.8.205,2.695C172.26-755.328,172.636-756.26,172.789-757.175Z" transform="translate(-174 -146.226)" fill="#fc4825"/>
      <path id="Trazado_572823" data-name="Trazado 572823" d="M29.832-857.909l.268-.273a5.611,5.611,0,0,1,.05,2.486l-.321-.285A3.044,3.044,0,0,1,29.832-857.909Z" transform="translate(-70.549 -73.094)" fill="#d7fdfd"/>
      <path id="Trazado_572824" data-name="Trazado 572824" d="M30.472-755.527c-.658-.87-.171-1.866-.308-2.793C30.921-757.461,30.448-756.466,30.472-755.527Z" transform="translate(-70.871 -145.397)" fill="#08b5fd"/>
      <path id="Trazado_572825" data-name="Trazado 572825" d="M138.762-857.912l.262-.274a5.915,5.915,0,0,1,.049,2.485l-.313-.283A3.042,3.042,0,0,1,138.762-857.912Z" transform="translate(-149.418 -73.091)" fill="#d6fdfd"/>
      <path id="Trazado_572826" data-name="Trazado 572826" d="M187.73-857.912l.262-.274a5.905,5.905,0,0,1,.049,2.485l-.313-.283A3.044,3.044,0,0,1,187.73-857.912Z" transform="translate(-184.872 -73.091)" fill="#d6fdfd"/>
      <path id="Trazado_572827" data-name="Trazado 572827" d="M14.9-858.187l.262.275a3.044,3.044,0,0,1,0,1.928l-.313.285A5.918,5.918,0,0,1,14.9-858.187Z" transform="translate(-59.738 -73.09)" fill="#d6fdfd"/>
      <path id="Trazado_572828" data-name="Trazado 572828" d="M13.241-904.227c.087-.007.175-.015.262-.024.728.122,1.494-.17,2.2.2C14.878-904.052,14.031-903.732,13.241-904.227Z" transform="translate(-58.651 -39.738)" fill="#07a5ec"/>
      <path id="Trazado_572829" data-name="Trazado 572829" d="M201.339-904.89h-2.145l0-.274h2.171Z" transform="translate(-193.287 -39.077)" fill="#feedc9"/>
      <path id="Trazado_572830" data-name="Trazado 572830" d="M106.164-905.165h2.121l.014.274h-2.1a1.358,1.358,0,0,1-.059-.179C106.13-905.1,106.153-905.133,106.164-905.165Z" transform="translate(-125.909 -39.076)" fill="#feedc9"/>
      <path id="Trazado_572831" data-name="Trazado 572831" d="M63.867-858.187l.261.275a3.042,3.042,0,0,1,0,1.928l-.313.285A5.913,5.913,0,0,1,63.867-858.187Z" transform="translate(-95.192 -73.09)" fill="#d6fdfd"/>
      <path id="Trazado_572832" data-name="Trazado 572832" d="M57.822-873.874c.637.6.378,1.221.051,1.846A3.839,3.839,0,0,1,57.822-873.874Z" transform="translate(-90.866 -61.732)" fill="#fef6d0"/>
      <path id="Trazado_572833" data-name="Trazado 572833" d="M144.761-875.178l.324.359a3.835,3.835,0,0,1-.051,1.847l-.278-.281A3.044,3.044,0,0,1,144.761-875.178Z" transform="translate(-153.761 -60.788)" fill="#fef6d0"/>
      <path id="Trazado_572834" data-name="Trazado 572834" d="M93.918-904.891H92.35l-.007-.274H93.95Z" transform="translate(-115.923 -39.076)" fill="#feedc9"/>
      <path id="Trazado_572835" data-name="Trazado 572835" d="M-2.676-905.164H-1.1l.017.274H-2.645Z" transform="translate(-47.127 -39.077)" fill="#fed8a8"/>
      <path id="Trazado_572836" data-name="Trazado 572836" d="M62.528-946.937l-56.26,0c.409-.445.947-.267,1.43-.267q26.7-.013,53.4,0C61.582-947.206,62.12-947.383,62.528-946.937Z" transform="translate(-53.602 -8.612)" fill="#e69856"/>
      <path id="Trazado_572837" data-name="Trazado 572837" d="M144.071-875.942q0,.963-.006,1.925c-.545-.649-.1-1.5-.416-2.212A.906.906,0,0,1,144.071-875.942Z" transform="translate(-153.071 -60.024)" fill="#f8dfbd"/>
      <path id="Trazado_572838" data-name="Trazado 572838" d="M167.149-872.974c.162-.728-.236-1.526.276-2.21a3.041,3.041,0,0,1,.007,1.927l-.283.282Z" transform="translate(-170.085 -60.784)" fill="#fef6d0"/>
      <path id="Trazado_572839" data-name="Trazado 572839" d="M168.158-873.257q0-.964-.007-1.927A1.6,1.6,0,0,1,168.158-873.257Z" transform="translate(-170.811 -60.784)" fill="#f8dfbd"/>
      <path id="Trazado_572840" data-name="Trazado 572840" d="M119.191-818.967c.314-.38.751-.272,1.15-.272q9.192-.007,18.384,0c.4,0,.836-.108,1.15.273a1.533,1.533,0,0,1-.934.132q-9.408,0-18.816,0A1.529,1.529,0,0,1,119.191-818.967Z" transform="translate(-135.362 -101.279)" fill="#fbe1be"/>
      <path id="Trazado_572841" data-name="Trazado 572841" d="M119.191-818.216h20.684c-.318.373-.755.263-1.154.264q-9.189.008-18.377,0C119.946-817.952,119.509-817.842,119.191-818.216Z" transform="translate(-135.362 -102.03)" fill="#feeeca"/>
      <path id="Trazado_572842" data-name="Trazado 572842" d="M35.834-875.184c.512.684.114,1.482.276,2.21h0l-.283-.282A3.045,3.045,0,0,1,35.834-875.184Z" transform="translate(-74.893 -60.784)" fill="#fef6d0"/>
      <path id="Trazado_572843" data-name="Trazado 572843" d="M35.4-875.184q0,.964-.007,1.927A1.6,1.6,0,0,1,35.4-875.184Z" transform="translate(-74.456 -60.784)" fill="#f8dfbd"/>
      <path id="Trazado_572844" data-name="Trazado 572844" d="M18.207-935.135l21.8-.01c-.408.445-.947.266-1.429.267q-10.181.016-20.362.005C18.216-934.96,18.213-935.048,18.207-935.135Z" transform="translate(-62.247 -17.37)" fill="#fbe1bf"/>
      <path id="Trazado_572845" data-name="Trazado 572845" d="M149.176-769.125a6.485,6.485,0,0,1,4.135,0A13.357,13.357,0,0,1,149.176-769.125Z" transform="translate(-157.072 -137.329)" fill="#f9e0be"/>
      <path id="Trazado_572846" data-name="Trazado 572846" d="M149.176-768.237h4.135A6.96,6.96,0,0,1,149.176-768.237Z" transform="translate(-157.072 -138.217)" fill="#fef3ce"/>
      <path id="Trazado_572847" data-name="Trazado 572847" d="M174.157-769.12a5.732,5.732,0,0,1,3.86,0A11.379,11.379,0,0,1,174.157-769.12Z" transform="translate(-175.159 -137.335)" fill="#f9e0be"/>
      <path id="Trazado_572848" data-name="Trazado 572848" d="M129.048-768.68a6.186,6.186,0,0,1-3.861,0A11.232,11.232,0,0,1,129.048-768.68Z" transform="translate(-139.704 -137.775)" fill="#fef3cf"/>
      <path id="Trazado_572849" data-name="Trazado 572849" d="M129.048-769.12h-3.861A5.735,5.735,0,0,1,129.048-769.12Z" transform="translate(-139.704 -137.335)" fill="#f9e0be"/>
      <path id="Trazado_572850" data-name="Trazado 572850" d="M174.157-768.243h3.86A6.181,6.181,0,0,1,174.157-768.243Z" transform="translate(-175.159 -138.212)" fill="#fef3cf"/>
      <path id="Trazado_572851" data-name="Trazado 572851" d="M19.26-771.239H40.769c-.361.414-.849.268-1.288.269q-9.467.012-18.933,0C20.108-770.971,19.62-770.825,19.26-771.239Z" transform="translate(-63.009 -136.043)" fill="#fbe1be"/>
      <path id="Trazado_572852" data-name="Trazado 572852" d="M3.515-771.251q0,.136.014.272-.01.277-.021.554a2.194,2.194,0,0,1-1.651,0c.23-.438.78-.109,1.1-.457-1.57-.369-3.183.3-4.684-.369Z" transform="translate(-47.813 -136.035)" fill="#facea1"/>
      <path id="Trazado_572853" data-name="Trazado 572853" d="M11.261-768.257l1.651,0a1.489,1.489,0,0,0,.022.2l-1.636.044A.864.864,0,0,1,11.261-768.257Z" transform="translate(-57.217 -138.199)" fill="#fee0ae"/>
      <path id="Trazado_572854" data-name="Trazado 572854" d="M153.738-857.8h-3.485v-.132h3.491Z" transform="translate(-157.852 -73.276)" fill="#d1fafe"/>
      <ellipse id="Elipse_7100" data-name="Elipse 7100" cx="2.47" cy="0.09" rx="2.47" ry="0.09" transform="translate(-38.354 -931.216)" fill="#d1fafe"/>
      <path id="Trazado_572855" data-name="Trazado 572855" d="M132.416-904.967c-.726-.1-1.51.294-2.18-.263C130.96-905.118,131.743-905.5,132.416-904.967Z" transform="translate(-143.359 -39.009)" fill="#59c497"/>
      <path id="Trazado_572856" data-name="Trazado 572856" d="M181.384-904.967c-.726-.1-1.51.294-2.179-.263C179.929-905.118,180.712-905.5,181.384-904.967Z" transform="translate(-178.814 -39.009)" fill="#59c497"/>
      <path id="Trazado_572857" data-name="Trazado 572857" d="M125.381-808.013h1.272l.005.13h-1.273Z" transform="translate(-139.844 -109.418)" fill="#fefea6"/>
      <path id="Trazado_572858" data-name="Trazado 572858" d="M14.266-913.847q0-1.654,0-3.307c.335.266.287.645.27,1-.065,1.32-.17,2.66,2.2,1.835l-.325.474Z" transform="translate(-59.392 -30.396)" fill="#07a5ec"/>
      <path id="Trazado_572859" data-name="Trazado 572859" d="M157.687-905.024l-2.446-.007A2.611,2.611,0,0,1,157.687-905.024Z" transform="translate(-161.464 -38.956)" fill="#5ac498"/>
      <path id="Trazado_572860" data-name="Trazado 572860" d="M46.27-758.223l2.468,0A2.541,2.541,0,0,1,46.27-758.223Z" transform="translate(-82.565 -145.464)" fill="#08adf5"/>
      <path id="Trazado_572861" data-name="Trazado 572861" d="M65.23-855.264q0-.964,0-1.928h3.86q0,.964,0,1.927c-.248-1.1-.64-1.718-2.063-1.738C65.542-857.022,65.564-856.1,65.23-855.264Z" transform="translate(-96.291 -73.81)" fill="#c4eaf9"/>
      <path id="Trazado_572862" data-name="Trazado 572862" d="M129.05-857.192q0,.964,0,1.928c-.334-.837-.312-1.758-1.793-1.738-1.422.02-1.815.637-2.063,1.738q0-.964,0-1.927Z" transform="translate(-139.706 -73.81)" fill="#c4eaf9"/>
      <path id="Trazado_572863" data-name="Trazado 572863" d="M178.018-857.192q0,.964,0,1.928c-.334-.837-.312-1.758-1.793-1.738-1.422.02-1.815.637-2.063,1.738q0-.964,0-1.927Z" transform="translate(-175.16 -73.81)" fill="#c4eaf9"/>
      <path id="Trazado_572864" data-name="Trazado 572864" d="M16.262-855.264q0-.964,0-1.928h3.86q0,.964,0,1.927c-.248-1.1-.64-1.718-2.063-1.738C16.574-857.022,16.6-856.1,16.262-855.264Z" transform="translate(-60.837 -73.81)" fill="#c4eaf9"/>
    </g>
  </g>
</svg>
