<svg xmlns="http://www.w3.org/2000/svg" width="107" height="107" viewBox="0 0 107 107">
  <g id="Grupo_845169" data-name="Grupo 845169" transform="translate(-240 -1286.742)">
    <rect id="Rectángulo_38178" data-name="Rectángulo 38178" width="107" height="107" transform="translate(240 1286.742)" fill="none"/>
    <g id="Grupo_845170" data-name="Grupo 845170" transform="translate(245.23 1291.98)">
      <path id="Trazado_581577" data-name="Trazado 581577" d="M3257.878-717.213c1.067.445,2.187.117,3.277.218.705.066,1.515-.189,1.968.645-.983.517-2.012-.013-3.019.125-.64.088-1.3.026-1.953.06-.244.1.094.449-.017.224-.048-.1-.019-.159.085-.164,1.764-.076,3.552-.432,5.229.469.022,1.818.019,3.636.078,5.452.046,1.408-.69,1.838-1.973,1.893-1.223.053-2.482-.339-3.67.236-.47,1.592,0,3.245-.322,4.847a2.229,2.229,0,0,1-2,.774c-3.452-.026-6.9-.034-10.356.006a2.5,2.5,0,0,1-2.011-.779c-.534-1.616.062-3.32-.381-4.943a4.468,4.468,0,0,0-2.035-.151q-19.469-.017-38.939,0c-1.148,0-2.322.117-2.736-1.345-.213-1.334.638-1.781,1.71-1.984a15,15,0,0,1,2.819-.109q26.365,0,52.733-.005a11.6,11.6,0,0,0,2.988-.176c.96-.7.9-1.221-.284-1.544-16.655-.064-33.3-.016-49.943-.018-12.562,0-25.125-.05-37.677.038q-1.709.5-.268,1.554a62.562,62.562,0,0,0,7.723.147c4.835.05,9.673-.047,14.508.045,2.215.042,2.715.666,2.282,2.493-.383.972-1.237.867-2.039.9a44.3,44.3,0,0,0-5.924.158c-.443,1.623.156,3.327-.382,4.943a2.506,2.506,0,0,1-2.012.78c-3.452-.04-6.9-.032-10.357-.006a2.218,2.218,0,0,1-2-.774c-.32-1.6.148-3.254-.321-4.844-1.124-.562-2.325-.234-3.479-.228-1.63.008-2.271-.666-2.174-2.277a38.592,38.592,0,0,0,0-4.327c-.083-1.575.665-2.112,2.139-2.13a9.293,9.293,0,0,0,3.515-.2,9.851,9.851,0,0,0,.209-2.806q0-37.952.007-75.9a8.184,8.184,0,0,1,.1-2.248c.655-.93,1.636-.776,2.568-.761,6.868.106,5.994-1.067,6.021,5.929q.052,13.75-.014,27.5c-.006,1.184.1,1.741,1.555,1.766,1.62.028,1.3-.9,1.3-1.8q.006-12.431.014-24.863c0-.72-.266-1.527.417-2.127a.338.338,0,0,1,.468.3c0,.343-.014.683-.012,1.026,0,8.766,0,17.531,0,24.647.056-7.337-.043-16.324.041-25.311.638-1.125,1.746-.809,2.7-.813,8.034-.029,16.068-.016,24.1-.016q15.158,0,30.316.015c.952,0,2.049-.311,2.738.745.111,9.023,0,18.047.056,27.07q-.005-13.166,0-26.33c0-.342-.008-.685-.011-1.026a.341.341,0,0,1,.468-.307c.681.6.417,1.406.418,2.126q.027,12.427,0,24.854c0,1.109-.034,1.8,1.5,1.808s1.363-.8,1.362-1.756q-.013-13.933,0-27.866c.012-6.442-.67-5.492,5.65-5.563.376,0,.754.015,1.129,0,1.242-.058,1.9.514,1.9,1.768,0,4.582,0,9.164.008,13.745a1.676,1.676,0,0,1-1.293,1.822c-1.776.353-1.96-.967-2.039-2.121-.182-2.676-.037-5.363-.078-8.045a9.118,9.118,0,0,0-.235-3.143c-.546-.719-1-.556-1.4.153a11.287,11.287,0,0,0-.146,2.637q0,35.516,0,71.033a9.278,9.278,0,0,0,.2,2.8c.481.714.982.8,1.514.042a10.658,10.658,0,0,0,.122-2.628q.009-26.685.006-53.37a12.192,12.192,0,0,1,.084-2.438c.218-1.058.668-1.921,2.015-1.612l1.017.475c.472.62.232,1.338.232,2q.023,27.986.012,55.971A9.286,9.286,0,0,0,3257.878-717.213Z" transform="translate(-3166.989 798.95)"/>
      <path id="Trazado_581578" data-name="Trazado 581578" d="M3175.372-574.017c.563-.023,1.126-.066,1.689-.066q43.176,0,86.35,0c.563,0,1.125.043,1.689.066.492.81-.167,1.8.4,2.6-.617.67-1.42.334-2.126.335q-28.339.032-56.679,0c-1.211,0-2.281.052-2.631,1.484-1.141.112-2.37-.449-3.409.442.215-1.715-.8-1.933-2.187-1.927q-10.786.048-21.572,0c-.644,0-1.383.306-1.932-.334C3175.542-572.215,3174.879-573.206,3175.372-574.017Z" transform="translate(-3171.958 658.896)" fill="#675d66"/>
      <path id="Trazado_581579" data-name="Trazado 581579" d="M3396.388-773.323c-1.584.156-1.577,1.289-1.575,2.48q.021,13.535.008,27.07,0,14.851-.02,29.7c0,.63.358,1.38-.34,1.907a2.623,2.623,0,0,0-2.284.007c-.7-.443-.36-1.141-.361-1.707q-.03-37.709,0-75.417c0-.567-.336-1.265.36-1.708a2.627,2.627,0,0,0,2.285.007c.671.454.335,1.142.341,1.711q.054,5.242,0,10.484c-.013,1.149.291,1.959,1.535,2.159Z" transform="translate(-3306.969 793.992)" fill="#887d8a"/>
      <path id="Trazado_581580" data-name="Trazado 581580" d="M3214.565-782.909c-.084-.013-.169-.024-.254-.031.492-.812,1.31-.6,2.026-.6q28.4-.016,56.807,0c.716,0,1.533-.212,2.026.6-.085.007-.17.018-.254.031a2.9,2.9,0,0,1-1.478.144q-28.7.009-57.395,0A2.9,2.9,0,0,1,3214.565-782.909Z" transform="translate(-3196.463 789.367)"/>
      <path id="Trazado_581581" data-name="Trazado 581581" d="M3413.635-579.291c-1.8-.56-3.676-.3-5.514-.52a25.388,25.388,0,0,1,5.189-.194A.546.546,0,0,1,3413.635-579.291Z" transform="translate(-3317.175 662.606)" fill="#050505"/>
      <path id="Trazado_581582" data-name="Trazado 581582" d="M3241.166-686.95a1.624,1.624,0,0,0,1.848,1.222q14.866-.049,29.731-.068c.489.467.262,1.069.262,1.6.014,11.668,0,23.336.031,35,0,1.146-.2,1.657-1.523,1.67-1.36.014-1.525-.552-1.521-1.679.032-8.28.012-16.561.026-24.841,0-.9.038-1.773-.906-2.279a6.58,6.58,0,0,0-2.967-.288c-18.7,0-37.392-.034-56.088.012a2.851,2.851,0,0,1-.93-.088c-.951.486-.693,1.383-.694,2.157q-.021,12.615,0,25.23c0,.959.18,1.762-1.36,1.754s-1.5-.725-1.5-1.829c.025-11.548.043-23.1-.019-34.643-.008-1.432.383-1.767,1.781-1.757,9.352.064,18.705.034,28.058.032,1,0,2.086.173,2.41-1.193A2.652,2.652,0,0,1,3241.166-686.95Z" transform="translate(-3191.007 729.561)" fill="#f7f9fa"/>
      <path id="Trazado_581583" data-name="Trazado 581583" d="M3303.941-776c1.751-.024,3.5,0,5.25-.093,1.042-.058,1.264.372,1.227,1.3-.062,1.562-.041,3.128-.01,4.691.039,1.948.944,2.6,2.6,1.673a3.308,3.308,0,0,1,3.767-.015c1.56.938,2.512.313,2.573-1.492.056-1.687,0-3.378.022-5.067,0-.4-.169-1.055.47-1.025,2.741.131,5.516-.523,8.223.344a3.874,3.874,0,0,0-.181,2.022c-.015,7.189-.006,14.378-.015,21.567a6.3,6.3,0,0,1-.113,2.047,2.586,2.586,0,0,1-1.469.172c-7.332,0-14.664.023-22-.008a.792.792,0,0,1-.608-.372,5.285,5.285,0,0,1-.367-2.578q-.016-10.157,0-20.314C3303.314-774.128,3303.156-775.173,3303.941-776Z" transform="translate(-3251.888 784.74)" fill="#ecb993"/>
      <path id="Trazado_581584" data-name="Trazado 581584" d="M3225.97-776.266c2-.013,4.5-.762,5.885.158,1.526,1.012.4,3.676.528,5.612.153,2.4.732,2.864,2.756,1.758a3.037,3.037,0,0,1,3.435-.074c1.842,1.111,2.75.47,2.785-1.733.024-1.568.011-3.136,0-4.7,0-.6-.009-1.111.849-1.1,2.507.041,5.016.026,7.524.056.114,0,.225.228.337.35a5.785,5.785,0,0,0-.164,2.416q-.025,10.923.008,21.846c0,1.051-.147,1.584-1.407,1.574-7.346-.06-14.691-.016-22.037-.033a2.1,2.1,0,0,1-.549-.118,3.4,3.4,0,0,1-.587-2.495q-.028-10.52,0-21.041A3.171,3.171,0,0,1,3225.97-776.266Z" transform="translate(-3203.32 785.008)" fill="#ecb993"/>
      <path id="Trazado_581585" data-name="Trazado 581585" d="M3225.969-652.06c1.749-.025,3.5,0,5.247-.1,1.067-.062,1.239.415,1.207,1.322-.056,1.562-.046,3.128-.007,4.69.049,1.946.942,2.565,2.623,1.621a3.323,3.323,0,0,1,3.771.03c1.531.914,2.5.264,2.544-1.532.044-1.688.024-3.377,0-5.066-.008-.64.067-1.072.89-1.056,2.5.048,5,.032,7.5.065.109,0,.215.235.323.36a4.26,4.26,0,0,0-.167,2.034c-.014,7.08,0,14.16-.016,21.24a5.067,5.067,0,0,1-.144,2.044,2.066,2.066,0,0,1-1.432.3q-10.481.015-20.962,0a2.412,2.412,0,0,1-1.449-.264,3.929,3.929,0,0,1-.57-2.7q-.026-10.162,0-20.326A3.49,3.49,0,0,1,3225.969-652.06Z" transform="translate(-3203.319 707.524)" fill="#ecb993"/>
      <path id="Trazado_581586" data-name="Trazado 581586" d="M3303.927-652.058c1.75-.026,3.5,0,5.248-.1,1.04-.059,1.267.367,1.229,1.3-.063,1.562-.048,3.128-.009,4.692.05,1.958.935,2.584,2.611,1.649a3.322,3.322,0,0,1,3.772.011c1.537.926,2.507.283,2.554-1.507.044-1.688.006-3.378.014-5.068,0-.485-.11-1.062.679-1.054,2.624.028,5.25.051,7.874.092.051,0,.1.2.147.314a3.876,3.876,0,0,0-.184,2.021c-.07,7.624.1,15.248-.1,22.872-.328.693-.961.727-1.6.729q-10.622.015-21.245,0a1.73,1.73,0,0,1-1.075-.269,4.02,4.02,0,0,1-.555-2.7q-.025-10.156,0-20.311A3.48,3.48,0,0,1,3303.927-652.058Z" transform="translate(-3251.875 707.524)" fill="#ecb993"/>
      <path id="Trazado_581587" data-name="Trazado 581587" d="M3190.327-712.2c-.671-.46-.342-1.152-.342-1.724q-.031-37.69,0-75.379c0-.576-.315-1.263.332-1.735a2.443,2.443,0,0,0,2.306-.009c.674.455.351,1.148.352,1.72q.029,37.713,0,75.426c0,.567.336,1.265-.36,1.708A2.626,2.626,0,0,0,3190.327-712.2Z" transform="translate(-3181.261 794.027)" fill="#887d8a"/>
      <path id="Trazado_581588" data-name="Trazado 581588" d="M3241.477-693.516a8.127,8.127,0,0,0-3.365.022c-.1-1.63-1.259-1.582-2.442-1.58q-13.837.018-27.672-.009c-.648,0-1.385.3-1.947-.32a3.932,3.932,0,0,1,2.027-.174q13.348-.022,26.7-.012a9.323,9.323,0,0,0,1.768-.076c.24-.107-.081-.461.022-.232.038.084,0,.112-.063.153-.51.318-1.068.136-1.6.136q-13.255.022-26.507.01c-2.36,0-2.36,0-1.974-2.429,10.525-.021,21.051-.058,31.576-.057q17.386,0,34.772.057c.386,2.425.386,2.429-1.974,2.429q-12.875,0-25.751-.015c-.55,0-1.192.288-1.659-.192.2.509.7.2,1.038.2,8.9.02,17.794.011,26.691.026a3.933,3.933,0,0,1,2.027.174c-.56.619-1.3.318-1.942.32q-13.613.035-27.226.01C3242.79-695.076,3241.651-695.091,3241.477-693.516Z" transform="translate(-3191.318 736.126)" fill="#675d66"/>
      <path id="Trazado_581589" data-name="Trazado 581589" d="M3275.383-673.807c1.03.534.7,1.51.706,2.333q.03,12.511.013,25.023c0,.907-.285,1.811,1.317,1.789,1.487-.02,1.537-.647,1.533-1.8-.032-11.539-.018-23.079-.024-34.618a3.294,3.294,0,0,0-.229-1.838c.711.41.466,1.107.467,1.7.013,11.614-.005,23.227.03,34.841,0,1.27-.16,1.953-1.7,1.945-1.487-.008-1.758-.578-1.75-1.9.05-8.035.025-16.07.025-24.106v-1.849l-.353,0v27h-.4v-1.834c0-8.035-.031-16.071.029-24.106.01-1.438-.336-1.949-1.879-1.945q-27.876.078-55.753,0c-1.593,0-2,.49-1.988,2.029.07,7.972.032,15.945.032,23.917v1.858l-.348,0v-28.158a3.384,3.384,0,0,1,2-.361q28.292,0,56.584,0C3274.26-673.9,3274.819-673.827,3275.383-673.807Z" transform="translate(-3196.96 726.678)" fill="#040404"/>
      <path id="Trazado_581590" data-name="Trazado 581590" d="M3223.3-775.98q0,12.975,0,25.951c.132.083.176.165.131.246s-.09.121-.135.121h-1.886a4.029,4.029,0,0,1-.174-2.026c-.015-7.317,0-14.633-.019-21.95a3.886,3.886,0,0,0-.181-2.023C3221.693-776.48,3222.545-775.906,3223.3-775.98Z" transform="translate(-3200.654 784.723)" fill="#e3a77e"/>
      <path id="Trazado_581591" data-name="Trazado 581591" d="M3301.282-652.105l0,25.585c.04.086.081.171.12.257a.474.474,0,0,1-.439.3c-.644-.066-1.318.19-1.937-.174l0-.383a2.177,2.177,0,0,0,.171-1.278q.008-11.344,0-22.689a2.172,2.172,0,0,0-.172-1.278C3299.671-652.624,3300.527-652.027,3301.282-652.105Z" transform="translate(-3249.229 707.571)" fill="#e4a77e"/>
      <path id="Trazado_581592" data-name="Trazado 581592" d="M3301.29-775.98q-.007,12.975-.012,25.95c-2.045.309-2.059.309-2.06-1.588q-.008-11-.01-22a4.342,4.342,0,0,0-.165-2.036C3299.689-776.484,3300.536-775.906,3301.29-775.98Z" transform="translate(-3249.237 784.723)" fill="#e3a77e"/>
      <path id="Trazado_581593" data-name="Trazado 581593" d="M3223.3-652.11l0,25.586c.034.1.069.2.1.3a.577.577,0,0,1-.545.261c-.557-.165-1.395.427-1.63-.6q-.006-11.59-.011-23.176a3.839,3.839,0,0,0-.183-2.03C3221.678-652.629,3222.537-652.034,3223.3-652.11Z" transform="translate(-3200.649 707.575)" fill="#e3a77e"/>
      <path id="Trazado_581594" data-name="Trazado 581594" d="M3275.338-659.382c-.482.422-1.07.284-1.62.284q-29.327,0-58.654-.008a1.537,1.537,0,0,1-.027-.268c.585-.535,1.31-.348,1.981-.348q28.167-.014,56.335,0C3274.025-659.722,3274.749-659.91,3275.338-659.382Z" transform="translate(-3196.915 712.254)"/>
      <path id="Trazado_581595" data-name="Trazado 581595" d="M3194.464-555.716c-.879,0-1.758-.018-2.636,0-1,.023-1.927.275-1.925-1.4,0-1.59.717-1.7,1.938-1.662,1.943.062,3.892.07,5.835,0,1.443-.05,1.172.912,1.23,1.767.063.926-.177,1.405-1.244,1.309S3195.53-555.715,3194.464-555.716Z" transform="translate(-3181.261 649.362)" fill="#877c89"/>
      <path id="Trazado_581596" data-name="Trazado 581596" d="M3380.6-555.718c-.878,0-1.76-.042-2.635.007-1.078.06-1.9.119-1.873-1.464.026-1.441.626-1.645,1.822-1.6,1.943.07,3.892.083,5.834,0,1.322-.058,1.346.666,1.353,1.646,0,.953-.088,1.569-1.3,1.44A31.075,31.075,0,0,0,3380.6-555.718Z" transform="translate(-3297.223 649.364)" fill="#877c89"/>
      <path id="Trazado_581597" data-name="Trazado 581597" d="M3214.986-781.827h60.351q-.009.361-.019.72c-.126.178-.251.17-.377,0-.558-.608-1.293-.366-1.953-.367q-27.828-.018-55.655,0c-.66,0-1.4-.241-1.953.367-.125.17-.25.179-.376,0Z" transform="translate(-3196.883 788.286)" fill="#050505"/>
      <path id="Trazado_581598" data-name="Trazado 581598" d="M3405.342-740.7v59.367h-.189v-59.427Z" transform="translate(-3315.326 762.706)" fill="#050505"/>
      <path id="Trazado_581599" data-name="Trazado 581599" d="M3227.03-748.917q0-.184,0-.367c7.15,0,14.3-.056,21.449.039,1.76.023,2.368-.39,2.339-2.255-.108-7.147-.05-14.3-.033-21.445,0-.662-.237-1.394.346-1.964q.044,12.506.1,25.012c0,.815-.248,1.083-1.071,1.077C3242.453-748.872,3234.741-748.89,3227.03-748.917Z" transform="translate(-3204.384 783.977)" fill="#f0bc95"/>
      <path id="Trazado_581600" data-name="Trazado 581600" d="M3298.192-560.656h-42.036v-.188h42.094Z" transform="translate(-3222.525 650.649)" fill="#050505"/>
      <path id="Trazado_581601" data-name="Trazado 581601" d="M3386.083-644.2v-37.415h.187v37.487Z" transform="translate(-3303.449 725.87)" fill="#050505"/>
      <path id="Trazado_581602" data-name="Trazado 581602" d="M3203.544-681.742v37.411h-.188V-681.9Z" transform="translate(-3189.639 726.047)" fill="#050505"/>
      <path id="Trazado_581603" data-name="Trazado 581603" d="M3386.529-796.28v33.56h-.234v-33.493Z" transform="translate(-3303.581 797.287)" fill="#050505"/>
      <path id="Trazado_581604" data-name="Trazado 581604" d="M3203.18-762.279v-33.27h.189V-762.2Z" transform="translate(-3189.53 796.832)" fill="#050505"/>
      <path id="Trazado_581605" data-name="Trazado 581605" d="M3206.183-697.932c-.307,1.812.453,2.306,2.257,2.287,8.776-.092,17.553-.041,26.33-.041h1.852l0,.377h-30.806C3205.826-696.2,3205.293-697.167,3206.183-697.932Z" transform="translate(-3191.078 736.032)" fill="#6c616b"/>
      <path id="Trazado_581606" data-name="Trazado 581606" d="M3334.279-695.31h-30.054l-.015-.377h1.865c8.526,0,17.052-.052,25.577.042,1.8.02,2.563-.476,2.256-2.287C3334.8-697.167,3334.263-696.2,3334.279-695.31Z" transform="translate(-3252.454 736.033)" fill="#6c616b"/>
      <path id="Trazado_581607" data-name="Trazado 581607" d="M3332.719-773.854c-.5.411.84,1.841-.758,1.743-1.031-.063-3.083.852-2.492-1.812.241-1.091-.28-2.407,1.7-2.174C3332.7-775.917,3332.717-776.053,3332.719-773.854Z" transform="translate(-3268.122 784.734)" fill="#fb692f"/>
      <path id="Trazado_581608" data-name="Trazado 581608" d="M3251.495-773.8c-.106-1.353-.285-2.375,1.638-2.358,1.9.017,1.64,1.128,1.485,2.152-.1.641.867,2-.711,1.871C3252.9-772.219,3250.61-771.161,3251.495-773.8Z" transform="translate(-3219.498 784.757)" fill="#fb692f"/>
      <path id="Trazado_581609" data-name="Trazado 581609" d="M3254.716-649.96c-.523.38.9,1.8-.807,1.7-1.141-.069-2.96.68-2.465-1.868.228-1.178-.094-2.172,1.767-2.159C3255.156-652.274,3254.648-651.111,3254.716-649.96Z" transform="translate(-3219.538 707.603)" fill="#fb682f"/>
      <path id="Trazado_581610" data-name="Trazado 581610" d="M3332.813-648.066a5.508,5.508,0,0,1-1.068-.248c-.694-.342-1.717.644-1.985-.07a6.8,6.8,0,0,1-.106-3.121c.165-1.286,1.271-.549,1.948-.68.627-.122,1.257-.064,1.221.889C3332.782-650.256,3332.813-649.212,3332.813-648.066Z" transform="translate(-3268.223 707.597)" fill="#fb682f"/>
      <path id="Trazado_581611" data-name="Trazado 581611" d="M3373.951-779.92h.377V-752.5h-.377Z" transform="translate(-3295.893 787.097)" fill="#030303"/>
      <path id="Trazado_581612" data-name="Trazado 581612" d="M3215.035-779.919h.377V-752.5h-.377Z" transform="translate(-3196.914 787.097)" fill="#030303"/>
      <path id="Trazado_581613" data-name="Trazado 581613" d="M3298.9-774.911c.582.57.344,1.3.347,1.962.016,7.267.053,14.535-.025,21.8-.015,1.51.453,2.083,1.913,1.864l.015,0q.182.126.118.246c-.042.079-.084.12-.125.12-2.329.167-2.338.167-2.33-2.137Q3298.85-762.984,3298.9-774.911Z" transform="translate(-3249.093 783.978)" fill="#e7a980"/>
      <path id="Trazado_581614" data-name="Trazado 581614" d="M3367.7-749.292q0-11.744.013-23.489c0-.719-.278-1.517.361-2.141q.045,12.576.085,25.151c0,.343.1.787-.459.844q-.2-.122-.135-.244C3367.612-749.251,3367.656-749.292,3367.7-749.292Z" transform="translate(-3291.906 783.984)" fill="#f3bf97"/>
      <path id="Trazado_581615" data-name="Trazado 581615" d="M3220.892-774.921c.638.623.359,1.422.361,2.14q.03,11.929.013,23.858c-.552-.07-.457-.509-.457-.855Q3220.844-762.349,3220.892-774.921Z" transform="translate(-3200.506 783.984)" fill="#ebac82"/>
      <path id="Trazado_581616" data-name="Trazado 581616" d="M3367.641-626.128c0-7.58-.007-15.159.014-22.738,0-.718-.279-1.517.364-2.139q.226,12.815,0,25.63a.343.343,0,0,1-.484.016A.642.642,0,0,1,3367.641-626.128Z" transform="translate(-3291.846 706.804)" fill="#f3bf97"/>
      <path id="Trazado_581617" data-name="Trazado 581617" d="M3221.033-651.005c.642.622.361,1.421.364,2.139q.032,11.745.014,23.49a.227.227,0,0,1-.377,0Q3221.033-638.19,3221.033-651.005Z" transform="translate(-3200.649 706.804)" fill="#ebac82"/>
      <path id="Trazado_581618" data-name="Trazado 581618" d="M3299.036-650.995c.5.439.354,1.034.355,1.578q.012,11.044,0,22.088c0,.545.147,1.139-.354,1.579Q3299.035-638.373,3299.036-650.995Z" transform="translate(-3249.233 706.798)" fill="#e7a97f"/>
      <path id="Trazado_581619" data-name="Trazado 581619" d="M3289.936-625.746q0-11.645.01-23.289c0-.661-.237-1.392.349-1.959q0,12.624,0,25.248A.217.217,0,0,1,3289.936-625.746Z" transform="translate(-3243.542 706.797)" fill="#efbb95"/>
      <path id="Trazado_581620" data-name="Trazado 581620" d="M3250.782-584.052h.361l0,.379a2.093,2.093,0,0,1-1.275.179q-10.781.007-21.561,0a2.078,2.078,0,0,1-1.275-.179q0-.19,0-.379Z" transform="translate(-3204.387 665.104)" fill="#e8b690"/>
      <path id="Trazado_581621" data-name="Trazado 581621" d="M3328.5-583.379l.379,0c-.026.564-.459.5-.814.5q-11.656-.043-23.314-.1-.187-.135-.124-.266c.042-.087.085-.131.128-.131h0a2.029,2.029,0,0,1,1.274-.184q10.6-.008,21.194,0A2.005,2.005,0,0,1,3328.5-583.379Z" transform="translate(-3252.704 664.807)" fill="#fbc49c"/>
      <path id="Trazado_581622" data-name="Trazado 581622" d="M3226.8-583.048h24.111c-.03.562-.463.5-.817.5q-11.649-.042-23.3-.1c-.124-.09-.165-.179-.123-.268s.084-.133.126-.133Z" transform="translate(-3204.149 664.478)" fill="#fbc49c"/>
      <path id="Trazado_581623" data-name="Trazado 581623" d="M3328.738-706.971q0,.183,0,.366H3304.99c0-.122,0-.244.008-.365Z" transform="translate(-3252.941 741.663)" fill="#f0bc95"/>
      <path id="Trazado_581624" data-name="Trazado 581624" d="M3228.77-560.563h-6.508v-.189h6.666Z" transform="translate(-3201.415 650.591)" fill="#050505"/>
      <path id="Trazado_581625" data-name="Trazado 581625" d="M3174.732-579.574h-4.39l0-.167h4.39Z" transform="translate(-3169.075 662.419)" fill="#050505"/>
      <path id="Trazado_581626" data-name="Trazado 581626" d="M3184.3-553.161v-3.648l.163,0v3.647Z" transform="translate(-3177.769 648.138)" fill="#050505"/>
      <path id="Trazado_581627" data-name="Trazado 581627" d="M3405.2-553.356v-3.625h.189v3.65Z" transform="translate(-3315.353 648.243)" fill="#050505"/>
      <path id="Trazado_581628" data-name="Trazado 581628" d="M3206.77-579.907a2.774,2.774,0,0,1,2.086.036A2.773,2.773,0,0,1,3206.77-579.907Z" transform="translate(-3191.766 662.638)" fill="#050505"/>
      <path id="Trazado_581629" data-name="Trazado 581629" d="M3379.007-579.694h-2.22A2.345,2.345,0,0,1,3379.007-579.694Z" transform="translate(-3297.659 662.559)" fill="#050505"/>
      <path id="Trazado_581630" data-name="Trazado 581630" d="M3175.171-573.9c-.137.866.363,1.832-.4,2.6C3174.835-572.181,3174.246-573.16,3175.171-573.9Z" transform="translate(-3171.757 658.783)" fill="#6f646e"/>
      <path id="Trazado_581631" data-name="Trazado 581631" d="M3414.289-571.306c-.764-.768-.264-1.733-.4-2.6C3414.808-573.16,3414.221-572.182,3414.289-571.306Z" transform="translate(-3320.744 658.784)" fill="#6f646e"/>
      <path id="Trazado_581632" data-name="Trazado 581632" d="M3191.025-582.737a1.663,1.663,0,0,1,2.284.007Z" transform="translate(-3181.959 664.565)" fill="#908592"/>
      <path id="Trazado_581633" data-name="Trazado 581633" d="M3223.294-583.051l0,.4c-.776,0-1.646.523-2.258-.4h.377Z" transform="translate(-3200.65 664.481)" fill="#f3b287"/>
      <path id="Trazado_581634" data-name="Trazado 581634" d="M3193.3-791.046a1.635,1.635,0,0,1-2.3.009Z" transform="translate(-3181.94 794.027)" fill="#938795"/>
      <path id="Trazado_581635" data-name="Trazado 581635" d="M3301.28-583.045l-.005.4c-.771,0-1.636.525-2.244-.4Z" transform="translate(-3249.229 664.478)" fill="#f2b186"/>
      <path id="Trazado_581636" data-name="Trazado 581636" d="M3392.908-582.73a1.663,1.663,0,0,1,2.284-.007Z" transform="translate(-3307.7 664.565)" fill="#908592"/>
      <path id="Trazado_581637" data-name="Trazado 581637" d="M3395.19-790.982a1.662,1.662,0,0,1-2.283-.007Z" transform="translate(-3307.699 793.992)" fill="#908592"/>
      <path id="Trazado_581638" data-name="Trazado 581638" d="M3398.075-681.434v-58.145h.188v58.219Z" transform="translate(-3310.918 761.971)" fill="#8a7f8c"/>
      <path id="Trazado_581639" data-name="Trazado 581639" d="M3342.6-720.995c.935,0,1.871-.021,2.807.006a1.367,1.367,0,0,1,1.5,1.343,1.277,1.277,0,0,1-1.377,1.434c-1.932.044-3.866.037-5.8-.006a1.267,1.267,0,0,1-1.321-1.31,1.333,1.333,0,0,1,1.382-1.451c.934-.045,1.871-.01,2.807-.01Z" transform="translate(-3273.755 750.401)" fill="#070604"/>
      <path id="Trazado_581640" data-name="Trazado 581640" d="M3347.75-712.337a12.491,12.491,0,0,1-6.782.006A26.423,26.423,0,0,1,3347.75-712.337Z" transform="translate(-3275.349 745.138)" fill="#e7b590"/>
      <path id="Trazado_581641" data-name="Trazado 581641" d="M3347.75-712.664l-6.782.006A14.013,14.013,0,0,1,3347.75-712.664Z" transform="translate(-3275.349 745.465)" fill="#fec79e"/>
      <path id="Trazado_581642" data-name="Trazado 581642" d="M3264.578-718.193c-.937,0-1.874.033-2.809-.009a1.329,1.329,0,0,1-1.413-1.425,1.362,1.362,0,0,1,1.489-1.362c1.872-.013,3.746-.029,5.617.015a1.317,1.317,0,0,1,1.406,1.426c-.013.907-.637,1.319-1.482,1.353-.934.038-1.872.009-2.808.009Z" transform="translate(-3225.141 750.401)" fill="#070504"/>
      <path id="Trazado_581643" data-name="Trazado 581643" d="M3269.791-712.338a12.5,12.5,0,0,1-6.782.008A26.351,26.351,0,0,1,3269.791-712.338Z" transform="translate(-3226.793 745.139)" fill="#e7b590"/>
      <path id="Trazado_581644" data-name="Trazado 581644" d="M3269.791-712.664l-6.782.008A14.006,14.006,0,0,1,3269.791-712.664Z" transform="translate(-3226.793 745.465)" fill="#fec79e"/>
      <path id="Trazado_581645" data-name="Trazado 581645" d="M3264.572-597.138c.937,0,1.875-.019,2.812.008a1.357,1.357,0,0,1,1.488,1.359,1.293,1.293,0,0,1-1.4,1.42c-1.874.04-3.75.028-5.624.011a1.341,1.341,0,0,1-1.491-1.354c-.009-.956.631-1.44,1.594-1.445C3262.821-597.143,3263.7-597.139,3264.572-597.138Z" transform="translate(-3225.139 673.257)" fill="#0d0a08"/>
      <path id="Trazado_581646" data-name="Trazado 581646" d="M3269.419-588.42a11.308,11.308,0,0,1-6.409,0A22.87,22.87,0,0,1,3269.419-588.42Z" transform="translate(-3226.795 667.965)" fill="#e8b690"/>
      <path id="Trazado_581647" data-name="Trazado 581647" d="M3269.419-588.745h-6.409A12.369,12.369,0,0,1,3269.419-588.745Z" transform="translate(-3226.795 668.29)" fill="#fcc59d"/>
      <path id="Trazado_581648" data-name="Trazado 581648" d="M3264.258-598.76h5.463l0,.186h-5.531Z" transform="translate(-3227.528 674.264)" fill="#f2be97"/>
      <path id="Trazado_581649" data-name="Trazado 581649" d="M3342.617-597.136c.937,0,1.875-.019,2.811.009a1.35,1.35,0,0,1,1.48,1.362,1.29,1.29,0,0,1-1.4,1.415c-1.873.039-3.748.027-5.621.01a1.328,1.328,0,0,1-1.481-1.357c0-.955.622-1.444,1.593-1.443C3340.868-597.138,3341.742-597.138,3342.617-597.136Z" transform="translate(-3273.751 673.256)" fill="#0d0a08"/>
      <path id="Trazado_581650" data-name="Trazado 581650" d="M3328.741-584.3,3305-584.29c0-.127,0-.255,0-.382l21.371,0a4.221,4.221,0,0,0,2.368-.376Q3328.742-584.671,3328.741-584.3Z" transform="translate(-3252.948 665.723)" fill="#e8b690"/>
      <path id="Trazado_581651" data-name="Trazado 581651" d="M3340.968-588.757a13.729,13.729,0,0,1,6.785,0A25.543,25.543,0,0,1,3340.968-588.757Z" transform="translate(-3275.349 668.3)" fill="#fcc59d"/>
      <path id="Trazado_581652" data-name="Trazado 581652" d="M3340.968-588.057l6.785,0A12.5,12.5,0,0,1,3340.968-588.057Z" transform="translate(-3275.349 667.601)" fill="#e8b690"/>
      <path id="Trazado_581653" data-name="Trazado 581653" d="M3342.045-598.8h5.515l0,.166h-5.515Z" transform="translate(-3276.021 674.287)" fill="#f2be97"/>
    </g>
  </g>
</svg>
