<svg xmlns="http://www.w3.org/2000/svg" width="141" height="141" viewBox="0 0 141 141">
  <g id="Grupo_844226" data-name="Grupo 844226" transform="translate(-240.085 -1286.827)">
    <rect id="Rectángulo_38178" data-name="Rectángulo 38178" width="141" height="141" transform="translate(240.085 1286.827)" fill="none"/>
    <g id="Grupo_844230" data-name="Grupo 844230" transform="translate(-645.714 1691.519)">
      <path id="Trazado_580431" data-name="Trazado 580431" d="M1001.7-358.2c1.819-2.574,4.427-1.647,6.7-1.237,2.211.4,3.279,2.224,3.461,4.465.047.577.027,1.159.027,1.739q0,31.748,0,63.5c0,4.949-1.581,6.551-6.462,6.551q-33.926,0-67.851.023c-2.638,0-4.923-.454-6.218-3.027-.346-.687-.892-.6-1.462-.6-1.522,0-3.045.021-4.567-.005-1.861-.032-3.423-.064-4.768,1.923-1.65,2.438-5.428,2.188-7.46,0a5.138,5.138,0,0,1,.688-7.666c2.214-1.729,2.15-3.414-.194-4.952-1.521-1-1.8-2.493-1.792-4.171.02-9.93-.037-19.861.05-29.791.015-1.656-.413-2.158-2.033-2a31.3,31.3,0,0,1-4.563.009,4.487,4.487,0,0,1-4.54-4.529c-.053-3.065,1.435-4.941,4.3-5.166a37.32,37.32,0,0,1,5.431-.015,4.724,4.724,0,0,1,4.605,4.833c.074,2.462.081,4.931-.006,7.392-.041,1.16.319,1.483,1.459,1.45,2.752-.079,5.513-.124,8.261.013,1.584.079,1.876-.475,1.868-1.944-.059-11.815-.036-23.63-.028-35.445,0-4.78,1.6-6.366,6.4-6.366q29.358-.005,58.717,0c3.565,0,4.731.82,6.037,4.132.476,3.624-.071,7.275.286,10.9a6.3,6.3,0,0,1,.3,2.57q.005,26.281-.005,52.563c0,1.586.172,3.3-1.9,3.9-1.613,0-2.226-1.118-2.683-2.409a21.136,21.136,0,0,1-.136-3.686q-.008-30.22-.011-60.441a7.486,7.486,0,0,0-.249-3c-1.449-1.079-3.105-.466-4.673-.569-17.9.054-35.8.012-53.7.029-4.35,0-4.4.054-4.4,4.324q-.007,15.761,0,31.522c0,3.055.1,3.148,3.19,3.154,8.479.016,16.958-.021,25.437.018,3.8.018,4.853.862,5.875,4.451a27.177,27.177,0,0,1,.086,6c-.262,4.183-2.784,6.889-5.783,9.5-4.091,3.559-7.952,7.388-11.993,11.013a10.649,10.649,0,0,1-7.016,3.027c-.7.017-1.535-.066-1.826.826a1.846,1.846,0,0,0,.788,2.089,5.992,5.992,0,0,1,2.454,4.86c-.012,1.045.568,1.4,1.51,1.391.507,0,1.013.01,1.521.01q22.049,0,44.1-.007c1.455-.178,2.977.323,4.373-.433.81-2.064-.063-4.275.568-6.352.611-1.355,1.519-2.119,3.092-1.551a2.962,2.962,0,0,1,1.372,2.519c.037.427.048.855.049,1.284.011,5.116-.279,4.4,4.509,4.487,1.554-.113,3.2.544,4.634-.548a3.874,3.874,0,0,0,.446-2.517q.014-31.353,0-62.7a4.114,4.114,0,0,0-.366-2.316c-1.111-1.232-2.633-.422-3.919-.779a3.184,3.184,0,0,1-1.735-1.022C1001.691-357.362,1001.4-357.721,1001.7-358.2Z" transform="translate(0 -4.332)"/>
      <path id="Trazado_580432" data-name="Trazado 580432" d="M1127.875-338.735l.41.781c-.916,1.479-2.238.381-3.366.534a1.552,1.552,0,0,1-.617-.35.8.8,0,0,1,.033-.986l.006-.006Z" transform="translate(-126.178 -23.8)" fill="#efefef"/>
      <path id="Trazado_580433" data-name="Trazado 580433" d="M1002.359-321.249c-.821-3.3-1.748-4.045-5.106-4.046-9.275,0-18.55-.027-27.824.027-1.352.008-1.843-.249-1.835-1.745.067-12.027.05-24.055.023-36.082,0-1.6.3-2.671,2.228-2.666q28.474.071,56.949.085a1.987,1.987,0,0,1,1.087,1.755,9.61,9.61,0,0,1,.08,1.3q.022,38.652-.013,77.3c0,.982.125,2.071-.91,2.737a4.4,4.4,0,0,0-2.545-.3q-20.97-.019-41.94-.013a14.278,14.278,0,0,1-1.817.007c14.942.029,30.266-.017,45.59.025a.475.475,0,0,1,.457.558q-23.345.035-46.69.1c-1.138,0-1.241-.325-1.144-1.352.208-2.206-.432-4.122-2.6-5.163-1.6-.768-.84-2.17-.827-3.252.016-1.268,1.235-.671,1.875-.659a9.451,9.451,0,0,0,7.07-2.683c4.977-4.711,10.074-9.3,15.137-13.916,1.832-1.671,2.413-3.872,2.752-6.192a2.027,2.027,0,0,1,.533.443c-.087-2.046.076-4.07-.1-6.084A.461.461,0,0,0,1002.359-321.249Z" transform="translate(-37.769 -8.553)" fill="#e7e7e7"/>
      <path id="Trazado_580434" data-name="Trazado 580434" d="M958.15-238.78l-.2.045-.2-.062a1.859,1.859,0,0,0-.7-.393c-6.534-.154-13.067-.014-19.6-.076-.839-.008-1.738.22-2.486-.407a1.971,1.971,0,0,1-.258-1.041c-.035-7.244-.022-14.488-.006-21.732a2.048,2.048,0,0,1,.3-1.246,3.476,3.476,0,0,1,2.479-.538q17.443-.022,34.886,0a4.738,4.738,0,0,1,2.125.295c.937.636.789,1.634.822,2.557.055,1.52-.049,3.044.083,4.559.389,1.985-.763,3.361-2.05,4.515-4.36,3.908-8.5,8.059-12.943,11.872A20.19,20.19,0,0,1,958.15-238.78Z" transform="translate(-19.187 -65.883)" fill="#7ad5a3"/>
      <path id="Trazado_580435" data-name="Trazado 580435" d="M1120.891-338.755q0,.433.005.865a2.928,2.928,0,0,1,.2,1.7q.01,26.86.005,53.72a5.932,5.932,0,0,1-.014.659c.062-2.98.021-6.167.023-9.353q.008-22.184.013-44.368a4.637,4.637,0,0,1,.2-2.348l3.51-.071,1.265.985c1.229.907,1.16,2.255,1.166,3.552.028,5.856.011,11.713.012,17.57q0,22.343-.017,44.685c0,1.534.352,3.293-1.592,4.115-1.723.04-3.966.754-5-.258-.828-.809-.171-3.111-.222-4.748-.04-1.261.383-2.65-.863-3.631-1.745-1.033-1.964-2.127-.871-4.348,1.688-.347,1.759-1.579,1.757-2.982q-.035-26.791-.013-53.583c0-.721.042-1.443.063-2.163C1120.647-338.759,1120.769-338.757,1120.891-338.755Z" transform="translate(-122.733 -23.802)" fill="#e7e7e7"/>
      <path id="Trazado_580436" data-name="Trazado 580436" d="M1110.54-295.391c.243,1.459-.625,3.14.87,4.348a2,2,0,0,0-2.524,1.449c-.3-.023-.435.16-.5.426,0,1.935-.113,3.867.052,5.8a.414.414,0,0,1-.094.512c-1.512,1.009-3.179.353-4.776.445q0-.182.007-.364h0c.72-.637.432-1.49.432-2.25q.022-39.12.011-78.24a4.023,4.023,0,0,0-.44-2.518c1.581.247,3.365-.9,4.75.692q0,.4.02.8c.04,22.135-.007,44.268.025,66.393.03.314.11.6.5.655A2.637,2.637,0,0,0,1110.54-295.391Z" transform="translate(-114.556 -8.442)" fill="#cbcbcb"/>
      <path id="Trazado_580437" data-name="Trazado 580437" d="M1135.566-264.852a3.511,3.511,0,0,0,.884-2.578q-.034-32.4,0-64.8a11.912,11.912,0,0,0-.451-2.548c1.479.111,3.016-.479,4.436.359a1.182,1.182,0,0,1-1.156.179c1.178,0,1.537.717,1.518,1.85-.031,1.881-.006,3.764-.006,5.646q0,29.318-.011,58.636c0,1.174.42,2.673-1.5,2.734a1.16,1.16,0,0,1,1.155.175C1138.859-264.387,1137.192-264.917,1135.566-264.852Z" transform="translate(-132.626 -25.997)" fill="#cbcbcb"/>
      <path id="Trazado_580438" data-name="Trazado 580438" d="M988.588-239.087c2.637-3.058,5.842-5.52,8.743-8.3,2.179-2.09,4.492-4.041,6.639-6.162a4.653,4.653,0,0,0,1.6-2.986.856.856,0,0,1-.043-.724c.313-2.361-.346-4.774.377-7.114,1.451-.545,3.018.177,4.466-.409a10.851,10.851,0,0,1-2.468,11.408c-4.407,4.089-8.872,8.117-13.221,12.266A6.54,6.54,0,0,1,988.588-239.087Z" transform="translate(-49.625 -65.576)" fill="#28ae5e"/>
      <path id="Trazado_580439" data-name="Trazado 580439" d="M949.485-197.954c2.02,0,4.042-.043,6.06.026.609.021,1.7-.507,1.735.612.037,1.051.715,2.383-.587,3.158a5.719,5.719,0,0,0-2.39,2.418c-.315.659-.813.69-1.413.679a12.566,12.566,0,0,0-3.451.039c-3.527.968-5.49-1.475-7.64-3.38-.841-.744-.389-2.081-.245-3.1.123-.866,1.084-.419,1.653-.435C945.3-197.988,947.393-197.954,949.485-197.954Z" transform="translate(-22.923 -103.271)" fill="#f6f8f9"/>
      <path id="Trazado_580440" data-name="Trazado 580440" d="M1142.578-264.6h-3.213c.681-.735,1.325-.427,1.876-.447.937-.033,1.3-.458,1.26-1.351-.024-.579,0-1.159,0-1.738v-61.932c0-3.132,0-3.132-2.971-3.752h3.05c.947.424.781,1.286.781,2.058q.008,32.552,0,65.1C1143.36-265.885,1143.524-265.025,1142.578-264.6Z" transform="translate(-134.771 -26.591)" fill="#cecece"/>
      <path id="Trazado_580441" data-name="Trazado 580441" d="M975.052-264.521c-.287,2.473.4,5-.426,7.443-.678-2.3.2-4.707-.459-7.011H934.579a7.434,7.434,0,0,0-.208,3.186c-.028,6.689-.014,13.378-.014,20.066a5.865,5.865,0,0,0,.043.8,1.159,1.159,0,0,1-.255.739.6.6,0,0,1-.424-.654q.054-12.519.109-25.037a4.172,4.172,0,0,1,.821.014c13.205,0,26.411.082,39.616-.042a1.082,1.082,0,0,1,.8.027h-.018c.146.1.2.206.148.311S975.1-264.521,975.052-264.521Z" transform="translate(-18.641 -65.409)" fill="#78d19f"/>
      <path id="Trazado_580442" data-name="Trazado 580442" d="M980.921-168.728h71.462v.217h-71.55Z" transform="translate(-45.246 -119.82)" fill="#050505"/>
      <path id="Trazado_580443" data-name="Trazado 580443" d="M1114.793-296.132l-.507.554a2.855,2.855,0,0,1-.207-1.693q-.01-32.566,0-65.131a2.961,2.961,0,0,1,.156-1.492l.016-.082c.939.219.632,1.008.633,1.56q.025,32.931,0,65.861A2.087,2.087,0,0,1,1114.793-296.132Z" transform="translate(-120.476 -9.561)" fill="#dbdbdb"/>
      <path id="Trazado_580444" data-name="Trazado 580444" d="M1117.865-294.816v-66.777h.218v66.844Z" transform="translate(-122.63 -10.907)" fill="#030303"/>
      <path id="Trazado_580445" data-name="Trazado 580445" d="M1154-330.5v66.343h-.217v-66.41Z" transform="translate(-142.915 -28.427)" fill="#040404"/>
      <path id="Trazado_580446" data-name="Trazado 580446" d="M1032.378-371.291H970.813v-.218h61.629Z" transform="translate(-39.588 -5.307)" fill="#050505"/>
      <path id="Trazado_580447" data-name="Trazado 580447" d="M975.191-267.222H935.052v-.218h40.232Z" transform="translate(-19.392 -64.076)" fill="#020303"/>
      <path id="Trazado_580448" data-name="Trazado 580448" d="M975.208-265.349l-.536.114a34.9,34.9,0,0,1-5.409.118q-16.273.03-32.546,0a7.09,7.09,0,0,1-2.368-.135c-.128-.029-.255-.062-.381-.1.449-.554,1.073-.322,1.618-.323q18.878-.02,37.756,0C973.975-265.672,974.658-265.859,975.208-265.349Z" transform="translate(-18.782 -65.049)" fill="#28ae5e"/>
      <ellipse id="Elipse_7266" data-name="Elipse 7266" cx="0.112" cy="27.224" rx="0.112" ry="27.224" transform="translate(927.371 -380.908)" fill="#050505"/>
      <path id="Trazado_580449" data-name="Trazado 580449" d="M908.536-293.946c-1.223-.785-1.167-1.708-.159-2.573.962-.826,5.905-.405,7,.514a2.711,2.711,0,0,0-.29.532c-.222,1.117-1.056,1.2-1.971,1.2-1.362.008-2.725-.061-4.085.041A2.058,2.058,0,0,0,908.536-293.946Z" transform="translate(-3.902 -47.405)" fill="#f98962"/>
      <path id="Trazado_580450" data-name="Trazado 580450" d="M928.279-280.537v32.307h-.217v-32.392Z" transform="translate(-15.446 -56.633)" fill="#050505"/>
      <path id="Trazado_580451" data-name="Trazado 580451" d="M981.486-180.759a1.976,1.976,0,0,1-2.062,1.829,1.724,1.724,0,0,1-1.784-1.991,1.713,1.713,0,0,1,1.954-1.819A1.953,1.953,0,0,1,981.486-180.759Z" transform="translate(-43.441 -111.904)" fill="#4e5355"/>
      <path id="Trazado_580452" data-name="Trazado 580452" d="M937.522-180.9c-.188,1.184-.81,1.945-1.978,1.969a1.721,1.721,0,0,1-1.884-1.9,1.726,1.726,0,0,1,1.861-1.921A2,2,0,0,1,937.522-180.9Z" transform="translate(-18.607 -111.904)" fill="#4e5355"/>
      <path id="Trazado_580453" data-name="Trazado 580453" d="M958.31-203.348H935.835v-.217h22.411Z" transform="translate(-19.834 -100.147)" fill="#020303"/>
      <path id="Trazado_580454" data-name="Trazado 580454" d="M934.7-206.75q.01-.207.007-.415a5.642,5.642,0,0,1,2.76-.215q9.086-.04,18.171,0a3.9,3.9,0,0,1,2.118.207l0,.454C950.068-206.493,942.381-206.435,934.7-206.75Z" transform="translate(-19.191 -97.956)" fill="#84e6b0"/>
      <path id="Trazado_580455" data-name="Trazado 580455" d="M916.264-294.748a3.009,3.009,0,0,0,.307-.016c.756,1.736.332,2.587-1.7,2.369-1.709-.184-3.462.294-5.149-.309a2.888,2.888,0,0,0,.015-.307,11.732,11.732,0,0,1,4.492-.185C915.5-293.14,916.074-293.59,916.264-294.748Z" transform="translate(-5.09 -48.646)" fill="#fe966b"/>
      <path id="Trazado_580456" data-name="Trazado 580456" d="M1047.279-264.8l.505-1a32.193,32.193,0,0,1,0,8.263c-.495-.364-.314-.966-.505-1.436A30.178,30.178,0,0,1,1047.279-264.8Z" transform="translate(-82.689 -65.001)" fill="#f9f9f9"/>
      <path id="Trazado_580457" data-name="Trazado 580457" d="M1114.23-184.539a.922.922,0,0,0,.019-.336,23.388,23.388,0,0,1,0-6.975l.519.578C1114.644-189.024,1115.561-186.692,1114.23-184.539Z" transform="translate(-120.441 -106.762)" fill="#d6d6d6"/>
      <path id="Trazado_580458" data-name="Trazado 580458" d="M1044.9-257.6v-5.926l.173-.007v5.927Z" transform="translate(-81.426 -66.281)" fill="#040404"/>
      <path id="Trazado_580459" data-name="Trazado 580459" d="M916.405-302.271h-5.512v-.211h5.512Z" transform="translate(-5.75 -44.288)" fill="#050505"/>
      <path id="Trazado_580460" data-name="Trazado 580460" d="M1028.669-264.577q0-.234,0-.468a15.387,15.387,0,0,1,4.335.037C1031.629-264.139,1030.107-264.778,1028.669-264.577Z" transform="translate(-72.258 -65.353)" fill="#2abc66"/>
      <path id="Trazado_580461" data-name="Trazado 580461" d="M935.877-194.331v-2.336A2.262,2.262,0,0,1,935.877-194.331Z" transform="translate(-19.859 -104.043)" fill="#050505"/>
      <path id="Trazado_580462" data-name="Trazado 580462" d="M979.93-194.111v-2.451l.172-.011v2.451Z" transform="translate(-44.736 -104.096)" fill="#050505"/>
      <path id="Trazado_580463" data-name="Trazado 580463" d="M1125.023-336.754v56h-.434v-56.005Z" transform="translate(-126.427 -24.93)" fill="#eaeaea"/>
      <path id="Trazado_580464" data-name="Trazado 580464" d="M988.543-309.636c-1.432-1.118-1.47-2.235,0-3.35.342-.375.8-.277,1.22-.277q13.221-.007,26.443,0c.422,0,.878-.1,1.22.276,1.545,1.073,1.258,2.226.149,3.414.068.642-.424.55-.8.612q-12.6.02-25.206,0a8.271,8.271,0,0,1-2.376-.172A1.375,1.375,0,0,1,988.543-309.636Z" transform="translate(-48.986 -38.193)" fill="#050505"/>
      <path id="Trazado_580465" data-name="Trazado 580465" d="M1080.068-307.072c-.9,3.611-1.612,4.051-6.559,4.047-3.744,0-4.643-.667-5.481-4.045a3.184,3.184,0,0,1,0-3.656c.834-3.382,1.732-4.046,5.478-4.049,4.958,0,5.66.429,6.562,4.044A3.187,3.187,0,0,1,1080.068-307.072Z" transform="translate(-94.16 -37.346)" fill="#020201"/>
      <path id="Trazado_580466" data-name="Trazado 580466" d="M1080.068-223.128c-.9,3.611-1.612,4.052-6.559,4.048-3.744,0-4.643-.667-5.481-4.046a3.184,3.184,0,0,1,0-3.656c.834-3.382,1.732-4.046,5.478-4.049,4.958,0,5.66.429,6.562,4.044A3.187,3.187,0,0,1,1080.068-223.128Z" transform="translate(-94.16 -84.75)" fill="#020201"/>
      <path id="Trazado_580467" data-name="Trazado 580467" d="M1068.028-268.754c.834-3.382,1.732-4.046,5.478-4.049,4.958,0,5.66.429,6.562,4.044a3.186,3.186,0,0,1,0,3.659c-.9,3.611-1.612,4.051-6.559,4.048-3.744,0-4.643-.667-5.481-4.046A3.184,3.184,0,0,1,1068.028-268.754Z" transform="translate(-94.16 -61.048)" fill="#020201"/>
      <path id="Trazado_580468" data-name="Trazado 580468" d="M989.225-304.976a.2.2,0,0,1,.309.064,4.472,4.472,0,0,0,2.329.209c7.918.017,15.837.007,23.755.017a6.608,6.608,0,0,1,2.354.149l.288-.377c.42,1.423-.805,1.154-1.438,1.26a26.775,26.775,0,0,1-2.754.06c-.864.052-1.72.2-1.914,1.288-1.584.991-3.35.473-5.037.609a8.737,8.737,0,0,0-2.331.078c-.558.577-.625,1.509-1.4,1.924-.388.293-.79,1.131-1.165.008a1.966,1.966,0,0,1,.511-1.773,1.314,1.314,0,0,0-.109-1.767,1.261,1.261,0,0,0-1.583-.193c-.834.437-.4,1.1-.215,1.682.325,1.037,1.046,2.186-.827,2.485-.773-.594-.7-1.711-1.451-2.313a67.649,67.649,0,0,0-7.022-.119,5.016,5.016,0,0,1-2.866-.62C989.572-303.043,988.289-304.243,989.225-304.976Z" transform="translate(-49.668 -42.853)" fill="#e6e6e6"/>
      <path id="Trazado_580469" data-name="Trazado 580469" d="M1041.694-214.123c.772.616,1.435,1.313.912,2.38-.43.878-1.228,1.012-2.172.987-2.529-.067-5.061-.032-7.591-.018-.9,0-1.787-.046-2.238-.969-.524-1.073.137-1.762.905-2.379A38.31,38.31,0,0,1,1041.694-214.123Z" transform="translate(-73.247 -93.993)" fill="#070707"/>
      <path id="Trazado_580470" data-name="Trazado 580470" d="M998.306-298.085a2.1,2.1,0,0,1,1.007,2.563,3.032,3.032,0,0,1-2.151.806c-2.442-.039-4.886-.023-7.329-.009-.9.005-1.774-.066-2.211-.986-.508-1.069.154-1.751.916-2.362A35.364,35.364,0,0,1,998.306-298.085Z" transform="translate(-48.979 -46.583)" fill="#070707"/>
      <path id="Trazado_580471" data-name="Trazado 580471" d="M1022.485-295.959a2.351,2.351,0,0,1,1.086-2.094,18.382,18.382,0,0,1,7.113-.017c.756.608,1.423,1.286.928,2.35-.46.988-1.348,1.063-2.333,1.016-1.426-.069-2.858-.058-4.285,0A2.425,2.425,0,0,1,1022.485-295.959Z" transform="translate(-68.762 -46.588)" fill="#080808"/>
      <path id="Trazado_580472" data-name="Trazado 580472" d="M1048.72-229.107c.767.615,1.43,1.308.915,2.373-.474.982-1.393,1.06-2.364.988-.645-.048-1.3-.02-1.944-.007-.979.021-1.917-.071-2.344-1.13-.464-1.148.364-1.7,1.133-2.261A8.669,8.669,0,0,1,1048.72-229.107Z" transform="translate(-80.267 -85.538)" fill="#0b0b0b"/>
      <path id="Trazado_580473" data-name="Trazado 580473" d="M1042.214-175.483H994.908l.006-.433H1019.1c6.952,0,13.9-.009,20.855.012.762,0,1.611-.281,2.257.419Z" transform="translate(-53.194 -115.737)" fill="#eaeaea"/>
      <path id="Trazado_580474" data-name="Trazado 580474" d="M1018.7-313.279H989.821c-.345-.658.216-.5.487-.5q13.955-.014,27.911,0a2.649,2.649,0,0,1,.579.131Z" transform="translate(-50.26 -37.901)" fill="#ebebeb"/>
      <path id="Trazado_580475" data-name="Trazado 580475" d="M1042.956-214.307h-10.183c-.172-.182-.166-.462.055-.464,3.358-.026,6.716-.018,10.075-.013.049,0,.141.077.137.111A2.317,2.317,0,0,1,1042.956-214.307Z" transform="translate(-74.509 -93.81)" fill="#ececec"/>
      <path id="Trazado_580476" data-name="Trazado 580476" d="M998.995-298.288l-9.768.011-.564-.5q5.124.008,10.248.02c.051,0,.146.07.145.105A2.2,2.2,0,0,1,998.995-298.288Z" transform="translate(-49.668 -46.38)" fill="#ececec"/>
      <path id="Trazado_580477" data-name="Trazado 580477" d="M1048.62-257.539q0-4.131,0-8.263c.938,2.7.271,5.475.354,8.215,0,.035-.095.1-.15.1A.586.586,0,0,1,1048.62-257.539Z" transform="translate(-83.526 -65.001)" fill="#e2e2e2"/>
      <path id="Trazado_580478" data-name="Trazado 580478" d="M1032-298.342l-7.113.017c-.312-.833.386-.5.648-.5,2.343-.026,4.687-.015,7.03-.014Z" transform="translate(-70.08 -46.316)" fill="#ececec"/>
      <path id="Trazado_580479" data-name="Trazado 580479" d="M1067.789-222.827a12.263,12.263,0,0,1,0,3.656c-.3.267.281.979-.506,1a15.76,15.76,0,0,1,0-5.654C1068.07-223.807,1067.491-223.1,1067.789-222.827Z" transform="translate(-93.921 -88.705)" fill="#f8f8f8"/>
      <path id="Trazado_580480" data-name="Trazado 580480" d="M1067.789-264.8a12.263,12.263,0,0,1,0,3.656c-.3.267.281.978-.506,1a15.76,15.76,0,0,1,0-5.654C1068.07-265.779,1067.491-265.067,1067.789-264.8Z" transform="translate(-93.921 -65.003)" fill="#f8f8f8"/>
      <path id="Trazado_580481" data-name="Trazado 580481" d="M1067.789-306.772a12.263,12.263,0,0,1,0,3.656c-.3.267.281.979-.506,1a15.763,15.763,0,0,1,0-5.654C1068.07-307.751,1067.491-307.04,1067.789-306.772Z" transform="translate(-93.921 -41.3)" fill="#f8f8f8"/>
      <path id="Trazado_580482" data-name="Trazado 580482" d="M1096.257-219.175a12.215,12.215,0,0,1,0-3.659l.5-1a15.624,15.624,0,0,1,0,5.655Z" transform="translate(-110.35 -88.704)" fill="#f9f9f9"/>
      <path id="Trazado_580483" data-name="Trazado 580483" d="M1097.594-218.175v-5.655A7.753,7.753,0,0,1,1097.594-218.175Z" transform="translate(-111.182 -88.704)" fill="#e2e2e2"/>
      <path id="Trazado_580484" data-name="Trazado 580484" d="M1066.926-265.8v5.654A7.783,7.783,0,0,1,1066.926-265.8Z" transform="translate(-93.563 -65.003)" fill="#e2e2e2"/>
      <path id="Trazado_580485" data-name="Trazado 580485" d="M1096.257-261.147a12.215,12.215,0,0,1,0-3.659l.5-1a15.624,15.624,0,0,1,0,5.655Z" transform="translate(-110.35 -65.001)" fill="#f9f9f9"/>
      <path id="Trazado_580486" data-name="Trazado 580486" d="M1097.594-260.147V-265.8A7.753,7.753,0,0,1,1097.594-260.147Z" transform="translate(-111.182 -65.001)" fill="#e2e2e2"/>
      <path id="Trazado_580487" data-name="Trazado 580487" d="M1066.926-307.773v5.654A7.784,7.784,0,0,1,1066.926-307.773Z" transform="translate(-93.563 -41.3)" fill="#e2e2e2"/>
      <path id="Trazado_580488" data-name="Trazado 580488" d="M1050.363-229.415l-4.6-.036c1.508-.946,3.122-.348,4.7-.314a.308.308,0,0,1,.025.177A.651.651,0,0,1,1050.363-229.415Z" transform="translate(-81.91 -85.23)" fill="#ededed"/>
      <path id="Trazado_580489" data-name="Trazado 580489" d="M1097.265-307.772a7.747,7.747,0,0,1,0,5.654A15.881,15.881,0,0,1,1097.265-307.772Z" transform="translate(-110.853 -41.3)" fill="#e2e2e2"/>
      <path id="Trazado_580490" data-name="Trazado 580490" d="M1096.761-307.772v5.654l-.5-1a12.218,12.218,0,0,1,0-3.659Z" transform="translate(-110.35 -41.3)" fill="#f9f9f9"/>
      <path id="Trazado_580491" data-name="Trazado 580491" d="M1066.926-223.828v5.654A7.783,7.783,0,0,1,1066.926-223.828Z" transform="translate(-93.563 -88.705)" fill="#e2e2e2"/>
      <path id="Trazado_580492" data-name="Trazado 580492" d="M991.049-241.35c-.47.792-.6,2.036-1.959,1.74-1.341-.292-1.479-1.352-1.471-2.53.031-4.63.023-9.261,0-13.891,0-1.07.046-2.123,1.291-2.427,1.31-.319,1.738.7,2.134,1.663.533.41.491,1.009.494,1.577q.025,6.145,0,12.29C991.54-242.359,991.581-241.76,991.049-241.35Z" transform="translate(-49.078 -69.115)" fill="#030403"/>
      <path id="Trazado_580493" data-name="Trazado 580493" d="M971.061-241.353c-.469.792-.6,2.037-1.957,1.744-1.341-.29-1.48-1.351-1.473-2.529.031-4.631.023-9.262,0-13.892,0-1.07.045-2.123,1.291-2.427,1.31-.319,1.738.7,2.134,1.663.533.41.491,1.009.494,1.577q.025,6.144,0,12.288C971.552-242.361,971.593-241.763,971.061-241.353Z" transform="translate(-37.79 -69.115)" fill="#030403"/>
      <path id="Trazado_580494" data-name="Trazado 580494" d="M946.187-256.8c.4-.963.828-1.981,2.14-1.657,1.247.308,1.292,1.364,1.288,2.432q-.028,6.949,0,13.9c0,1.068-.041,2.124-1.287,2.433-1.311.325-1.741-.693-2.141-1.655-.531-.412-.489-1.01-.491-1.579q-.025-6.146,0-12.293C945.7-255.788,945.656-256.387,946.187-256.8Z" transform="translate(-25.396 -69.115)" fill="#030403"/>
      <path id="Trazado_580495" data-name="Trazado 580495" d="M1007.016-256.8c.4-.963.829-1.979,2.14-1.658,1.246.306,1.3,1.359,1.291,2.429q-.04,3.039,0,6.079c.014,1.07-.045,2.124-1.29,2.43-1.31.323-1.741-.693-2.14-1.656A12.3,12.3,0,0,1,1007.016-256.8Z" transform="translate(-59.69 -69.113)" fill="#030605"/>
      <path id="Trazado_580496" data-name="Trazado 580496" d="M934.644-238.882c0-7.223-.009-14.447.011-21.67,0-.76-.279-1.608.421-2.251v23.925C934.931-238.708,934.786-238.7,934.644-238.882Z" transform="translate(-19.138 -66.695)" fill="#7bd8a5"/>
      <path id="Trazado_580497" data-name="Trazado 580497" d="M934.7-207.9c.144,0,.288,0,.433,0,6.791,0,13.583-.009,20.374.012.76,0,1.609-.282,2.248.427l-23.048.012Q934.7-207.67,934.7-207.9Z" transform="translate(-19.194 -97.679)" fill="#78d19f"/>
      <path id="Trazado_580498" data-name="Trazado 580498" d="M996.291-255.807c.7.639.414,1.484.424,2.243.062,4.678.067,9.357.155,14.034a1.178,1.178,0,0,1-.6,1.232c-.044.025-.275-.142-.265-.18a8.475,8.475,0,0,1,.281-.8A131.31,131.31,0,0,1,996.291-255.807Z" transform="translate(-53.816 -70.646)" fill="#77d19f"/>
      <path id="Trazado_580499" data-name="Trazado 580499" d="M945.127-239.278a1.329,1.329,0,0,1-.433-1.158q0-7.107,0-14.213a1.328,1.328,0,0,1,.433-1.158A131.386,131.386,0,0,1,945.127-239.278Z" transform="translate(-24.838 -70.646)" fill="#77d19f"/>
      <path id="Trazado_580500" data-name="Trazado 580500" d="M945.689-239.278v-16.529l.5.538v15.451Z" transform="translate(-25.4 -70.646)" fill="#84e6b0"/>
      <path id="Trazado_580501" data-name="Trazado 580501" d="M975.511-239.822v-15.442l.5-.543a130.586,130.586,0,0,1,0,16.53Z" transform="translate(-42.241 -70.645)" fill="#84e6b0"/>
      <path id="Trazado_580502" data-name="Trazado 580502" d="M976.667-239.278q0-8.265,0-16.53a1.33,1.33,0,0,1,.433,1.158q0,7.107,0,14.213A1.329,1.329,0,0,1,976.667-239.278Z" transform="translate(-42.893 -70.645)" fill="#77d19f"/>
      <path id="Trazado_580503" data-name="Trazado 580503" d="M996-255.807q0,8.264,0,16.529l-.5-.541v-15.445Z" transform="translate(-53.528 -70.646)" fill="#84e6b0"/>
      <path id="Trazado_580504" data-name="Trazado 580504" d="M1005.953-247.108a17.824,17.824,0,0,1,0-8.7A37,37,0,0,1,1005.953-247.108Z" transform="translate(-59.127 -70.645)" fill="#77d19f"/>
      <path id="Trazado_580505" data-name="Trazado 580505" d="M1006.652-247.108v-8.7l.5.537v7.625Z" transform="translate(-59.826 -70.645)" fill="#84e6b0"/>
      <path id="Trazado_580506" data-name="Trazado 580506" d="M1026.568-262.8c.949,2.285.163,4.683.459,7.01a.864.864,0,0,1-.042.375C1026.079-257.836,1026.8-260.346,1026.568-262.8Z" transform="translate(-71.042 -66.695)" fill="#7ed6a6"/>
      <path id="Trazado_580507" data-name="Trazado 580507" d="M1113.726-363.787q.026,30.688.052,61.376,0,3.47,0,6.94c-.895-.5-.41-1.334-.411-1.984q-.045-31.816.018-63.633C1113.388-361.958,1112.68-363.017,1113.726-363.787Z" transform="translate(-119.969 -9.668)" fill="#c7c7c7"/>
      <path id="Trazado_580508" data-name="Trazado 580508" d="M1113.719-191.851q0,3.487,0,6.975c-1.217-.32-.411-1.224-.384-1.755C1113.42-188.37,1112.808-190.176,1113.719-191.851Z" transform="translate(-119.907 -106.762)" fill="#c7c7c7"/>
      <path id="Trazado_580509" data-name="Trazado 580509" d="M934.845-264.64l40.322.014c-.535.547-1.223.342-1.85.342q-18.315.017-36.63,0C936.062-264.284,935.372-264.076,934.845-264.64Z" transform="translate(-19.276 -65.658)" fill="#84e6b0"/>
      <path id="Trazado_580510" data-name="Trazado 580510" d="M916.283-294.728c.135,1.3-.417,1.814-1.75,1.739-1.586-.09-3.182-.009-4.774,0,1.183-1.177,2.612-.261,3.912-.4C914.805-293.5,915.763-293.581,916.283-294.728Z" transform="translate(-5.11 -48.667)" fill="#f98861"/>
      <path id="Trazado_580511" data-name="Trazado 580511" d="M1019.1-304.49q-13.419.028-26.839.053c-.567,0-1.171.1-1.6-.429q13.671-.035,27.342-.067C1018.419-304.935,1018.9-305.034,1019.1-304.49Z" transform="translate(-50.797 -42.899)" fill="#e9e9e9"/>
      <path id="Trazado_580512" data-name="Trazado 580512" d="M1076.917-301.986a5.531,5.531,0,0,1,0-4.766,9.1,9.1,0,0,0,4.344,0,5.531,5.531,0,0,1,0,4.766A9.111,9.111,0,0,0,1076.917-301.986Z" transform="translate(-99.201 -41.876)" fill="#eaad53"/>
      <path id="Trazado_580513" data-name="Trazado 580513" d="M1077.617-296.449a5,5,0,0,1,4.344,0A10.621,10.621,0,0,1,1077.617-296.449Z" transform="translate(-99.901 -47.414)" fill="#febd5a"/>
      <path id="Trazado_580514" data-name="Trazado 580514" d="M1081.962-307.043a4.994,4.994,0,0,1-4.344,0A10.622,10.622,0,0,1,1081.962-307.043Z" transform="translate(-99.902 -41.585)" fill="#febd5a"/>
      <path id="Trazado_580515" data-name="Trazado 580515" d="M1081.261-222.808a5.531,5.531,0,0,1,0,4.766,9.105,9.105,0,0,0-4.344,0,5.532,5.532,0,0,1,0-4.766A9.1,9.1,0,0,0,1081.261-222.808Z" transform="translate(-99.201 -89.281)" fill="#eaad53"/>
      <path id="Trazado_580516" data-name="Trazado 580516" d="M1081.962-223.1a4.992,4.992,0,0,1-4.344,0A10.621,10.621,0,0,1,1081.962-223.1Z" transform="translate(-99.902 -88.99)" fill="#febd5a"/>
      <path id="Trazado_580517" data-name="Trazado 580517" d="M1077.617-212.5a4.993,4.993,0,0,1,4.344,0A10.627,10.627,0,0,1,1077.617-212.5Z" transform="translate(-99.901 -94.819)" fill="#febd5a"/>
      <path id="Trazado_580518" data-name="Trazado 580518" d="M1081.261-264.78a5.531,5.531,0,0,1,0,4.766,9.111,9.111,0,0,0-4.344,0,5.531,5.531,0,0,1,0-4.766A9.1,9.1,0,0,0,1081.261-264.78Z" transform="translate(-99.201 -65.579)" fill="#eaad53"/>
      <path id="Trazado_580519" data-name="Trazado 580519" d="M1081.962-265.071a4.992,4.992,0,0,1-4.344,0A10.62,10.62,0,0,1,1081.962-265.071Z" transform="translate(-99.902 -65.287)" fill="#febd5a"/>
      <path id="Trazado_580520" data-name="Trazado 580520" d="M1077.617-254.477a5,5,0,0,1,4.344,0A10.62,10.62,0,0,1,1077.617-254.477Z" transform="translate(-99.901 -71.116)" fill="#febd5a"/>
    </g>
  </g>
</svg>
