<svg xmlns="http://www.w3.org/2000/svg" width="107" height="107" viewBox="0 0 107 107">
  <g id="Grupo_845172" data-name="Grupo 845172" transform="translate(-240 -1286.742)">
    <rect id="Rectángulo_38178" data-name="Rectángulo 38178" width="107" height="107" transform="translate(240 1286.742)" fill="none"/>
    <g id="Grupo_845174" data-name="Grupo 845174" transform="translate(247.692 1294.435)">
      <path id="Trazado_581684" data-name="Trazado 581684" d="M4198.9-731.352a63.285,63.285,0,0,1-8.278,12.21,3.473,3.473,0,0,1-2.993,1.488q-17.312-.077-34.627,0a2.862,2.862,0,0,1-2.746-1.5,62.364,62.364,0,0,1-5.785-12.2c-1.113-.926-1.126-2.317-1.464-3.557a24.078,24.078,0,0,1-.8-4.024,49.263,49.263,0,0,1,.6-20.092,54.735,54.735,0,0,1,2.686-8.367c.813-1.69,1.418-3.478,2.336-5.121a57.176,57.176,0,0,1,7.628-10.654,3.328,3.328,0,0,0,.762-2.3c.023-.753-.158-1.552.371-2.225.024-1.707-.118-3.513,2.5-3.271.762.071.561-.617.566-1.047.021-1.549-.025-3.1.019-4.648.066-2.284,1.158-3.372,3.456-3.392q5.721-.049,11.442,0c2.287.02,3.369,1.117,3.434,3.415.042,1.489.054,2.981-.007,4.469-.037.884.15,1.306,1.155,1.248,1.338-.077,2.12.708,1.85,2-.823,3.94,1.162,6.234,4.225,8.234a42.291,42.291,0,0,1,8.615,7.984c1.835,1.081,2.645,2.979,3.613,4.7a45.193,45.193,0,0,1,4.032,9.444,39.552,39.552,0,0,1-1.254,25.17A3.772,3.772,0,0,1,4198.9-731.352Z" transform="translate(-4123.057 809.267)"/>
      <path id="Trazado_581685" data-name="Trazado 581685" d="M4271.588-791.892c-.959-.221-1.338-.587-.959-1.726,1.1-3.27,1.969-6.613,3.033-9.893a18.969,18.969,0,0,0,.779-5.437c.035-1.325-.43-1.64-1.616-1.491-1.6.2-2.969-.065-3.28-2.446a13.121,13.121,0,0,1-3.772,5.808c-.435.348-1.01,1.469-1.611.272-.369-.737-2.028-1.32-.453-2.557a8.54,8.54,0,0,0,2.978-5.338,1.823,1.823,0,0,0-1.223-2.385,16.68,16.68,0,0,0-2.017-.712c-2.747-.667-2.741-.651-2.755-3.532-.022-4.655-.273-4.41,4.329-4.388,4.112.02,8.225-.016,12.335.009a13.8,13.8,0,0,1,13.739,11.881c.428,2.8-.059,3.428-2.926,3.368-1.207-.025-1.6.253-1.6,1.545,0,5.177,1.5,10.112,2.3,15.157a52.917,52.917,0,0,1,.848,8.684c-.062,9.892-.127,19.786.011,29.676.094,6.685-4.074,9.728-10.922,9.067-1.126-.108-.538-.988-.807-1.476-.629-.806-.363-1.438.385-1.977,1.271-.479,2.617-.088,3.908-.336,2.641-.606,3.66-1.848,3.668-4.673.029-9.357.012-18.714.008-28.07,0-1.311.033-2.621.061-3.929-.073-5.326-1.6-10.431-2.417-15.644-.047-.293-.085-.672-.316-.815-1.534-.945-3.224-.384-4.846-.413-1.039-.019-1.314.874-1.556,1.687-.91,3.075-1.8,6.158-2.776,9.212C4273.558-791.026,4273.117-790.924,4271.588-791.892Z" transform="translate(-4199.614 825.728)"/>
      <path id="Trazado_581686" data-name="Trazado 581686" d="M4108.424-747.8c.075,1.071-.269,1.534-1.493,1.491-2.976-.106-5.958-.006-8.937-.041a7.644,7.644,0,0,1-7.931-8.036c-.02-7.149.018-14.3-.013-21.448-.017-4.138,1.589-7.906,2.6-11.807a4.349,4.349,0,0,0-.045-2.762c-.736-2.009-1.389-4.049-2.039-6.089a8.638,8.638,0,0,1,2.813-9.807,26.055,26.055,0,0,1,2.755-2.272c2.233-1.468,3.71-3.232,3.115-6.133-.209-1.018.537-1.685,1.247-2.217a4.626,4.626,0,0,0,1.794-4.323c-.177-4.8-.2-4.5,4.4-4.473q2.95.019,5.9,0a1.61,1.61,0,0,1,1.855,1.849,18.686,18.686,0,0,1-.01,1.964c-.25,2.14.171,3.97,2.084,5.267a1.929,1.929,0,0,1,1,1.966c-.609,2.9.87,4.681,3.117,6.107.848.537,1.38,1.181.349,2.062-.125.908-.568,1.446-1.562,1.351a6.7,6.7,0,0,1-2.266-1.708,5.623,5.623,0,0,0-4.539-1.571c-3.092.1-6.19.053-9.285.015a4.809,4.809,0,0,0-3.412,1.274c-1.291,1.145-2.641,2.223-3.971,3.322a5.23,5.23,0,0,0-2.15,3.57,8.92,8.92,0,0,0,.01,1.7,49.341,49.341,0,0,0,2.228,7.138,7.172,7.172,0,0,1,.081,4.7c-.637,1.979-1.132,4-1.742,5.99a12.851,12.851,0,0,0-.592,4.04c-.012,5.2,0,10.39,0,15.583-.013,2.372,0,4.746,0,7.116.263,2.725,1.178,3.639,3.952,3.94,2.763.007,5.522-.01,8.281.007a4.025,4.025,0,0,1,2.233.328A1.429,1.429,0,0,1,4108.424-747.8Z" transform="translate(-4090.05 825.733)"/>
      <path id="Trazado_581687" data-name="Trazado 581687" d="M4289.043-753.821c1.257.562,1.791.12,2.14-1.2.865-3.269,1.936-6.483,2.856-9.739.295-1.041.685-1.656,1.917-1.507,1.745.212,4.009-.729,5.125.406,1.006,1.022.829,3.223,1.144,4.909.533,2.86,1.025,5.728,1.577,8.585a10.283,10.283,0,0,1,.171,3.362c-1.3,3.173-3.686,5.607-5.706,8.282-.956,1.267-1.743,2.74-3.238,3.533a47.628,47.628,0,0,0-7.162-13.915A4.336,4.336,0,0,0,4289.043-753.821Z" transform="translate(-4217.07 787.657)" fill="#4397d0"/>
      <path id="Trazado_581688" data-name="Trazado 581688" d="M4304.09-705.925l8.943-11.815c.023,11.085.07,22.17.043,33.254-.006,2.5-1.741,4.1-4.311,4.3a8.118,8.118,0,0,0-3.884.034c-.48.485-.163,1.146-.371,1.691l-2.535-.009A41.684,41.684,0,0,0,4304.09-705.925Z" transform="translate(-4226.129 756.39)" fill="#3e8cc1"/>
      <path id="Trazado_581689" data-name="Trazado 581689" d="M4102.986-668.14a4.074,4.074,0,0,1-3.95-3.917,1.458,1.458,0,0,0,.312-.5c.181-2.433-.078-4.874.139-7.307a2.257,2.257,0,0,1,.487-.821,4.353,4.353,0,0,0,1.013-3.289c-.008-4.195-.024-8.39.014-12.584.006-.847-.2-1.815.748-2.388.939.6.679,1.578.687,2.422.034,5.106-.009,10.212.023,15.318.031,4.828,2.414,7.448,7.206,8.114a2.445,2.445,0,0,0,2.864-1.189c1.057-.541,2.069-.7,2.921.37q.9,3.749,1.791,7.5l-3.046.026q-.075-.818-.146-1.635c-.735-.579-1.591-.264-2.374-.253A76.467,76.467,0,0,0,4102.986-668.14Z" transform="translate(-4095.82 744.326)" fill="#fdb54e"/>
      <path id="Trazado_581690" data-name="Trazado 581690" d="M4163.423-770.819l1.249-1.2q1.3,1.168,2.6,2.334a6.846,6.846,0,0,1-2.058,6.379c-2.572,2.624-4.386,5.853-6.3,8.98-1.271-.218-.8-1.079-.541-1.7a94.676,94.676,0,0,0,3.245-9.448c.355-1.2.608-2.424.94-3.628A2.878,2.878,0,0,1,4163.423-770.819Z" transform="translate(-4133.726 791.24)" fill="#fdb54e"/>
      <path id="Trazado_581691" data-name="Trazado 581691" d="M4166.806-765.879c5.532-.026,11.069-.019,16.6-.1,1.38-.021,1.123.824,1.173,1.637.059.911-.11,1.419-1.229,1.4-4.166-.058-8.335.024-12.5-.051-1.248-.022-1.605.335-1.607,1.586s.363,1.6,1.607,1.581c4.465-.073,8.93-.032,13.4-.023a2.5,2.5,0,0,1,1.714.3c4.814,3.784,9.881,7.3,13.338,12.528a1.374,1.374,0,0,1,.117.334c-.134,2.077-.585,4.009-2.433,5.3-.931-.051-1.2-.873-1.665-1.453a9.318,9.318,0,0,0-2.676-2.8,4.32,4.32,0,0,0-5.26.56,4.3,4.3,0,0,0-.743,5.227c.681,1.32,1.732,2.409,2.439,3.711.9,1.649,1.986,3.24,1.934,5.245a36.783,36.783,0,0,1-3.839,4.877c-.311.351-.608.749-1.167.7-.778-.321-.846-1.1-1.1-1.747a52.6,52.6,0,0,0-7.07-12.574c-1.926-2.519-4.192-3.191-7.145-2.825-7.664.951-14.72,8.622-14.575,16.522a17.257,17.257,0,0,0,8.421,15.182c.591.383,1.3.635,1.649,1.322.1.645-.336,1.007-.783,1.291a57.886,57.886,0,0,1-7.865,4.216.983.983,0,0,1-.862-.024,47.021,47.021,0,0,1-4.761-26.649,47.7,47.7,0,0,1,12.021-27.472c1.652-1.863,2.631-3.709,2.294-6.2-.064-.485-.231-1.07.221-1.517.391,1.415.038,2.88.249,4.307.094.229.418-.083.2.022-.093.045-.152.021-.161-.073A13.735,13.735,0,0,1,4166.806-765.879Z" transform="translate(-4129.596 787.366)" fill="#fe7230"/>
      <path id="Trazado_581692" data-name="Trazado 581692" d="M4195.063-690.815l4.756-5.4c1.113.236.958,1.237,1.121,1.978a24.469,24.469,0,0,1-.355,10.776,3.913,3.913,0,0,0,5.083,4.759,3.928,3.928,0,0,0,2.453-2.421,22.7,22.7,0,0,0,1.436-5.693,28.951,28.951,0,0,0-2.813-17.309c-.437-.874-1.167-1.694-.87-2.81,1.578-1.346,1.645-3.451,2.575-5.123a33.965,33.965,0,0,1,6.358,17.9,36.212,36.212,0,0,1-8.3,26.209c-1,1.23-1.774,2.661-3.122,3.59a1.532,1.532,0,0,0-.58-.319c-11.171-.123-22.344-.02-33.515-.051a7.043,7.043,0,0,0-.985.06,18.665,18.665,0,0,1-2.6-4.656c3.2-1.7,6.618-3.007,9.418-5.4.694-.545,1.368-.115,2.025.074,7.23,2.074,13.2,0,18.156-5.476a3.79,3.79,0,0,0,.947-3.62c-.384-1.68-.75-3.362-1.215-5.022C4194.848-689.45,4194.557-690.141,4195.063-690.815Z" transform="translate(-4138.629 752.742)" fill="#f96823"/>
      <path id="Trazado_581693" data-name="Trazado 581693" d="M4125.537-775.6a83.025,83.025,0,0,1-4.469,14.664c-.24.583-1,1.2-.04,1.833l-2.335,4.933c-1.423,1.324-1.772,3.3-2.9,4.805a17.614,17.614,0,0,1-1.3,1.9c-.421.434-.9.869-1.453.125-2.863-2.13-6.263-2.88-9.625-3.7-.5-.123-.95.457-1.5.468-.555.541-.327,1.236-.33,1.865-.019,4.645-.046,9.29.013,13.934a2.749,2.749,0,0,1-1.456,2.8c-1.08-.218-.684-1.1-.692-1.707-.057-4.261.009-8.523-.046-12.783a1.877,1.877,0,0,0-.334-.889c.034-3.338,1.393-6.373,2.273-9.506a7.742,7.742,0,0,0-.089-5,37.2,37.2,0,0,1-2.168-6.957,2.093,2.093,0,0,0,0-1.78,4.435,4.435,0,0,1,1.368-3c.23-.269.542-.468.778-.733,3.513-3.922,7.768-5.824,13.1-4.88a4.8,4.8,0,0,0,1.6,0A9.887,9.887,0,0,1,4125.537-775.6Z" transform="translate(-4095.84 796.019)" fill="#fec14f"/>
      <path id="Trazado_581694" data-name="Trazado 581694" d="M4125.383-667.15a6.681,6.681,0,0,0-2.746-.236,3.867,3.867,0,0,0-2.749-.982c-3.484-.144-5.322-2.071-5.349-5.533a18.864,18.864,0,0,1,.139-3.906,2.25,2.25,0,0,1,.367-.751c1.969-2.125,3.835-4.339,5.625-6.62a6.255,6.255,0,0,0,1.086-2.016,3.1,3.1,0,0,1,1.32-1.208,3.339,3.339,0,0,1,2.951.972A55.507,55.507,0,0,0,4125.383-667.15Z" transform="translate(-4105.754 737.559)" fill="#fb641c"/>
      <path id="Trazado_581695" data-name="Trazado 581695" d="M4206.935-791.653c1.608,0,3.218.058,4.821-.02,1.045-.051,1.274.345,1.3,1.33.115,4.788.144,4.787-4.6,4.787-2.144,0-4.287-.043-6.428.018-.96.027-1.176-.323-1.207-1.233-.176-4.883-.2-4.882,4.689-4.881Z" transform="translate(-4161.14 803.866)" fill="#4397d0"/>
      <path id="Trazado_581696" data-name="Trazado 581696" d="M4140.9-701.2l-3.073-.762c-.27-.4-.2-.672.289-.794.789.573.871-.291,1.091-.615a41.851,41.851,0,0,0,3.284-5.8c.2-.435.381-1.122.988-.3Q4142.192-705.342,4140.9-701.2Z" transform="translate(-4120.63 751.332)" fill="#fab34d"/>
      <path id="Trazado_581697" data-name="Trazado 581697" d="M4172.96-580.411l.38-.418a3.65,3.65,0,0,0,1.921.174q15.426.018,30.852.017a3.833,3.833,0,0,1,1.925.166v.371c-2.609.041-5.218.111-7.825.116q-12.652.022-25.3-.013C4174.26-580,4173.472-579.644,4172.96-580.411Z" transform="translate(-4143.287 668.479)" fill="#fe6f25"/>
      <path id="Trazado_581698" data-name="Trazado 581698" d="M4213.123-798.293h-12.032v-.179h12.044Z" transform="translate(-4161.35 808.229)" fill="#040404"/>
      <path id="Trazado_581699" data-name="Trazado 581699" d="M4241.424-792.416v5.945h-.18v-5.957Z" transform="translate(-4187.133 804.348)" fill="#040404"/>
      <path id="Trazado_581700" data-name="Trazado 581700" d="M4194.262-786.474v-5.95l.159,0v5.95Z" transform="translate(-4156.965 804.346)" fill="#040404"/>
      <path id="Trazado_581701" data-name="Trazado 581701" d="M4193.378-765.695v4.588h-.355v-4.5Z" transform="translate(-4156.169 787.182)" fill="#fe7832"/>
      <path id="Trazado_581702" data-name="Trazado 581702" d="M4285.444-816.706a8.853,8.853,0,0,1,6.658,3.358,13.86,13.86,0,0,1,2.824,4.491c.277.845.114,1.155-.84,1.147-4.52-.037-9.042-.023-13.562-.01a1.125,1.125,0,0,1-1.236-.727,12.129,12.129,0,0,0-7.436-6.48c-.348-1.415.6-1.4,1.546-1.414,3.848-.039,7.695.076,11.54-.059A1.515,1.515,0,0,0,4285.444-816.706Z" transform="translate(-4206.739 819.937)" fill="#d5d8da"/>
      <path id="Trazado_581703" data-name="Trazado 581703" d="M4339.34-724.5v36.665h-.179v-36.723Z" transform="translate(-4250.005 760.771)" fill="#030303"/>
      <path id="Trazado_581704" data-name="Trazado 581704" d="M4307.665-781.165c-.36-1.445.141-2.086,1.678-1.892a17.036,17.036,0,0,0,2.12.015c2.51,0,2.724.318,1.951,2.876a3.019,3.019,0,0,0-2.414-.859C4309.889-781.085,4308.758-780.735,4307.665-781.165Z" transform="translate(-4229.71 798.352)" fill="#cd4d41"/>
      <path id="Trazado_581705" data-name="Trazado 581705" d="M4307.769-778.444c1.634-.7,3.346-.281,5.021-.322.88-.022.664.776.726,1.321-1.639.039-3.278.065-4.916.121C4307.743-777.294,4307.619-777.755,4307.769-778.444Z" transform="translate(-4229.813 795.631)" fill="#e1574a"/>
      <path id="Trazado_581706" data-name="Trazado 581706" d="M4284.093-816.05c-.525.579-1.221.345-1.846.349-3.319.022-6.639.072-9.954-.027a1.608,1.608,0,0,0-1.79,1.1c-.315.017-.643.061-.826-.294.18-.479.021-1.163.784-1.289q6.035-.021,12.07,0A2.786,2.786,0,0,1,4284.093-816.05Z" transform="translate(-4205.39 819.641)" fill="#d1d4d6"/>
      <path id="Trazado_581707" data-name="Trazado 581707" d="M4284.206-816.64l-13.947.015c-.326.076-.489-.008-.361-.373q7.154-.337,14.309,0Z" transform="translate(-4205.503 820.231)" fill="#e4e7e9"/>
      <path id="Trazado_581708" data-name="Trazado 581708" d="M4310.1-613.58a4.35,4.35,0,0,1,3.883-.034Z" transform="translate(-4231.344 689.814)" fill="#4091c8"/>
      <path id="Trazado_581709" data-name="Trazado 581709" d="M4269.329-816.7l.362.373c-.007.433.012.876-.469,1.109C4268.97-815.733,4268.768-816.244,4269.329-816.7Z" transform="translate(-4204.935 819.933)" fill="#d5d8da"/>
      <path id="Trazado_581710" data-name="Trazado 581710" d="M4134.676-799.664c1.416.924,2.667,1.938,2.146,3.921a90.438,90.438,0,0,1-10.856.122c-1.509-.021-.745-1.433-.908-2.254a5.744,5.744,0,0,1,1.775-1.739A42.871,42.871,0,0,0,4134.676-799.664Z" transform="translate(-4112.495 808.994)" fill="#4297d0"/>
      <path id="Trazado_581711" data-name="Trazado 581711" d="M4138.623-816.663c.753,2.6.575,2.865-1.918,2.866h-1.585c-2.414,0-2.414,0-2.227-2.518,1.628-.384,3.281-.074,4.915-.179.857.022.538.716.658,1.161-.032-.291-.008-.582-.014-.875A.614.614,0,0,1,4138.623-816.663Z" transform="translate(-4117.513 819.909)" fill="#4297cf"/>
      <path id="Trazado_581712" data-name="Trazado 581712" d="M4124.372-794.667c.1,2.187,1.529,2.229,3.235,2.162,2.839-.111,5.686-.03,8.53-.029-.3.82-1,.443-1.5.449-2.888.039-5.775.02-8.663.018C4123.777-792.069,4123.56-792.424,4124.372-794.667Z" transform="translate(-4111.81 805.785)" fill="#449bd5"/>
      <path id="Trazado_581713" data-name="Trazado 581713" d="M4098.756-689.764l.358.357a66.126,66.126,0,0,1,.166,7.979c.052,2.315-.017,4.631.026,6.946a3.322,3.322,0,0,1-.046.667.351.351,0,0,1-.545.146C4098.567-679.034,4098.5-684.4,4098.756-689.764Z" transform="translate(-4095.529 738.427)" fill="#fecf54"/>
      <path id="Trazado_581714" data-name="Trazado 581714" d="M4110.071-613.583c1.028-.681,2.178-.283,3.266-.32,2.064-.069,4.133-.034,6.2-.011.557.006,1.21-.219,1.6.442Z" transform="translate(-4102.906 689.769)" fill="#febb51"/>
      <path id="Trazado_581715" data-name="Trazado 581715" d="M4137.953-799.938a19.828,19.828,0,0,1-7.845.05A43.434,43.434,0,0,1,4137.953-799.938Z" transform="translate(-4115.771 809.268)" fill="#469fdb"/>
      <path id="Trazado_581716" data-name="Trazado 581716" d="M4098.722-644.795l.4,0a32.381,32.381,0,0,1,0,7.513h-.369A49.192,49.192,0,0,1,4098.722-644.795Z" transform="translate(-4095.536 709.553)" fill="#fec254"/>
      <path id="Trazado_581717" data-name="Trazado 581717" d="M4138.4-816.7h-5.375c.9-.983,2.063-.356,3.1-.459a17.738,17.738,0,0,1,2.635.11c-.014.111-.027.222-.039.333C4138.618-816.52,4138.512-816.524,4138.4-816.7Z" transform="translate(-4117.644 820.293)" fill="#47a3e0"/>
      <path id="Trazado_581718" data-name="Trazado 581718" d="M4098.823-754.718a1.234,1.234,0,0,1,0,1.78A2.56,2.56,0,0,1,4098.823-754.718Z" transform="translate(-4095.581 780.134)" fill="#fdcb52"/>
      <path id="Trazado_581719" data-name="Trazado 581719" d="M4118.434-697.614a.85.85,0,0,0-.287.795c-.4.348-.25,1.211-1.082,1.156-1.564.213-2.838-.742-4.271-1.062-.616-.138-1.153-.689-1.853-.345-.408,2.581-.085,5.165-.176,7.739a4.363,4.363,0,0,1-.536,2.542c-.028,1.541-.111,3.084-.073,4.623a4.5,4.5,0,0,0,4.75,4.667,7.619,7.619,0,0,0,1.424-.009c1.231-.2,1.551.442,1.5,1.495.119,1.3-.461,1.629-1.746,1.622-6.1-.035-9.038-2.952-9.033-9.085,0-5.755-.02-11.51-.03-17.265a1.884,1.884,0,0,1,2.686-.88c2.6.973,5.229,1.88,7.851,2.8C4118.147-698.616,4118.681-698.412,4118.434-697.614Z" transform="translate(-4100.945 746.186)" fill="#010100"/>
      <path id="Trazado_581720" data-name="Trazado 581720" d="M4100.072-673.384q0-7.691,0-15.383c.574.525.344,1.218.347,1.84.021,3.781,0,7.562.021,11.342,0,.622-.227,1.315.347,1.84l-.357.359C4100.308-673.206,4100.19-673.214,4100.072-673.384Z" transform="translate(-4096.482 737.786)" fill="#f9bd4d"/>
      <path id="Trazado_581721" data-name="Trazado 581721" d="M4100.067-645.788c.117,0,.234,0,.353,0,0,2.068.012,4.137-.008,6.205-.006.568.187,1.2-.351,1.663q0-3.757,0-7.513C4100.062-645.552,4100.065-645.671,4100.067-645.788Z" transform="translate(-4096.477 710.191)" fill="#f9b24d"/>
      <path id="Trazado_581722" data-name="Trazado 581722" d="M4193.03-684.367c.587,2.478,1.149,4.962,1.769,7.431a3.421,3.421,0,0,1-.743,3.127,17.619,17.619,0,0,1-19.279,6.06c-.561-.181-1.125-.354-1.686-.53-5.222-2.631-8.8-6.6-10.12-12.413a17.544,17.544,0,0,1,17.891-21.3,3.494,3.494,0,0,1,2.473,1.178,40.329,40.329,0,0,1,9.044,14.809C4192.58-685.456,4192.812-684.914,4193.03-684.367Z" transform="translate(-4136.595 746.293)"/>
      <path id="Trazado_581723" data-name="Trazado 581723" d="M4257.723-707.124a32.2,32.2,0,0,1,4.458,14.313,29.974,29.974,0,0,1-1.58,11.4,4.557,4.557,0,0,1-5.747,3.156,4.54,4.54,0,0,1-2.92-5.708c1.006-4.173,1.24-8.322-.265-12.438-.646-3.051-2.373-5.528-4.158-8a4.866,4.866,0,0,1,3.187-7.9,4.666,4.666,0,0,1,4.433,1.78C4256.04-709.424,4256.862-708.258,4257.723-707.124Z" transform="translate(-4190.478 752.93)"/>
      <path id="Trazado_581724" data-name="Trazado 581724" d="M4208.722-580.552q-16.334,0-32.667-.012c-.683,0-1.44.264-2.033-.345q16.336,0,32.668.012C4207.372-580.9,4208.131-581.163,4208.722-580.552Z" transform="translate(-4143.969 668.56)" fill="#f46622"/>
      <path id="Trazado_581725" data-name="Trazado 581725" d="M4125.033-770.945c1.867.333,3.788.436,5.5,1.4,1.913,1.075,3.461,2.476,3.456,4.828s-1.55,3.747-3.469,4.818a18.524,18.524,0,0,1-4.775,1.369,1.835,1.835,0,0,1-1.914-.008,15.38,15.38,0,0,1-5.354-1.768c-3.68-2.4-3.688-6.417-.024-8.821,1.854-1.215,3.972-1.47,6.073-1.812C4124.692-771.224,4124.862-771.219,4125.033-770.945Z" transform="translate(-4106.526 790.686)" fill="#010100"/>
      <path id="Trazado_581726" data-name="Trazado 581726" d="M4136.96-735.916l1.912.009.694.107.01.157h-3.391l-.027-.139Z" transform="translate(-4119.657 768.061)" fill="#fecd53"/>
      <path id="Trazado_581727" data-name="Trazado 581727" d="M4138.788-771.167l-.51,0-1.147-.163.016-.171h3.137l.012.181Z" transform="translate(-4120.281 790.908)" fill="#fecd53"/>
      <path id="Trazado_581728" data-name="Trazado 581728" d="M4114.233-754.871a1.032,1.032,0,0,1-.032,1.178A1.009,1.009,0,0,1,4114.233-754.871Z" transform="translate(-4105.446 780.232)" fill="#fecb52"/>
      <path id="Trazado_581729" data-name="Trazado 581729" d="M4116.679-690.885a52.819,52.819,0,0,1,6.441,2.262.83.83,0,0,1-.024,1,53.469,53.469,0,0,1-6.431,7.513A64.768,64.768,0,0,1,4116.679-690.885Z" transform="translate(-4107 739.146)" fill="#fd712f"/>
      <path id="Trazado_581730" data-name="Trazado 581730" d="M4116.283-690.967q-.007,5.385-.014,10.771l-.38.365q-.032-5.437-.058-10.874a.4.4,0,0,1,.16-.294C4116.051-691.04,4116.183-690.981,4116.283-690.967Z" transform="translate(-4106.604 739.229)" fill="#fe7832"/>
      <ellipse id="Elipse_7338" data-name="Elipse 7338" cx="7.463" cy="0.091" rx="7.463" ry="0.091" transform="translate(38.366 12.638)" fill="#459cd6"/>
      <path id="Trazado_581731" data-name="Trazado 581731" d="M4148.039-815.717c.105,0,.211-.005.316-.015V-814l-.316.016Z" transform="translate(-4127.285 819.311)" fill="#459dd9"/>
      <path id="Trazado_581732" data-name="Trazado 581732" d="M4185.512-664.578a14.471,14.471,0,0,1-14.435-14.1,14.6,14.6,0,0,1,13.884-14.88,2.57,2.57,0,0,1,2.213.843c5.608,6.073,8.45,13.427,10.012,21.391a2.071,2.071,0,0,1-.753,1.883A14.424,14.424,0,0,1,4185.512-664.578Z" transform="translate(-4142.075 740.866)" fill="#fea117"/>
      <path id="Trazado_581733" data-name="Trazado 581733" d="M4266.795-677.613v-.83c-.346-1.091.089-2.244-.259-3.335a28.064,28.064,0,0,0-3.116-9.252,8.151,8.151,0,0,1,2.161-3.575A24.393,24.393,0,0,1,4269.753-683a3.167,3.167,0,0,1-1.092,3.609,2.73,2.73,0,0,0-.932,2.022,1.991,1.991,0,0,1-.755,1.756A2.26,2.26,0,0,1,4266.795-677.613Z" transform="translate(-4201.372 741.535)" fill="#4297cf"/>
      <path id="Trazado_581734" data-name="Trazado 581734" d="M4270.911-656.79q.075.768.15,1.536a4.933,4.933,0,0,1,2.421-4.745c.7-.506.18-1.457.387-2.178a23.62,23.62,0,0,1-1.205,12.091,1.412,1.412,0,0,1-1.871.936,1.314,1.314,0,0,1-.926-1.688C4270.2-652.823,4270.562-654.806,4270.911-656.79Z" transform="translate(-4205.488 720.712)" fill="#3d8bbf"/>
      <path id="Trazado_581735" data-name="Trazado 581735" d="M4260.094-700.577a8.44,8.44,0,0,1-2.161,3.574c-.8-1.178-1.559-2.382-2.4-3.529-.77-1.052-1.027-2.088.127-2.951,1.171-.874,2.112-.282,2.864.745Q4259.314-701.661,4260.094-700.577Z" transform="translate(-4195.885 747.508)" fill="#f5f7f8"/>
      <path id="Trazado_581736" data-name="Trazado 581736" d="M4272.125-658.765c.6,1.072.239,2.218.259,3.335A12.279,12.279,0,0,1,4272.125-658.765Z" transform="translate(-4206.961 718.522)" fill="#3d8bbf"/>
      <path id="Trazado_581737" data-name="Trazado 581737" d="M4130.2-755.626a8.326,8.326,0,0,1-4.743-1.313c-1.646-1.131-1.615-2.365.046-3.5a9.831,9.831,0,0,1,9.546-.076c1.8,1.177,1.777,2.575-.051,3.734A9.436,9.436,0,0,1,4130.2-755.626Z" transform="translate(-4112.004 784.627)" fill="#fd7130"/>
    </g>
  </g>
</svg>
