<svg xmlns="http://www.w3.org/2000/svg" width="81.396" height="81.396" viewBox="0 0 81.396 81.396">
  <g id="Grupo_845188" data-name="Grupo 845188" transform="translate(-240 -1286.742)">
    <rect id="Rectángulo_38178" data-name="Rectángulo 38178" width="81.396" height="81.396" transform="translate(240 1286.742)" fill="none"/>
    <g id="Grupo_845193" data-name="Grupo 845193" transform="translate(631.591 2231.944)">
      <path id="Trazado_572865" data-name="Trazado 572865" d="M-384.9-879.176c-.749-.318-.547-.924-.432-1.484q2.691-13.083,5.389-26.164c.178-.863.328-1.723,1.51-1.659.876.189.846.895.873,1.554.018.438-.089.929.587.959,1.956.016,3.908,0,5.86,0,.527,0,1.082.078,1.466-.418a3.028,3.028,0,0,0,.318-1.565,3.593,3.593,0,0,1,.1-.613,5.491,5.491,0,0,0,.18-1.636,3.334,3.334,0,0,1,.1-.634c.194-1.141.342-2.286.424-3.439.039-.5.37-1.159-.559-1.17-2.021-.025-4.042-.056-6.062.02a.7.7,0,0,0-.544.355c-.471,1.339-.51,2.779-.967,4.115-.279.814-.62,1.654-1.779,1.089-.7-.376-.665-.985-.532-1.636q1.787-8.7,3.562-17.408c.231-1.146,1.026-1.168,1.933-1.167q14.016.017,28.031.007c5.705,0,11.41.03,17.115-.023,1.285-.012,1.793.437,2.047,1.7,1.959,9.767,3.987,19.519,6.013,29.273.167.806.285,1.519-.624,1.945-1.055.455-1.375-.3-1.6-1.046a21.363,21.363,0,0,1-.739-3.261c-.155-1.121-.637-1.722-1.831-1.556-1.74.049-3.481,0-5.221.026-1.4.022-1.465.082-1.329,1.449.242,2.44.661,4.859.912,7.3a1.848,1.848,0,0,0,.32.54,65.48,65.48,0,0,0,8.044.155c.589.013.562-.423.573-.848.019-.742.089-1.475,1.115-1.462.8.041,1.161.505,1.315,1.263.957,4.7,1.94,9.388,2.9,14.083.108.524.224,1.087-.463,1.356a1.32,1.32,0,0,0-.5-.1q-33.5-.019-67,0A1.335,1.335,0,0,0-384.9-879.176Z"/>
      <path id="Trazado_572866" data-name="Trazado 572866" d="M-350.042-868.349a3.088,3.088,0,0,1-.223,1.63c-.188.648-.687.658-1.246.673a66.089,66.089,0,0,0-6.884.12c-.818.223-.746-.217-.613-.776.183-.77.385-1.57-.477-2.116l0-1.381c.89.1,1.282-.338,1.444-1.19.276-1.445.64-2.874.967-4.31a1.879,1.879,0,0,0,.771.03c1.788-.14,3.576-.056,5.364-.063a1.49,1.49,0,0,1,1.428.555,3.63,3.63,0,0,0,.28.621,15.974,15.974,0,0,1-.473,3.611.278.278,0,0,1-.17-.274.857.857,0,0,0,.114.713,3.5,3.5,0,0,1-.223,1.7.293.293,0,0,1-.165-.252A.923.923,0,0,0-350.042-868.349Z" transform="translate(-18.945 -39.665)" fill="#bdbdbd"/>
      <path id="Trazado_572867" data-name="Trazado 572867" d="M-383.422-742.61c0-.073.007-.147.012-.22a2.731,2.731,0,0,1,1.452-.133q32.541-.011,65.082,0a2.725,2.725,0,0,1,1.452.133q.008.109.012.219c-.423.381-.942.233-1.421.233q-32.584.011-65.168,0C-382.479-742.378-383-742.229-383.422-742.61Z" transform="translate(-1.476 -136.566)"/>
      <path id="Trazado_572868" data-name="Trazado 572868" d="M-173.215-824.019a1.319,1.319,0,0,0-.651,1.806c.184.511.079.862-.585.859-2.9-.012-5.805,0-8.708-.016-.1,0-.2-.14-.3-.214a.955.955,0,0,1,.586-.306,37.464,37.464,0,0,1,6.832.114,8.311,8.311,0,0,0,1.352.084c.23-.012.125-.183.077-.146-.334.256-.74.079-1.119.112a.539.539,0,0,1-.368-.213c-.814-2.737-1.2-5.563-1.764-8.351a1.353,1.353,0,0,1,.308-1.249c1.253-.3,1.995.008,2.111,1.475a31.48,31.48,0,0,0,.68,3.522c.143.728.483,1.236,1.309,1.233Z" transform="translate(-147.429 -71.86)" fill="#3f6f92"/>
      <path id="Trazado_572869" data-name="Trazado 572869" d="M-225.036-776.034c-1.663,0-3.328-.032-4.99.014-.754.021-1.031-.237-1.05-.989q-.1-4.178-.3-8.355c-.033-.714.206-.936.913-.929q4.653.045,9.306,0c.717-.008.931.315,1.009.938.352,2.808.707,5.615,1.1,8.418.1.744-.168.932-.865.917C-221.618-776.058-223.327-776.034-225.036-776.034Z" transform="translate(-112.458 -104.961)" fill="#4a7fa9"/>
      <path id="Trazado_572870" data-name="Trazado 572870" d="M-323.367-776.047c-1.663,0-3.327-.036-4.988.016-.827.026-1.1-.192-.977-1.063.4-2.709.738-5.428,1.062-8.147.089-.749.338-1.084,1.17-1.071,3.055.047,6.112.036,9.168.006.707-.007.946.216.913.929-.129,2.783-.223,5.567-.305,8.351-.021.728-.287,1.018-1.053.994C-320.04-776.083-321.7-776.047-323.367-776.047Z" transform="translate(-40.936 -104.948)" fill="#4a7fa9"/>
      <path id="Trazado_572871" data-name="Trazado 572871" d="M-272.13-776.006c-1.482,0-2.965-.023-4.446.011-.648.015-.974-.094-.937-.868.14-2.871.228-5.744.307-8.618.016-.574.212-.784.8-.78q4.311.032,8.623,0c.621-.005.746.279.762.814.085,2.873.177,5.746.306,8.618.03.661-.193.851-.831.835C-269.075-776.031-270.6-776.006-272.13-776.006Z" transform="translate(-78.779 -104.985)" fill="#bdbdbd"/>
      <path id="Trazado_572872" data-name="Trazado 572872" d="M-364.957-783.788a3.55,3.55,0,0,1-.226,1.7.294.294,0,0,1-.165-.252.925.925,0,0,0,.11.705,40.261,40.261,0,0,1-.751,5.76.433.433,0,0,1,0-.709c-.387.324-.01.819-.316,1.132-3.184.019-6.369.023-9.552.07-.692.01-.846-.231-.706-.864.637-2.885,1.252-5.775,1.875-8.662a1.991,1.991,0,0,1,1.56-.512c2.113.026,4.226.007,6.339.011C-365.091-785.4-365.091-785.4-364.957-783.788Z" transform="translate(-6.449 -105.601)" fill="#bdbdbd"/>
      <path id="Trazado_572873" data-name="Trazado 572873" d="M-232.479-822.06c-.12-2.874-.216-5.749-.374-8.621-.042-.766.265-.89.927-.882,2.383.029,4.766.01,7.15.011,1.938,0,1.938,0,1.984,1.938a.456.456,0,0,0-.123.346c0,.1-.045.2.025.289a.212.212,0,0,1,.153-.185,40.118,40.118,0,0,1,.752,5.758,1.436,1.436,0,0,0-.227.692.987.987,0,0,1-1.06.994q-4.244.114-8.489,0A1.111,1.111,0,0,1-232.479-822.06Z" transform="translate(-111.376 -71.918)" fill="#bdbdbd"/>
      <path id="Trazado_572874" data-name="Trazado 572874" d="M-322.425-823.418a40.523,40.523,0,0,1,.751-5.76.287.287,0,0,1,.167.261.894.894,0,0,0-.113-.708c.045-1.937.045-1.938,1.872-1.938,2.288,0,4.576.031,6.863-.015.973-.019,1.377.277,1.315,1.311-.164,2.729-.248,5.463-.364,8.2a1.65,1.65,0,0,1-1.254.378c-2.516.01-5.033.02-7.549-.006-.708-.008-1.377-.113-1.464-1.026A1.429,1.429,0,0,0-322.425-823.418Z" transform="translate(-45.999 -71.906)" fill="#bdbdbd"/>
      <path id="Trazado_572875" data-name="Trazado 572875" d="M-357.665-821.511c-1.251.481-2.549.157-3.823.2-1.659.06-3.321-.01-4.982.025-.739.015-.93-.217-.769-.951.617-2.8,1.207-5.611,1.749-8.429.128-.666.38-.893,1.049-.884,2.424.032,4.848.011,7.272.015.438,0,.96-.092.854.647q-.636,4.453-1.266,8.907c-.319.074-.523.354-.916.349-2.4-.029-4.8-.023-6.64-.014C-363.027-821.511-360.337-821.822-357.665-821.511Z" transform="translate(-13.25 -71.93)" fill="#4a7fa9"/>
      <path id="Trazado_572876" data-name="Trazado 572876" d="M-275.545-821.77c.085-2.963.19-5.926.239-8.89.012-.749.344-.881.989-.875q3.641.037,7.282,0c.646-.007.976.126.989.875.049,2.964.155,5.927.24,8.89a1.17,1.17,0,0,1-.741.258q-4.129.032-8.258,0A1.17,1.17,0,0,1-275.545-821.77Z" transform="translate(-80.218 -71.938)" fill="#4a7fa9"/>
      <path id="Trazado_572877" data-name="Trazado 572877" d="M-225.943-877a59.345,59.345,0,0,1,1.064,7.278c.347,2.753.292,2.76-2.488,2.76-1.929,0-3.859-.026-5.787.012-.751.015-1.135-.118-1.148-1.006-.04-2.735-.179-5.469-.257-8.2-.012-.4-.227-1.044.484-1.026,2.711.07,5.433-.288,8.133.187a47.929,47.929,0,0,1-5.838.091A45.948,45.948,0,0,0-225.943-877Z" transform="translate(-110.105 -38.568)" fill="#4a7fa9"/>
      <path id="Trazado_572878" data-name="Trazado 572878" d="M-317.411-867.336a93.826,93.826,0,0,1,1.331-9.719,41.056,41.056,0,0,0,5.446.138c.508.023,1.019,0,1.528.01-2.324-.113-4.655.161-6.975-.146,1.834-.489,3.7-.158,5.552-.2,3.128-.064,3.133-.018,3.021,3.137q-.109,3.08-.24,6.158c-.013.293.1.638-.234.848-.29-.5-.027-1.04-.123-1.4-.032,1.3-.033,1.324-1.538,1.292C-312.232-867.267-314.826-867.04-317.411-867.336Z" transform="translate(-49.659 -38.516)" fill="#4a7fa9"/>
      <path id="Trazado_572879" data-name="Trazado 572879" d="M-273.961-868.886a54.714,54.714,0,0,1,.274-6.965c.07.011.156.2.175.076a.564.564,0,0,1,.483-.528c2.279-.046,4.555-.042,6.827,0,.222.049.448.128.47.39s.089.2.21.068c.385,2.97.188,5.969.44,8.945.051.6-.265.682-.746.55a44.6,44.6,0,0,0-7.553,0l-.539-.014A5.89,5.89,0,0,1-273.961-868.886Z" transform="translate(-81.29 -39.237)" fill="#bdbdbd"/>
      <path id="Trazado_572880" data-name="Trazado 572880" d="M-180.562-776.067a40.4,40.4,0,0,1-.752-5.761.462.462,0,0,0,.12-.345c0-.1.047-.2-.024-.293a.211.211,0,0,1-.15.185,3.54,3.54,0,0,1-.227-1.7c.142-1.611.142-1.606,1.818-1.62,1.835-.015,3.67.041,5.5-.031a1.21,1.21,0,0,1,.472-.044.869.869,0,0,1,.3.353c.687,2.821,1.175,5.685,1.751,8.531a1.246,1.246,0,0,1-.132,1.152l-8.364,0c-.284-.317.027-.794-.271-1.106A.435.435,0,0,1-180.562-776.067Z" transform="translate(-148.787 -105.405)" fill="#bdbdbd"/>
      <path id="Trazado_572881" data-name="Trazado 572881" d="M-264.473-917.257c0,1.345-.054,2.692.019,4.033.047.857-.26,1.072-1.067,1.052q-2.96-.072-5.923,0c-.84.02-1.2-.165-1.145-1.108.153-2.732.239-5.468.289-8.2.014-.794.321-.979,1.047-.963,1.839.04,3.68.047,5.519,0,.793-.021,1,.3.986,1.023-.035,1.389-.01,2.781-.01,4.171Z" transform="translate(-82.372 -5.577)" fill="#4a7fa9"/>
      <path id="Trazado_572882" data-name="Trazado 572882" d="M-311.427-912.672c.365-3.019.744-6.036,1.083-9.058.069-.61.378-.7.894-.7q3.022.026,6.044,0c.539,0,.826.1.79.738-.156,2.767-.276,5.536-.409,8.3-.38-.549-.054-1.2-.187-1.673-.044-.064,0-.026,0,.01-.075,2.961.465,2.618-2.64,2.643q-2.083.017-4.166,0C-310.5-912.413-311.008-912.3-311.427-912.672Z" transform="translate(-54.027 -5.594)" fill="#bdbdbd"/>
      <path id="Trazado_572883" data-name="Trazado 572883" d="M-227.9-916.267a16.475,16.475,0,0,1,.481,3.6c-.782.506-1.654.229-2.482.255-1.472.047-2.949-.025-4.421.026-.959.033-1.44-.256-1.322-1.29a7.375,7.375,0,0,0,0-1.3c-.155.417.225,1.063-.18,1.6-.133-2.779-.259-5.557-.407-8.335-.028-.532.17-.71.689-.706,2.112.018,4.224.014,6.336,0a.591.591,0,0,1,.686.623c.176,1.7.373,3.388.562,5.082a.458.458,0,0,0-.123.347c0,.1-.045.2.025.288A.212.212,0,0,1-227.9-916.267Z" transform="translate(-108.913 -5.597)" fill="#bdbdbd"/>
      <path id="Trazado_572884" data-name="Trazado 572884" d="M-348.395-912.673c.593-2.991,1.2-5.979,1.769-8.975.117-.616.409-.79,1-.781,1.842.029,3.684.016,5.526.008.507,0,.881.032.756.73-.252,1.408-.444,2.827-.661,4.242a.3.3,0,0,1-.165-.249.907.907,0,0,0,.114.7c-.156,1.372-.309,2.744-.472,4.115-.036.3-.04.7-.471.681-2.467-.085-4.947.31-7.4-.206,2.452-.3,4.908-.042,6.985-.123-1.59-.045-3.559.009-5.528-.021A2.967,2.967,0,0,1-348.395-912.673Z" transform="translate(-27.039 -5.593)" fill="#4a7fa9"/>
      <path id="Trazado_572885" data-name="Trazado 572885" d="M-181.191-831.44c.149,2.806,1.027,5.484,1.473,8.239a10.9,10.9,0,0,1,.156,1.451c-2.31.291-4.63.066-6.944.13-.3.008-.359-.374-.652-.33-.421-2.954-.835-5.91-1.266-8.863-.1-.7.329-.7.805-.692Q-184.405-831.468-181.191-831.44Z" transform="translate(-143.798 -71.961)" fill="#4a7fa9"/>
      <path id="Trazado_572886" data-name="Trazado 572886" d="M-192.481-867.283a3.554,3.554,0,0,1-.221-1.7.461.461,0,0,0,.121-.346c0-.1.046-.2-.025-.29a.212.212,0,0,1-.152.185,3.5,3.5,0,0,1-.222-1.706c.051-.173.034.066.085-.106a2.4,2.4,0,0,0,.054-.527c-.037.145-.01.315-.166.412a17.345,17.345,0,0,1-.5-3.83,2.924,2.924,0,0,0,.276-.6c.361-.59.957-.557,1.532-.579,1.193-.046,2.39.078,3.581-.086a5.367,5.367,0,0,1,.649-.167.716.716,0,0,1,.456.475c.623,2.551.987,5.156,1.58,7.715a1.761,1.761,0,0,1-.224,1.653c-1.948.2-3.9.032-5.855.088-.444.013-.794-.066-.8-.613,0-.025-.061-.074-.07-.068A.5.5,0,0,0-192.481-867.283Z" transform="translate(-140.098 -39.029)" fill="#bdbdbd"/>
      <path id="Trazado_572887" data-name="Trazado 572887" d="M-199.579-917.418c-.224-1.453-.442-2.907-.673-4.358-.1-.649.334-.613.744-.61q2.28.018,4.561.046a1.066,1.066,0,0,1,.614.831c.483,2.7,1.129,5.367,1.557,8.076a1.353,1.353,0,0,1-.051.534.829.829,0,0,1-.266.382,50.824,50.824,0,0,1-5.4.165.665.665,0,0,1-.457-.029,27.924,27.924,0,0,1-.58-4.585.451.451,0,0,0,.123-.343c0-.1.048-.2-.025-.295A.211.211,0,0,1-199.579-917.418Z" transform="translate(-135.165 -5.624)" fill="#4a7fa9"/>
      <path id="Trazado_572888" data-name="Trazado 572888" d="M-174.358-786.053c-.09,0-.179,0-.269,0a54.412,54.412,0,0,1-7.752-.023c.111-.372.426-.25.664-.25,2.776,0,5.553.026,8.329,0,.655-.007.947.182,1.076.845.548,2.81,1.134,5.614,1.735,8.414.156.727.04,1.119-.8,1.008-.353-.047-.713-.043-1.069-.062l-1.883-9.689c.428-.292.954-.011,1.584-.27-.014,0-.29-.124-.2.03.029.048-.006.08-.105.08A3.171,3.171,0,0,1-174.358-786.053Z" transform="translate(-148.221 -104.922)" fill="#a8a8a8"/>
      <path id="Trazado_572889" data-name="Trazado 572889" d="M-315.393-743.214h-67.986c.391-.457.922-.269,1.391-.27q32.6-.014,65.2,0C-316.315-743.484-315.784-743.671-315.393-743.214Z" transform="translate(-1.507 -136.181)" fill="#040404"/>
      <path id="Trazado_572890" data-name="Trazado 572890" d="M-168.953-866.6c-.177-2.853-1.114-5.571-1.5-8.386-.048-.351-.085-.7-.126-1.057.528-.593,1.1,0,1.652-.066.65,3.039,1.288,6.08,1.96,9.115.115.521.04.764-.53.724-.4-.029-.8-.044-1.195-.065A.644.644,0,0,1-168.953-866.6Z" transform="translate(-156.832 -39.259)" fill="#a8a8a8"/>
      <path id="Trazado_572891" data-name="Trazado 572891" d="M-178.678-913.052l-1.891-9.426c1.454-.355,2,.264,2.217,1.708.4,2.68,1.016,5.329,1.542,7.99C-177.5-912.414-178.154-912.28-178.678-913.052Z" transform="translate(-149.542 -5.486)" fill="#3f6e91"/>
      <path id="Trazado_572892" data-name="Trazado 572892" d="M-344.234-928.142h46.763v.135h-46.818Z" transform="translate(-30.04 -1.423)" fill="#040404"/>
      <path id="Trazado_572893" data-name="Trazado 572893" d="M-359.8-784.377c-.17-1.326-1.062-1.406-2.156-1.368-2,.068-4,.009-6.006.026-.532,0-1.208-.228-1.322.685-.032.253-.174.027-.2-.063a2.131,2.131,0,0,1-.045-.4c-.112-.783.415-.73.931-.729,2.472.006,4.944,0,7.417,0C-359.366-786.219-359.366-786.219-359.8-784.377Z" transform="translate(-11.603 -105.013)" fill="#c2c2c2"/>
      <path id="Trazado_572894" data-name="Trazado 572894" d="M-220.724-795.991c.092.512-.271.459-.58.459q-4.772,0-9.545,0c-.319,0-.66.029-.6-.462,2.924-.3,5.857-.082,8.785-.112C-222.026-796.111-221.343-796.437-220.724-795.991Z" transform="translate(-112.399 -97.712)" fill="#c7c7c7"/>
      <path id="Trazado_572895" data-name="Trazado 572895" d="M-312.627-795.98c.059.491-.282.462-.6.462q-4.772,0-9.545,0c-.308,0-.671.053-.58-.459.526-.439,1.121-.111,1.674-.119,2.581-.037,5.163-.023,7.744-.011A2.394,2.394,0,0,1-312.627-795.98Z" transform="translate(-45.312 -97.724)" fill="#c7c7c7"/>
      <path id="Trazado_572896" data-name="Trazado 572896" d="M-311.434-895.731c2.294,0,4.588-.04,6.881.018.959.024,1.291-.311,1.215-1.242a4.684,4.684,0,0,1,.308-2.263v2.773c.226.916-.078,1.257-1.067,1.225-2.133-.069-4.269,0-6.4-.04C-310.826-895.265-311.485-894.882-311.434-895.731Z" transform="translate(-54.019 -22.535)" fill="#c4c4c4"/>
      <path id="Trazado_572897" data-name="Trazado 572897" d="M-234.87-896.447v-2.774l.32,0c0,.754.049,1.512-.012,2.261-.076.932.258,1.266,1.215,1.241,2.292-.058,4.587-.018,6.88-.018.123.632-.352.483-.665.484-2.313.01-4.627-.029-6.939.021C-235.117-895.2-234.941-895.823-234.87-896.447Z" transform="translate(-109.866 -22.533)" fill="#c4c4c4"/>
      <path id="Trazado_572898" data-name="Trazado 572898" d="M-275.546-795.378h9.739c.017.589-.428.468-.758.469q-4.112.012-8.224,0C-275.118-794.91-275.563-794.789-275.546-795.378Z" transform="translate(-80.216 -98.33)" fill="#4e87b2"/>
      <path id="Trazado_572899" data-name="Trazado 572899" d="M-350.262-876.175l-.3-.605c.156-.7.719-.376,1.091-.383,1.869-.035,3.744.073,5.606-.045,1.4-.089,1.628.416,1.146,1.571l-.257-.269c-.155-.365-.277-.7-.813-.689-1.946.033-3.892.005-5.839.017A.707.707,0,0,0-350.262-876.175Z" transform="translate(-25.461 -38.584)" fill="#c7c7c7"/>
      <path id="Trazado_572900" data-name="Trazado 572900" d="M-264.587-876.713h-7.565a.531.531,0,0,1-.234-.261,32.083,32.083,0,0,1,8.033,0A.533.533,0,0,1-264.587-876.713Z" transform="translate(-82.523 -38.588)" fill="#c7c7c7"/>
      <path id="Trazado_572901" data-name="Trazado 572901" d="M-312.635-799.015H-323.36a1.864,1.864,0,0,1,.18-1.172.393.393,0,0,1,.162.445c-.016.077-.093.11-.071.105.275-.141-.044-.553.23-.731.27.882.842,1.127,1.767,1.1,2.82-.07,5.643-.026,8.465-.026Z" transform="translate(-45.304 -94.69)" fill="#b8b8b8"/>
      <path id="Trazado_572902" data-name="Trazado 572902" d="M-220.725-799.014H-231.45l-.007-.273c2.822,0,5.645-.044,8.465.026.924.023,1.5-.222,1.767-1.1.275.181-.046.595.327.785-.305-.237-.193-.421-.007-.6A1.872,1.872,0,0,1-220.725-799.014Z" transform="translate(-112.398 -94.69)" fill="#b8b8b8"/>
      <path id="Trazado_572903" data-name="Trazado 572903" d="M-317.411-846.854c2.474,0,4.952-.09,7.419.034,1.449.073,1.972-.4,1.747-1.8a.7.7,0,0,1,.263-.644v2.64q-4.464.041-8.929.081C-317.136-846.542-317.357-846.569-317.411-846.854Z" transform="translate(-49.659 -58.998)" fill="#497faa"/>
      <path id="Trazado_572904" data-name="Trazado 572904" d="M-186.424-876.693c-.524.677-1.115-.3-1.652.066l-.309-.213a15.743,15.743,0,0,1-4.281.2,1.958,1.958,0,0,0-1.665.64c-.118-.465-.6-1.1.412-1.1,2.356-.013,4.711.01,7.067.018A.392.392,0,0,1-186.424-876.693Z" transform="translate(-139.339 -38.672)" fill="#b2b2b2"/>
      <path id="Trazado_572905" data-name="Trazado 572905" d="M-356.255-797.18h-9.1v-.266c2.449,0,4.9.021,7.345-.016.582-.009,1.426.386,1.587-.7.017-.114.094-.1.258.51Q-356.212-797.414-356.255-797.18Z" transform="translate(-14.66 -96.261)" fill="#4e86b2"/>
      <path id="Trazado_572906" data-name="Trazado 572906" d="M-182.436-785.351l7.752.023c-1.775.544-3.593.174-5.388.207-1.091.02-1.972.069-2.146,1.381A3.5,3.5,0,0,1-182.436-785.351Z" transform="translate(-148.164 -105.649)" fill="#c1c1c1"/>
      <path id="Trazado_572907" data-name="Trazado 572907" d="M-189.488-887.312a3.4,3.4,0,0,0,1.868.272c.054.351-.123.488-.45.489-2.338,0-4.676.007-7.014,0-.1,0-.2-.146-.3-.223l.239-.012a35.185,35.185,0,0,1,4.222-.117c.476-.026.972.132,1.427-.133Z" transform="translate(-138.732 -31.226)" fill="#42749a"/>
      <path id="Trazado_572908" data-name="Trazado 572908" d="M-183.694-797.744a2.5,2.5,0,0,1,.053-.4c.091-.306.214-.233.246.014.1.759.679.578,1.134.581,2.054.013,4.108,0,6.162,0l.258.008c.1.064.127.119.086.167a.153.153,0,0,1-.113.065l-7.764.027Q-183.663-797.511-183.694-797.744Z" transform="translate(-147.261 -96.166)" fill="#4d86b2"/>
      <path id="Trazado_572909" data-name="Trazado 572909" d="M-182.975-844.253l.258.264c-2.108.021-4.216.028-6.323.07-.595.012-.832-.207-.729-.79.089-.287-.073-.628.29-.986-.209,1.378.528,1.509,1.562,1.464C-186.273-844.3-184.623-844.252-182.975-844.253Z" transform="translate(-142.81 -61.603)" fill="silver"/>
      <path id="Trazado_572910" data-name="Trazado 572910" d="M-355.438-841.517c1.815-.57,3.679-.106,5.513-.266.89-.078,1.882.325,2.618-.527.125.637-.127.875-.781.863C-350.538-841.491-352.988-841.5-355.438-841.517Z" transform="translate(-21.902 -64.074)" fill="silver"/>
      <path id="Trazado_572911" data-name="Trazado 572911" d="M-271.5-840.244c1.812-.568,3.67-.157,5.505-.239.674-.03,1.418-.268,2.047.239Z" transform="translate(-83.172 -65.348)" fill="silver"/>
      <path id="Trazado_572912" data-name="Trazado 572912" d="M-348.395-886.306h7.2l0,.268H-348.4Q-348.4-886.172-348.395-886.306Z" transform="translate(-27.039 -31.96)" fill="#4d84b0"/>
      <path id="Trazado_572913" data-name="Trazado 572913" d="M-193.741-875.406c.026-.657.342-.906,1.019-.884,1.641.052,3.285.036,4.927.048l-.231.216a24.349,24.349,0,0,1-4.193.119c-.554.016-1.06,0-1.2.688l-.256.268Z" transform="translate(-139.928 -39.271)" fill="#c7c7c7"/>
      <path id="Trazado_572914" data-name="Trazado 572914" d="M-274.192-848.75q.021,1.259.042,2.518A3.824,3.824,0,0,1-274.192-848.75Z" transform="translate(-81.059 -59.373)" fill="#acacac"/>
      <path id="Trazado_572915" data-name="Trazado 572915" d="M-206.238-900.841l-.154.822c-.191-.585-.275-.947.1-1.271Z" transform="translate(-130.576 -21.023)" fill="#c6c6c6"/>
      <path id="Trazado_572916" data-name="Trazado 572916" d="M-190.728-852.233l.153-.82c.191.584.273.946-.1,1.27Z" transform="translate(-142.127 -56.232)" fill="#c6c6c6"/>
      <path id="Trazado_572917" data-name="Trazado 572917" d="M-325.21-851.317c-.373-.292-.231-.671-.237-1.1.356.173.193.461.293.646Z" transform="translate(-43.777 -56.697)" fill="#c7c7c7"/>
      <path id="Trazado_572918" data-name="Trazado 572918" d="M-191.734-859.89l.12-1.013c.237.556.251.918-.094,1.234A.161.161,0,0,1-191.734-859.89Z" transform="translate(-141.369 -50.502)" fill="#c6c6c6"/>
      <path id="Trazado_572919" data-name="Trazado 572919" d="M-324.2-859.316c-.381-.292-.238-.672-.247-1.1.363.182.2.476.3.664Z" transform="translate(-44.51 -50.855)" fill="#c6c6c6"/>
      <path id="Trazado_572920" data-name="Trazado 572920" d="M-319.59-824.347c.375.292.233.671.244,1.1-.362-.177-.2-.468-.3-.654Z" transform="translate(-48.028 -77.185)" fill="#c6c6c6"/>
      <path id="Trazado_572921" data-name="Trazado 572921" d="M-196.245-823.895l-.154.821c-.19-.585-.274-.947.1-1.271Z" transform="translate(-137.869 -77.188)" fill="#c7c7c7"/>
      <path id="Trazado_572922" data-name="Trazado 572922" d="M-243.51-876.03l.234-.26.066.475-.22.9C-243.471-875.49-243.491-875.76-243.51-876.03Z" transform="translate(-103.601 -39.271)" fill="#d5d5d5"/>
      <path id="Trazado_572923" data-name="Trazado 572923" d="M-272.693-876.293l.234.261v.788c-.356-.119-.172-.419-.3-.575A.4.4,0,0,1-272.693-876.293Z" transform="translate(-82.216 -39.269)" fill="#d5d5d5"/>
      <path id="Trazado_572924" data-name="Trazado 572924" d="M-193.258-800.909l-.129.653c-.315-.257-.133-.571-.19-.836l.261-.269Q-193.287-801.135-193.258-800.909Z" transform="translate(-140.046 -93.963)" fill="#c7c7c7"/>
      <path id="Trazado_572925" data-name="Trazado 572925" d="M-322.326-801.094v.8c-.4-.132-.2-.443-.321-.619l.06-.45Z" transform="translate(-45.837 -93.962)" fill="#c6c6c6"/>
      <path id="Trazado_572926" data-name="Trazado 572926" d="M-197.718-906.375l.137-.883c.2.65.291,1.013-.086,1.336Z" transform="translate(-137.025 -16.667)" fill="#4c85b1"/>
      <path id="Trazado_572927" data-name="Trazado 572927" d="M-335.216-774.3a.931.931,0,0,1-.179-1.071c.3.144.135.432.234.618Z" transform="translate(-36.47 -112.938)" fill="#c7c7c7"/>
      <path id="Trazado_572928" data-name="Trazado 572928" d="M-180.73-775.3l.151-.82c.193.587.273.949-.1,1.273Z" transform="translate(-149.425 -112.389)" fill="#c6c6c6"/>
      <path id="Trazado_572929" data-name="Trazado 572929" d="M-338.451-751.393v-1.068c.382.164.211.46.315.645C-338.1-751.568-338.106-751.355-338.451-751.393Z" transform="translate(-34.301 -129.656)" fill="#c6c6c6"/>
      <path id="Trazado_572930" data-name="Trazado 572930" d="M-177.788-751.912l.127-.68c.325.38.127.761.188,1.1C-177.82-751.451-177.828-751.664-177.788-751.912Z" transform="translate(-151.56 -129.561)" fill="#c6c6c6"/>
      <path id="Trazado_572931" data-name="Trazado 572931" d="M-318.227-905.206c-.343-.3-.3-.662-.184-1.071.31.138.14.429.235.617Z" transform="translate(-48.868 -17.383)" fill="#4d85b1"/>
      <path id="Trazado_572932" data-name="Trazado 572932" d="M-349.453-874.791c.1-.657.609-.534,1.035-.536,1.738-.008,3.475.005,5.213-.008.582,0,1.1.014,1.039.813-.206-.166-.414-.479-.618-.476C-345.008-874.97-347.247-875.358-349.453-874.791Z" transform="translate(-26.271 -39.968)" fill="#bababa"/>
      <path id="Trazado_572933" data-name="Trazado 572933" d="M-154.717-795.128a.857.857,0,0,0,.028-.231h1.314l.006.231Z" transform="translate(-168.412 -98.344)" fill="#427599"/>
      <ellipse id="Elipse_7101" data-name="Elipse 7101" cx="6.031" cy="0.075" rx="6.031" ry="0.075" transform="translate(-356.897 -890.936)" fill="#c4c4c4"/>
      <path id="Trazado_572934" data-name="Trazado 572934" d="M-224.237-876.328c-.047.2.043.608-.208.542-2.583-.684-5.223.021-7.817-.54h8.026Z" transform="translate(-111.811 -39.243)" fill="#4e86b2"/>
      <path id="Trazado_572935" data-name="Trazado 572935" d="M-312.487-876.327h8.032l0,.271c-1.921,0-3.842-.023-5.762.013a4.079,4.079,0,0,0-1.966.184c-.444.227-.2-.3-.306-.469Z" transform="translate(-53.253 -39.243)" fill="#4e86b2"/>
      <path id="Trazado_572936" data-name="Trazado 572936" d="M-152.681-785.257h1.515a2.843,2.843,0,0,1-1.488.238A1.435,1.435,0,0,0-152.681-785.257Z" transform="translate(-169.898 -105.718)" fill="#b0b0b0"/>
      <path id="Trazado_572937" data-name="Trazado 572937" d="M-270.306-886.087h6.925v.133h-6.889Z" transform="translate(-84.042 -32.12)" fill="#4d84b0"/>
      <path id="Trazado_572938" data-name="Trazado 572938" d="M-192.574-874.523c-.065-.784.441-.82,1.024-.814,1.457.016,2.914.006,4.371.006-1.258.573-2.584.161-3.875.251C-191.638-875.038-192.193-875.058-192.574-874.523Z" transform="translate(-140.776 -39.967)" fill="#bababa"/>
      <path id="Trazado_572939" data-name="Trazado 572939" d="M-188.847-886.4c-1.861.57-3.768.128-5.649.251C-192.634-886.705-190.728-886.26-188.847-886.4Z" transform="translate(-139.377 -31.864)" fill="#4d84b0"/>
    </g>
  </g>
</svg>
