<svg xmlns="http://www.w3.org/2000/svg" width="81.396" height="81.396" viewBox="0 0 81.396 81.396">
  <g id="Grupo_845189" data-name="Grupo 845189" transform="translate(-240 -1286.742)">
    <rect id="Rectángulo_38178" data-name="Rectángulo 38178" width="81.396" height="81.396" transform="translate(240 1286.742)" fill="none"/>
    <g id="Grupo_845194" data-name="Grupo 845194" transform="translate(986.062 2297.77)">
      <path id="Trazado_572940" data-name="Trazado 572940" d="M-724.435-999.989c.27-.854.943-.935,1.7-.931,2.975.014,5.95.006,8.924.006h34.764c2.65,0,3.363.593,3.218,3.174a11.168,11.168,0,0,0,1.631,6.82c.563.9.86,1.964,1.454,2.832a10.476,10.476,0,0,1,1.483,6.983,5.67,5.67,0,0,1-3.962,5.431.98.98,0,0,0-.806,1.114q.03,12.986-.005,25.972c0,.828.324.905,1.012.914,2.7.036,3.811,1.152,3.776,3.815-.014,1.04.263,2.114-.229,3.122a4.982,4.982,0,0,1-2.8.644q-31.078-.02-62.155,0a4.98,4.98,0,0,1-2.8-.645,9.556,9.556,0,0,1-.069-4.695c.306-1.488,1.576-2.3,3.346-2.228,1.085.046,1.292-.312,1.287-1.325q-.062-12.583-.011-25.166c0-.816-.084-1.273-1.04-1.619a5.506,5.506,0,0,1-3.713-5.19c-.176-2.5-.1-4.948,1.467-7.113.461-.638.677-1.447,1.1-2.119a12.662,12.662,0,0,0,1.992-8.064c-.156-1.828.733-2.618,2.531-2.653,1.242-.024,2.486.011,3.728-.011a1.387,1.387,0,0,1,1.569.931c.218,1.047-.476,1.333-1.276,1.461a18.647,18.647,0,0,1-2.525.068,2.023,2.023,0,0,0-1.394.294,3.439,3.439,0,0,0,.1,2.777,3.517,3.517,0,0,0,1.58.153q22.85.008,45.7,0c1.731,0,3.463-.075,5.194-.04,1.213.024,1.34-.7,1.344-1.642s-.236-1.524-1.336-1.508c-1.464.02-2.931.049-4.4-.026-5.9.089-11.8.025-17.7.036q-9.916.018-19.832,0a6.486,6.486,0,0,1-1.852-.139C-724.137-998.765-724.658-999.124-724.435-999.989Z" transform="translate(0 0)"/>
      <path id="Trazado_572941" data-name="Trazado 572941" d="M-714.239-996.03c1.34-.663,2.763-.183,4.144-.277.83-.057,1.458-.206,1.619-1.128a9.05,9.05,0,0,0,2.6,0c.193,1.157,1.057,1.109,1.93,1.109q18.444-.01,36.887,0c.531,0,1.062.035,1.594.053a2.819,2.819,0,0,1,.224,2.508,1.435,1.435,0,0,1-1.525,1.034c-.221,0-.444.011-.665.011q-22.3,0-44.6-.005c-.652,0-1.348.116-1.89-.417C-714.386-994.065-713.851-995.1-714.239-996.03Z" transform="translate(-18.56 -2.557)" fill="#fcc64f"/>
      <path id="Trazado_572942" data-name="Trazado 572942" d="M-669.125-773.622a2.611,2.611,0,0,1-1.556.211q-31.493.007-62.987,0a2.608,2.608,0,0,1-1.556-.21c.184-.661.728-.355,1.1-.361,1.863-.033,3.727-.015,5.59-.015q29.018,0,58.036.021C-670.05-773.977-669.414-774.362-669.125-773.622Z" transform="translate(-3.172 -166.345)"/>
      <path id="Trazado_572943" data-name="Trazado 572943" d="M-671.4-774.491c-.406-.408-.923-.24-1.391-.24q-31.659-.012-63.318,0c-.468,0-.985-.17-1.39.24a.91.91,0,0,1-.826-.771q33.874.643,67.749,0A.91.91,0,0,1-671.4-774.491Z" transform="translate(-0.901 -165.476)" fill="#040404"/>
      <path id="Trazado_572944" data-name="Trazado 572944" d="M-696.331-883.507a2.538,2.538,0,0,1-.139-1.432q-.016-9.927-.008-19.855c0-2.29-.389-2.67-2.708-2.672q-4.931-.006-9.861,0c-2.208,0-2.7.513-2.7,2.772q0,9.994,0,19.988c0,1.519-.085,1.57-1.662,1.066.039-.242.107-.478.16-.717.094-8.688.015-17.375.037-26.061,0-.247.017-.492.032-.738a7.756,7.756,0,0,0,2.6-1.527c.421-.426.716-.7,1.324.122,1.417,1.919,5.97,1.989,7.748.217.8-.8,1.223-1.075,2.231-.114a5.524,5.524,0,0,0,7.826-.432c.422-.449.652-.381,1.074-.033,3.093,2.55,5.32,2.553,8.38.014.407-.338.638-.454,1.074.005a5.668,5.668,0,0,0,8.157.233c.362-.335.63-.955,1.242-.286a5.644,5.644,0,0,0,6.135,1.584,1.57,1.57,0,0,1,.522.041.627.627,0,0,1,.134.427c-.174.955.3,2.013-.455,2.878a3.649,3.649,0,0,1-1.806.216c-2.763.029-5.527-.035-8.285.037a1.022,1.022,0,0,0-.352.17c-.075.1-.158.2-.238.3a3.694,3.694,0,0,1-.754.827,1.124,1.124,0,0,1-.382.041,7.137,7.137,0,0,0-2.159.047,1.262,1.262,0,0,1-.424-.1,3.486,3.486,0,0,0-1.894-.49c-3.441,0-6.882.02-10.323-.01a2.219,2.219,0,0,0-2.264,1.263,2.25,2.25,0,0,0-.266,1.148c0,4.909-.011,9.817.01,14.726a1.339,1.339,0,0,0,.1.514,6.33,6.33,0,0,0,1.152,1.473,1.175,1.175,0,0,0,.556.331c8.3.1,16.587.008,24.878.044a4.945,4.945,0,0,1,2.6.373,3.83,3.83,0,0,1-.077,3.293,2.488,2.488,0,0,1-1.3.166q-14.014.008-28.029,0a2.74,2.74,0,0,1-1.3-.148c-.34-.307-.288-.722-.288-1.112q-.011-9.67,0-19.341a1.07,1.07,0,0,1,.141-.629,3.172,3.172,0,0,0-.14,1.57c-.033,6.466.041,12.933-.041,19.4A.746.746,0,0,1-696.331-883.507Z" transform="translate(-19.165 -64.286)" fill="#e8e9ea"/>
      <path id="Trazado_572945" data-name="Trazado 572945" d="M-672.774-789.18c-.353.017-.707.048-1.06.048q-27.591,0-55.183,0c-.353,0-.707-.034-1.06-.051a4.321,4.321,0,0,1-.207-2.6c.031-.552.493-.8,1.016-.893a8.7,8.7,0,0,1,1.46-.061q26.531,0,53.063,0a3.59,3.59,0,0,1,1.951.25A3.085,3.085,0,0,1-672.774-789.18Z" transform="translate(-6.723 -152.654)" fill="#8a8895"/>
      <path id="Trazado_572946" data-name="Trazado 572946" d="M-699.294-883.938a.381.381,0,0,1,.415-.243c3.327,0,6.653.019,9.98-.005.681-.005.8.292.8.882q-.02,10.179-.005,20.358c0,.479-.007.866-.673.862-3.415-.02-6.83-.011-10.245-.025-.093,0-.185-.147-.277-.226a2.073,2.073,0,0,1,.372-.252,1.6,1.6,0,0,1,.436-.1c1.2-.185,2.463.3,3.616-.34a2.567,2.567,0,0,0,.228-1.429q.008-8.715,0-17.429a2.135,2.135,0,0,0-.276-1.4c-.761-.521-1.616-.194-2.423-.272a7.064,7.064,0,0,1-1.562-.121A2.2,2.2,0,0,1-699.294-883.938Z" transform="translate(-29.515 -85.602)" fill="#0fafbf"/>
      <path id="Trazado_572947" data-name="Trazado 572947" d="M-531.474-911.162a.932.932,0,0,1,.006-.207c.62-.553,1.244-1.1,1.856-1.662.21-.192.532-.4.686-.184.8,1.1,2.194,1.346,3.121,2.246.01.087.021.173.031.26.055,8.378.023,16.756.013,25.134,0,1.448-.272,1.679-1.734,1.716-.842.022-1.685,0-2.527,0-.974.008-1.509-.372-1.438-1.423.042-.618-.025-1.241.043-1.857.281-.992,1.409-.274,1.862-.924a3.96,3.96,0,0,0,.913-2.825c-.033-4.568-.016-9.136-.013-13.7a3.141,3.141,0,0,0-.645-2.368c-.143-.161-.279-.328-.426-.486-.1-.1-.2-.193-.308-.285a1.46,1.46,0,0,1-1.434-1.869A8.338,8.338,0,0,0-531.474-911.162Z" transform="translate(-152.567 -64.248)" fill="#b8bac0"/>
      <path id="Trazado_572948" data-name="Trazado 572948" d="M-559.1-964.388c-.452-1.88-.911-3.758-1.353-5.64-.169-.717.083-1.008.874-.974,1.454.062,2.914.056,4.368,0a.987.987,0,0,1,1.135.8c.61,1.854,1.256,3.7,1.888,5.543-.412.449-.964.359-1.48.364q-2.5.024-5-.013A.806.806,0,0,1-559.1-964.388Z" transform="translate(-131.297 -21.938)" fill="#fdfdfd"/>
      <path id="Trazado_572949" data-name="Trazado 572949" d="M-693.292-964.62c.671-1.946,1.347-3.89,2.009-5.839.139-.409.406-.5.8-.5,1.8.015,3.6.007,5.419.007a40.266,40.266,0,0,1-1.286,6.331A13.89,13.89,0,0,1-693.292-964.62Z" transform="translate(-33.921 -21.975)" fill="#fdfdfd"/>
      <path id="Trazado_572950" data-name="Trazado 572950" d="M-622.459-930.8a3.617,3.617,0,0,1-2.92-3.571c-.135-2.821-.135-2.821,2.655-2.821,1.331,0,2.662-.008,3.992.006.28,0,.6-.122.784.284.841,1.875-.577,5.328-2.519,6.073a1.368,1.368,0,0,1-.392.028A7.64,7.64,0,0,0-622.459-930.8Z" transform="translate(-83.689 -46.725)" fill="#f1f1f1"/>
      <path id="Trazado_572951" data-name="Trazado 572951" d="M-624.466-964.625c.105-1.892.226-3.783.306-5.676.023-.545.288-.651.754-.647q2.45.02,4.9,0c.467,0,.729.106.752.649.081,1.893.2,3.784.307,5.676A14.869,14.869,0,0,1-624.466-964.625Z" transform="translate(-84.391 -21.979)" fill="#fdfdfd"/>
      <path id="Trazado_572952" data-name="Trazado 572952" d="M-526.141-963.636a34.242,34.242,0,0,1-2.444-6.417,14.214,14.214,0,0,1,5.995-.043c1.145,2,2.166,4.059,3.106,6.161-.817.491-1.714.208-2.573.248C-523.417-963.624-524.78-963.719-526.141-963.636Z" transform="translate(-154.701 -22.386)" fill="#fb502a"/>
      <path id="Trazado_572953" data-name="Trazado 572953" d="M-728.155-963.935c.94-2.1,1.962-4.162,3.106-6.161a14.216,14.216,0,0,1,5.995.043,34.37,34.37,0,0,1-2.443,6.417c-1.756-.085-3.514-.01-5.271-.043C-727.24-963.688-727.744-963.573-728.155-963.935Z" transform="translate(-8.356 -22.386)" fill="#fb502a"/>
      <path id="Trazado_572954" data-name="Trazado 572954" d="M-582.224-934.138a3.278,3.278,0,0,1-2.667,3.177,7.773,7.773,0,0,0-1.851.006,3.18,3.18,0,0,1-2.664-2.917,7.033,7.033,0,0,0-.042-3.211c1.9-.537,3.84-.125,5.759-.223.485-.025,1.057-.256,1.483.234A6.607,6.607,0,0,0-582.224-934.138Z" transform="translate(-110.07 -46.593)" fill="#e50d28"/>
      <path id="Trazado_572955" data-name="Trazado 572955" d="M-653.121-933.931a3.18,3.18,0,0,1-2.664,2.917,7.756,7.756,0,0,0-1.851-.006A3.279,3.279,0,0,1-660.3-934.2a6.591,6.591,0,0,0-.018-2.933c.755-.559,1.621-.249,2.414-.224,1.608.051,3.242-.342,4.827.211A7.046,7.046,0,0,0-653.121-933.931Z" transform="translate(-58.099 -46.534)" fill="#e50d28"/>
      <path id="Trazado_572956" data-name="Trazado 572956" d="M-547.334-933.186a3.5,3.5,0,0,1-2.632,2.4,7.668,7.668,0,0,0-1.6.011,3.541,3.541,0,0,1-2.936-3.5c-.151-2.9-.151-2.9,2.7-2.9q2,0,3.99,0c.346,0,.781-.076.742.479-.077,1.092.224,2.209-.217,3.276a15.092,15.092,0,0,1-.156-3.1c-.314-.493-.806-.245-1.21-.255-1.662-.041-3.326.011-4.989-.018,2.013.048,4.028-.052,6.041.065C-547.176-935.569-547.66-934.347-547.334-933.186Z" transform="translate(-135.658 -46.748)" fill="#f1f1f1"/>
      <path id="Trazado_572957" data-name="Trazado 572957" d="M-693.313-930.8a3.466,3.466,0,0,1-2.632-2.4c.309-1.161-.138-2.377.259-3.531,2.038-.121,4.074-.021,6.112-.068-1.983.01-3.966,0-5.95.011-.668.453-.2,1.125-.315,1.684s.14,1.141-.155,1.681c-.44-1.065-.138-2.18-.217-3.27-.04-.549.38-.488.732-.488,1.991,0,3.982-.005,5.973,0,.279,0,.583-.107.737.339a5.77,5.77,0,0,1-2.065,5.821,1.265,1.265,0,0,1-.878.232A7.726,7.726,0,0,0-693.313-930.8Z" transform="translate(-31.759 -46.737)" fill="#f1f1f1"/>
      <path id="Trazado_572958" data-name="Trazado 572958" d="M-516.288-930.9a3.155,3.155,0,0,1-2.646-2.662c.277-.938-.019-1.914.154-2.859-.166.793.151,1.636-.216,2.41a8.481,8.481,0,0,1-.152-2.619c-.016-.264.012-.613.352-.6,2.342.068,4.7-.341,7.027.216a54.406,54.406,0,0,1-5.842.123c1.089.053,2.594,0,4.095.013,1.871.016,1.607-.129,1.621,1.63a1.446,1.446,0,0,0,.127.9,3.353,3.353,0,0,1-2.669,3.438A7.743,7.743,0,0,0-516.288-930.9Z" transform="translate(-161.601 -46.641)" fill="#e50d28"/>
      <path id="Trazado_572959" data-name="Trazado 572959" d="M-728.546-930.937a3.354,3.354,0,0,1-2.668-3.438,1.063,1.063,0,0,0,.13-.633c.054-1.893.055-1.893,2.014-1.893,1.37,0,2.74,0,4.036,0-2.016-.076-4.1.145-6.18-.136.8-.526,1.685-.2,2.528-.242,1.277-.061,2.562.032,3.839-.033.835-.042,1.12.265,1.026,1.06a7.339,7.339,0,0,1-.165,2.221,7.134,7.134,0,0,1-.174-2.406,16.248,16.248,0,0,0,.112,2.857,3.155,3.155,0,0,1-2.647,2.661A7.738,7.738,0,0,0-728.546-930.937Z" transform="translate(-6.113 -46.623)" fill="#e50d28"/>
      <path id="Trazado_572960" data-name="Trazado 572960" d="M-651.761-968.812a22.149,22.149,0,0,1-.529,5.617,3.508,3.508,0,0,1-.626-.134,47.531,47.531,0,0,0-5.671.033.748.748,0,0,1-.621-.185,46.278,46.278,0,0,1,1.294-5.909.867.867,0,0,0,.628-.094c1.77-.209,3.554-.665,5.237.357A3.843,3.843,0,0,0-651.761-968.812Z" transform="translate(-58.915 -22.845)" fill="#fb502a"/>
      <path id="Trazado_572961" data-name="Trazado 572961" d="M-665.419-990.9q0-1.189.006-2.38c1.774-.018,3.55-.008,5.323-.068.721-.024.871.257.894.925.107,3.083.128,3.081-2.994,3.082q-25.308.006-50.617,0c-.449,0-.969.246-1.363-.2.533-.48,1.187-.279,1.787-.28q22.373-.017,44.747-.011a9.933,9.933,0,0,0,1.726-.056C-665.414-990.062-665.648-990.593-665.419-990.9Z" transform="translate(-18.611 -5.555)" fill="#faa529"/>
      <path id="Trazado_572962" data-name="Trazado 572962" d="M-590.8-963.22a22.1,22.1,0,0,1-.529-5.617,3.656,3.656,0,0,0,.29-.316c1.716-1.025,3.525-.589,5.321-.346a1.188,1.188,0,0,0,.541.084,21.831,21.831,0,0,1,1.092,5.893.627.627,0,0,1-.4.164c-1.895-.075-3.791-.09-5.685.006A3.39,3.39,0,0,1-590.8-963.22Z" transform="translate(-108.69 -22.82)" fill="#fb502a"/>
      <path id="Trazado_572963" data-name="Trazado 572963" d="M-514.394-789.619q0-1.589,0-3.177a.387.387,0,0,1,.179-.405,36.4,36.4,0,0,1,5.4-.078.678.678,0,0,1,.553.748c-.373.943.089,1.963-.265,2.908Z" transform="translate(-165.103 -152.215)" fill="#6f6e7e"/>
      <path id="Trazado_572964" data-name="Trazado 572964" d="M-665.739-793.864c-1.839.468-3.71.092-5.563.217h-.263q-27.462,0-54.923-.011c-.641,0-1.338.219-1.915-.28a2.289,2.289,0,0,1,1.424-.176q29.772,0,59.543.023A3.453,3.453,0,0,1-665.739-793.864Z" transform="translate(-8.174 -151.63)" fill="#777687"/>
      <path id="Trazado_572965" data-name="Trazado 572965" d="M-673.41-792.7c-.007.089-.014.177-.021.266h-54.937c-2.368,0-2.368,0-2.367,2.377q0,.4,0,.8H-731c-.355-.945.114-1.967-.267-2.91a.431.431,0,0,1,.289-.526,2.361,2.361,0,0,1,1.3-.129q27.472-.01,54.943,0a2.478,2.478,0,0,1,1.3.123Z" transform="translate(-6.066 -152.576)" fill="#878592"/>
      <path id="Trazado_572966" data-name="Trazado 572966" d="M-672.622-793.089l-57.55.006c.074-.232.262-.281.472-.3.577.016,1.153.044,1.73.045q26.912,0,53.825.011C-673.637-793.324-673.073-793.526-672.622-793.089Z" transform="translate(-6.877 -152.19)" fill="#93919f"/>
      <path id="Trazado_572967" data-name="Trazado 572967" d="M-713.57-878.157l-.315.29c-.035-.391-.1-.781-.1-1.171q-.009-12.534.013-25.069c0-.42-.327-.991.318-1.277l.345.3a2.746,2.746,0,0,0-.129,1.433q-.014,12.026-.013,24.053A2.99,2.99,0,0,1-713.57-878.157Z" transform="translate(-18.695 -70.058)" fill="#f8f9fa"/>
      <path id="Trazado_572968" data-name="Trazado 572968" d="M-510.717-904.561c.439-.057.362.262.362.51q0,13.272-.014,26.545a.771.771,0,0,1-.091.245c-.475.034-.46-.3-.458-.617.049-8.734,0-17.468.024-26.2a.969.969,0,0,1,.122-.374Z" transform="translate(-167.655 -70.656)" fill="#c5c7cd"/>
      <path id="Trazado_572969" data-name="Trazado 572969" d="M-665.706-988.966c-.483.487-1.1.253-1.643.254q-23.553.032-47.106.033a16.144,16.144,0,0,1-.018-3.487c.536.844.143,1.78.263,2.665.394.644,1.035.393,1.574.394q22.748.019,45.5.017A2.745,2.745,0,0,1-665.706-988.966Z" transform="translate(-18.326 -6.42)" fill="#fece52"/>
      <path id="Trazado_572970" data-name="Trazado 572970" d="M-679.083-999.027h45.668v.133h-45.724Z" transform="translate(-44.299 -1.389)" fill="#040404"/>
      <path id="Trazado_572971" data-name="Trazado 572971" d="M-526.136-904.142q0,12.85.012,25.7c0,.5-.209,1.08.3,1.493-1.957.482-3.939.151-5.91.179,0-.078,0-.155,0-.233l.214-.089c1.492,0,2.985-.059,4.478.016-1.582-.151-3.185.161-4.759-.194a26.735,26.735,0,0,1-.057-2.9c-.007-.27.006-.544.392-.533,0,3.2,0,3.2,3.181,3.2,1.882,0,1.883,0,1.883-1.836q0-11.644.01-23.288C-526.389-903.137-526.605-903.705-526.136-904.142Z" transform="translate(-152.292 -70.968)" fill="#b5b7bd"/>
      <path id="Trazado_572972" data-name="Trazado 572972" d="M-617.894-802.857c0,.069,0,.138.005.207-1.238.025-2.477.07-3.716.071q-13.162.01-26.324,0a2.778,2.778,0,0,1-1.431-.121l.043-.342a.931.931,0,0,1,.51.038c10.14.054,20.279.006,30.419.023A.774.774,0,0,1-617.894-802.857Z" transform="translate(-66.137 -145.088)" fill="#bcbec4"/>
      <path id="Trazado_572973" data-name="Trazado 572973" d="M-716.111-876.885v-27.008h.133v27.065Z" transform="translate(-17.188 -71.151)" fill="#030303"/>
      <path id="Trazado_572974" data-name="Trazado 572974" d="M-652.147-862.223V-883.9h.133v21.732Z" transform="translate(-64.093 -85.811)" fill="#030303"/>
      <path id="Trazado_572975" data-name="Trazado 572975" d="M-699.523-883.255l.268.019a1.613,1.613,0,0,1,.283.446,4.685,4.685,0,0,1,.15,1.577q.009,8.763,0,17.525a2.8,2.8,0,0,1-.432,2.025l-.274.01C-699.635-868.853-699.646-876.054-699.523-883.255Z" transform="translate(-29.287 -86.285)" fill="#00cfd1"/>
      <path id="Trazado_572976" data-name="Trazado 572976" d="M-701.762-882.041v20.878h-.133v-20.93Z" transform="translate(-27.612 -87.137)" fill="#000303"/>
      <path id="Trazado_572977" data-name="Trazado 572977" d="M-693.969-947.855c2.212-.123,4.443.276,6.644-.235.078-.018.2.155.3.239l-.032.266c-2.124.3-4.267.023-6.4.177-.173.064.09.277-.013.132-.039-.055-.011-.1.084-.1a32.775,32.775,0,0,1,6.174.093c-2.147.28-4.3.053-6.456.122C-694.3-947.142-694.362-947.4-693.969-947.855Z" transform="translate(-33.244 -38.74)" fill="#f6f6f6"/>
      <path id="Trazado_572978" data-name="Trazado 572978" d="M-554.6-947.144c.04-.24.118-.35.425-.344,2.081.046,4.163.055,6.245.076.394.452.332.713-.308.692-2.153-.069-4.311.155-6.46-.121a42.732,42.732,0,0,1,5.979-.154C-550.485-947.16-552.559-946.815-554.6-947.144Z" transform="translate(-135.549 -39.183)" fill="#f6f6f6"/>
      <path id="Trazado_572979" data-name="Trazado 572979" d="M-591.446-969.742h-.269c-.34-.952-.085-1.351,1-1.287,1.4.082,2.806.02,4.21.021.481,0,1.033-.093.944.689a.64.64,0,0,1-.286.577c-.156-.351-.256-.7-.793-.683-1.261.041-2.525.025-3.787.007A1.073,1.073,0,0,0-591.446-969.742Z" transform="translate(-108.304 -21.915)" fill="#fe542c"/>
      <path id="Trazado_572980" data-name="Trazado 572980" d="M-648.23-969.682h-.27c-.186-.294-.352-.636-.757-.649-1.436-.045-2.873-.029-4.309-.009-.409.006-.359.433-.532.658a.641.641,0,0,1-.285-.578c-.064-.517.178-.7.681-.694q2.434.024,4.869,0C-647.68-970.963-648.184-970.222-648.23-969.682Z" transform="translate(-62.446 -21.975)" fill="#fe542c"/>
      <path id="Trazado_572981" data-name="Trazado 572981" d="M-589.345-946.353l.274-.287a29.371,29.371,0,0,1,6.129,0l.312-.015c.4.336.082.434-.179.427A53.923,53.923,0,0,1-589.345-946.353Z" transform="translate(-110.145 -39.688)" fill="#fe562d"/>
      <path id="Trazado_572982" data-name="Trazado 572982" d="M-652.582-946.64l.275.286a55.33,55.33,0,0,1-6.559.129c-.259.008-.4-.14-.359-.414h.514A29.372,29.372,0,0,1-652.582-946.64Z" transform="translate(-58.898 -39.688)" fill="#fe562d"/>
      <path id="Trazado_572983" data-name="Trazado 572983" d="M-519.42-946.03c.6-.583,1.345-.267,2.019-.288,1.544-.049,3.092-.012,4.638-.01.211.3,0,.407-.228.4A58.352,58.352,0,0,1-519.42-946.03Z" transform="translate(-161.421 -39.992)" fill="#fe562d"/>
      <path id="Trazado_572984" data-name="Trazado 572984" d="M-728.361-946.23c1.811,0,3.623-.011,5.434,0,.423,0,.9-.14,1.224.3a54.172,54.172,0,0,1-6.559.086c-.06,0-.152-.1-.17-.165S-728.388-946.156-728.361-946.23Z" transform="translate(-8.15 -40.09)" fill="#fe562d"/>
      <path id="Trazado_572985" data-name="Trazado 572985" d="M-710.514-970.438l-5.995-.043c.063-.224.173-.425.431-.427q2.65-.016,5.3-.009C-710.46-970.916-710.257-970.787-710.514-970.438Z" transform="translate(-16.896 -22)" fill="#fe542c"/>
      <path id="Trazado_572986" data-name="Trazado 572986" d="M-522.918-970.432l-5.995.043c-.189-.222-.159-.457.132-.459,1.853-.013,3.707,0,5.56.035C-523.117-970.811-523.018-970.564-522.918-970.432Z" transform="translate(-154.373 -22.049)" fill="#fe542c"/>
      <path id="Trazado_572987" data-name="Trazado 572987" d="M-508.829-933.538a1.5,1.5,0,0,1-.236-.45c-.247-1.946-.243-1.947-2.162-1.947h-3.938l0-.266h6.338Q-508.83-934.87-508.829-933.538Z" transform="translate(-164.539 -47.459)" fill="#ea0d28"/>
      <path id="Trazado_572988" data-name="Trazado 572988" d="M-731.213-936.2h6.32l.006.266c-1.485,0-2.977.079-4.455-.025-1.243-.088-1.829.265-1.62,1.577a.821.821,0,0,1-.252.843Q-731.213-934.87-731.213-936.2Z" transform="translate(-6.113 -47.459)" fill="#ea0d28"/>
      <path id="Trazado_572989" data-name="Trazado 572989" d="M-624.88-948c.512-.63,1,.106,1.524.035,1.677-.225,3.406.311,5.072-.307.094-.035.279.177.422.275.089.189.315.392-.053.536l-.223,0q-3.233,0-6.466,0l-.223,0C-625.195-947.606-624.968-947.809-624.88-948Z" transform="translate(-83.977 -38.605)" fill="#f9f9f9"/>
      <path id="Trazado_572990" data-name="Trazado 572990" d="M-617.355-945.6a29.487,29.487,0,0,1-6.912,0l.112-.056q3.344-.163,6.688,0Z" transform="translate(-84.537 -40.463)" fill="#f9f9f9"/>
      <path id="Trazado_572991" data-name="Trazado 572991" d="M-555.067-946.2h6.318l0,.3h-6.419c-.166-.045-.2-.153-.144-.3Z" transform="translate(-135.086 -40.129)" fill="#fefefe"/>
      <path id="Trazado_572992" data-name="Trazado 572992" d="M-685.731-945.893H-692.2v-.3h6.623C-685.53-946.043-685.56-945.932-685.731-945.893Z" transform="translate(-34.719 -40.133)" fill="#fefefe"/>
      <path id="Trazado_572993" data-name="Trazado 572993" d="M-710.172-998.759h-4.986l0-.133h4.96Z" transform="translate(-17.886 -1.488)" fill="#040404"/>
      <path id="Trazado_572994" data-name="Trazado 572994" d="M-695.385-932.666c.193-1.155-.285-2.364.277-3.49q.145.082.1.168c-.031.058-.062.086-.094.086-.134,1.149.278,2.334-.233,3.458A.164.164,0,0,1-695.385-932.666Z" transform="translate(-32.368 -47.493)" fill="#fafafa"/>
      <path id="Trazado_572995" data-name="Trazado 572995" d="M-518.5-932.44v-2.732a4.848,4.848,0,0,1,.062,3.181Q-518.472-932.215-518.5-932.44Z" transform="translate(-162.094 -48.214)" fill="#f30d2a"/>
      <path id="Trazado_572996" data-name="Trazado 572996" d="M-705.047-931.99a4.86,4.86,0,0,1,.062-3.183q0,1.366,0,2.732Q-705.016-932.216-705.047-931.99Z" transform="translate(-25.114 -48.213)" fill="#f30d2a"/>
      <path id="Trazado_572997" data-name="Trazado 572997" d="M-528.209-935.389q.025,1.612.051,3.225a.169.169,0,0,1-.049.226c-.508-1.124-.1-2.31-.23-3.46Q-528.318-935.544-528.209-935.389Z" transform="translate(-154.784 -47.997)" fill="#fafafa"/>
      <path id="Trazado_572998" data-name="Trazado 572998" d="M-589.686-936.262a4.028,4.028,0,0,1,.042,3.211A11.983,11.983,0,0,1-589.686-936.262Z" transform="translate(-109.831 -47.415)" fill="#f50d2a"/>
      <path id="Trazado_572999" data-name="Trazado 572999" d="M-634.186-933.054a4.032,4.032,0,0,1,.042-3.213A12,12,0,0,1-634.186-933.054Z" transform="translate(-77.034 -47.411)" fill="#f50d2a"/>
      <path id="Trazado_573000" data-name="Trazado 573000" d="M-660.544-936.218a3.472,3.472,0,0,1,.018,2.933A11.968,11.968,0,0,1-660.544-936.218Z" transform="translate(-57.876 -47.447)" fill="#f20d29"/>
      <path id="Trazado_573001" data-name="Trazado 573001" d="M-563.232-933.286a3.473,3.473,0,0,1,.018-2.934A11.95,11.95,0,0,1-563.232-933.286Z" transform="translate(-129.062 -47.446)" fill="#f20d29"/>
      <path id="Trazado_573002" data-name="Trazado 573002" d="M-731.667-790.293c.573.926.133,1.945.267,2.91C-732.158-788.291-731.646-789.317-731.667-790.293Z" transform="translate(-5.671 -154.454)" fill="#9593a1"/>
      <path id="Trazado_573003" data-name="Trazado 573003" d="M-492.459-787.381c.134-.965-.3-1.982.265-2.908C-492.225-789.315-491.742-788.293-492.459-787.381Z" transform="translate(-181.165 -154.457)" fill="#787788"/>
      <path id="Trazado_573004" data-name="Trazado 573004" d="M-614.309-914.043a1.2,1.2,0,0,1,1.6,0A1.806,1.806,0,0,1-614.309-914.043Z" transform="translate(-91.839 -63.483)" fill="#fefefe"/>
      <path id="Trazado_573005" data-name="Trazado 573005" d="M-543.352-914.037a1.2,1.2,0,0,1,1.6-.012A1.815,1.815,0,0,1-543.352-914.037Z" transform="translate(-143.872 -63.483)" fill="#fefefe"/>
      <path id="Trazado_573006" data-name="Trazado 573006" d="M-650.256-914.093a1.625,1.625,0,0,1,1.851.006A2.2,2.2,0,0,1-650.256-914.093Z" transform="translate(-65.479 -63.461)" fill="#f30d2a"/>
      <path id="Trazado_573007" data-name="Trazado 573007" d="M-685.266-914.049a1.2,1.2,0,0,1,1.6.011A1.813,1.813,0,0,1-685.266-914.049Z" transform="translate(-39.806 -63.483)" fill="#fefefe"/>
      <path id="Trazado_573008" data-name="Trazado 573008" d="M-721.211-914.1a1.626,1.626,0,0,1,1.851.017A2.2,2.2,0,0,1-721.211-914.1Z" transform="translate(-13.448 -63.461)" fill="#f30d29"/>
      <path id="Trazado_573009" data-name="Trazado 573009" d="M-508.348-914.081a1.624,1.624,0,0,1,1.851-.017A2.2,2.2,0,0,1-508.348-914.081Z" transform="translate(-169.54 -63.461)" fill="#f30d29"/>
      <path id="Trazado_573010" data-name="Trazado 573010" d="M-579.3-914.088a1.625,1.625,0,0,1,1.851-.006A2.194,2.194,0,0,1-579.3-914.088Z" transform="translate(-117.51 -63.461)" fill="#f30d2a"/>
      <path id="Trazado_573011" data-name="Trazado 573011" d="M-664.748-983.1q-23.471,0-46.942-.021c-.529,0-1.3.414-1.562-.514a2.776,2.776,0,0,0,1.547.268q22.684,0,45.368.01c.71,0,1.3-.064,1.591-.808Q-664.746-983.629-664.748-983.1Z" transform="translate(-19.285 -12.29)" fill="#f9c44e"/>
      <path id="Trazado_573012" data-name="Trazado 573012" d="M-622.486-888.581l.3-.069a3.687,3.687,0,0,1,2.133-.02,1.418,1.418,0,0,0,.19.082c.522.134.736.651,1.153.921a1.057,1.057,0,0,0,.357.19c1.268.1,2.535.012,3.8.05.558.017,1.152-.073,1.587.424a3.693,3.693,0,0,1,.219,1.818c.038,4.235-.058,8.471.055,12.708a.961.961,0,0,1-.573.837,4.758,4.758,0,0,1-1.835.206q-9.165.009-18.33,0c-2.286,0-2.507-.229-2.514-2.51q-.016-5.578,0-11.157a3.2,3.2,0,0,1,.33-1.929,4.029,4.029,0,0,1,1.95-.15c3.281-.021,6.562-.01,9.843-.009-3.869-.041-7.74.04-11.608-.044.025-1.081.908-.729,1.418-.742,2.773-.07,5.548-.044,8.322-.025A6.3,6.3,0,0,0-622.486-888.581Z" transform="translate(-75.969 -82.205)" fill="#00c5c7"/>
      <path id="Trazado_573013" data-name="Trazado 573013" d="M-624-890.358a1.3,1.3,0,0,1-.88-1.042,1.386,1.386,0,0,1,.607-.892,2.123,2.123,0,0,1,1.506-.353c3.391-.007,6.781,0,10.171-.006a3.225,3.225,0,0,1,1.655.359,2.312,2.312,0,0,1,1.161,2.208c-.028,5.04-.036,10.08,0,15.119a2.289,2.289,0,0,1-1.513,2.367c-.694.39-1.5.027-2.205.312q-13.214.016-26.426,0a2.467,2.467,0,0,1-1.662-.3,1.841,1.841,0,0,0-1.043-1.043c-.214-.216-.161-.494-.161-.753q0-7.9,0-15.8c0-.26-.052-.537.158-.755a2.268,2.268,0,0,1,2.466-1.448c3.668.057,7.338.033,11.007.01.783,0,1.4.143,1.653.976-.237.813-.8,1.032-1.608,1.025-3.394-.031-6.789-.022-10.183,0-.4,0-.879-.242-1.2.23q.116.1.069.183c-.031.054-.061.082-.09.082-.019,4.783-.025,9.566-.073,14.349-.007.727.262.883.927.879q10.764-.053,21.528-.062a5.407,5.407,0,0,1,2.831-.39,13.232,13.232,0,0,0,2.753-.139c.565-.292.425-.832.426-1.294.013-4.024-.022-8.048.026-12.072.013-1.112-.391-1.479-1.471-1.441-3,.1-6.008-.168-9.014-.1A2.283,2.283,0,0,1-624-890.358Z" transform="translate(-70.954 -79.395)" fill="#010101"/>
      <path id="Trazado_573014" data-name="Trazado 573014" d="M-617.621-803.255l-30.918-.011a.209.209,0,0,1-.084-.2c.013-.072.029-.109.048-.109a.233.233,0,0,1,.306.052h30.647q.122.087.082.174T-617.621-803.255Z" transform="translate(-66.674 -144.692)" fill="#eeeff0"/>
      <path id="Trazado_573015" data-name="Trazado 573015" d="M-638.253-817.5q12.734-.02,25.468-.037c.927,0,1.854.037,2.78.057a.253.253,0,0,1-.177.393c-9.014.037-18.028.007-27.041.015A1.241,1.241,0,0,1-638-817.2Z" transform="translate(-74.281 -134.477)" fill="#f2f3f4"/>
      <path id="Trazado_573016" data-name="Trazado 573016" d="M-637.288-816.274l27.984,0c.067.061.089.121.065.18s-.047.088-.07.088h-11.283q-7.657,0-15.314-.008C-636.372-816.018-636.894-815.84-637.288-816.274Z" transform="translate(-74.989 -135.4)" fill="#e5e6e7"/>
      <path id="Trazado_573017" data-name="Trazado 573017" d="M-712.3-877.322q0-12.838,0-25.675c0-.425-.147-.9.259-1.247q0,12.77-.006,25.541C-712.049-878.238-711.872-877.718-712.3-877.322Z" transform="translate(-19.962 -70.893)" fill="#e4e5e6"/>
      <path id="Trazado_573018" data-name="Trazado 573018" d="M-649.032-864.111q0,.128-.005.255c-.08-.058-.16-.115-.239-.175q0-10.342.015-20.68c0-.508-.192-1.067.226-1.521a1.455,1.455,0,0,1,.129.9q.005,10.158,0,20.315A1.5,1.5,0,0,1-649.032-864.111Z" transform="translate(-66.176 -84.102)" fill="#f8f9fa"/>
      <path id="Trazado_573019" data-name="Trazado 573019" d="M-648.291-864.111q0-11.061,0-22.121c.462.437.258,1,.259,1.511q.021,10.306.01,20.613Q-648.159-864.107-648.291-864.111Z" transform="translate(-66.917 -84.102)" fill="#e4e5e6"/>
      <path id="Trazado_573020" data-name="Trazado 573020" d="M-560.02-901.542h-13.332a1.811,1.811,0,0,0,.009-.232c.45-.4,1-.27,1.519-.275,3-.034,5.993.045,8.989-.043a1.2,1.2,0,0,0,.423-.228c.15-.976-.256-2,.244-2.945a.782.782,0,0,1,.276.828c-.236,1.325.1,2.242,1.608,2.382a2.327,2.327,0,0,1-1.52.049c.425.281,1.026-.08,1.5.19Z" transform="translate(-121.873 -70.145)" fill="#b3b5bb"/>
      <path id="Trazado_573021" data-name="Trazado 573021" d="M-643.025-886.2l0,17.306c-.417-.275-.3-.707-.3-1.088q-.01-7.564,0-15.128C-643.318-885.49-643.436-885.92-643.025-886.2Z" transform="translate(-70.555 -84.126)" fill="#ebeced"/>
      <path id="Trazado_573022" data-name="Trazado 573022" d="M-623.5-893.68c-.23.274-.548.238-.853.238q-5.545,0-11.09,0c-.305,0-.623.036-.852-.241a58.632,58.632,0,0,1,6.994-.113A38.559,38.559,0,0,1-623.5-893.68Z" transform="translate(-75.718 -78.517)" fill="#f7f8f9"/>
      <path id="Trazado_573023" data-name="Trazado 573023" d="M-623.5-893.968l-12.795,0c.259-.331.63-.264.975-.264q5.423,0,10.846,0C-624.127-894.235-623.756-894.3-623.5-893.968Z" transform="translate(-75.718 -78.229)" fill="#e4e5e6"/>
      <path id="Trazado_573024" data-name="Trazado 573024" d="M-701.258-893.955c.149-.083.3-.239.448-.239q5.835-.028,11.669-.024c.039,0,.1.02.112.044a1.138,1.138,0,0,1,.03.22,75.65,75.65,0,0,1-7.785.113A21.846,21.846,0,0,1-701.258-893.955Z" transform="translate(-28.079 -78.246)" fill="#e4e5e6"/>
      <path id="Trazado_573025" data-name="Trazado 573025" d="M-701.258-893.231l12.259,0a1.821,1.821,0,0,1-.589.229q-5.754.024-11.508.016c-.041,0-.106-.01-.117-.034A1.04,1.04,0,0,1-701.258-893.231Z" transform="translate(-28.079 -78.969)" fill="#f7f8f9"/>
      <path id="Trazado_573026" data-name="Trazado 573026" d="M-562.39-894.3a1.631,1.631,0,0,1,0,.259,30.607,30.607,0,0,1-5.267.119,38.323,38.323,0,0,1-5.67-.106c.388-.445.909-.263,1.373-.265C-568.762-894.308-565.576-894.3-562.39-894.3Z" transform="translate(-121.895 -78.165)" fill="#e4e5e6"/>
      <path id="Trazado_573027" data-name="Trazado 573027" d="M-573.322-893.24l10.937-.013c-.4.429-.917.224-1.378.229-3.186.035-6.372.042-9.558.058Q-573.321-893.1-573.322-893.24Z" transform="translate(-121.895 -78.953)" fill="#f7f8f9"/>
      <path id="Trazado_573028" data-name="Trazado 573028" d="M-532.379-816.878c0-.09,0-.179,0-.269s0-.186.007-.278l2.045-.038c-.393.644-1.016.186-1.516.318-.58,1.117-.117,2.312-.263,3.462q.138.09.09.177c-.032.057-.064.086-.1.086l-.006.006h-.265a1.067,1.067,0,0,0,0-.262Q-532.379-815.279-532.379-816.878Z" transform="translate(-151.918 -134.53)" fill="#c0c3c9"/>
      <path id="Trazado_573029" data-name="Trazado 573029" d="M-582.2-889.088a7.215,7.215,0,0,1-2.133.02A1.992,1.992,0,0,1-582.2-889.088Z" transform="translate(-113.817 -81.788)" fill="#f3eaeb"/>
      <path id="Trazado_573030" data-name="Trazado 573030" d="M-685.044-904.081a1.907,1.907,0,0,1,1.305-.012C-684.116-903.849-684.467-903.92-685.044-904.081Z" transform="translate(-39.969 -70.924)" fill="#eff0f1"/>
      <path id="Trazado_573031" data-name="Trazado 573031" d="M-542.1-904h1.119A.88.88,0,0,1-542.1-904Z" transform="translate(-144.787 -71.071)" fill="#eff0f1"/>
      <path id="Trazado_573032" data-name="Trazado 573032" d="M-611.99-904.159a1.733,1.733,0,0,1-1.282.107C-612.944-904.392-612.593-904.2-611.99-904.159Z" transform="translate(-92.6 -70.89)" fill="#eff0f1"/>
      <path id="Trazado_573033" data-name="Trazado 573033" d="M-578.384-904.032h1.216C-577.553-903.764-577.809-903.781-578.384-904.032Z" transform="translate(-118.183 -71.049)" fill="#f0f1f2"/>
      <path id="Trazado_573034" data-name="Trazado 573034" d="M-647.689-904.109c-.395.292-.673.166-1.048.13C-648.353-904.273-648.074-904.138-647.689-904.109Z" transform="translate(-66.593 -70.951)" fill="#f0f1f2"/>
      <path id="Trazado_573035" data-name="Trazado 573035" d="M-698.274-861.6l0-21.32c1.49-.364,3.026.1,4.517-.251.433.334.271.812.272,1.232q.014,9.549,0,19.1c0,.422.156.9-.267,1.236a14.289,14.289,0,0,0-4.249,0Z" transform="translate(-30.268 -86.343)" fill="#00c5c7"/>
      <path id="Trazado_573036" data-name="Trazado 573036" d="M-669.226-848.243c-.28.588-.632,1.115-1.394.871-.674-.216-.712-.816-.7-1.41.006-.264.009-.528,0-.791-.025-.657.065-1.288.82-1.452.8-.173,1.038.466,1.28,1.043A1.9,1.9,0,0,1-669.226-848.243Z" transform="translate(-50.031 -109.897)" fill="#010809"/>
      <path id="Trazado_573037" data-name="Trazado 573037" d="M-693.752-883.182c-1.48.545-3.015.111-4.517.252q0-.127,0-.254Z" transform="translate(-30.269 -86.337)" fill="#00cbcd"/>
      <path id="Trazado_573038" data-name="Trazado 573038" d="M-697.236-803.177a7.3,7.3,0,0,1,4.249,0Z" transform="translate(-31.029 -144.773)" fill="#00cacc"/>
      <path id="Trazado_573039" data-name="Trazado 573039" d="M-663.46-845.3q0-.87.007-1.74c.634.534.238,1.191.211,1.8a.212.212,0,0,1-.113.01A.4.4,0,0,1-663.46-845.3Z" transform="translate(-55.797 -112.844)" fill="#0fbccd"/>
      <path id="Trazado_573040" data-name="Trazado 573040" d="M-517.762-886.226c.5-.025.255.364.255.54q.023,7.636.01,15.271c0,.346.069.719-.265.979a2.105,2.105,0,0,1-.124-1.167q-.01-7.227,0-14.455A2.105,2.105,0,0,1-517.762-886.226Z" transform="translate(-162.531 -84.105)" fill="#b5b7bd"/>
      <path id="Trazado_573041" data-name="Trazado 573041" d="M-518.065-886.223v16.79c-.322-.267-.247-.638-.248-.983q0-7.412,0-14.824C-518.312-885.585-518.389-885.957-518.065-886.223Z" transform="translate(-162.228 -84.108)" fill="#c3c5cc"/>
      <path id="Trazado_573042" data-name="Trazado 573042" d="M-528.681-892.99h-1.54l-.007-.239h1.566A1.576,1.576,0,0,1-528.681-892.99Z" transform="translate(-153.496 -78.971)" fill="#c3c5cb"/>
      <ellipse id="Elipse_7102" data-name="Elipse 7102" cx="3.686" cy="0.067" rx="3.686" ry="0.067" transform="translate(-709.06 -992.666)" fill="#fefefe"/>
      <path id="Trazado_573043" data-name="Trazado 573043" d="M-545.608-936q-.114-.009-.228-.009H-552.2C-550-936.1-547.793-936.63-545.608-936Z" transform="translate(-137.386 -47.383)" fill="#f6f6f6"/>
      <path id="Trazado_573044" data-name="Trazado 573044" d="M-694.275-935.9q0-.127,0-.254h6.338l0,.254Z" transform="translate(-33.196 -47.493)" fill="#f6f6f6"/>
      <path id="Trazado_573045" data-name="Trazado 573045" d="M-653.293-968.4c-.031-.534.174-.812.757-.8q2.041.03,4.083,0c.583-.009.788.269.757.8C-648.927-969.166-652.307-969.166-653.293-968.4Z" transform="translate(-63.25 -23.262)" fill="#f74e29"/>
      <path id="Trazado_573046" data-name="Trazado 573046" d="M-651.151-947.093h-6.129A14.591,14.591,0,0,1-651.151-947.093Z" transform="translate(-60.329 -39.234)" fill="#f34d28"/>
      <path id="Trazado_573047" data-name="Trazado 573047" d="M-590.333-968.4c-.054-.656.3-.817.889-.806q1.909.036,3.82,0c.585-.011.942.151.889.806-.281-.188-.441-.583-.863-.528C-587.174-968.724-588.853-969.45-590.333-968.4Z" transform="translate(-109.417 -23.254)" fill="#f74e29"/>
      <path id="Trazado_573048" data-name="Trazado 573048" d="M-582.187-947.093h-6.129A14.591,14.591,0,0,1-582.187-947.093Z" transform="translate(-110.9 -39.234)" fill="#f34d28"/>
      <path id="Trazado_573049" data-name="Trazado 573049" d="M-531.357-803.03c0-.088,0-.175.005-.263h5l0,.263Z" transform="translate(-152.668 -144.921)" fill="#bcbec4"/>
      <path id="Trazado_573050" data-name="Trazado 573050" d="M-617.161-946.122h-6.689A22.5,22.5,0,0,1-617.161-946.122Z" transform="translate(-84.843 -40.001)" fill="#fdfdfd"/>
      <path id="Trazado_573051" data-name="Trazado 573051" d="M-544.466-867.8h-5.861l.262-.5a22.77,22.77,0,0,1-.118-4.228c-.031-3.057-.012-6.114-.009-9.171,0-1.514.005-1.519,1.565-1.527,1.108-.006,2.216,0,3.323,0,.687,0,1.094.252,1.095,1,0,4.607.033,9.215-.016,13.823A.961.961,0,0,1-544.466-867.8Z" transform="translate(-138.757 -86.303)" fill="#0fafbf"/>
      <path id="Trazado_573052" data-name="Trazado 573052" d="M-560.6-868.511c0-4.574-.044-9.149.029-13.722.019-1.211-.362-1.569-1.513-1.461a17.906,17.906,0,0,1-2.928,0c-.95-.068-1.21.306-1.2,1.221.038,4.485.016,8.971.016,13.456-.428-.4-.254-.915-.256-1.38-.013-4.427-.008-8.854-.009-13.282a28.636,28.636,0,0,0-4.31-.141,3.767,3.767,0,0,1-1.552-.124c0-.074,0-.148,0-.221,3.771-.007,7.541.007,11.311-.039.817-.01.936.329.933,1.027-.023,4.569,0,9.138-.027,13.708C-560.114-869.12-559.791-868.491-560.6-868.511Z" transform="translate(-122.623 -85.592)" fill="#0eb0c0"/>
      <path id="Trazado_573053" data-name="Trazado 573053" d="M-634.252-882.963l.021-.265h11.908l0,.265Z" transform="translate(-77.215 -86.305)" fill="#00cbcd"/>
      <path id="Trazado_573054" data-name="Trazado 573054" d="M-572.317-883.272c1.541,0,3.083-.009,4.624.007.422,0,.893-.147,1.238.258-1.541,0-3.083.009-4.624-.007C-571.5-883.018-571.971-882.868-572.317-883.272Z" transform="translate(-122.632 -86.26)" fill="#00cbcd"/>
      <path id="Trazado_573055" data-name="Trazado 573055" d="M-607.949-819.774h-27.009v-.133H-607.9Z" transform="translate(-76.697 -132.738)" fill="#030303"/>
    </g>
  </g>
</svg>
