<svg xmlns="http://www.w3.org/2000/svg" width="81.396" height="81.396" viewBox="0 0 81.396 81.396">
  <g id="Grupo_845191" data-name="Grupo 845191" transform="translate(-240 -1286.742)">
    <rect id="Rectángulo_38178" data-name="Rectángulo 38178" width="81.396" height="81.396" transform="translate(240 1286.742)" fill="none"/>
    <g id="Grupo_842627" data-name="Grupo 842627" transform="translate(1310.248 1963.866)">
      <path id="Trazado_573186" data-name="Trazado 573186" d="M-1037.409-633.373c-.747-.2-.911-.735-.91-1.44q.017-14.554,0-29.107c0-.974.426-1.371,1.385-1.369q10.78.019,21.56,0c.99,0,1.348.486,1.344,1.421q-.022,5.39,0,10.781a1.269,1.269,0,0,1-.858,1.363c-.961.321-1.27-.34-1.561-1.032-.311-1.658.153-3.359-.28-5.006-1.265-.716-2.609-.368-3.914-.245-.56.053-.485.67-.516,1.106-.245,3.444-.629,3.715-3.8,2.495a3.132,3.132,0,0,0-2.59.034,8.359,8.359,0,0,1-1.509.56,1.448,1.448,0,0,1-2.018-1.32,14.561,14.561,0,0,1-.074-2.011.89.89,0,0,0-.994-.988c-.85-.017-1.7.019-2.55-.019a2.344,2.344,0,0,0-1.046.178c-.359.369-.274.837-.274,1.275q-.013,5.834,0,11.669c0,.514-.146,1.107.5,1.4,4.793.184,9.584.048,14.374.067a19.389,19.389,0,0,0,4.274-.134c.342-.253.3-.63.31-.989a26.9,26.9,0,0,1,.1-3.437c.255-.607.549-1.163,1.37-.982,1.029.257,1.054,1.035,1.053,1.9-.015,8.4.015,16.8-.037,25.205-.007,1.1.321,1.32,1.337,1.293,2.649-.07,5.3-.027,7.951-.022,2.344,0,3.12.793,3.117,3.181a7.2,7.2,0,0,1-.1,1.739,2.248,2.248,0,0,1-2.365,1.8c-1.258.013-2.517-.023-3.773.023-.413.015-1.213-.323-1.126.473.089.821-.668,1.871.612,2.468,2.579,1.2,3.646,3.51,2.826,5.919a4.707,4.707,0,0,1-5.691,3.071,4.658,4.658,0,0,1-3.377-5.62,2,2,0,0,0-.256-1.745,5.372,5.372,0,0,1-.7-3.5c.089-.92-.267-1.11-1.123-1.1-3.324.047-6.649.019-9.973.019-.677,0-1.393.079-1.62-.815-.393-.885.1-1.254.861-1.42a7.609,7.609,0,0,1,1.611-.063c7.044-.021,14.088.038,21.127-.033a.733.733,0,0,0,.483-.31,1.681,1.681,0,0,0,.127-.7c0-.47-.131-.835-.686-.879-13.966-.026-27.925,0-41.88-.01-.146,0-.3,0-.444,0a1.441,1.441,0,0,0-.761.126,1.161,1.161,0,0,0,.117,1.722c4.672.181,9.338.027,14,.078a9.823,9.823,0,0,1,1.613.051c.65.115,1.233.338,1.18,1.176a1.38,1.38,0,0,1-1.608,1.083c-1.121-.05-2.246.014-3.368-.022-.573-.018-.784.155-.785.753,0,1.119-.1,2,1.343,2.616,2.176.927,2.934,3.708,1.981,5.9a4.706,4.706,0,0,1-5.549,2.693,4.621,4.621,0,0,1-3.414-5.356,2.8,2.8,0,0,0-.328-2.233,5.92,5.92,0,0,1-.613-3.53c.032-.644-.175-.865-.833-.841-1.3.047-2.605.031-3.908.008a2.372,2.372,0,0,1-2.634-2.684c-.018-1.572.053-3.147-.02-4.716a5.786,5.786,0,0,1,1.359-4.233,4.432,4.432,0,0,0,.426-1.67q-.028-12.045-.013-24.091a1.785,1.785,0,0,0-.11-.792,11.642,11.642,0,0,0-1.429-2.678,1.471,1.471,0,0,1,.094-2.025c.81-.584,1.389-.112,1.8.507a10.14,10.14,0,0,1,2.111,5.957c-.125,6.911-.045,13.826-.044,20.739a6.551,6.551,0,0,0,.057,1.343c.051.243.021.615.389.577.32-.033.315-.385.365-.646.008-7.374-.038-14.747.029-22.118a7.3,7.3,0,0,0-1.3-4.806,78.057,78.057,0,0,0-4.419-7.376,40.431,40.431,0,0,0-2.495-4.663,2.044,2.044,0,0,0-.878-.954c-.661.63-.01,1.121.232,1.565,1.025,1.872,2.138,3.7,3.146,5.577.384.716.718,1.483-.122,2.154a1.666,1.666,0,0,1-1.941-1.012c-1.168-2.167-2.449-4.272-3.656-6.419a2.845,2.845,0,0,1,.865-4.095c1.422-.84,2.993-.349,3.961,1.3,2.761,4.714,5.493,9.444,8.25,14.161a6.653,6.653,0,0,1,.764,3.5q-.014,11.845,0,23.69c0,.49.052.98.081,1.47a3.64,3.64,0,0,1,.333.767,5.013,5.013,0,0,1,1.364,3.946c-.1.885.284,1.111,1.069,1.01a3.438,3.438,0,0,1,.941,0c.933.143,1.22-.2,1.192-1.162-.071-2.423,0-4.85-.036-7.275-.013-.831.212-1.4,1.071-1.6,1.2-.027,1.193.884,1.214,1.669.055,2.059.012,4.121.024,6.181a3.571,3.571,0,0,0,.131,1.456.822.822,0,0,0,.357.234c.156.006.307.013.462.008,5.992-.036,11.981.058,17.963-.062.65-.141.555-.646.535-1.114-.05-3.957,0-7.912-.027-11.866-.01-1.641-.109-1.723-1.779-1.745-.18,0-.359,0-.539,0-2.157,0-2.157,0-2.237,2.113-.083,2.2-1,2.854-3.06,2.008a4.776,4.776,0,0,0-3.889,0c-2.187.9-3,.3-3.054-2.049a8.826,8.826,0,0,0-.107-1.741c-1.372-.758-2.817-.4-4.214-.2-.615.089-.461.866-.567,1.366C-1036.2-633.756-1036.391-633.065-1037.409-633.373Z" transform="translate(0 0)"/>
      <path id="Trazado_573187" data-name="Trazado 573187" d="M-974.186-625.213a4.815,4.815,0,0,1,.533-.049c1.114.018,2.508-.353,3.263.179.74.522.162,2,.242,3.056.088,1.149.577,1.5,1.658,1.138a2.42,2.42,0,0,0,.5-.2,4.57,4.57,0,0,1,4.777-.047c1.677.837,2.183.436,2.2-1.388.019-2.743.02-2.777,2.8-2.723.883.017,1.827-.341,2.658.265a20.463,20.463,0,0,0,.016,5.621,1.323,1.323,0,0,0,1.258.927,7.82,7.82,0,0,0-.194,2.623,1.907,1.907,0,0,0-1.049.885c-.411.822-.065,1.7-.18,2.54-.062.455.182.971-.266,1.352a2.243,2.243,0,0,1-1.172.214q-4.758,0-9.516,0a2.381,2.381,0,0,1-1.045-.175c-.7-.539-.258-1.435-.647-2.073a1.964,1.964,0,0,1-.029-.565c-.005-.3.007-.61,0-.916a2.137,2.137,0,0,1,.039-.571c.31-.931-.073-1.393-1-1.368-1.455.039-2.947-.3-4.349.371a.482.482,0,0,1-.75-.276,77.651,77.651,0,0,1-.108-7.99A1.156,1.156,0,0,1-974.186-625.213Z" transform="translate(-60.594 -33.291)" fill="#fedf9b"/>
      <path id="Trazado_573188" data-name="Trazado 573188" d="M-1006.284-473.464c-.34-.784-.98-.9-1.759-.9q-7.171.035-14.343,0c-.468,0-.988.19-1.4-.218a2.926,2.926,0,0,1,1.456-.12c4.874-.011,9.748-.007,14.485-.006.316-.032.066-.307.15-.148.014.025-.012.044-.077.051a54.559,54.559,0,0,1-5.5.083c-2.922.026-5.844.007-8.766.007-1.744,0-1.743,0-1.673-1.777a.979.979,0,0,1,.132-.512l.81,0a2.093,2.093,0,0,0,1.86.873c.628,0,1.258.018,1.887.018q18.74,0,37.481.008a3.434,3.434,0,0,1,2.458.443l0,.814a2.939,2.939,0,0,1-1.456.124q-10.379.014-20.758.006a9.957,9.957,0,0,0-1.254.053c-.168.1.084.325-.01.172-.041-.066,0-.08.055-.126.238-.192.508-.087.757-.087q10.783-.011,21.566,0c.306,0,.634-.078.905.152-.487.345-1.043.191-1.567.192q-10.556.017-21.113.005c-.83,0-1.694-.079-1.677,1.147C-1004.483-473.661-1005.411-473.283-1006.284-473.464Z" transform="translate(-24.692 -141.61)" fill="#60515f"/>
      <path id="Trazado_573189" data-name="Trazado 573189" d="M-981.491-527.24c-.422-1.745-.1-3.516-.183-5.274-.046-1.023-.041-2.051,0-3.074a1.4,1.4,0,0,0-.946-1.568,9.271,9.271,0,0,0-.157-2.616c1.132-.118,1.168-.943,1.081-1.772-.1-.931.234-1.288,1.181-1.193,1.438.145,2.9-.255,4.329.2a.952.952,0,0,1-.34.249,13.326,13.326,0,0,1-2.621.111c-.279.012-.658-.132-.662.379.183,2.531.012,5.061.111,7.585a11.646,11.646,0,0,1,.032,1.691,5.406,5.406,0,0,0,.043,2.248c.03.888.588,1.079,1.353,1.1a29.363,29.363,0,0,1,4.544.141c3.256.169,6.512.029,9.766.081a3.815,3.815,0,0,1,2.087.309,1.533,1.533,0,0,1,.068,1.46h-19.153a1.335,1.335,0,0,1-.266-1.011c.017-2.423-.048-4.845.033-7.267-.085,2.274-.007,4.549-.042,6.822C-981.239-528.166-981.107-527.652-981.491-527.24Z" transform="translate(-54.635 -93.602)" fill="#f2a972"/>
      <path id="Trazado_573190" data-name="Trazado 573190" d="M-1046.078-653.234a2.139,2.139,0,0,0-.214-2.134c-1.22-2.039-2.382-4.113-3.539-6.189-.358-.642-.711-1.362.531-1.458,1.351,2,2.441,4.143,3.613,6.242,1.521,2.472,2.9,5.028,4.385,7.522a6,6,0,0,1,1.05,3.929c-.047,7-.024,14-.017,21,0,.617-.127,1.27.355,1.8.016.437.237.963-.161,1.262a1.51,1.51,0,0,1-1.029.087c-.5-.085-.367-.549-.369-.879-.013-2.247-.008-4.495-.008-6.742q0-8.5,0-16.991c0-2.038-1.392-3.438-2.336-5.037-.227-.385-.735-.245-1.134-.26A5.874,5.874,0,0,1-1046.078-653.234Z" transform="translate(-5.434 -5.808)" fill="#60515f"/>
      <path id="Trazado_573191" data-name="Trazado 573191" d="M-972.834-533.8c-.444-.393-.266-.919-.269-1.389-.017-2.326-.008-4.652-.008-6.977,1.226-.343,2.494.045,3.725-.212.081-.013.16-.03.239-.05.027,1.027.039,2.054.087,3.08.054,1.15.573,1.493,1.678,1.136a3,3,0,0,0,.622-.248,4.363,4.363,0,0,1,4.539-.024c1.755.876,2.27.47,2.28-1.429.014-2.7.014-2.7,2.738-2.7,2.793,0,2.8,0,2.791,2.787-.016,3.806-.049,7.612-.075,11.417-.093.13-.186.136-.28,0-3.588,0-7.177.005-10.765-.01-.47,0-1,.178-1.384-.287-.081-.589.109-1.232-.351-1.744-.019-.058-.036-.117-.056-.175s-.013-.121-.022-.181a7.208,7.208,0,0,0-.074-.906,1.623,1.623,0,0,1,.032-.378,2.054,2.054,0,0,1,.129-.359c.463-.955-.061-1.208-.886-1.252C-969.706-533.789-971.275-533.575-972.834-533.8Z" transform="translate(-61.672 -93.708)" fill="#fabc7f"/>
      <path id="Trazado_573192" data-name="Trazado 573192" d="M-976.314-475.647q-20.922,0-41.845.008c-.974,0-1.848-.053-1.842-1.35l.272,0a2.135,2.135,0,0,0,1.185.127q20.387.008,40.775,0a2.349,2.349,0,0,0,1.189-.116C-976.011-476.628-976.339-476.1-976.314-475.647Z" transform="translate(-27.457 -141.62)" fill="#716371"/>
      <path id="Trazado_573193" data-name="Trazado 573193" d="M-950.184-559.829c1.5-.56,3.046-.165,4.569-.211.52-.015.36.53.363.849.016,1.652,0,3.3.01,4.957,0,.482-.014,1.033-.682.606-1.352-.864-2.636-.445-3.942.056a35.8,35.8,0,0,1-.152-4.858C-950.047-558.9-949.838-559.4-950.184-559.829Z" transform="translate(-78.428 -80.92)" fill="#d38b63"/>
      <path id="Trazado_573194" data-name="Trazado 573194" d="M-976.477-624.784q.013,4.6.026,9.2a.973.973,0,0,1,.307.6c.08.875.038,1.753.042,2.629.015.2.012.392.013.587-.035.637.413.6.838.588,1.66.1,3.337-.28,4.978.2.437.334.947.193,1.425.195,3.571.011,7.141.005,10.712,0q.144-.227.283,0,0,.537,0,1.074a.378.378,0,0,1-.444.029c-5.835-.067-11.669-.005-17.5-.029-1.7-.007-1.851-.146-1.87-1.83-.047-4.173.068-8.347-.061-12.521a.8.8,0,0,1,.17-.717Z" transform="translate(-58.303 -33.72)" fill="#fed08c"/>
      <path id="Trazado_573195" data-name="Trazado 573195" d="M-944.783-641.085v6.359a4.2,4.2,0,0,0-4.58-.216c-.176-.219-.1-.452-.036-.684.093-1.422.042-2.844.034-4.266,0-.845.324-1.217,1.184-1.2.977.021,1.956.043,2.932-.027A.576.576,0,0,1-944.783-641.085Z" transform="translate(-78.949 -21.771)" fill="#e1996b"/>
      <path id="Trazado_573196" data-name="Trazado 573196" d="M-1017.481-587.439c-1.03-.157-.747-.972-.749-1.586-.015-6.94-.042-13.879.014-20.818a7.308,7.308,0,0,0-1.1-4.563c-.2-.333-.181-.557.285-.546a7.525,7.525,0,0,1,1.636,5.083C-1017.5-602.393-1017.466-594.916-1017.481-587.439Z" transform="translate(-27.867 -40.898)" fill="#746673"/>
      <path id="Trazado_573197" data-name="Trazado 573197" d="M-1021.754-499.366c1.577-1.441,3.275-1.117,4.211.8-.077.8.291,1.644-.232,2.4h-3.505C-1021.982-497.147-1021.528-498.306-1021.754-499.366Z" transform="translate(-26.177 -124.631)" fill="#f7f6f7"/>
      <path id="Trazado_573198" data-name="Trazado 573198" d="M-975.845-477.11c-.409.413-.932.244-1.405.244q-20.172.013-40.344,0c-.472,0-1,.172-1.4-.256,2.651-.017,5.3-.048,7.954-.05q16.791-.009,33.582,0C-976.921-477.171-976.383-477.131-975.845-477.11Z" transform="translate(-28.192 -141.485)" fill="#766775"/>
      <path id="Trazado_573199" data-name="Trazado 573199" d="M-924.232-557.98a1.679,1.679,0,0,1-.051-.261c-.078-1.9-.074-1.957,1.858-1.875,1.194.051,2.429-.364,3.586.245-.4,2.16-.4,2.186-2.783,2.146C-922.492-557.739-923.4-557.474-924.232-557.98Z" transform="translate(-97.321 -80.866)" fill="#f2a972"/>
      <path id="Trazado_573200" data-name="Trazado 573200" d="M-892.482-457.412c0,.535.025,1.071-.01,1.6-.018.277.206.691-.208.8-.2.053-.5-.125-.715-.258-1.263-.777-2.2-3.3-1.549-4.507.4-.742,1.282-.224,1.938-.327.515-.081.551.3.546.683C-892.488-458.749-892.482-458.081-892.482-457.412Z" transform="translate(-118.587 -153.89)" fill="#f6f5f6"/>
      <path id="Trazado_573201" data-name="Trazado 573201" d="M-994.644-454.772c.168.648-.1.724-.6.44a3.357,3.357,0,0,1-1.815-2.765c-.043-.57.016-1.148.03-1.722a2.31,2.31,0,0,1,2.141-.064C-994.552-457.527-995-456.126-994.644-454.772Z" transform="translate(-44.195 -154.671)" fill="#f6f5f6"/>
      <path id="Trazado_573202" data-name="Trazado 573202" d="M-978.248-624.79l0,.5a12.589,12.589,0,0,1,.121,3.206c.051,3.726-.044,7.453.05,11.179a.918.918,0,0,1-.172.487c-.512.06-.443-.311-.443-.614q0-7.074,0-14.148C-978.69-624.479-978.762-624.852-978.248-624.79Z" transform="translate(-57.614 -33.711)" fill="#fedd95"/>
      <path id="Trazado_573203" data-name="Trazado 573203" d="M-970.673-559.841c.712-.112.526.423.533.776.011.534-.028,1.07-.045,1.6a.629.629,0,0,1-.445.029c-1.21-.169-2.462.253-3.647-.267a2.1,2.1,0,0,1-.312-1.127c-.056-.658.186-.945.9-.934A13.864,13.864,0,0,0-970.673-559.841Z" transform="translate(-60.605 -81.122)" fill="#f1a872"/>
      <path id="Trazado_573204" data-name="Trazado 573204" d="M-993.869-438.065a.936.936,0,0,1-.1-1.224c.277-.336.658.04.984.119,2.142.515,2.312.387,2.772-2.237a2.133,2.133,0,0,1,1.176,1.207,2.094,2.094,0,0,1-1.343,2.489C-991.549-437.306-992.81-436.971-993.869-438.065Z" transform="translate(-46.324 -167.598)" fill="#5f505e"/>
      <path id="Trazado_573205" data-name="Trazado 573205" d="M-970.275-642.041a2.543,2.543,0,0,1-.006,2.479c-1.258-.4-2.576.073-3.839-.261a1.56,1.56,0,0,1,0-1.891C-972.866-642.153-971.524-641.553-970.275-642.041Z" transform="translate(-60.72 -21.122)" fill="#fdcf8c"/>
      <path id="Trazado_573206" data-name="Trazado 573206" d="M-1006.874-576.332v-26.24h.135v26.3Z" transform="translate(-37.041 -49.936)" fill="#050505"/>
      <path id="Trazado_573207" data-name="Trazado 573207" d="M-1023.641-600.689v25.775h-.135v-25.808Z" transform="translate(-24.701 -51.286)" fill="#050505"/>
      <path id="Trazado_573208" data-name="Trazado 573208" d="M-993.089-434.8a5.027,5.027,0,0,0,2.991.193c1.246-.2,1.513-1.319,1.836-2.327a2.612,2.612,0,0,1-1.224,3.6A2.6,2.6,0,0,1-993.089-434.8Z" transform="translate(-47.105 -170.863)" fill="#70626f"/>
      <path id="Trazado_573209" data-name="Trazado 573209" d="M-888.472-438.614c1-.533.358-1.663.865-2.376.341.442.083.9.094,1.55.1-.564-.084-1.084.44-1.28a1.5,1.5,0,0,1,.784,1.088c-.219.3.037.68-.171.981-1.374,1.654-2.527,1.945-4.671,1.181-.357-.458-.526-1.152-.139-1.431.543-.391,1.216.109,1.818.308.009-.18.034.233-.082.1s-.272.012-.107.013C-889.249-438.48-888.819-438.219-888.472-438.614Z" transform="translate(-121.279 -167.902)" fill="#5f505e"/>
      <path id="Trazado_573210" data-name="Trazado 573210" d="M-924.031-639.387v-1.348c1.424-.547,2.9-.191,4.349-.226.47-.011.711.32.717.79.007.505-.227.951-.722.969C-921.136-639.151-922.6-638.846-924.031-639.387Z" transform="translate(-97.521 -21.85)" fill="#fed08c"/>
      <path id="Trazado_573211" data-name="Trazado 573211" d="M-922.255-468.711h-23.425V-469h23.621Z" transform="translate(-81.715 -147.451)" fill="#675766"/>
      <path id="Trazado_573212" data-name="Trazado 573212" d="M-890.156-431.688a.474.474,0,0,1,.478-.089,3.879,3.879,0,0,0,4.115-1.294c.337.19.081.585.284.822a2.231,2.231,0,0,1-2.095,1.927A2.423,2.423,0,0,1-890.156-431.688Z" transform="translate(-122.252 -173.684)" fill="#70626f"/>
      <path id="Trazado_573213" data-name="Trazado 573213" d="M-973.587-557.555q.117,0,.233.011a11.729,11.729,0,0,1-5.2.139c-.686-.068-.22-1.246-.32-1.912-.083-.558.272-.661.744-.652,1.43.027,2.859.032,4.289.045a3.78,3.78,0,0,1-2.365.2c-1.021-.065-1.4.229-1.149,1.248a2.857,2.857,0,0,1,.008.672C-976.115-557.424-974.823-557.9-973.587-557.555Z" transform="translate(-57.435 -81.039)" fill="#de976a"/>
      <ellipse id="Elipse_7103" data-name="Elipse 7103" cx="13.638" cy="0.069" rx="13.638" ry="0.069" transform="translate(-1039.814 -642.567)" fill="#040302"/>
      <path id="Trazado_573214" data-name="Trazado 573214" d="M-977.037-569.009v-.3a1.141,1.141,0,0,1,.775-.135q8.933,0,17.866,0a1.223,1.223,0,0,1,.78.125l.286,0c0,.394-.292.387-.557.387Q-967.462-568.967-977.037-569.009Z" transform="translate(-58.824 -74.117)" fill="#fee197"/>
      <path id="Trazado_573215" data-name="Trazado 573215" d="M-1024.048-477a5.872,5.872,0,0,1-.006.808c-.147,1.055.266,1.388,1.346,1.374,4.494-.058,8.989-.024,13.483-.024h1.322l0,.265h-16.354C-1024.355-475.4-1024.7-476.247-1024.048-477Z" transform="translate(-24.22 -141.61)" fill="#675766"/>
      <path id="Trazado_573216" data-name="Trazado 573216" d="M-1029.894-634.182a.569.569,0,0,0-.285.546,74.678,74.678,0,0,1-4.055-7.271.231.231,0,0,1,.059-.385A52.528,52.528,0,0,1-1029.894-634.182Z" transform="translate(-17.009 -21.668)" fill="#6e616d"/>
      <path id="Trazado_573217" data-name="Trazado 573217" d="M-977.271-641.573v1.885c-.025.155-.189.181-.267.286-.979.307-1.417-.041-1.262-1.064.069-.452-.213-.954.188-1.358.38.24.809.049,1.206.136Z" transform="translate(-57.513 -21.28)" fill="#f7ba7e"/>
      <path id="Trazado_573218" data-name="Trazado 573218" d="M-1043.4-657.152q-.03.192-.059.385a39.827,39.827,0,0,1-3.491-6.249A18.009,18.009,0,0,1-1043.4-657.152Z" transform="translate(-7.78 -5.808)" fill="#6e606d"/>
      <path id="Trazado_573219" data-name="Trazado 573219" d="M-924.075-557.071c1.206,0,2.415-.05,3.618.015,1,.053,1.687-.084,1.517-1.328-.024-.178.167-.385.258-.579.206,2.406.206,2.406-2.212,2.406-.841,0-1.681,0-2.521,0C-923.757-556.563-924.179-556.484-924.075-557.071Z" transform="translate(-97.478 -81.774)" fill="#fbae76"/>
      <path id="Trazado_573220" data-name="Trazado 573220" d="M-924.034-639.718c1.246,0,2.492,0,3.739,0,.525,0,1.042-.073,1.065-.725.028-.78-.61-.611-1.065-.618-1.246-.017-2.492-.006-3.738-.006v-.271a21.856,21.856,0,0,1,5.151-.014,3.414,3.414,0,0,1,.1,1.059c.1.763-.22,1.042-.983.985a34.25,34.25,0,0,1-4.267-.14Z" transform="translate(-97.519 -21.519)" fill="#facd8a"/>
      <ellipse id="Elipse_7104" data-name="Elipse 7104" cx="7.154" cy="0.07" rx="7.154" ry="0.07" transform="translate(-1015.797 -620.177)" fill="#030303"/>
      <path id="Trazado_573221" data-name="Trazado 573221" d="M-1023.337-496.947c.862.329.372,1.063.455,1.61a10.817,10.817,0,0,1,.019,1.6h-.813c-.34-.682.073-1.451-.245-2.136A1.168,1.168,0,0,1-1023.337-496.947Z" transform="translate(-24.594 -127.05)" fill="#e2e2e2"/>
      <path id="Trazado_573222" data-name="Trazado 573222" d="M-978.057-509.876c0-2.571,0-5.143.018-7.714,0-.468-.168-.985.247-1.387a63.38,63.38,0,0,1,0,9.154Z" transform="translate(-58.069 -110.966)" fill="#feb479"/>
      <path id="Trazado_573223" data-name="Trazado 573223" d="M-977.041-509.824q0-4.577,0-9.154c.435.4.26.92.263,1.39.016,2.588.008,5.176.008,7.764Z" transform="translate(-58.821 -110.966)" fill="#efa671"/>
      <path id="Trazado_573224" data-name="Trazado 573224" d="M-924.035-639.2h3.236c1.877,0,1.877,0,1.878-1.887a.175.175,0,0,1,.282,0c.185,2.246.183,2.3-2,2.221C-921.769-638.915-922.97-638.452-924.035-639.2Z" transform="translate(-97.519 -21.762)" fill="#fedb93"/>
      <path id="Trazado_573225" data-name="Trazado 573225" d="M-950.324-636.057l-.009.481a11.322,11.322,0,0,1,0-6.445.892.892,0,0,1,.177.463C-950.33-639.728-950.008-637.883-950.324-636.057Z" transform="translate(-77.979 -21.136)" fill="#f3a573"/>
      <path id="Trazado_573226" data-name="Trazado 573226" d="M-950.376-559.007c.6.743.248,1.61.288,2.416.064,1.277.025,2.56.03,3.84-.477.193-.382-.205-.381-.41C-950.428-555.109-950.4-557.058-950.376-559.007Z" transform="translate(-78.237 -81.742)" fill="#e4966b"/>
      <path id="Trazado_573227" data-name="Trazado 573227" d="M-904.916-618.3l-.23.018c.023-1.881-.378-3.779.214-5.639Z" transform="translate(-111.228 -34.348)" fill="#feeaa2"/>
      <path id="Trazado_573228" data-name="Trazado 573228" d="M-918.637-641.936h-.282l-5.113,0c-.007-.291.177-.379.423-.38q2.275,0,4.55,0C-918.81-642.317-918.631-642.226-918.637-641.936Z" transform="translate(-97.52 -20.919)" fill="#fee198"/>
      <path id="Trazado_573229" data-name="Trazado 573229" d="M-994.78-459.519h-2.127a1.558,1.558,0,0,1,2.385,0C-994.608-459.382-994.694-459.389-994.78-459.519Z" transform="translate(-44.317 -153.969)" fill="#fefefe"/>
      <path id="Trazado_573230" data-name="Trazado 573230" d="M-1007.074-491.563c.1-.8-.235-1.639.232-2.4C-1006.692-493.142-1006.1-492.277-1007.074-491.563Z" transform="translate(-36.878 -129.227)" fill="#fefefe"/>
      <path id="Trazado_573231" data-name="Trazado 573231" d="M-949.06-641.917v-.3c1.333-.025,2.667-.053,4-.07.259,0,.555-.018.575.372l-.262,0A14.412,14.412,0,0,1-949.06-641.917Z" transform="translate(-79.249 -20.943)" fill="#f3a573"/>
      <path id="Trazado_573232" data-name="Trazado 573232" d="M-974.037-633.714l.268-.286c1.257.145,2.559-.313,3.782.284A22.95,22.95,0,0,1-974.037-633.714Z" transform="translate(-61.014 -26.968)" fill="#feda93"/>
      <path id="Trazado_573233" data-name="Trazado 573233" d="M-989.123-458.016h.258q0,2.022,0,4.045C-989.43-455.289-988.977-456.671-989.123-458.016Z" transform="translate(-49.975 -155.472)" fill="#fbfafb"/>
      <path id="Trazado_573234" data-name="Trazado 573234" d="M-904.8-583.084l-.283,0q.006-1.833.016-3.665c0-.03.047-.085.07-.084a1.426,1.426,0,0,1,.224.045Z" transform="translate(-111.355 -61.424)" fill="#feeaa2"/>
      <path id="Trazado_573235" data-name="Trazado 573235" d="M-969.542-642.319c-1.218.648-2.53.149-3.788.31h0q-.21-.156,0-.311A17.591,17.591,0,0,1-969.542-642.319Z" transform="translate(-61.454 -20.843)" fill="#fee097"/>
      <path id="Trazado_573236" data-name="Trazado 573236" d="M-1002.761-456.614v-2.331h.135v2.345Z" transform="translate(-40.044 -154.794)" fill="#040404"/>
      <path id="Trazado_573237" data-name="Trazado 573237" d="M-876.569-440.753l-.407,1.351-.128-.02v-1.6A.469.469,0,0,1-876.569-440.753Z" transform="translate(-131.781 -167.869)" fill="#625361"/>
      <path id="Trazado_573238" data-name="Trazado 573238" d="M-872.856-434.356c-.32-.2-.263-.522-.283-.822.016-.281-.041-.585.248-.78A1.7,1.7,0,0,1-872.856-434.356Z" transform="translate(-134.676 -171.576)" fill="#786977"/>
      <path id="Trazado_573239" data-name="Trazado 573239" d="M-1024.425-492.974c.491.665.143,1.426.245,2.136C-1024.941-491.472-1024.477-492.247-1024.425-492.974Z" transform="translate(-24.09 -129.95)" fill="#f7f7f7"/>
      <path id="Trazado_573240" data-name="Trazado 573240" d="M-884.923-432.189c-.42.76-1.043.044-1.706.52.283-.57.539-.433.727-.5Z" transform="translate(-124.827 -174.327)" fill="#655564"/>
      <path id="Trazado_573241" data-name="Trazado 573241" d="M-905.086-490h.28c-.047.453.392,1.008-.278,1.33Z" transform="translate(-111.353 -132.124)" fill="#feb177"/>
      <path id="Trazado_573242" data-name="Trazado 573242" d="M-976.673-642.3c0,.1,0,.207,0,.311-.45-.065-.956.164-1.341-.251A1.9,1.9,0,0,1-976.673-642.3Z" transform="translate(-58.11 -20.867)" fill="#fece8c"/>
      <path id="Trazado_573243" data-name="Trazado 573243" d="M-999.885-433.283a.725.725,0,0,1-.044-.871A.739.739,0,0,1-999.885-433.283Z" transform="translate(-42.021 -172.893)" fill="#050505"/>
      <path id="Trazado_573244" data-name="Trazado 573244" d="M-968.988-433.9a.6.6,0,0,1,.128.735C-969.3-433.342-968.869-433.662-968.988-433.9Z" transform="translate(-64.644 -173.08)" fill="#050505"/>
      <path id="Trazado_573245" data-name="Trazado 573245" d="M-966.771-580.041c-1.782.4-3.592.054-5.383.2a1,1,0,0,1-.8-.872l0-.385a1.347,1.347,0,0,1,1.022-1.19,28.472,28.472,0,0,1,3.73-.071,1.162,1.162,0,0,1,1.072.412C-966.363-581.436-966.108-580.824-966.771-580.041Z" transform="translate(-61.804 -64.67)" fill="#090805"/>
      <path id="Trazado_573246" data-name="Trazado 573246" d="M-972.946-592.585l0-.4a1.577,1.577,0,0,1,1.545-.839c1.164.043,2.331.01,3.5.012.541,0,1.148-.042,1.359.6a1.166,1.166,0,0,1-.558,1.488c-.851.732-1.872.327-2.815.4a7.645,7.645,0,0,1-2-.067A1.353,1.353,0,0,1-972.946-592.585Z" transform="translate(-61.81 -56.321)" fill="#090805"/>
      <path id="Trazado_573247" data-name="Trazado 573247" d="M-972.946-589.225l.834.861c1.247.382,2.524.057,3.783.168.521.046,1.06-.135,1.563.13a.726.726,0,0,0,0,.811,29.161,29.161,0,0,1-4.073.138c-.416.028-.875-.191-1.246.172l-.857.854Q-972.945-587.659-972.946-589.225Z" transform="translate(-61.81 -59.681)" fill="#fcdd9a"/>
      <path id="Trazado_573248" data-name="Trazado 573248" d="M-969.794-581.8c-.091-.611.39-.291.566-.294,1.584-.029,3.169-.016,4.754-.016l-.353.314Z" transform="translate(-64.104 -64.828)" fill="#fee9a2"/>
      <path id="Trazado_573249" data-name="Trazado 573249" d="M-964.567-585.754q-2.635,0-5.27-.01c-.033,0-.094-.038-.1-.061a1.275,1.275,0,0,1,.02-.226l5.012-.005Z" transform="translate(-64.01 -61.994)" fill="#fee49e"/>
      <path id="Trazado_573250" data-name="Trazado 573250" d="M-966.682-499.2a1.136,1.136,0,0,1,.258,1.9,32.221,32.221,0,0,1-4.66.1c-1.42.007-1.549-.209-1.238-1.679a.68.68,0,0,1,.542-.533C-970.075-499.523-968.356-499.868-966.682-499.2Z" transform="translate(-62.164 -125.112)" fill="#0e0a07"/>
      <path id="Trazado_573251" data-name="Trazado 573251" d="M-972.406-511.089c1.827-.7,3.721-.322,5.575-.25.908.035.932,1.01.085,1.916-1.679.633-3.4.313-5.1.2a.7.7,0,0,1-.55-.527A1.6,1.6,0,0,1-972.406-511.089Z" transform="translate(-62.1 -116.422)" fill="#0d0a07"/>
      <path id="Trazado_573252" data-name="Trazado 573252" d="M-972.883-505.014c1.306.673,2.706.2,4.056.324.528.05,1.065.006,1.6,0,0,.075,0,.151-.006.226-1.63.3-3.287-.013-4.753.157a29.641,29.641,0,0,1,4.758.1c.074.27.421.54,0,.809-1.478-.333-2.986.011-4.47-.173a41.6,41.6,0,0,1,4.471.173c0,.078,0,.156,0,.234-1.417,0-2.834.009-4.25,0a2.2,2.2,0,0,0-1.39.321A1.944,1.944,0,0,1-972.883-505.014Z" transform="translate(-61.618 -121.16)" fill="#f7ba7e"/>
      <ellipse id="Elipse_7105" data-name="Elipse 7105" cx="3.177" cy="0.087" rx="3.177" ry="0.087" transform="translate(-1034.592 -622.076)" fill="#feb47a"/>
      <path id="Trazado_573253" data-name="Trazado 573253" d="M-969.319-541.949c-1.22.446-2.485.1-3.725.212C-971.829-542.281-970.56-541.869-969.319-541.949Z" transform="translate(-61.739 -94.141)" fill="#fec887"/>
      <path id="Trazado_573254" data-name="Trazado 573254" d="M-964.243-512.539h-4.45l0-.1h4.451Z" transform="translate(-64.912 -115.597)" fill="#fec585"/>
      <path id="Trazado_573255" data-name="Trazado 573255" d="M-964-502.7h-4.782l0-.261h4.782C-964-502.872-964-502.785-964-502.7Z" transform="translate(-64.847 -122.661)" fill="#fec484"/>
      <path id="Trazado_573256" data-name="Trazado 573256" d="M-957.616-608.348l-19.421.01q0-7.285,0-14.571c.435.4.259.927.261,1.4.014,3.817.042,7.634-.014,11.45-.016,1.075.233,1.485,1.4,1.473,5.432-.059,10.866-.024,16.3-.031a2.417,2.417,0,0,0,1.166-.186C-957.461-609.034-957.709-608.518-957.616-608.348Z" transform="translate(-58.824 -35.089)" fill="#f9cc89"/>
      <path id="Trazado_573257" data-name="Trazado 573257" d="M-973-576.194l.8.872C-972.853-575.259-973.088-575.579-973-576.194Z" transform="translate(-61.757 -69.194)" fill="#f9dd9a"/>
      <path id="Trazado_573258" data-name="Trazado 573258" d="M-949.06-640.92l4.314.008c-.952.568-1.992.21-2.986.241-.814.025-1.047.3-1.081,1.1-.061,1.44.319,2.909-.243,4.319Q-949.057-638.087-949.06-640.92Z" transform="translate(-79.249 -21.94)" fill="#dc9669"/>
      <path id="Trazado_573259" data-name="Trazado 573259" d="M-969.372-551.785q-1.861-.015-3.722-.035c-.025,0-.066-.056-.07-.09a.354.354,0,0,1,.031-.128C-971.882-551.912-970.6-552.311-969.372-551.785Z" transform="translate(-61.65 -86.809)" fill="#faad75"/>
      <path id="Trazado_573260" data-name="Trazado 573260" d="M-977.771-556.865v-1.754A2.187,2.187,0,0,1-977.771-556.865Z" transform="translate(-58.288 -82.025)" fill="#f0a473"/>
      <path id="Trazado_573261" data-name="Trazado 573261" d="M-964.088-499.781h-4.818c1.608-.1,3.226-.6,4.818,0Z" transform="translate(-64.76 -124.769)" fill="#fec283"/>
    </g>
  </g>
</svg>
