<svg xmlns="http://www.w3.org/2000/svg" width="69.896" height="74.771" viewBox="0 0 69.896 74.771">
  <g id="Grupo_844318" data-name="Grupo 844318" transform="translate(-1315.129 379.795)">
    <path id="Trazado_581216" data-name="Trazado 581216" d="M1384.229-305.025h-68.378c-.451-.553-.284-1.213-.285-1.829-.012-6.522.039-13.045-.04-19.566-.02-1.685-.054-3.145,2.038-3.492q.026-11.167.063-22.334a1.344,1.344,0,0,0-.578-1.219,4.744,4.744,0,0,1-1.9-3.922c-.016-1.946,0-3.893-.019-5.839a3.246,3.246,0,0,1,.438-1.52c2.347-4.687,4.705-9.369,7.019-14.073a1.465,1.465,0,0,1,1.536-.976q25.917.042,51.836,0a1.466,1.466,0,0,1,1.536.976c2.314,4.7,4.67,9.387,7.021,14.072a3.513,3.513,0,0,1,.438,1.666c-.026,1.849-.01,3.7-.011,5.548a4.393,4.393,0,0,1-1.489,3.66,2.71,2.71,0,0,0-1,2.5c.041,7.153.047,14.305.064,21.458.032.037.056.091.1.108,1.909.8,1.909.8,1.909,3.091q0,9.929-.008,19.859C1384.513-306.237,1384.679-305.578,1384.229-305.025Z"/>
    <path id="Trazado_581217" data-name="Trazado 581217" d="M1547.319-184.3q0-11.143.011-22.286c0-1.053.147-2.093-1.43-2.007-.241.013-.29-.343-.294-.593.609,0,1.218.008,1.827.006.469,0,.748.134.515.668-.378.475-.182,1.03-.183,1.542-.016,7.033-.007,14.067-.017,21.1a3.129,3.129,0,0,1-.135,1.571Z" transform="translate(-163.09 -120.727)" fill="#050505"/>
    <path id="Trazado_581218" data-name="Trazado 581218" d="M1317.588-209.183c0,.25-.052.606-.293.593-1.578-.086-1.433.953-1.431,2.006q.029,11.143.011,22.287h-.294a3.12,3.12,0,0,1-.135-1.571c-.01-7.032,0-14.065-.017-21.1,0-.512.194-1.067-.183-1.542-.232-.531.04-.673.513-.671C1316.369-209.175,1316.979-209.181,1317.588-209.183Z" transform="translate(-0.024 -120.728)" fill="#050505"/>
    <path id="Trazado_581219" data-name="Trazado 581219" d="M1552.381-182.666q0-11.289.01-22.577c0-.552-.23-1.181.325-1.635.031,3.936.074,7.872.091,11.808.016,3.7.019,7.393-.017,11.09C1552.784-183.546,1553.177-182.892,1552.381-182.666Z" transform="translate(-167.857 -122.358)" fill="#010100"/>
    <path id="Trazado_581220" data-name="Trazado 581220" d="M1315.231-206.87c.557.453.324,1.083.325,1.634q.022,11.288.009,22.576c-.443.024-.425-.3-.425-.585Q1315.183-195.058,1315.231-206.87Z" transform="translate(-0.009 -122.365)" fill="#010100"/>
    <path id="Trazado_581221" data-name="Trazado 581221" d="M1389.3-276.96a3.549,3.549,0,0,0-.563-.109c-2.91-.1-2.948-.1-2.913-3.1a4.009,4.009,0,0,0-1.621-3.687c-.862-.584-.245-1.194-.041-1.635.475-1.031.024-1.31-.848-1.624-.913-.329-1.346-.2-1.62.792-.2.742-.144,1.727-1.1,2.072-.481.174-.853.879-1.529.291-.623-.542-.083-1.022.071-1.434.321-.859.385-1.328-.7-1.7-1.122-.387-1.5-.118-1.759.951-.205.859-.365,1.8-1.466,2.153-.427.135-.728.376-1.153.017s-.2-.71-.04-1.04c.582-1.178.455-1.873-1.022-2.225-.864-.206-1.012.133-1.173.72a3.659,3.659,0,0,1-1.994,2.8c-1.034.461-1.265,1.651-1.558,2.684a3.552,3.552,0,0,0-.137,1.994c.1,1.1-.289,1.541-1.383,1.368-.386-.061-.771.088-.888.03a7.023,7.023,0,0,1,2.255.135c-.806.681-1.636.413-2.364.387-.916-.032-1.181.3-1.165,1.172.042,2.234.028,4.469,0,6.7a1.617,1.617,0,0,1-.559,1.641c-.013-2.811,0-5.328-.009-7.844-.009,2.224-.034,4.449.01,6.672.018.878-.34,1.253-1.17,1.286-.194.008.049,0-.146,0a5.593,5.593,0,0,1-2.553-.384c-1.076-.492-.141-1.479-.66-2.058a6.453,6.453,0,0,0-4.193-4.329c-.745-.227-.644-.7-.67-1.233-.219-4.357-3.052-6.89-7.346-6.575-.485.036-1.076,0-1.373.384-.816,1.055-1.544.729-2.52.18a6.416,6.416,0,0,0-4.138-.5,2.323,2.323,0,0,0-2.064,2.292,8.685,8.685,0,0,0,1.012,4.939c-.3.339-.707.13-1.056.164a2.553,2.553,0,0,0-2.488,2.549,9.013,9.013,0,0,0,.684,4.135c-1.852.965-2.594.546-2.594-1.472,0-6.374,0-12.749-.046-19.124-.074-.192-.23.136-.08.013.054-.044.091-.007.092.112.058,6.6.012,13.2.02,19.8,0,.313.1.731-.451.713q-.042-10.436-.091-20.872c0-.514.1-.854.69-.862a2.688,2.688,0,0,0,.428-.089c1.05-.19,1.816-1.33,2.647-1.339.734-.008,1.508,1.074,2.487,1.322a4.711,4.711,0,0,0,4.367-1c.455-.377.672-.415,1.184-.025a4.654,4.654,0,0,0,6.271.027c.566-.437.8-.33,1.286.044a4.666,4.666,0,0,0,6.046.074c.579-.437.89-.532,1.528-.02a4.619,4.619,0,0,0,5.927.048c.561-.426.856-.609,1.527-.07a4.616,4.616,0,0,0,6.04,0c.541-.408.814-.486,1.4-.022a4.654,4.654,0,0,0,6.044.05c.507-.378.78-.589,1.424-.073a4.627,4.627,0,0,0,6.154,0c.51-.388.791-.513,1.292-.017a2.451,2.451,0,0,0,1.362.79c1.806.094,1.763,1.206,1.75,2.571-.058,6.23-.022,12.461-.031,18.692,0,.53-.081,1.06-.124,1.589a1.8,1.8,0,0,1-2.261-.011l.034.03c-.456-.445-.2-1.006-.217-1.508C1389.355-271.359,1389.622-274.165,1389.3-276.96Z" transform="translate(-12.083 -62.8)" fill="#f7f9fa"/>
    <path id="Trazado_581222" data-name="Trazado 581222" d="M1471.29-227.52c-.346.417-.817.208-1.223.209-5.74.016-11.48-.016-17.22.035-1.064.01-1.457-.225-1.391-1.357.1-1.745.051-3.5.016-5.251-.013-.67.165-.944.891-.941,6.178.025,12.355.016,18.533.017.207,0,.376.051.435.278a35.2,35.2,0,0,0-.142,4.778,4.351,4.351,0,0,1-.132,1.721,1.234,1.234,0,0,1-.828.209c-5.575-.019-11.15.077-16.7-.044,5.333.118,10.639.016,15.945.061C1470.087-227.8,1470.742-227.973,1471.29-227.52Z" transform="translate(-96.463 -102.584)" fill="#fda800"/>
    <path id="Trazado_581223" data-name="Trazado 581223" d="M1405.169-370.809c.447.185.263.582.263.883.013,4.277-.013,8.555.027,12.831.008.864-.189,1.162-1.119,1.175-3.883.054-3.89.089-3.88-3.791.009-3.6.038-7.191.059-10.786C1402.048-370.91,1403.643-370.345,1405.169-370.809Z" transform="translate(-60.382 -6.359)" fill="#fabe00"/>
    <path id="Trazado_581224" data-name="Trazado 581224" d="M1456.359-370.5c.02,4.518.027,9.037.074,13.556.008.742-.2.984-.976,1.017-4.021.167-4.02.192-4.02-3.795,0-3.256-.012-6.513.015-9.769,0-.438-.272-.971.257-1.321C1453.234-370.345,1454.83-370.909,1456.359-370.5Z" transform="translate(-96.416 -6.359)" fill="#fabe00"/>
    <path id="Trazado_581225" data-name="Trazado 581225" d="M1517.537-355.84c-1.582-4.7-2.879-9.491-4.12-14.295a4.843,4.843,0,0,1,2.458-.035q3.34,6.6,6.677,13.2c.47.932.306,1.5-.89,1.383-1.37-.132-2.772.284-4.118-.248a17.045,17.045,0,0,1,3.461-.106A17.278,17.278,0,0,0,1517.537-355.84Z" transform="translate(-140.312 -6.711)" fill="#dd0418"/>
    <path id="Trazado_581226" data-name="Trazado 581226" d="M1332.866-370.134c-1.242,4.8-2.537,9.59-4.12,14.294a17.275,17.275,0,0,0-3.466-.1,17.039,17.039,0,0,1,3.46.106c-1.543.545-3.138.231-4.7.191-.934-.024-.536-.839-.3-1.323.859-1.788,1.754-3.559,2.651-5.329q2-3.944,4.019-7.878A4.836,4.836,0,0,1,1332.866-370.134Z" transform="translate(-5.89 -6.711)" fill="#dd0418"/>
    <path id="Trazado_581227" data-name="Trazado 581227" d="M1380.815-370.459c.02,4.519.028,9.038.073,13.557.007.756-.252.98-1,1.017-3.819.191-3.806.214-3.243-3.606.517-3.507,1-7.017,1.505-10.526.039-.273-.025-.6.322-.744C1379.209-370.343,1380.07-370.85,1380.815-370.459Z" transform="translate(-43.335 -6.393)" fill="#dd0418"/>
    <path id="Trazado_581228" data-name="Trazado 581228" d="M1479.691-370.761c.808,1.944.745,4.05,1.1,6.077.445,2.533.688,5.1,1.121,7.637.166.969-.111,1.149-1.011,1.165-3.621.062-3.628.089-3.618-3.5.01-3.693.039-7.385.06-11.078C1478.089-370.85,1478.949-370.342,1479.691-370.761Z" transform="translate(-114.743 -6.393)" fill="#dd0418"/>
    <path id="Trazado_581229" data-name="Trazado 581229" d="M1351.469-356.309c1.251-4.79,2.508-9.578,4.136-14.259.76.3,1.595-.117,2.348.247q-.787,7.1-2.017,14.133C1354.443-356.079,1352.942-355.667,1351.469-356.309Z" transform="translate(-25.715 -6.529)" fill="#f9be00"/>
    <path id="Trazado_581230" data-name="Trazado 581230" d="M1497.437-356.184q-1.227-7.036-2.017-14.133c.753-.364,1.588.047,2.349-.246,1.337,3.459,2.1,7.091,3.19,10.624.37,1.194.636,2.421.949,3.632C1500.435-355.661,1498.932-356.077,1497.437-356.184Z" transform="translate(-127.577 -6.533)" fill="#f9be00"/>
    <path id="Trazado_581231" data-name="Trazado 581231" d="M1323.775-180.909c-.527-.289-.26-.786-.261-1.172-.021-5.793.007-11.587-.035-17.38-.007-.977.194-1.327,1.261-1.325q31.186.049,62.372.017c.73,0,1.275-.055,1.265,1.014-.051,6.037-.023,12.073-.03,18.11,0,.264.121.6-.268.735-.388-.308-.844-.169-1.268-.169q-30.883-.011-61.768,0C1324.62-181.079,1324.163-181.218,1323.775-180.909Z" transform="translate(-5.886 -126.67)" fill="#f9d60b"/>
    <path id="Trazado_581232" data-name="Trazado 581232" d="M1428.422-311.768c1.03.294,2.651-.729,2.507,1.545-.148,2.328-.892,3.5-2.593,3.479-1.681-.025-2.413-1.192-2.5-3.562C1425.747-312.769,1427.612-311.249,1428.422-311.768Z" transform="translate(-78.337 -48.137)" fill="#fa411c"/>
    <path id="Trazado_581233" data-name="Trazado 581233" d="M1326.007-311.732c.969.337,2.691-.817,2.531,1.572-.156,2.33-.885,3.485-2.6,3.44-1.628-.043-2.3-1.187-2.459-3.45C1323.31-312.6,1325.068-311.37,1326.007-311.732Z" transform="translate(-5.904 -48.163)" fill="#fc411c"/>
    <path id="Trazado_581234" data-name="Trazado 581234" d="M1403.115-311.658c.861.25,2.538-.829,2.359,1.538-.174,2.287-.908,3.468-2.593,3.433-1.629-.033-2.429-1.152-2.431-3.4C1400.45-311.658,1400.45-311.658,1403.115-311.658Z" transform="translate(-60.376 -48.19)" fill="#fbd80c"/>
    <path id="Trazado_581235" data-name="Trazado 581235" d="M1454.033-311.579c2.926.036,2.474-.3,2.5,1.608.032,2.23-.819,3.353-2.459,3.365-1.673.012-2.544-1.156-2.51-3.475C1451.592-311.848,1451.158-311.549,1454.033-311.579Z" transform="translate(-96.539 -48.269)" fill="#fbd80c"/>
    <path id="Trazado_581236" data-name="Trazado 581236" d="M1530.964-311.591c2.72.034,2.39-.3,2.409,1.6.022,2.234-.846,3.378-2.5,3.373s-2.5-1.126-2.474-3.379C1528.425-311.9,1528.06-311.555,1530.964-311.591Z" transform="translate(-150.913 -48.259)" fill="#fc411c"/>
    <path id="Trazado_581237" data-name="Trazado 581237" d="M1480-311.65c.842.24,2.454-.779,2.3,1.5-.157,2.312-.9,3.5-2.586,3.472-1.646-.025-2.457-1.13-2.427-3.41C1477.308-311.965,1476.987-311.614,1480-311.65Z" transform="translate(-114.744 -48.201)" fill="#fb411c"/>
    <path id="Trazado_581238" data-name="Trazado 581238" d="M1377.325-311.595c2.672.035,2.4-.313,2.421,1.593.022,2.256-.812,3.371-2.464,3.375-1.683,0-2.541-1.168-2.509-3.51C1374.8-311.885,1374.493-311.564,1377.325-311.595Z" transform="translate(-42.206 -48.256)" fill="#fb411c"/>
    <path id="Trazado_581239" data-name="Trazado 581239" d="M1507.612-309.641a2.722,2.722,0,0,1-.907,2.435,2.447,2.447,0,0,1-3.945-1.3,18.014,18.014,0,0,1-.148-2.024c-.125-.946.3-1.194,1.166-1.117.675.061,1.361,0,2.042.013C1507.842-311.607,1507.577-311.9,1507.612-309.641Z" transform="translate(-132.651 -48.215)" fill="#fbd80c"/>
    <path id="Trazado_581240" data-name="Trazado 581240" d="M1351.632-311.685c2.577,0,2.577,0,2.574,1.573,0,2.241-.846,3.39-2.494,3.4-1.687.009-2.39-1.143-2.525-3.512C1349.047-312.692,1350.867-311.288,1351.632-311.685Z" transform="translate(-24.095 -48.163)" fill="#fbd80c"/>
    <path id="Trazado_581241" data-name="Trazado 581241" d="M1389.041-130.385h-64.075v-.144h64.129Z" transform="translate(-6.961 -176.385)" fill="#040300"/>
    <path id="Trazado_581242" data-name="Trazado 581242" d="M1362.633-247.922c.17.824-.241,1.083-1.131,1.06a3.877,3.877,0,0,1-3.858-4.078c.02-.7.251-.9.939-.925A3.815,3.815,0,0,1,1362.633-247.922Z" transform="translate(-30.083 -90.523)" fill="#32b900"/>
    <path id="Trazado_581243" data-name="Trazado 581243" d="M1324.568-133.645c.416-.506.992-.31,1.5-.311q30.651-.014,61.3,0c.51,0,1.086-.194,1.5.31-.385.031-.77.089-1.155.089q-31,.007-61.994,0C1325.338-133.556,1324.953-133.614,1324.568-133.645Z" transform="translate(-6.68 -173.935)" fill="#feea0c"/>
    <path id="Trazado_581244" data-name="Trazado 581244" d="M1387.228-246.892a3.845,3.845,0,0,1-3.9-4.24c.052-.563.251-.71.787-.75a3.871,3.871,0,0,1,4.206,3.682C1388.4-247.262,1388.248-246.636,1387.228-246.892Z" transform="translate(-48.249 -90.505)" fill="#77d30c"/>
    <path id="Trazado_581245" data-name="Trazado 581245" d="M1350.746-226.033a3.842,3.842,0,0,1,3.7,4.267.708.708,0,0,1-.72.714,3.938,3.938,0,0,1-4.259-3.492C1349.386-225.609,1349.605-226.29,1350.746-226.033Z" transform="translate(-24.289 -108.766)" fill="#025802"/>
    <path id="Trazado_581246" data-name="Trazado 581246" d="M1379.6-222.219c.243,1.141-.481,1.277-1.449,1.124a4.063,4.063,0,0,1-3.5-3.565c-.126-.93.054-1.44,1.189-1.4A3.609,3.609,0,0,1,1379.6-222.219Z" transform="translate(-42.096 -108.782)" fill="#007f00"/>
    <path id="Trazado_581247" data-name="Trazado 581247" d="M1403.119-221.623a3.015,3.015,0,0,1-2.411-1.654c-.551-.908-.989-2.179-.308-2.84.732-.711,2.026-.308,2.97.281a3.732,3.732,0,0,1,1.75,2.731c.258,1.736.013,1.935-1.779,1.516.281-.333.668-.1,1.146-.229C1403.931-221.716,1403.495-221.911,1403.119-221.623Z" transform="translate(-60.093 -108.477)" fill="#32ba00"/>
    <path id="Trazado_581248" data-name="Trazado 581248" d="M1498.457-257.374c0-.533-.04-1.07.01-1.6a1.155,1.155,0,0,1,1.25-1.15,1.084,1.084,0,0,1,1.164,1.068c.073,1.013.058,2.033.082,3.05.028,1.173-.863.764-1.456.831-.641.073-1.176-.013-1.078-.891a11.9,11.9,0,0,0,.008-1.308Z" transform="translate(-129.698 -84.682)" fill="#f5401c"/>
    <path id="Trazado_581249" data-name="Trazado 581249" d="M1481.463-257.386c0-.484-.021-.969.005-1.451a1.177,1.177,0,0,1,1.275-1.272,1.122,1.122,0,0,1,1.159,1.226c.036.967-.024,1.938.039,2.9s-.59.846-1.147.8c-.537-.043-1.377.357-1.34-.754.016-.483,0-.968,0-1.452Z" transform="translate(-117.693 -84.691)" fill="#f86335"/>
    <path id="Trazado_581250" data-name="Trazado 581250" d="M1466.869-257.159c-.312.537.614,1.606-.578,1.959-1.412.417-1.879,0-1.882-1.489,0-.676,0-1.352.007-2.027.013-.846.386-1.422,1.291-1.4.837.025,1.146.6,1.161,1.375C1466.876-258.255,1466.869-257.772,1466.869-257.159Z" transform="translate(-105.632 -84.689)" fill="#f88500"/>
    <path id="Trazado_581251" data-name="Trazado 581251" d="M1425.577-245.708c.525.472.146,1.12.354,1.68.412.2.234-.788.443-.394.834,1.574,2.137.573,3.194.626.557.028.368-.789.372-1.24a67.179,67.179,0,0,1,.3-7.358v8.4h.285q0-3.531,0-7.063c0-1.957,0-1.958,1.976-1.964a2.023,2.023,0,0,0,1.17-.252h-2.9c1.23-.576,2.353.1,3-.531.682-.658.092-1.772.323-2.658.034-.129.162-.233.246-.349a5.358,5.358,0,0,1,.05.572c-.018,1.055.315,2.34-.17,3.1s-1.864.181-2.842.294c-.287.033-.6-.008-.6.42q.3.136.006.284c-.031,2.559-.049,5.118-.1,7.676-.01.458.2.96-.168,1.38l-.221,0c-1.4,0-2.8.006-4.2,0l-.221-.006A11.39,11.39,0,0,1,1425.577-245.708Z" transform="translate(-78.155 -87.024)" fill="#f3f5f6"/>
    <path id="Trazado_581252" data-name="Trazado 581252" d="M1426.4-356.372c-.156.053-.273.02-.327-.15-.3-2.943-.1-5.893-.112-8.84a32.284,32.284,0,0,1,.134-5.778l.006-.006a14.531,14.531,0,0,1,4.643,0l.006.006a6.981,6.981,0,0,1,.141,2.58c-.056,4.01.181,8.022-.117,12.029l0,0C1429.326-356.221,1427.853-356.524,1426.4-356.372Z" transform="translate(-78.381 -5.988)" fill="#e80419"/>
    <path id="Trazado_581253" data-name="Trazado 581253" d="M1332.5-263.81c.529-.468.3-1.094.3-1.648.016-6.027,0-12.054.02-18.082,0-.529-.215-1.153.545-1.749a23.42,23.42,0,0,0-.251,5.559c-.035,4.52-.012,9.041-.012,13.561,0,2.415,0,2.415,2.453,2.317l.179.329a4.024,4.024,0,0,1-3.243,0Z" transform="translate(-12.29 -66.875)" fill="#f4f6f7"/>
    <path id="Trazado_581254" data-name="Trazado 581254" d="M1329.729-262.722v-21.7h.145v21.756Z" transform="translate(-10.332 -67.487)" fill="#050505"/>
    <ellipse id="Elipse_7333" data-name="Elipse 7333" cx="0.075" cy="15.393" rx="0.075" ry="15.393" transform="translate(1380.491 -356.425)" fill="#050505"/>
    <path id="Trazado_581255" data-name="Trazado 581255" d="M1472.759-210.894q-9.46,0-18.92,0a.465.465,0,0,1-.269-.055c-.047-.037-.032-.153-.045-.234a1.171,1.171,0,0,1,.7-.141h17.9a1.13,1.13,0,0,1,.7.142Z" transform="translate(-97.932 -119.21)" fill="#feb100"/>
    <path id="Trazado_581256" data-name="Trazado 581256" d="M1472.817-211.808h-19.292c.432-.471,1-.282,1.513-.283q8.74-.019,17.481-.008.147-.214.294,0Z" transform="translate(-97.932 -118.588)" fill="#faa500"/>
    <path id="Trazado_581257" data-name="Trazado 581257" d="M1442.517-356.066q-.012-7.3-.023-14.609c.274.213.218.521.218.8q0,6.491,0,12.983A1.046,1.046,0,0,1,1442.517-356.066Z" transform="translate(-90.126 -6.453)" fill="#cb0315"/>
    <path id="Trazado_581258" data-name="Trazado 581258" d="M1425.954-370.675q-.011,7.309-.022,14.618c-.372-.531-.187-1.133-.19-1.7q-.027-5.765,0-11.53C1425.744-369.75,1425.556-370.264,1425.954-370.675Z" transform="translate(-78.241 -6.453)" fill="#cb0315"/>
    <path id="Trazado_581259" data-name="Trazado 581259" d="M1518.826-242.87c.536.349.233.879.248,1.314.1,2.863-.125,5.731.127,8.593-.582-.3-.37-.847-.374-1.3-.02-2.189-.074-4.38.017-6.565.049-1.184-.363-1.586-1.5-1.456-.566.065-1.145.011-2.1.011C1516.654-242.863,1517.842-242.166,1518.826-242.87Z" transform="translate(-141.605 -96.891)" fill="#050505"/>
    <path id="Trazado_581260" data-name="Trazado 581260" d="M1443.4-241.529l-.006-.284h3.279c-.132.162-.174.261-.222.264-2.433.149-2.433.149-2.433,2.547v6.225h-.292c0-2.418.011-4.837-.009-7.255C1443.711-240.541,1443.912-241.119,1443.4-241.529Z" transform="translate(-90.761 -97.639)" fill="#050505"/>
    <path id="Trazado_581261" data-name="Trazado 581261" d="M1502.319-322.939c.133-.2.036-.781.249-.611,1.334,1.063,2.835.228,4.222.489.04.08.129.219.114.231C1506.3-322.337,1503.094-322.42,1502.319-322.939Z" transform="translate(-132.459 -39.778)" fill="#fec800"/>
    <path id="Trazado_581262" data-name="Trazado 581262" d="M1351.192-323.062c1.386-.264,2.887.575,4.218-.492.21-.168.116.414.249.613-.771.518-3.976.6-4.579.11C1351.065-322.844,1351.153-322.982,1351.192-323.062Z" transform="translate(-25.439 -39.776)" fill="#fec800"/>
    <path id="Trazado_581263" data-name="Trazado 581263" d="M1332.5-210.843h3.243l.182.192A3.641,3.641,0,0,1,1332.5-210.843Z" transform="translate(-12.29 -119.553)" fill="#f7f9fa"/>
    <ellipse id="Elipse_7334" data-name="Elipse 7334" cx="0.077" cy="4.448" rx="0.077" ry="4.448" transform="translate(1315.638 -364.966)" fill="#050505"/>
    <path id="Trazado_581264" data-name="Trazado 581264" d="M1551.726-318.359v-6.319h.146v6.331Z" transform="translate(-167.421 -39.002)" fill="#050505"/>
    <path id="Trazado_581265" data-name="Trazado 581265" d="M1518.739-227.388h-.294c0-1.687-.01-3.374.006-5.061,0-.465-.151-.977.274-1.363A54.606,54.606,0,0,1,1518.739-227.388Z" transform="translate(-143.858 -103.299)" fill="#feb100"/>
    <path id="Trazado_581266" data-name="Trazado 581266" d="M1431.24-210.232a10.288,10.288,0,0,1-4.647,0l.115-.058a27.3,27.3,0,0,1,4.414,0Z" transform="translate(-78.874 -119.88)" fill="#f3f5f6"/>
    <path id="Trazado_581267" data-name="Trazado 581267" d="M1457.147-370.707c-1.546-.168-3.138.356-4.65-.313,1.344-.03,2.689-.065,4.033-.086C1456.805-371.109,1457.134-371.135,1457.147-370.707Z" transform="translate(-97.204 -6.148)" fill="#fecc00"/>
    <path id="Trazado_581268" data-name="Trazado 581268" d="M1528.662-209.089l2.261.011A1.271,1.271,0,0,1,1528.662-209.089Z" transform="translate(-151.1 -120.795)" fill="#060502"/>
    <path id="Trazado_581269" data-name="Trazado 581269" d="M1405.313-371.236c-1.512.67-3.1.145-4.649.313.37-.828,1.089-.348,1.63-.38C1403.3-371.363,1404.306-371.267,1405.313-371.236Z" transform="translate(-60.526 -5.932)" fill="#fecc00"/>
    <path id="Trazado_581270" data-name="Trazado 581270" d="M1431.236-371.293h-4.643A11.006,11.006,0,0,1,1431.236-371.293Z" transform="translate(-78.874 -5.841)" fill="#cb0315"/>
    <path id="Trazado_581271" data-name="Trazado 581271" d="M1427.613-320.675a19.153,19.153,0,0,1,4.377-.162C1430.548-320.333,1429.075-320.648,1427.613-320.675Z" transform="translate(-79.596 -41.685)" fill="#cb0315"/>
    <path id="Trazado_581272" data-name="Trazado 581272" d="M1515.875-370.9l-2.458.035A1.88,1.88,0,0,1,1515.875-370.9Z" transform="translate(-140.312 -5.985)" fill="#ef0419"/>
    <path id="Trazado_581273" data-name="Trazado 581273" d="M1349.7-370.86l-2.458-.035A1.879,1.879,0,0,1,1349.7-370.86Z" transform="translate(-22.725 -5.985)" fill="#ef0419"/>
    <path id="Trazado_581274" data-name="Trazado 581274" d="M1497.769-371.11c-.741.489-1.57.132-2.349.246C1496.127-371.675,1496.966-371.218,1497.769-371.11Z" transform="translate(-127.577 -5.986)" fill="#fece00"/>
    <path id="Trazado_581275" data-name="Trazado 581275" d="M1479.838-371.061c-.719.6-1.569.17-2.347.3C1478.19-371.505,1479.046-371.038,1479.838-371.061Z" transform="translate(-114.891 -6.093)" fill="#ee0419"/>
    <path id="Trazado_581276" data-name="Trazado 581276" d="M1385.894-370.759c-.779-.132-1.629.3-2.348-.3C1384.339-371.038,1385.194-371.505,1385.894-370.759Z" transform="translate(-48.413 -6.093)" fill="#ee0419"/>
    <path id="Trazado_581277" data-name="Trazado 581277" d="M1367.964-370.864c-.779-.115-1.608.245-2.348-.247C1366.418-371.217,1367.258-371.676,1367.964-370.864Z" transform="translate(-35.726 -5.986)" fill="#fece00"/>
    <path id="Trazado_581278" data-name="Trazado 581278" d="M1410.541-210.534c.44-.451.942-.3,1.451-.073l-1.23.106-.115.014Z" transform="translate(-67.516 -119.566)" fill="#33c700"/>
    <path id="Trazado_581279" data-name="Trazado 581279" d="M1467.63-223.766c-2.183,0-4.367-.043-6.548.02-.934.027-1.039-.428-.974-1.148.056-.62-.257-1.379.9-1.367q6.548.063,13.1,0c1.091-.013.953.609.987,1.3.039.793-.061,1.257-1.064,1.222C1471.9-223.818,1469.764-223.766,1467.63-223.766Z" transform="translate(-102.579 -108.639)" fill="#090600"/>
    <path id="Trazado_581280" data-name="Trazado 581280" d="M1460.518-228.543c.286-.358.691-.29,1.071-.29q6.381,0,12.762,0c.38,0,.785-.068,1.071.291a46.412,46.412,0,0,1-6.8.123A68.155,68.155,0,0,1,1460.518-228.543Z" transform="translate(-102.88 -106.82)" fill="#f9a500"/>
    <path id="Trazado_581281" data-name="Trazado 581281" d="M1460.518-227.829h14.9c-.289.354-.695.283-1.073.283q-6.379,0-12.757,0C1461.212-227.546,1460.807-227.475,1460.518-227.829Z" transform="translate(-102.88 -107.534)" fill="#feb300"/>
    <path id="Trazado_581282" data-name="Trazado 581282" d="M1461.746-216.694h14.1v.145h-14.163Z" transform="translate(-103.709 -115.413)" fill="#fead00"/>
    <path id="Trazado_581283" data-name="Trazado 581283" d="M1458.651-224.6a2.778,2.778,0,0,1,.008,1.769A2.727,2.727,0,0,1,1458.651-224.6Z" transform="translate(-101.457 -109.815)" fill="#feb300"/>
    <path id="Trazado_581284" data-name="Trazado 581284" d="M1527.509-321.765c.438-.741,1.1-.191,1.645-.247a7.881,7.881,0,0,1,2.994.256h-4.633Z" transform="translate(-150.284 -40.786)" fill="#e90419"/>
    <path id="Trazado_581285" data-name="Trazado 581285" d="M1330.323-321.549h-4.633c1.549-.1,3.11-.653,4.639-.009Z" transform="translate(-7.473 -40.993)" fill="#e90419"/>
    <path id="Trazado_581286" data-name="Trazado 581286" d="M1388.994-180.141h-63.119a2.216,2.216,0,0,1-.288-1.541q-.01-7.661,0-15.323c0-1.76.068-1.834,1.786-1.831,14.254.025,28.508-.024,42.761.025,5.739.02,11.479,0,17.219-.025,1.914-.007,1.931.02,1.933,1.977q.007,7.515,0,15.03A2.462,2.462,0,0,1,1388.994-180.141Z" transform="translate(-7.394 -128.05)" fill="#feda0c"/>
    <path id="Trazado_581287" data-name="Trazado 581287" d="M1388.653-180.53c0-5.644-.027-11.287.023-16.931.01-1.124-.271-1.56-1.464-1.5-1.942.1-3.892.025-5.838.025h-53.963c-1.876,0-1.877,0-1.878,1.914q0,8.246,0,16.493h-.293a1.343,1.343,0,0,1-.141-.844q0-8.587,0-17.175a1.465,1.465,0,0,1,.116-.709,2.893,2.893,0,0,1,1.295-.11q30.564-.007,61.128,0a3.948,3.948,0,0,1,1.3.082,1.139,1.139,0,0,1,.147.7q0,8.68,0,17.359a1.173,1.173,0,0,1-.142.7Z" transform="translate(-7.053 -127.66)" fill="#fbd70b"/>
    <path id="Trazado_581288" data-name="Trazado 581288" d="M1388.613-199.613h-63.7q-.143.216-.283,0c.436-.468,1.005-.275,1.516-.275q30.619-.014,61.237,0c.511,0,1.081-.193,1.516.275C1388.8-199.466,1388.708-199.472,1388.613-199.613Z" transform="translate(-6.721 -127.276)" fill="#fee30c"/>
    <path id="Trazado_581289" data-name="Trazado 581289" d="M1324.56-198.854l.283,0q0,9.35,0,18.7c-.438-.384-.283-.9-.284-1.368Q1324.548-190.187,1324.56-198.854Z" transform="translate(-6.654 -128.037)" fill="#fedf0c"/>
    <path id="Trazado_581290" data-name="Trazado 581290" d="M1543.472-198.852l.283,0q0,8.667,0,17.333c0,.467.154.984-.284,1.368Q1543.472-189.5,1543.472-198.852Z" transform="translate(-161.58 -128.037)" fill="#fedf0c"/>
    <path id="Trazado_581291" data-name="Trazado 581291" d="M1431.4-210.747h-4.415A8.923,8.923,0,0,1,1431.4-210.747Z" transform="translate(-79.15 -119.425)" fill="#f7f9fa"/>
    <path id="Trazado_581292" data-name="Trazado 581292" d="M1427.509-362.823c0-1.941.025-3.882-.011-5.822-.015-.8.241-1.136,1.08-1.122,3.741.063,2.964-.383,3.011,2.808.048,3.25-.031,6.5.033,9.752.022,1.116-.261,1.545-1.456,1.5-3.127-.116-2.61.341-2.653-2.6C1427.491-359.814,1427.509-361.319,1427.509-362.823Z" transform="translate(-79.514 -7.096)" fill="#dd0418"/>
    <path id="Trazado_581293" data-name="Trazado 581293" d="M1422.844-189.451c.336.034.671.09,1.007.1,1.4.032,1.9.754,1.473,2.079-.233.725-.818.415-1.215.39-.871-.054-1.28.174-1.412,1.126a4.737,4.737,0,0,1-2.832,3.647c-2.216,1.11-4.392,2.306-6.652,3.318-4.675,2.092-11.974-.2-12.763-7.211a12.77,12.77,0,0,1-.038-2.041,2.458,2.458,0,0,1,2.452-2.56,8.939,8.939,0,0,1,7.651,2.832c.575.639.874.737,1.337-.052a18.02,18.02,0,0,1,1.356-1.9,5.235,5.235,0,0,1,5.988-1.847,1.565,1.565,0,0,0,2.105-.506,8.756,8.756,0,0,1,.921-.934,1.519,1.519,0,0,1,2.575.631c.128.383-.181.506-.353.7-.48.543-.982,1.065-1.476,1.6C1422.952-189.868,1422.753-189.689,1422.844-189.451Z" transform="translate(-60.332 -131.831)"/>
    <path id="Trazado_581294" data-name="Trazado 581294" d="M1476.251-181.2c-.124.009-.346.052-.355.023-.146-.431.252-.483.482-.655.592.462,1.374.137,2.324.51Z" transform="translate(-113.74 -140.084)" fill="#f7e50c"/>
    <path id="Trazado_581295" data-name="Trazado 581295" d="M1486.651-176.369a2.629,2.629,0,0,1,.017-1.761A2.8,2.8,0,0,1,1486.651-176.369Z" transform="translate(-121.27 -142.702)" fill="#fee20c"/>
    <path id="Trazado_581296" data-name="Trazado 581296" d="M1409.858-174.824c4.075-.227,7.1,2.523,7.02,6.363-.012.6-.065.96-.833,1.016a6.084,6.084,0,0,1-6.468-5.358C1409.906-173.444,1409.231-174.225,1409.858-174.824Z" transform="translate(-66.833 -145.032)" fill="#78d50d"/>
    <path id="Trazado_581297" data-name="Trazado 581297" d="M1446.879-179.249c1.558.013,2.509.617,2.857,1.884a2.422,2.422,0,0,1-1.263,2.959c-1.744.943-3.535,1.8-5.31,2.685-.239.119-.683.362-.7-.031-.046-1.063-.785-2.136-.023-3.2s1.511-2.131,2.282-3.186A2.529,2.529,0,0,1,1446.879-179.249Z" transform="translate(-89.845 -141.908)" fill="#fd6436"/>
    <path id="Trazado_581298" data-name="Trazado 581298" d="M1409.293-174.792c-.105.672.258,1.409-.282,2.021C1409-173.46,1408.344-174.238,1409.293-174.792Z" transform="translate(-66.268 -145.064)" fill="#80e20d"/>
  </g>
</svg>
