<svg xmlns="http://www.w3.org/2000/svg" width="86.865" height="74.771" viewBox="0 0 86.865 74.771">
  <g id="Grupo_842616" data-name="Grupo 842616" transform="translate(-1239.389 389.189)">
    <path id="Trazado_572346" data-name="Trazado 572346" d="M1281.932-317.3c-.245,1.164-1.1,1.244-2.076,1.239-3.9-.02-7.8,0-11.7-.011-.786,0-1.526-.1-1.926.889-.279.691-1.043.769-1.754.769q-11.449-.008-22.9,0a1.908,1.908,0,0,1-2.18-2.173q.012-16.2-.005-32.394c0-1.575.736-2.282,2.27-2.265,1.018.011,2.035.005,3.053,0,.377,0,.847.1.786-.544q-.281-.216.059-.318l.354-.346a9.751,9.751,0,0,1,3.8-.5c2.582.026,5.165.017,7.748,0a6.15,6.15,0,0,1,2.625.487,1.551,1.551,0,0,0,1.93,1.25,14.522,14.522,0,0,1,2.709-.013,1.76,1.76,0,0,1,1.866,1.6,1.437,1.437,0,0,0,2.459.836c.513-.431,1-.887,1.614-1.428a10.831,10.831,0,0,1-4.065-6.129c-.116-.534-.459-.517-.841-.626-4.091-1.169-5.795-3.973-4.806-8.065a2.341,2.341,0,0,0-.319-1.873,6.168,6.168,0,0,1,.433-7.007,2.285,2.285,0,0,0,.421-1.974,6.391,6.391,0,0,1,4.654-7.587,1.8,1.8,0,0,0,1.334-1.248,6.45,6.45,0,0,1,10.1-3.1,1.111,1.111,0,0,0,1.568.03c3.966-2.712,8.382-1.315,10.171,3.19a1.411,1.411,0,0,0,1.142,1c3.944.991,5.876,4.032,5.092,8.026a1.673,1.673,0,0,0,.39,1.5,6.23,6.23,0,0,1,.445,7.294,2.325,2.325,0,0,0-.187,1.9c.905,3.9-.888,6.91-4.676,7.868-.516.131-.915.178-1.067.822a10.066,10.066,0,0,1-3.908,5.827c1.234,2.4,3.43,1.893,5.466,1.946.907.024.8-.523.826-1.1.134-2.87.274-2.995,3.212-3q11.7,0,23.408,0c2.354,0,2.836.412,2.728,2.755-.056,1.218.771,2.826-1.11,3.5a1.085,1.085,0,0,1-1.535-.65c-.347-.754.081-1.655-.459-2.371a3.316,3.316,0,0,0-.427-.251c-1.924-.194-3.846-.031-5.765-.08-.889-.022-1.4.365-1.408,1.29-.015,2.94-.027,5.879.007,8.818a1.05,1.05,0,0,0,.475.852c2.12.512,4.261.166,6.39.2.711.011.971-.415.976-1.089a8.91,8.91,0,0,1,.106-2.188c.188-.725.48-1.41,1.458-1.248,1.678.381,1.407,1.731,1.3,2.859-.152,1.608.089,2.542,2.064,2.286,1.253-.163,2,.647,2,1.962q.01,8.9,0,17.8c0,1.679-1.074,2.018-2.5,2.013-6.159-.02-12.317-.008-18.476-.008-5.933,0-11.866-.011-17.8.009-1.022,0-1.943-.045-2.278-1.241-.3-1.161.524-1.4,1.343-1.642.545-.158,1.289.124,1.518-.711.119-4.842.013-9.68.05-14.517a12.913,12.913,0,0,1,.083-2.019,2.7,2.7,0,0,1,2.658-2.172c1.021-.05,1.329-.631,1.323-1.558-.009-1.406-.071-2.816.034-4.217.079-1.062-.389-1.436-1.367-1.391-.931.043-2.035-.206-2.076,1.279-.042,1.518,0,3.037-.025,4.555a4.231,4.231,0,0,1-.3,1.815c-.69,1.431-2.107,1.772-3.534.753-1.372-.98-2.665-2.069-3.959-3.143-.256-.194-.5-.3-.657.121-.084,2.039-.008,4.067-.039,6.1a5.125,5.125,0,0,1-.131,1.51,1.694,1.694,0,0,1-1.853,1.39c-.963-.1-1.3-.823-1.317-1.686-.063-2.648-.039-5.3-.017-7.942a1.228,1.228,0,0,1,.182-.452.669.669,0,0,0-.282.25,5.684,5.684,0,0,1-.442.49,52.4,52.4,0,0,1-4.093,3.279c-1.994,1.4-3.694.56-3.829-1.869-.082-1.464.026-2.935-.045-4.4-.031-.642.38-1.774-.675-1.738-.925.032-.68,1.147-.69,1.83-.042,3.046,0,6.093-.026,9.14-.01,1.1-.085,2.177-1.3,2.706a1.578,1.578,0,0,1-.594.054,1.447,1.447,0,0,1-.558-.214,2.854,2.854,0,0,1-.893-2.59c-.007-4.043.01-8.086-.012-12.129,0-.749.208-1.667-.965-1.816-.993-.126-1.729.035-1.979,1.237a2.406,2.406,0,0,1-1.766,1.663c-3.786.249-7.573.14-11.358.066a3.191,3.191,0,0,1-2.668-2.519c-.863-.64-1.7-1.074-2.326.277-.051,9.634.014,19.261-.031,28.888a1.835,1.835,0,0,0,.167.98,2.2,2.2,0,0,0,1.618.3q8.605.016,17.21,0c1.885,0,2.076-.223,2.1-2.164.037-2.642-.087-5.285.068-7.928a1.571,1.571,0,0,1,1.273-1.309,2.192,2.192,0,0,1,.649-.007,1.676,1.676,0,0,1,.6.229,2.62,2.62,0,0,1,.8,2.3c.037,1.746.049,3.494,0,5.239-.035,1.355.49,1.917,1.882,1.9q5.324-.058,10.648,0c.891.012,1.847-.025,2.353.963A.9.9,0,0,1,1281.932-317.3Z" transform="translate(0)"/>
    <path id="Trazado_572347" data-name="Trazado 572347" d="M1332.517-233.227c-.227-1.137-1.026-1.3-2.026-1.291-3.943.029-7.888-.034-11.83.039-1.2.022-1.55-.332-1.5-1.514.092-2.137.012-4.28.034-6.42a2.011,2.011,0,0,0-.749-1.939.618.618,0,0,1-.161-.409,4.515,4.515,0,0,0-.1-2.166,1.887,1.887,0,0,1-.2-.389.414.414,0,0,1,.114-.4,1.866,1.866,0,0,0,1.108-2.051c-.036-3.554,0-7.108-.026-10.662-.007-.884.018-1.493,1.213-1.472,1.172.021,1.059.7,1.055,1.447-.009,1.862.007,3.724-.006,5.585a1.82,1.82,0,0,0,.953,1.83,1.733,1.733,0,0,0,2.024-.344c1.51-1.174,3.028-2.337,4.542-3.506a.872.872,0,0,1,.261.45c.137,2.322.1,4.647.045,6.964.084-1.981.019-3.954.038-5.928.005-.609-.152-1.25.333-1.77.569,2.258.1,4.554.247,6.828.033.5,0,1.013.01,1.519.013.847.365,1.466,1.281,1.428.9-.037,1.221-.67,1.22-1.512,0-2.364-.012-4.728.015-7.091,0-.407-.238-.914.289-1.211.386,2.681.046,5.366.174,7.986,0-1.949-.015-3.963.01-5.977.007-.58-.237-1.27.489-1.651q2.2,1.7,4.389,3.4a1.818,1.818,0,0,0,2.008.466,1.868,1.868,0,0,0,1.082-1.922c-.02-1.913.042-3.829-.026-5.74-.035-.966.285-1.229,1.239-1.248,3.336-.065,3.335-.1,3.335,3.173,0,.676.008,1.351,0,2.026a6.3,6.3,0,0,1-.121,2.5c-.427.869-1.516.275-2.305.388a2.436,2.436,0,0,0-1.753,1.416c-.439.481-.2,1.063-.2,1.589-.022,4.735,0,9.47-.03,14.205,0,.549.352,1.288-.505,1.6.223.053.476,0,.662.185-.4.613-1.016.291-1.508.281a1.664,1.664,0,0,0-1.853,1.306Z" transform="translate(-50.586 -84.077)" fill="#0592fb"/>
    <path id="Trazado_572348" data-name="Trazado 572348" d="M1460.5-266.617c-1.36.449-1.184,1.577-1.182,2.643.005,2.457,0,2.468-2.493,2.454-1.96-.011-3.919-.054-5.879-.083-.385-3.7-.068-7.408-.174-11.11-.02-.679.326-.872.935-.85,2.47.088,4.945-.167,7.41.138l-.007-.007c.349.89-.063,1.849.248,2.743a1.753,1.753,0,0,0,1.326.789A12.573,12.573,0,0,0,1460.5-266.617Z" transform="translate(-139.613 -76.365)" fill="#f5a86c"/>
    <path id="Trazado_572349" data-name="Trazado 572349" d="M1260.442-283.469a2.3,2.3,0,0,1,1.615-.333q4.817-.005,9.633,0a2.32,2.32,0,0,1,1.621.3c-.019.371-.271.446-.575.447q-5.848.02-11.695,0C1260.745-283.049,1260.477-283.095,1260.442-283.469Z" transform="translate(-13.906 -69.608)"/>
    <path id="Trazado_572350" data-name="Trazado 572350" d="M1259.225-282.858c2.269.592,4.578.222,6.864.226,2,0,4.03.392,6-.254a.717.717,0,0,1,.68.633c-3.8,0-7.6-.036-11.4.024-.734.012-1.67-.513-2.24.589-.126.244-.217-.505-.535-.6A.739.739,0,0,1,1259.225-282.858Z" transform="translate(-12.69 -70.219)" fill="#060606"/>
    <path id="Trazado_572351" data-name="Trazado 572351" d="M1271.716-267.089c.621-.379,1.254-.714,1.461-1.529.123-.479-.358-1.3.494-1.394a9.2,9.2,0,0,1,2.86.058c.586.12.311.879.313,1.348q.029,6.606,0,13.212c0,.876.014,1.7.861,2.222,0,.218.014.435,0,.652a6.485,6.485,0,0,0,.077,1.915c.071.122.134.247.2.373a.442.442,0,0,1-.032.4,2.167,2.167,0,0,0-1.066.793,84.744,84.744,0,0,0-.1,9.1c.01,1.26-.324,1.625-1.6,1.6-5.35-.088-10.7.005-16.054-.056a.561.561,0,0,1-.362-.5c-.118-8.583-.039-17.167-.039-25.75a3.015,3.015,0,0,1,.359-1.633c.532-.607,1.254-.394,1.906-.4,3.383-.028,6.766.005,10.144-.021C1271.4-266.718,1271.635-266.788,1271.716-267.089Z" transform="translate(-12.755 -78.668)" fill="#fdd302"/>
    <path id="Trazado_572352" data-name="Trazado 572352" d="M1339.3-339.989c3.639-.022,7.279-.061,10.918-.056a2.567,2.567,0,0,1,2.6,1.725c.111,4.631.025,9.263.044,13.895a7.207,7.207,0,0,1-6.45,5.772c-1.457.107-2.931-.006-4.4-.019a6.726,6.726,0,0,1-2.975-3.039,1.519,1.519,0,0,1-.157-1.716c.734-.246,1.114.362,1.6.684a5.482,5.482,0,0,0,6.01.047c.485-.363,1.178-.811.867-1.461-.382-.8-1.059-.218-1.592,0a2.729,2.729,0,0,1-1.284.326,3.873,3.873,0,0,0-1.856,0,1.971,1.971,0,0,1-1.291-.332,1.8,1.8,0,0,0-2.455.281c-1.3.312-1.054-.759-1.076-1.348a36.3,36.3,0,0,1,.067-5.754,5.27,5.27,0,0,0,.117-4.651C1337.695-337.306,1337.613-338.914,1339.3-339.989Z" transform="translate(-64.959 -32.462)" fill="#f5a86b"/>
    <path id="Trazado_572353" data-name="Trazado 572353" d="M1345.72-375.553a3.217,3.217,0,0,1,2.7,2.711c-.017.674-.04,1.349.01,2.023a2.562,2.562,0,0,0,.839,3.641,2.475,2.475,0,0,1,.859,1.8,2.9,2.9,0,0,1-.253,2.141c-.723.914-1.206-.3-1.852-.35-1.342-.111-1.845-.842-2.144-2.229-.5-2.329-2.438-3.386-4.635-3.942-.536-.469-1.172-.187-1.75-.192q-5.725-.049-11.449,0c-.521,0-1.11-.261-1.573.225l-2.41,1c-.984-.194-.743-.991-.665-1.569a5.49,5.49,0,0,1,4.006-4.915,3.048,3.048,0,0,0,2.178-2.058c.441-1.14.894-2.524,2.607-2.382a2.366,2.366,0,0,0,3.529-.365,2.6,2.6,0,0,1,1.862-.977,11.782,11.782,0,0,0,2.036.022,3.216,3.216,0,0,1,2.691,2.715c-.055.219-.037-.08-.093.139a3.485,3.485,0,0,0-.057.651c.041-.178.016-.382.2-.505.014,2.124,1.627,2.166,3.105,2.384-.44.363-.971.12-1.45.228C1344.572-375.492,1345.176-375.217,1345.72-375.553Z" transform="translate(-55.435 -5.408)" fill="#685e68"/>
    <path id="Trazado_572354" data-name="Trazado 572354" d="M1403.264-229.176a14.179,14.179,0,0,1,.174,4.414,2.387,2.387,0,0,0,1.619,2.633c-.007.236.137.336.345.381,1.177.031,2.351.028,3.522,0,.2-.043.348-.141.345-.376a2.66,2.66,0,0,0,1.748-1.723c.3-.052.359-.279.379-.539.016-1.024.052-2.045,0-3.058-.075-1.343.54-1.753,1.82-1.77,3.571-.048,3.617-.046,3.616,3.473,0,3.5-.013,7.007.008,10.51.006,1.1-.393,1.745-1.542,1.756-4.746.044-9.493.072-14.239-.017a1.488,1.488,0,0,1-.936-.354,2.445,2.445,0,0,1-.459-1.582q-.07-5.955,0-11.91a3.075,3.075,0,0,1,.266-1.3c.687-.878,1.625-.655,2.431-.372.786.276.539,1.127.553,1.767a6.721,6.721,0,0,1-.039,1.628C1403.129-226.8,1402.548-228.061,1403.264-229.176Z" transform="translate(-105.844 -105.639)" fill="#fdd1a3"/>
    <path id="Trazado_572355" data-name="Trazado 572355" d="M1468.766-213.5c-1.9.659-3.853.236-5.777.276-3.771.08-3.781.023-3.77-3.709.013-4.174.044-8.347.068-12.52a72.7,72.7,0,0,1,9.226-.09l-.015-.014c.169,4.746.02,9.493.083,14.239C1468.59-214.707,1468.395-214.068,1468.766-213.5Z" transform="translate(-145.207 -105.389)" fill="#febc85"/>
    <path id="Trazado_572356" data-name="Trazado 572356" d="M1252.274-266.024q0,12.777-.012,25.554c0,.647.251,1.367-.328,1.927l-.319.072c-3.347.208-3.4.148-3.414-3.181-.031-9.066.074-18.133-.053-27.2a.722.722,0,0,1,.029-.607,6.75,6.75,0,0,1,3.041.041,2.441,2.441,0,0,0,1.814,2.669.828.828,0,0,1-.438.445A2.552,2.552,0,0,0,1252.274-266.024Z" transform="translate(-5.751 -78.987)" fill="#f9c500"/>
    <path id="Trazado_572357" data-name="Trazado 572357" d="M1321.512-379.645a3.564,3.564,0,0,0-2.29,2.72,2.32,2.32,0,0,1-2.214,2.072c-2.525.44-4.684,3.937-3.623,6.132a7.7,7.7,0,0,0-2.4,4.081c-.368.073-.474.4-.652.663-.465.191-.929.385-1.4.574-1.58.642-1.7.539-1.781-1.137a3.629,3.629,0,0,1,1.316-3.154,1.8,1.8,0,0,0,.561-2.358c-1.084-3.036.421-5.44,3.652-5.753,1.218-.118,1.6-.56,1.74-1.741a3.591,3.591,0,0,1,2.981-3.432,12.378,12.378,0,0,0,2.034.008A2.762,2.762,0,0,1,1321.512-379.645Z" transform="translate(-44.76 -5.424)" fill="#544d55"/>
    <path id="Trazado_572358" data-name="Trazado 572358" d="M1330.631-331.334c0,2.167.025,4.335-.008,6.5-.011.744.159.777.634.283a.686.686,0,0,1,.046,1.05c.169,2.123,1.97,3.183,3.063,4.7-3.989.757-8.328-3.472-8.189-7.485.117-3.38.15-6.773-.026-10.148a3.353,3.353,0,0,1,3.813-3.764,16.173,16.173,0,0,0,1.685.078,6.2,6.2,0,0,0-1.011,4.309C1328.885-334.274,1328.883-333.1,1330.631-331.334Z" transform="translate(-57.306 -32.34)" fill="#e99a57"/>
    <path id="Trazado_572359" data-name="Trazado 572359" d="M1412.521-267.366c2.3.353,4.638,1.133,6.735-.639.448-1.8-.1-3.658.3-5.462l-.006.006a3.125,3.125,0,0,1,1.157-.142c1.085-.154,1.491.243,1.439,1.381-.161,3.524.2,7.06-.2,10.582l-9.823.023c-.965-1.681-.59-3.455-.332-5.21A.6.6,0,0,1,1412.521-267.366Z" transform="translate(-113.69 -76.329)" fill="#febc85"/>
    <path id="Trazado_572360" data-name="Trazado 572360" d="M1395.254-229.087q0,7.462,0,14.924a1.435,1.435,0,0,0,.533.292c5.294.138,10.589-.033,15.883.086a1.7,1.7,0,0,1,.535.32c-.169.443-.558.292-.863.292-5.985,0-11.971-.008-17.956,0-.739,0-1.28.014-1.266-1.023.069-5.079.07-10.158.1-15.237a7.941,7.941,0,0,1,2.507-.163,1.7,1.7,0,0,1,.5.067.306.306,0,0,1,.1.287C1395.306-229.138,1395.281-229.087,1395.254-229.087Z" transform="translate(-100.885 -105.406)" fill="#febc85"/>
    <path id="Trazado_572361" data-name="Trazado 572361" d="M1407.271-267.416c-.88,1.865-.181,3.839-.392,5.75-3.063.186-3.063.186-3.063-2.824a39.354,39.354,0,0,1,.081-5.9c.172-1.125-1.528-3.408,1.371-3.322,2.753.081.968,2.26,1.309,3.427C1406.847-269.355,1406.553-268.266,1407.271-267.416Z" transform="translate(-108.44 -76.279)" fill="#f4a76b"/>
    <path id="Trazado_572362" data-name="Trazado 572362" d="M1347.662-269h4.413c.587.72.22,1.588.371,2.376-.447,1.035-1.613,1.306-2.268,2.141-.383.487-.586-.078-.89-.289a6.705,6.705,0,0,1-1.667-1.371A3.233,3.233,0,0,1,1347.662-269Z" transform="translate(-71.283 -79.391)" fill="#e89a57"/>
    <path id="Trazado_572363" data-name="Trazado 572363" d="M1272.566-275.96l6.443,0a2.048,2.048,0,0,1,0,2.3l-6.114.007C1271.9-274.3,1271.972-275.09,1272.566-275.96Z" transform="translate(-21.628 -74.791)" fill="#f4a86b"/>
    <path id="Trazado_572364" data-name="Trazado 572364" d="M1312.73-315.8a2.9,2.9,0,0,1-2.326-2.014,24.731,24.731,0,0,0-.065-2.7,2.81,2.81,0,0,1,2.393-2.309A31.1,31.1,0,0,1,1312.73-315.8Z" transform="translate(-46.866 -43.836)" fill="#e69856"/>
    <path id="Trazado_572365" data-name="Trazado 572365" d="M1416.111-175.567H1378.7v-.17h37.485Z" transform="translate(-92.021 -140.995)" fill="#030303"/>
    <path id="Trazado_572366" data-name="Trazado 572366" d="M1393.933-318.454a2.8,2.8,0,0,1-2.391,2.661,15.493,15.493,0,0,1,0-7c1.2.516,2.345,1.078,2.388,2.64A1.778,1.778,0,0,0,1393.933-318.454Z" transform="translate(-100.239 -43.856)" fill="#e69856"/>
    <path id="Trazado_572367" data-name="Trazado 572367" d="M1368.551-261.54l-2.953-2.2c1.4-1.666,1.4-1.666,1.736-5.313a2.192,2.192,0,0,1,1.589,1.016c-.318,1.891.22,3.81-.182,5.7C1368.683-262.071,1368.75-261.776,1368.551-261.54Z" transform="translate(-83.367 -79.353)" fill="#007ff6"/>
    <path id="Trazado_572368" data-name="Trazado 572368" d="M1334.583-268.316c.3-.326.66-.727,1.1-.589.464.145.236.68.234,1.033-.008,1.394-.166,2.8,1.289,3.708.536.335.094.658-.209.89-.66.5-1.333.988-2,1.481a.8.8,0,0,1-.628-.708C1334.343-264.442,1334.024-266.4,1334.583-268.316Z" transform="translate(-62.663 -79.435)" fill="#007ef3"/>
    <path id="Trazado_572369" data-name="Trazado 572369" d="M1251.482-197.608c5.409.015,10.819,0,16.229.065,1.145.013,1.443-.412,1.417-1.482-.06-2.478-.028-4.958-.011-7.438,0-.543-.175-1.14.307-1.6q0,4.739-.007,9.479c0,.688.111,1.34-.974,1.334-6.885-.039-13.769-.029-20.653-.049-.128,0-.255-.165-.383-.252a1.248,1.248,0,0,1,.513-.311C1249.108-197.808,1250.325-198.138,1251.482-197.608Z" transform="translate(-5.295 -119.644)" fill="#e8c601"/>
    <path id="Trazado_572370" data-name="Trazado 572370" d="M1247.456-238.055l-.335.056a2.928,2.928,0,0,1-.142-.631q-.009-14.877,0-29.755a6.554,6.554,0,0,1,.1-.831.233.233,0,0,1,.369.015c.005.11.009.22.011.331a3.69,3.69,0,0,1,.156,1.825c.031,9.458-.033,18.916.038,28.374A.909.909,0,0,1,1247.456-238.055Z" transform="translate(-5.011 -79.193)" fill="#fed500"/>
    <path id="Trazado_572371" data-name="Trazado 572371" d="M1244.686-238.2v-30.716h.17v30.758Z" transform="translate(-3.499 -79.449)" fill="#040300"/>
    <path id="Trazado_572372" data-name="Trazado 572372" d="M1420.6-229.78c.022,1.011.019,2.023.074,3.031.048.877,0,1.448-1.2,1.444s-1.3-.571-1.188-1.448c.139-1.127-.353-2.312.311-3.391C1419.2-229.65,1419.989-230.211,1420.6-229.78Z" transform="translate(-118.141 -105.057)" fill="#f9626d"/>
    <path id="Trazado_572373" data-name="Trazado 572373" d="M1381.8-321.067c-.093-.138-.268-.276-.268-.414q0-6.6.036-13.208c0-.091.123-.182.188-.273a4.045,4.045,0,0,1,.336,1.107q.028,5.827-.017,11.653A5,5,0,0,1,1381.8-321.067Z" transform="translate(-93.891 -35.82)" fill="#fbad6f"/>
    <path id="Trazado_572374" data-name="Trazado 572374" d="M1420.477-273.67c2.151-.606,2.3-.531,2.236,1.566-.022.715.375,1.521-.286,2.16-.613-.433-1.385.086-2-.335q0-1.528,0-3.056a2.68,2.68,0,0,1,1.416-.153C1421.517-273.693,1420.913-273.3,1420.477-273.67Z" transform="translate(-119.584 -76.088)" fill="#fb626d"/>
    <path id="Trazado_572375" data-name="Trazado 572375" d="M1458.812-273.656c-2.2.014-4.4.1-6.6.014-1.308-.054-1.624.427-1.6,1.657.073,3.382.024,6.768.023,10.152-.571-.358-.279-.923-.283-1.381-.03-3.108.016-6.217-.034-9.324-.016-.976.18-1.47,1.291-1.38C1454.008-273.725,1456.428-274.2,1458.812-273.656Z" transform="translate(-139.307 -76.135)" fill="#e39d64"/>
    <path id="Trazado_572376" data-name="Trazado 572376" d="M1380.4-216.369h-1.976c1.555-.083,1.716-.974,1.7-2.28-.069-5.009-.029-10.02-.025-15.03a.412.412,0,0,1,.095-.288c.051-.043.183.011.279.022Q1380.432-225.157,1380.4-216.369Z" transform="translate(-91.837 -102.521)" fill="#0594fb"/>
    <path id="Trazado_572377" data-name="Trazado 572377" d="M1268.127-275.96a4.122,4.122,0,0,0,.33,2.306c-1.019-.065-2.093.437-3.046-.3.433-.617-.086-1.392.335-2.011Z" transform="translate(-17.189 -74.79)" fill="#e89a57"/>
    <path id="Trazado_572378" data-name="Trazado 572378" d="M1489.424-213v-15.7l.169,0v15.764Z" transform="translate(-165.159 -106.01)" fill="#040302"/>
    <path id="Trazado_572379" data-name="Trazado 572379" d="M1453.532-213.448v-15.491h.17v15.452Z" transform="translate(-141.451 -105.852)" fill="#030302"/>
    <path id="Trazado_572380" data-name="Trazado 572380" d="M1486.654-213.321a.994.994,0,0,1-.355-.9q.044-7.58.087-15.16a.471.471,0,0,1,.378.486C1486.728-223.7,1486.946-218.51,1486.654-213.321Z" transform="translate(-163.095 -105.563)" fill="#fecb8f"/>
    <path id="Trazado_572381" data-name="Trazado 572381" d="M1332.464-348.594c-.25-.5.155-.4.387-.4q7.173-.01,14.345,0a1.4,1.4,0,0,1,.41.136l-.369.233Z" transform="translate(-61.428 -26.547)" fill="#6c626c"/>
    <path id="Trazado_572382" data-name="Trazado 572382" d="M1450.242-213.22l-.332-.043a.955.955,0,0,1-.206-.6c.094-5.049.006-10.1.043-15.15a.33.33,0,0,1,.515-.174C1450.392-223.863,1450.429-218.541,1450.242-213.22Z" transform="translate(-138.923 -105.65)" fill="#fedaaa"/>
    <path id="Trazado_572383" data-name="Trazado 572383" d="M1437.61-261.954q0-4.648,0-9.3c0-2.418,0-2.418-2.4-2.525,2.516-.652,2.7-.519,2.705,1.9,0,2.8.018,5.6-.017,8.4C1437.891-262.973,1438.212-262.362,1437.61-261.954Z" transform="translate(-129.348 -76.015)" fill="#e5ae7b"/>
    <path id="Trazado_572384" data-name="Trazado 572384" d="M1391.166-322.8q0,3.5,0,7C1390.376-316.64,1390.375-321.945,1391.166-322.8Z" transform="translate(-99.864 -43.856)" fill="#f9a45d"/>
    <path id="Trazado_572385" data-name="Trazado 572385" d="M1260.412-260.837l.757-.381,11.678-.022.455.4A101.069,101.069,0,0,1,1260.412-260.837Z" transform="translate(-13.887 -84.517)" fill="#fede02"/>
    <path id="Trazado_572386" data-name="Trazado 572386" d="M1439.216-229.983h-.355a15.167,15.167,0,0,1-4.128.139c-.867.015-1.153.269-1.157,1.15a19.136,19.136,0,0,1-.143,4.476l-.383-.418c-.022-1.63-.048-3.26-.065-4.89,0-.444-.075-.942.626-.93,1.8.029,3.592.044,5.388.089C1439.075-230.365,1439.144-230.117,1439.216-229.983Z" transform="translate(-127.877 -104.851)" fill="#fedfae"/>
    <path id="Trazado_572387" data-name="Trazado 572387" d="M1374.292-259.564c.005-1.639,0-3.279.023-4.918.009-.543-.18-1.148.349-1.584a44.393,44.393,0,0,1,.112,6.566c0,.049-.172.144-.251.132S1374.37-259.494,1374.292-259.564Z" transform="translate(-89.108 -81.33)" fill="#018bfd"/>
    <path id="Trazado_572388" data-name="Trazado 572388" d="M1348.348-247.565l-.007-.357c.175-.215.267-.628.677-.283q0,4.3,0,8.593c0,.05-.022.132-.054.143a1.407,1.407,0,0,1-.28.049c-.375-1.874-.079-3.768-.16-5.651A11.452,11.452,0,0,0,1348.348-247.565Z" transform="translate(-71.968 -93.039)" fill="#0599fa"/>
    <path id="Trazado_572389" data-name="Trazado 572389" d="M1360.025-247.773c-.692,1.917-.189,3.9-.325,5.852a5.728,5.728,0,0,1-.348,2.173v-8.383C1359.709-248.262,1359.87-248.022,1360.025-247.773Z" transform="translate(-79.241 -93.151)" fill="#0596fc"/>
    <path id="Trazado_572390" data-name="Trazado 572390" d="M1469.094-232.672h-8.653l0-.17h8.709Z" transform="translate(-146.015 -103.275)" fill="#040302"/>
    <path id="Trazado_572391" data-name="Trazado 572391" d="M1468.647-230.076l-9.226.09c0-.5.386-.466.7-.467q3.932-.008,7.865,0C1468.277-230.449,1468.547-230.408,1468.647-230.076Z" transform="translate(-145.341 -104.852)" fill="#fec98e"/>
    <path id="Trazado_572392" data-name="Trazado 572392" d="M1334.275-267.121c.017,1.53.045,3.06.044,4.59a3.569,3.569,0,0,0,.369,1.933l-.33.318c-.251.044-.5-.055-.5-.293a36.066,36.066,0,0,1,.153-6.446A.272.272,0,0,1,1334.275-267.121Z" transform="translate(-62.356 -80.63)" fill="#0186fc"/>
    <path id="Trazado_572393" data-name="Trazado 572393" d="M1333.649-266.815c-.007,1.729-.028,3.458-.012,5.187.005.533-.186,1.134.357,1.552-.176.284-.62.361-.615.11C1333.418-262.25,1332.89-264.562,1333.649-266.815Z" transform="translate(-61.99 -80.834)" fill="#0063bf"/>
    <path id="Trazado_572394" data-name="Trazado 572394" d="M1317.383-315.8q0-3.512,0-7.025c.515.028.456.441.42.735C1317.548-320,1318.386-317.838,1317.383-315.8Z" transform="translate(-51.519 -43.836)" fill="#f4a15b"/>
    <path id="Trazado_572395" data-name="Trazado 572395" d="M1409.309-229.274c-.224,1.909.353,3.866-.341,5.748-.372-1.781-.058-3.585-.183-5.375a.532.532,0,0,1,.277-.494l.161-.016Z" transform="translate(-111.89 -105.541)" fill="#fee0ae"/>
    <path id="Trazado_572396" data-name="Trazado 572396" d="M1434.641-273.142c-.076,1.822.43,3.676-.3,5.462C1434.6-269.491,1434.125-271.344,1434.641-273.142Z" transform="translate(-128.773 -76.655)" fill="#e5ae7b"/>
    <path id="Trazado_572397" data-name="Trazado 572397" d="M1418.979-208.243l.436.392a16.157,16.157,0,0,1-5.089,0l.441-.4Z" transform="translate(-115.553 -119.52)" fill="#fedeae"/>
    <path id="Trazado_572398" data-name="Trazado 572398" d="M1346.932-269l-.041,2.855C1346.148-267.1,1345.791-268.062,1346.932-269Z" transform="translate(-70.553 -79.392)" fill="#f4a15b"/>
    <path id="Trazado_572399" data-name="Trazado 572399" d="M1361.674-266.624c-.7-.7-.235-1.586-.371-2.376C1362.278-268.34,1361.76-267.448,1361.674-266.624Z" transform="translate(-80.512 -79.391)" fill="#faa55d"/>
    <path id="Trazado_572400" data-name="Trazado 572400" d="M1248.458-275.6H1244.5l0-.17h3.939Z" transform="translate(-3.378 -74.917)" fill="#040404"/>
    <path id="Trazado_572401" data-name="Trazado 572401" d="M1306.453-275.6h-3.96v-.17h3.926Z" transform="translate(-41.682 -74.922)" fill="#040404"/>
    <path id="Trazado_572402" data-name="Trazado 572402" d="M1292.393-273.66v-2.3A1.471,1.471,0,0,1,1292.393-273.66Z" transform="translate(-35.011 -74.791)" fill="#fdb372"/>
    <path id="Trazado_572403" data-name="Trazado 572403" d="M1309.849-316.024a2.651,2.651,0,0,1,.065,2.7A3.374,3.374,0,0,1,1309.849-316.024Z" transform="translate(-46.376 -48.329)" fill="#f6a25c"/>
    <path id="Trazado_572404" data-name="Trazado 572404" d="M1339.4-381.516a1.545,1.545,0,0,1-2.034-.008A1.959,1.959,0,0,1,1339.4-381.516Z" transform="translate(-64.716 -4.878)" fill="#59525a"/>
    <path id="Trazado_572405" data-name="Trazado 572405" d="M1247.667-269.808l-.369-.015a3.819,3.819,0,0,1,3.394.005Z" transform="translate(-5.224 -78.586)" fill="#f4c100"/>
    <path id="Trazado_572406" data-name="Trazado 572406" d="M1396.58-354.939a1.575,1.575,0,0,1-.01-2.023A2,2,0,0,1,1396.58-354.939Z" transform="translate(-103.586 -21.288)" fill="#6d626d"/>
    <path id="Trazado_572407" data-name="Trazado 572407" d="M1313.377-219.883l.447-.4a.2.2,0,0,1,.239.045c.5,1.035.825,2.065-.082,3.063h-.26C1313.258-218.03,1313.847-219.023,1313.377-219.883Z" transform="translate(-48.872 -111.56)" fill="#fdd900"/>
    <path id="Trazado_572408" data-name="Trazado 572408" d="M1367.372-381.494a1.543,1.543,0,0,1-2.035-.022A2.023,2.023,0,0,1,1367.372-381.494Z" transform="translate(-83.194 -4.895)" fill="#6d626d"/>
    <path id="Trazado_572409" data-name="Trazado 572409" d="M1315.155-217.112q.041-1.531.082-3.063a.368.368,0,0,1,.32,0c.022.117.044.234.066.351a3.235,3.235,0,0,1-.067,2.941l-.158.032-.158-.032Q1315.2-217,1315.155-217.112Z" transform="translate(-50.047 -111.619)" fill="#7eaf7c"/>
    <path id="Trazado_572410" data-name="Trazado 572410" d="M1398.792-276.893v2.273l-.158,0v-2.272Z" transform="translate(-105.189 -74.177)" fill="#050505"/>
    <path id="Trazado_572411" data-name="Trazado 572411" d="M1316.335-216.126q.034-1.47.067-2.941l.286,0a4.723,4.723,0,0,1,0,2.714q0,.149,0,.3Z" transform="translate(-50.826 -112.373)" fill="#008afa"/>
    <path id="Trazado_572412" data-name="Trazado 572412" d="M1395.428-230.134l-3.027,0c.9-1,2.012-.316,3.03-.375a.226.226,0,0,1,.092.254C1395.491-230.176,1395.459-230.134,1395.428-230.134Z" transform="translate(-101.071 -104.698)" fill="#fec98f"/>
    <path id="Trazado_572413" data-name="Trazado 572413" d="M1401.318-230.1q0-.19,0-.379c.945.012,1.942-.5,2.813.275l-.11.115a4.768,4.768,0,0,1-2.7-.016Z" transform="translate(-106.961 -104.735)" fill="#fedfae"/>
    <path id="Trazado_572414" data-name="Trazado 572414" d="M1475.48-270.4c-.574-.87-.2-1.825-.248-2.743C1475.707-272.267,1475.342-271.312,1475.48-270.4Z" transform="translate(-155.734 -76.652)" fill="#e39d64"/>
    <path id="Trazado_572415" data-name="Trazado 572415" d="M1385.409-365.06c-.627.568-1.322.286-2.011.065l1.747-.11A.3.3,0,0,1,1385.409-365.06Z" transform="translate(-95.124 -15.901)" fill="#6d636d"/>
    <path id="Trazado_572416" data-name="Trazado 572416" d="M1421.294-230.068c-.669-.105-1.428.284-2-.364C1419.989-230.459,1420.76-230.918,1421.294-230.068Z" transform="translate(-118.836 -104.769)" fill="#fe6a76"/>
    <path id="Trazado_572417" data-name="Trazado 572417" d="M1265.511-275.965c-.1.671.267,1.422-.335,2.011C1265.21-274.637,1264.715-275.409,1265.511-275.965Z" transform="translate(-16.954 -74.79)" fill="#f09e59"/>
    <path id="Trazado_572418" data-name="Trazado 572418" d="M1420.427-263.079c.668.1,1.415-.266,2,.335C1421.734-262.7,1420.977-262.27,1420.427-263.079Z" transform="translate(-119.584 -83.289)" fill="#fe6772"/>
    <path id="Trazado_572419" data-name="Trazado 572419" d="M1420.478-273.029h1.617l-.01.335h-1.656Z" transform="translate(-119.585 -76.73)" fill="#fe6874"/>
    <path id="Trazado_572420" data-name="Trazado 572420" d="M1316.406-333.016c-.26-.552.374-.7.486-1.09l.166.427C1317.1-333.2,1316.866-333,1316.406-333.016Z" transform="translate(-50.832 -36.385)" fill="#59525a"/>
    <path id="Trazado_572421" data-name="Trazado 572421" d="M1398.612-313.317a1.133,1.133,0,0,1,0-1.7A2.923,2.923,0,0,1,1398.612-313.317Z" transform="translate(-104.918 -48.993)" fill="#f8a45c"/>
    <path id="Trazado_572422" data-name="Trazado 572422" d="M1378.7-372.657c-.033.354-.066.708-.123,1.3-.316-.731-.331-1.183.075-1.589A.342.342,0,0,1,1378.7-372.657Z" transform="translate(-91.789 -10.733)" fill="#6d626d"/>
    <path id="Trazado_572423" data-name="Trazado 572423" d="M1348.25-246.061c.723,1.376.224,2.849.32,4.274.087,1.284.018,2.579.019,3.87-.677-1.035-.269-2.187-.32-3.281C1348.193-242.816,1348.249-244.44,1348.25-246.061Z" transform="translate(-71.869 -94.543)" fill="#048ff7"/>
    <path id="Trazado_572424" data-name="Trazado 572424" d="M1324.789-257.781v5.992h-.168v-5.989Z" transform="translate(-56.3 -86.802)" fill="#0598fe"/>
    <path id="Trazado_572425" data-name="Trazado 572425" d="M1317.376-216.355q0-1.357,0-2.714A2.548,2.548,0,0,1,1317.376-216.355Z" transform="translate(-51.513 -112.373)" fill="#0993f5"/>
    <path id="Trazado_572426" data-name="Trazado 572426" d="M1474.7-248.822v2.94h-.162V-248.8Z" transform="translate(-155.325 -92.719)" fill="#feb271"/>
    <path id="Trazado_572427" data-name="Trazado 572427" d="M1305.78-268.414h.338a32.013,32.013,0,0,1,.147,6.031,81.5,81.5,0,0,1-.145,9.235c-.762-.217-.307-.827-.311-1.2q-.068-5.89-.015-11.782c.012-1.242.051-2.359-1.736-1.825-.035.011-.129-.053-.127-.059.045-.135.1-.267.153-.4A1.97,1.97,0,0,1,1305.78-268.414Z" transform="translate(-42.633 -79.651)" fill="#fad001"/>
    <path id="Trazado_572428" data-name="Trazado 572428" d="M1310.375-252.83q0-7.633,0-15.266c.366-.12.339.155.339.359q0,7,0,14A1.044,1.044,0,0,1,1310.375-252.83Z" transform="translate(-46.888 -79.969)" fill="#fbd902"/>
    <path id="Trazado_572429" data-name="Trazado 572429" d="M1260.408-260.054l12.89,0c-.5.548-1.16.327-1.752.33-3.713.019-7.427.01-11.14.01Z" transform="translate(-13.883 -85.3)" fill="#f9d001"/>
    <path id="Trazado_572430" data-name="Trazado 572430" d="M1248.393-178.193c0-.1.006-.19.007-.285a9.017,9.017,0,0,1,3.73,0v0c0,.093,0,.187,0,.28Z" transform="translate(-5.947 -139.056)" fill="#fecf00"/>
    <path id="Trazado_572431" data-name="Trazado 572431" d="M1313.314-219.074c.676.834.189,1.814.344,2.714C1312.974-217.193,1313.463-218.174,1313.314-219.074Z" transform="translate(-48.81 -112.369)" fill="#f7d106"/>
    <path id="Trazado_572432" data-name="Trazado 572432" d="M1306.078-268.769h-1.7A1.148,1.148,0,0,1,1306.078-268.769Z" transform="translate(-42.931 -79.296)" fill="#fbd902"/>
    <path id="Trazado_572433" data-name="Trazado 572433" d="M1341.25-294.57q-.023-.525-.046-1.05a1.4,1.4,0,0,1,2.338-.309,2,2,0,0,0,1.45.644,10.289,10.289,0,0,1,1.69-.013,2.211,2.211,0,0,0,1.485-.709c.669-.511,1.356-.651,1.94.054.677.818.189,1.451-.455,2.02a6,6,0,0,1-7.773-.073C1341.661-294.185,1341.459-294.382,1341.25-294.57Z" transform="translate(-67.253 -61.268)" fill="#030201"/>
    <path id="Trazado_572434" data-name="Trazado 572434" d="M1345.281-318.228a9.172,9.172,0,0,1,2.669-3.7,1.014,1.014,0,0,1,1.384.193,1.127,1.127,0,0,1,.3,1.384,4.673,4.673,0,0,1-.758,1.113c-.714.8-1.161,1.5.168,2.193a1.165,1.165,0,0,1,.432,1.863,1.213,1.213,0,0,1-1.923.15C1346.569-315.819,1345.238-316.351,1345.281-318.228Z" transform="translate(-69.946 -44.297)" fill="#020101"/>
    <path id="Trazado_572435" data-name="Trazado 572435" d="M1366.694-326.037c.353-.755.8-1.423,1.775-1.115.859.273.937,1.03.887,1.795-.06.909.336,2.012-.835,2.506-.965.407-1.416-.311-1.818-1.019A1.581,1.581,0,0,1,1366.694-326.037Z" transform="translate(-83.81 -40.928)" fill="#0a0704"/>
    <path id="Trazado_572436" data-name="Trazado 572436" d="M1335.9-322.752c-1.949.124-1.734-1.251-1.775-2.5-.042-1.272.295-2.119,1.782-1.965A3.429,3.429,0,0,1,1335.9-322.752Z" transform="translate(-62.576 -40.921)" fill="#0f0a06"/>
    <path id="Trazado_572437" data-name="Trazado 572437" d="M1366.365-324.569q0,1.084.009,2.167l-.4.449a5.973,5.973,0,0,1,0-3.054Z" transform="translate(-83.481 -42.396)" fill="#feb473"/>
    <path id="Trazado_572438" data-name="Trazado 572438" d="M1365.561-325.007q0,1.527,0,3.054A3.063,3.063,0,0,1,1365.561-325.007Z" transform="translate(-83.073 -42.396)" fill="#f0a469"/>
    <path id="Trazado_572439" data-name="Trazado 572439" d="M1342.519-321.543v-2.147l.164-.01v2.217Z" transform="translate(-68.122 -43.259)" fill="#fdb070"/>
    <path id="Trazado_572440" data-name="Trazado 572440" d="M1354.052-293.773a1.745,1.745,0,0,1-1.69.013A1.169,1.169,0,0,1,1354.052-293.773Z" transform="translate(-74.624 -62.793)" fill="#feb372"/>
    <path id="Trazado_572441" data-name="Trazado 572441" d="M1412.536-223.326c0-1.5.037-3.009-.012-4.511-.03-.935.322-1.3,1.262-1.268,1.391.05,2.785.013,4.177.014q0,7.8,0,15.6a19.26,19.26,0,0,1-4.685.148c-3.978-.045-7.961.222-11.935-.145q0-.171,0-.342c4.846,0,9.693-.033,14.539.024,1.255.015,1.809-.238,1.773-1.663-.1-3.829-.083-7.664-.009-11.494.029-1.448-.544-1.854-1.9-1.813-3.365.1-2.817-.339-2.875,2.889q-.023,1.258-.061,2.516c0,.031-.074.08-.117.085A.452.452,0,0,1,1412.536-223.326Z" transform="translate(-106.98 -105.742)" fill="#facfa1"/>
    <path id="Trazado_572442" data-name="Trazado 572442" d="M1401.342-229.073l2.7.016q.008,2.877.016,5.754c-.682-.967-.293-2.062-.322-3.092-.065-2.333-.021-2.334-2.388-2.334C1401.344-228.844,1401.343-228.958,1401.342-229.073Z" transform="translate(-106.977 -105.765)" fill="#f8cda0"/>
    <path id="Trazado_572443" data-name="Trazado 572443" d="M1414.325-207.078h5.089A8.041,8.041,0,0,1,1414.325-207.078Z" transform="translate(-115.553 -120.293)" fill="#f9cea0"/>
    <path id="Trazado_572444" data-name="Trazado 572444" d="M1469.081-182.708h-7.633l0-.168h7.69Z" transform="translate(-146.68 -136.28)" fill="#fec289"/>
    <path id="Trazado_572445" data-name="Trazado 572445" d="M1252.143-237.506h-3.73q0-15.265,0-30.53c.576.56.324,1.279.326,1.924.017,8.731.049,17.462-.023,26.192-.013,1.565.314,2.342,2.012,2.091A1.39,1.39,0,0,1,1252.143-237.506Z" transform="translate(-5.961 -80.028)" fill="#f4c100"/>
    <path id="Trazado_572446" data-name="Trazado 572446" d="M1332.529-324.664a4.725,4.725,0,0,1,0,2.488A4.557,4.557,0,0,1,1332.529-324.664Z" transform="translate(-61.408 -42.622)" fill="#f2a05a"/>
    <path id="Trazado_572447" data-name="Trazado 572447" d="M1401.346-183.092l16.619,0q0,.158,0,.316-7.6.01-15.205.015C1402.273-182.764,1401.733-182.619,1401.346-183.092Z" transform="translate(-106.98 -136.135)" fill="#fed7a8"/>
    <path id="Trazado_572448" data-name="Trazado 572448" d="M1425.445-268.426a2.51,2.51,0,0,1,.032-1.876A2.51,2.51,0,0,1,1425.445-268.426Z" transform="translate(-122.789 -78.531)" fill="#fe6772"/>
  </g>
</svg>
