<svg xmlns="http://www.w3.org/2000/svg" xmlns:xlink="http://www.w3.org/1999/xlink" width="438.789" height="414.504" viewBox="0 0 438.789 414.504">
  <defs>
    <linearGradient id="linear-gradient" x1="0.396" y1="0.514" x2="0.917" y2="1.034" gradientUnits="objectBoundingBox">
      <stop offset="0.122" stop-color="#fca4b5"/>
      <stop offset="0.99" stop-color="#ffadb7"/>
    </linearGradient>
    <linearGradient id="linear-gradient-2" x1="824.536" y1="-61.028" x2="825.462" y2="-61.028" gradientUnits="objectBoundingBox">
      <stop offset="0.122" stop-color="#feb9b8"/>
      <stop offset="1" stop-color="#ffdede"/>
    </linearGradient>
    <linearGradient id="linear-gradient-3" x1="22.187" y1="0.5" x2="23.187" y2="0.5" gradientUnits="objectBoundingBox">
      <stop offset="0" stop-color="#c4c8d8"/>
      <stop offset="0.022" stop-color="#c4c8d8"/>
      <stop offset="0.283" stop-color="#c4c8d8"/>
      <stop offset="0.304" stop-color="#c0c4d5"/>
      <stop offset="0.323" stop-color="#b5bace"/>
      <stop offset="0.341" stop-color="#a3a9c2"/>
      <stop offset="0.344" stop-color="#a0a6c0"/>
      <stop offset="0.986" stop-color="#a0a6c0"/>
      <stop offset="0.991" stop-color="#b4b9cd"/>
      <stop offset="0.995" stop-color="#c0c4d5"/>
      <stop offset="1" stop-color="#c4c8d8"/>
    </linearGradient>
    <linearGradient id="linear-gradient-4" x1="0.127" y1="0.816" x2="0.859" y2="0.196" gradientUnits="objectBoundingBox">
      <stop offset="0.086" stop-color="#379ed6"/>
      <stop offset="0.301" stop-color="#57aee5"/>
      <stop offset="0.544" stop-color="#75bcf3"/>
      <stop offset="0.751" stop-color="#88c5fb"/>
      <stop offset="0.898" stop-color="#8fc9ff"/>
    </linearGradient>
    <linearGradient id="linear-gradient-5" x1="0.127" y1="0.816" x2="0.859" y2="0.196" gradientUnits="objectBoundingBox">
      <stop offset="0.086" stop-color="#7282b5"/>
      <stop offset="0.229" stop-color="#7389c7"/>
      <stop offset="0.501" stop-color="#7594e5"/>
      <stop offset="0.734" stop-color="#779bf8"/>
      <stop offset="0.898" stop-color="#789eff"/>
    </linearGradient>
    <linearGradient id="linear-gradient-6" x1="0.173" y1="0.848" x2="0.858" y2="0.098" gradientUnits="objectBoundingBox">
      <stop offset="0.086" stop-color="#7cab71"/>
      <stop offset="0.229" stop-color="#85bd78"/>
      <stop offset="0.501" stop-color="#95db84"/>
      <stop offset="0.734" stop-color="#9eee8b"/>
      <stop offset="0.898" stop-color="#a2f58e"/>
    </linearGradient>
  </defs>
  <g id="Grupo_842239" data-name="Grupo 842239" transform="translate(-788.673 -109.053)">
    <g id="Grupo_842224" data-name="Grupo 842224" transform="translate(1125.795 155.899)">
      <path id="Trazado_570716" data-name="Trazado 570716" d="M1004.636,206.608c-15.028-8.675-39.467-8.633-54.588.1-5.358,3.094-8.788,6.865-10.365,10.83l-25.494,14.719L946.7,251.028l14.426-8.332c14.217,3.725,31.583,2.213,43.337-4.571C1019.586,229.393,1019.664,215.284,1004.636,206.608Z" transform="translate(-914.189 -2.353)" fill="#e2e2e2" style="mix-blend-mode: multiply;isolation: isolate"/>
      <g id="Grupo_842220" data-name="Grupo 842220" transform="translate(2.06 33.514)">
        <g id="Grupo_842214" data-name="Grupo 842214" transform="translate(63.26 0.692)">
          <path id="Trazado_570717" data-name="Trazado 570717" d="M940.031,140.078s1.088,11.184,2.224,22.245c1.015,9.726,2.06,19.36,2.439,21.189.814,3.908,9.975,24.243,10.76,26.58a8.867,8.867,0,0,1,.33,1.773,28.191,28.191,0,0,1-.046,6.124c-.223,1.708-.647,3.027-1.322,3.137-1.738.293-1.646.873-1.628,1.112s2.036.271,2.036.271-2.286.835-2.525,1.491,1.04.749,1.04.749-1.023,1.209-.615,1.424a11.208,11.208,0,0,0,2.608.075,3.713,3.713,0,0,0-.75,1.047c-.059.21.113.414.365.564a1.7,1.7,0,0,0,.784.223,16.307,16.307,0,0,0,4.077-1.665c.411-.381,2.127-6.269,2.127-6.269a35.139,35.139,0,0,0-1.037-6.537c-.83-2.874-.553-3.091-1.663-11.638s-5.074-25.486-6.065-26.776-2.833-15.927-5.017-25.554S940.031,140.078,940.031,140.078Z" transform="translate(-935.942 -137.799)" fill="#febfbf"/>
          <path id="Trazado_570718" data-name="Trazado 570718" d="M948.184,175.174a10.993,10.993,0,0,0-.521,2.89c.046,1.125-.1,2.879-.895,3.094s-1.45-.051-1.472-1.179a29.734,29.734,0,0,1,.263-3.9c.126-.822-.457-3.766-.323-5.076s.82-3.946,2.439-4.254,2.17,1.316,2.253,2.611a15.464,15.464,0,0,1-1.056,4.7C948.66,174.424,948.184,175.174,948.184,175.174Z" transform="translate(-927.198 -92.896)" fill="#fec7c6"/>
          <path id="Trazado_570719" data-name="Trazado 570719" d="M945.657,176.081s-1.023,1.209-.615,1.424a11.208,11.208,0,0,0,2.608.075,3.713,3.713,0,0,0-.75,1.047c-.059.21.113.414.365.564a2.725,2.725,0,0,1,.618-.846c.473-.282.9-.124,1.515-.422a4.418,4.418,0,0,0,1.262-1.254l1.023-2.812s-.5-1.013-1.082-2.313a7.305,7.305,0,0,1-.583-2.6,14.682,14.682,0,0,0-1.963.376c-.223,1.708-.647,3.027-1.322,3.137-1.738.293-1.646.873-1.628,1.112s2.036.271,2.036.271-2.286.835-2.525,1.491S945.657,176.081,945.657,176.081Z" transform="translate(-928.259 -89.133)" fill="#fa9698"/>
          <path id="Trazado_570720" data-name="Trazado 570720" d="M940.859,148.36c1.015,9.726,2.06,19.36,2.439,21.189.814,3.908,9.975,24.243,10.76,26.58a8.867,8.867,0,0,1,.33,1.773,9.12,9.12,0,0,0,.969-3.844c-.172-2.047-7.185-18.1-8.554-23.058s-4.934-22.04-4.934-22.04A7.63,7.63,0,0,0,940.859,148.36Z" transform="translate(-934.546 -123.837)" fill="#fa9698"/>
          <path id="Trazado_570721" data-name="Trazado 570721" d="M940.446,139.26a9.275,9.275,0,0,1,8.8,4.875c3.25,5.6,5.9,24.871,5.9,24.871s-2.656,4.378-11.659,5.076S940.446,139.26,940.446,139.26Z" transform="translate(-938.509 -139.23)" fill="#ffdc6e"/>
        </g>
        <g id="Grupo_842216" data-name="Grupo 842216" transform="translate(26.377)">
          <path id="Trazado_570722" data-name="Trazado 570722" d="M947.62,202.967s6.769,4.08,8.017,4.668,6.78,4.2,7.668,5.53a3.333,3.333,0,0,1,.44,3.132,5.162,5.162,0,0,1-3.091,2.178,23.661,23.661,0,0,1-9.5-2.028,9.336,9.336,0,0,1-3.129-2.377c-.4-.142-2.979-.773-2.979-.773a2.068,2.068,0,0,1-1.8.167c-1.2-.322-4.84-1.362-5.138-2.321a15.416,15.416,0,0,1,.021-5.987C938.612,203.526,947.62,202.967,947.62,202.967Z" transform="translate(-902.786 -31.084)" fill="#5c6467"/>
          <path id="Trazado_570723" data-name="Trazado 570723" d="M946.422,203.484s4.338,2.578,3.79,4.021-5.34,1.386-7.281.693c-2.358-.843-3.333-1.6-3.674-3.121s1.638-1.773,1.638-1.773Z" transform="translate(-900.431 -30.515)" fill="#febfbf"/>
          <path id="Trazado_570724" data-name="Trazado 570724" d="M955.9,194.5c-2.006,15.855-1.948,18.213-2.181,21.954-.207,3.774-2.27,46.649-2.24,47.21.059.529-2.8,2.621-5.836,2.828a4.717,4.717,0,0,1-.913,0c-3.33-.266-4.418-.68-4.6-2.063s-2.683-36.512-2.447-43.023c-1.738-7.574-1.386-30.767-1.179-40.079.059-2.444.118-3.948.118-3.948l19.892-9.634A117.393,117.393,0,0,1,955.9,194.5Z" transform="translate(-905.298 -90.456)" fill="#7282b5"/>
          <path id="Trazado_570725" data-name="Trazado 570725" d="M945.641,258.049a4.717,4.717,0,0,1-.913,0c-3.33-.266-4.418-.68-4.6-2.063s-2.683-36.512-2.447-43.023c-1.738-7.574-1.386-30.767-1.179-40.079,2.858-.706,5.659,1.475,7.574,9.785,0,0-4.3,3.035-3.741,15.441s1.442,15.97,1.531,20.128c.118,4.182.059,31.559,1.12,35.655A10.635,10.635,0,0,0,945.641,258.049Z" transform="translate(-905.298 -82.008)" fill="#e8d0c8" style="mix-blend-mode: multiply;isolation: isolate"/>
          <path id="Trazado_570726" data-name="Trazado 570726" d="M943.012,208.4a7.425,7.425,0,0,1,.629.787c1.063,1.4,3.228,4.335,4.585,5.965,1.826,2.189,4.95,7.657,5.16,9.121a2.719,2.719,0,0,1-.513,2.46,6.948,6.948,0,0,1-5.694,1.5,12.367,12.367,0,0,1-7.789-4.588c-1.84-2.24-5.012-7.1-5.689-7.964s-3.021-2.659-3.4-3.494a9.763,9.763,0,0,1,.639-5.506c.714-1,12.283,1.6,12.283,1.6Z" transform="translate(-915.749 -25.203)" fill="#5c6467"/>
          <path id="Trazado_570727" data-name="Trazado 570727" d="M939.788,206.6s3.158,4.128,2.927,5.415-3.258,2.044-5.135,1.6-6.586-3.742-6.207-5.141S939.788,206.6,939.788,206.6Z" transform="translate(-913.693 -24.964)" fill="#febfbf"/>
          <path id="Trazado_570728" data-name="Trazado 570728" d="M959.881,183.319c-1.029,3.741-7.69,8.517-7.69,8.517s-1,9.634-2.3,29.674c-.47,7.542-1.383,26.757-3.449,49.093a7.873,7.873,0,0,1-8.869,1.649,11.48,11.48,0,0,1-1.708-.851,9.485,9.485,0,0,1-1.681-1.238c-.234-.207-1.945-18.213-1.885-30,.03-5.659,1.327-18.86,1.386-21.484,1.56-8.6-6.425-20.509-5.068-44.143.089-1.826,2.385-2.946,5.686-3.623,9.105-1.829,25.9-.236,25.9-.236S960.915,179.545,959.881,183.319Z" transform="translate(-918.565 -86.606)" fill="#7282b5"/>
          <g id="Grupo_842215" data-name="Grupo 842215" transform="translate(13.545 85.279)">
            <path id="Trazado_570729" data-name="Trazado 570729" d="M934.308,270.719c-3.72-19.618-.69-42.655.309-50.224.1-.755.175-1.343.223-1.743.4-3.543-1.2-12.342-2.9-21.654-.341-1.861-.69-3.763-1.029-5.667a66.26,66.26,0,0,1-.54-20.708l.725.126a65.6,65.6,0,0,0,.54,20.45c.339,1.907.685,3.806,1.023,5.665,1.786,9.777,3.328,18.221,2.912,21.871-.046.4-.124,1-.226,1.757-.989,7.542-4.01,30.488-.312,49.987Z" transform="translate(-929.82 -170.723)" fill="#a0abcd"/>
          </g>
          <path id="Trazado_570730" data-name="Trazado 570730" d="M934.982,252.813c.352,6.07.529,12.906.884,18.036a9.485,9.485,0,0,1-1.681-1.238c-.234-.207-1.945-18.213-1.885-30,.03-5.659,1.327-18.86,1.386-21.484,1.56-8.6-6.425-20.509-5.068-44.143.089-1.826,2.385-2.946,5.686-3.623.62,1.826-2.562,3.124-1.945,5.334,0,0-.736,15.852.561,21.922s3.889,18.154,2.769,23.311S934.126,237.93,934.982,252.813Z" transform="translate(-918.565 -86.054)" fill="#e8d0c8" style="mix-blend-mode: multiply;isolation: isolate"/>
          <path id="Trazado_570731" data-name="Trazado 570731" d="M977.644,214.7s-.884,6.218-12.581,11.375a42.7,42.7,0,0,1-22.693,3.271,22.056,22.056,0,0,1-3.741-.854c-3.86-1.386-4.244-1.829-4.362-3.655-.145-1.826.118-12.465-.943-24.251-1.091-11.788-6.218-26.582-6.218-26.582,0-.118-.588-2.3-1.12-4.861a48.227,48.227,0,0,1-1.209-6.954c-.029-2.713.768-5.6,5.955-10.11,5.216-4.507,9.782-8.248,12.14-9.9,2.358-1.62,15.175-3.653,19.212-3.124,9.755,1.209,10.639,10.816,11.257,13.822.621,2.976,2.093,15.412,1.918,21.275-.148,5.9-.8,11.112-.768,17.947S977.644,214.7,977.644,214.7Z" transform="translate(-924.777 -138.972)" fill="#fdd249"/>
          <path id="Trazado_570732" data-name="Trazado 570732" d="M948.449,200.911c-2.24,5.041-5.836,4.037-5.952,7.515a11.152,11.152,0,0,1-.886,3.36,22.056,22.056,0,0,1-3.741-.854c-3.86-1.386-4.244-1.829-4.362-3.655-.145-1.826.118-12.465-.943-24.251-1.091-11.788-6.218-26.582-6.218-26.582,0-.118-.588-2.3-1.12-4.861a22.375,22.375,0,0,1,13.7-1.885s-3.035,8.369-2.917,9.723l.148,1.356s11.9,6.129,12.876,7.6C950.039,169.851,950.689,195.872,948.449,200.911Z" transform="translate(-924.017 -121.409)" fill="#dedede" style="mix-blend-mode: multiply;isolation: isolate"/>
        </g>
        <g id="Grupo_842218" data-name="Grupo 842218" transform="translate(1.11 34.409)">
          <g id="Grupo_842217" data-name="Grupo 842217">
            <path id="Trazado_570733" data-name="Trazado 570733" d="M924.621,199.988l24.851-14.348V157.125l-24.851,14.347Z" transform="translate(-899.771 -142.778)" fill="#c99a6b"/>
            <path id="Trazado_570734" data-name="Trazado 570734" d="M949.472,157.125l-24.851,14.347,13.409-7.174Z" transform="translate(-899.771 -142.778)" fill="#87623f"/>
            <path id="Trazado_570735" data-name="Trazado 570735" d="M940.22,199.988l-24.851-14.348V157.125l24.851,14.347Z" transform="translate(-915.369 -142.778)" fill="#ae835b"/>
            <path id="Trazado_570736" data-name="Trazado 570736" d="M940.22,180.478l-24.851-14.347,24.851-14.348,24.851,14.348Z" transform="translate(-915.369 -151.783)" fill="#e8b687"/>
            <path id="Trazado_570737" data-name="Trazado 570737" d="M928.791,172.772l3.993-2.305V159.2l-3.993,2.305Z" transform="translate(-892.742 -139.277)" fill="#d9af84"/>
            <path id="Trazado_570738" data-name="Trazado 570738" d="M944.39,170.512l-24.851-14.348,3.993-2.305,24.851,14.348Z" transform="translate(-908.34 -148.283)" fill="#ebcbab"/>
            <path id="Trazado_570739" data-name="Trazado 570739" d="M915.369,157.125l24.851,14.347L926.811,164.3Z" transform="translate(-915.369 -142.778)" fill="#87623f"/>
            <path id="Trazado_570740" data-name="Trazado 570740" d="M923.114,172.862l-3.993-2.305V159.292l3.993,2.305Z" transform="translate(-909.043 -139.125)" fill="#9c754e"/>
            <path id="Trazado_570741" data-name="Trazado 570741" d="M923.114,170.6l24.851-14.348-3.993-2.305L919.122,168.3Z" transform="translate(-909.043 -148.131)" fill="#54493e" style="mix-blend-mode: screen;isolation: isolate"/>
            <path id="Trazado_570742" data-name="Trazado 570742" d="M920.093,168.858l24.85-14.348-.274-.159L919.818,168.7Z" transform="translate(-907.869 -147.453)" fill="#d1a986"/>
            <path id="Trazado_570743" data-name="Trazado 570743" d="M923.114,161.6v.465l-2.434-1.3-1.558-.977v-.49Z" transform="translate(-909.043 -139.125)" fill="#ae835b"/>
          </g>
          <path id="Trazado_570744" data-name="Trazado 570744" d="M931,160.8l-2.21,1.183v-.475l3.993-2.305v.48Z" transform="translate(-892.742 -139.277)" fill="#ae835b"/>
        </g>
        <g id="Grupo_842219" data-name="Grupo 842219" transform="translate(0 15.385)">
          <path id="Trazado_570745" data-name="Trazado 570745" d="M944.63,145.83s-29.483,29.48-29.671,31.632,8.982,33.477,9.562,36.007a10.159,10.159,0,0,0,3.419,5.675c1.456,1.131,9.027,5.834,10.631,5.662a4.507,4.507,0,0,0,2.361-.822s3.8-1.606,4.407-2.321,1.684-2.313,1.5-3.18-5.8,2.436-6.234,2.474-4.34-3.908-6.546-5.638-2.74-1.058-3.33-4.617-3.527-28.524-3.2-29.875,12.084-8.667,18.807-14.528,8.77-9.567,6.989-15.011S947.96,143.419,944.63,145.83Z" transform="translate(-914.956 -144.367)" fill="#febfbf"/>
          <path id="Trazado_570746" data-name="Trazado 570746" d="M921.574,171.15s-1.117,1.16.736,3.1a7.185,7.185,0,0,0,5.375,2.2,11.724,11.724,0,0,1,3.059.661s1.829,1.794,2.979,1.738,1.273-1.244.911-2.06-2.863-2.116-3.218-2.382-3.76-2.7-4.445-2.976S922.667,170.137,921.574,171.15Z" transform="translate(-904.362 -100.847)" fill="#fec7c6"/>
          <path id="Trazado_570747" data-name="Trazado 570747" d="M919.72,162.642s10.164,9.454,12.414,10.542,13.454-10.244,14.555-11.963a10.769,10.769,0,0,0-3.537-15.31c-5.254-2.949-7.781.258-9.344,1.518S919.72,162.642,919.72,162.642Z" transform="translate(-906.924 -144.7)" fill="#ffdc6e"/>
        </g>
      </g>
      <g id="Grupo_842223" data-name="Grupo 842223" transform="translate(20.638 93.881)">
        <g id="Grupo_842221" data-name="Grupo 842221">
          <path id="Trazado_570748" data-name="Trazado 570748" d="M927.575,171.286l-5.7-3.293v-6.546l5.7,3.293Zm-5.329-3.508,4.953,2.858v-5.681l-4.953-2.858Z" transform="translate(-921.873 -161.448)" fill="#87623f"/>
        </g>
        <g id="Grupo_842222" data-name="Grupo 842222" transform="translate(0.987 2.46)">
          <path id="Trazado_570749" data-name="Trazado 570749" d="M923.958,166.854l-1.257-.726v-3.3l1.257.726Z" transform="translate(-921.464 -161.573)" fill="#87623f"/>
          <path id="Trazado_570750" data-name="Trazado 570750" d="M925.97,165.69l-3.73-2.154,1.865-1.173Z" transform="translate(-922.24 -162.364)" fill="#87623f"/>
        </g>
      </g>
      <path id="Trazado_570751" data-name="Trazado 570751" d="M947.632,155.036c-.03,2.887.618,3.919.056,4.805s-4.185,1.708-7.808.943a12.692,12.692,0,0,1-2.68-.972.029.029,0,0,1-.03-.03,10.157,10.157,0,0,1-4.668-4.7,3.285,3.285,0,0,1-.44-1.77,19.328,19.328,0,0,0,3.132-6.175,21.465,21.465,0,0,0,.089-7.4c-.145-1.209-.293-2.033-.293-2.033s-1.415-4.861.293-5.216c1.74-.355,13.056,9.4,13.056,9.4s-.266,3.919-.473,7.574c-.059,1.5-.148,2.976-.177,4.126C947.66,154.182,947.632,154.654,947.632,155.036Z" transform="translate(-884.065 -116.398)" fill="#ffadb7"/>
      <path id="Trazado_570752" data-name="Trazado 570752" d="M947.866,144.912c-.059,1.5-.148,2.976-.177,4.126a5.121,5.121,0,0,1-1.708-.266c-3.741-1.12-7.042-2.535-8.31,0-.943,1.826-1.767,4.3-.5,6.454a10.157,10.157,0,0,1-4.668-4.7,3.285,3.285,0,0,1-.44-1.77,19.328,19.328,0,0,0,3.132-6.175,21.465,21.465,0,0,0,.089-7.4C941.353,136.894,945.744,141.906,947.866,144.912Z" transform="translate(-884.065 -111.842)" fill="url(#linear-gradient)"/>
      <path id="Trazado_570753" data-name="Trazado 570753" d="M933.844,143.755s.4,8.971,1.279,10.87,7.209,6.779,13.317,5.933c1.638-.873,4.158-5.391,4.445-9.382a53.321,53.321,0,0,0,.054-5.812c.091-.349,1.313-2.788,1.125-3.911s-.51-7.426-2.689-10.182-8.192-4.456-13.591-2.28S933.844,143.755,933.844,143.755Z" transform="translate(-881.354 -123.956)" fill="#febfbf"/>
      <path id="Trazado_570754" data-name="Trazado 570754" d="M940.1,149.185s.519-3.548-1.708-4.177.293,7.671.293,7.671l-1.359,2.1-.078.9s-2.756-4.684-3.513-6.081a10.008,10.008,0,0,1-1.413-3.519c-.3-1.55-1.5-8.192-1.182-10.513s4.3-5.823,7.343-6.078c1.394-1.872,4.249-2.8,7-2.818a11.018,11.018,0,0,1,8.093,2.761c3.3,2.568,3.416,4.6,3.669,5.221a16.762,16.762,0,0,1,.274,3.2l-.363-1.338s-1.308.865-5.385.513a13.455,13.455,0,0,1-6.323-1.982,16.62,16.62,0,0,1,.594,3.954c-.153,1.069-.787,4.373-.787,4.373s-2.095,1.249-2.793,1.738a3.458,3.458,0,0,0-1.026,1.625l-.266,2.834Z" transform="translate(-885.698 -126.211)" fill="#754554"/>
      <path id="Trazado_570755" data-name="Trazado 570755" d="M937.107,135.581s-1.206-3.18-3.639-1.95,1.058,7.577,2.635,7.663,1.284-1.536,1.284-1.536S935.688,137.085,937.107,135.581Z" transform="translate(-883.099 -114.941)" fill="url(#linear-gradient-2)"/>
      <path id="Trazado_570756" data-name="Trazado 570756" d="M958.233,137.374l-.591.765s-10.754,3.153-11.875,3.449c-.5.118-1.386.5-2.68.913a26.591,26.591,0,0,1-6.132,1.209l-4.92.414a21.613,21.613,0,0,1-.824-9.019c.588-3.446,4.628-6.422,9.282-7.778.148-.059.207-.089.207-.089a21.445,21.445,0,0,1,3.36-.647c5.952-.62,9.989,1.885,11.9,4.773A15.257,15.257,0,0,1,958.233,137.374Z" transform="translate(-885.826 -126.495)" fill="#fecb4c"/>
      <path id="Trazado_570757" data-name="Trazado 570757" d="M943.087,141.979a26.591,26.591,0,0,1-6.132,1.209l-4.92.414a21.613,21.613,0,0,1-.824-9.019c.588-3.446,4.628-6.422,9.282-7.778-.795.352-3.771,1.915-4.1,4.891C936.071,134.789,938.341,140.035,943.087,141.979Z" transform="translate(-885.826 -125.973)" fill="#fcf5e8" style="mix-blend-mode: multiply;isolation: isolate"/>
      <path id="Trazado_570758" data-name="Trazado 570758" d="M935.568,136.1s8.592,7.392,11.547,4.413c2.084-2.1,7.255-4.1,9.527-3.427l2.27.674a.559.559,0,0,0,.422-.65c-.062-.553-8.78-6.078-8.78-6.078S947.1,127.354,935.568,136.1Z" transform="translate(-878.146 -120.141)" fill="#725e6d"/>
    </g>
    <g id="Grupo_842228" data-name="Grupo 842228" transform="translate(788.673 272.938)">
      <g id="Grupo_842227" data-name="Grupo 842227">
        <path id="Trazado_570759" data-name="Trazado 570759" d="M1062.467,402.323l113.176-65.342c8.9-5.138,7.776-14.2-2.5-20.136L942.735,183.82c-10.282-5.936-25.975-6.586-34.879-1.445L794.681,247.717c-8.9,5.141-7.778,14.2,2.5,20.136l230.4,133.024C1037.867,406.814,1053.563,407.464,1062.467,402.323Z" transform="translate(-788.674 -155.171)" fill="#e2e2e2" style="mix-blend-mode: multiply;isolation: isolate"/>
        <path id="Trazado_570760" data-name="Trazado 570760" d="M788.674,239.825l7.134,3.04,112.047-64.692c8.9-5.141,24.6-4.488,34.879,1.448l230.4,133.022c.451.261.862.535,1.281.808l7.228-2.119V324.2l-.013.008c-.067,3.218-2.031,6.282-5.992,8.571l-113.176,65.34c-8.9,5.141-24.6,4.491-34.879-1.445l-230.4-133.022c-5.536-3.2-8.391-7.3-8.482-11.208h-.024Z" transform="translate(-788.672 -162.253)" fill="url(#linear-gradient-3)"/>
        <path id="Trazado_570761" data-name="Trazado 570761" d="M1062.467,393.486l113.176-65.342c8.9-5.141,7.776-14.2-2.5-20.139l-230.4-133.022c-10.282-5.936-25.975-6.586-34.879-1.445l-113.176,65.34c-8.9,5.141-7.778,14.2,2.5,20.139l230.4,133.024C1037.867,397.974,1053.563,398.627,1062.467,393.486Z" transform="translate(-788.674 -170.07)" fill="#eff0f5"/>
        <path id="Trazado_570762" data-name="Trazado 570762" d="M797.171,209.484l230.4,133.024c10.279,5.933,25.975,6.586,34.879,1.445l113.176-65.342c3.763-2.173,5.716-5.049,5.96-8.09.261,3.5-1.679,6.884-5.96,9.355l-113.176,65.342c-8.9,5.141-24.6,4.488-34.879-1.445l-230.4-133.024c-5.936-3.427-8.8-7.894-8.463-12.049C788.99,202.482,791.834,206.4,797.171,209.484Z" transform="translate(-788.66 -121.802)" fill="#bfc4d5"/>
        <path id="Trazado_570763" data-name="Trazado 570763" d="M792.286,250.222a16.559,16.559,0,0,0,5.667,5.06l56.105,32.384,71.388,41.21,101.32,58.493c8.6,4.98,21.718,5.525,29.169,1.214l103.426-59.707,7.792-4.494c7.448-4.311,6.5-11.882-2.106-16.859l-34.387-19.857-64.87-37.444L976.9,198.892l-40.643-23.459c-8.6-4.977-21.737-5.5-29.187-1.214L864.34,198.892l-68.471,39.531C790.666,241.437,789.554,246.032,792.286,250.222Z" transform="translate(-785.019 -167.96)" fill="#2a2a2c"/>
        <path id="Trazado_570764" data-name="Trazado 570764" d="M792.674,248.114a10.306,10.306,0,0,0,.72.975,15.4,15.4,0,0,0,4.332,3.529l58.735,33.917,8.12,4.676,63.3,36.528,10.875,6.282,52.767,30.445,35.035,20.227a31.943,31.943,0,0,0,15.611,3.9,24.013,24.013,0,0,0,11.764-2.7l23.185-13.37,77.587-44.79,10.446-6c2.7-1.579,4.131-3.588,4.131-5.767,0-2.842-2.3-5.74-6.226-8.063l-37.073-21.377-64.848-37.447-6.857-3.959-82.092-47.374-11.737-6.771-26.2-15.122a31.714,31.714,0,0,0-15.637-3.873,27.066,27.066,0,0,0-8.667,1.292,14.508,14.508,0,0,0-3.126,1.348l-40.028,23.126-17.187,9.93-53.946,31.132c-2.237,1.292-3.615,2.9-4.015,4.62A5.84,5.84,0,0,0,792.674,248.114Z" transform="translate(-783.906 -166.832)" fill="#3a3f47"/>
        <path id="Trazado_570765" data-name="Trazado 570765" d="M854.4,179.062l31.076,173.482,35.035,20.227a31.943,31.943,0,0,0,15.611,3.9,24.013,24.013,0,0,0,11.764-2.7l23.185-13.37-22.841-127.4-82.092-47.374Z" transform="translate(-677.862 -154.91)" fill="#3e444d"/>
        <path id="Trazado_570766" data-name="Trazado 570766" d="M813.134,206.875,828.111,290.4l63.3,36.528,10.875,6.282-28.809-160.74a14.508,14.508,0,0,0-3.126,1.348l-40.028,23.126Z" transform="translate(-747.435 -166.021)" fill="#3e444d"/>
        <path id="Trazado_570767" data-name="Trazado 570767" d="M796.843,245.958a9.136,9.136,0,0,0,.674.916,14.419,14.419,0,0,0,4.072,3.317l55.2,31.873,7.631,4.394L923.9,320.784l10.22,5.906L983.706,355.3l36.993,21.358a30.033,30.033,0,0,0,14.668,3.666,22.542,22.542,0,0,0,11.055-2.535l21.788-12.565,72.914-42.091,9.814-5.638c2.536-1.483,3.884-3.371,3.884-5.42,0-2.67-2.16-5.393-5.853-7.577l-38.905-22.433-60.94-35.191-6.443-3.72-77.147-44.519-11.028-6.363-24.619-14.211a29.808,29.808,0,0,0-14.695-3.642,25.464,25.464,0,0,0-8.144,1.214,13.878,13.878,0,0,0-2.941,1.268l-17.469,10.881.4,11.136L848.813,221l-16.556-1.018-32.609,17.241c-2.1,1.214-3.4,2.724-3.776,4.343A5.484,5.484,0,0,0,796.843,245.958Z" transform="translate(-776.762 -162.737)" fill="#748acb"/>
        <path id="Trazado_570768" data-name="Trazado 570768" d="M802.187,243.257a9.387,9.387,0,0,0,.62.843,13.366,13.366,0,0,0,3.741,3.046l50.707,29.282,7.013,4.037L918.916,312l9.387,5.426,45.555,26.281,33.985,19.62a27.58,27.58,0,0,0,13.475,3.368,20.719,20.719,0,0,0,10.158-2.329l20.015-11.544,66.984-38.669,9.017-5.176c2.329-1.364,3.569-3.1,3.569-4.98,0-2.452-1.982-4.956-5.377-6.962l-35.741-20.609L1033.958,244.1l-5.922-3.419-70.873-40.9-10.131-5.844L924.414,180.88a27.4,27.4,0,0,0-13.5-3.344,23.382,23.382,0,0,0-7.483,1.115,12.589,12.589,0,0,0-2.7,1.166l-95.967,55.415a6.669,6.669,0,0,0-3.47,3.989A5.048,5.048,0,0,0,802.187,243.257Z" transform="translate(-767.599 -157.482)" fill="#fcfbfa"/>
        <path id="Trazado_570769" data-name="Trazado 570769" d="M814.148,200.875l27.882-16.1c.508-.3.443-.811-.145-1.152h0a2.22,2.22,0,0,0-1.993-.081l-27.879,16.1c-.508.293-.446.811.142,1.15h0A2.221,2.221,0,0,0,814.148,200.875Z" transform="translate(-749.905 -147.688)" fill="#2a2a2c"/>
        <path id="Trazado_570770" data-name="Trazado 570770" d="M842.238,184.577a1.108,1.108,0,0,0-.357-.317,2.229,2.229,0,0,0-1.993-.083l-27.879,16.1a.714.714,0,0,0-.215.2.533.533,0,0,1,.215-.833l27.879-16.1a2.22,2.22,0,0,1,1.993.081C842.353,183.9,842.469,184.284,842.238,184.577Z" transform="translate(-749.9 -147.688)" fill="#3a3f47"/>
        <path id="Trazado_570771" data-name="Trazado 570771" d="M826.454,184.379a6.709,6.709,0,0,0,6.068-.011c1.681-.97,1.689-2.538.019-3.5a6.708,6.708,0,0,0-6.067.011C824.795,181.846,824.784,183.415,826.454,184.379Z" transform="translate(-727.08 -153.082)" fill="#3a3f47"/>
        <path id="Trazado_570772" data-name="Trazado 570772" d="M826.584,183.16a4.242,4.242,0,0,0,3.835-.005c1.061-.615,1.066-1.606.011-2.213a4.236,4.236,0,0,0-3.833.005A1.168,1.168,0,0,0,826.584,183.16Z" transform="translate(-726.089 -152.51)" fill="#516f83"/>
        <path id="Trazado_570773" data-name="Trazado 570773" d="M824.071,185.028a4.737,4.737,0,0,0,4.287-.005,1.308,1.308,0,0,0,.013-2.476,4.746,4.746,0,0,0-4.287.008C822.9,183.242,822.892,184.349,824.071,185.028Z" transform="translate(-730.482 -149.891)" fill="#2a2a2c"/>
        <g id="Grupo_842225" data-name="Grupo 842225" transform="translate(22.429 102.249)">
          <path id="Trazado_570774" data-name="Trazado 570774" d="M799.943,214.973l16.54,9.551c1.348.779,2.452-.056,2.452-1.856h0a5.9,5.9,0,0,0-2.452-4.687l-16.54-9.551c-1.348-.779-2.455.056-2.455,1.856h0A5.9,5.9,0,0,0,799.943,214.973Z" transform="translate(-796.242 -208.138)" fill="#c4c8d8"/>
          <path id="Trazado_570775" data-name="Trazado 570775" d="M799.476,215.263l16.54,9.548c1.348.779,2.452-.056,2.452-1.856h0a5.9,5.9,0,0,0-2.452-4.687l-16.54-9.548c-1.348-.779-2.452.054-2.452,1.853h0A5.9,5.9,0,0,0,799.476,215.263Z" transform="translate(-797.024 -207.65)" fill="#a0a6c0"/>
        </g>
        <g id="Grupo_842226" data-name="Grupo 842226" transform="translate(127.676 162.97)">
          <path id="Trazado_570776" data-name="Trazado 570776" d="M839.129,237.582l16.537,9.548c1.351.779,2.455-.056,2.455-1.856h0a5.892,5.892,0,0,0-2.455-4.687l-16.537-9.548c-1.351-.782-2.455.054-2.455,1.853h0A5.9,5.9,0,0,0,839.129,237.582Z" transform="translate(-835.425 -230.746)" fill="#c4c8d8"/>
          <path id="Trazado_570777" data-name="Trazado 570777" d="M838.664,237.87l16.54,9.548c1.348.779,2.452-.056,2.452-1.856h0a5.9,5.9,0,0,0-2.452-4.687l-16.54-9.548c-1.351-.779-2.455.056-2.455,1.856h0A5.892,5.892,0,0,0,838.664,237.87Z" transform="translate(-836.209 -230.258)" fill="#a0a6c0"/>
        </g>
        <path id="Trazado_570778" data-name="Trazado 570778" d="M908.549,253.041c0,1.539.951,2.248,2.106,1.579l14.208-8.176a5.1,5.1,0,0,0,2.106-4.029c0-1.539-.953-2.267-2.106-1.6l-1.4.811-12.812,7.389a4.854,4.854,0,0,0-1.964,2.933A4.142,4.142,0,0,0,908.549,253.041Z" transform="translate(-586.576 -51.217)" fill="#a0a6c0"/>
        <path id="Trazado_570779" data-name="Trazado 570779" d="M908.6,251.284l12.812-7.408a4.809,4.809,0,0,0,1.964-2.914l-12.812,7.389A4.854,4.854,0,0,0,908.6,251.284Z" transform="translate(-586.486 -50.553)" fill="#191f28"/>
      </g>
    </g>
    <g id="Grupo_842234" data-name="Grupo 842234" transform="translate(838.947 202.247)">
      <g id="Grupo_842231" data-name="Grupo 842231" transform="translate(40.863)">
        <ellipse id="Elipse_7075" data-name="Elipse 7075" cx="61.943" cy="107.293" rx="61.943" ry="107.293" transform="matrix(0.005, -1, 1, 0.005, 0, 248.541)" fill="#becdd4" style="mix-blend-mode: multiply;isolation: isolate"/>
        <g id="Grupo_842230" data-name="Grupo 842230" transform="translate(0.82)">
          <circle id="Elipse_7076" data-name="Elipse 7076" cx="117.453" cy="117.453" r="117.453" fill="url(#linear-gradient-4)"/>
          <circle id="Elipse_7077" data-name="Elipse 7077" cx="107.425" cy="107.425" r="107.425" transform="translate(10.028 10.028)" fill="url(#linear-gradient-5)"/>
          <g id="Grupo_842229" data-name="Grupo 842229" transform="translate(18.118 142.06)">
            <path id="Trazado_570780" data-name="Trazado 570780" d="M829.667,196.645c-.019-.008-.008,0-.008,0Z" transform="translate(-829.656 -196.642)" fill="#869741"/>
          </g>
          <path id="Trazado_570781" data-name="Trazado 570781" d="M903.445,151.806a107.37,107.37,0,0,1,27.45-4.308l.376.54-3.078,2.407v2.5l-.736,2.2-3.078,1.869-2.745,2.442-1.872,4.3-2.745,4.064-1.74,5.409-.6,1.1-1.808.083-.6-.591-.542-1.1-1.329-.169-.937.591-1.74.424-.8-1.945-.6-1.523.2-1.351v-1.606l-.937-1.945-.6-1.942v-2.366l-1.072-1.859s-.2,1.859-.2-2.874C903.7,151.559,900.63,156.09,903.445,151.806ZM1038.806,260.15l-2.675,1.695-3.838-1.429.594-2.235.3-3.3-.932-.58-.763,1.187s-1.426,2.871-1.426.642V253.9l.661-1.391-1.211-2.267-1.5-3.032-.054-3.11.766-.29.36-1.418,1.072,1.429.967-1.171,1.977,6.406,1.781,1.993,1.359,1.751,1.211,1.4,1.627,1.488,1.115-1.515,1,1.238c0-.175.008-.352.008-.526A107.347,107.347,0,0,0,990.412,163.6l-1.587,1.053-1,2.189-1.238.607-1.4,1.158-1.515-1.429s1.566-.964-.357-.7l-1.92.263-4.236,1.424-.446-.269-.064-2.369-1.631-.218-1.85,1.219-1,.387.379-.87.5-.357.016-.736h-.76l-.58.156-.287-.346.287-.478-.465-.8-.086-.827.462-.645.881-1.018.266-.766s-.3.064-.188-.671l.113-.736.537-.328.36-.776.021-.757-.338-.285-.588.1-.417.733-.669.253-.505-.153-.209-.277-.6.223-.134.338-.594.282-.478.25s.123.2,0,.913l-.121.709-.457.986.081,1,.252.87-.357.357-.244.825s.333.559.623.223l.29-.333.425.2-.379.58-.312.024-.134.577.647.113-.269.534s-.156-.532-.559.091l-.4.623-.446-.177-.113-.336-.18-.478s-.11-.226-.467.048l-.355.274-.4-.043-.357.11-.169.389-.61.145-.671-.156s.3.075.013-.252l-.279-.328-.827.177-.4.467-.142.207-.755.33-.067.207-.022.44-.247.669-.72.65-.483.623-.336.333-.6.18-.467-.064-1.072.62-.6.513-.58-.089-.626-.145-.535.637.379.357-.266.645-.336.357-.937.647-.419-.132-.709.019-.3.089-.47.43.032.44,0,.36-.58.022-.336-.247-.446-.223-.58.024-.113-.279.08-.132.21-.234-.064-.328-.3-.15-.408-.121-.28-.25-.067-.3-.242-.239v.239l-.126.357-.137.346.156.543.032.365.252.161-.078.293-.083.384.024.244-.153.191-.027.234-.212.207-.344-.14-.715-.277-.475.167-.167.035-.067-.309.067-.207-.454-.277-.476-.051-.33.035-.3.167h-.607l-.529-.132-.3.016-.459.153-.167.212.167.406s-.075.048.177.188l.25.14-.3.21-.07.328.164.118-.239.516.314.156.4,0,.3-.1.177.118.314.038.5.387.143.263.247.064s-.024-.027.075.29l.1.314.314.046.427-.159-.062.253-.191.185.016.32.209.228.419.158.089.252-.239.228-.191.384.046.408.215.271.231.234.027.338.306.075.36.279.14.389-.234.261-.309.559.215.427-.1.328-.269.577-.083.682-.389.344-.247.9-.081.72-.567.838-.252.685-.229.328-.465.064-.191-.126s-.086-.048-.363.027l-.28.073-.352-.2-.223-.432-.228-.073-.207.228-.287.075-.567-.5h-.6l-.441-.091-.757,0-.516-.164-.263-.228-.252-.212-.553-.075-.459.011-.6-.089-.357-.3-.462-.25-.43.075-.529.013-.062-.277s.462-.137-.153-.373l-.618-.234-.475.019-.306.212-.277.282.027.282s0,.075-.175.1l-.177.024-.47-.129-.736.3-.306.408.1.6.314.212.045.395.18.121-.287.2-.4.932-.2.83v1.287l-.1.54-.239,1.174-.4,1.2-.457.381-.733,1.069-.687.854-.529,1.185.3,1.171.6.11.365.218-.013.3-.352.427-.481.655.013.744-.314.478.016.486-.494.674.188.239.392-.258.747-.266.25.148.236.223.87.14.263-.416.448-.156.108.156.048.328.954.454.067.355-.067.5.132.529.011.4.236.346.137.183.043.5.336.25.457.067.416-.239.47-.116.36-.44.457-.44.451.124.532.1.843-.1,1.171.038.653.424.591-.1.446.016.263.013.231-.346.175-.21.223-.714,1.109-.492.368.185.236.177.365.04.062-.239s-.014.03-.014-.3l0-.325.067-.317.368-.577.287-.371.336-.161.274-.083.524-.048.038-.414.553-.191.013-.328-.416-.414-.384-.263,0-1.206.368-.478.664-.569,1.633-1.542.107-.647.161-.371.416-.1.849-.013s.14.2.508-.145l.368-.344.733-.081.462-.2.266-.373.87-.277.277-.317-.014-.712.14-.634-.126-.492.311-.725.331-.36.352-.4.411-.027.169-.2s-.075-.1.215,0l.29.1.414.252.72.322.567.07.489.379.682.376.553.239.908-.252.239-.365.379.075.2.223s.038.25.226.2l.186-.046.3-.091.314-.575.25-.352.424-.492.2-.333.535-.118.124-.054.25-.255.806-.126.2.094.191.368.239.282s-.491.2-.037.529l.454.328.314-.03.266.355-.228.744.2.642.344.279-.177.467-.2.252-.269.072-.3-.013-.231.365.126.239.328.191.427.137.339-.661.166.158.175.363.341.368-.089.618.089.389a.993.993,0,0,1,.628-.013l.3.113-.2.365.226.341.252.344.2-.03.013.822.478.465.706.188.011.376.529.153.357.416.411.857.392.314.478.226-.379.548.322.059.459.059.314.279-.075.655.454.352-.078.414.591.2.306.094.137.731.115.97-.279.478.242.607-.191.389-.263.086-.191.771-.314.113-.561.013-.333.277-.529-.064-.4-.188-.626.352s.11.14-.671-.1l-.781-.239s.443-.341-.263-.567l-.707-.228-.239.188s.191-.577-.365-.15l-.553.43.067.8.046.671.865.266.535.618.575.492.521.54.322.252.344.763.527.29.6.067.207-.623.483-.7-.29-.594.078-.7.387-.61.336-.365.26.3v.29l.352.188.389.2.089-.44.062-.446.43-.261.225.188.266-.113.075-.314s-.5-.019-.048-.623l.454-.607.338-.081.115.212.137.091.314-.3-.067-.5.419-.72-.075-.414-.491-.126-.543-.365-.075-.5-.075-.346.827-1.1.177-.22.382.016-.126.306.129.282.588.153-.008.172.26.107.188-.177.089.68.126.693.454.252.352-.478.067-.771-.172-.787-.664-1.214-.918-.591-.215-.594-.715-.239-.72-.29-.392-.618-.024-.314.567.089.067-.317.1-.6-.43-.317-.83-.038-.314-.1-.43.038-.252-.277-1.208-2.143-.075-.956-.252-.693.118-.569-.6-1.018-.768-.3-.379-.682-.277-.365.118-.723-.054-.6.578-.024.137-.153-.07-.693-.282-.075,0-.389.148-.274.43.011.266.035.376-.553.252.04.3-.091.164.177-.048.406s-.672.2-.167.438l.5.239.175.191-.059.591-.293.314.4.535.282.059.215-.419.15.354-.032.306.107.287.36.07.209-.027.113-.787.465.782.29.516-.3.341-.239.322-.032.357.148.263.849.381.435.588-.129.373.164.411.172.242.056.349.459.032s.4-.387.271.132-.005.33-.126.516l-.118.185.207.193.758.212.314-.2.768.215s.317-.016.491.467l.175.481.781.854s.462-.325.519.44l.054.763.059.446.5.2.207.021a2.7,2.7,0,0,1-.54.8l-.223.126.091.462-.121,1.125-.242.537-.2.822.352.2.1.392h.491l.086.451-.024.2-.416.051-.051-.239-.277.365s-.188-.051-.048.365.123.341.123.341l.417.44.706.164.164.44.567.6.013.266s-.58-.467-.266.516.306.927.306.927l.083.422.693.212.086-.314.819.314.733.355.467-.038.2.3.516.054.29-.164-.013.768-.038.422.529.322.352.024.408.766.551-.148-.29-.642-.3-.392-.011-.483.151-.121.3.655.682.328.3-.416.177-.15-.064-.6-.814-.1-.121-.175-.121-.693-.328-.392-.314-.416.024-.352-.454-.328-.43-1.673-.419-.395-.226-.677-.186-.717.164-.556h.2s.11-.043.177.164l.064.21.5.553.188.247.618-.013.325-.271.236-.228.293-.446.481-.215.113-.451.478-.215h.642l.3.395.389.223.36.328.768-.191.062.43s-.814-.153-.132.338l.682.492.446-.011.011.15-.151.492-.164.188-.3.226-.212-.279-.449.1-.08.3-.021.65.056.494-.086.4-.255.107-.228.046-.414.344.215.252.164.239.5.218.333-.04.164.126.314-.274-.212-.521.379-.51.29-.027.288.172-.239.6-.277.556.3.389-.365.3-.392.164-.39-.212-.3.14-.309-.04-.239-.226-.252.338-.064.443s-.228.548.038.629l.263.078.263.054.167-.422.255-.185.174.387.062.626s.04.338.263.25l.226-.089.457-.019.529.443-.226.389-.242.137-.577-.263-.333.134-.1.483.027.389.25.215.416-.188.1.137-.048.529.427.177-.339.226s.172.15-.067.36l-.236.212-.365.121-.107.483-.32.475.655-.04.25-.435.226-.183.266-.553.693-.1s.854-.113.543.137l-.312.253-.368.038-.277.408.2.285.577-.089-.115.516s.073-.346-.333.148-.408.422-.408.422l-.037.365.027.314.344.234.725-.36-.089-.285.282-.5.051-.706.529-.209.008.529.417.341.188-.115.379-.277v.543l-.277.427.188.594.591.371.527.2.33.209.491-.062.322-.518.322-.481-.089-.784.484-.419.537.118.3.406,1.305.647.021.567.492.79,1.338.623.524-.255.408.239.679.279.3-.859.3-.333.626-.51.322.7.57.218.585.167.218-.4.416-.47.282.116.422.188-.118.451-.586.172-.15.58.019.435-.5.851-.15.688.6,1.171-.564.465.043.416.236.473-.534.454-.822,1.738-.218,1-.556.765-1.332,3.752-.838.669-.72.016s.118-.416-1.22-.134l-1.34.285-.8-1.673-.819-.266-.634-.467-1.228.126-.68.513-1,.395-.588.569-.771-.067-.451-.819-.986-.183-2.21-1.614-2.965-.612-1.257-2.047-2.436-.9-1.332-2.24-2.27.553-2.084.349.067,2.409-.277,2.251-1.609.344-1.238-1.477-1.093-1.786-2.256-.14-1.424-2.138.266-1.8-1.853-.811-1.84-.255-3.2-1.544-1.418-2.753,1.284-2.264.905-.978-.395-2.138,1.477-2.638-1.251-.671-.868.535-.333-1.1s.733-.972-1.743-.169l-2.476.8-2.031-.816-2.92-.857-5.914.328-4.193,1.16-2.186,1.133-2.506-.685-1.6-1.4-1.093.744-.849-1.077h-1.182l-.9,1.794-1.34,1.732-2.836,1.483-3.04,1.95-1.322,3.634.384,2.253-2.073,2.809-2.871,1.426-3.376,1.187-1.442,2.275-2.616,1.2-1.109,3.771-2.839,2.318-1.733,3.7-1.947,2.326.269,1.84,1.671.569-.986,1.907-.4,1.426.212,2.662-1.136,3.164-.895,1.848-.344,1.265-1.9,2.53.959,3-.959,2.2-.422,2.135.98,1.824,1.077-.32.553,2.108,1.187,2.928.685.317-.357,4.536,2.409,4.083,2.3,3.14,2.116,3.954,2.275,2.208,2.409-.6,1.042-1.171,4.05.279,1.665,1.963,2.009.6.895-1.375.91.572,2.35-1.63,2,.158,4.7-.58,2.261.712.408,3.03-.14,2.326,1.635.709.792-.422,2.925.212,1.738,1.574.373,2.75-.639,4.007-1.023,1.187-.158,1.923-1.429,1.775-.736,3.548,3.28,9.368,1.4,2.742-1.695,1.606,1.915,5.007-1.05,2.638,1.187,5.205-1.249,3.835-1.891.768-2.3,2.087-.6,4.295-1.187,3.814-.526,3.148.792,2.9.207,1.429a106.841,106.841,0,0,0,55.031-19.2l-.051-3.344,1.319-.849-1-2.294,2.611-4.692,1.9-3.825,1.845-1.238,1.477-1.268,1.22-2.965,3.658-2.412,3.825-2.928,3.768-2.955,3.059-4.007,1.872-2.53,2.267-4.51,1.926-3.032.792-2.162,1.343-.792.642-1.305-.983-.513.634-2.216.551-.349-1.424-.389-.384-.548-.433,1.128-.835.387-1.246.274-.9.027-1.74-.545-2.073.134-1.206,1.539-1.74-1.4-1.2.937-1.942-.534.043-1.577-.577-.833h-1.2l.346-.964.8-.261.637-.588-.247-.731.32-1.7-1.026-.462-.967-.849.07-1.209-.792-1.37-.215-1.042-1.05-.962-1.292-.639-1-1.738.129-2.9-.6-.98.465-2.377-1.2-.9-1,.2-1.872-9.637.1-9.8-3.048-6.532-1.338-7.228,1.51-.768,3.322,4.746,1.083,2.479a33.371,33.371,0,0,1,2.189,8.544l.73,5.342,2.619,7.786,4.606,8.007-1.523,6.288,1.523,6.559,6.1-.733,7.016-2.267,3.244-1.636v-2.5l4.851.26,2.17-1.421.773-.913a107.622,107.622,0,0,0,2.568-21.589ZM882.13,160.667v.355L884,162l1.695.357s.723,1.23,1.783-.983l1.064-2.21,1.292-1.241,1.929-.653-1.16,3.658,1.077,1.636,1.063,1.4-2.229,2.229.892,1.783,1.606.357.25,1.061,2.27.765.368.975-.567,1.214.177.983,1.759.623-1.37,2.321.414,1.426a3.007,3.007,0,0,0-3.1.685l-1.268,1.367-1.1-.1-2.9,1.636-.723.964-3.3-.177L883.561,181l-3.75-.349-1.894,1.112-1.319,1.117-3.838.626-.892,1.695L870.8,186.54l-2.589,1.963H870.8l2.318-1.963,1.606-1.518,1.518-.8,1.426-.357,1.16-.177,2.2.059,1.1.3-1.426,2.052-2.232,1.426-.177,1.606,1.418,1.762,2,1,.553-.395,1.716-1.133.645-2.127h1.961s-1.974,1.389-1.313,2.154l.658.763-.594,1.633-2.017.478-.583,1.128-2.753.446-1.778-.258-.739,1.268-2.006,1.4-1.722,0,.089-1.338,2.321-1.072.5-1.284s-.1-1.555-1.238-.371-1,.87-1,.87l-1.531.712-2.372.739-1.407-.22s-.446-.623-1.783,1.429l-1.338,2.052.231.986-1.168.263.938,1.2,1.364-.465.2,1.179-.669.58-1.16.312-.757.046-.849-.492-.357-.177-2.275.223-.534,1.072,1.295.757-1.117.626-1.606.089-.134,2.141-1.872.892-.312,1.072-.76-1.249-.669-.537.311,1.252.75,1-.661,1.08-.9,1.082-.921,1.16s-.661.317-.132-.924.924-.446.526-1.238l-.395-.792s.36-3.6-.339-.115c-.368,1.837-.822,1.818-1.021,1.676a4.946,4.946,0,0,1,.325.553c.175.333.287.569.363.741.242-.005.577.175.645,1.179l.107,1.6-1.294.626.054,1.147-.677.817-.715-.314-.18.894-.757.8-.8.046-.757.669-.446.983-1.117.177-.585.516-.886,1.493-2.452,1.472s-.849-.937-1.34,1.292a12.144,12.144,0,0,1-.489,2.052l-.626,1.16.357,1.74.269,1.829-.4.937.669.757-.266,1.249.134,1.829.669.849-.669,1.426-.983,1.072-.075,1.174-.862.344-.757-.626-.492-1.512-.669-.808V238.6l-.067-.908a1.735,1.735,0,0,1-.556-1.5l.177-.846.642-1.818.027-1.663-.687-.132-1.1-1.295-.446-.8-.669.492.043.535-.043.669-.8.134-.572-1.1L834,229.59l-1.193-.44-.1.44-.951-.282-.7.462-.749-.25.314-1.136s-.814-.535-.814.046v.58l-.32.035A107.628,107.628,0,0,1,882.13,160.667Zm8.737,192.726a107.72,107.72,0,0,1-59.624-66.347l.019-.185.269-.32.9-.384.107-.449-.373-.371-.035-.569.067-.1.384-.15.325-.26-.124-.709.151-.671.553-.317.618-.317.5-.32-.067-.451c-.067-.451.134-.551.134-.551l1.053-1.238-.25-.185-.419.32-.435-.236a1.1,1.1,0,0,0-.18-.086s.046-.032-.153-.263c-.4-.47.183.234.048-.419s.051-.586.051-.586l.4.2.3-.1-.035-.634.518-.336-.183-.8a3.465,3.465,0,0,0-.284-.937l-.151-.669.2-.317.33,0,.027-.58-.408-.411-.067-.518.344-.44-.075-1.031-.486-.953-1.139-1.389.051-1.037.016-.921-.425-.234-.244-.569-.6-.142-.537.075-.486,1.558-.532.054-.371.046-.314.22.381.416-.185.2c-.183.2.516.6.516.6l.172.459-.135.3-.3.5-.336.116-1.037-.048-.336-.285c-.333-.285.151-.7.151-.7l-.685.03.016.591-.411.145-.392-.247.016-.467.113-.338.236.078.212-.475.175-.435-.451.134-.451-.234-.285-.47-.064-.021c-.132-1.056-.244-2.119-.344-3.183l.376.344c.417.384,0,.4,0,.4l.115.416.47-.048a2.076,2.076,0,0,0,.468-.067l.419.15.15.551h.57l.736-.567.234-.454.771-.116.317-.234.167-.435c.167-.435.2-.368.2-.368l.486.132.634.046-.083.373.185.185.669-.118,1.037.317.468.87.787,1.072.269.835-.134.62c-.134.618.419.317.419.317l.416-.384-.134-.6-.368-.454.118-.349.118-.32.717-.306.252-.881.787-.5.551-.067-.051-.352-.167-.784.284-1.875.637-.534.569-.6h.317l.591.376.228-.193-.167-.752.618-.3.518.368.938.032.569-.685.3-.553.819-.183.1-.553.4-1.069,1.144.261.561.843-.218.9-.551.669-.838.051.086.768.483.336.269-.72.419.7.3-.72.886-.083.5-.2.048-.451-.333-.72V258.8l.451-.586c.451-.586.553.086.553.086l.317.717c.317.72-.317.368-.317.368l.134.586,1.214.341,1.74.68-.448,1.034.448.688,1.818-.185.929-.33,1.84,1.6h.948l.843-1.211-1.021-1.254.868-.736,1.407-.2h1.072l1.8.937-1.8,1.338.655.865,1.083.005,1.407-.134,1.069,1.407-.607.779-.8,1.362,2.493,1.222,1.792,4.064,1.606.8,3.078,1.472,2.141,3.078-.269,4.418-1.74,5.753v3.212s0-3.212,2.009,4.15L876.2,297l3.078,1.74-1.472,2.275-.937,2.812.938,2.8h3l.481,2.82.534,3.75.8,1.338,2.141.937-.4,4.684,1.472,7.494-2.479,4.55,1.37.462,2.4,2.35-.62,2.807-3.151,2.006,1.407,1.743,3.347,2.143,2.275,2.275.465,5.753A10.552,10.552,0,0,1,890.867,353.393Z" transform="translate(-816.315 -137.432)" fill="url(#linear-gradient-6)"/>
          <ellipse id="Elipse_7078" data-name="Elipse 7078" cx="14.692" cy="25.761" rx="14.692" ry="25.761" transform="matrix(0.612, -0.791, 0.791, 0.612, 135.994, 42.49)" fill="#7dd171" style="mix-blend-mode: screen;isolation: isolate"/>
          <path id="Trazado_570782" data-name="Trazado 570782" d="M934.069,147.484a107.425,107.425,0,1,0,107.425,107.425A107.426,107.426,0,0,0,934.069,147.484ZM873.978,312.932c-39.821-39.359-42.529-101.18-6.062-138.084s98.32-34.917,138.141,4.442,42.536,101.18,6.059,138.074S913.8,352.281,873.978,312.932Z" transform="translate(-816.615 -137.456)" fill="#d1e89b" style="mix-blend-mode: multiply;isolation: isolate"/>
        </g>
      </g>
      <path id="Trazado_570783" data-name="Trazado 570783" d="M918.312,173.967c10.453,2.264,20.743,5.181,30.544,11.087,4.843,2.981,9.785,6.752,13.336,12.726,3.58,5.973,4.319,14.4,2.181,21.1-4.472,13.344-13.086,21.954-21.355,29.811a166.434,166.434,0,0,1-13.046,10.835c-2.227,1.679-4.456,3.427-6.723,4.961l-3.4,2.374-1.706,1.187c-.559.419-1.381.3-.548,3.478l-17.321-34.178c1.982,2.568,2.3,1.845,2.893,1.657l1.735-.634,3.478-1.27c2.364-.816,4.566-1.775,6.833-2.7a140.926,140.926,0,0,0,13.1-6.038c8.224-4.332,16.344-9.618,19.98-15.664a11.472,11.472,0,0,0,1.531-9.151c-.961-3.438-3.639-7.169-7.018-10.429-6.97-6.4-16.158-11.6-25.537-15.259Z" transform="translate(-650.797 -92.808)" fill="#ffc536"/>
      <g id="Grupo_842233" data-name="Grupo 842233" transform="translate(194.328 116.722)">
        <g id="Grupo_842232" data-name="Grupo 842232">
          <path id="Trazado_570784" data-name="Trazado 570784" d="M894.487,264.029l39.6-22.865V195.721l-39.6,22.865Z" transform="translate(-854.884 -172.856)" fill="#c99a6b"/>
          <path id="Trazado_570785" data-name="Trazado 570785" d="M934.09,195.721l-39.6,22.865,21.369-11.432Z" transform="translate(-854.884 -172.856)" fill="#87623f"/>
          <path id="Trazado_570786" data-name="Trazado 570786" d="M919.345,264.029l-39.6-22.865V195.721l39.6,22.865Z" transform="translate(-879.742 -172.856)" fill="#ae835b"/>
          <path id="Trazado_570787" data-name="Trazado 570787" d="M919.345,232.937l-39.6-22.865,39.6-22.865,39.6,22.865Z" transform="translate(-879.742 -187.208)" fill="#e8b687"/>
          <path id="Trazado_570788" data-name="Trazado 570788" d="M901.131,220.656l6.363-3.674V199.029l-6.363,3.674Z" transform="translate(-843.682 -167.278)" fill="#d9af84"/>
          <path id="Trazado_570789" data-name="Trazado 570789" d="M925.989,217.055l-39.6-22.865,6.363-3.674,39.6,22.864Z" transform="translate(-868.54 -181.629)" fill="#ebcbab"/>
          <path id="Trazado_570790" data-name="Trazado 570790" d="M879.742,195.721l39.6,22.865-21.369-11.432Z" transform="translate(-879.742 -172.856)" fill="#87623f"/>
          <path id="Trazado_570791" data-name="Trazado 570791" d="M892.086,220.8l-6.364-3.674V199.173l6.364,3.674Z" transform="translate(-869.661 -167.036)" fill="#9c754e"/>
          <path id="Trazado_570792" data-name="Trazado 570792" d="M892.086,217.2l39.6-22.865-6.363-3.674-39.6,22.865Z" transform="translate(-869.661 -181.387)" fill="#54493e" style="mix-blend-mode: screen;isolation: isolate"/>
          <path id="Trazado_570793" data-name="Trazado 570793" d="M887.27,214.419l39.6-22.865-.438-.253-39.6,22.865Z" transform="translate(-867.789 -180.307)" fill="#d1a986"/>
          <path id="Trazado_570794" data-name="Trazado 570794" d="M892.086,202.847v.741l-3.879-2.075-2.484-1.558v-.782Z" transform="translate(-869.661 -167.036)" fill="#ae835b"/>
        </g>
        <path id="Trazado_570795" data-name="Trazado 570795" d="M904.654,201.575l-3.523,1.885V202.7l6.363-3.674v.764Z" transform="translate(-843.682 -167.278)" fill="#ae835b"/>
      </g>
      <path id="Trazado_570796" data-name="Trazado 570796" d="M1023.855,260.2a13.77,13.77,0,0,1-11.587,16.69,480.686,480.686,0,0,1-60.041,4.44c-24.968.185-50.143-1.59-74.783-7.284A173.255,173.255,0,0,1,841.5,261.629a120.91,120.91,0,0,1-16.631-9.575c-5.323-3.7-10.776-8.162-14.418-14.638a24.679,24.679,0,0,1-3.038-10.87,24.206,24.206,0,0,1,2.275-10.749c2.9-6.5,7.521-11.3,12.242-15.557,9.656-8.367,20.45-14.458,31.769-19.6l1.719,3.645c-10.413,5.759-20.558,12.672-28.691,21-3.983,4.16-7.572,8.8-9.229,13.666a14.344,14.344,0,0,0,1.467,13.443c5.589,7.948,17.149,13.2,27.651,17.552a159.422,159.422,0,0,0,33.826,8.81c23.252,3.51,47.129,3.379,70.784,1.364a457.378,457.378,0,0,0,59.632-9.288,10.5,10.5,0,0,1,12.64,7.824Z" transform="translate(-807.391 -81.56)" fill="#ffc536"/>
    </g>
    <g id="Grupo_842238" data-name="Grupo 842238" transform="translate(964.11 109.053)">
      <g id="Grupo_842237" data-name="Grupo 842237">
        <g id="Grupo_842236" data-name="Grupo 842236">
          <path id="Trazado_570797" data-name="Trazado 570797" d="M908.149,110.321l-.022.027c-5.74-2.39-13.209-1.55-21.4,3.18-18.084,10.44-32.738,35.717-32.738,56.466,0,28.237,32.738,60.357,32.738,60.357l9.739,4.813,21.6-119.914Z" transform="translate(-853.991 -109.053)" fill="#ff4c4a"/>
          <g id="Grupo_842235" data-name="Grupo 842235" transform="translate(9.739 4.788)">
            <path id="Trazado_570798" data-name="Trazado 570798" d="M890.355,115.333c18.084-10.44,32.738-2.084,32.738,18.664,0,28.237-32.738,98.161-32.738,98.161s-32.739-32.121-32.739-60.357C857.617,151.05,872.271,125.773,890.355,115.333Z" transform="translate(-857.617 -110.836)" fill="#ff4c4a"/>
            <ellipse id="Elipse_7079" data-name="Elipse 7079" cx="26.737" cy="15.436" rx="26.737" ry="15.436" transform="matrix(0.505, -0.863, 0.863, 0.505, 5.922, 57.349)" fill="#fcfbfa"/>
          </g>
        </g>
        <path id="Trazado_570799" data-name="Trazado 570799" d="M860.211,172.894c0-20.27,14.316-44.959,31.978-55.158,17.474-10.088,30.568-2.686,30.875,17.1.005-.277.03-.572.03-.843,0-20.749-14.654-29.1-32.738-18.664S857.617,151.05,857.617,171.8c0,28.237,32.739,60.357,32.739,60.357h0C890.35,232.153,860.211,200.473,860.211,172.894Z" transform="translate(-847.878 -106.047)" fill="#ff8685"/>
      </g>
    </g>
  </g>
</svg>
