<svg xmlns="http://www.w3.org/2000/svg" width="52" height="52" viewBox="0 0 52 52">
  <g id="Grupo_845314" data-name="Grupo 845314" transform="translate(-1250.697 -3576.965)">
    <g id="Trazado_582589" data-name="Trazado 582589" transform="translate(1250.697 3576.965)" fill="#fff">
      <path d="M 26 49.5 C 22.82641983032227 49.5 19.74909973144531 48.87900924682617 16.8535099029541 47.65428161621094 C 14.05543994903564 46.47079849243164 11.54199981689453 44.77600860595703 9.382989883422852 42.61700820922852 C 7.223989963531494 40.45800018310547 5.529200077056885 37.94456100463867 4.345719814300537 35.14648818969727 C 3.120990037918091 32.25090026855469 2.5 29.17358016967773 2.5 26 C 2.5 22.82641983032227 3.120990037918091 19.74909973144531 4.345719814300537 16.8535099029541 C 5.529200077056885 14.05543994903564 7.223989963531494 11.54199981689453 9.382989883422852 9.382989883422852 C 11.54199981689453 7.223989963531494 14.05543994903564 5.529200077056885 16.8535099029541 4.345719814300537 C 19.74909973144531 3.120990037918091 22.82641983032227 2.5 26 2.5 C 29.17358016967773 2.5 32.25090026855469 3.120990037918091 35.14648818969727 4.345719814300537 C 37.94456100463867 5.529200077056885 40.45800018310547 7.223989963531494 42.61700820922852 9.382989883422852 C 44.77600860595703 11.54199981689453 46.47079849243164 14.05543994903564 47.65428161621094 16.8535099029541 C 48.87900924682617 19.74909973144531 49.5 22.82641983032227 49.5 26 C 49.5 29.17358016967773 48.87900924682617 32.25090026855469 47.65428161621094 35.14648818969727 C 46.47079849243164 37.94456100463867 44.77600860595703 40.45800018310547 42.61700820922852 42.61700820922852 C 40.45800018310547 44.77600860595703 37.94456100463867 46.47079849243164 35.14648818969727 47.65428161621094 C 32.25090026855469 48.87900924682617 29.17358016967773 49.5 26 49.5 Z" stroke="none"/>
      <path d="M 26 5 C 20.39069938659668 5 15.11713409423828 7.184379577636719 11.1507568359375 11.1507568359375 C 7.184379577636719 15.11713409423828 5 20.39069938659668 5 26 C 5 31.60930061340332 7.184379577636719 36.88286590576172 11.1507568359375 40.8492431640625 C 15.11713409423828 44.81562042236328 20.39069938659668 47 26 47 C 31.60930061340332 47 36.88286590576172 44.81562042236328 40.8492431640625 40.8492431640625 C 44.81562042236328 36.88286590576172 47 31.60930061340332 47 26 C 47 20.39069938659668 44.81562042236328 15.11713409423828 40.8492431640625 11.1507568359375 C 36.88286590576172 7.184379577636719 31.60930061340332 5 26 5 M 26 0 C 40.35939788818359 0 52 11.64059829711914 52 26 C 52 40.35939788818359 40.35939788818359 52 26 52 C 11.64059829711914 52 0 40.35939788818359 0 26 C 0 11.64059829711914 11.64059829711914 0 26 0 Z" stroke="none" fill="#68e3c1"/>
    </g>
    <path id="Trazado_582922" data-name="Trazado 582922" d="M9.086,12.514h1.553a1.614,1.614,0,0,0,1.846-1.807,1.562,1.562,0,0,0-.439-1.147,1.666,1.666,0,0,0-1.24-.444A1.784,1.784,0,0,0,9.667,9.5a1.162,1.162,0,0,0-.483.947H5.893a3.369,3.369,0,0,1,.625-2A4.127,4.127,0,0,1,8.251,7.069a5.926,5.926,0,0,1,2.437-.493,5.823,5.823,0,0,1,3.73,1.084,3.6,3.6,0,0,1,1.357,2.979,3,3,0,0,1-.562,1.733A4,4,0,0,1,13.578,13.7a3.823,3.823,0,0,1,1.777,1.245A3.279,3.279,0,0,1,16,17.006a3.669,3.669,0,0,1-1.465,3.047A6.08,6.08,0,0,1,10.688,21.2a6.306,6.306,0,0,1-2.593-.532,4.062,4.062,0,0,1-1.812-1.475,3.834,3.834,0,0,1-.615-2.144H8.979a1.482,1.482,0,0,0,.527,1.133,1.862,1.862,0,0,0,1.3.479,1.95,1.95,0,0,0,1.387-.483,1.616,1.616,0,0,0,.518-1.235,1.889,1.889,0,0,0-.537-1.523,2.245,2.245,0,0,0-1.484-.449h-1.6Z" transform="translate(1265.697 3589.965)" fill="#12263f"/>
  </g>
</svg>
