<svg xmlns="http://www.w3.org/2000/svg" width="295.28" height="576.314" viewBox="0 0 295.28 576.314"><g transform="translate(-915 -4662.871)"><g transform="translate(915 4662.871)"><g transform="translate(1.978)"><rect width="291.032" height="576.314" rx="41.114" fill="#455a64"/></g><g transform="translate(6.563 4.586)"><rect width="281.86" height="567.144" rx="36.055" fill="#263238"/></g><g transform="translate(101.126 16.275)"><g transform="translate(22.318)"><path d="M2366.04,206.621c-4.186.058-4.207-6.533,0-6.474h41.623a3.237,3.237,0,1,1,0,6.474Z" transform="translate(-2362.893 -200.147)" fill="#455a64"/></g><path d="M2341.428,206.621c-4.2.058-4.2-6.533,0-6.474C2345.624,200.089,2345.624,206.68,2341.428,206.621Z" transform="translate(-2338.279 -200.147)" fill="#455a64"/><g transform="translate(11.912)"><path d="M2354.565,206.621c-4.2.058-4.2-6.532,0-6.474C2358.762,200.089,2358.762,206.679,2354.565,206.621Z" transform="translate(-2351.417 -200.147)" fill="#455a64"/></g><g transform="translate(86.438)"><path d="M2436.758,206.621c-4.2.058-4.2-6.533,0-6.474C2440.954,200.089,2440.955,206.679,2436.758,206.621Z" transform="translate(-2433.61 -200.147)" fill="#455a64"/></g><g transform="translate(74.526)"><path d="M2423.621,206.621c-4.2.058-4.2-6.533,0-6.474C2427.817,200.089,2427.817,206.679,2423.621,206.621Z" transform="translate(-2420.472 -200.147)" fill="#455a64"/></g></g><g transform="translate(13.121 8.473)"><path d="M2484.958,191.543h-40.864c-17.932-.156-11.054,24.518-29.607,24.1H2336.7a15.565,15.565,0,0,1-14.949-11.227c-1.316-7.151-7.153-12.977-14.659-12.873h-37.082a28.788,28.788,0,0,0-28.788,28.788V720.072a27.084,27.084,0,0,0,27.085,27.084h217.143a24.517,24.517,0,0,0,24.518-24.517V216.55A25.007,25.007,0,0,0,2484.958,191.543Z" transform="translate(-2241.22 -191.542)" fill="#fafafa"/></g><g transform="translate(293.003 125.228)"><path d="M2549.9,320.344c4.493-1.77.74,63.578,1.909,64.668a1.633,1.633,0,0,1-1.909,1.569Z" transform="translate(-2549.896 -320.309)" fill="#455a64"/></g><g transform="translate(0 166.067)"><path d="M2228.727,365.366a1.653,1.653,0,0,0-1.978,1.568v38.8a1.653,1.653,0,0,0,1.978,1.568Z" transform="translate(-2226.749 -365.35)" fill="#455a64"/></g><g transform="translate(0 111.279)"><path d="M2228.727,304.941a1.653,1.653,0,0,0-1.978,1.568v38.8a1.655,1.655,0,0,0,1.978,1.569Z" transform="translate(-2226.749 -304.924)" fill="#455a64"/></g><g transform="translate(0.272 70.156)"><path d="M2228.754,259.585a1.453,1.453,0,0,0-1.706,1.395V277.69a1.453,1.453,0,0,0,1.706,1.394Z" transform="translate(-2227.049 -259.572)" fill="#455a64"/></g><g transform="translate(216.625 22.774)"><g transform="translate(0 0.456)"><g transform="translate(0 3.996)"><rect width="1.998" height="2.803" fill="#263238"/></g><g transform="translate(3.254 2.747)"><rect width="1.998" height="4.051" fill="#263238"/></g><g transform="translate(6.507 1.811)"><rect width="1.998" height="4.988" fill="#263238"/></g><g transform="translate(9.761)"><rect width="1.998" height="6.798" fill="#263238"/></g></g><g transform="translate(30.445 0.965)"><path d="M2510.063,214.81c-.509-.308-11.228.771-10.754-.719.292-.646-.706-5.856.713-5.708h10.041c.38-.065.1,1.676.184,1.827.168.069,1.29-.171,1.258.184v2.4c.036.352-1.1.121-1.258.184C2510.173,213.144,2510.435,214.865,2510.063,214.81Zm-.184-6.06h-9.857c-.721-.217-.189,5.1-.345,5.339a.352.352,0,0,0,.352.352h9.85c.108-1.25-.542-2.07,1.259-1.828v-2.036C2509.336,210.823,2509.988,209.993,2509.879,208.75Z" transform="translate(-2499.237 -208.38)" fill="#263238"/><g transform="translate(1.259 1.19)"><path d="M2500.626,213.744v-4.052h8.565v4.052Z" transform="translate(-2500.626 -209.692)" fill="#263238"/></g></g><g transform="translate(15.096)"><g transform="translate(4.764 6.298)"><path d="M2489.03,214.974a.734.734,0,0,0-1.467,0A.734.734,0,0,0,2489.03,214.974Z" transform="translate(-2487.563 -214.26)" fill="#263238"/></g><g transform="translate(2.997 4.222)"><path d="M2485.614,212.993l.936.936a2.234,2.234,0,0,1,3.13,0l.936-.936A3.57,3.57,0,0,0,2485.614,212.993Z" transform="translate(-2485.614 -211.971)" fill="#263238"/></g><g transform="translate(1.522 2.119)"><path d="M2487.963,209.652a5.6,5.6,0,0,0-3.975,1.65l.936.936a4.34,4.34,0,0,1,6.079,0l.936-.936A5.6,5.6,0,0,0,2487.963,209.652Z" transform="translate(-2483.988 -209.652)" fill="#263238"/></g><path d="M2482.309,209.561l.936.937a6.513,6.513,0,0,1,9.124,0l.937-.937A7.851,7.851,0,0,0,2482.309,209.561Z" transform="translate(-2482.309 -207.315)" fill="#263238"/></g></g></g><g transform="translate(953.369 5174.936)"><path d="M2303.1,761.238c-11.106-.512-33.89,4.121-33.842-13.344.511-11.106-4.122-33.89,13.343-33.841,11.106.511,33.891-4.122,33.842,13.344C2315.936,738.5,2320.569,761.286,2303.1,761.238Z" transform="translate(-2269.065 -713.856)" fill="#ffb92e"/></g><g transform="translate(1012.194 5174.504)"><path d="M2367.176,760.755c-11.545-.169-33.053,3.385-33.043-14.143.169-11.544-3.386-33.053,14.142-33.043,11.544.169,33.052-3.386,33.042,14.142C2381.148,739.256,2384.7,760.764,2367.176,760.755Z" transform="translate(-2333.943 -713.38)" fill="#e0e0e0"/></g><g transform="translate(1071.012 5174.064)"><path d="M2431.246,760.271c-12.158.086-31.983,2.742-32.246-14.941-.086-12.157-2.742-31.984,14.94-32.245,12.157-.087,31.984-2.743,32.245,14.94C2446.272,740.183,2448.929,760.009,2431.246,760.271Z" transform="translate(-2398.811 -712.896)" fill="#455a64"/></g><g transform="translate(1129.825 5174.939)"><path d="M2495.941,761.239c-12.244.163-31.8,2.542-32.072-15.115-.163-12.243-2.542-31.8,15.115-32.071,12.243-.163,31.8-2.542,32.07,15.115C2511.218,741.411,2513.6,760.971,2495.941,761.239Z" transform="translate(-2463.676 -713.86)" fill="#263238"/></g><g transform="translate(966.222 5188.324)"><path d="M2302.509,741.859c-4.364-2.9-3.6,1.746-6.173,1.822-12.889-7.135-3.9-6.811-6.437-12.148-1.306-5.446-7.061-2.376-6.636,2.078,1.315,7.806,9.542,15.066,17.518,15.042C2304.5,748.21,2307.08,743.34,2302.509,741.859Z" transform="translate(-2283.24 -728.622)" fill="#fff" fill-rule="evenodd"/></g><g transform="translate(1142.918 5186.875)"><g transform="translate(16.734 4.292)"><path d="M2497.913,731.757a1.379,1.379,0,0,0,0,2.756A1.379,1.379,0,0,0,2497.913,731.757Z" transform="translate(-2496.571 -731.757)" fill="#fff"/></g><g transform="translate(6.314 5.662)"><path d="M2490.713,733.269c-7.511-.1-7.512,11.687,0,11.582C2498.224,744.955,2498.223,733.164,2490.713,733.269Zm0,9.5c-4.812.067-4.812-7.486,0-7.418C2495.523,735.284,2495.523,742.837,2490.713,742.769Z" transform="translate(-2485.079 -733.268)" fill="#fff"/></g><path d="M2494.66,750.63c-5.639-.041-16.6,1.569-16.451-7.063.041-5.638-1.569-16.6,7.063-16.45,5.638.041,16.6-1.569,16.449,7.062C2501.682,739.819,2503.292,750.783,2494.66,750.63Zm-9.387-21.3c-6.883-.165-4.442,10.164-4.852,14.239-.164,6.882,10.164,4.441,14.239,4.851,6.882.164,4.441-10.165,4.851-14.24C2499.675,727.3,2489.347,729.739,2485.273,729.329Z" transform="translate(-2478.115 -727.023)" fill="#fff"/></g><g transform="translate(1024.534 5186.735)"><path d="M2348.554,749.911c-3.84-.741,4.573-6.392,4.865-7.4-7.519-9.049,6.1-21.277,14.261-12.776,8.515,8.18-3.769,21.812-12.779,14.26C2354.557,744.185,2348.938,750.378,2348.554,749.911Zm12.344-20.885c-9.716-.161-9.717,15.149,0,14.986C2370.613,744.173,2370.614,728.864,2360.9,729.026Z" transform="translate(-2347.552 -726.869)" fill="#fff"/></g><g transform="translate(1025.44 4701.435)"><path d="M1592.38,21.291c1.06.614.792,1.448.333,2.264q-1.831,3.249-3.714,6.468a1.6,1.6,0,0,0-.127,1.74,32.718,32.718,0,0,1,3.42,13.812,1.845,1.845,0,0,0,1.015,1.712,7.513,7.513,0,0,1,2.522,10.153c-1.628,2.943-3.35,5.834-5.044,8.74-1.021,1.751-2.08,1.766-3.111.067-.2-.332-.406-.664-.614-1-.516.1-.609.584-.843.913a33.94,33.94,0,0,1-51.839,4.588,2.027,2.027,0,0,0-2.136-.661,3.907,3.907,0,0,1-4.2-1.76,3.833,3.833,0,0,1-.25-4.415,2.044,2.044,0,0,0,0-2.34,32.1,32.1,0,0,1-3.362-16.011,6.22,6.22,0,0,0-1.1-3.958,7.993,7.993,0,0,1-1.466-5.962,7.492,7.492,0,0,1,6.064-6.18,2.829,2.829,0,0,0,2.009-1.407,33.42,33.42,0,0,1,23.32-14.937,1.968,1.968,0,0,0,1.47-.989,4.233,4.233,0,0,1,7.223.013,1.927,1.927,0,0,0,1.48.971,31.69,31.69,0,0,1,12.186,4.324c.828.5,1.093.525,1.459-.514a8.252,8.252,0,0,1,7.774-5.65,8.468,8.468,0,0,1,7.974,4.954c.4.88.43,1.58-.438,2.151-1.194.647-1.522-.376-1.919-1.069A6,6,0,0,0,1586.3,14a5.561,5.561,0,0,0-5.931,2.232,5.287,5.287,0,0,0-.594,6.161c1.477,2.8,3.11,5.518,4.692,8.262.527.914.87.662,1.279-.073.449-.809.875-1.632,1.371-2.416,1.148-2.068,2.381-4.086,3.553-6.138C1591.045,21.368,1591.479,20.76,1592.38,21.291Z" transform="translate(-1521.753 -10.107)"/><path d="M1738.14,22.264a5.582,5.582,0,0,1,4.485,3.469c.347.711.72,1.25,1.583,1.232a9.9,9.9,0,0,1-.007,2.917c-.785-.044-1.172.381-1.537,1.051-1.106,2.034-2.305,4.016-3.468,6.019a5.819,5.819,0,0,1-2.361-4.11,2.594,2.594,0,0,1,1.258-.705,3.515,3.515,0,0,0,2.5-3.288,3.748,3.748,0,0,0-2.346-3.582c-.262-.131-.542-.222-.808-.347C1736.15,24.057,1736.363,23.25,1738.14,22.264Z" transform="translate(-1673.575 -18.697)" fill="#fb4654"/><path d="M1637.9,105.355c-1.042.053-1.215.725-1.208,1.6q.031,4.283-.006,8.567c0,.439.26.961-.232,1.327-.187-.135-.42-.233-.423-.518a3.248,3.248,0,0,0,.11-.455c.047-2.754.008-5.508.021-8.262,0-.2,0-.34,0-.145a.071.071,0,0,0-.005.022c0,2.5-.022,4.99.012,7.477.015,1.075-.308,1.609-1.5,1.6-6.293-.031-12.586-.011-18.88-.019a1.67,1.67,0,0,1-1.123-.234,2.793,2.793,0,0,1-.331-1.835q-.015-10.469,0-20.938c0-2.109.115-2.219,2.253-2.195a3.746,3.746,0,0,1,2.28.282c.023,1.268.077,2.536.061,3.8s.511,1.909,1.829,1.89c2-.029,4.005-.025,6.008,0a1.758,1.758,0,0,0,1.791-1,1.232,1.232,0,0,0,.226-.394,26.547,26.547,0,0,0-.052-4.216.621.621,0,0,1,.383-.322c2-.119,4,0,6-.061,1.044-.031,1.343.468,1.34,1.43-.008,2.783-.052,5.566.023,8.348a1.459,1.459,0,0,0,.206.5,1.7,1.7,0,0,0,1.178.888.955.955,0,0,1,.308.357,4.66,4.66,0,0,1,.085,1.894A1.162,1.162,0,0,1,1637.9,105.355Z" transform="translate(-1587.168 -67.487)" fill="#f9e95e"/><path d="M1552.811,166.778c-1.34.849-.587,1.9-.2,2.83.423,1,.325,1.356-.859,1.3-1.211-.057-2.269.116-2.94-1.408a3.4,3.4,0,0,0-3.584-1.8,1.509,1.509,0,0,1-1.751-1.092,31.109,31.109,0,0,1-2.2-6.3c2.8,0,5.472.039,8.147-.018,1.145-.024.856.844,1.011,1.4.275.99.062,2.264,1.6,2.4A2.575,2.575,0,0,1,1552.811,166.778Z" transform="translate(-1535.554 -116.226)" fill="#01bff9"/><path d="M1639.037,205.621a24.249,24.249,0,0,1-3.021,8.775c-1.374,2.248-2.645,2.28-4.006.084a25.228,25.228,0,0,1-3.209-9.442.743.743,0,0,1,.745-.056c2.979.163,5.963-.044,8.942.107A.773.773,0,0,1,1639.037,205.621Z" transform="translate(-1597.393 -147.755)" fill="#01bff9"/><path d="M1631.157,36.583a4.535,4.535,0,0,0,4.793.35c.613-.324.863.014,1.079.538a41.641,41.641,0,0,1,2.039,6.852c.133.6,0,.781-.6.778-3.023-.016-6.047-.024-9.07,0-.7.006-.837-.256-.694-.871A35.267,35.267,0,0,1,1631.157,36.583Z" transform="translate(-1597.29 -28.815)" fill="#01bff9"/><path d="M1723.412,21.744c-.34.406-.667.823-1.022,1.216-.562.623-.131.877.389,1.109-.3.511-.835.4-1.289.5a3.648,3.648,0,0,0-2.956,3.17,3.469,3.469,0,0,0,2.052,3.653c.549.281,1.224.351,1.605.926a28.092,28.092,0,0,0,2.278,4.114l-2.1,3.775c-.561.024-.594-.4-.745-.661-1.69-2.906-3.412-5.8-5.023-8.746a5.838,5.838,0,0,1,.618-6.844A5.651,5.651,0,0,1,1723.412,21.744Z" transform="translate(-1658.846 -18.177)" fill="#f92a39"/><path d="M1578.719,166.745q-.384-1.342-.768-2.684c1.1-.569.89-1.481.621-2.4-.3-1.024-.076-1.439,1.137-1.416,3.205.059,3.206,0,3.206,3.168,0,.876,0,1.753,0,2.629a1.662,1.662,0,0,0,1.909,1.86c1.314-.009,2.63-.029,3.943.006,1.628.043.919,1.414,1.14,2.2.3,1.047-.626.723-1.107.73-2.093.031-4.189-.036-6.279.037a1.366,1.366,0,0,1-1.593-1.1c-.193-.651-.479-1.275-.7-1.919A1.44,1.44,0,0,0,1578.719,166.745Z" transform="translate(-1561.463 -116.194)" fill="#7fd160"/><path d="M1660.482,28.933a11.839,11.839,0,0,1,3.5,1.608,23.49,23.49,0,0,1,7.431,8.157c.434.738.337,1.016-.57,1-2-.036-4.007-.021-6.011-.006-.541,0-.914-.065-1.041-.721A36.319,36.319,0,0,0,1660.482,28.933Z" transform="translate(-1619.779 -23.41)" fill="#7fd160"/><path d="M1719.891,79.882c.87-.355,1.2-1.206,1.75-2.045a23.185,23.185,0,0,1,1.936,5.118c.14.481.1.729-.477.723-1.561-.017-3.121-.026-4.682,0-.578.011-.708-.373-.916-.768a4.026,4.026,0,0,0-2.49-2.122,1.235,1.235,0,0,1-.983-1.085,34.432,34.432,0,0,0-1.759-5.72c-.3-.731-.135-.852.615-.92a2.594,2.594,0,0,1,2.894,1.533c.986,1.817,1.727,3.829,3.358,5.246C1719.372,80.185,1719.627,80.11,1719.891,79.882Z" transform="translate(-1656.274 -54.577)" fill="#01bff8"/><path d="M1601.614,40.149H1600c-.623,0-1.182.089-1.522-.741-.328-.8-.643-1.368-.019-2.23a21.167,21.167,0,0,1,8.108-7.209c.354-.165.77-.635,1.173-.209.345.364-.109.709-.259,1.033a29.351,29.351,0,0,0-2.357,7.516c-.253,1.535-.839,2.124-2.344,1.851A6.673,6.673,0,0,0,1601.614,40.149Z" transform="translate(-1575.703 -23.871)" fill="#7fd160"/><path d="M1602.242,204.3c.306.069.306.333.355.562a49.6,49.6,0,0,0,3.03,9.878c-4.956-1.794-8.248-5.348-10.669-9.853.324-.632.917-.389,1.412-.417C1598.326,204.362,1600.294,204.664,1602.242,204.3Z" transform="translate(-1573.48 -147.327)" fill="#7fd160"/><path d="M1670.362,204.5c1.451,1.516.923,2.772-.325,4.174-2.186,2.455-4.432,4.77-7.635,5.877a.633.633,0,0,1-.558-.29,42.924,42.924,0,0,0,2.9-9.165c.073-.352-.015-.838.581-.834C1666.986,204.689,1668.689,204.259,1670.362,204.5Z" transform="translate(-1620.742 -147.294)" fill="#7fd160"/><path d="M1731.279,117.287a11.023,11.023,0,0,1,.573,3.975c.032.491-.255.527-.64.534a7.53,7.53,0,0,0-7.479,5.256c-.193.511-.448.724-.956.622-.594-.119-.367-.59-.361-.942.032-1.9.095-3.8.108-5.706,0-.522.036-.934.577-1.2a5.187,5.187,0,0,0,1.971-2.282c.229-.016.458-.046.688-.044,1.618-.026,3.237.071,4.853-.063A3.749,3.749,0,0,1,1731.279,117.287Z" transform="translate(-1663.509 -85.841)" fill="#01bff8"/><path d="M1577.667,120.541a7.106,7.106,0,0,1,.3-3.222c1.547.125,3.128-.313,4.645.286v9.682c-1.435.436-2.949-.184-4.379.328-1.061-.938-.415-2.17-.564-3.266A10.459,10.459,0,0,0,1577.667,120.541Z" transform="translate(-1561.22 -85.836)" fill="#7fd160"/><path d="M1718.379,170.881a2.505,2.505,0,0,1-3.056-1.545,1.833,1.833,0,0,1-.26-1.568,40.881,40.881,0,0,0,1.59-6.517c.08-.49.072-.94.8-.964.77-.024.689.5.793.948.561,2.43,2.129,4.354,3.282,6.483,1.008,1.862.273,3.157-1.869,3.162Z" transform="translate(-1658.284 -116.225)" fill="#01bff8"/><path d="M1680.819,163.637c0-3.423,0-3.393,3.456-3.366.892.007,1.171.141.965,1.126-.39,1.86-.834,3.7-1.362,5.527a1.1,1.1,0,0,1-1.213.95,3.766,3.766,0,0,0-3.418,2.142,1.43,1.43,0,0,1-1.614.859c-.63-.048-1.266-.009-1.9-.01-2.125,0-2.353-.359-1.7-2.418.2-.62.609-.524,1.026-.528,1.267-.01,2.534-.02,3.8,0,1.332.02,2-.591,1.961-1.944C1680.8,165.2,1680.818,164.417,1680.819,163.637Z" transform="translate(-1629.127 -116.21)" fill="#7fd160"/><path d="M1579.868,83.209a32.325,32.325,0,0,1,1.428-6.256c.163-.573.492-.724,1.04-.8a3.967,3.967,0,0,0,3.1-2.195,1.255,1.255,0,0,1,1.37-.787c.924.052,1.854.012,2.781.013,1.94,0,1.94,0,1.448,1.916-.325.317-.52.725-1.152.658-1.006-.107-2.03-.021-3.353-.036.11,0,.292.249.253.058a19.538,19.538,0,0,1,4.145.1c-1.4.569-2.851.183-4.276.242-1.988.082-2.377.417-2.384,2.426,0,1.368-.058,2.739.018,4.1.053.939-.307,1.242-1.177,1.115-1.076-.156-2.2.319-3.245-.259,1.291-.339,2.595-.014,3.6-.137C1582.467,83.187,1581.148,83.563,1579.868,83.209Z" transform="translate(-1562.814 -54.662)" fill="#7fd160"/><path d="M1682.866,73.526c1.476,2.208,1.887,4.795,2.591,7.277.1.344-.148.525-.423.662a5.833,5.833,0,0,0-2.08,2.342,1.187,1.187,0,0,1-1.126-1.461c.094-1.407.018-2.826.013-4.239.025,1.417.065,2.837-.023,4.248a1.179,1.179,0,0,0,1.124,1.455c-1.013.487-1.535.3-1.486-.955.058-1.512-.008-3.028.019-4.542.025-1.365-.626-1.964-1.969-1.928-1.122.03-2.253-.071-3.368.027-1.156.1-1.657-.283-1.468-1.454-.011-1.128.588-1.356,1.633-1.343A49.581,49.581,0,0,0,1682.866,73.526Z" transform="translate(-1629.778 -54.919)" fill="#7fd160"/><path d="M1694.587,123.236l.006-.517a2.816,2.816,0,0,0,0-2.071,1.2,1.2,0,0,1-.036-.27c1.245-.461.945-1.532,1-2.48.029-.469-.295-1.14.569-1.263.649-.093.943.209,1.188.793a3.86,3.86,0,0,0,2.523,2.292,1.072,1.072,0,0,1,.891,1.253,30.325,30.325,0,0,1-.274,5.26c-.66.547-3.338.839-3.968.421a.857.857,0,0,1-.365-.993c-.142.373.03.753-.1,1.106a1.557,1.557,0,0,1-.242.331c-.478-.74-.178-1.56-.216-2.34C1695.529,124.023,1695.408,123.427,1694.587,123.236Z" transform="translate(-1643.855 -85.369)" fill="#7fd160"/><path d="M1740.246,153.489c-.508.922-.862,2.507-1.655,2.531-.868.027-1.17-1.568-1.717-2.452-1.022-1.651-1.965-3.352-2.922-5.042a5.23,5.23,0,0,1,.081-5.793,5.047,5.047,0,0,1,5.4-2.36c.008.651-.646.807-.915,1.236.277.306.818.074,1.018.511a.452.452,0,0,1-.123.366,2.26,2.26,0,0,1-1.123.262,3.222,3.222,0,0,0-2.962,2.576,3.274,3.274,0,0,0,1.617,3.471,8.175,8.175,0,0,1,1.129.672A10.081,10.081,0,0,1,1740.246,153.489Z" transform="translate(-1671.103 -102.089)" fill="#f82a39"/><path d="M1536.469,96.128l-1.733,3.217c-.6-1.03-1.073-1.845-1.544-2.663-1.094-1.9-2.238-3.773-3.262-5.71a5.062,5.062,0,0,1,.333-5.536,4.868,4.868,0,0,1,5.035-2.241c.125,1.022-.882,1.328-1.276,2.023-.425.393-.964.626-1.389,1.03-1.951,1.86-1.569,4.4.853,5.554.343.164.75.208.993.551C1535.018,93.676,1536.02,94.757,1536.469,96.128Z" transform="translate(-1527.059 -61.7)" fill="#f82a39"/><path d="M1572.922,204.532c1.875,3.1,3.7,6.242,6.507,8.651-.52.54-.853.131-1.146,0a32.694,32.694,0,0,1-9.62-6.506c-.806-.774-.881-1.393-.11-2.154A20.716,20.716,0,0,0,1572.922,204.532Z" transform="translate(-1554.441 -147.483)" fill="#01bef8"/><path d="M1631.769,186.16c1.757,0,3.514.024,5.27-.011.738-.015,1.015.114.864.97-.414,2.344,0,1.971-2.259,1.987-2.83.021-5.662-.038-8.491.02-1.87.038-1.2-1.437-1.366-2.284-.226-1.163.83-.631,1.3-.654C1628.643,186.113,1630.207,186.16,1631.769,186.16Z" transform="translate(-1595.241 -134.454)" fill="#01bff8"/><path d="M1538.691,123.05c.3.493.583.991.888,1.477,1.012,1.61,2.049,1.588,3.038-.093,1.358-2.308,2.682-4.637,4.033-6.949a2.172,2.172,0,0,1,1.22-1.239,59.544,59.544,0,0,0-.357,7.964c-.211.25-.141.582-.251.863.1,1.046-.331,1.557-1.429,1.484-2.224-.147-4.471.267-6.679-.269-.1-.128-.245-.243-.189-.443-.175.13-.04.435-.294.521a5.992,5.992,0,0,1-.291-2.369C1538.373,123.644,1537.992,123.17,1538.691,123.05Z" transform="translate(-1533.424 -85.105)" fill="#01bff8"/><path d="M1544.878,85.221c.253-.8,1.118-1.12,1.454-1.855a4.969,4.969,0,0,1,4.675,4.415,3.306,3.306,0,0,0,0,1.754c-.121,1.739-1.34,2.967-2.073,4.419-.411.815-.949,1.566-1.43,2.345a6.6,6.6,0,0,1-2-3.591c.285-.469.8-.507,1.25-.681a3.3,3.3,0,0,0-.353-6.38C1545.9,85.5,1545.321,85.6,1544.878,85.221Z" transform="translate(-1538.093 -61.872)" fill="#f94553"/><path d="M1749.711,142a4.382,4.382,0,0,1,1.44-1.406,5.325,5.325,0,0,1,3.844,7.936c-.944,1.761-2.013,3.455-3.026,5.179l-2.262-3.8a.577.577,0,0,1,.346-.254c1.922-.191,2.954-1.5,3.819-3.018.693-.15-.055-.74.3-1.056.1-.088-.157.126-.238.009a17.062,17.062,0,0,0-2.778-3.089c0-.068,0-.136,0-.2C1750.741,141.891,1750.139,142.37,1749.711,142Z" transform="translate(-1682.826 -102.309)" fill="#f94553"/><path d="M1698.2,205.179a28.118,28.118,0,0,1-12.165,8.435,43.883,43.883,0,0,0,4.38-5.487.738.738,0,0,1,.764-.3c2.321.2,3.756-1.016,4.709-2.984C1696.668,204.888,1697.533,204.352,1698.2,205.179Z" transform="translate(-1637.834 -147.616)" fill="#00bef7"/><path d="M1563.51,44.478c2.345-3.582,10.175-9.091,12.382-8.837a55.635,55.635,0,0,0-3.955,5.057.947.947,0,0,1-1.1.439,4.207,4.207,0,0,0-4.716,2.628C1565.557,44.989,1564.538,44.206,1563.51,44.478Z" transform="translate(-1551.259 -28.144)" fill="#00bdf6"/><path d="M1636.975,73.453c1.355.05.7,1.11.88,1.75-.176.468-.381.869-1,.869-3.493,0-6.985.052-10.478-.034a.885.885,0,0,1-.517-.248c.063-.807-.1-1.67.562-2.332A81.565,81.565,0,0,0,1636.975,73.453Z" transform="translate(-1595.317 -54.868)" fill="#01bff8"/><path d="M1694.163,43.022c-1.843.576-2.77-.077-3.554-1.662a26.656,26.656,0,0,0-5.769-7.485,24.662,24.662,0,0,1,6.5,3.246c.19.129.435.332.46.526C1692.06,39.64,1693.2,41.254,1694.163,43.022Z" transform="translate(-1636.99 -26.902)" fill="#00bef7"/><path d="M1561,79.87a7.806,7.806,0,0,0-4.657-5.49c-.256-.105-.606-.2-.437-.591a.8.8,0,0,1,.74-.6c1.165,0,2.334-.065,3.492.019.745.054,2.208,2.659,2,3.394q-.451,1.607-.913,3.211C1561.219,79.836,1561.137,79.836,1561,79.87Z" transform="translate(-1545.852 -54.664)" fill="#01bdf7"/><path d="M1702.265,195.554a2.13,2.13,0,1,1-4.259.033,2.13,2.13,0,0,1,4.259-.033Z" transform="translate(-1646.294 -139.684)" fill="#f84553"/><path d="M1641.356,21.9a2.132,2.132,0,1,1,2.169-2.122A2.2,2.2,0,0,1,1641.356,21.9Z" transform="translate(-1604.812 -15.424)" fill="#f84653"/><path d="M1552.262,195.211a2.127,2.127,0,1,1-4.25-.2,2.128,2.128,0,0,1,4.25.2Z" transform="translate(-1540.304 -139.38)" fill="#f84653"/><path d="M1580.967,65.859a2.181,2.181,0,0,1-2.148-2.13,2.157,2.157,0,0,1,2.141-2.129,2.131,2.131,0,0,1,.007,4.259Z" transform="translate(-1562.076 -46.492)" fill="#f84653"/><path d="M1712.177,110.42a2.095,2.095,0,1,1,2.187-2.07A2.13,2.13,0,0,1,1712.177,110.42Z" transform="translate(-1654.853 -78.029)" fill="#f84653"/><path d="M1645.823,91.008c.414,1.021.1,2.087.192,3.129.051.607-.325.718-.827.7-.772-.03-1.545-.038-2.318-.055a3.639,3.639,0,0,1-.508-3.485.852.852,0,0,1,.862-.4A11.451,11.451,0,0,1,1645.823,91.008Z" transform="translate(-1606.8 -67.178)" fill="#f54552"/><path d="M1605.794,116.548c-3.378.342-3.378.342-3.378-3.015q0-10.472.006-20.944a3.423,3.423,0,0,1,.128-1.585,9.347,9.347,0,0,1,3.162-.062.388.388,0,0,1-.1.479c-2.394.76-2.394.76-2.394,3.465v17.886c0,2.624,0,2.624,2.37,3.3A.536.536,0,0,1,1605.794,116.548Z" transform="translate(-1578.734 -67.151)" fill="#fadc00"/><path d="M1613.3,91.308c0-.087.006-.174.008-.261a.568.568,0,0,1,.473-.178,24.121,24.121,0,0,1,4.175.141,1.312,1.312,0,0,1,.085.186c.009.03-.017.071-.027.107-1.3.094-2.942-.546-3.808.269-.885.832-.286,2.492-.293,3.784-.035,6.859-.016,13.719-.016,20.579q.148.315-.191.394a1.073,1.073,0,0,1-.371-.408,3.748,3.748,0,0,1-.209-1.579q-.016-10.8-.006-21.6a5.162,5.162,0,0,1,.113-1.159Q1613.27,91.445,1613.3,91.308Z" transform="translate(-1586.316 -67.157)" fill="#f8ea65"/><path d="M1642.607,90.752c-.146.006-.293.015-.439.016-2.995.034-3.459.727-2.514,3.756-.681-.047-1.753.444-1.949-.287a11.9,11.9,0,0,1-.014-3.452c0-.082.318-.223.482-.216C1639.651,90.641,1641.146,90.3,1642.607,90.752Z" transform="translate(-1603.583 -66.922)" fill="#f52938"/><path d="M1604,180.5h25v.147h-25.066Z" transform="translate(-1579.827 -130.507)" fill="#040401"/><path d="M1625.793,80c3.438,0,6.876-.009,10.313.007.647,0,1.261.009,1.679-.594.167.553.533,1.148-.563,1.14-3.616-.028-7.232-.011-10.848-.011C1626.008,80.547,1625.661,80.535,1625.793,80Z" transform="translate(-1595.248 -59.082)" fill="#01c6fe"/><path d="M1663.018,91.1l.007.308a14.4,14.4,0,0,1-.019,4.386h-.133l-.132,0c-.006-1.409.021-2.818-.034-4.225-.029-.75.2-1.025.981-1.009q3.132.068,6.266,0c.815-.018.961.332.953,1.042-.035,3.157-.028,6.315-.035,9.473a2.051,2.051,0,0,1-.251-.01,79.765,79.765,0,0,1-.1-8.612c.01-1.21-.312-1.627-1.539-1.525C1667,91.1,1665,90.779,1663.018,91.1Z" transform="translate(-1621.351 -66.96)" fill="#e4d857"/><path d="M1614.1,177l.32.008a1.35,1.35,0,0,1,.847-.14q9.856,0,19.711,0a1.31,1.31,0,0,1,.846.138l.294.294a28.053,28.053,0,0,1-4.665.109c-5.854,0-11.707-.047-17.56-.075-.012-.1-.025-.2-.038-.307l.11-.119Z" transform="translate(-1586.832 -127.934)" fill="#fef964"/><path d="M1548.19,143.974a.62.62,0,0,1,.286-.585c.381,2.756.381,2.756-2.4,2.756-1.8,0-3.6.014-5.4-.012-.416-.006-1.064.253-1.04-.589l.182-.7.164.3c.256.485.694.421,1.144.422,1.708,0,3.426-.094,5.121.057C1547.61,145.748,1548.226,145.332,1548.19,143.974Z" transform="translate(-1534.388 -104.284)" fill="#01c8fa"/><path d="M1731.908,117.407l-.329-.364c.044-.191.107-.407.334-.4a33.833,33.833,0,0,1,5.874.148l-.307.327a24.766,24.766,0,0,1-4.017.145C1732.944,117.3,1732.4,117.118,1731.908,117.407Z" transform="translate(-1670.016 -85.343)" fill="#01cbfe"/><path d="M1639.037,204.937l-.277-.29a59.5,59.5,0,0,0-6.359-.155,11.955,11.955,0,0,1-3.022-.136l-.578,0c.036-.558.476-.388.769-.389,2.93-.014,5.86.009,8.79-.021C1639.185,203.934,1639.47,204.156,1639.037,204.937Z" transform="translate(-1597.393 -147.07)" fill="#01c9fb"/><path d="M1638.329,73.453c-.337.392-.8.278-1.219.279q-4.055.011-8.11,0c-.422,0-.881.113-1.221-.275Z" transform="translate(-1596.671 -54.868)" fill="#01c2fd"/><path d="M1682.374,73.242c-2.079.575-4.2.193-6.3.225-.993.015-1.611.256-1.9,1.208-.522-1.157-.227-1.608,1.11-1.544C1677.647,73.243,1680.012,73.212,1682.374,73.242Z" transform="translate(-1629.285 -54.635)" fill="#80d261"/><path d="M1583.477,117.1c-1.546-.135-3.128.31-4.645-.286,1.455-.454,2.941-.144,4.413-.162C1583.476,116.648,1583.48,116.9,1583.477,117.1Z" transform="translate(-1562.085 -85.33)" fill="#86dd65"/><path d="M1601.652,204.115c-.884.61-1.88.2-2.82.3-1.483.16-3.006-.288-4.465.287-.583-.71,0-.666.445-.663C1597.092,204.056,1599.372,204.088,1601.652,204.115Z" transform="translate(-1572.889 -147.138)" fill="#87dd66"/><path d="M1699.32,141.384a1.123,1.123,0,0,1,.188.219c.362.738-.368,1.992.478,2.261a5.335,5.335,0,0,0,3.72-.132c-.008.324.2.713-.266.9-1.362-.475-2.8.1-4.17-.312A7.752,7.752,0,0,1,1699.32,141.384Z" transform="translate(-1647.105 -102.868)" fill="#7dce5f"/><path d="M1605.043,78.381h-5.2l0-.291c1.2,0,2.4.007,3.605,0,1.184-.009,1.184-.016,1.564-1.378l.141.892Z" transform="translate(-1576.929 -57.169)" fill="#84d964"/><path d="M1678.739,204.231c-1.686.043-3.386.386-5.04-.239C1675.382,204.018,1677.085,203.6,1678.739,204.231Z" transform="translate(-1629.118 -147.029)" fill="#87de66"/><path d="M1619.02,90.8l-4.356-.059-.04-.077A13.442,13.442,0,0,1,1619.02,90.8Z" transform="translate(-1587.376 -66.948)" fill="#f9e95e"/><path d="M1574.218,204.074a8.326,8.326,0,0,1-4.37-.007A12.422,12.422,0,0,1,1574.218,204.074Z" transform="translate(-1555.737 -147.025)" fill="#01ccfe"/><path d="M1699.026,151.114c1.367.165,2.787-.351,4.115.32a20.735,20.735,0,0,1-4.409-.038c.012-.09.024-.18.035-.271C1698.848,150.968,1698.934,150.971,1699.026,151.114Z" transform="translate(-1646.808 -109.668)" fill="#89e168"/><path d="M1579.737,151.6c1.413-.729,2.925-.141,4.379-.328-.829.867-1.87.222-2.8.375A7.9,7.9,0,0,1,1579.737,151.6Z" transform="translate(-1562.725 -109.817)" fill="#88e067"/><path d="M1579.868,107.4h3.714l0,.291h-3.724Z" transform="translate(-1562.814 -78.857)" fill="#83d863"/><path d="M1577.537,128.394a5.335,5.335,0,0,1,0,3.808A16,16,0,0,1,1577.537,128.394Z" transform="translate(-1561.091 -93.689)" fill="#85dc65"/><path d="M1606.362,90.678l.04.077-.292.1-3.179-.038A8.446,8.446,0,0,1,1606.362,90.678Z" transform="translate(-1579.114 -66.961)" fill="#fed501"/><path d="M1721.929,204.468c-.7-.577-1.571-.023-2.312-.337.748-.709,1.655-.336,2.457-.244C1722.533,203.939,1722.078,204.281,1721.929,204.468Z" transform="translate(-1661.564 -146.905)" fill="#00cbfe"/><path d="M1760.025,126.493a3.44,3.44,0,0,1,0,2.237Z" transform="translate(-1690.117 -92.346)" fill="#050505"/><path d="M1564.994,100.169a1.355,1.355,0,0,1,0-1.754A2.416,2.416,0,0,1,1564.994,100.169Z" transform="translate(-1552.08 -72.506)" fill="#fe4b59"/><path d="M1538.516,138.436c-.329.241-.178.64-.311.947-.065-.36-.144-.719-.182-1.082-.009-.085.125-.186.194-.279Z" transform="translate(-1533.249 -100.491)" fill="#009ec9"/><path d="M1736.5,96.26l.277.077c-.335.422-.741.228-1.132.122a.221.221,0,0,1,.006-.132.43.43,0,0,1,.1-.106Z" transform="translate(-1672.886 -70.956)" fill="#00c6fe"/><path d="M1661.218,238.339a.584.584,0,0,1,.558.29c-.2.188-.468.395-.708.232C1660.781,238.666,1661.133,238.509,1661.218,238.339Z" transform="translate(-1620.115 -171.376)" fill="#87df67"/><path d="M1727.775,38.437a6.511,6.511,0,0,1-2.327-.811,4.057,4.057,0,0,1-1.6-4.506c.579-1.915,1.988-2.828,4.52-2.932a4.171,4.171,0,0,1,3.465,3.8,3.969,3.969,0,0,1-2.264,3.905A13.181,13.181,0,0,1,1727.775,38.437Z" transform="translate(-1664.43 -24.297)" fill="#010101"/><path d="M1637.77,123.086c-.334-.464-.429-.2-.434.159-.015,1.221-.065,2.445.007,3.662.055.931-.382,1.751-1.128,1.766-.729.015-1.14-.816-1.1-1.713.062-1.349.016-2.7.016-4.213-.56.5-.975.912-1.431,1.271a.941.941,0,0,1-1.327-.1.915.915,0,0,1-.188-1.313c1.084-1.318,2.181-2.63,3.343-3.879.547-.588,1.171-.328,1.649.213.841.951,1.667,1.916,2.494,2.879.543.631,1.265,1.288.379,2.116-.835.78-1.394-.043-1.99-.494A.416.416,0,0,1,1637.77,123.086Z" transform="translate(-1599.641 -86.619)" fill="#030301"/><path d="M1635.8,159.264c1.019,0,2.038.006,3.057,0,.723,0,1.284.266,1.319,1.037.04.876-.574,1.152-1.345,1.153q-3.13.007-6.261,0c-.714,0-1.3-.272-1.319-1.042-.022-.837.542-1.165,1.345-1.154C1633.663,159.274,1634.731,159.263,1635.8,159.264Z" transform="translate(-1599.124 -115.498)" fill="#0c0b05"/><path d="M1637.177,152.642l-21.4,0c0-.1,0-.2,0-.293h19.174c1.938,0,1.938,0,1.939-2.009,0-2.2-.008-4.391.007-6.586,0-.469-.156-.989.286-1.374a69.812,69.812,0,0,1,0,9.969C1637.178,152.448,1637.178,152.545,1637.177,152.642Z" transform="translate(-1588.187 -103.573)" fill="#f5e55c"/><path d="M1663.771,91.622c2.337-.6,4.711-.17,7.066-.222.708-.016.527.7.529,1.146.015,3.015.008,6.029.008,9.044-.5-.542-.259-1.209-.267-1.816-.03-2.238-.079-4.48.015-6.715.051-1.205-.4-1.5-1.511-1.456C1667.667,91.679,1665.718,91.623,1663.771,91.622Z" transform="translate(-1622.103 -67.477)" fill="#feef5f"/><path d="M1688.732,152.351q0-4.985,0-9.969a1.232,1.232,0,0,1,.232.039q.015,4.787,0,9.575C1688.961,152.115,1688.812,152.233,1688.732,152.351Z" transform="translate(-1639.74 -103.573)" fill="#fef361"/><path d="M1641,167.94c-1.087.606-2.263.22-3.395.274-1.3.062-2.6-.015-3.9-.036-.026,0-.068-.064-.072-.1a.389.389,0,0,1,.038-.138A37.786,37.786,0,0,1,1641,167.94Z" transform="translate(-1600.81 -121.506)" fill="#f5e55c"/><path d="M1641.385,112.971c-.931.6-1.97.292-2.943.265-1.559-.044-3.153.355-4.68-.263A41.353,41.353,0,0,1,1641.385,112.971Z" transform="translate(-1600.899 -82.667)" fill="#f4e55c"/><path d="M1641.385,112.573l-7.623,0A21.476,21.476,0,0,1,1641.385,112.573Z" transform="translate(-1600.899 -82.27)" fill="#fefa64"/><path d="M1641.1,167.6h-7.329c2.412-.591,4.857-.162,7.286-.233.026,0,.073.059.078.1A.379.379,0,0,1,1641.1,167.6Z" transform="translate(-1600.902 -121.168)" fill="#fef963"/><path d="M1641.651,157.878h-6.53l0-.145h6.589Z" transform="translate(-1601.857 -114.42)" fill="#feef60"/><path d="M1650.906,134.4l.292.35c0,.074-.005.148-.006.222-.372,1.353.121,2.764-.272,4.115A8.245,8.245,0,0,1,1650.906,134.4Z" transform="translate(-1612.777 -97.934)" fill="#f8f362"/><path d="M1651.679,140.466c.134-1.369-.3-2.775.272-4.115q-.014,2.039-.032,4.078c0,.027-.063.07-.1.075A.39.39,0,0,1,1651.679,140.466Z" transform="translate(-1613.536 -99.311)" fill="#f4e45b"/><path d="M1663.732,97.836q.009-2.193.018-4.387A7.023,7.023,0,0,1,1663.732,97.836Z" transform="translate(-1622.076 -68.997)" fill="#feef5f"/><path d="M1641.152,138.664v3.114h-.146V138.65Z" transform="translate(-1606.017 -100.936)" fill="#fded5e"/><path d="M1694.677,130.356a1.663,1.663,0,0,1,0,2.07Z" transform="translate(-1643.942 -95.075)" fill="#75cc5f"/><path d="M1630.772,205.286c2.623,0,5.246-.01,7.868.008.511,0,1.081-.189,1.513.284-2.623,0-5.245.01-7.868-.009C1631.774,205.565,1631.2,205.757,1630.772,205.286Z" transform="translate(-1598.786 -148.001)" fill="#00baf2"/><path d="M1732.7,118.594c1.829-.637,3.718-.129,5.572-.291C1736.442,118.938,1734.553,118.43,1732.7,118.594Z" transform="translate(-1670.808 -86.53)" fill="#00bcf5"/><path d="M1699.192,162.443v5.465l-.116,0v-5.466Z" transform="translate(-1647.05 -117.748)" fill="#85dc65"/><path d="M1699.918,93.664c-.9.047-1.3-.3-1.259-1.277a37.12,37.12,0,0,1,.311-4.916c0,1.445.056,2.893-.021,4.334a1.63,1.63,0,0,0,.979,1.856Z" transform="translate(-1646.753 -64.773)" fill="#80d361"/><path d="M1681.439,81.825h-4.588V81.68h4.565Z" transform="translate(-1631.345 -60.681)" fill="#84d864"/><path d="M1698.961,144.314q-.129,0-.258.011c.075-.981-.318-2,.255-2.941Q1698.959,142.849,1698.961,144.314Z" transform="translate(-1646.742 -102.868)" fill="#85db65"/><path d="M1743.561,147.086a4.278,4.278,0,0,1,2.9,3.107.709.709,0,0,1,.01,1.007,4.071,4.071,0,0,1-4.36,3.295c-2.583-1.025-3.634-2.761-2.952-4.882C1739.736,147.814,1741.1,147.03,1743.561,147.086Z" transform="translate(-1675.228 -106.895)" fill="#020101"/><path d="M1749.72,145.384c1.121,0,1.121,0,1.452.3C1750.052,145.659,1750.052,145.659,1749.72,145.384Z" transform="translate(-1682.835 -105.694)" fill="#fe4957"/><path d="M1537.973,89.613a3.858,3.858,0,0,1,4.084,1.877,3.523,3.523,0,0,1-.116,3.849A4.124,4.124,0,0,1,1538.6,97.1c-2.788-.823-4.042-2.729-3.276-4.982A4.206,4.206,0,0,1,1537.973,89.613Z" transform="translate(-1531.188 -66.264)" fill="#020101"/><path d="M1549.026,145.383c.232,1.371-.286,1.888-1.718,1.787-1.733-.122-3.481-.016-5.222-.038-.485-.006-1.127.228-1.27-.577a41.085,41.085,0,0,0,7.311.268C1549.082,146.819,1548.458,145.7,1549.026,145.383Z" transform="translate(-1535.224 -105.693)" fill="#00bbf4"/><path d="M1764.543,157.846q0-.5-.009-1.007c.059-.146.244-.405.253-.34a6.231,6.231,0,0,1,.007,1.657C1764.778,158.263,1764.6,157.984,1764.543,157.846Z" transform="translate(-1693.303 -113.541)" fill="#fd4a58"/><path d="M1584.893,52.561a1.4,1.4,0,0,1-1.27-.031A1.376,1.376,0,0,1,1584.893,52.561Z" transform="translate(-1565.47 -39.984)" fill="#01c7fe"/><path d="M1606.735,117.353c-2.956-.059-2.956-.059-2.956-3.045q0-9.93,0-19.86c0-2.039,0-2.039,2.046-2.038.292,0,.584,0,.876,0v0c-.006.631-.538.66-.928.7-1.038.1-1.226.747-1.226,1.62q0,10.066,0,20.133c0,1.014.278,1.689,1.414,1.794.357.033.8.148.774.689Z" transform="translate(-1579.713 -68.262)" fill="#fbd300"/><path d="M1607.369,117.369c-.116-.085-.222-.224-.35-.248-2.31-.436-2.31-.433-2.31-2.82,0-6.54.036-13.08-.029-19.619-.014-1.426.216-2.273,1.869-1.969a.774.774,0,0,0,.789-.276c.479.494.26,1.112.261,1.671q.027,11.619.017,23.237Q1607.492,117.361,1607.369,117.369Z" transform="translate(-1580.349 -68.281)" fill="#fed501"/><path d="M1733.281,37.665a1.824,1.824,0,0,1,1.673,1.919,1.8,1.8,0,0,1-2,1.82,1.777,1.777,0,0,1-1.712-1.966A1.9,1.9,0,0,1,1733.281,37.665Z" transform="translate(-1669.782 -29.578)" fill="#fafafa"/><path d="M1748.037,154.344a1.471,1.471,0,0,1,1.547,1.42,1.482,1.482,0,1,1-2.96.131C1746.593,154.969,1747.171,154.507,1748.037,154.344Z" transform="translate(-1680.647 -112.025)" fill="#f8f8f8"/><path d="M1544.169,97.181c.929.037,1.521.481,1.569,1.4a1.482,1.482,0,1,1-2.961.134A1.414,1.414,0,0,1,1544.169,97.181Z" transform="translate(-1536.608 -71.634)" fill="#f8f8f8"/></g></g></svg>