<svg xmlns="http://www.w3.org/2000/svg" width="52.116" height="74.772" viewBox="0 0 52.116 74.772">
  <g id="Grupo_844344" data-name="Grupo 844344" transform="translate(-4008.451 1527.395)">
    <path id="Trazado_582106" data-name="Trazado 582106" d="M4051.322-1499.914c.9-.337,1.444.078,1.936.807a17.827,17.827,0,0,1,3.158,10.145c.01,7.932.035,15.864-.018,23.8a8.876,8.876,0,0,0,1.371,5.109c.872,1.342,1.644,2.752,2.409,4.159.957,1.761.088,3.263-1.917,3.265q-23.718.021-47.437,0c-2.1,0-2.95-1.486-1.961-3.332a.9.9,0,0,1,.072-.127c3.262-4.174,3.985-8.922,3.727-14.115-.3-6.068-.079-12.162-.068-18.245a17.929,17.929,0,0,1,12.687-17.637c.613-.206,1.125-.342.775-1.155a.787.787,0,0,1-.014-.574,56.563,56.563,0,0,1,2.857-5.824c.391-.633.666-.993.421-1.712-.281-.824-.592-1.726.521-2.26,1.678-.512,1.675.872,2.058,1.821a2.407,2.407,0,0,0,.242.758c.383.454.657.463.776-.188a9.518,9.518,0,0,0-.011-1.3,11.217,11.217,0,0,1,.071-2.153c.182-.988.64-1.709,1.8-1.639a2,2,0,0,1,1.306,2.046c.07.964.02,1.93.037,2.891.033.224-.05.524.259.606s.406-.185.53-.389c.763-2.248,1.2-4.585,1.893-6.848.263-.854.2-1.4-.929-1.344a4.53,4.53,0,0,1-2.013-.762,2.537,2.537,0,0,0-2.729,0c-.98.49-1.94,1.094-3.09.6-.25,1.153.872,2.532-.887,3.06a2.062,2.062,0,0,1-.577-.068c-.955-.407-2.319-5.074-1.728-5.94a1.349,1.349,0,0,1,2.032-.425,3.508,3.508,0,0,0,4.391-.109c1.081-.76,2.067-.308,2.978.258a2.928,2.928,0,0,0,3.469.023,1.669,1.669,0,0,1,2.16-.086c.726.62.518,1.362.3,2.145-.844,3.093-1.631,6.2-2.489,9.291-.2.713-.308,1.213.468,1.691,1.251.771.62,2.471,1.308,3.314.8.979,1.722,1.777,1.459,3.1-.167.838.175.982.8,1.163a17.256,17.256,0,0,1,4.84,2.324c.627.422,1.013.906.7,1.7-.354.987-1.05,1-1.846.615-.69-.331-1.262-.865-1.963-1.182a15.248,15.248,0,0,0-3.148-1.165c.576,1.1,1.041,1.982,1.472,2.876.105.22.207.441.3.667.554,1.416.416,2.3-.422,2.724-.821.413-1.595-.075-2.235-1.519a11.916,11.916,0,0,0-2.671-4.134,3.233,3.233,0,0,0-1.911-.982,25.436,25.436,0,0,0-4.663,0c-1.444.147-2.276,1.231-3.069,2.282a14.954,14.954,0,0,0-1.582,2.951c-.609,1.356-1.356,1.8-2.156,1.408-.85-.419-1.05-1.434-.487-2.709.506-1.145,1.12-2.24,1.707-3.4-5.707.831-11.085,7.294-11.271,13.464a3.823,3.823,0,0,1-.132.964,6.734,6.734,0,0,0-.128,2.03c-.006,7.145-.128,14.294.052,21.434a13.8,13.8,0,0,1-2.617,8.728,7.381,7.381,0,0,1-.449.782c-.044.281-.688.505-.063.845q22.263.026,44.5.007a2.943,2.943,0,0,0,.569-.046c.437-.471-.185-.685-.26-1.031a16.171,16.171,0,0,1-2.9-10.566c.218-6.7.063-13.412.057-20.119a7.606,7.606,0,0,0-.113-2.03,2.842,2.842,0,0,1-.136-.727,14.344,14.344,0,0,0-2.518-7.707C4050.694-1498.393,4050.123-1499.214,4051.322-1499.914Z"/>
    <path id="Trazado_582107" data-name="Trazado 582107" d="M4061.9-1430.2c.042.578.118,1.155.119,1.733.008,7.25.088,14.5-.035,21.75a12.933,12.933,0,0,0,2.19,7.986,16.166,16.166,0,0,1,.956,1.79c.1.633-.267.887-.809.975a6.345,6.345,0,0,1-1.02.033q-21.016,0-42.032-.014c-.732,0-1.775.349-1.824-1l.273-.473a3.689,3.689,0,0,1,2.389-.441q16.042-.008,32.083-.005c4.315,0,5.553-1.932,3.711-5.821a12.425,12.425,0,0,1-1.187-5.508c.059-7.681-.05-15.363.014-23.043a16.67,16.67,0,0,0-2.792-9.5c-.353-.539-.953-1.044-.549-1.827a4.706,4.706,0,0,1,1.762.965,1.276,1.276,0,0,0,1.9-.15q1.024,1.08,2.05,2.157c-.649.73-.367,1.36.114,2.07a13.783,13.783,0,0,1,2.655,7.822.954.954,0,0,0-.265.4c-.091,8.429-.03,16.857-.029,25.254-.028-7.9-.007-15.778,0-23.651C4061.57-1429.2,4061.422-1429.774,4061.9-1430.2Z" transform="translate(-7.778 -59.328)" fill="#fec150"/>
    <path id="Trazado_582108" data-name="Trazado 582108" d="M4084.858-1514.237a1.366,1.366,0,0,0-1.357,1.633c.024.709-.035,1.421-.056,2.132-.407.6-.883,1.069-1.7.865-.454-.837-.236-2.231-1.787-2.16q-.343-1.42-.687-2.839c1.478-1.133.108-2.395.2-3.839,1.376,1.06,2.637.492,3.826-.246a2.173,2.173,0,0,1,2.786.124A4.765,4.765,0,0,1,4084.858-1514.237Z" transform="translate(-50.117 -5.845)" fill="#fdcf63"/>
    <path id="Trazado_582109" data-name="Trazado 582109" d="M4054.045-1447.987c.743,1.294,1.523,2.569,2.221,3.887a13.9,13.9,0,0,1,1.572,6.585c.01,7.839.029,15.678-.011,23.516a13.449,13.449,0,0,0,1.5,6.439c1.6,3.084-.036,5.746-3.465,5.744q-17.743-.008-35.486-.024c.01-.047.007-.106.034-.14,2.773-3.573,2.933-7.712,2.834-12-.147-6.35-.041-12.7-.032-19.058,0-.527.077-1.054.118-1.582.358.278.329.682.328,1.064-.025,7.986.081,15.972-.047,23.93.1-8.461.078-16.894.012-25.327a1.294,1.294,0,0,0-.247-.456c.1-6.469,6.252-13.34,12.619-13.968a21.244,21.244,0,0,0-2.493,4.617c-.293.807-.471,1.594.528,1.935.938.321,1.266-.446,1.529-1.153a15.477,15.477,0,0,1,1.481-2.994,5.461,5.461,0,0,1,5.168-2.836c4.784.161,6.143.958,7.965,5.405q.138.337.263.679c.242.66.652,1.153,1.408.911.821-.262.922-.928.65-1.661a17.767,17.767,0,0,0-2.107-4.14c-.162-.228-.3-.472-.545-.857A10.288,10.288,0,0,1,4054.045-1447.987Z" transform="translate(-8.439 -54.9)" fill="#fecf64"/>
    <path id="Trazado_582110" data-name="Trazado 582110" d="M4098.381-1512.861a28.326,28.326,0,0,0,1.222-4.329c.982.307,1.836,1.035,3.034.541.667-.275.6.4.48.825q-1.138,4.136-2.3,8.265c-.5.133-1.017.4-1.491-.075-.022-1.145-.084-2.291-.054-3.434A1.75,1.75,0,0,0,4098.381-1512.861Z" transform="translate(-63.641 -7.222)" fill="#fdc14f"/>
    <path id="Trazado_582111" data-name="Trazado 582111" d="M4018.051-1284.079c.251.688.816.724,1.429.724q21.412-.008,42.824,0c.613,0,1.177-.037,1.432-.721a1.815,1.815,0,0,1,.573.992,2.024,2.024,0,0,1-1.274.154q-22.143.01-44.285,0a2.034,2.034,0,0,1-1.274-.154A1.807,1.807,0,0,1,4018.051-1284.079Z" transform="translate(-6.387 -172.188)" fill="#f9bd4e"/>
    <path id="Trazado_582112" data-name="Trazado 582112" d="M4017.865-1277.482h46.522v.146h-46.581Z" transform="translate(-6.621 -176.856)" fill="#040301"/>
    <path id="Trazado_582113" data-name="Trazado 582113" d="M4017.124-1280.676h46.833c.182.155.213.352-.045.389a9.344,9.344,0,0,1-1.306.05q-22.065,0-44.131-.013c-.494,0-1.057.255-1.494-.215-.012-.013.018-.076.04-.107A.846.846,0,0,1,4017.124-1280.676Z" transform="translate(-6.034 -174.595)" fill="#fed056"/>
    <path id="Trazado_582114" data-name="Trazado 582114" d="M4030.815-1373.087c-.482-.489-.265-1.1-.268-1.661q-.049-12.505-.066-25.011.023-.394.046-.789h.287a1.6,1.6,0,0,1,.142.99q.005,12.742,0,25.483A1.586,1.586,0,0,1,4030.815-1373.087Z" transform="translate(-15.59 -89.765)" fill="#fede6b"/>
    <path id="Trazado_582115" data-name="Trazado 582115" d="M4163.5-1399.052q-.027,12.505-.064,25.011c0,.556.214,1.173-.27,1.66a1.591,1.591,0,0,1-.141-.99q-.005-12.6,0-25.191a1.6,1.6,0,0,1,.14-.99h.306Z" transform="translate(-109.377 -90.471)" fill="#fecf56"/>
    <ellipse id="Elipse_7344" data-name="Elipse 7344" cx="0.075" cy="18.283" rx="0.075" ry="18.283" transform="translate(4014.119 -1495.275)" fill="#040301"/>
    <path id="Trazado_582116" data-name="Trazado 582116" d="M4076.626-1461.132c-.653-.865-.517-1.4.468-1.409,3.577-.051,7.156-.061,10.732.006.927.018,1.356.542.481,1.363a3.1,3.1,0,0,0-.393-.273,91,91,0,0,0-10.912.021A2.586,2.586,0,0,0,4076.626-1461.132Z" transform="translate(-47.962 -45.866)" fill="#f3f6f8"/>
    <ellipse id="Elipse_7345" data-name="Elipse 7345" cx="0.075" cy="18.077" rx="0.075" ry="18.077" transform="translate(4054.721 -1494.923)" fill="#040301"/>
    <path id="Trazado_582117" data-name="Trazado 582117" d="M4082.2-1474.031c-.374-.079-.663-.307-.548-.685a.982.982,0,0,1,.975-.728c2.427,0,4.856-.06,7.28.026.9.032,1.407.529.468,1.36a2.732,2.732,0,0,0-.353-.279,35.964,35.964,0,0,0-7.48.017A2.48,2.48,0,0,0,4082.2-1474.031Z" transform="translate(-51.787 -36.749)" fill="#e4eff4"/>
    <path id="Trazado_582118" data-name="Trazado 582118" d="M4089.26-1459.259a1.982,1.982,0,0,0,.016.2,111.657,111.657,0,0,1-11.681.039c0-.089,0-.178,0-.267.082-.053.16-.147.245-.153a109.115,109.115,0,0,1,11.049-.037C4089.04-1459.473,4089.142-1459.341,4089.26-1459.259Z" transform="translate(-48.931 -47.977)" fill="#f8fcfe"/>
    <ellipse id="Elipse_7346" data-name="Elipse 7346" cx="7.77" cy="0.082" rx="7.77" ry="0.082" transform="translate(4026.71 -1506.328)" fill="#030303"/>
    <path id="Trazado_582119" data-name="Trazado 582119" d="M4091.761-1472.327a1.786,1.786,0,0,0,0,.226,48.512,48.512,0,0,1-8.176.027c0-.1,0-.194,0-.29,1.849-.606,3.75-.175,5.625-.256A3.728,3.728,0,0,1,4091.761-1472.327Z" transform="translate(-53.172 -38.706)" fill="#eef9fe"/>
    <path id="Trazado_582120" data-name="Trazado 582120" d="M4092.339-1468h-7.381l0-.144h7.434Z" transform="translate(-54.139 -41.93)" fill="#030404"/>
    <path id="Trazado_582121" data-name="Trazado 582121" d="M4087.707-1488.635l1.7-.865q0,.731,0,1.463c-.475.472-.989.2-1.5.079A.724.724,0,0,1,4087.707-1488.635Z" transform="translate(-56.079 -26.817)" fill="#f8be4e"/>
    <path id="Trazado_582122" data-name="Trazado 582122" d="M4101.618-1484.712c.49.161,1.013-.327,1.491.074C4102.582-1484.046,4102.075-1483.881,4101.618-1484.712Z" transform="translate(-65.931 -30.143)" fill="#fed055"/>
    <path id="Trazado_582123" data-name="Trazado 582123" d="M4088.43-1484.631c.478-.41,1,.082,1.5-.079C4089.469-1483.876,4088.96-1484.054,4088.43-1484.631Z" transform="translate(-56.598 -30.144)" fill="#fed055"/>
    <path id="Trazado_582124" data-name="Trazado 582124" d="M4162.765-1399.549v27.17c-.453.075-.286-.28-.286-.457q-.012-13.128-.005-26.255a1.394,1.394,0,0,1,.058-.418C4162.542-1399.544,4162.683-1399.537,4162.765-1399.549Z" transform="translate(-108.98 -90.473)" fill="#f9bd4e"/>
    <path id="Trazado_582125" data-name="Trazado 582125" d="M4076.573-1397.288c-1.263.616-1.964.007-2.532-1.084-.626-1.2-1.326-2.37-2.027-3.532-.595-.985-.47-1.743.592-2.272a14.108,14.108,0,0,1,13.285.013,1.347,1.347,0,0,1,.619,2.156c-.79,1.336-1.553,2.687-2.331,4.03a1.5,1.5,0,0,1-2.282.689A32.427,32.427,0,0,0,4076.573-1397.288Z" transform="translate(-44.73 -86.027)" fill="#010100"/>
    <path id="Trazado_582126" data-name="Trazado 582126" d="M4118.311-1358.869a15.332,15.332,0,0,1-3.6,8.428,15.05,15.05,0,0,1-3.227,2.705c-.609.379-1.33.493-1.7-.129-1.119-1.9-2.625-3.614-3.079-5.867a1.388,1.388,0,0,1,1.25-1.206.126.126,0,0,0,.157-.117,15.409,15.409,0,0,0,1.8-3.386.771.771,0,0,1,.28-.294c.531-2.187.531-2.187,2.9-2.187,1.116,0,2.233.041,3.347-.013a1.757,1.757,0,0,1,1.881,1.037A.753.753,0,0,1,4118.311-1358.869Z" transform="translate(-69.533 -117.796)" fill="#010101"/>
    <path id="Trazado_582127" data-name="Trazado 582127" d="M4051.5-1353.716a1.294,1.294,0,0,1-1.58-.93,14.823,14.823,0,0,1-.958-4.693c-.043-.914.372-1.513,1.35-1.525,1.7-.021,3.4,0,5.106-.008,1.559-.011,1.23,1.335,1.594,2.184a.809.809,0,0,1,.277.3,15.778,15.778,0,0,0,1.806,3.385.125.125,0,0,0,.156.116.758.758,0,0,1,.714.513,1.567,1.567,0,0,1,.148,2.1c-.787,1.274-1.518,2.583-2.251,3.888a1.412,1.412,0,0,1-2.378.535q-1.1-.83-2.157-1.709a1.181,1.181,0,0,1-.3-1.672c.592-1.129,1.292-.6,2.035-.172.41.236.81,1.2,1.357.31.43-.7,1.419-1.464.473-2.42a10.062,10.062,0,0,1-2.417-4.225,1.713,1.713,0,0,0-.331-.473c-2.587-.383-2.605-.335-1.995,2.143C4052.358-1355.22,4052.98-1354.146,4051.5-1353.716Z" transform="translate(-28.668 -117.844)" fill="#010101"/>
    <path id="Trazado_582128" data-name="Trazado 582128" d="M4083.343-1374.14l1.091-.331a1.229,1.229,0,0,1,1.754,0,1.385,1.385,0,0,0,1.091.332,1.635,1.635,0,0,1,1.547,1.108l1.178,2.072c.873,2.27.2,4.167-1.842,5.226a5.125,5.125,0,0,1-5.7,0c-2.046-1.055-2.715-2.952-1.844-5.225l1.178-2.071A1.636,1.636,0,0,1,4083.343-1374.14Z" transform="translate(-50.806 -107.959)" fill="#010101"/>
    <path id="Trazado_582129" data-name="Trazado 582129" d="M4057.31-1348.865c.811-.564.618-1.263.357-2.049-1.014-3.052-.636-3.457,2.605-2.883.07.013.122.133.182.2-.67.313-1.395.025-2.077.178.741.005,1.521-.243,2.167.353a9.643,9.643,0,0,0,2.77,4.488c.461.374.346.716.09,1.12a8.187,8.187,0,0,0-.725,1.25c-.409,1.012-.908,1.084-1.641.293-.607-.655-1.269-1.268-2.2-.467Q4058.073-1347.624,4057.31-1348.865Z" transform="translate(-34.476 -122.694)" fill="#607780"/>
    <path id="Trazado_582130" data-name="Trazado 582130" d="M4031.623-1373.087q0-13.731,0-27.462a1.028,1.028,0,0,1,.293.929q0,13.039,0,26.078a1.359,1.359,0,0,1-.058.417C4031.845-1373.091,4031.7-1373.1,4031.623-1373.087Z" transform="translate(-16.397 -89.765)" fill="#f9cb62"/>
    <path id="Trazado_582131" data-name="Trazado 582131" d="M4107.33-1356.341a5.412,5.412,0,0,0,1.842-5.226l.287.3c.318.568-.046,1.229.253,1.862.021.13.156-.17-.01-.069-.05.031-.087-.008-.084-.115a3.7,3.7,0,0,1,.119-1.684l.586.877c.337.439-.055,1.018.28,1.457a4.918,4.918,0,0,1-2.046,3.443c-.39-.461.236-.732.22-1.208C4108.261-1356.669,4107.931-1355.813,4107.33-1356.341Z" transform="translate(-69.974 -117.352)" fill="#f8cb61"/>
    <path id="Trazado_582132" data-name="Trazado 582132" d="M4078.058-1361.567a5.4,5.4,0,0,0,1.844,5.225c-.584.4-.93-.073-1.318-.47-.312.538.577.87.093,1.315a4.918,4.918,0,0,1-2.049-3.445c.337-.438-.057-1.018.281-1.457l.585-.877a3.594,3.594,0,0,1,.11,1.683c.213-.453-.149-1.111.168-1.677Z" transform="translate(-48.247 -117.352)" fill="#f8cb61"/>
    <path id="Trazado_582133" data-name="Trazado 582133" d="M4092.01-1377.271h-1.755l-1.785-.885a5.892,5.892,0,0,1,5.325,0Z" transform="translate(-56.627 -105.159)" fill="#facc62"/>
    <path id="Trazado_582134" data-name="Trazado 582134" d="M4058.368-1362.988c-1.913.587-3.867.178-5.8.234-.025,0-.07-.061-.074-.1a.382.382,0,0,1,.035-.138A24.848,24.848,0,0,1,4058.368-1362.988Z" transform="translate(-31.165 -116.224)" fill="#fedc69"/>
    <path id="Trazado_582135" data-name="Trazado 582135" d="M4128.4-1362.989a12.31,12.31,0,0,1-5.842,0A24.851,24.851,0,0,1,4128.4-1362.989Z" transform="translate(-80.751 -116.224)" fill="#fedc69"/>
    <path id="Trazado_582136" data-name="Trazado 582136" d="M4128.4-1363.447h-5.842A11.98,11.98,0,0,1,4128.4-1363.447Z" transform="translate(-80.751 -115.766)" fill="#facb62"/>
    <path id="Trazado_582137" data-name="Trazado 582137" d="M4058.456-1363.446h-5.841A11.978,11.978,0,0,1,4058.456-1363.446Z" transform="translate(-31.253 -115.766)" fill="#facb62"/>
    <path id="Trazado_582138" data-name="Trazado 582138" d="M4087.094-1372.9l-1.547,1.109C4085.509-1372.938,4085.972-1373.381,4087.094-1372.9Z" transform="translate(-54.557 -109.195)" fill="#facc62"/>
    <path id="Trazado_582139" data-name="Trazado 582139" d="M4105.858-1371.8l-1.547-1.108C4105.433-1373.381,4105.9-1372.939,4105.858-1371.8Z" transform="translate(-67.837 -109.195)" fill="#facc62"/>
    <path id="Trazado_582140" data-name="Trazado 582140" d="M4107.785-1340.637l-1.251,1.206C4106.284-1340.526,4106.693-1340.936,4107.785-1340.637Z" transform="translate(-69.36 -132.096)" fill="#f8cb61"/>
    <path id="Trazado_582141" data-name="Trazado 582141" d="M4146.4-1356.349l.009-1.028c.4.624.4.624.144,2.215C4146.483-1355.72,4146.442-1356.034,4146.4-1356.349Z" transform="translate(-97.624 -120.317)" fill="#feda68"/>
    <path id="Trazado_582142" data-name="Trazado 582142" d="M4094.758-1407.288a2.364,2.364,0,0,1,1.935,0Z" transform="translate(-61.077 -84.85)" fill="#fed767"/>
    <path id="Trazado_582143" data-name="Trazado 582143" d="M4079.872-1360.565v1.688l-.278.009v-1.7Q4079.733-1360.57,4079.872-1360.565Z" transform="translate(-50.345 -118.057)" fill="#fdd968"/>
    <path id="Trazado_582144" data-name="Trazado 582144" d="M4114.888-1360.571v1.689l-.278.01q0-.846,0-1.693C4114.7-1360.569,4114.795-1360.571,4114.888-1360.571Z" transform="translate(-75.125 -118.057)" fill="#fdd968"/>
    <path id="Trazado_582145" data-name="Trazado 582145" d="M4076.746-1357.572c-.066.491.188,1.044-.281,1.457a.169.169,0,0,1-.034-.237C4076.515-1356.764,4076.322-1357.248,4076.746-1357.572Z" transform="translate(-48.083 -120.179)" fill="#feda68"/>
    <path id="Trazado_582146" data-name="Trazado 582146" d="M4117.82-1356.115c-.466-.414-.214-.966-.28-1.457.424.324.23.808.314,1.22A.17.17,0,0,1,4117.82-1356.115Z" transform="translate(-77.191 -120.179)" fill="#feda68"/>
    <path id="Trazado_582147" data-name="Trazado 582147" d="M4084.886-1340.358a1.139,1.139,0,0,1-.714-.513c.247-.049.476-.337.743-.1C4085.132-1340.774,4084.95-1340.56,4084.886-1340.358Z" transform="translate(-53.585 -131.862)" fill="#f8cb61"/>
    <path id="Trazado_582148" data-name="Trazado 582148" d="M4089.262-1459.906l-11.665-.03c.082-.614.544-.578.986-.578h9.731C4088.761-1460.514,4089.221-1460.537,4089.262-1459.906Z" transform="translate(-48.933 -47.33)" fill="#eef1f3"/>
    <path id="Trazado_582149" data-name="Trazado 582149" d="M4091.767-1472.9l-8.171-.038c.065-.51.424-.572.844-.571q3.26.007,6.52,0C4091.395-1473.508,4091.725-1473.4,4091.767-1472.9Z" transform="translate(-53.177 -38.135)" fill="#dbe6eb"/>
    <path id="Trazado_582150" data-name="Trazado 582150" d="M4090.962-1396.933c-.384.665-.823,1.315-1.148,2.018-.506,1.094-1.267.384-1.869.26a7.365,7.365,0,0,0-3.892.089,1.343,1.343,0,0,1-1.931-.785c-1.132-2.088-1.189-2.064,1.13-2.632a11.6,11.6,0,0,1,6.885.378C4090.467-1397.484,4090.939-1397.5,4090.962-1396.933Z" transform="translate(-51.596 -91.332)" fill="#607780"/>
    <path id="Trazado_582151" data-name="Trazado 582151" d="M4122.655-1351.473a11.335,11.335,0,0,1-4.061,6.82c-.507.445-.814.4-1.077-.2a1.58,1.58,0,0,0-.21-.38c-.979-1.185-1.178-2.21.23-3.335,1.072-.856,1.371-2.291,1.885-3.536.738-.772,1.676-.531,2.561-.478C4122.68-1352.541,4122.42-1351.84,4122.655-1351.473Z" transform="translate(-76.482 -123.655)" fill="#607780"/>
    <path id="Trazado_582152" data-name="Trazado 582152" d="M4129.652-1352.133c-.812-1.569-2.1-.7-3.232-.632-.04-.523.142-.824.727-.794a8.52,8.52,0,0,0,1.44-.007C4129.812-1353.712,4130.192-1353.276,4129.652-1352.133Z" transform="translate(-83.479 -122.995)" fill="#647c85"/>
    <path id="Trazado_582153" data-name="Trazado 582153" d="M4063.027-1352.038c-.747-.344-1.585-.159-2.35-.53h2.26Q4062.982-1352.3,4063.027-1352.038Z" transform="translate(-36.958 -123.72)" fill="#647b85"/>
    <path id="Trazado_582154" data-name="Trazado 582154" d="M4089.657-1364.225c.37-1.346,1.481-1.515,2.594-1.52a1.994,1.994,0,0,1,2.036,1.521c-.018.674.019,1.349-.018,2.023-1.325,2.134-3.27,2.133-4.595,0C4089.64-1362.876,4089.678-1363.551,4089.657-1364.225Z" transform="translate(-57.467 -114.395)" fill="#607780"/>
    <path id="Trazado_582155" data-name="Trazado 582155" d="M4088.938-1360.546a1.859,1.859,0,0,1,.017,2.023A1.828,1.828,0,0,1,4088.938-1360.546Z" transform="translate(-56.748 -118.074)" fill="#647c86"/>
    <path id="Trazado_582156" data-name="Trazado 582156" d="M4104.735-1358.519a1.866,1.866,0,0,1,.018-2.023A1.825,1.825,0,0,1,4104.735-1358.519Z" transform="translate(-67.933 -118.077)" fill="#647c86"/>
  </g>
</svg>
