<svg xmlns="http://www.w3.org/2000/svg" width="71.015" height="74.771" viewBox="0 0 71.015 74.771">
  <g id="Grupo_844334" data-name="Grupo 844334" transform="translate(-4494.037 820.413)">
    <path id="Trazado_581738" data-name="Trazado 581738" d="M4516.033-787.541a1.545,1.545,0,0,1,.95-2.006c2.649-1.237,4.455-3.373,6.229-5.611,4.767-6.012,9.612-11.963,14.467-17.9a1.576,1.576,0,0,0,.213-2.232c-1.115-1.72-.6-3.044,1.425-4.3s3.411-1.1,4.5.665q10.364,16.72,20.668,33.477c1.06,1.723.612,3.081-1.251,4.254-2.142,1.349-3.533,1.253-4.625-.53a1.594,1.594,0,0,0-2.092-.825c-6.827,1.538-13.674,2.989-20.514,4.472-.3.065-.588.172-1,.294a4.107,4.107,0,0,1,.889,2.868c-.093.606.219.795.652,1.027a3.579,3.579,0,0,1,2.023,3.387c-.011.639.267.844.765,1.128a3.589,3.589,0,0,1,1.907,4.292,1.191,1.191,0,0,0,.462,1.4c1.978,1.848,1.666,4.424-.493,6.077-2.486,1.9-5.654,2.453-8.161,4.2a10.474,10.474,0,0,1-9.906,1.638c-1.169-.392-3.369.97-4,2.322-1.151,2.471-2.732,3.935-5.8,3.794-5.245-.24-10.508-.06-15.764-.069-2.6,0-3.511-.935-3.519-3.547,0-.721.047-1.446-.011-2.163a3.44,3.44,0,0,1,1.524-3.172c3.415-2.656,6.8-5.352,10.193-8.033.528-.417,1.049-.876,1.8-.674.633.171.926-.329,1.318-.624.764-.576,1.378-1.392,2.546-1.2.472.079.816-.383,1.079-.773q1.291-1.921,2.558-3.859c.148-.228.479-.467.155-.8-.292-.3-.584-.258-.97-.1-3.374,1.364-3.915,1.177-5.823-1.913-.648-1.05-1.327-2.083-1.938-3.154a3.126,3.126,0,0,1,1.049-4.558,1.606,1.606,0,0,0,.917-1.677c-.122-1.922,1.723-4.04,3.629-4.492a1.343,1.343,0,0,1,1.263.4c.818.6.526,1.217.011,1.8a6.784,6.784,0,0,1-1.213.921,1.657,1.657,0,0,0-.52,2.5c.562.908,1.116,1.822,1.647,2.748.924,1.42,1.776,2.885,2.722,4.294.46.686.8.861,1.288.019,1.732-3.023,4.606-4.607,7.671-5.875.831-.344.739-.626.364-1.2-.728-1.119-1.35-2.3-2.107-3.406-.659-1.043-1.308-2.094-1.9-3.172a1.132,1.132,0,0,0-1.885-.451,6.07,6.07,0,0,1-1.773.92C4517-786.79,4516.3-786.607,4516.033-787.541Z"/>
    <path id="Trazado_581739" data-name="Trazado 581739" d="M4553.3-716.931c1.152.968,2,.049,2.888-.486,1.786-1.078,1.784-1.095,2.882.707.586.962,1.147,1.941,1.719,2.912.1.591-.362.821-.729,1.061-2.835,1.859-5.743,3.6-8.644,5.356-.332.2-.7.487-1.119.123-.521-.817-1.052-1.627-1.559-2.453-1.138-1.853-1.013-2.438.809-3.6.8-.512,1.629-.973,1.068-2.145Q4551.955-716.19,4553.3-716.931Z" transform="translate(-37.264 -70.61)" fill="#fc6f5c"/>
    <path id="Trazado_581740" data-name="Trazado 581740" d="M4608.1-787.334c-.59.773-.2,1.424.224,2.106q3.692,5.947,7.355,11.912c.293.478.543.982.814,1.475a2.837,2.837,0,0,1-1.8.759c-7.711,1.763-15.418,3.541-23.141,5.256a2.121,2.121,0,0,1-1.785-.1c-.992-1.554-1.93-3.145-3-4.644-.529-.742-.093-1.108.288-1.579,5.3-6.557,10.616-13.1,15.877-19.687.739-.925.992-.637,1.441.166.511.914.933,2.067,2.4,1.6C4607.688-789.393,4608.438-788.629,4608.1-787.334Z" transform="translate(-63.861 -19.336)" fill="#fcce66"/>
    <path id="Trazado_581741" data-name="Trazado 581741" d="M4597-720.028c5.224-1.174,10.445-2.357,15.672-3.517,3.682-.817,7.371-1.6,11.057-2.4,1.076,1.688,2.131,3.389,3.236,5.058.585.883.525,1.268-.633,1.512-7.05,1.489-14.081,3.063-21.126,4.571-1.491.319-3.2,1.316-4.433.672-1.146-.6-1.689-2.365-2.473-3.631C4597.84-718.5,4597.43-719.272,4597-720.028Z" transform="translate(-71.098 -65.233)" fill="#f4b254"/>
    <path id="Trazado_581742" data-name="Trazado 581742" d="M4560.873-661.479c-1.408-1.626-2.822-3.247-4.219-4.882-.234-.273-.6-.459-.147-.989,2.412-2.8,4.21-6.045,6.273-9.1,1.441-2.131,3.626-3.227,5.786-4.347a1.741,1.741,0,0,1,2.2.507,39.155,39.155,0,0,1,3.8,5.9.662.662,0,0,1-.094.849c-.824.269-1.692.361-2.514.636-.8-.883-1.195-2.062-2.115-2.853a2.236,2.236,0,0,0-1.95-1.294c-1-.053.112.568-.229.728a2.423,2.423,0,0,0-2.062,2.166,4.452,4.452,0,0,1-1.877,2.679c-.642.537-1.473,1.041-.783,1.992.752,1.038,1.532.326,2.255-.162.248-.167.485-.35.811-.586l3.5,5.7c.364.542-.007.892-.375,1.152-1.836,1.3-3.766,2.375-6.141,1.909A7.58,7.58,0,0,0,4560.873-661.479Z" transform="translate(-42.988 -96.271)" fill="#fee5ce"/>
    <path id="Trazado_581743" data-name="Trazado 581743" d="M4502.125-618.317c2-2.081,4.459-3.592,6.636-5.454.975-.834,2.021-1.583,3-2.409a.983.983,0,0,1,1.654.157c1.353,1.676,2.766,3.305,4.154,4.953a.612.612,0,0,1,.009.839,31.6,31.6,0,0,1-5.253,5.941l-.311-.008a59.778,59.778,0,0,0-8.145-.124c-1.263.01-1.749-.317-1.621-1.615A4.487,4.487,0,0,0,4502.125-618.317Z" transform="translate(-5.585 -133.862)" fill="#3a5466"/>
    <path id="Trazado_581744" data-name="Trazado 581744" d="M4646.35-801.212c-.127-1.067-.983-1.779-1.333-2.738a1.631,1.631,0,0,0,0-2.119c-.971-1.516-1.862-3.083-2.856-4.582-.556-.838-.1-1.163.528-1.56s1.026-.49,1.488.265q8.488,13.884,17.025,27.739c-.19,1.054-.9,1.34-1.861,1.273q-5.357-8.631-10.71-17.265C4648.091-801.078,4647.574-801.915,4646.35-801.212Z" transform="translate(-102.114 -5.458)" fill="#fa6f5b"/>
    <path id="Trazado_581745" data-name="Trazado 581745" d="M4555.41-697.527a113.684,113.684,0,0,0,10.491-6.54l2.968,4.638c-3.844,1.271-7.16,3.053-9.165,6.623-.5.894-.938.776-1.409.007Q4556.85-695.161,4555.41-697.527Z" transform="translate(-42.38 -80.341)" fill="#d63d38"/>
    <path id="Trazado_581746" data-name="Trazado 581746" d="M4571.1-624.747c.432-1.053,1.219-.581,1.916-.434,2.37.5,5.722-.8,6.726-2.621.429.633.849,1.271,1.289,1.9a4.637,4.637,0,0,0,3.422,2.1c.5.05.881.154,1.046.674.2.623-.4.611-.676.825a7.256,7.256,0,0,1-7.469,1.367,2.268,2.268,0,0,0-.756-.13C4573.974-621.121,4572.375-622.691,4571.1-624.747Z" transform="translate(-53.213 -133.004)" fill="#edd3bc"/>
    <path id="Trazado_581747" data-name="Trazado 581747" d="M4535.1-602.041q2.389-2.931,4.783-5.858a1.38,1.38,0,0,0,.461-.921c1.258,1.485,2.53,2.958,3.761,4.465.28.344,1.021.587.545,1.23-.412.557-.773,1.152-1.685,1.127C4540.342-602.067,4537.718-602.034,4535.1-602.041Z" transform="translate(-28.353 -146.112)" fill="#17414e"/>
    <path id="Trazado_581748" data-name="Trazado 581748" d="M4600.088-647.78c-.29.706-.38,1.383-1.221.944a3.784,3.784,0,0,1-1.413-1.39c-1.521-2.381-3.013-4.779-4.547-7.151-.3-.47-.511-.884-.169-1.4.186-.279.148-.771.621-.777.35,0,.487.331.642.594a19.475,19.475,0,0,0,1.5,2.5,15.723,15.723,0,0,1,3.386,5.522C4599.028-648.449,4599.717-648.121,4600.088-647.78Z" transform="translate(-68.034 -112.462)" fill="#31485a"/>
    <path id="Trazado_581749" data-name="Trazado 581749" d="M4698.238-719.782a6.6,6.6,0,0,0,1.861-1.273c1.091,1.722,2.152,3.463,3.283,5.157.584.874-.029,1.121-.588,1.513-.63.443-1.063.427-1.479-.285C4700.313-716.388,4699.266-718.08,4698.238-719.782Z" transform="translate(-141.007 -68.61)" fill="#d43c37"/>
    <path id="Trazado_581750" data-name="Trazado 581750" d="M4544.915-679.889c-.009.469-.413.551-.706.723a.775.775,0,0,1-1.106-.108,34.683,34.683,0,0,1-2.994-4.813c-.285-.521.126-.935.6-1.248.543-.355.817-.12,1.1.337.958,1.573,1.936,3.135,2.9,4.7C4544.792-680.165,4544.85-680.022,4544.915-679.889Z" transform="translate(-31.749 -93.157)" fill="#31485a"/>
    <path id="Trazado_581751" data-name="Trazado 581751" d="M4557.566-618.21c1.311,1.511,2.611,3.032,3.94,4.527.406.457.338.748-.1,1.138-.508.454-.8.214-1.131-.186q-2-2.431-4.007-4.855C4556.594-618.018,4556.886-618.516,4557.566-618.21Z" transform="translate(-42.974 -139.562)" fill="#909fa4"/>
    <path id="Trazado_581752" data-name="Trazado 581752" d="M4618.34-644.531a1.333,1.333,0,0,1,.043-2.387,37.059,37.059,0,0,1,3.769-2.322,1.246,1.246,0,0,1,1.77.286c.026.876-.712,1.167-1.257,1.569C4621.277-646.357,4619.682-645.636,4618.34-644.531Z" transform="translate(-85.339 -118.034)" fill="#fae2cb"/>
    <path id="Trazado_581753" data-name="Trazado 581753" d="M4619.944-643.355c.15-1.359,1.489-1.4,2.3-1.983a20.679,20.679,0,0,0,3.282-2.439,1.31,1.31,0,0,1-.221,2.205c-1.262.878-2.609,1.641-3.948,2.4A1.091,1.091,0,0,1,4619.944-643.355Z" transform="translate(-86.942 -119.21)" fill="#ead0b9"/>
    <path id="Trazado_581754" data-name="Trazado 581754" d="M4623.575-627.349c-1.083-.872-.743-1.719.188-2.342,1.225-.819,2.548-1.489,3.829-2.223.414.139.819-.093,1.231-.027.407-.007.374.277.362.547-.131.762-.791,1.036-1.339,1.372C4626.415-629.144,4624.979-628.272,4623.575-627.349Z" transform="translate(-88.985 -130.137)" fill="#f9e1cb"/>
    <path id="Trazado_581755" data-name="Trazado 581755" d="M4625.079-626.108c.509-1.431,2.046-1.558,3.043-2.374a26.521,26.521,0,0,1,2.568-1.671v0c.342.388.113.883.247,1.311-1.258,1.457-3.011,2.18-4.646,3.063A.88.88,0,0,1,4625.079-626.108Z" transform="translate(-90.489 -131.378)" fill="#ead0ba"/>
    <path id="Trazado_581756" data-name="Trazado 581756" d="M4549.792-628.1c-.479.111-.739.676-1.3.625-1.035-1.163-2.059-2.336-3.111-3.484-.456-.5-.541-.885.012-1.4.621-.58.869-.094,1.185.3Q4548.19-630.089,4549.792-628.1Z" transform="translate(-35.2 -129.668)" fill="#c7cfd9"/>
    <path id="Trazado_581757" data-name="Trazado 581757" d="M4616.167-677.421c.147.549-.375.89-.783,1.23-.174.145-1.522-1.81-1.449-2.2.109-.59.623-.616,1.061-.577C4615.826-678.9,4616.219-678.4,4616.167-677.421Z" transform="translate(-82.791 -97.661)" fill="#f0dbc5"/>
    <path id="Trazado_581758" data-name="Trazado 581758" d="M4501.934-599.923c.563.616.344,1.384.275,2.05-.147,1.406.428,1.749,1.744,1.687,2.141-.1,4.291-.036,6.437-.021.492,0,1.037-.161,1.438.3-2.93.015-5.861.01-8.791.055-.846.013-1.238-.265-1.183-1.149C4501.915-597.971,4501.91-598.948,4501.934-599.923Z" transform="translate(-5.394 -152.255)" fill="#3c576a"/>
    <path id="Trazado_581759" data-name="Trazado 581759" d="M4624.219-661.236c.778.736.236,1.311-.3,1.765a16.864,16.864,0,0,1-1.984,1.233,9.844,9.844,0,0,0,.373-2.969c.659.065.46.51.409.868-.1.214.326.013.121.035C4622.95-661.128,4623.316-661.581,4624.219-661.236Z" transform="translate(-88.315 -109.836)" fill="#e2cab4"/>
    <path id="Trazado_581760" data-name="Trazado 581760" d="M4591.56-668.622c-.06-.387-.835-.133-.645-.656a1.12,1.12,0,0,1,.7-.528c.911-.253,1.983.658,2.121,1.751A6.784,6.784,0,0,0,4591.56-668.622Z" transform="translate(-66.876 -103.969)" fill="#ecd2bb"/>
    <path id="Trazado_581761" data-name="Trazado 581761" d="M4624.954-663.042c-.841.027-1.149.68-1.486,1.325-.265-.427.02-.982-.428-1.3-.114-.522-.039-.931.614-.951S4624.9-663.884,4624.954-663.042Z" transform="translate(-89.05 -108.031)" fill="#f4dec7"/>
    <path id="Trazado_581762" data-name="Trazado 581762" d="M4606.941-656.67a1.951,1.951,0,0,1,2.514-.636C4608.779-656.455,4608.132-655.484,4606.941-656.67Z" transform="translate(-77.964 -112.502)" fill="#e2c9b3"/>
    <path id="Trazado_581763" data-name="Trazado 581763" d="M4639.293-632.488a.765.765,0,0,1-1.232.027A.838.838,0,0,1,4639.293-632.488Z" transform="translate(-99.453 -129.591)" fill="#fef2d9"/>
    <path id="Trazado_581764" data-name="Trazado 581764" d="M4643.342-628.845c-.443-.369-.266-.855-.247-1.311C4643.845-629.846,4643.678-629.361,4643.342-628.845Z" transform="translate(-102.894 -131.378)" fill="#f9dec6"/>
  </g>
</svg>
