<svg xmlns="http://www.w3.org/2000/svg" width="74.675" height="74.771" viewBox="0 0 74.675 74.771">
  <g id="Grupo_844309" data-name="Grupo 844309" transform="translate(-3580.081 931.893)">
    <path id="Trazado_581117" data-name="Trazado 581117" d="M3603.066-860.593a1.287,1.287,0,0,1-1.051-.354c.451-1.171,1.21.154,1.581-.271a5.4,5.4,0,0,1-2.678-1.071,4.328,4.328,0,0,0-3.347-.929c-2.807,0-5.613.013-8.42,0-2.077-.012-2.324-.254-2.327-2.354q-.015-17.366,0-34.733c0-.551,0-1.1,0-1.654-.014-1.768-.014-1.768-1.748-2.031l-.126.028-.1-.082c.4-1.239,1.285-.067,1.692-.406-3.082-.509-4.48-2.06-4.331-4.97a6.019,6.019,0,0,1,3.129-3.1c8.438-4.307,16.771-8.813,25.23-13.078,1.164-.587,2.245-1.326,3.429-1.878,1.717-.666,3.181-1.961,5.124-2.072a36.7,36.7,0,0,1,6.653,3.126c5.637,3.058,11.379,5.916,17.05,8.908,3.19,1.682,6.35,3.429,9.606,4.987a6.637,6.637,0,0,1,1.5.99c1.773,1.542,2.036,2.569,1.2,4.767a5.077,5.077,0,0,1-4.195,2.373c-.159.111.157.236.039.073-.049-.068-.015-.143.077-.121.623.153,1.459-.681,1.881.4l-.1.082-.128-.028c-1.731.265-1.743.265-1.744,2.032q-.01,17.358,0,34.717c0,.5,0,1,0,1.5-.016,2.308-.208,2.513-2.461,2.522-2.855.011-5.711.02-8.567-.006a4.134,4.134,0,0,0-2.8.792,6.96,6.96,0,0,1-3.18,1.244c.61.171,1.341-.814,1.813.242a1.286,1.286,0,0,1-1.05.353c-1.8.241-1.8.241-1.83,2.11-.039,2.314-.2,2.5-2.487,2.5q-11.5.013-23,0c-2.284,0-2.451-.184-2.489-2.5C3604.864-860.354,3604.864-860.354,3603.066-860.593Z" transform="translate(-1.477 -1.635)"/>
    <path id="Trazado_581118" data-name="Trazado 581118" d="M3740.753-907.4c.478-2.507-.177-3.815-2.547-5.041q-9.138-4.724-18.28-9.44-7.521-3.895-15.031-7.814c.328-.438.808-.317,1.249-.34.287.008.588-.15.854.08.435.931,1.347.951,2.171,1.141a11.453,11.453,0,0,0,2.951,1.581,7.62,7.62,0,0,0,3.986,2.031q11.429,5.9,22.854,11.807c2.818,1.464,3.69,3.963,2.4,6.609C3740.994-906.829,3740.892-907.132,3740.753-907.4Z" transform="translate(-87.188 -1.267)" fill="#070707"/>
    <path id="Trazado_581119" data-name="Trazado 581119" d="M3613.279-923.285c-1.156.68-2.285,1.414-3.474,2.031-6.565,3.406-13.2,6.682-19.692,10.22-2.478,1.351-5.252,2.213-7.389,4.216-.439.412-.477,1.089-1.079,1.311-.3-.1-.422-.365-.573-.6a4.033,4.033,0,0,1,2.3-2.778q14.339-7.5,28.7-14.955a.983.983,0,0,1,.292-.05C3612.844-923.958,3613.3-923.974,3613.279-923.285Z" transform="translate(-0.692 -5.568)" fill="#070707"/>
    <path id="Trazado_581120" data-name="Trazado 581120" d="M3752.679-801.76c-.981-.588-2.014.479-3.1-.209a6.4,6.4,0,0,0,3.98-1.5c1.5-1.525,3.136-.869,4.708-.951,2.5-.13,5.015-.107,7.518-.005,1.322.054,1.7-.335,1.692-1.675-.052-12.183-.031-24.367-.031-36.55,0-2.216,0-2.216,2.175-2.154-1.12.107-1.3.763-1.3,1.8.038,12.651,0,25.3.058,37.952.005,1.283-.338,1.567-1.567,1.532-3.21-.093-6.425-.016-9.638-.039-1.211-.008-2.384-.093-3.215,1.1A1.735,1.735,0,0,1,3752.679-801.76Z" transform="translate(-118.4 -60.822)" fill="#060606"/>
    <path id="Trazado_581121" data-name="Trazado 581121" d="M3591.736-844.805c2.177-.064,2.177-.064,2.177,2.151,0,12.134.025,24.267-.032,36.4-.007,1.455.4,1.9,1.844,1.828,2.25-.118,4.516.059,6.766-.056,2.445-.125,4.7.119,6.712,1.734a8,8,0,0,0,2.514.859c-1.025.574-2.056-.433-3.037.129-.271-.115-.646-.152-.8-.355-1.283-1.725-3.118-1.459-4.905-1.445-2.811.022-5.625-.062-8.433.037-1.23.043-1.573-.25-1.567-1.532.055-12.651.02-25.3.058-37.953C3593.04-844.046,3592.854-844.7,3591.736-844.805Z" transform="translate(-8.142 -60.822)" fill="#060606"/>
    <path id="Trazado_581122" data-name="Trazado 581122" d="M3651.428-700.871c2.258-.1,2.258-.1,2.26,2.2,0,1.978,0,1.98,1.921,1.98,7.809,0,15.618-.039,23.426.034,1.485.014,2-.46,1.771-1.865a.906.906,0,0,1,0-.15c0-2.295,0-2.295,2.261-2.2-1.272.112-1.412.9-1.385,2,.075,3.078.026,3.079-3.08,3.079-8.17,0-16.341-.02-24.511.025-1.031.005-1.466-.215-1.32-1.3.086-.64-.079-1.318.036-1.949C3653.021-700.185,3652.543-700.739,3651.428-700.871Z" transform="translate(-49.839 -161.357)" fill="#060606"/>
    <path id="Trazado_581123" data-name="Trazado 581123" d="M3580.38-864.838a.547.547,0,0,1,.573.6c-.146,2.351,1.206,4.03,4.521,4.99-.674.37-1.5-.178-2.1.4A4.5,4.5,0,0,1,3580.38-864.838Z" transform="translate(0 -46.841)" fill="#0a0a0a"/>
    <path id="Trazado_581124" data-name="Trazado 581124" d="M3685.782-928.111l-.918-.609a15.842,15.842,0,0,1,4.236-2.089c1.018.1,2.072-.239,3.055.258l0-.008c-.323.457-.811.308-1.249.34C3689.036-929.907,3687.582-928.589,3685.782-928.111Z" transform="translate(-73.195 -0.741)" fill="#070707"/>
    <path id="Trazado_581125" data-name="Trazado 581125" d="M3813.332-854.843a1.052,1.052,0,0,1,.606.613,3.714,3.714,0,0,1-2.721,2.37c-.611-.562-1.427-.068-2.42-.509C3810.937-852.469,3812.083-853.739,3813.332-854.843Z" transform="translate(-159.767 -53.822)" fill="#0a0a0a"/>
    <path id="Trazado_581126" data-name="Trazado 581126" d="M3732.852-918.6c-1.32.321-3.828-.957-3.986-2.031A20.155,20.155,0,0,1,3732.852-918.6Z" transform="translate(-103.932 -7.863)" fill="#070707"/>
    <path id="Trazado_581127" data-name="Trazado 581127" d="M3713.221-928.524c-1.006.607-1.677-.253-2.429-.614-.311-.149.216-.316.258-.526A7.847,7.847,0,0,1,3713.221-928.524Z" transform="translate(-91.238 -1.557)" fill="#070707"/>
    <path id="Trazado_581128" data-name="Trazado 581128" d="M3701.97-931.293c-1.019-.077-2.078.321-3.055-.258C3699.966-931.863,3701.023-932.235,3701.97-931.293Z" transform="translate(-83.01 0)"/>
    <path id="Trazado_581129" data-name="Trazado 581129" d="M3609-880.818c-2.224.725-2.763,2.4-2.731,4.541.064,4.2.022,8.407.016,12.61a5.34,5.34,0,0,0,.437,2.631,1.3,1.3,0,0,1,.129,1c-.97,1.957-.5,4.036-.544,6.059-.076,3.7-.034,7.4-.042,11.107-1.935.309-1.937.309-1.938-1.583q0-17.083,0-34.166a3.308,3.308,0,0,1,.032-1.14c-.206.191-.034.593-.035.931q-.018,16.481-.01,32.962c0,.8.04,1.608-.008,2.408-.08,1.348,1.485.22,1.663,1.141-2.109.121-2.109.121-2.109-1.916,0-11.9.017-23.792-.03-35.688a2.1,2.1,0,0,1,1.257-2.191q13.9-7.16,27.774-14.374a2.272,2.272,0,0,1,2.271-.007q14.078,7.307,28.177,14.575a1.342,1.342,0,0,1,.836,1.392q-.031,18.6,0,37.194c0,1.953-1.379.751-2.117,1.016.011-.049.02-.141.032-.141,1.926-.042,1.629-1.41,1.628-2.656q-.018-16.782-.006-33.564c0-.378-.019-.755-.014-.8-.1-.526-.381-.29-.2-.366.079-.032.107,0,.136.068a2.9,2.9,0,0,1,.059,1.159q.011,17.083.005,34.166c0,1.89,0,1.89-1.939,1.581-.007-4.814-.02-9.628-.015-14.442a4,4,0,0,0-.624-2.574c-.187-.245-.425-.449-.136-.764.955-1.044.748-2.336.751-3.576q.015-6.244,0-12.488c-.008-2.788-1.323-4.1-4.111-4.111-2.708-.013-5.417-.024-8.125.011-.73.009-1-.147-1.075-.96a10.838,10.838,0,0,0-11.06-9.909c-2.255.051-4.514-.017-6.77.014-5.978.082-10.244,3.8-10.976,9.794-.08.652-.065,1.1-.97,1.071-3.006-.081-6.015-.058-9.022-.076.093-.655.615-.385.944-.388,2.628-.022,5.256-.02,7.807-.009.277-.022-.016-.326.091-.156.029.045-.009.077-.113.083-2.5.136-5,.033-7.5.055A2.4,2.4,0,0,0,3609-880.818Z" transform="translate(-16.596 -24.515)" fill="#e5e7eb"/>
    <path id="Trazado_581130" data-name="Trazado 581130" d="M3589.424-901.69c-2.172-1.485-2.023-3.284.412-4.558q10.305-5.393,20.627-10.753c3.725-1.933,7.47-3.828,11.207-5.74.8-.023,1.6-.029,2.4,0q7.668,3.94,15.333,7.884,8.063,4.173,16.106,8.385c.267.139.54.266.795.424,2.031,1.258,2.034,2.975.012,4.364-.6,0-1.21-.016-1.815.012-3.882-1.969-7.774-3.92-11.646-5.911q-9.425-4.849-18.818-9.762a2.2,2.2,0,0,0-2.33.007q-14.463,7.546-28.967,15.013c-.484.25-1,.437-1.5.653A17.682,17.682,0,0,0,3589.424-901.69Z" transform="translate(-5.459 -6.38)" fill="#f1d575"/>
    <path id="Trazado_581131" data-name="Trazado 581131" d="M3740.777-819.435c-.4.451-.931.29-1.411.291q-8.194.017-16.388,0c-.625,0-1.233.147-1.582-.727-.38-.953.424-1.062.775-1.524a6.754,6.754,0,0,1,4.947-2.916c2.279-.261,3.476-2.386,3.351-5.15-.067-1.487.378-1.906,1.816-1.778,1.334.119,3.032.455,3.942-.19.894-.633.194-2.425.311-3.7.022-.242.021-.659.127-.692a8.394,8.394,0,0,1,3.831-.095c.851.131.878.958.877,1.693q-.012,6.69-.006,13.381c0,.547.053,1.128-.594,1.407-.459-.312-.976-.159-1.464-.16-4.867-.013-9.735,0-14.6-.014a5.612,5.612,0,0,1-1.227.014c.438,0,1.133,0,1.829,0q7,0,14,.007A2.574,2.574,0,0,1,3740.777-819.435Z" transform="translate(-98.643 -66.924)" fill="#c49e6e"/>
    <path id="Trazado_581132" data-name="Trazado 581132" d="M3620.492-819.344c-.649-.278-.593-.86-.593-1.407,0-4.461.018-8.921-.015-13.382-.009-1.265.479-1.806,1.773-1.822,3.073-.039,3.173-.072,3.031,3.017-.072,1.561.406,2.085,1.89,1.828a4.973,4.973,0,0,1,.9-.007c1,.014,2.22-.318,2.947.137.835.522.222,1.845.347,2.811a4.71,4.71,0,0,0,4.54,4.226,2.771,2.771,0,0,1,2.667,1.428,6.9,6.9,0,0,0,1.588,1.578.828.828,0,0,1,.282,1.148c-.2.459-.395.748-.96.745-5.964-.022-11.928-.022-17.892-.043-.17,0-.34-.171-.511-.262a.9.9,0,0,1,.416-.151c5.719-.017,11.438,0,17.158-.013q-7.977,0-15.954.007A2.748,2.748,0,0,0,3620.492-819.344Z" transform="translate(-27.803 -67.011)" fill="#c49e6e"/>
    <path id="Trazado_581133" data-name="Trazado 581133" d="M3653.116-770.68a5.032,5.032,0,0,1,2.208-.247c.269.228.622.153.924.258l.887,1.861c-.54,0-.932-.023-1.32,0a3.561,3.561,0,0,0-3.485,3.617c-.048,1.955-.061,3.915.008,5.869.036.985-.143,1.4-1.273,1.4-1.079-.007-1.23-.431-1.186-1.328.06-1.2-.053-2.412.035-3.61.071-.966-.287-1.194-1.188-1.158-.792.032-1.324.029-1.254,1.094.1,1.5.045,3.009.014,4.513-.011.5.223,1.066-.434,1.458-.4.238-.3.729.081,1.008.489.361.863,1.412,1.5.937,1.261-.938,2.589-.443,3.879-.542,1.2-.093,2.409.022,3.61-.034.776-.036,1.02.2,1.038,1,.058,2.641.1,2.64-2.547,2.64-2.257,0-4.515.018-6.772-.006a3.631,3.631,0,0,1-3.966-3.912c-.028-2.659-.046-5.319.007-7.977a6.454,6.454,0,0,1,6.019-6.489c.287.279.67.066.986.193-.139-.124-.4-.017-.48-.247a5.028,5.028,0,0,1,2.206-.249c.287.281.67.067.987.195C3653.459-770.557,3653.2-770.449,3653.116-770.68Z" transform="translate(-44.544 -112.427)" fill="#bedb83"/>
    <path id="Trazado_581134" data-name="Trazado 581134" d="M3685.286-814.338c-3.014-.584-4.4-2.715-5.12-5.443a20.881,20.881,0,0,1-.287-5.534c3.4.713,6.784.346,10.156.429a20.275,20.275,0,0,0,2.249-.025c.638-.055,1.549-.545,1.837-.286.528.476.173,1.4.2,2.132a10.554,10.554,0,0,1-.88,4.986,6.018,6.018,0,0,1-4.541,3.746c-.191-.062.077-.019-.107-.092a5.055,5.055,0,0,0-.664-.083c.184.079.437-.017.56.218a4.572,4.572,0,0,1-3.184,0c.124-.231.375-.133.557-.216C3685.806-814.439,3685.508-814.562,3685.286-814.338Z" transform="translate(-69.685 -74.449)" fill="#e6ceb3"/>
    <path id="Trazado_581135" data-name="Trazado 581135" d="M3680.407-755.722c1.686-.6,1.809-.522,1.818,1.119.021,3.4.021,3.4,3.392,3.4,1.746,0,3.494-.036,5.239.016.794.023,1.066-.24,1.009-1.024s-.016-1.6-.012-2.394c.008-1.641.132-1.717,1.818-1.119a3.541,3.541,0,0,1,.293,2.045c.019,5.45-.019,10.9.022,16.35-.317.717-.968.6-1.552.6q-5.41.011-10.82,0a3.142,3.142,0,0,1-.893-.068c-.835-.253-.928-.93-.924-1.68,0-.954.708-.657,1.183-.663,2.154-.026,4.308.011,6.462-.018a4.221,4.221,0,0,0,4.406-4.16,4.223,4.223,0,0,0-4.466-4.249c-2.1-.025-4.209-.047-6.311.013-.932.026-1.387-.17-1.282-1.218.224-2.215-.366-4.472.313-6.669a33.131,33.131,0,0,1,.125,5.988c-.01,1.095.236,1.512,1.408,1.452,1.941-.1,3.891-.029,5.838-.03-1.981-.006-3.964-.047-5.943.013-.964.029-1.355-.235-1.282-1.263C3680.4-751.421,3680.077-753.579,3680.407-755.722Z" transform="translate(-69.63 -122.824)" fill="#c49e6d"/>
    <path id="Trazado_581136" data-name="Trazado 581136" d="M3724.524-770.631a5.093,5.093,0,0,1,2.209.249c-.084.234-.344.125-.485.248.317-.125.7.087.987-.193a6.166,6.166,0,0,1,5.75,5.07c-.03,3.567-.06,7.134.019,10.7a2.782,2.782,0,0,1-2.351,2.351c-1.341-.051-2.684-.086-4.024-.036-1.074.04-1.51-.364-1.525-1.474-.015-1.177.432-1.658,1.587-1.551.445.041.9-.014,1.345.023.9.87,1.29-.083,1.8-.527s.771-.9-.029-1.407c-.342-.217-.157-.748-.161-1.137a39.441,39.441,0,0,1,.024-4.2c.133-1.355-.432-1.6-1.606-1.5-.669.056-.847.271-.831.9.034,1.4-.051,2.808.03,4.206.06,1.034-.536.969-1.22.957-.655-.011-1.295.13-1.243-.932.077-1.6.019-3.2.019-4.807,0-3.933-.8-4.824-4.766-5.22l.834-1.749c.3-.105.658-.029.926-.26a5.076,5.076,0,0,1,2.209.248c-.084.233-.344.125-.484.248C3723.854-770.562,3724.239-770.347,3724.524-770.631Z" transform="translate(-97.775 -112.425)" fill="#bedb83"/>
    <path id="Trazado_581137" data-name="Trazado 581137" d="M3758.988-771.9c2.753,0,5.043-.01,7.332,0a1.258,1.258,0,0,1,1.372,1.426q.007,6.989,0,13.977c0,.988-.511,1.415-1.488,1.483-3.345.233-3.344.25-3.344-3.136,0-1.653-.063-3.309.013-4.959A9.784,9.784,0,0,0,3758.988-771.9Z" transform="translate(-124.974 -111.757)" fill="#c49e6d"/>
    <path id="Trazado_581138" data-name="Trazado 581138" d="M3627.424-770.335a10.414,10.414,0,0,0-2.715,7.874c.109,2.355-.008,4.719.048,7.078.018.767-.147,1.02-.965,1.05-3.9.146-3.9.174-3.9-3.765,0-3.716-.006-7.431.008-11.146,0-.623-.189-1.344.594-1.708,1.794.044,3.588,0,5.383.026C3626.456-770.918,3627.115-771.067,3627.424-770.335Z" transform="translate(-27.803 -112.423)" fill="#c49e6d"/>
    <path id="Trazado_581139" data-name="Trazado 581139" d="M3692.26-866.335a6.787,6.787,0,0,1,1.718-4.515,1.9,1.9,0,0,1,3.2,0,6.85,6.85,0,0,1,1.716,4.516.456.456,0,0,0-.134.231c-.041.179.008.366-.049.544.1-.167-.007-.412.209-.532.573,1.249.155,1.676-1.18,1.593a34.639,34.639,0,0,0-4.326,0c-1.341.085-1.748-.352-1.18-1.6.22.12.114.368.212.536C3692.363-865.812,3692.5-866.119,3692.26-866.335Z" transform="translate(-78.169 -42.031)" fill="#e2806d"/>
    <path id="Trazado_581140" data-name="Trazado 581140" d="M3674.669-837.548a8.781,8.781,0,0,1-4.769-2.063h19.963a6.118,6.118,0,0,1-4.216,2.059C3681.988-837.57,3678.328-837.6,3674.669-837.548Z" transform="translate(-62.742 -64.463)" fill="#a9aeb9"/>
    <path id="Trazado_581141" data-name="Trazado 581141" d="M3671.981-870.505a23.259,23.259,0,0,0-1.512,5.2c-.223-.084-.122-.335-.242-.473.124.315-.091.7.2.98.214.777-.174.935-.861.918-1.4-.034-2.8-.057-4.191.007-.859.039-.847-.325-.7-.976.609-2.747,3.6-5.724,6.352-5.973C3671.315-870.632,3671.757-870.894,3671.981-870.505Z" transform="translate(-59.038 -42.66)" fill="#f7e7a8"/>
    <path id="Trazado_581142" data-name="Trazado 581142" d="M3720.223-865.3a23.268,23.268,0,0,0-1.511-5.2c.225-.39.667-.128.958-.318,2.756.245,5.76,3.268,6.349,5.969.14.642.171,1.019-.7.98-1.444-.065-2.895-.042-4.342-.007-.721.017-.862-.311-.713-.917.3-.28.066-.669.228-1.014C3720.346-865.642,3720.449-865.388,3720.223-865.3Z" transform="translate(-96.839 -42.661)" fill="#f7e7a8"/>
    <path id="Trazado_581143" data-name="Trazado 581143" d="M3694.653-776.009c-1.806-.984-2.569-2.5-2.093-3.976.242-.751.561-1.058,1.4-.82a8.126,8.126,0,0,0,3.583.079c1.237-.2,2.019.407,1.825,1.624-.216,1.356-.7,2.632-2.287,2.994C3696.269-776.073,3695.459-776.09,3694.653-776.009Z" transform="translate(-78.474 -105.485)" fill="#e5cdb2"/>
    <path id="Trazado_581144" data-name="Trazado 581144" d="M3697.152-716.712c-.453-.259-1.472.491-1.614-.5s-.536-2.572.206-2.938a4.232,4.232,0,0,1,3.736.151,1.564,1.564,0,0,1,.749,1.935c-.44,1.433-1.64,1.388-2.813,1.353C3697.366-716.713,3697.316-716.712,3697.152-716.712Z" transform="translate(-80.489 -147.656)" fill="#e4cdb2"/>
    <path id="Trazado_581145" data-name="Trazado 581145" d="M3795.567-805.716c1.46.25,1.832-.376,1.824-1.811-.057-11.394-.032-22.789-.032-34.183v-1.9a2.835,2.835,0,0,1,.292,1.826c.011,11.344-.017,22.689.04,34.033.007,1.444-.071,2.531-1.831,2.584C3795.236-805.067,3795.416-805.4,3795.567-805.716Z" transform="translate(-150.423 -61.672)" fill="#e8eaee"/>
    <path id="Trazado_581146" data-name="Trazado 581146" d="M3606.686-804.43c-1.756-.054-1.841-1.134-1.833-2.581.057-11.345.031-22.689.031-34.034v-1.488l.3-.023v1.427c0,11.445.026,22.89-.032,34.335-.007,1.434.361,2.063,1.823,1.812C3607.123-804.671,3607.311-804.338,3606.686-804.43Z" transform="translate(-17.303 -62.405)" fill="#e8eaee"/>
    <path id="Trazado_581147" data-name="Trazado 581147" d="M3726.143-736.534c-.506-.436-.309-1.026-.31-1.553q-.018-8.421-.005-16.842c.588.226.6.738.6,1.243q0,8.17,0,16.341A.9.9,0,0,1,3726.143-736.534Z" transform="translate(-101.787 -123.616)" fill="#c7a06f"/>
    <path id="Trazado_581148" data-name="Trazado 581148" d="M3737.074-816.506c0,.592-.6.737-.89,1.1a1.22,1.22,0,0,1-1.372.351c-.549-.256-.095-.79-.079-1.192.032-.841.126-1.681.208-2.52.032-.328-.168-.763.171-.958a.868.868,0,0,1,1.072.293c.271.4.9.5.891,1.1C3737.045-817.723,3737.046-817.115,3737.074-816.506Z" transform="translate(-107.897 -78.292)" fill="#e2cab0"/>
    <path id="Trazado_581149" data-name="Trazado 581149" d="M3664.859-818.282c-.048-.56.555-.639.779-1.021a1,1,0,0,1,1.062-.414c.55.154.241.671.285,1.023.1.792.156,1.591.2,2.388.024.428.427.985.007,1.252-.484.307-1.062-.007-1.522-.327a3.364,3.364,0,0,1-.495-.529A5.5,5.5,0,0,1,3664.859-818.282Z" transform="translate(-59.219 -78.338)" fill="#e2cab0"/>
    <path id="Trazado_581150" data-name="Trazado 581150" d="M3739.085-719.985a1.8,1.8,0,0,1-1.295.278c-.936-.1-1.341.205-1.345,1.239,0,1.1.546,1.172,1.407,1.2,1.285.036,2.613-.309,3.85.326-1.76.559-3.566.136-5.348.245-.4.024-.481-.268-.481-.6q0-.375,0-.751C3735.851-720.518,3736.61-720.975,3739.085-719.985Z" transform="translate(-108.825 -147.686)" fill="#c1de85"/>
    <path id="Trazado_581151" data-name="Trazado 581151" d="M3685.72-833.612a2.843,2.843,0,0,1,1.588-.33c3.128.162,6.279-.348,9.39.326A43.888,43.888,0,0,1,3685.72-833.612Z" transform="translate(-73.793 -68.399)" fill="#adb3bd"/>
    <path id="Trazado_581152" data-name="Trazado 581152" d="M3762.2-741.367a3.747,3.747,0,0,1-.347-2.042c.007-2.355.01-4.71,0-7.065a3.043,3.043,0,0,1,.331-1.594c.606,2.365.189,4.771.257,7.156A7.729,7.729,0,0,1,3762.2-741.367Z" transform="translate(-126.974 -125.616)" fill="#c1de85"/>
    <path id="Trazado_581153" data-name="Trazado 581153" d="M3666.257-698.769c.083.624.338,1.336-.715,1.136-.687-.131-1.851.535-1.7-1.031.067-.71-.229-1.485,1.051-1.43C3665.929-700.05,3666.556-699.931,3666.257-698.769Z" transform="translate(-58.5 -161.919)" fill="#bedb83"/>
    <path id="Trazado_581154" data-name="Trazado 581154" d="M3736.732-697.725c-.236-.232-1.244.615-1.055-.629.124-.821-.352-1.928,1.318-1.8,1.065.082,1.129.47,1.178,1.332C3738.234-697.731,3737.759-697.524,3736.732-697.725Z" transform="translate(-108.673 -161.872)" fill="#bedb83"/>
    <path id="Trazado_581155" data-name="Trazado 581155" d="M3628.845-771.119c-1.674-.611-3.41-.148-5.11-.3-.612-.056-1.291.242-1.817-.315,1.484-.63,3.036-.166,4.554-.274,1.029-.073,2.068-.014,3.218-.014A1.582,1.582,0,0,1,3628.845-771.119Z" transform="translate(-29.224 -111.639)" fill="#c6a06e"/>
    <path id="Trazado_581156" data-name="Trazado 581156" d="M3681.192-754.93c0,2,.059,4.012-.018,6.013-.044,1.148.256,1.619,1.5,1.556a31.024,31.024,0,0,1,5.987.259c-2.352,0-4.705.015-7.057-.008-.851-.008-.7-.7-.7-1.222-.016-2.1-.012-4.21-.015-6.314Z" transform="translate(-70.415 -123.616)" fill="#c7a06e"/>
    <path id="Trazado_581157" data-name="Trazado 581157" d="M3698.2-753.569a9.449,9.449,0,0,0-1.2.008c-.992.127-1.258-.288-1.274-1.26-.018-1.057.417-1.287,1.331-1.2.595.053,1.2-.017,1.8.017.8.045,1.788-.407,1.812,1.17.025,1.65-1,1.222-1.869,1.269C3698.6-753.56,3698.4-753.569,3698.2-753.569Z" transform="translate(-80.785 -122.84)" fill="#997046"/>
    <path id="Trazado_581158" data-name="Trazado 581158" d="M3645.631-835.982c.889.027,1.967-.357,1.834,1.3-.075.924-.326,1.267-1.225,1.156a4.92,4.92,0,0,0-1.047,0c-.909.084-1.469-.028-1.462-1.224.006-1.172.527-1.338,1.452-1.231A4.272,4.272,0,0,0,3645.631-835.982Z" transform="translate(-44.462 -66.976)" fill="#997046"/>
    <path id="Trazado_581159" data-name="Trazado 581159" d="M3753.473-833.552c-.662-.156-1.816.522-1.774-1.121.026-1.031.282-1.487,1.346-1.334a4.152,4.152,0,0,0,1.046,0c.915-.1,1.345.148,1.328,1.2-.015.969-.279,1.4-1.27,1.255A5.258,5.258,0,0,0,3753.473-833.552Z" transform="translate(-119.881 -66.961)" fill="#997046"/>
    <path id="Trazado_581160" data-name="Trazado 581160" d="M3620.964-845.215a.952.952,0,0,1,.939-.615c2.987,0,5.974,0,8.963.295-2.522,0-5.045-.013-7.567.01-.58.005-1.207-.2-1.73.246Z" transform="translate(-28.559 -60.119)" fill="#e8eaee"/>
    <path id="Trazado_581161" data-name="Trazado 581161" d="M3738.347-833.294a5.339,5.339,0,0,1,.028,2.161l-2.269-.616A8.988,8.988,0,0,1,3738.347-833.294Z" transform="translate(-108.989 -68.875)" fill="#e2ca6f"/>
    <path id="Trazado_581162" data-name="Trazado 581162" d="M3663.915-831.07a4.733,4.733,0,0,1,.138-2.18l2.319,1.454Z" transform="translate(-58.519 -68.906)" fill="#e3ca6f"/>
    <path id="Trazado_581163" data-name="Trazado 581163" d="M3699.824-765.644a2.263,2.263,0,0,1,2.424-.1A2.287,2.287,0,0,1,3699.824-765.644Z" transform="translate(-83.645 -115.85)" fill="#efd6ba"/>
    <path id="Trazado_581164" data-name="Trazado 581164" d="M3664.188-814.889c.628.721.187,1.585.316,2.373A1.857,1.857,0,0,1,3664.188-814.889Z" transform="translate(-58.548 -81.732)" fill="#eed5b9"/>
    <path id="Trazado_581165" data-name="Trazado 581165" d="M3702.326-923.5a2.435,2.435,0,0,1-2.4,0A2.219,2.219,0,0,1,3702.326-923.5Z" transform="translate(-83.719 -5.615)" fill="#f5dc79"/>
    <path id="Trazado_581166" data-name="Trazado 581166" d="M3742.105-813.07a1.33,1.33,0,0,1,0-1.824A1.541,1.541,0,0,1,3742.105-813.07Z" transform="translate(-112.928 -81.729)" fill="#eed5b9"/>
    <path id="Trazado_581167" data-name="Trazado 581167" d="M3808.826-853.62a1.351,1.351,0,0,1,1.815-.012A1.527,1.527,0,0,1,3808.826-853.62Z" transform="translate(-159.787 -54.428)" fill="#f5de79"/>
    <path id="Trazado_581168" data-name="Trazado 581168" d="M3592.965-853.641a1.365,1.365,0,0,1,1.813.022A1.546,1.546,0,0,1,3592.965-853.641Z" transform="translate(-9 -54.429)" fill="#f6de7a"/>
    <path id="Trazado_581169" data-name="Trazado 581169" d="M3719.089-871.4c-.237.352-.614.286-.958.318-.185-.1-.33-.351-.2-.442C3718.317-871.8,3718.711-871.556,3719.089-871.4Z" transform="translate(-96.258 -42.081)" fill="#fcf8b3"/>
    <path id="Trazado_581170" data-name="Trazado 581170" d="M3733.492-772.712a3.4,3.4,0,0,1-1.969-.023A3.223,3.223,0,0,1,3733.492-772.712Z" transform="translate(-105.789 -111.078)" fill="#080906"/>
    <path id="Trazado_581171" data-name="Trazado 581171" d="M3671.052-772.7h1.39l.013.143h-1.37Z" transform="translate(-63.547 -111.201)" fill="#080906"/>
    <path id="Trazado_581172" data-name="Trazado 581172" d="M3686.872-871.084c-.343-.032-.72.034-.957-.318.378-.154.772-.4,1.16-.124C3687.2-871.434,3687.057-871.185,3686.872-871.084Z" transform="translate(-73.929 -42.08)" fill="#fcf8b3"/>
    <path id="Trazado_581173" data-name="Trazado 581173" d="M3718.507-826.555h-1.776A1.876,1.876,0,0,1,3718.507-826.555Z" transform="translate(-95.455 -73.431)" fill="#080806"/>
    <path id="Trazado_581174" data-name="Trazado 581174" d="M3674.058-811.724a1.393,1.393,0,0,1-.033-1.3A1.389,1.389,0,0,1,3674.058-811.724Z" transform="translate(-65.521 -83.031)" fill="#090807"/>
    <path id="Trazado_581175" data-name="Trazado 581175" d="M3733.181-812.7v1.363A1.137,1.137,0,0,1,3733.181-812.7Z" transform="translate(-106.79 -83.264)" fill="#090807"/>
    <path id="Trazado_581176" data-name="Trazado 581176" d="M3697.973-782.688h1.2C3698.771-782.277,3698.384-782.491,3697.973-782.688Z" transform="translate(-82.352 -104.226)" fill="#090807"/>
    <path id="Trazado_581177" data-name="Trazado 581177" d="M3686.1-851.722V-852.9C3686.522-852.5,3686.3-852.106,3686.1-851.722Z" transform="translate(-74.056 -55.182)" fill="#090906"/>
    <path id="Trazado_581178" data-name="Trazado 581178" d="M3718.842-877.542h-1.207C3718.1-877.963,3718.506-877.674,3718.842-877.542Z" transform="translate(-96.087 -37.812)" fill="#080808"/>
    <path id="Trazado_581179" data-name="Trazado 581179" d="M3685.237-877.8c.687-.027,1.071-.162,1.447.121A1.475,1.475,0,0,1,3685.237-877.8Z" transform="translate(-73.456 -37.748)" fill="#080909"/>
    <path id="Trazado_581180" data-name="Trazado 581180" d="M3720.95-853.668a1.9,1.9,0,0,1,.132,1.443C3720.7-852.6,3720.915-852.988,3720.95-853.668Z" transform="translate(-98.338 -54.643)" fill="#090907"/>
    <path id="Trazado_581181" data-name="Trazado 581181" d="M3740.066-771.663a1.886,1.886,0,0,1,1.441-.131C3741.132-771.413,3740.744-771.628,3740.066-771.663Z" transform="translate(-111.756 -111.775)" fill="#080906"/>
    <path id="Trazado_581182" data-name="Trazado 581182" d="M3664.049-771.637h-1.175C3663.271-772.062,3663.664-771.841,3664.049-771.637Z" transform="translate(-57.834 -111.776)" fill="#080906"/>
    <path id="Trazado_581183" data-name="Trazado 581183" d="M3686.842-826.787a2.6,2.6,0,0,1-1.656.205A2.6,2.6,0,0,1,3686.842-826.787Z" transform="translate(-73.42 -73.396)" fill="#090807"/>
    <path id="Trazado_581184" data-name="Trazado 581184" d="M3706.849-782.595h-1.206C3706.109-783.016,3706.513-782.727,3706.849-782.595Z" transform="translate(-87.71 -104.137)" fill="#090807"/>
    <path id="Trazado_581185" data-name="Trazado 581185" d="M3725.028-773.749a1.389,1.389,0,0,1-1.3-.033A1.387,1.387,0,0,1,3725.028-773.749Z" transform="translate(-100.34 -110.345)" fill="#080906"/>
    <path id="Trazado_581186" data-name="Trazado 581186" d="M3697.91-789.572c.355-.41.766-.328,1.484-.1l-1.265.145-.12.029Z" transform="translate(-82.308 -99.214)" fill="#efd6ba"/>
    <path id="Trazado_581187" data-name="Trazado 581187" d="M3706.384-789.541l-1.213-.131c.658-.269,1.061-.335,1.425.087l-.1.074Z" transform="translate(-87.38 -99.197)" fill="#efd6ba"/>
    <path id="Trazado_581188" data-name="Trazado 581188" d="M3680.715-773.792c.324-.229.812-.226.857-.074.116.39-.285.161-.455.2C3681.012-773.638,3680.877-773.736,3680.715-773.792Z" transform="translate(-70.296 -110.313)" fill="#090906"/>
    <path id="Trazado_581189" data-name="Trazado 581189" d="M3732.038-770.013c-.32.433-.748.271-1.229.281.194-.4.52-.219.727-.333Z" transform="translate(-105.289 -113.043)" fill="#c9e68a"/>
    <path id="Trazado_581190" data-name="Trazado 581190" d="M3714.233-853.6c-.032.321-.065.642-.118,1.174-.286-.658-.3-1.064.092-1.417A.184.184,0,0,1,3714.233-853.6Z" transform="translate(-93.482 -54.518)" fill="#e48873"/>
    <path id="Trazado_581191" data-name="Trazado 581191" d="M3723.726-854.64l.175-.916c.212.658.3,1.067-.133,1.422Z" transform="translate(-100.341 -53.324)" fill="#fbf5b1"/>
    <path id="Trazado_581192" data-name="Trazado 581192" d="M3717.039-854.988a.855.855,0,0,1-.028.993A.841.841,0,0,1,3717.039-854.988Z" transform="translate(-95.547 -53.721)" fill="#080302"/>
    <path id="Trazado_581193" data-name="Trazado 581193" d="M3683.233-854.085c-.4-.323-.345-.732-.17-1.4l.212.893Q3683.254-854.338,3683.233-854.085Z" transform="translate(-71.844 -53.374)" fill="#fcf6b1"/>
    <path id="Trazado_581194" data-name="Trazado 581194" d="M3673.424-770.061l.917.176c-.656.21-1.063.3-1.421-.123Z" transform="translate(-64.851 -113.046)" fill="#c8e68a"/>
    <path id="Trazado_581195" data-name="Trazado 581195" d="M3664.432-769.06l.913.177c-.653.21-1.06.3-1.418-.123Z" transform="translate(-58.569 -113.745)" fill="#c9e78a"/>
    <path id="Trazado_581196" data-name="Trazado 581196" d="M3723.744-771.251c-.259.264-.493.616-.926.26C3722.95-771.709,3723.4-771.29,3723.744-771.251Z" transform="translate(-99.708 -112.105)" fill="#c9e789"/>
    <path id="Trazado_581197" data-name="Trazado 581197" d="M3682.84-770.989c-.431.356-.665,0-.924-.258C3682.26-771.288,3682.708-771.7,3682.84-770.989Z" transform="translate(-71.136 -112.108)" fill="#c9e78a"/>
    <path id="Trazado_581198" data-name="Trazado 581198" d="M3741.032-769.012c-.321.431-.748.269-1.229.278.194-.4.52-.218.727-.333Z" transform="translate(-111.572 -113.741)" fill="#c8e68a"/>
    <path id="Trazado_581199" data-name="Trazado 581199" d="M3692.757-853.848c.392.353.378.759.092,1.418-.054-.536-.086-.856-.119-1.177A.18.18,0,0,1,3692.757-853.848Z" transform="translate(-78.666 -54.518)" fill="#e38773"/>
    <path id="Trazado_581200" data-name="Trazado 581200" d="M3781.356-709.415h-12.132v-.149h12.2Z" transform="translate(-132.123 -155.305)"/>
    <path id="Trazado_581201" data-name="Trazado 581201" d="M3597.337-839.614v38.421h-.15v-38.465Z" transform="translate(-11.949 -64.429)"/>
    <path id="Trazado_581202" data-name="Trazado 581202" d="M3610.46-709.412h-12.132v-.148h12.189Z" transform="translate(-12.746 -155.308)"/>
    <path id="Trazado_581203" data-name="Trazado 581203" d="M3685.783-685.428h-27.5v-.15h27.563Z" transform="translate(-54.629 -172.061)"/>
    <path id="Trazado_581204" data-name="Trazado 581204" d="M3750.062-693.516v-2.2h.149v2.325Z" transform="translate(-118.738 -164.978)"/>
    <path id="Trazado_581205" data-name="Trazado 581205" d="M3657.314-695.7v2.288l-.149,0v-2.322Z" transform="translate(-53.846 -164.966)"/>
    <path id="Trazado_581206" data-name="Trazado 581206" d="M3610.223-817.8v-14.929h.15v14.964Z" transform="translate(-21.055 -69.268)" fill="#e8eaee"/>
    <ellipse id="Elipse_7328" data-name="Elipse 7328" cx="0.077" cy="10.332" rx="0.077" ry="10.332" transform="translate(3645.514 -885.735)" fill="#e8eaee"/>
    <path id="Trazado_581207" data-name="Trazado 581207" d="M3797.258-832.594v14.662h-.15v-14.658Z" transform="translate(-151.602 -69.364)" fill="#e8eaee"/>
    <path id="Trazado_581208" data-name="Trazado 581208" d="M3610.46-768.664v14.542h-.15v-14.608Z" transform="translate(-21.116 -113.976)" fill="#e8eaee"/>
    <path id="Trazado_581209" data-name="Trazado 581209" d="M3754.111-845.569h9.191l0,.15h-9.239Z" transform="translate(-121.532 -60.301)" fill="#e8eaee"/>
    <ellipse id="Elipse_7329" data-name="Elipse 7329" cx="5.86" cy="0.078" rx="5.86" ry="0.078" transform="translate(3611.517 -916.74)" fill="#e8eaee"/>
    <path id="Trazado_581210" data-name="Trazado 581210" d="M3744.079-781.614h-18.057c.193-.464.51-.3.733-.3q8.032-.017,16.064-.005c.437,0,.916-.11,1.253.311Z" transform="translate(-101.945 -104.746)" fill="#c7a06f"/>
    <path id="Trazado_581211" data-name="Trazado 581211" d="M3621.888-781.572c.29-.375.708-.315,1.1-.315q8.257,0,16.516,0c.141,0,.281.056.417.307h-18.042Z" transform="translate(-29.199 -104.783)" fill="#c7a06f"/>
    <ellipse id="Elipse_7330" data-name="Elipse 7330" cx="5.891" cy="0.1" rx="5.891" ry="0.1" transform="translate(3611.533 -898.963)" fill="#e9d1b5"/>
    <path id="Trazado_581212" data-name="Trazado 581212" d="M3699.012-753.209c-.556-.355-1.931.726-1.966-.846-.037-1.672,1.377-.71,2.127-.944a4.449,4.449,0,0,1,1.039-.018c.66-.036,1.018.185,1.015.923,0,.765-.417.918-1.05.888C3699.83-753.223,3699.481-753.209,3699.012-753.209Z" transform="translate(-81.704 -123.521)" fill="#a2774a"/>
    <path id="Trazado_581213" data-name="Trazado 581213" d="M3646.35-833.078c-.652-.053-1.4.193-1.421-.86-.022-1.269.9-.924,1.569-.943.651-.018,1.475-.233,1.443.916C3647.906-832.675,3646.925-833.232,3646.35-833.078Z" transform="translate(-45.299 -67.746)" fill="#a3774a"/>
    <path id="Trazado_581214" data-name="Trazado 581214" d="M3754.386-833.078c-.617-.1-1.488.292-1.5-.88-.017-1.273.92-.9,1.583-.925s1.462-.214,1.43.93C3755.862-832.781,3755-833.183,3754.386-833.078Z" transform="translate(-120.707 -67.743)" fill="#a3774a"/>
  </g>
</svg>
