<svg xmlns="http://www.w3.org/2000/svg" width="107" height="107" viewBox="0 0 107 107">
  <g id="Grupo_841495" data-name="Grupo 841495" transform="translate(-240 -1286.742)">
    <rect id="Rectángulo_38178" data-name="Rectángulo 38178" width="107" height="107" transform="translate(240 1286.742)" fill="none"/>
    <g id="Grupo_842199" data-name="Grupo 842199" transform="translate(-1278.384 942.961)">
      <path id="Trazado_570614" data-name="Trazado 570614" d="M1595.23,398.564c1.99,0,3.717-.021,5.443,0a11.706,11.706,0,0,1,11.684,11.605c.064,5.658.041,11.317,0,16.975a5.188,5.188,0,0,1-5.353,5.366,14.378,14.378,0,0,1-1.632,0,5.228,5.228,0,0,0-5.463,2.391c-3.2,4.467-10,3.6-12.664-1.293a1.785,1.785,0,0,0-1.857-1.111q-9.63.055-19.261,0a1.656,1.656,0,0,0-1.734,1.042,7.743,7.743,0,0,1-13.74.013,1.731,1.731,0,0,0-1.9-1.048c-1.849.046-3.7-.068-5.548.043-1.2.072-1.409-.367-1.393-1.461.064-4.3.055-8.6,0-12.894-.012-1.008.176-1.562,1.3-1.345,1.224.235,1.456-.223,1.38-1.454-.157-2.547-.088-5.112-.034-7.668a3.843,3.843,0,0,1,3.934-3.928c1.292-.043,2.586-.008,3.863-.008.147-.593-.3-.752-.527-1.007a26.869,26.869,0,0,1-6.109-10.831c-.223-.786-.4-1.326-1.45-1.282a3.4,3.4,0,0,1-2.949-1.769c-2.648-3.981-5.386-7.907-7.909-11.966a13.265,13.265,0,0,1,3.546-17.732,12.951,12.951,0,0,1,17.605,2.327c.657.774.979.759,1.777.216,9.808-6.677,21.407-6.657,31.334.047.743.5,1.05.493,1.651-.208a12.957,12.957,0,0,1,17.724-2.325,13.3,13.3,0,0,1,3.363,17.9c-2.495,3.95-5.162,7.791-7.751,11.681a3.685,3.685,0,0,1-3.245,1.857c-.7-.016-.9.246-1.073.878A28.493,28.493,0,0,1,1595.23,398.564Z"/>
      <path id="Trazado_570615" data-name="Trazado 570615" d="M1715.9,521.792c-1.9.668-3.855.175-5.782.289-.584.035-.417-.506-.485-.841-.881-4.314-3.813-6.946-7.755-6.966a7.811,7.811,0,0,0-7.831,7.048c-.081,1.265-.982.682-1.555.762-.491.068-1.113.2-1.109-.7.039-7.49.056-14.98.09-22.47a1.3,1.3,0,0,1,.185-.44c.413.533.2,1.153.206,1.728.017,6.62,0,13.24.023,19.859,0,.61-.336,1.481.844,1.581.152.044,0-.392-.031-.177,0,.012-.032,0-.047.008-.042.032-.077.119-.106.116-.948-.109-.647-.858-.651-1.383-.026-3.038-.013-6.077-.013-9.116,0-3.744.007-7.488-.008-11.232a2.729,2.729,0,0,0-.168-1.588,5.7,5.7,0,0,1,4.577-4.578c4.567.042,9.134-.036,13.7.038a4.63,4.63,0,0,1,3.35,1.241.94.94,0,0,1-.941.514c-4.726-.019-9.453.072-14.179-.05-.042,0-.083-.066-.125-.1l-.027.2c5.289-.143,10.568.148,15.844-.165.2.148.772.235.295.56-.3.2-.844.059-1.279.059-4.786,0-9.573-.006-14.359,0-3.1.007-4.554,1.491-4.563,4.628-.007,2.339.062,4.68-.029,7.015-.044,1.135.262,1.455,1.423,1.445,6.853-.058,13.707.01,20.559-.063,1.314-.014,1.628.365,1.584,1.619-.1,2.716-.021,5.438-.037,8.157,0,.581.154,1.208-.308,1.713-.373-1.988-.059-4-.173-5.991-.092-1.608.693-3.715-.331-4.69s-3.1-.266-4.718-.276c-5.214-.034-10.429-.009-15.643-.018a4.166,4.166,0,0,1-1.479-.066c.38.257.934.067,1.452.069,6.3.016,12.6.009,18.9.011,1.81,0,1.842.005,1.806,1.874-.061,3.141.188,6.287-.138,9.424-.3.342-.354.945-.981.957-1.681-.457-3.408.022-4.416-.142A23.6,23.6,0,0,1,1715.9,521.792Z" transform="translate(-107.745 -92.199)" fill="#fbd66f"/>
      <path id="Trazado_570616" data-name="Trazado 570616" d="M1589.644,548.591c5.66,0,11.32.027,16.979-.025,1.058-.01,1.386.259,1.353,1.341-.081,2.61-.06,5.224-.008,7.835.018.916-.1,1.341-1.2,1.324-4.461-.07-8.924-.045-13.386-.014-.787.006-1.051-.179-1.194-1.03a7.81,7.81,0,0,0-15.487-.044c-.133.786-.3,1.062-1.149,1.083-4.168.106-4.167.137-4.167-4.052,0-1.524.089-3.054-.026-4.569-.107-1.413.23-1.927,1.8-1.894C1578.65,548.66,1584.148,548.591,1589.644,548.591Z" transform="translate(-26.923 -129.132)" fill="#fee9a6"/>
      <path id="Trazado_570617" data-name="Trazado 570617" d="M1678.6,451.258c.1-1.9.234-3.794.275-5.694.017-.791.408-.848,1.023-.845,3.208.017,6.415.005,9.623.012.368,0,.8-.116,1.05.271,1.128,1.716,2.847,3.236,1.616,5.668-.61,1.205-1.01,2.514-1.531,3.766-.892,2.147-1.99,3.549-4.835,3.5-3.818-.06-7.026,3.09-7.924,6.847a6.172,6.172,0,0,1-.259,1.272,2.289,2.289,0,0,1-2.35,1.049c-.494-.033-.629-1.188-.331-1.814,2.041-4.274,2.781-8.884,3.585-13.48.233.091.13.354.261.511C1678.67,451.974,1678.886,451.569,1678.6,451.258Z" transform="translate(-96.581 -59.225)" fill="#69d5f3"/>
      <path id="Trazado_570618" data-name="Trazado 570618" d="M1646.215,406.3a3.978,3.978,0,0,1,.291,2.042.491.491,0,0,0-.146.25c-.045.194.009.4-.053.59.1-.181-.007-.448.228-.577a40.1,40.1,0,0,1,.595,6.309c.048.7-.164.955-.9.951-4.622-.027-9.245-.021-13.867-.005-.609,0-.893-.167-.853-.829a48.9,48.9,0,0,1,.915-8.729,2.919,2.919,0,0,1,1.869-.589q5.021.065,10.044,0A2.913,2.913,0,0,1,1646.215,406.3Z" transform="translate(-67.435 -32.968)" fill="#69d5f3"/>
      <path id="Trazado_570619" data-name="Trazado 570619" d="M1708.641,508.935c.484-.53,1.122-.305,1.691-.307,5.273-.018,10.548.066,15.818-.054,1.766-.04,2.519.537,2.469,2.249-.041,1.243-.075,2.488-.031,3.73.038,1.078-.348,1.585-1.5,1.581q-8.612-.031-17.224,0c-1.114,0-1.607-.429-1.528-1.541.125-1.771-.267-3.566.249-5.318a5.177,5.177,0,0,1,2.248-.155q7.255-.029,14.511,0c.479,0,1.041-.242,1.6.333.039.015-.37-.081-.2-.21.112-.083.094-.135-.053-.135-5.435-.019-10.87,0-16.3-.017A3.344,3.344,0,0,1,1708.641,508.935Z" transform="translate(-119.146 -102.219)" fill="#4fc0e8"/>
      <path id="Trazado_570620" data-name="Trazado 570620" d="M1639.376,444.71c2.231,0,4.462.037,6.691-.018.893-.022,1.247.193,1.189,1.162-.165,2.771-.393,5.531-.791,8.279-.117.807-.437,1.067-1.252,1.042-1.957-.059-3.918-.054-5.875,0-.852.022-1.21-.132-1.241-1.123-.087-2.722-1.622-4.195-4.4-4.073-1.53.067-1.859-.477-1.942-1.867-.2-3.4-.276-3.4,3.046-3.4Z" transform="translate(-67.55 -59.208)" fill="#69d5f3"/>
      <path id="Trazado_570621" data-name="Trazado 570621" d="M1552.124,365.824c6.7,1.226,10.278,9.156,6.893,15.392-.664,1.223-1.549,2.326-2.333,3.485-.544.2-.86.063-.762-.568a4.765,4.765,0,0,1,.552-1.162c.259-.577.454-1.124-.572-.84-.488.135-.853.025-.949-.542a3.887,3.887,0,0,1,.929-1.5c2.265-3.233,1.668-7.209-1.488-9.884a7.315,7.315,0,0,0-10.167,10.407c.508.6,1.3,1.043,1.211,2.008-1.065,1.045-1.474-.667-2.352-.55-.226.718.383,1.17.577,1.752.2.607.288,1.136-.662.884-2.738-3.3-4.472-6.942-3.259-11.333a9.827,9.827,0,0,1,7.821-7.543Q1549.844,365.786,1552.124,365.824Z" transform="translate(-5.385 -6.096)" fill="#fd816d"/>
      <path id="Trazado_570622" data-name="Trazado 570622" d="M1710.9,384.7c-2.738-3.3-4.472-6.942-3.259-11.333a9.828,9.828,0,0,1,7.822-7.543q2.28-.038,4.561,0c6.7,1.226,10.278,9.156,6.893,15.392-.664,1.223-1.55,2.326-2.333,3.485-.936.254-.889-.263-.659-.871.219-.579.775-1.037.679-1.737-.578-.335-1.5.7-1.749-.521a4.1,4.1,0,0,1,.941-1.507c2.262-3.245,1.636-7.254-1.553-9.909A7.317,7.317,0,0,0,1712.12,380.6c.509.6,1.307,1.046,1.217,2.015-1.066,1.044-1.474-.668-2.353-.551-.225.718.384,1.17.577,1.752C1711.764,384.423,1711.849,384.952,1710.9,384.7Z" transform="translate(-118.428 -6.096)" fill="#fd816d"/>
      <path id="Trazado_570623" data-name="Trazado 570623" d="M1717.225,416.445c.062-.272.815.032.478-.565-.106-.187-.292-.331-.387-.521-.35-.706-1.087-1.584-.376-2.188.732-.622,1.078.559,1.607.915a1.52,1.52,0,0,0,1.02.41c.618-.48,1.248-.185,1.831.033a7.233,7.233,0,0,0,6.625-.668c.392-.239.793-.6,1.323-.3a.643.643,0,0,0,.748,0c.347-.265.7-.974,1.165-.371a1.224,1.224,0,0,1-.092,1.624,5.753,5.753,0,0,0-.734,1.067c-.344.592.416.29.477.563-1.894,2.894-3.763,5.806-5.7,8.674-.756,1.121-1.534,1.121-2.29,0C1720.988,422.251,1719.12,419.339,1717.225,416.445Z" transform="translate(-124.754 -37.841)" fill="#fe816d"/>
      <path id="Trazado_570624" data-name="Trazado 570624" d="M1549.327,416.524c.062-.273.815.032.478-.565-.106-.187-.292-.331-.387-.521-.349-.706-1.087-1.584-.376-2.188.732-.622,1.078.559,1.607.915a1.52,1.52,0,0,0,1.02.41c.618-.48,1.248-.185,1.831.033a7.233,7.233,0,0,0,6.625-.669c.392-.238.793-.6,1.323-.3a.672.672,0,0,0,.744.01c.309-.212.551-.881,1.016-.4a1.113,1.113,0,0,1,.146,1.348,9.99,9.99,0,0,1-.741,1.236c-.522.647.273.464.4.695-1.9,2.894-3.764,5.806-5.7,8.674-.756,1.121-1.533,1.122-2.29,0C1553.09,422.329,1551.222,419.418,1549.327,416.524Z" transform="translate(-11.711 -37.92)" fill="#fe816d"/>
      <path id="Trazado_570625" data-name="Trazado 570625" d="M1609.881,478.992c-1.577,0-3.155-.02-4.732.007-1.247.021-1.767-.57-1.752-1.793.028-2.284.054-4.57-.018-6.852a1.841,1.841,0,0,1,.84-1.622c.862-.635,1.758-.117,1.793.958.042,1.294-.41,3.012.247,3.774.78.9,2.552.273,3.889.29,3.679.047,3.659.016,3.726-3.68.01-.562-.51-1.535.778-1.532,1.084,0,1.777.468,1.794,1.583.039,2.447.018,4.895.008,7.342-.005,1.1-.634,1.534-1.677,1.526C1613.144,478.983,1611.513,478.992,1609.881,478.992Z" transform="translate(-48.495 -75.209)" fill="#d29f6b"/>
      <path id="Trazado_570626" data-name="Trazado 570626" d="M1633.868,519.112c-1.523,0-3.046-.032-4.568.01-1.294.036-1.911-.491-1.889-1.826.038-2.284.019-4.568.007-6.852a1.567,1.567,0,0,1,1.454-1.766c.744-.111,1.325.022,1.159,1a.694.694,0,0,0,0,.163c.081,1.291-.553,2.983.242,3.771.868.861,2.579.252,3.919.268,3.649.043,3.63.014,3.7-3.707.01-.57-.482-1.531.808-1.509,1.1.019,1.745.538,1.765,1.618.045,2.392.007,4.785.017,7.178.005,1.166-.576,1.673-1.717,1.66C1637.132,519.1,1635.5,519.112,1633.868,519.112Z" transform="translate(-64.676 -102.268)" fill="#d29f6b"/>
      <path id="Trazado_570627" data-name="Trazado 570627" d="M1585.894,518.967c-1.577,0-3.155-.02-4.731.007-1.247.021-1.767-.571-1.752-1.793.028-2.284.054-4.569-.018-6.851a1.842,1.842,0,0,1,.84-1.621c.861-.636,1.759-.118,1.793.957.042,1.295-.411,3.011.246,3.775.78.906,2.551.274,3.889.291,3.681.047,3.66.016,3.728-3.677.01-.562-.508-1.534.777-1.534,1.086,0,1.774.484,1.794,1.586.043,2.446.02,4.894.009,7.341-.005,1.1-.637,1.532-1.679,1.524C1589.157,518.957,1587.525,518.966,1585.894,518.967Z" transform="translate(-32.346 -102.123)" fill="#d29f6b"/>
      <path id="Trazado_570628" data-name="Trazado 570628" d="M1585.548,457.909a21.245,21.245,0,0,1-4.121-9.341c-.249-1.464,2.282-3.857,3.767-3.858,2.93,0,5.86.031,8.79-.019.886-.015,1.33.191,1.222,1.15a7.009,7.009,0,0,0,.032,1.138c.154,2.954.148,3.082-2.9,2.925-5.1-.262-6.7,1.334-6.348,6.285.037.52,0,1.046,0,1.569Z" transform="translate(-33.705 -59.208)" fill="#68d5f3"/>
      <path id="Trazado_570629" data-name="Trazado 570629" d="M1712.593,564.695a5.217,5.217,0,1,1-5.176,5.214A5.224,5.224,0,0,1,1712.593,564.695Z" transform="translate(-118.543 -140.005)" fill="#959ea9"/>
      <path id="Trazado_570630" data-name="Trazado 570630" d="M1605.912,569.928a5.215,5.215,0,1,1-5.156-5.233A5.228,5.228,0,0,1,1605.912,569.928Z" transform="translate(-43.178 -140.004)" fill="#959ea9"/>
      <path id="Trazado_570631" data-name="Trazado 570631" d="M1644.28,365.849c2.954,2.2,4.151,5.374,4.9,8.8-.143.81-.7.981-1.424.979q-4.454-.008-8.908,0c-.725,0-1.28-.172-1.425-.98.895-3.345,1.725-6.726,4.9-8.8Q1643.3,365.891,1644.28,365.849Z" transform="translate(-71.419 -6.125)" fill="#68d5f3"/>
      <path id="Trazado_570632" data-name="Trazado 570632" d="M1685.3,408.056c-.822-3.369-.818-3.287,2.522-3.407,1.483-.053,2.148.309,2.5,1.85.56,2.472,2.337,4.36,3.661,6.46.4.631.825,1.244,1.443,2.172-3.232,0-6.171-.007-9.11.006-.641,0-.643-.4-.664-.86-.089-1.892-.192-3.783-.29-5.674.3-.311.071-.725.208-1.068C1685.433,407.685,1685.549,407.963,1685.3,408.056Z" transform="translate(-103.347 -32.246)" fill="#68d5f3"/>
      <path id="Trazado_570633" data-name="Trazado 570633" d="M1603.38,412.567a.911.911,0,0,1,.031.16c.051,2.451.05,2.451-2.336,2.451h-7.431c1.126-1.7,2.055-3.14,3.03-4.551a13.881,13.881,0,0,0,2.36-4.973c.159-.751.474-1.013,1.2-.928a8.422,8.422,0,0,0,.979.006c3.37,0,3.37,0,2.55,3.368-.246-.092-.132-.368-.265-.518.135.343-.091.756.206,1.067a9.65,9.65,0,0,1-.27,3.039.986.986,0,0,1-.2-.969C1603.3,411.175,1603.043,411.874,1603.38,412.567Z" transform="translate(-41.942 -32.29)" fill="#68d5f3"/>
      <path id="Trazado_570634" data-name="Trazado 570634" d="M1678.505,377.1c-2.647.02-2.646.02-3.373-2.5a26.219,26.219,0,0,0-2.411-6.013c-.153-.264-.567-.526-.287-.823a1.1,1.1,0,0,1,.908-.145,23.27,23.27,0,0,1,8.4,4.127c.335.256-.572,5.3-.958,5.337C1680.027,377.148,1679.264,377.1,1678.505,377.1Z" transform="translate(-94.926 -7.292)" fill="#68d5f3"/>
      <path id="Trazado_570635" data-name="Trazado 570635" d="M1618.548,367.854c-1.472,2.77-2.219,5.724-3.338,8.517-.76,1.895-3.047.462-4.607.813-1.076.241-.824-.67-.916-1.255a5.648,5.648,0,0,0-.366-1.906c-1.014-1.741.02-2.487,1.326-3.27a28.056,28.056,0,0,1,6.024-2.816A2.537,2.537,0,0,1,1618.548,367.854Z" transform="translate(-52.221 -7.375)" fill="#68d5f3"/>
      <path id="Trazado_570636" data-name="Trazado 570636" d="M1651.306,489.846c-.234.015-.66.173-.53-.261a12.784,12.784,0,0,0,.169-3.854c0-.885.3-1.093,1.124-1.068,1.781.053,3.567.071,5.347,0,1.287-.053,1.193.492.73,1.322-.236.28-.811-.473-.95.517-.358,2.538-1.328,3.224-3.818,3.243A6.358,6.358,0,0,0,1651.306,489.846Z" transform="translate(-80.391 -86.118)" fill="#68d5f3"/>
      <path id="Trazado_570637" data-name="Trazado 570637" d="M1707.951,510.509c0,1.8.026,3.591-.009,5.386-.016.837.3,1.157,1.146,1.154q8.65-.031,17.3,0c.987.005,1.152-.459,1.172-1.3.03-1.232-.3-2.51.345-3.687.574,1.64.167,3.335.278,5,.044.659-.438.625-.883.625q-9.541,0-19.082-.007c-.346,0-.9.141-.879-.429.088-2.25-.39-4.524.269-6.75A.2.2,0,0,1,1707.951,510.509Z" transform="translate(-118.434 -103.458)" fill="#50c2eb"/>
      <path id="Trazado_570638" data-name="Trazado 570638" d="M1677.855,520.42c0,1.963.049,3.914-.016,5.86-.048,1.45-1.216.546-1.849.738-.649.2-.914-.086-.809-.857a22.169,22.169,0,0,0,.055-2.926C1675.241,520.835,1675.238,520.835,1677.855,520.42Z" transform="translate(-96.824 -110.195)" fill="#f5f7f8"/>
      <path id="Trazado_570639" data-name="Trazado 570639" d="M1723.083,553.076c0-3.1-.1-6.2.024-9.3.064-1.576-.509-1.886-1.949-1.87-6.309.07-12.618.03-18.927.03h-1.607l-.014-.245c.374-.027.748-.077,1.122-.077,6.636,0,13.272.043,19.906-.04,1.5-.019,1.829.478,1.787,1.866-.093,3.1-.023,6.2-.021,9.3Z" transform="translate(-113.96 -124.438)" fill="#fbd66f"/>
      <path id="Trazado_570640" data-name="Trazado 570640" d="M1648.059,405.653l-.082.959c-.183-1.094-.869-1.243-1.853-1.225-3.305.061-6.612.046-9.918.009-.977-.011-1.789.024-1.587,1.436-.452-.419-.249-.831-.348-1.177-.124-.735.234-.909.912-.9q5.982.034,11.963,0C1647.821,404.746,1648.185,404.915,1648.059,405.653Z" transform="translate(-69.278 -32.317)" fill="#6ad8f6"/>
      <path id="Trazado_570641" data-name="Trazado 570641" d="M1720.084,493.032a1.094,1.094,0,0,1-.886.295h-11.951a.98.98,0,0,1-.864-.333,4.042,4.042,0,0,1,2.228-.308c3.209-.014,6.418-.022,9.628.009C1718.857,492.7,1719.552,492.48,1720.084,493.032Z" transform="translate(-117.846 -91.502)" fill="#feda71"/>
      <path id="Trazado_570642" data-name="Trazado 570642" d="M1636.77,392.779a1.878,1.878,0,0,0,1.56.669q4.318-.056,8.637,0a1.87,1.87,0,0,0,1.56-.669c.5.863.514,1.343-.745,1.322q-5.132-.086-10.266,0C1636.258,394.122,1636.265,393.644,1636.77,392.779Z" transform="translate(-70.763 -24.257)" fill="#6ad9f7"/>
      <path id="Trazado_570643" data-name="Trazado 570643" d="M1692.2,507.7c.568.534.322,1.228.323,1.849q.028,9.849.01,19.7c0,.885-.2,1.89,1.736,1.566-1.841.755-2.076.085-2.074-1.1.009-7.271-.025-14.542-.044-21.813A.122.122,0,0,1,1692.2,507.7Z" transform="translate(-108.239 -101.633)" fill="#fed971"/>
      <path id="Trazado_570644" data-name="Trazado 570644" d="M1652.447,491.2c.678-.505,1.458-.238,2.189-.256a3.636,3.636,0,0,0,3.39-2.753c.241-.733-.59-.861-.415-1.4a1.334,1.334,0,0,1,1.676.545.489.489,0,0,1,0,.162,14.2,14.2,0,0,1-1.218,3.5c-.84,1.26-2.212-.121-3.365.215A7.783,7.783,0,0,1,1652.447,491.2Z" transform="translate(-81.532 -87.467)" fill="#68d5f2"/>
      <path id="Trazado_570645" data-name="Trazado 570645" d="M1708.683,510.017l-.341-.006.318-.329h18.213l0,.334Z" transform="translate(-119.165 -102.966)" fill="#50c2eb"/>
      <path id="Trazado_570646" data-name="Trazado 570646" d="M1726.8,498a1.239,1.239,0,0,1-1.056.293q-7.332,0-14.665-.005a.625.625,0,0,1-.548-.32q6.742,0,13.484,0a3.918,3.918,0,0,0,2.214-.363Z" transform="translate(-120.636 -94.835)" fill="#fcd770"/>
      <path id="Trazado_570647" data-name="Trazado 570647" d="M1596.7,508.65c1.154-.258,1.29.356,1.333,1.34.052,1.181-.5,1.259-1.445,1.291-1.045.036-1.236-.382-1.249-1.318C1595.322,508.925,1595.588,508.407,1596.7,508.65Z" transform="translate(-43.08 -102.231)" fill="#a67141"/>
      <path id="Trazado_570648" data-name="Trazado 570648" d="M1621.927,469.9c.277,1.236-.331,1.378-1.318,1.42-1.177.05-1.26-.5-1.294-1.443-.037-1.049.376-1.261,1.32-1.247C1621.621,468.64,1622.3,468.754,1621.927,469.9Z" transform="translate(-59.225 -75.323)" fill="#a67141"/>
      <path id="Trazado_570649" data-name="Trazado 570649" d="M1645.936,509.986c.279,1.217-.459,1.22-1.377,1.286-1.246.09-1.193-.6-1.248-1.479-.068-1.1.472-1.171,1.352-1.21C1645.763,508.534,1646.154,508.932,1645.936,509.986Z" transform="translate(-75.377 -102.223)" fill="#a67141"/>
      <path id="Trazado_570650" data-name="Trazado 570650" d="M1569.052,365.1a7.244,7.244,0,0,1-4.562,0A7.169,7.169,0,0,1,1569.052,365.1Z" transform="translate(-22.313 -5.368)" fill="#fe8671"/>
      <path id="Trazado_570651" data-name="Trazado 570651" d="M1736.951,365.1a7.243,7.243,0,0,1-4.561,0A7.168,7.168,0,0,1,1736.951,365.1Z" transform="translate(-135.357 -5.368)" fill="#fe8671"/>
      <path id="Trazado_570652" data-name="Trazado 570652" d="M1654.386,365.136a1.534,1.534,0,0,1-1.952,0A1.534,1.534,0,0,1,1654.386,365.136Z" transform="translate(-81.524 -5.413)" fill="#6cdefb"/>
      <path id="Trazado_570653" data-name="Trazado 570653" d="M1622.753,424.057c-.58-.718-.266-1.5-.091-2.282q.071.7.141,1.4Q1622.778,423.616,1622.753,424.057Z" transform="translate(-61.315 -43.78)" fill="#6ee1fd"/>
      <path id="Trazado_570654" data-name="Trazado 570654" d="M1686.236,413.037l.187-.994c.229.712.331,1.152-.129,1.541Z" transform="translate(-104.282 -37.227)" fill="#6de0fd"/>
      <path id="Trazado_570655" data-name="Trazado 570655" d="M1623.813,414.1c-.462-.349-.287-.811-.115-1.289l.174.74Z" transform="translate(-62.054 -37.748)" fill="#6de0fd"/>
      <path id="Trazado_570656" data-name="Trazado 570656" d="M1686.311,464.741c.416.357.356.8.17,1.514l-.228-.958C1686.272,465.112,1686.291,464.926,1686.311,464.741Z" transform="translate(-104.293 -72.708)" fill="#6ee0fd"/>
      <path id="Trazado_570657" data-name="Trazado 570657" d="M1676.767,414.028c-.041.345-.082.691-.145,1.236-.29-.679-.307-1.118.117-1.5A.186.186,0,0,1,1676.767,414.028Z" transform="translate(-97.667 -38.387)" fill="#6ee1fd"/>
      <path id="Trazado_570658" data-name="Trazado 570658" d="M1755.163,578.937H1749.7c1.821-.179,3.65-.735,5.453,0Z" transform="translate(-147.012 -149.345)" fill="#feda71"/>
      <path id="Trazado_570659" data-name="Trazado 570659" d="M1635.69,435.013h12.934v.163h-12.952Z" transform="translate(-70.238 -52.693)" fill="#6ad8f6"/>
      <path id="Trazado_570660" data-name="Trazado 570660" d="M1648.62,446.274H1635.8v-.162h12.884Z" transform="translate(-70.322 -60.165)" fill="#6ad8f6"/>
      <path id="Trazado_570661" data-name="Trazado 570661" d="M1560.6,386.528c-2.736,2.034-5.646,2.615-8.83,1.1a3.5,3.5,0,0,0-.948-.161c.024-.526-.422-.714-.724-1.006a7.822,7.822,0,1,1,11.011-.556C1560.934,386.106,1560.77,386.319,1560.6,386.528Z" transform="translate(-10.864 -10.81)" fill="#010100"/>
      <path id="Trazado_570662" data-name="Trazado 570662" d="M1728.5,386.528c-2.736,2.034-5.646,2.615-8.83,1.1a3.508,3.508,0,0,0-.949-.161c.024-.526-.422-.714-.724-1.006a7.822,7.822,0,1,1,11.011-.556C1728.833,386.106,1728.668,386.319,1728.5,386.528Z" transform="translate(-123.906 -10.81)" fill="#010100"/>
      <ellipse id="Elipse_7064" data-name="Elipse 7064" cx="5.225" cy="0.103" rx="5.225" ry="0.103" transform="translate(1581.484 382.285)" fill="#6ad8f6"/>
      <path id="Trazado_570663" data-name="Trazado 570663" d="M1605.935,435.148h-7.371v-.163h7.4Z" transform="translate(-45.254 -52.674)" fill="#6ad8f6"/>
      <path id="Trazado_570664" data-name="Trazado 570664" d="M1654.559,487.145a6.871,6.871,0,0,1-.7.408c-.2.083-.287-.062-.289-.235a.392.392,0,0,1,.361-.436C1654.045,486.872,1654.168,486.975,1654.559,487.145Z" transform="translate(-82.289 -87.615)" fill="#68d5f2"/>
      <path id="Trazado_570665" data-name="Trazado 570665" d="M1654.727,496.868a3.73,3.73,0,0,1-.818.261.379.379,0,0,1-.335-.455.206.206,0,0,1,.312-.2C1654.084,496.559,1654.276,496.657,1654.727,496.868Z" transform="translate(-82.29 -94.058)" fill="#68d5f2"/>
      <path id="Trazado_570666" data-name="Trazado 570666" d="M1597.354,511.645c-.721.054-.9-.361-.9-1,0-.689.3-.939.973-.952.8-.016,1.007.385.989,1.1C1598.4,511.53,1597.98,511.7,1597.354,511.645Z" transform="translate(-43.832 -102.974)" fill="#b27846"/>
      <path id="Trazado_570667" data-name="Trazado 570667" d="M1621.464,471.67c-.65.052-1.019-.163-1.034-.884-.016-.741.249-1.081,1.023-1.066.7.013.942.321.941.985S1622.16,471.731,1621.464,471.67Z" transform="translate(-59.975 -76.059)" fill="#b27846"/>
      <path id="Trazado_570668" data-name="Trazado 570668" d="M1645.395,511.646c-.673.056-.966-.241-.98-.93-.016-.777.332-1.036,1.07-1.02s.89.4.9,1.03C1646.384,511.425,1646.063,511.7,1645.395,511.646Z" transform="translate(-76.124 -102.975)" fill="#b27846"/>
      <path id="Trazado_570669" data-name="Trazado 570669" d="M1562.348,381.83a5.092,5.092,0,0,1,0,9.73q-1.627.057-3.253,0a5.092,5.092,0,0,1,0-9.73Q1560.721,381.777,1562.348,381.83Z" transform="translate(-16.263 -16.867)" fill="#fee9a6"/>
      <path id="Trazado_570670" data-name="Trazado 570670" d="M1569.748,381.112a3.91,3.91,0,0,1-3.253,0A3.714,3.714,0,0,1,1569.748,381.112Z" transform="translate(-23.662 -16.149)" fill="#fef1ad"/>
      <path id="Trazado_570671" data-name="Trazado 570671" d="M1566.489,410.939a3.93,3.93,0,0,1,3.253,0A3.711,3.711,0,0,1,1566.489,410.939Z" transform="translate(-23.659 -36.247)" fill="#fef2ac"/>
      <path id="Trazado_570672" data-name="Trazado 570672" d="M1730.247,381.83a5.092,5.092,0,0,1,0,9.73q-1.627.057-3.253,0a5.092,5.092,0,0,1,0-9.73Q1728.62,381.777,1730.247,381.83Z" transform="translate(-129.306 -16.867)" fill="#fee9a6"/>
      <path id="Trazado_570673" data-name="Trazado 570673" d="M1737.646,381.112a3.911,3.911,0,0,1-3.254,0A3.715,3.715,0,0,1,1737.646,381.112Z" transform="translate(-136.704 -16.149)" fill="#fef1ad"/>
      <path id="Trazado_570674" data-name="Trazado 570674" d="M1734.388,410.939a3.93,3.93,0,0,1,3.253,0A3.71,3.71,0,0,1,1734.388,410.939Z" transform="translate(-136.702 -36.247)" fill="#fef2ac"/>
    </g>
  </g>
</svg>
