<svg xmlns="http://www.w3.org/2000/svg" width="52" height="52" viewBox="0 0 52 52">
  <g id="Grupo_845313" data-name="Grupo 845313" transform="translate(-997 -3519.965)">
    <g id="Trazado_582589" data-name="Trazado 582589" transform="translate(997 3519.965)" fill="#fff">
      <path d="M 26 49.5 C 22.82641983032227 49.5 19.74909973144531 48.87900924682617 16.8535099029541 47.65428161621094 C 14.05543994903564 46.47079849243164 11.54199981689453 44.77600860595703 9.382989883422852 42.61700820922852 C 7.223989963531494 40.45800018310547 5.529200077056885 37.94456100463867 4.345719814300537 35.14648818969727 C 3.120990037918091 32.25090026855469 2.5 29.17358016967773 2.5 26 C 2.5 22.82641983032227 3.120990037918091 19.74909973144531 4.345719814300537 16.8535099029541 C 5.529200077056885 14.05543994903564 7.223989963531494 11.54199981689453 9.382989883422852 9.382989883422852 C 11.54199981689453 7.223989963531494 14.05543994903564 5.529200077056885 16.8535099029541 4.345719814300537 C 19.74909973144531 3.120990037918091 22.82641983032227 2.5 26 2.5 C 29.17358016967773 2.5 32.25090026855469 3.120990037918091 35.14648818969727 4.345719814300537 C 37.94456100463867 5.529200077056885 40.45800018310547 7.223989963531494 42.61700820922852 9.382989883422852 C 44.77600860595703 11.54199981689453 46.47079849243164 14.05543994903564 47.65428161621094 16.8535099029541 C 48.87900924682617 19.74909973144531 49.5 22.82641983032227 49.5 26 C 49.5 29.17358016967773 48.87900924682617 32.25090026855469 47.65428161621094 35.14648818969727 C 46.47079849243164 37.94456100463867 44.77600860595703 40.45800018310547 42.61700820922852 42.61700820922852 C 40.45800018310547 44.77600860595703 37.94456100463867 46.47079849243164 35.14648818969727 47.65428161621094 C 32.25090026855469 48.87900924682617 29.17358016967773 49.5 26 49.5 Z" stroke="none"/>
      <path d="M 26 5 C 20.39069938659668 5 15.11713409423828 7.184379577636719 11.1507568359375 11.1507568359375 C 7.184379577636719 15.11713409423828 5 20.39069938659668 5 26 C 5 31.60930061340332 7.184379577636719 36.88286590576172 11.1507568359375 40.8492431640625 C 15.11713409423828 44.81562042236328 20.39069938659668 47 26 47 C 31.60930061340332 47 36.88286590576172 44.81562042236328 40.8492431640625 40.8492431640625 C 44.81562042236328 36.88286590576172 47 31.60930061340332 47 26 C 47 20.39069938659668 44.81562042236328 15.11713409423828 40.8492431640625 11.1507568359375 C 36.88286590576172 7.184379577636719 31.60930061340332 5 26 5 M 26 0 C 40.35939788818359 0 52 11.64059829711914 52 26 C 52 40.35939788818359 40.35939788818359 52 26 52 C 11.64059829711914 52 0 40.35939788818359 0 26 C 0 11.64059829711914 11.64059829711914 0 26 0 Z" stroke="none" fill="#68e3c1"/>
    </g>
    <path id="Trazado_582921" data-name="Trazado 582921" d="M14.77,15.443h1.445v2.539H14.77V21H11.479V17.982H5.98l-.2-2.012,5.693-9.16V6.781H14.77Zm-5.85,0h2.559V11.068l-.205.332Z" transform="translate(1012 3532.965)" fill="#12263f"/>
  </g>
</svg>
