<svg xmlns="http://www.w3.org/2000/svg" width="87.008" height="74.771" viewBox="0 0 87.008 74.771">
  <g id="Grupo_842273" data-name="Grupo 842273" transform="translate(-1902.606 -51.967)">
    <path id="Trazado_571144" data-name="Trazado 571144" d="M1959.7,64.663c0,3.455.062,6.911-.032,10.363-.034,1.243.375,1.465,1.519,1.452,5.55-.06,11.1.014,16.65-.056a2.411,2.411,0,0,1,2.559,1.671c2.435,5.408,4.936,10.785,7.448,16.158a4.774,4.774,0,0,1,.41,2.124q-.018,6.286,0,12.573c0,.7-.2,1.463.792,1.792.432.143.574.645.569,1.143-.015,1.756.015,3.512-.013,5.267-.019,1.21-.828,1.452-1.853,1.445-2.605-.018-5.212.04-7.815-.029-.97-.025-1.322.264-1.593,1.225a9.457,9.457,0,0,1-18.225.047c-.3-1.064-.743-1.271-1.729-1.267q-11.638.052-23.277,0c-.929,0-1.343.185-1.625,1.184a9.455,9.455,0,0,1-18.266-.046c-.255-.888-.6-1.162-1.488-1.134-2.15.066-4.306-.025-6.455.054-1.377.051-2.027-.456-1.95-1.856.034-.621-.03-1.248.012-1.868.075-1.09.111-1.989-1.493-1.809-.831.093-1.238-.626-1.237-1.5q.012-8.665,0-17.33c0-.967.521-1.576,1.45-1.473,1.3.145,1.285-.554,1.281-1.491-.027-5.493-.015-10.987-.012-16.48,0-2.3.142-2.448,2.382-2.45,4.191,0,8.383-.044,12.573.027,1.136.019,1.429-.32,1.381-1.414-.087-1.978.042-3.966-.045-5.944-.071-1.6.52-2.238,2.162-2.209,4.247.073,8.5-.027,12.742.056,1.235.024,1.5-.36,1.457-1.515-.09-2.489.009-4.983-.041-7.474-.028-1.373.529-1.939,1.912-1.931q8.92.05,17.84,0c1.443-.01,2.05.518,2.027,1.993C1959.664,57.527,1959.7,61.095,1959.7,64.663Z" transform="translate(0 0)"/>
    <path id="Trazado_571145" data-name="Trazado 571145" d="M1986.344,168.177c-1.694.392-2.517-.148-3.089-1.953a9.189,9.189,0,0,0-9.222-6.138,9.368,9.368,0,0,0-8.644,6.746c-.342,1.221-.863,1.425-1.975,1.418q-11.462-.066-22.925,0c-1.09.007-1.51-.292-1.823-1.386a9.458,9.458,0,0,0-18.132-.051c-.339,1.194-.817,1.526-1.961,1.439a27.853,27.853,0,0,0-3.733,0c-1.058.062-1.607-.07-1.617-1.4-.01-1.4.658-1.437,1.656-1.349a6.4,6.4,0,0,0,1.018-.009c.85-.061,1.427-.5,1.41-1.371a1.3,1.3,0,0,0-1.459-1.322c-1.415-.025-2.832-.052-4.245,0-.823.03-1.062-.269-1.056-1.071.031-4.245.068-8.491-.015-12.735-.028-1.447.849-1.155,1.649-1.155q17.576-.006,35.152,0c4.529,0,9.058.034,13.585-.025,1.065-.014,1.39.3,1.315,1.339-.086,1.183-.008,2.376-.023,3.565-.012,1.016.248,1.9,1.44,1.856,1.076-.042,1.292-.9,1.29-1.839q-.014-8.83,0-17.66v-.849c0-2.685.853-3.319,3.479-2.712.8.185.583.72.585,1.172.019,3.056,0,6.113.013,9.169.025,4.487,2.839,7.306,7.318,7.341,3.339.026,6.677.035,10.016.052.866.432.873,1.259.878,2.041q.058,7.423,0,14.846C1987.218,166.919,1987.212,167.746,1986.344,168.177Z" transform="translate(-5.229 -52.359)" fill="#9fd368"/>
    <path id="Trazado_571146" data-name="Trazado 571146" d="M2014.493,78.873c0-5.775.039-11.55-.03-17.324-.015-1.289.259-1.9,1.642-1.666a5.857,5.857,0,0,0,1.525,0c.765-.077.974.253.951.976-.045,1.414-.01,2.83-.012,4.246a1.39,1.39,0,0,0,1.555,1.581c1.7.006,3.4.014,5.1,0,1.053-.011,1.518-.6,1.509-1.625-.01-1.246.089-2.5-.027-3.734-.117-1.25.377-1.6,1.521-1.441a6.527,6.527,0,0,0,1.526,0c.8-.08,1.071.195,1.07,1.03q-.037,18,0,36.008c0,.825-.258,1.05-1.061,1.044-4.7-.032-9.4-.064-14.1.017-1.25.021-1.178-.6-1.176-1.449C2014.5,90.649,2014.493,84.761,2014.493,78.873Z" transform="translate(-73.82 -5.193)" fill="#fed1a5"/>
    <path id="Trazado_571147" data-name="Trazado 571147" d="M1918.542,128.681c0-2.548.077-5.1-.032-7.641-.054-1.267.614-1.162,1.451-1.179s1.324.017,1.331,1.128c.018,2.967.084,2.966,3.026,2.966q1.274,0,2.548,0c2.423,0,2.627-.117,2.517-2.455-.064-1.356.351-1.733,1.673-1.665.944.049,1.1.382,1.091,1.2-.029,5.095-.036,10.19.005,15.284.008.938-.226,1.26-1.211,1.245q-5.6-.083-11.209,0c-.984.015-1.233-.3-1.211-1.245C1918.58,133.777,1918.542,131.229,1918.542,128.681Z" transform="translate(-10.493 -44.786)" fill="#fed1a5"/>
    <path id="Trazado_571148" data-name="Trazado 571148" d="M1980.131,98.759c0,1.808-.049,3.618.019,5.424.037.975-.145,1.389-1.268,1.366-3.729-.077-7.46-.051-11.189-.012-.847.009-1.187-.173-1.174-1.109.051-3.786.045-7.573,0-11.358-.01-.866.2-1.238,1.125-1.155a18.534,18.534,0,0,0,2.542.007c1.066-.052,2.034-.161,1.851,1.47-.083.741.558,1.242,1.342,1.212a1.2,1.2,0,0,0,1.27-1.307c-.131-1.332.535-1.4,1.586-1.389,3.893.03,3.894,0,3.894,3.968Z" transform="translate(-42.179 -26.353)" fill="#f6c191"/>
    <path id="Trazado_571149" data-name="Trazado 571149" d="M2104.412,146.832c-3.272.015-6.546.084-9.817.029a3.944,3.944,0,0,1-4.093-4.066c-.071-3.272,0-6.547-.04-9.82-.01-.815.258-1.081,1.064-1.053,1.8.062,3.61.048,5.415.065a2.268,2.268,0,0,1,2.219,1.614c1.788,3.759,3.427,7.585,5.242,11.33C2104.682,145.508,2105.368,146.2,2104.412,146.832Z" transform="translate(-123.976 -52.766)" fill="#5d9beb"/>
    <path id="Trazado_571150" data-name="Trazado 571150" d="M1973.329,150.8c-1.868,0-3.737-.03-5.6.014-.811.019-1.228-.111-1.208-1.084.06-2.942.04-5.886.009-8.829-.008-.72.2-1.041.957-.982.676.052,1.358.01,2.037.01,2.295,0,2.316,0,2.442,2.347.049.9.328,1.633,1.292,1.674,1.072.046,1.4-.708,1.449-1.685.123-2.338.144-2.337,2.455-2.337,2.971,0,2.971,0,2.971,3.021,0,2.208-.043,4.416.02,6.622.027.945-.225,1.292-1.218,1.251C1977.067,150.745,1975.2,150.8,1973.329,150.8Z" transform="translate(-42.178 -58.039)" fill="#e9af80"/>
    <path id="Trazado_571151" data-name="Trazado 571151" d="M1960.2,230.657a6.783,6.783,0,1,1-6.891-6.716A6.87,6.87,0,0,1,1960.2,230.657Z" transform="translate(-29.054 -113.494)" fill="#646c77"/>
    <path id="Trazado_571152" data-name="Trazado 571152" d="M2085.3,237.5a6.783,6.783,0,1,1,6.826-6.781A6.863,6.863,0,0,1,2085.3,237.5Z" transform="translate(-116.123 -113.493)" fill="#646c77"/>
    <path id="Trazado_571153" data-name="Trazado 571153" d="M2133.483,202.877a2.541,2.541,0,0,0,.342-1.451q-.012-8.012,0-16.024a2.56,2.56,0,0,0-.34-1.451c4.413-.206,4.425-.206,4.4,4.239-.005,1.116.335,2.3-1,3.1a1.044,1.044,0,0,0,.176,1.746c1.612,1.1.606,2.665.76,4,.073.637-.668.406-1.068.441-.914.081-1.569.493-1.5,1.454s.793,1.281,1.687,1.27a9.538,9.538,0,0,0,1.184-.007c1.095-.153,1.141.485,1.149,1.32.008.9-.035,1.516-1.229,1.426C2136.533,202.837,2135.005,202.894,2133.483,202.877Z" transform="translate(-152.368 -87.059)" fill="#8bc051"/>
    <path id="Trazado_571154" data-name="Trazado 571154" d="M2116.986,146.771c.313-.459.046-.848-.144-1.251-1.96-4.153-3.976-8.281-5.825-12.482-.364-.826-1.068-.671-1.5-1.112,4.8-.272,4.8-.273,6.779,4.015,1.417,3.063,2.837,6.125,4.234,9.2.224.491.644.943.465,1.633Z" transform="translate(-136.55 -52.704)" fill="#4988db"/>
    <path id="Trazado_571155" data-name="Trazado 571155" d="M2034.319,61.6c-.336-1.31.179-2,1.831-1.769.608.086.952.2.91.878a13.531,13.531,0,0,0,0,1.525c.051,1.009.113,1.777-1.408,1.778-1.617,0-1.329-.925-1.333-1.849C2034.319,62.05,2034.319,61.937,2034.319,61.6Z" transform="translate(-86.86 -5.16)" fill="#de4f5e"/>
    <path id="Trazado_571156" data-name="Trazado 571156" d="M1935.913,119.9c.464.191,1.314-.4,1.4.632.085,1.055-.755.767-1.276.735s-1.335.43-1.422-.591C1934.522,119.615,1935.366,120.008,1935.913,119.9Z" transform="translate(-21.118 -44.832)" fill="#de4f5e"/>
    <path id="Trazado_571157" data-name="Trazado 571157" d="M1916.668,195.109c-1.39,0-2.781,0-4.172,0-.792,0-.9-.5-.894-1.133.007-4.02.014-8.041,0-12.061,0-.818.368-1.12,1.138-1.071.338.021.679,0,1.019,0,15.572,0,31.145.031,46.717-.044,1.759-.008,2.355.479,2.125,2.182a22.523,22.523,0,0,0-.019,2.778,2.339,2.339,0,0,1-.33-1.732c-.064-3.261.427-2.827-2.934-2.84-5.492-.022-10.986-.006-16.478-.006-9.683,0-19.367.035-29.05-.036-1.536-.011-1.921.457-1.877,1.926.1,3.394.078,6.795.009,10.191-.024,1.209.4,1.615,1.567,1.529,1.057-.079,2.124-.017,3.186-.017Z" transform="translate(-5.934 -85.026)" fill="#a1d669"/>
    <path id="Trazado_571158" data-name="Trazado 571158" d="M2071.529,153.915v-20c0-1.327,1.007-.957,1.719-.972.733-.015,1.684-.294,1.676,1.021-.019,3.155-.006,6.31-.342,9.466,0-2.807-.006-5.614,0-8.42,0-.926.142-1.765-1.308-1.787-1.521-.023-1.422.841-1.42,1.848q.019,9.41.006,18.821Z" transform="translate(-111.481 -53.415)" fill="#a1d669"/>
    <path id="Trazado_571159" data-name="Trazado 571159" d="M2027.743,65.88c0-.952.032-1.9-.008-2.855-.053-1.26-.148-2.256,1.755-2.225,1.8.03,1.661.969,1.659,2.149q-.021,15.873-.009,31.747c0,.792-.035,1.587.007,2.377.048.886-.337,1.192-1.2,1.187-4.414-.024-8.829-.042-13.243.007-1.379.015-1.193-.863-1.194-1.7q0-10.186,0-20.373c0-4.471.03-8.942-.02-13.412-.014-1.237.075-1.951,1.672-1.97,1.681-.02,1.855.736,1.76,2.049a11.806,11.806,0,0,1-.354,3.028c0-1.124-.054-2.252.015-3.372.069-1.1-.449-1.334-1.422-1.325-.91.009-1.327.254-1.325,1.25q.035,17.147,0,34.294c0,.884.339,1.192,1.2,1.187,4.188-.025,8.376-.043,12.564.007,1.379.016,1.193-.863,1.194-1.7q0-10.951,0-21.9c0-3.792-.006-7.583,0-11.375,0-.932.126-1.759-1.316-1.779-1.529-.022-1.432.857-1.411,1.856.02.952,0,1.9,0,2.857Z" transform="translate(-74.497 -5.829)" fill="#fed4a7"/>
    <path id="Trazado_571160" data-name="Trazado 571160" d="M1930.719,123.147c-.086-.734-.745-1.736.285-2.189.671-.3,1.5-.231,1.493.93q-.018,7.469,0,14.938c0,.854-.444,1.036-1.178,1.033-3.508-.015-7.017-.04-10.525.012-1.187.018-1.225-.639-1.221-1.515.018-4.64,0-9.28.015-13.92,0-.688-.245-1.541.959-1.575,1.316-.037,1.038.883,1.068,1.634.009.219-.026.439-.044.7-.127-.076-.235-.1-.258-.16-.239-.6.438-1.756-.725-1.731-1.132.024-.638,1.142-.645,1.768-.044,4.3.011,8.6-.045,12.9-.016,1.173.331,1.59,1.538,1.561,3.054-.072,6.112-.066,9.166,0,1.153.024,1.6-.295,1.578-1.52-.063-4.412-.013-8.827-.04-13.24,0-.547.334-1.426-.615-1.489-1.013-.068-.629.837-.73,1.38C1930.766,122.825,1930.744,122.986,1930.719,123.147Z" transform="translate(-11.195 -45.432)" fill="#fed4a7"/>
    <path id="Trazado_571161" data-name="Trazado 571161" d="M1972.357,93.3c-.51.42-.69-.068-.988-.113-3.139-.47-3.491-.185-3.491,2.953,0,2.6.038,5.2-.018,7.8-.023,1.063.26,1.525,1.418,1.5,3.165-.063,6.333-.055,9.5,0,1.055.017,1.367-.382,1.353-1.391-.045-3.109-.061-6.219.007-9.328.026-1.179-.342-1.695-1.539-1.536-.914.122-1.883-.3-2.767.182a5.6,5.6,0,0,1,4.092-.395c.936.15.5,1.236.512,1.9.042,3.109-.021,6.219.039,9.328.022,1.141-.275,1.612-1.51,1.585-3.334-.074-6.672-.064-10.006,0-1.137.02-1.453-.4-1.436-1.484q.079-5,0-10.006c-.019-1.105.345-1.6,1.456-1.44C1970.059,93.005,1971.257,92.488,1972.357,93.3Z" transform="translate(-42.839 -26.933)" fill="#f9c393"/>
    <path id="Trazado_571162" data-name="Trazado 571162" d="M1972.113,142.933c.048-2.626-1.882-1.513-3.054-1.657-1.545-.189-1.134,1.048-1.148,1.861-.037,2.093.03,4.187-.03,6.279-.029,1.042.354,1.382,1.379,1.367q4.751-.071,9.5,0c1.018.015,1.413-.311,1.386-1.361-.058-2.261-.072-4.527,0-6.787.039-1.182-.479-1.519-1.519-1.381-1.125.15-2.872-.73-2.682,1.672-.468-1.333-.332-2.088,1.322-2.036,3.795.12,3.135-.432,3.191,3.1.031,1.923-.02,3.847.016,5.77.016.877-.176,1.372-1.207,1.36-3.507-.041-7.015-.032-10.522,0-.865.007-1.216-.3-1.2-1.187q.05-3.9,0-7.806c-.01-.85.27-1.275,1.171-1.215.62.041,1.244,0,1.867.007C1972.363,140.926,1972.363,140.928,1972.113,142.933Z" transform="translate(-42.859 -58.684)" fill="#ecb181"/>
    <path id="Trazado_571163" data-name="Trazado 571163" d="M1958.545,240.06a4.067,4.067,0,1,1,4.2-3.972A4.123,4.123,0,0,1,1958.545,240.06Z" transform="translate(-34.321 -118.766)" fill="#010101"/>
    <path id="Trazado_571164" data-name="Trazado 571164" d="M2094.667,236.073a4.068,4.068,0,1,1-4.033-4.141A4.13,4.13,0,0,1,2094.667,236.073Z" transform="translate(-121.383 -118.768)" fill="#010101"/>
    <path id="Trazado_571165" data-name="Trazado 571165" d="M2037.558,62.657c-.151.686.367,1.69-.963,1.743-1.427.057-1.074-.981-1.082-1.746-.008-.723-.294-1.655,1.011-1.653C2037.846,61,2037.445,61.967,2037.558,62.657Z" transform="translate(-87.69 -5.963)" fill="#ed5565"/>
    <path id="Trazado_571166" data-name="Trazado 571166" d="M1936.267,121.4a1.359,1.359,0,0,1,1.775-.052A1.463,1.463,0,0,1,1936.267,121.4Z" transform="translate(-22.215 -45.586)" fill="#ef5566"/>
    <path id="Trazado_571167" data-name="Trazado 571167" d="M1965.612,241.851q-1.026,1.438-2.052,0,.016-.683,0-1.366,1.026-1.436,2.052,0Q1965.595,241.168,1965.612,241.851Z" transform="translate(-40.226 -123.939)" fill="#c2c7cf"/>
    <path id="Trazado_571168" data-name="Trazado 571168" d="M1962.929,241.88a.821.821,0,0,1,0,1.366A.88.88,0,0,1,1962.929,241.88Z" transform="translate(-39.596 -125.334)" fill="#d4dae2"/>
    <path id="Trazado_571169" data-name="Trazado 571169" d="M1968.885,243.245a.82.82,0,0,1,0-1.365A.88.88,0,0,1,1968.885,243.245Z" transform="translate(-43.5 -125.334)" fill="#d4dae2"/>
    <path id="Trazado_571170" data-name="Trazado 571170" d="M2097.531,241.851q-1.026,1.438-2.052,0,.016-.683,0-1.366,1.026-1.436,2.052,0Q2097.515,241.168,2097.531,241.851Z" transform="translate(-127.287 -123.939)" fill="#c2c7cf"/>
    <path id="Trazado_571171" data-name="Trazado 571171" d="M2094.849,241.88a.821.821,0,0,1,0,1.366A.88.88,0,0,1,2094.849,241.88Z" transform="translate(-126.657 -125.334)" fill="#d4dae2"/>
    <path id="Trazado_571172" data-name="Trazado 571172" d="M2100.806,243.245a.82.82,0,0,1,0-1.365A.88.88,0,0,1,2100.806,243.245Z" transform="translate(-130.562 -125.334)" fill="#d4dae2"/>
  </g>
</svg>
