<svg xmlns="http://www.w3.org/2000/svg" width="447.089" height="631.163" viewBox="0 0 447.089 631.163">
  <g id="Grupo_845315" data-name="Grupo 845315" transform="translate(-382.731 -4660.145)">
    <g id="Grupo_845314" data-name="Grupo 845314">
      <g id="Grupo_845313" data-name="Grupo 845313">
        <g id="Grupo_845312" data-name="Grupo 845312">
          <g id="Grupo_845311" data-name="Grupo 845311">
            <path id="Trazado_571173" data-name="Trazado 571173" d="M-460.528,741.752-578.235,673.8l329.383-190.356L-131.146,551.4Z" transform="translate(960.965 4549.556)" fill="#e2e2e2" style="mix-blend-mode: multiply;isolation: isolate"/>
            <g id="Grupo_842277" data-name="Grupo 842277" transform="translate(708.68 4680.734)">
              <g id="Grupo_842274" data-name="Grupo 842274" transform="translate(0 9.009)">
                <path id="Trazado_571174" data-name="Trazado 571174" d="M-287.357,196.661V344.718l-9,5.2V201.858Z" transform="translate(303.646 -192.442)" fill="#ffc536"/>
                <path id="Trazado_571175" data-name="Trazado 571175" d="M-295.231,201.706V349.762l-7.291-4.21V197.5Z" transform="translate(302.522 -192.29)" fill="#dd9a36"/>
                <path id="Trazado_571176" data-name="Trazado 571176" d="M-295.22,202.514l-7.3-4.213,9-5.209,7.3,4.213Z" transform="translate(302.522 -193.092)" fill="#ffe25b"/>
              </g>
              <g id="Grupo_842275" data-name="Grupo 842275" transform="translate(86.064 58.712)">
                <path id="Trazado_571177" data-name="Trazado 571177" d="M-214.558,238.7V386.76l-9,5.2V243.9Z" transform="translate(230.846 -234.484)" fill="#ffc536"/>
                <path id="Trazado_571178" data-name="Trazado 571178" d="M-222.433,243.748V391.8l-7.29-4.21V239.538Z" transform="translate(229.723 -234.332)" fill="#dd9a36"/>
                <path id="Trazado_571179" data-name="Trazado 571179" d="M-222.421,244.555l-7.3-4.213,9-5.209,7.3,4.213Z" transform="translate(229.723 -235.134)" fill="#ffe25b"/>
              </g>
              <g id="Grupo_842276" data-name="Grupo 842276">
                <path id="Trazado_571180" data-name="Trazado 571180" d="M-214.548,231.074v9.012l-9,5.2v-9.012Z" transform="translate(316.912 -177.162)" fill="#ffc536"/>
                <path id="Trazado_571181" data-name="Trazado 571181" d="M-209.156,243.778v9.012l-93.366-53.9v-9.012Z" transform="translate(302.522 -184.669)" fill="#dd9a36"/>
                <path id="Trazado_571182" data-name="Trazado 571182" d="M-209.144,244.586l-93.377-53.906,9-5.209,93.377,53.906Z" transform="translate(302.522 -185.471)" fill="#ffe25b"/>
              </g>
            </g>
            <g id="Grupo_842288" data-name="Grupo 842288" transform="translate(403.415 4994.898)">
              <g id="Grupo_842287" data-name="Grupo 842287">
                <g id="Grupo_842281" data-name="Grupo 842281" transform="translate(305.265)">
                  <g id="Grupo_842278" data-name="Grupo 842278" transform="translate(0 9.009)">
                    <path id="Trazado_571183" data-name="Trazado 571183" d="M-287.357,462.4v47.529l-9,5.2V467.6Z" transform="translate(303.646 -458.185)" fill="#ffc536"/>
                    <path id="Trazado_571184" data-name="Trazado 571184" d="M-295.231,467.45v47.528l-7.291-4.21V463.239Z" transform="translate(302.522 -458.033)" fill="#dd9a36"/>
                    <path id="Trazado_571185" data-name="Trazado 571185" d="M-295.22,468.257l-7.3-4.213,9-5.209,7.3,4.213Z" transform="translate(302.522 -458.836)" fill="#ffe25b"/>
                  </g>
                  <g id="Grupo_842279" data-name="Grupo 842279" transform="translate(86.064 58.712)">
                    <path id="Trazado_571186" data-name="Trazado 571186" d="M-214.558,504.447v47.529l-9,5.2V509.644Z" transform="translate(230.846 -500.227)" fill="#ffc536"/>
                    <path id="Trazado_571187" data-name="Trazado 571187" d="M-222.433,509.492V557.02l-7.29-4.21V505.281Z" transform="translate(229.723 -500.075)" fill="#dd9a36"/>
                    <path id="Trazado_571188" data-name="Trazado 571188" d="M-222.421,510.3l-7.3-4.213,9-5.208,7.3,4.212Z" transform="translate(229.723 -500.878)" fill="#ffe25b"/>
                  </g>
                  <g id="Grupo_842280" data-name="Grupo 842280">
                    <path id="Trazado_571189" data-name="Trazado 571189" d="M-214.548,496.818v9.012l-9,5.2v-9.012Z" transform="translate(316.912 -442.906)" fill="#ffc536"/>
                    <path id="Trazado_571190" data-name="Trazado 571190" d="M-209.156,509.522v9.012l-93.366-53.9v-9.012Z" transform="translate(302.522 -450.412)" fill="#dd9a36"/>
                    <path id="Trazado_571191" data-name="Trazado 571191" d="M-209.144,510.329l-93.377-53.905,9-5.209,93.377,53.905Z" transform="translate(302.522 -451.215)" fill="#ffe25b"/>
                  </g>
                </g>
                <g id="Grupo_842282" data-name="Grupo 842282" transform="translate(9.01 5.202)">
                  <path id="Trazado_571192" data-name="Trazado 571192" d="M-177.874,501.218v9.012L-474.141,681.437v-9.012Z" transform="translate(567.507 -447.306)" fill="#ffc536"/>
                  <path id="Trazado_571193" data-name="Trazado 571193" d="M-459.751,654.346v9.012l-93.366-53.9v-9.012Z" transform="translate(553.117 -429.227)" fill="#dd9a36"/>
                  <path id="Trazado_571194" data-name="Trazado 571194" d="M-459.74,680.74l-93.377-53.906,296.268-171.219,93.377,53.906Z" transform="translate(553.117 -455.615)" fill="#ffe25b"/>
                </g>
                <g id="Grupo_842286" data-name="Grupo 842286" transform="translate(0 176.414)">
                  <g id="Grupo_842283" data-name="Grupo 842283" transform="translate(0 9.009)">
                    <path id="Trazado_571195" data-name="Trazado 571195" d="M-545.574,611.629v47.529l-9,5.2V616.827Z" transform="translate(561.862 -607.41)" fill="#ffc536"/>
                    <path id="Trazado_571196" data-name="Trazado 571196" d="M-553.448,616.675V664.2l-7.29-4.21V612.464Z" transform="translate(560.738 -607.258)" fill="#dd9a36"/>
                    <path id="Trazado_571197" data-name="Trazado 571197" d="M-553.437,617.482l-7.3-4.213,9-5.208,7.3,4.213Z" transform="translate(560.738 -608.06)" fill="#ffe25b"/>
                  </g>
                  <g id="Grupo_842284" data-name="Grupo 842284" transform="translate(86.063 58.711)">
                    <path id="Trazado_571198" data-name="Trazado 571198" d="M-472.775,653.671V701.2l-9,5.2V658.869Z" transform="translate(489.063 -649.452)" fill="#ffc536"/>
                    <path id="Trazado_571199" data-name="Trazado 571199" d="M-480.649,658.717v47.528l-7.29-4.21V654.506Z" transform="translate(487.94 -649.3)" fill="#dd9a36"/>
                    <path id="Trazado_571200" data-name="Trazado 571200" d="M-480.638,659.524l-7.3-4.213,9-5.209,7.3,4.213Z" transform="translate(487.94 -650.102)" fill="#ffe25b"/>
                  </g>
                  <g id="Grupo_842285" data-name="Grupo 842285">
                    <path id="Trazado_571201" data-name="Trazado 571201" d="M-472.765,646.043v9.012l-9,5.2V651.24Z" transform="translate(575.128 -592.13)" fill="#ffc536"/>
                    <path id="Trazado_571202" data-name="Trazado 571202" d="M-467.372,658.747v9.011l-93.366-53.9v-9.012Z" transform="translate(560.738 -599.637)" fill="#dd9a36"/>
                    <path id="Trazado_571203" data-name="Trazado 571203" d="M-467.361,659.554l-93.377-53.905,9-5.209,93.377,53.905Z" transform="translate(560.738 -600.44)" fill="#ffe25b"/>
                  </g>
                </g>
              </g>
            </g>
            <g id="Grupo_842292" data-name="Grupo 842292" transform="translate(708.68 4837.816)">
              <g id="Grupo_842289" data-name="Grupo 842289" transform="translate(0 9.009)">
                <path id="Trazado_571204" data-name="Trazado 571204" d="M-287.357,329.533V477.589l-9,5.2V334.73Z" transform="translate(303.646 -325.313)" fill="#ffc536"/>
                <path id="Trazado_571205" data-name="Trazado 571205" d="M-295.231,334.578V482.634l-7.291-4.21V330.368Z" transform="translate(302.522 -325.161)" fill="#dd9a36"/>
                <path id="Trazado_571206" data-name="Trazado 571206" d="M-295.22,335.386l-7.3-4.213,9-5.209,7.3,4.213Z" transform="translate(302.522 -325.964)" fill="#ffe25b"/>
              </g>
              <g id="Grupo_842290" data-name="Grupo 842290" transform="translate(86.064 58.712)">
                <path id="Trazado_571207" data-name="Trazado 571207" d="M-214.558,371.575V519.631l-9,5.2V376.772Z" transform="translate(230.846 -367.356)" fill="#ffc536"/>
                <path id="Trazado_571208" data-name="Trazado 571208" d="M-222.433,376.62V524.676l-7.29-4.21V372.409Z" transform="translate(229.723 -367.203)" fill="#dd9a36"/>
                <path id="Trazado_571209" data-name="Trazado 571209" d="M-222.421,377.427l-7.3-4.213,9-5.209,7.3,4.212Z" transform="translate(229.723 -368.006)" fill="#ffe25b"/>
              </g>
              <g id="Grupo_842291" data-name="Grupo 842291">
                <path id="Trazado_571210" data-name="Trazado 571210" d="M-214.548,363.946v9.012l-9,5.2v-9.012Z" transform="translate(316.912 -310.034)" fill="#ffc536"/>
                <path id="Trazado_571211" data-name="Trazado 571211" d="M-209.156,376.65v9.012l-93.366-53.9v-9.012Z" transform="translate(302.522 -317.541)" fill="#dd9a36"/>
                <path id="Trazado_571212" data-name="Trazado 571212" d="M-209.144,377.457l-93.377-53.905,9-5.209,93.377,53.906Z" transform="translate(302.522 -318.343)" fill="#ffe25b"/>
              </g>
            </g>
            <g id="Grupo_842294" data-name="Grupo 842294" transform="translate(648.654 4977.932)">
              <g id="Grupo_842293" data-name="Grupo 842293">
                <path id="Trazado_571213" data-name="Trazado 571213" d="M-296.7,536.556l-56.6-32.679,56.6-32.679,18.794,65.357Z" transform="translate(353.297 -430.607)" fill="#becdd4" style="mix-blend-mode: multiply;isolation: isolate"/>
                <path id="Trazado_571214" data-name="Trazado 571214" d="M-289.522,537.776l56.6-32.679V464.506l-56.6,32.679Z" transform="translate(364.917 -431.827)" fill="#c99a6b"/>
                <path id="Trazado_571215" data-name="Trazado 571215" d="M-280.8,537.776-337.4,505.1V464.506l56.6,32.679Z" transform="translate(356.193 -431.827)" fill="#ae835b"/>
                <path id="Trazado_571216" data-name="Trazado 571216" d="M-280.8,502.221l-56.6-32.679,56.6-32.679,56.6,32.679Z" transform="translate(356.193 -436.863)" fill="#e8b687"/>
                <path id="Trazado_571217" data-name="Trazado 571217" d="M-308.685,506.742l-9.094-5.25V475.833l9.094,5.251Z" transform="translate(359.768 -429.763)" fill="#9c754e"/>
                <path id="Trazado_571218" data-name="Trazado 571218" d="M-308.685,486.12l56.6-32.679-9.094-5.251-56.6,32.679Z" transform="translate(359.768 -434.8)" fill="#54493e" style="mix-blend-mode: screen;isolation: isolate"/>
                <path id="Trazado_571219" data-name="Trazado 571219" d="M-337.4,464.506l56.6,32.679-30.542-16.339Z" transform="translate(356.193 -431.827)" fill="#87623f"/>
              </g>
              <path id="Trazado_571220" data-name="Trazado 571220" d="M-313.548,483.313l56.6-32.679-.626-.361-56.6,32.679Z" transform="translate(360.425 -434.42)" fill="#d1a986"/>
            </g>
            <g id="Grupo_842296" data-name="Grupo 842296" transform="translate(575.017 5020.446)">
              <g id="Grupo_842295" data-name="Grupo 842295">
                <path id="Trazado_571221" data-name="Trazado 571221" d="M-358.983,572.518l-56.6-32.679,56.6-32.679,18.794,65.357Z" transform="translate(415.584 -466.569)" fill="#becdd4" style="mix-blend-mode: multiply;isolation: isolate"/>
                <path id="Trazado_571222" data-name="Trazado 571222" d="M-351.81,573.738l56.6-32.679V500.467l-56.6,32.679Z" transform="translate(427.204 -467.789)" fill="#c99a6b"/>
                <path id="Trazado_571223" data-name="Trazado 571223" d="M-343.086,573.738l-56.6-32.679V500.467l56.6,32.679Z" transform="translate(418.481 -467.789)" fill="#ae835b"/>
                <path id="Trazado_571224" data-name="Trazado 571224" d="M-343.086,538.183l-56.6-32.679,56.6-32.679,56.6,32.679Z" transform="translate(418.481 -472.825)" fill="#e8b687"/>
                <path id="Trazado_571225" data-name="Trazado 571225" d="M-370.973,542.7l-9.094-5.251V511.795l9.094,5.251Z" transform="translate(422.056 -465.725)" fill="#9c754e"/>
                <path id="Trazado_571226" data-name="Trazado 571226" d="M-370.973,522.082l56.6-32.679-9.094-5.251-56.6,32.679Z" transform="translate(422.056 -470.761)" fill="#54493e" style="mix-blend-mode: screen;isolation: isolate"/>
                <path id="Trazado_571227" data-name="Trazado 571227" d="M-399.687,500.467l56.6,32.679-30.542-16.339Z" transform="translate(418.481 -467.789)" fill="#87623f"/>
              </g>
              <path id="Trazado_571228" data-name="Trazado 571228" d="M-375.836,519.274l56.6-32.679-.626-.361-56.6,32.679Z" transform="translate(422.713 -470.382)" fill="#d1a986"/>
            </g>
            <g id="Grupo_842298" data-name="Grupo 842298" transform="translate(501.38 5062.961)">
              <g id="Grupo_842297" data-name="Grupo 842297">
                <path id="Trazado_571229" data-name="Trazado 571229" d="M-421.271,608.481l-56.6-32.679,56.6-32.679,18.794,65.358Z" transform="translate(477.872 -502.532)" fill="#becdd4" style="mix-blend-mode: multiply;isolation: isolate"/>
                <path id="Trazado_571230" data-name="Trazado 571230" d="M-414.1,609.7l56.6-32.679V536.43l-56.6,32.679Z" transform="translate(489.492 -503.751)" fill="#c99a6b"/>
                <path id="Trazado_571231" data-name="Trazado 571231" d="M-405.374,609.7l-56.6-32.679V536.43l56.6,32.679Z" transform="translate(480.769 -503.751)" fill="#ae835b"/>
                <path id="Trazado_571232" data-name="Trazado 571232" d="M-405.374,574.145l-56.6-32.679,56.6-32.679,56.6,32.679Z" transform="translate(480.769 -508.788)" fill="#e8b687"/>
                <path id="Trazado_571233" data-name="Trazado 571233" d="M-433.261,578.666l-9.095-5.251V547.757l9.095,5.251Z" transform="translate(484.344 -501.687)" fill="#9c754e"/>
                <path id="Trazado_571234" data-name="Trazado 571234" d="M-433.261,558.044l56.6-32.679-9.094-5.251-56.6,32.679Z" transform="translate(484.344 -506.724)" fill="#54493e" style="mix-blend-mode: screen;isolation: isolate"/>
                <path id="Trazado_571235" data-name="Trazado 571235" d="M-461.975,536.43l56.6,32.679-30.542-16.339Z" transform="translate(480.769 -503.751)" fill="#87623f"/>
              </g>
              <path id="Trazado_571236" data-name="Trazado 571236" d="M-438.124,555.237l56.6-32.679-.626-.361-56.6,32.679Z" transform="translate(485.001 -506.344)" fill="#d1a986"/>
            </g>
            <g id="Grupo_842300" data-name="Grupo 842300" transform="translate(427.742 5105.475)">
              <g id="Grupo_842299" data-name="Grupo 842299">
                <path id="Trazado_571237" data-name="Trazado 571237" d="M-483.559,644.442l-56.6-32.679,56.6-32.679,18.794,65.357Z" transform="translate(540.16 -538.493)" fill="#becdd4" style="mix-blend-mode: multiply;isolation: isolate"/>
                <path id="Trazado_571238" data-name="Trazado 571238" d="M-476.386,645.662l56.6-32.679V572.392l-56.6,32.679Z" transform="translate(551.781 -539.713)" fill="#c99a6b"/>
                <path id="Trazado_571239" data-name="Trazado 571239" d="M-467.662,645.662l-56.6-32.679V572.392l56.6,32.679Z" transform="translate(543.057 -539.713)" fill="#ae835b"/>
                <path id="Trazado_571240" data-name="Trazado 571240" d="M-467.662,610.107l-56.6-32.679,56.6-32.679,56.6,32.679Z" transform="translate(543.057 -544.749)" fill="#e8b687"/>
                <path id="Trazado_571241" data-name="Trazado 571241" d="M-495.549,614.628l-9.094-5.251V583.719l9.094,5.251Z" transform="translate(546.632 -537.649)" fill="#9c754e"/>
                <path id="Trazado_571242" data-name="Trazado 571242" d="M-495.549,594.006l56.6-32.679-9.094-5.251-56.6,32.679Z" transform="translate(546.632 -542.685)" fill="#54493e" style="mix-blend-mode: screen;isolation: isolate"/>
                <path id="Trazado_571243" data-name="Trazado 571243" d="M-524.263,572.392l56.6,32.679L-498.2,588.731Z" transform="translate(543.057 -539.713)" fill="#87623f"/>
              </g>
              <path id="Trazado_571244" data-name="Trazado 571244" d="M-500.412,591.2l56.6-32.679-.626-.361-56.6,32.679Z" transform="translate(547.289 -542.306)" fill="#d1a986"/>
            </g>
            <g id="Grupo_842302" data-name="Grupo 842302" transform="translate(667.448 4935.242)">
              <g id="Grupo_842301" data-name="Grupo 842301">
                <path id="Trazado_571245" data-name="Trazado 571245" d="M-289.522,501.665l56.6-32.679V428.4l-56.6,32.679Z" transform="translate(346.123 -395.717)" fill="#c99a6b"/>
                <path id="Trazado_571246" data-name="Trazado 571246" d="M-280.8,501.665l-56.6-32.679V428.4l56.6,32.679Z" transform="translate(337.399 -395.717)" fill="#ae835b"/>
                <path id="Trazado_571247" data-name="Trazado 571247" d="M-280.8,466.111l-56.6-32.679,56.6-32.679,56.6,32.679Z" transform="translate(337.399 -400.753)" fill="#e8b687"/>
                <path id="Trazado_571248" data-name="Trazado 571248" d="M-308.685,470.632l-9.094-5.251V439.723l9.094,5.25Z" transform="translate(340.974 -393.653)" fill="#9c754e"/>
                <path id="Trazado_571249" data-name="Trazado 571249" d="M-308.685,450.01l56.6-32.679-9.094-5.251-56.6,32.679Z" transform="translate(340.974 -398.689)" fill="#54493e" style="mix-blend-mode: screen;isolation: isolate"/>
                <path id="Trazado_571250" data-name="Trazado 571250" d="M-337.4,428.4l56.6,32.679-30.542-16.34Z" transform="translate(337.399 -395.717)" fill="#87623f"/>
              </g>
              <path id="Trazado_571251" data-name="Trazado 571251" d="M-313.548,447.2l56.6-32.679-.626-.361-56.6,32.679Z" transform="translate(341.631 -398.31)" fill="#d1a986"/>
            </g>
            <g id="Grupo_842304" data-name="Grupo 842304" transform="translate(593.811 4977.756)">
              <g id="Grupo_842303" data-name="Grupo 842303">
                <path id="Trazado_571252" data-name="Trazado 571252" d="M-351.81,537.628l56.6-32.679V464.357l-56.6,32.679Z" transform="translate(408.411 -431.679)" fill="#c99a6b"/>
                <path id="Trazado_571253" data-name="Trazado 571253" d="M-343.086,537.628l-56.6-32.679V464.357l56.6,32.679Z" transform="translate(399.687 -431.679)" fill="#ae835b"/>
                <path id="Trazado_571254" data-name="Trazado 571254" d="M-343.086,502.072l-56.6-32.679,56.6-32.679,56.6,32.679Z" transform="translate(399.687 -436.715)" fill="#e8b687"/>
                <path id="Trazado_571255" data-name="Trazado 571255" d="M-370.973,506.593l-9.094-5.251V475.685l9.094,5.251Z" transform="translate(403.262 -429.615)" fill="#9c754e"/>
                <path id="Trazado_571256" data-name="Trazado 571256" d="M-370.973,485.972l56.6-32.679-9.094-5.251-56.6,32.679Z" transform="translate(403.262 -434.651)" fill="#54493e" style="mix-blend-mode: screen;isolation: isolate"/>
                <path id="Trazado_571257" data-name="Trazado 571257" d="M-399.687,464.357l56.6,32.679-30.542-16.34Z" transform="translate(399.687 -431.679)" fill="#87623f"/>
              </g>
              <path id="Trazado_571258" data-name="Trazado 571258" d="M-375.836,483.164l56.6-32.679-.626-.361-56.6,32.679Z" transform="translate(403.919 -434.272)" fill="#d1a986"/>
            </g>
            <g id="Grupo_842306" data-name="Grupo 842306" transform="translate(520.174 5020.271)">
              <g id="Grupo_842305" data-name="Grupo 842305">
                <path id="Trazado_571259" data-name="Trazado 571259" d="M-414.1,573.589l56.6-32.679V500.319L-414.1,533Z" transform="translate(470.699 -467.64)" fill="#c99a6b"/>
                <path id="Trazado_571260" data-name="Trazado 571260" d="M-405.374,573.589l-56.6-32.679V500.319l56.6,32.679Z" transform="translate(461.975 -467.64)" fill="#ae835b"/>
                <path id="Trazado_571261" data-name="Trazado 571261" d="M-405.374,538.034l-56.6-32.679,56.6-32.679,56.6,32.679Z" transform="translate(461.975 -472.677)" fill="#e8b687"/>
                <path id="Trazado_571262" data-name="Trazado 571262" d="M-433.261,542.556l-9.095-5.251V511.647l9.095,5.251Z" transform="translate(465.55 -465.577)" fill="#9c754e"/>
                <path id="Trazado_571263" data-name="Trazado 571263" d="M-433.261,521.934l56.6-32.679L-385.754,484l-56.6,32.679Z" transform="translate(465.55 -470.613)" fill="#54493e" style="mix-blend-mode: screen;isolation: isolate"/>
                <path id="Trazado_571264" data-name="Trazado 571264" d="M-461.975,500.319l56.6,32.679-30.542-16.339Z" transform="translate(461.975 -467.64)" fill="#87623f"/>
              </g>
              <path id="Trazado_571265" data-name="Trazado 571265" d="M-438.124,519.126l56.6-32.679-.626-.361-56.6,32.679Z" transform="translate(466.207 -470.234)" fill="#d1a986"/>
            </g>
            <g id="Grupo_842308" data-name="Grupo 842308" transform="translate(446.536 5062.785)">
              <g id="Grupo_842307" data-name="Grupo 842307">
                <path id="Trazado_571266" data-name="Trazado 571266" d="M-476.386,609.551l56.6-32.679V536.281l-56.6,32.679Z" transform="translate(532.987 -503.603)" fill="#c99a6b"/>
                <path id="Trazado_571267" data-name="Trazado 571267" d="M-467.662,609.551l-56.6-32.679V536.281l56.6,32.679Z" transform="translate(524.263 -503.603)" fill="#ae835b"/>
                <path id="Trazado_571268" data-name="Trazado 571268" d="M-467.662,574l-56.6-32.679,56.6-32.679,56.6,32.679Z" transform="translate(524.263 -508.639)" fill="#e8b687"/>
                <path id="Trazado_571269" data-name="Trazado 571269" d="M-495.549,578.517l-9.094-5.251V547.609l9.094,5.25Z" transform="translate(527.838 -501.539)" fill="#9c754e"/>
                <path id="Trazado_571270" data-name="Trazado 571270" d="M-495.549,557.9l56.6-32.679-9.094-5.25-56.6,32.679Z" transform="translate(527.838 -506.575)" fill="#54493e" style="mix-blend-mode: screen;isolation: isolate"/>
                <path id="Trazado_571271" data-name="Trazado 571271" d="M-524.263,536.281l56.6,32.679L-498.2,552.62Z" transform="translate(524.263 -503.603)" fill="#87623f"/>
              </g>
              <path id="Trazado_571272" data-name="Trazado 571272" d="M-500.412,555.088l56.6-32.679-.626-.361-56.6,32.679Z" transform="translate(528.495 -506.196)" fill="#d1a986"/>
            </g>
            <g id="Grupo_842314" data-name="Grupo 842314" transform="translate(403.415 4843.018)">
              <g id="Grupo_842309" data-name="Grupo 842309" transform="translate(9.01)">
                <path id="Trazado_571273" data-name="Trazado 571273" d="M-177.874,368.346v9.013L-474.141,548.565v-9.011Z" transform="translate(567.507 -314.434)" fill="#ffc536"/>
                <path id="Trazado_571274" data-name="Trazado 571274" d="M-459.751,521.475v9.011l-93.366-53.9v-9.012Z" transform="translate(553.117 -296.355)" fill="#dd9a36"/>
                <path id="Trazado_571275" data-name="Trazado 571275" d="M-459.74,547.868l-93.377-53.905,296.268-171.219,93.377,53.906Z" transform="translate(553.117 -322.743)" fill="#ffe25b"/>
              </g>
              <g id="Grupo_842313" data-name="Grupo 842313" transform="translate(0 171.212)">
                <g id="Grupo_842310" data-name="Grupo 842310" transform="translate(0 9.009)">
                  <path id="Trazado_571276" data-name="Trazado 571276" d="M-545.574,478.758V626.814l-9,5.2V483.955Z" transform="translate(561.862 -474.538)" fill="#ffc536"/>
                  <path id="Trazado_571277" data-name="Trazado 571277" d="M-553.448,483.8V631.859l-7.29-4.21V479.592Z" transform="translate(560.738 -474.386)" fill="#dd9a36"/>
                  <path id="Trazado_571278" data-name="Trazado 571278" d="M-553.437,484.61l-7.3-4.212,9-5.209,7.3,4.213Z" transform="translate(560.738 -475.189)" fill="#ffe25b"/>
                </g>
                <g id="Grupo_842311" data-name="Grupo 842311" transform="translate(86.063 58.711)">
                  <path id="Trazado_571279" data-name="Trazado 571279" d="M-472.775,520.8V668.856l-9,5.2V526Z" transform="translate(489.063 -516.58)" fill="#ffc536"/>
                  <path id="Trazado_571280" data-name="Trazado 571280" d="M-480.649,525.845V673.9l-7.29-4.21V521.634Z" transform="translate(487.94 -516.428)" fill="#dd9a36"/>
                  <path id="Trazado_571281" data-name="Trazado 571281" d="M-480.638,526.652l-7.3-4.213,9-5.209,7.3,4.213Z" transform="translate(487.94 -517.23)" fill="#ffe25b"/>
                </g>
                <g id="Grupo_842312" data-name="Grupo 842312">
                  <path id="Trazado_571282" data-name="Trazado 571282" d="M-472.765,513.171v9.012l-9,5.2v-9.011Z" transform="translate(575.128 -459.259)" fill="#ffc536"/>
                  <path id="Trazado_571283" data-name="Trazado 571283" d="M-467.372,525.875v9.011l-93.366-53.9v-9.012Z" transform="translate(560.738 -466.765)" fill="#dd9a36"/>
                  <path id="Trazado_571284" data-name="Trazado 571284" d="M-467.361,526.682l-93.377-53.905,9-5.209,93.377,53.905Z" transform="translate(560.738 -467.568)" fill="#ffe25b"/>
                </g>
              </g>
            </g>
            <g id="Grupo_842316" data-name="Grupo 842316" transform="translate(648.654 4817.672)">
              <g id="Grupo_842315" data-name="Grupo 842315">
                <path id="Trazado_571285" data-name="Trazado 571285" d="M-296.7,401l-56.6-32.679,56.6-32.679L-277.9,401Z" transform="translate(353.297 -295.047)" fill="#becdd4" style="mix-blend-mode: multiply;isolation: isolate"/>
                <path id="Trazado_571286" data-name="Trazado 571286" d="M-289.522,402.216l56.6-32.679V328.946l-56.6,32.679Z" transform="translate(364.917 -296.267)" fill="#c99a6b"/>
                <path id="Trazado_571287" data-name="Trazado 571287" d="M-280.8,402.216l-56.6-32.679V328.946l56.6,32.679Z" transform="translate(356.193 -296.267)" fill="#ae835b"/>
                <path id="Trazado_571288" data-name="Trazado 571288" d="M-280.8,366.661l-56.6-32.679,56.6-32.679,56.6,32.679Z" transform="translate(356.193 -301.304)" fill="#e8b687"/>
                <path id="Trazado_571289" data-name="Trazado 571289" d="M-308.685,371.182l-9.094-5.251V340.273l9.094,5.251Z" transform="translate(359.768 -294.203)" fill="#9c754e"/>
                <path id="Trazado_571290" data-name="Trazado 571290" d="M-308.685,350.56l56.6-32.679-9.094-5.251-56.6,32.679Z" transform="translate(359.768 -299.24)" fill="#54493e" style="mix-blend-mode: screen;isolation: isolate"/>
                <path id="Trazado_571291" data-name="Trazado 571291" d="M-337.4,328.946l56.6,32.679-30.542-16.339Z" transform="translate(356.193 -296.267)" fill="#87623f"/>
              </g>
              <path id="Trazado_571292" data-name="Trazado 571292" d="M-313.548,347.753l56.6-32.679-.626-.361-56.6,32.679Z" transform="translate(360.425 -298.86)" fill="#d1a986"/>
            </g>
            <g id="Grupo_842318" data-name="Grupo 842318" transform="translate(575.017 4860.187)">
              <g id="Grupo_842317" data-name="Grupo 842317">
                <path id="Trazado_571293" data-name="Trazado 571293" d="M-358.983,436.958l-56.6-32.679,56.6-32.679,18.794,65.357Z" transform="translate(415.584 -331.01)" fill="#becdd4" style="mix-blend-mode: multiply;isolation: isolate"/>
                <path id="Trazado_571294" data-name="Trazado 571294" d="M-351.81,438.178l56.6-32.679V364.908l-56.6,32.679Z" transform="translate(427.204 -332.229)" fill="#c99a6b"/>
                <path id="Trazado_571295" data-name="Trazado 571295" d="M-343.086,438.178l-56.6-32.679V364.908l56.6,32.679Z" transform="translate(418.481 -332.229)" fill="#ae835b"/>
                <path id="Trazado_571296" data-name="Trazado 571296" d="M-343.086,402.623l-56.6-32.679,56.6-32.679,56.6,32.679Z" transform="translate(418.481 -337.266)" fill="#e8b687"/>
                <path id="Trazado_571297" data-name="Trazado 571297" d="M-370.973,407.144l-9.094-5.251V376.235l9.094,5.25Z" transform="translate(422.056 -330.165)" fill="#9c754e"/>
                <path id="Trazado_571298" data-name="Trazado 571298" d="M-370.973,386.522l56.6-32.679-9.094-5.251-56.6,32.679Z" transform="translate(422.056 -335.202)" fill="#54493e" style="mix-blend-mode: screen;isolation: isolate"/>
                <path id="Trazado_571299" data-name="Trazado 571299" d="M-399.687,364.908l56.6,32.679-30.542-16.34Z" transform="translate(418.481 -332.229)" fill="#87623f"/>
              </g>
              <path id="Trazado_571300" data-name="Trazado 571300" d="M-375.836,383.715l56.6-32.679-.626-.361-56.6,32.679Z" transform="translate(422.713 -334.823)" fill="#d1a986"/>
            </g>
            <g id="Grupo_842320" data-name="Grupo 842320" transform="translate(427.742 4945.215)">
              <g id="Grupo_842319" data-name="Grupo 842319">
                <path id="Trazado_571301" data-name="Trazado 571301" d="M-483.559,508.882l-56.6-32.679,56.6-32.679,18.794,65.357Z" transform="translate(540.16 -402.933)" fill="#becdd4" style="mix-blend-mode: multiply;isolation: isolate"/>
                <path id="Trazado_571302" data-name="Trazado 571302" d="M-476.386,510.1l56.6-32.679V436.832l-56.6,32.679Z" transform="translate(551.781 -404.153)" fill="#c99a6b"/>
                <path id="Trazado_571303" data-name="Trazado 571303" d="M-467.662,510.1l-56.6-32.679V436.832l56.6,32.679Z" transform="translate(543.057 -404.153)" fill="#ae835b"/>
                <path id="Trazado_571304" data-name="Trazado 571304" d="M-467.662,474.547l-56.6-32.679,56.6-32.679,56.6,32.679Z" transform="translate(543.057 -409.189)" fill="#e8b687"/>
                <path id="Trazado_571305" data-name="Trazado 571305" d="M-495.549,479.068l-9.094-5.251V448.159l9.094,5.251Z" transform="translate(546.632 -402.089)" fill="#9c754e"/>
                <path id="Trazado_571306" data-name="Trazado 571306" d="M-495.549,458.446l56.6-32.679-9.094-5.251-56.6,32.679Z" transform="translate(546.632 -407.126)" fill="#54493e" style="mix-blend-mode: screen;isolation: isolate"/>
                <path id="Trazado_571307" data-name="Trazado 571307" d="M-524.263,436.832l56.6,32.679L-498.2,453.171Z" transform="translate(543.057 -404.153)" fill="#87623f"/>
              </g>
              <path id="Trazado_571308" data-name="Trazado 571308" d="M-500.412,455.638l56.6-32.679-.626-.361-56.6,32.679Z" transform="translate(547.289 -406.746)" fill="#d1a986"/>
            </g>
            <g id="Grupo_842322" data-name="Grupo 842322" transform="translate(667.448 4774.982)">
              <g id="Grupo_842321" data-name="Grupo 842321">
                <path id="Trazado_571309" data-name="Trazado 571309" d="M-289.522,366.106l56.6-32.679V292.835l-56.6,32.679Z" transform="translate(346.123 -260.157)" fill="#c99a6b"/>
                <path id="Trazado_571310" data-name="Trazado 571310" d="M-280.8,366.106l-56.6-32.679V292.835l56.6,32.679Z" transform="translate(337.399 -260.157)" fill="#ae835b"/>
                <path id="Trazado_571311" data-name="Trazado 571311" d="M-280.8,330.551l-56.6-32.679,56.6-32.679,56.6,32.679Z" transform="translate(337.399 -265.193)" fill="#e8b687"/>
                <path id="Trazado_571312" data-name="Trazado 571312" d="M-308.685,335.072l-9.094-5.251V304.163l9.094,5.251Z" transform="translate(340.974 -258.093)" fill="#9c754e"/>
                <path id="Trazado_571313" data-name="Trazado 571313" d="M-308.685,314.45l56.6-32.679-9.094-5.251-56.6,32.679Z" transform="translate(340.974 -263.129)" fill="#54493e" style="mix-blend-mode: screen;isolation: isolate"/>
                <path id="Trazado_571314" data-name="Trazado 571314" d="M-337.4,292.835l56.6,32.679-30.542-16.34Z" transform="translate(337.399 -260.157)" fill="#87623f"/>
              </g>
              <path id="Trazado_571315" data-name="Trazado 571315" d="M-313.548,311.642l56.6-32.679-.626-.361-56.6,32.679Z" transform="translate(341.631 -262.75)" fill="#d1a986"/>
            </g>
            <g id="Grupo_842324" data-name="Grupo 842324" transform="translate(593.811 4817.497)">
              <g id="Grupo_842323" data-name="Grupo 842323">
                <path id="Trazado_571316" data-name="Trazado 571316" d="M-351.81,402.068l56.6-32.679V328.8l-56.6,32.679Z" transform="translate(408.411 -296.119)" fill="#c99a6b"/>
                <path id="Trazado_571317" data-name="Trazado 571317" d="M-343.086,402.068l-56.6-32.679V328.8l56.6,32.679Z" transform="translate(399.687 -296.119)" fill="#ae835b"/>
                <path id="Trazado_571318" data-name="Trazado 571318" d="M-343.086,366.512l-56.6-32.679,56.6-32.679,56.6,32.679Z" transform="translate(399.687 -301.155)" fill="#e8b687"/>
                <path id="Trazado_571319" data-name="Trazado 571319" d="M-370.973,371.034l-9.094-5.251V340.125l9.094,5.251Z" transform="translate(403.262 -294.055)" fill="#9c754e"/>
                <path id="Trazado_571320" data-name="Trazado 571320" d="M-370.973,350.412l56.6-32.679-9.094-5.251-56.6,32.679Z" transform="translate(403.262 -299.091)" fill="#54493e" style="mix-blend-mode: screen;isolation: isolate"/>
                <path id="Trazado_571321" data-name="Trazado 571321" d="M-399.687,328.8l56.6,32.679-30.542-16.339Z" transform="translate(399.687 -296.119)" fill="#87623f"/>
              </g>
              <path id="Trazado_571322" data-name="Trazado 571322" d="M-375.836,347.6l56.6-32.679-.626-.361-56.6,32.679Z" transform="translate(403.919 -298.712)" fill="#d1a986"/>
            </g>
            <g id="Grupo_842326" data-name="Grupo 842326" transform="translate(446.536 4902.526)">
              <g id="Grupo_842325" data-name="Grupo 842325">
                <path id="Trazado_571323" data-name="Trazado 571323" d="M-476.386,473.992l56.6-32.679V400.721l-56.6,32.679Z" transform="translate(532.987 -368.043)" fill="#c99a6b"/>
                <path id="Trazado_571324" data-name="Trazado 571324" d="M-467.662,473.992l-56.6-32.679V400.721l56.6,32.679Z" transform="translate(524.263 -368.043)" fill="#ae835b"/>
                <path id="Trazado_571325" data-name="Trazado 571325" d="M-467.662,438.437l-56.6-32.679,56.6-32.679,56.6,32.679Z" transform="translate(524.263 -373.079)" fill="#e8b687"/>
                <path id="Trazado_571326" data-name="Trazado 571326" d="M-495.549,442.957l-9.094-5.251V412.049l9.094,5.251Z" transform="translate(527.838 -365.979)" fill="#9c754e"/>
                <path id="Trazado_571327" data-name="Trazado 571327" d="M-495.549,422.336l56.6-32.679-9.094-5.251-56.6,32.679Z" transform="translate(527.838 -371.015)" fill="#54493e" style="mix-blend-mode: screen;isolation: isolate"/>
                <path id="Trazado_571328" data-name="Trazado 571328" d="M-524.263,400.721l56.6,32.679L-498.2,417.06Z" transform="translate(524.263 -368.043)" fill="#87623f"/>
              </g>
              <path id="Trazado_571329" data-name="Trazado 571329" d="M-500.412,419.528l56.6-32.679-.626-.361-56.6,32.679Z" transform="translate(528.495 -370.636)" fill="#d1a986"/>
            </g>
            <g id="Grupo_842332" data-name="Grupo 842332" transform="translate(403.415 4685.937)">
              <g id="Grupo_842327" data-name="Grupo 842327" transform="translate(9.01)">
                <path id="Trazado_571330" data-name="Trazado 571330" d="M-177.874,235.475v9.012L-474.141,415.693v-9.011Z" transform="translate(567.507 -181.563)" fill="#ffc536"/>
                <path id="Trazado_571331" data-name="Trazado 571331" d="M-459.751,388.6v9.011l-93.366-53.9V334.7Z" transform="translate(553.117 -163.484)" fill="#dd9a36"/>
                <path id="Trazado_571332" data-name="Trazado 571332" d="M-459.74,415l-93.377-53.905,296.268-171.219,93.377,53.905Z" transform="translate(553.117 -189.872)" fill="#ffe25b"/>
              </g>
              <g id="Grupo_842331" data-name="Grupo 842331" transform="translate(0 171.212)">
                <g id="Grupo_842328" data-name="Grupo 842328" transform="translate(0 9.009)">
                  <path id="Trazado_571333" data-name="Trazado 571333" d="M-545.574,345.886V493.942l-9,5.2V351.083Z" transform="translate(561.862 -341.666)" fill="#ffc536"/>
                  <path id="Trazado_571334" data-name="Trazado 571334" d="M-553.448,350.931V498.987l-7.29-4.21V346.721Z" transform="translate(560.738 -341.514)" fill="#dd9a36"/>
                  <path id="Trazado_571335" data-name="Trazado 571335" d="M-553.437,351.738l-7.3-4.212,9-5.209,7.3,4.213Z" transform="translate(560.738 -342.317)" fill="#ffe25b"/>
                </g>
                <g id="Grupo_842329" data-name="Grupo 842329" transform="translate(86.063 58.712)">
                  <path id="Trazado_571336" data-name="Trazado 571336" d="M-472.775,387.928V535.984l-9,5.2V393.125Z" transform="translate(489.063 -383.709)" fill="#ffc536"/>
                  <path id="Trazado_571337" data-name="Trazado 571337" d="M-480.649,392.973V541.029l-7.29-4.21V388.762Z" transform="translate(487.94 -383.556)" fill="#dd9a36"/>
                  <path id="Trazado_571338" data-name="Trazado 571338" d="M-480.638,393.78l-7.3-4.213,9-5.209,7.3,4.213Z" transform="translate(487.94 -384.359)" fill="#ffe25b"/>
                </g>
                <g id="Grupo_842330" data-name="Grupo 842330">
                  <path id="Trazado_571339" data-name="Trazado 571339" d="M-472.765,380.3v9.012l-9,5.2V385.5Z" transform="translate(575.128 -326.387)" fill="#ffc536"/>
                  <path id="Trazado_571340" data-name="Trazado 571340" d="M-467.372,393v9.012l-93.366-53.9V339.1Z" transform="translate(560.738 -333.894)" fill="#dd9a36"/>
                  <path id="Trazado_571341" data-name="Trazado 571341" d="M-467.361,393.81-560.738,339.9l9-5.209,93.377,53.906Z" transform="translate(560.738 -334.696)" fill="#ffe25b"/>
                </g>
              </g>
            </g>
            <g id="Grupo_842334" data-name="Grupo 842334" transform="translate(648.654 4660.32)">
              <g id="Grupo_842333" data-name="Grupo 842333">
                <path id="Trazado_571342" data-name="Trazado 571342" d="M-296.7,267.9l-56.6-32.679,56.6-32.679L-277.9,267.9Z" transform="translate(353.297 -161.947)" fill="#becdd4" style="mix-blend-mode: multiply;isolation: isolate"/>
                <path id="Trazado_571343" data-name="Trazado 571343" d="M-289.522,269.116l56.6-32.679V195.845l-56.6,32.679Z" transform="translate(364.917 -163.166)" fill="#c99a6b"/>
                <path id="Trazado_571344" data-name="Trazado 571344" d="M-280.8,269.116l-56.6-32.679V195.845l56.6,32.679Z" transform="translate(356.193 -163.166)" fill="#ae835b"/>
                <path id="Trazado_571345" data-name="Trazado 571345" d="M-280.8,233.56l-56.6-32.679,56.6-32.679,56.6,32.679Z" transform="translate(356.193 -168.203)" fill="#e8b687"/>
                <path id="Trazado_571346" data-name="Trazado 571346" d="M-308.685,238.082l-9.094-5.251V207.173l9.094,5.251Z" transform="translate(359.768 -161.103)" fill="#9c754e"/>
                <path id="Trazado_571347" data-name="Trazado 571347" d="M-308.685,217.46l56.6-32.679-9.094-5.251-56.6,32.679Z" transform="translate(359.768 -166.139)" fill="#54493e" style="mix-blend-mode: screen;isolation: isolate"/>
                <path id="Trazado_571348" data-name="Trazado 571348" d="M-337.4,195.845l56.6,32.679-30.542-16.339Z" transform="translate(356.193 -163.166)" fill="#87623f"/>
              </g>
              <path id="Trazado_571349" data-name="Trazado 571349" d="M-313.548,214.652l56.6-32.679-.626-.361-56.6,32.679Z" transform="translate(360.425 -165.76)" fill="#d1a986"/>
            </g>
            <g id="Grupo_842336" data-name="Grupo 842336" transform="translate(575.017 4702.834)">
              <g id="Grupo_842335" data-name="Grupo 842335">
                <path id="Trazado_571350" data-name="Trazado 571350" d="M-358.983,303.858l-56.6-32.679,56.6-32.679,18.794,65.358Z" transform="translate(415.584 -197.909)" fill="#becdd4" style="mix-blend-mode: multiply;isolation: isolate"/>
                <path id="Trazado_571351" data-name="Trazado 571351" d="M-351.81,305.078l56.6-32.679V231.807l-56.6,32.679Z" transform="translate(427.204 -199.129)" fill="#c99a6b"/>
                <path id="Trazado_571352" data-name="Trazado 571352" d="M-343.086,305.078l-56.6-32.679V231.807l56.6,32.679Z" transform="translate(418.481 -199.129)" fill="#ae835b"/>
                <path id="Trazado_571353" data-name="Trazado 571353" d="M-343.086,269.522l-56.6-32.679,56.6-32.679,56.6,32.679Z" transform="translate(418.481 -204.165)" fill="#e8b687"/>
                <path id="Trazado_571354" data-name="Trazado 571354" d="M-370.973,274.043l-9.094-5.251V243.135l9.094,5.251Z" transform="translate(422.056 -197.065)" fill="#9c754e"/>
                <path id="Trazado_571355" data-name="Trazado 571355" d="M-370.973,253.422l56.6-32.679-9.094-5.251-56.6,32.679Z" transform="translate(422.056 -202.101)" fill="#54493e" style="mix-blend-mode: screen;isolation: isolate"/>
                <path id="Trazado_571356" data-name="Trazado 571356" d="M-399.687,231.807l56.6,32.679-30.542-16.34Z" transform="translate(418.481 -199.129)" fill="#87623f"/>
              </g>
              <path id="Trazado_571357" data-name="Trazado 571357" d="M-375.836,250.614l56.6-32.679-.626-.361-56.6,32.679Z" transform="translate(422.713 -201.722)" fill="#d1a986"/>
            </g>
            <g id="Grupo_842338" data-name="Grupo 842338" transform="translate(501.38 4745.349)">
              <g id="Grupo_842337" data-name="Grupo 842337">
                <path id="Trazado_571358" data-name="Trazado 571358" d="M-421.271,339.82l-56.6-32.679,56.6-32.679,18.794,65.357Z" transform="translate(477.872 -233.871)" fill="#becdd4" style="mix-blend-mode: multiply;isolation: isolate"/>
                <path id="Trazado_571359" data-name="Trazado 571359" d="M-414.1,341.04l56.6-32.679V267.769l-56.6,32.679Z" transform="translate(489.492 -235.091)" fill="#c99a6b"/>
                <path id="Trazado_571360" data-name="Trazado 571360" d="M-405.374,341.04l-56.6-32.679V267.769l56.6,32.679Z" transform="translate(480.769 -235.091)" fill="#ae835b"/>
                <path id="Trazado_571361" data-name="Trazado 571361" d="M-405.374,305.484l-56.6-32.679,56.6-32.679,56.6,32.679Z" transform="translate(480.769 -240.127)" fill="#e8b687"/>
                <path id="Trazado_571362" data-name="Trazado 571362" d="M-433.261,310.006l-9.095-5.251V279.1l9.095,5.251Z" transform="translate(484.344 -233.027)" fill="#9c754e"/>
                <path id="Trazado_571363" data-name="Trazado 571363" d="M-433.261,289.384l56.6-32.679-9.094-5.251-56.6,32.679Z" transform="translate(484.344 -238.063)" fill="#54493e" style="mix-blend-mode: screen;isolation: isolate"/>
                <path id="Trazado_571364" data-name="Trazado 571364" d="M-461.975,267.769l56.6,32.679-30.542-16.339Z" transform="translate(480.769 -235.091)" fill="#87623f"/>
              </g>
              <path id="Trazado_571365" data-name="Trazado 571365" d="M-438.124,286.576l56.6-32.679-.626-.361-56.6,32.679Z" transform="translate(485.001 -237.684)" fill="#d1a986"/>
            </g>
            <g id="Grupo_842340" data-name="Grupo 842340" transform="translate(427.742 4787.863)">
              <g id="Grupo_842339" data-name="Grupo 842339">
                <path id="Trazado_571366" data-name="Trazado 571366" d="M-483.559,375.782l-56.6-32.679,56.6-32.679,18.794,65.357Z" transform="translate(540.16 -269.833)" fill="#becdd4" style="mix-blend-mode: multiply;isolation: isolate"/>
                <path id="Trazado_571367" data-name="Trazado 571367" d="M-476.386,377l56.6-32.679V303.731l-56.6,32.679Z" transform="translate(551.781 -271.052)" fill="#c99a6b"/>
                <path id="Trazado_571368" data-name="Trazado 571368" d="M-467.662,377l-56.6-32.679V303.731l56.6,32.679Z" transform="translate(543.057 -271.052)" fill="#ae835b"/>
                <path id="Trazado_571369" data-name="Trazado 571369" d="M-467.662,341.446l-56.6-32.679,56.6-32.679,56.6,32.679Z" transform="translate(543.057 -276.089)" fill="#e8b687"/>
                <path id="Trazado_571370" data-name="Trazado 571370" d="M-495.549,345.968l-9.094-5.251V315.059l9.094,5.251Z" transform="translate(546.632 -268.988)" fill="#9c754e"/>
                <path id="Trazado_571371" data-name="Trazado 571371" d="M-495.549,325.346l56.6-32.679-9.094-5.251-56.6,32.679Z" transform="translate(546.632 -274.025)" fill="#54493e" style="mix-blend-mode: screen;isolation: isolate"/>
                <path id="Trazado_571372" data-name="Trazado 571372" d="M-524.263,303.731l56.6,32.679L-498.2,320.071Z" transform="translate(543.057 -271.052)" fill="#87623f"/>
              </g>
              <path id="Trazado_571373" data-name="Trazado 571373" d="M-500.412,322.538l56.6-32.679-.626-.361-56.6,32.679Z" transform="translate(547.289 -273.646)" fill="#d1a986"/>
            </g>
            <g id="Grupo_842342" data-name="Grupo 842342" transform="translate(593.811 4660.145)">
              <g id="Grupo_842341" data-name="Grupo 842341">
                <path id="Trazado_571374" data-name="Trazado 571374" d="M-351.81,268.967l56.6-32.679V195.7l-56.6,32.679Z" transform="translate(408.411 -163.018)" fill="#c99a6b"/>
                <path id="Trazado_571375" data-name="Trazado 571375" d="M-343.086,268.967l-56.6-32.679V195.7l56.6,32.679Z" transform="translate(399.687 -163.018)" fill="#ae835b"/>
                <path id="Trazado_571376" data-name="Trazado 571376" d="M-343.086,233.412l-56.6-32.679,56.6-32.679,56.6,32.679Z" transform="translate(399.687 -168.055)" fill="#e8b687"/>
                <path id="Trazado_571377" data-name="Trazado 571377" d="M-370.973,237.933l-9.094-5.251V207.024l9.094,5.251Z" transform="translate(403.262 -160.954)" fill="#9c754e"/>
                <path id="Trazado_571378" data-name="Trazado 571378" d="M-370.973,217.311l56.6-32.679-9.094-5.251-56.6,32.679Z" transform="translate(403.262 -165.991)" fill="#54493e" style="mix-blend-mode: screen;isolation: isolate"/>
                <path id="Trazado_571379" data-name="Trazado 571379" d="M-399.687,195.7l56.6,32.679-30.542-16.339Z" transform="translate(399.687 -163.018)" fill="#87623f"/>
              </g>
              <path id="Trazado_571380" data-name="Trazado 571380" d="M-375.836,214.5l56.6-32.679-.626-.361-56.6,32.679Z" transform="translate(403.919 -165.611)" fill="#d1a986"/>
            </g>
            <g id="Trazado_582589" data-name="Trazado 582589" transform="translate(564.697 4784.53)" fill="#fff">
              <path d="M 26 49.5 C 22.82641983032227 49.5 19.74909973144531 48.87900924682617 16.8535099029541 47.65428161621094 C 14.05543994903564 46.47079849243164 11.54199981689453 44.77600860595703 9.382989883422852 42.61700820922852 C 7.223989963531494 40.45800018310547 5.529200077056885 37.94456100463867 4.345719814300537 35.14648818969727 C 3.120990037918091 32.25090026855469 2.5 29.17358016967773 2.5 26 C 2.5 22.82641983032227 3.120990037918091 19.74909973144531 4.345719814300537 16.8535099029541 C 5.529200077056885 14.05543994903564 7.223989963531494 11.54199981689453 9.382989883422852 9.382989883422852 C 11.54199981689453 7.223989963531494 14.05543994903564 5.529200077056885 16.8535099029541 4.345719814300537 C 19.74909973144531 3.120990037918091 22.82641983032227 2.5 26 2.5 C 29.17358016967773 2.5 32.25090026855469 3.120990037918091 35.14648818969727 4.345719814300537 C 37.94456100463867 5.529200077056885 40.45800018310547 7.223989963531494 42.61700820922852 9.382989883422852 C 44.77600860595703 11.54199981689453 46.47079849243164 14.05543994903564 47.65428161621094 16.8535099029541 C 48.87900924682617 19.74909973144531 49.5 22.82641983032227 49.5 26 C 49.5 29.17358016967773 48.87900924682617 32.25090026855469 47.65428161621094 35.14648818969727 C 46.47079849243164 37.94456100463867 44.77600860595703 40.45800018310547 42.61700820922852 42.61700820922852 C 40.45800018310547 44.77600860595703 37.94456100463867 46.47079849243164 35.14648818969727 47.65428161621094 C 32.25090026855469 48.87900924682617 29.17358016967773 49.5 26 49.5 Z" stroke="none"/>
              <path d="M 26 5 C 20.39069938659668 5 15.11713409423828 7.184379577636719 11.1507568359375 11.1507568359375 C 7.184379577636719 15.11713409423828 5 20.39069938659668 5 26 C 5 31.60930061340332 7.184379577636719 36.88286590576172 11.1507568359375 40.8492431640625 C 15.11713409423828 44.81562042236328 20.39069938659668 47 26 47 C 31.60930061340332 47 36.88286590576172 44.81562042236328 40.8492431640625 40.8492431640625 C 44.81562042236328 36.88286590576172 47 31.60930061340332 47 26 C 47 20.39069938659668 44.81562042236328 15.11713409423828 40.8492431640625 11.1507568359375 C 36.88286590576172 7.184379577636719 31.60930061340332 5 26 5 M 26 0 C 40.35939788818359 0 52 11.64059829711914 52 26 C 52 40.35939788818359 40.35939788818359 52 26 52 C 11.64059829711914 52 0 40.35939788818359 0 26 C 0 11.64059829711914 11.64059829711914 0 26 0 Z" stroke="none" fill="#68e3c1"/>
            </g>
            <path id="Trazado_582919" data-name="Trazado 582919" d="M13.373,21h-3.3V10.492l-3.242.947v-2.5l6.24-2.158h.3Z" transform="translate(579.697 4797.53)" fill="#12263f"/>
            <g id="Trazado_582589-2" data-name="Trazado 582589" transform="translate(524 4931.055)" fill="#fff">
              <path d="M 26 49.5 C 22.82641983032227 49.5 19.74909973144531 48.87900924682617 16.8535099029541 47.65428161621094 C 14.05543994903564 46.47079849243164 11.54199981689453 44.77600860595703 9.382989883422852 42.61700820922852 C 7.223989963531494 40.45800018310547 5.529200077056885 37.94456100463867 4.345719814300537 35.14648818969727 C 3.120990037918091 32.25090026855469 2.5 29.17358016967773 2.5 26 C 2.5 22.82641983032227 3.120990037918091 19.74909973144531 4.345719814300537 16.8535099029541 C 5.529200077056885 14.05543994903564 7.223989963531494 11.54199981689453 9.382989883422852 9.382989883422852 C 11.54199981689453 7.223989963531494 14.05543994903564 5.529200077056885 16.8535099029541 4.345719814300537 C 19.74909973144531 3.120990037918091 22.82641983032227 2.5 26 2.5 C 29.17358016967773 2.5 32.25090026855469 3.120990037918091 35.14648818969727 4.345719814300537 C 37.94456100463867 5.529200077056885 40.45800018310547 7.223989963531494 42.61700820922852 9.382989883422852 C 44.77600860595703 11.54199981689453 46.47079849243164 14.05543994903564 47.65428161621094 16.8535099029541 C 48.87900924682617 19.74909973144531 49.5 22.82641983032227 49.5 26 C 49.5 29.17358016967773 48.87900924682617 32.25090026855469 47.65428161621094 35.14648818969727 C 46.47079849243164 37.94456100463867 44.77600860595703 40.45800018310547 42.61700820922852 42.61700820922852 C 40.45800018310547 44.77600860595703 37.94456100463867 46.47079849243164 35.14648818969727 47.65428161621094 C 32.25090026855469 48.87900924682617 29.17358016967773 49.5 26 49.5 Z" stroke="none"/>
              <path d="M 26 5 C 20.39069938659668 5 15.11713409423828 7.184379577636719 11.1507568359375 11.1507568359375 C 7.184379577636719 15.11713409423828 5 20.39069938659668 5 26 C 5 31.60930061340332 7.184379577636719 36.88286590576172 11.1507568359375 40.8492431640625 C 15.11713409423828 44.81562042236328 20.39069938659668 47 26 47 C 31.60930061340332 47 36.88286590576172 44.81562042236328 40.8492431640625 40.8492431640625 C 44.81562042236328 36.88286590576172 47 31.60930061340332 47 26 C 47 20.39069938659668 44.81562042236328 15.11713409423828 40.8492431640625 11.1507568359375 C 36.88286590576172 7.184379577636719 31.60930061340332 5 26 5 M 26 0 C 40.35939788818359 0 52 11.64059829711914 52 26 C 52 40.35939788818359 40.35939788818359 52 26 52 C 11.64059829711914 52 0 40.35939788818359 0 26 C 0 11.64059829711914 11.64059829711914 0 26 0 Z" stroke="none" fill="#68e3c1"/>
            </g>
            <path id="Trazado_582922" data-name="Trazado 582922" d="M16,21H6.078V18.852l4.57-4.8q1.689-1.924,1.689-3.057a2.126,2.126,0,0,0-.4-1.4,1.43,1.43,0,0,0-1.162-.479,1.447,1.447,0,0,0-1.221.64,2.629,2.629,0,0,0-.469,1.6h-3.3a4.67,4.67,0,0,1,.654-2.417A4.588,4.588,0,0,1,8.256,7.2a5.4,5.4,0,0,1,2.6-.625A5.308,5.308,0,0,1,14.4,7.641,3.8,3.8,0,0,1,15.648,10.7a4.439,4.439,0,0,1-.312,1.636A7.173,7.173,0,0,1,14.364,14a24.477,24.477,0,0,1-2.124,2.339L10.4,18.461H16Z" transform="translate(539 4944.055)" fill="#12263f"/>
            <g id="Trazado_582589-3" data-name="Trazado 582589" transform="translate(709.395 4824.014)" fill="#fff">
              <path d="M 26 49.5 C 22.82641983032227 49.5 19.74909973144531 48.87900924682617 16.8535099029541 47.65428161621094 C 14.05543994903564 46.47079849243164 11.54199981689453 44.77600860595703 9.382989883422852 42.61700820922852 C 7.223989963531494 40.45800018310547 5.529200077056885 37.94456100463867 4.345719814300537 35.14648818969727 C 3.120990037918091 32.25090026855469 2.5 29.17358016967773 2.5 26 C 2.5 22.82641983032227 3.120990037918091 19.74909973144531 4.345719814300537 16.8535099029541 C 5.529200077056885 14.05543994903564 7.223989963531494 11.54199981689453 9.382989883422852 9.382989883422852 C 11.54199981689453 7.223989963531494 14.05543994903564 5.529200077056885 16.8535099029541 4.345719814300537 C 19.74909973144531 3.120990037918091 22.82641983032227 2.5 26 2.5 C 29.17358016967773 2.5 32.25090026855469 3.120990037918091 35.14648818969727 4.345719814300537 C 37.94456100463867 5.529200077056885 40.45800018310547 7.223989963531494 42.61700820922852 9.382989883422852 C 44.77600860595703 11.54199981689453 46.47079849243164 14.05543994903564 47.65428161621094 16.8535099029541 C 48.87900924682617 19.74909973144531 49.5 22.82641983032227 49.5 26 C 49.5 29.17358016967773 48.87900924682617 32.25090026855469 47.65428161621094 35.14648818969727 C 46.47079849243164 37.94456100463867 44.77600860595703 40.45800018310547 42.61700820922852 42.61700820922852 C 40.45800018310547 44.77600860595703 37.94456100463867 46.47079849243164 35.14648818969727 47.65428161621094 C 32.25090026855469 48.87900924682617 29.17358016967773 49.5 26 49.5 Z" stroke="none"/>
              <path d="M 26 5 C 20.39069938659668 5 15.11713409423828 7.184379577636719 11.1507568359375 11.1507568359375 C 7.184379577636719 15.11713409423828 5 20.39069938659668 5 26 C 5 31.60930061340332 7.184379577636719 36.88286590576172 11.1507568359375 40.8492431640625 C 15.11713409423828 44.81562042236328 20.39069938659668 47 26 47 C 31.60930061340332 47 36.88286590576172 44.81562042236328 40.8492431640625 40.8492431640625 C 44.81562042236328 36.88286590576172 47 31.60930061340332 47 26 C 47 20.39069938659668 44.81562042236328 15.11713409423828 40.8492431640625 11.1507568359375 C 36.88286590576172 7.184379577636719 31.60930061340332 5 26 5 M 26 0 C 40.35939788818359 0 52 11.64059829711914 52 26 C 52 40.35939788818359 40.35939788818359 52 26 52 C 11.64059829711914 52 0 40.35939788818359 0 26 C 0 11.64059829711914 11.64059829711914 0 26 0 Z" stroke="none" fill="#68e3c1"/>
            </g>
            <path id="Trazado_582920" data-name="Trazado 582920" d="M9.086,12.514h1.553a1.614,1.614,0,0,0,1.846-1.807,1.562,1.562,0,0,0-.439-1.147,1.666,1.666,0,0,0-1.24-.444A1.784,1.784,0,0,0,9.667,9.5a1.162,1.162,0,0,0-.483.947H5.893a3.369,3.369,0,0,1,.625-2A4.127,4.127,0,0,1,8.251,7.069a5.926,5.926,0,0,1,2.437-.493,5.823,5.823,0,0,1,3.73,1.084,3.6,3.6,0,0,1,1.357,2.979,3,3,0,0,1-.562,1.733A4,4,0,0,1,13.578,13.7a3.823,3.823,0,0,1,1.777,1.245A3.279,3.279,0,0,1,16,17.006a3.669,3.669,0,0,1-1.465,3.047A6.08,6.08,0,0,1,10.688,21.2a6.306,6.306,0,0,1-2.593-.532,4.062,4.062,0,0,1-1.812-1.475,3.834,3.834,0,0,1-.615-2.144H8.979a1.482,1.482,0,0,0,.527,1.133,1.862,1.862,0,0,0,1.3.479,1.95,1.95,0,0,0,1.387-.483,1.616,1.616,0,0,0,.518-1.235,1.889,1.889,0,0,0-.537-1.523,2.245,2.245,0,0,0-1.484-.449h-1.6Z" transform="translate(724.395 4837.014)" fill="#12263f"/>
            <g id="Trazado_582589-4" data-name="Trazado 582589" transform="translate(589.312 5113.53)" fill="#fff">
              <path d="M 26 49.5 C 22.82641983032227 49.5 19.74909973144531 48.87900924682617 16.8535099029541 47.65428161621094 C 14.05543994903564 46.47079849243164 11.54199981689453 44.77600860595703 9.382989883422852 42.61700820922852 C 7.223989963531494 40.45800018310547 5.529200077056885 37.94456100463867 4.345719814300537 35.14648818969727 C 3.120990037918091 32.25090026855469 2.5 29.17358016967773 2.5 26 C 2.5 22.82641983032227 3.120990037918091 19.74909973144531 4.345719814300537 16.8535099029541 C 5.529200077056885 14.05543994903564 7.223989963531494 11.54199981689453 9.382989883422852 9.382989883422852 C 11.54199981689453 7.223989963531494 14.05543994903564 5.529200077056885 16.8535099029541 4.345719814300537 C 19.74909973144531 3.120990037918091 22.82641983032227 2.5 26 2.5 C 29.17358016967773 2.5 32.25090026855469 3.120990037918091 35.14648818969727 4.345719814300537 C 37.94456100463867 5.529200077056885 40.45800018310547 7.223989963531494 42.61700820922852 9.382989883422852 C 44.77600860595703 11.54199981689453 46.47079849243164 14.05543994903564 47.65428161621094 16.8535099029541 C 48.87900924682617 19.74909973144531 49.5 22.82641983032227 49.5 26 C 49.5 29.17358016967773 48.87900924682617 32.25090026855469 47.65428161621094 35.14648818969727 C 46.47079849243164 37.94456100463867 44.77600860595703 40.45800018310547 42.61700820922852 42.61700820922852 C 40.45800018310547 44.77600860595703 37.94456100463867 46.47079849243164 35.14648818969727 47.65428161621094 C 32.25090026855469 48.87900924682617 29.17358016967773 49.5 26 49.5 Z" stroke="none"/>
              <path d="M 26 5 C 20.39069938659668 5 15.11713409423828 7.184379577636719 11.1507568359375 11.1507568359375 C 7.184379577636719 15.11713409423828 5 20.39069938659668 5 26 C 5 31.60930061340332 7.184379577636719 36.88286590576172 11.1507568359375 40.8492431640625 C 15.11713409423828 44.81562042236328 20.39069938659668 47 26 47 C 31.60930061340332 47 36.88286590576172 44.81562042236328 40.8492431640625 40.8492431640625 C 44.81562042236328 36.88286590576172 47 31.60930061340332 47 26 C 47 20.39069938659668 44.81562042236328 15.11713409423828 40.8492431640625 11.1507568359375 C 36.88286590576172 7.184379577636719 31.60930061340332 5 26 5 M 26 0 C 40.35939788818359 0 52 11.64059829711914 52 26 C 52 40.35939788818359 40.35939788818359 52 26 52 C 11.64059829711914 52 0 40.35939788818359 0 26 C 0 11.64059829711914 11.64059829711914 0 26 0 Z" stroke="none" fill="#68e3c1"/>
            </g>
            <path id="Trazado_582923" data-name="Trazado 582923" d="M14.77,15.443h1.445v2.539H14.77V21H11.479V17.982H5.98l-.2-2.012,5.693-9.16V6.781H14.77Zm-5.85,0h2.559V11.068l-.205.332Z" transform="translate(604.312 5126.53)" fill="#12263f"/>
            <g id="Trazado_582589-5" data-name="Trazado 582589" transform="translate(638.787 4951.028)" fill="#fff">
              <path d="M 26 49.5 C 22.82641983032227 49.5 19.74909973144531 48.87900924682617 16.8535099029541 47.65428161621094 C 14.05543994903564 46.47079849243164 11.54199981689453 44.77600860595703 9.382989883422852 42.61700820922852 C 7.223989963531494 40.45800018310547 5.529200077056885 37.94456100463867 4.345719814300537 35.14648818969727 C 3.120990037918091 32.25090026855469 2.5 29.17358016967773 2.5 26 C 2.5 22.82641983032227 3.120990037918091 19.74909973144531 4.345719814300537 16.8535099029541 C 5.529200077056885 14.05543994903564 7.223989963531494 11.54199981689453 9.382989883422852 9.382989883422852 C 11.54199981689453 7.223989963531494 14.05543994903564 5.529200077056885 16.8535099029541 4.345719814300537 C 19.74909973144531 3.120990037918091 22.82641983032227 2.5 26 2.5 C 29.17358016967773 2.5 32.25090026855469 3.120990037918091 35.14648818969727 4.345719814300537 C 37.94456100463867 5.529200077056885 40.45800018310547 7.223989963531494 42.61700820922852 9.382989883422852 C 44.77600860595703 11.54199981689453 46.47079849243164 14.05543994903564 47.65428161621094 16.8535099029541 C 48.87900924682617 19.74909973144531 49.5 22.82641983032227 49.5 26 C 49.5 29.17358016967773 48.87900924682617 32.25090026855469 47.65428161621094 35.14648818969727 C 46.47079849243164 37.94456100463867 44.77600860595703 40.45800018310547 42.61700820922852 42.61700820922852 C 40.45800018310547 44.77600860595703 37.94456100463867 46.47079849243164 35.14648818969727 47.65428161621094 C 32.25090026855469 48.87900924682617 29.17358016967773 49.5 26 49.5 Z" stroke="none"/>
              <path d="M 26 5 C 20.39069938659668 5 15.11713409423828 7.184379577636719 11.1507568359375 11.1507568359375 C 7.184379577636719 15.11713409423828 5 20.39069938659668 5 26 C 5 31.60930061340332 7.184379577636719 36.88286590576172 11.1507568359375 40.8492431640625 C 15.11713409423828 44.81562042236328 20.39069938659668 47 26 47 C 31.60930061340332 47 36.88286590576172 44.81562042236328 40.8492431640625 40.8492431640625 C 44.81562042236328 36.88286590576172 47 31.60930061340332 47 26 C 47 20.39069938659668 44.81562042236328 15.11713409423828 40.8492431640625 11.1507568359375 C 36.88286590576172 7.184379577636719 31.60930061340332 5 26 5 M 26 0 C 40.35939788818359 0 52 11.64059829711914 52 26 C 52 40.35939788818359 40.35939788818359 52 26 52 C 11.64059829711914 52 0 40.35939788818359 0 26 C 0 11.64059829711914 11.64059829711914 0 26 0 Z" stroke="none" fill="#68e3c1"/>
            </g>
            <path id="Trazado_582921" data-name="Trazado 582921" d="M6.273,14.055l.869-7.273h8.311V9.34H9.818L9.5,12.164a3.882,3.882,0,0,1,.923-.363,4.211,4.211,0,0,1,1.118-.157A4.171,4.171,0,0,1,14.794,12.9a5.055,5.055,0,0,1,1.138,3.521,5.046,5.046,0,0,1-.61,2.476,4.2,4.2,0,0,1-1.714,1.7A5.411,5.411,0,0,1,11,21.2a5.822,5.822,0,0,1-2.51-.551,4.5,4.5,0,0,1-1.836-1.512A3.675,3.675,0,0,1,6,16.961H9.3A1.867,1.867,0,0,0,9.8,18.2a1.581,1.581,0,0,0,1.182.458q1.66,0,1.66-2.456,0-2.271-2.031-2.271a2.027,2.027,0,0,0-1.719.741Z" transform="translate(653.787 4964.028)" fill="#12263f"/>
          </g>
        </g>
      </g>
    </g>
  </g>
</svg>
