<svg xmlns="http://www.w3.org/2000/svg" xmlns:xlink="http://www.w3.org/1999/xlink" width="94" height="94" viewBox="0 0 94 94">
  <defs>
    <clipPath id="clip-path">
      <rect id="Rectángulo_279692" data-name="Rectángulo 279692" width="94" height="94" transform="translate(257 6702)" fill="#fff" stroke="#707070" stroke-width="1"/>
    </clipPath>
  </defs>
  <g id="Enmascarar_grupo_700187" data-name="Enmascarar grupo 700187" transform="translate(-257 -6702)" clip-path="url(#clip-path)">
    <g id="Grupo_843961" data-name="Grupo 843961" transform="translate(777.348 7200.398)">
      <g id="Grupo_843959" data-name="Grupo 843959" transform="translate(-512.478 -488.755)">
        <path id="Trazado_579371" data-name="Trazado 579371" d="M-511.347-444.066a2.119,2.119,0,0,1-1.131-2.133q.052-20.34,0-40.679c0-1.38.452-1.88,1.858-1.877q22.084.053,44.168.024c1.735,0,1.884.155,1.884,1.951q0,35.358,0,70.715c0,1.9-.119,2.023-1.96,2.023q-22.011,0-44.022,0c-1.758,0-1.905-.148-1.906-1.93q-.006-12.174-.006-24.349c0-.87-.012-1.71,1.177-1.774.883-.262,1.113.336,1.251.989a7.732,7.732,0,0,1,.062,1.6q0,10.261.006,20.522a4.22,4.22,0,0,0,.172,1.86.843.843,0,0,0,.9.243,1.062,1.062,0,0,0,.7-1.15c.008-.535.008-1.07.008-1.6q0-30.556,0-61.112a11.359,11.359,0,0,1,.109-2.472,2.017,2.017,0,0,1,1.933-1.291c.339-.03.678-.039,1.018-.039q16.594-.007,33.189,0c1.162,0,2.392-.073,2.966,1.3a5.793,5.793,0,0,1,.12,1.59q.006,22.547,0,45.094a7.889,7.889,0,0,1-.064,1.307,1.491,1.491,0,0,1-1.733,1.234,1.7,1.7,0,0,1-1.061-1.738c-.032-.97-.017-1.941-.017-2.911q0-20.164-.007-40.328a4.161,4.161,0,0,0-.2-2c-.408-.433-.944-.28-1.441-.314q-14.861,0-29.718.006a3.563,3.563,0,0,0-1.853.211c-.491.471-.362,1.085-.363,1.654q-.011,30.406,0,60.813c0,.568-.13,1.184.383,1.637a3.829,3.829,0,0,0,1.862.194q14.837.012,29.672,0c.495-.03,1.022.105,1.447-.283a3.1,3.1,0,0,0,.21-1.714c.015-3.888-.008-7.777.016-11.665.006-1.04.152-2,1.554-1.947,1.18.353,1.3,1.3,1.306,2.32.01,3.886-.007,7.773.012,11.659,0,.6-.173,1.319.687,1.556a.952.952,0,0,0,1.085-1.068c0-.292.01-.583.01-.875q0-32.581,0-65.162c0-.976.167-2.065-1.362-2q-19.8-.028-39.6,0a3.03,3.03,0,0,0-1.565.2c-.58.555-.378,1.277-.379,1.932q-.018,18.2-.01,36.4a19.5,19.5,0,0,1-.049,2.182A1.3,1.3,0,0,1-511.347-444.066Z" transform="translate(512.478 488.755)" fill="#010000"/>
        <path id="Trazado_579372" data-name="Trazado 579372" d="M-507.348-410.357c-.427-.454-.22-1.015-.221-1.521q-.023-11.179-.01-22.358c0-.779.1-1.606-.959-1.828q-.032-.985-.065-1.97l1.009-.9a1.427,1.427,0,0,0,.213-.515c.074-12.889.008-25.777.04-38.666a3.384,3.384,0,0,1,.229-1.984,3.24,3.24,0,0,1,1.435-.115q19.791-.007,39.582,0a.66.66,0,0,1,.522.185.451.451,0,0,1-.25.465,5.947,5.947,0,0,1-2.583.262q-17.33.013-34.66.006h-.728c-2.567.008-2.73.2-2.315,2.792a8.022,8.022,0,0,1,.07,1.6q0,30.959-.008,61.917c0,.836.265,1.791-.678,2.376-.559.044-.468-.378-.469-.692q-.011-11.727,0-23.453a.523.523,0,0,1,.038-.162,4.543,4.543,0,0,0-.044,1.286q-.008,10.853-.011,21.705A3.084,3.084,0,0,1-507.348-410.357Z" transform="translate(509.733 482.723)" fill="#a44f17"/>
        <path id="Trazado_579373" data-name="Trazado 579373" d="M-502.114-475.476c-.58-.791-.2-1.688-.267-2.534-.039-.5.306-.665.753-.668.388,0,.777-.007,1.165-.007h39.187c.729.831.487,1.848.487,2.793q.023,28.582.011,57.164c0,2.382.005,4.764,0,7.145a5.284,5.284,0,0,1-.184,1.876,2.852,2.852,0,0,1-.308.5c-1.118.174-.841-.662-.843-1.223-.016-4.221-.026-8.443.006-12.664a1.9,1.9,0,0,0-.934-1.948,1.32,1.32,0,0,1-.272-1.974c.413-.278.908-.448,1.184-.9a1.88,1.88,0,0,0,.257-.765c.021-15.624.048-31.247-.014-46.87a1.46,1.46,0,0,0-.208-.51,1.807,1.807,0,0,0-1.831-.884q-17.482.029-34.965,0c-.781,0-1.457.088-1.815.89a.922.922,0,0,1-.308.454,1.49,1.49,0,0,1-.352.126A1.865,1.865,0,0,1-502.114-475.476Z" transform="translate(505.372 481.625)" fill="#a85018"/>
        <path id="Trazado_579374" data-name="Trazado 579374" d="M-500.86-469.393l.245-.278q.015,18.291.029,36.581c0,9.619-.014,19.239.021,28.858,0,1.107-.224,1.689-1.443,1.392-.089-.116-.269-.146-.3-.316a3.531,3.531,0,0,0,.288-1.986q0-31.976,0-63.952c.212-.335.554-.285.876-.292a3.633,3.633,0,0,1,.135,1.721q.013,31.218.01,62.437a11.978,11.978,0,0,0,0,1.325c-.034-.161.01-.6.01-1.038q0-31.51,0-63.02A2.882,2.882,0,0,1-500.86-469.393Z" transform="translate(505.278 475.242)" fill="#9a4916"/>
        <path id="Trazado_579375" data-name="Trazado 579375" d="M-375.977-417.052l.272,1.974c-1.122.077-1.247.831-1.243,1.743q.026,6.326,0,12.652c0,.457.2.968-.2,1.377a23.559,23.559,0,0,1-.13-4.483c-.032-3.287-.01-6.575-.013-9.862q-.009,6.714,0,13.429c0,.668-.322.847-.9.787a.742.742,0,0,1-.52-.17,1.383,1.383,0,0,1-.255-.5,3.671,3.671,0,0,1-.111-1.008c-.011-9.64-.028-19.279,0-28.919a.845.845,0,0,1,.829-.9c.906.229.8.967.806,1.636.025,3.034-.032,6.069.028,9.077-.178-14.216-.163-28.407-.145-42.6a2.341,2.341,0,0,1,.411-1.8c.412.462.194,1.019.195,1.524q.021,21.835.006,43.669C-376.947-418.481-377-417.555-375.977-417.052Z" transform="translate(418.032 471.661)" fill="#e7834d"/>
        <path id="Trazado_579376" data-name="Trazado 579376" d="M-361.7-410.913v-.331a1.636,1.636,0,0,0,.622-1.258c.028-.583.053-1.165.053-1.748q0-31.712-.015-63.423c0-1.027.306-2.17-.657-3.007l0,0q-.23-.169.008-.328c1.367-.312,1.7.258,1.7,1.6q-.059,33.449,0,66.9C-359.991-411.16-360.342-410.61-361.7-410.913Z" transform="translate(405.796 483.331)" fill="#a24d17"/>
        <path id="Trazado_579377" data-name="Trazado 579377" d="M-488.86-399.286c-.368-.366-.182-.828-.183-1.239q-.016-31.4,0-62.8c0-.411-.185-.873.183-1.239a.99.99,0,0,1,.586.606,7.122,7.122,0,0,1,.115,1.883q.006,30.152,0,60.3a7.214,7.214,0,0,1-.112,1.885A.984.984,0,0,1-488.86-399.286Z" transform="translate(495.917 471.629)" fill="#f99e74"/>
        <path id="Trazado_579378" data-name="Trazado 579378" d="M-364.334-469.709l.243.007a2.368,2.368,0,0,1,.133,1.283q.009,22.638,0,45.276a2.386,2.386,0,0,1-.132,1.284l-.279.3q0-23.492,0-46.983C-364.371-468.934-364.347-469.322-364.334-469.709Z" transform="translate(407.607 475.269)" fill="#9a4916"/>
        <path id="Trazado_579379" data-name="Trazado 579379" d="M-376.173-464.989q-.006,22.5-.022,44.993c0,.558.21,1.174-.265,1.666a10.847,10.847,0,0,1-.139-3.027c-.375-13.769-.266-27.543-.286-41.315a2.542,2.542,0,0,0-.221-1.413,2.294,2.294,0,0,0-.375-.338c-.058-.059-.115-.121-.173-.181a.344.344,0,0,1,.035-.449A2.187,2.187,0,0,1-376.173-464.989Z" transform="translate(417.058 472.036)" fill="#f68a52"/>
        <path id="Trazado_579380" data-name="Trazado 579380" d="M-462.8-480.927l-.008.328h-41.418a.251.251,0,0,1-.335.053.264.264,0,0,1,.043-.342c.336-.03.672-.086,1.007-.086q19.993-.006,39.987,0C-463.283-480.974-463.042-480.944-462.8-480.927Z" transform="translate(506.904 483.247)" fill="#b55719"/>
        <path id="Trazado_579381" data-name="Trazado 579381" d="M-505.006-480.673l.034.286a3.084,3.084,0,0,1,.1,1.293q.007,19.28,0,38.56A2.452,2.452,0,0,1-505-439.25l-.252.008q0-19.882.013-39.764C-505.236-479.56-505.466-480.173-505.006-480.673Z" transform="translate(507.391 483.032)" fill="#9a4916"/>
        <ellipse id="Elipse_7206" data-name="Elipse 7206" cx="23.41" cy="0.075" rx="23.41" ry="0.075" transform="translate(0.53 6.209)" fill="#040202"/>
        <ellipse id="Elipse_7207" data-name="Elipse 7207" cx="23.413" cy="0.076" rx="23.413" ry="0.076" transform="translate(0.527 73.023)" fill="#040202"/>
        <path id="Trazado_579382" data-name="Trazado 579382" d="M-455.918-465.018l-.014.33c-.5.526-1.165.413-1.781.413q-14.255.017-28.51,0a2.4,2.4,0,0,1-1.793-.414l-.286-.256a6.5,6.5,0,0,1,.984-.148q15.34-.012,30.681,0A7.005,7.005,0,0,1-455.918-465.018Z" transform="translate(495.36 472.002)" fill="#fda175"/>
        <path id="Trazado_579383" data-name="Trazado 579383" d="M-488.3-242.576l.286-.255a2.4,2.4,0,0,1,1.792-.414q14.251-.011,28.5,0a2.417,2.417,0,0,1,1.794.411h.012q.131.113.086.225t-.09.111c-2.76.026-5.52.07-8.28.074q-11.269.016-22.538,0A2.919,2.919,0,0,1-488.3-242.576Z" transform="translate(495.361 314.919)" fill="#fda175"/>
        <path id="Trazado_579384" data-name="Trazado 579384" d="M-503.723-301.884l.3.316-.885-.037v-25.043a2.983,2.983,0,0,1,.282,1.819c.012,7.1,0,14.191.018,21.286C-504-302.986-504.225-302.366-503.723-301.884Z" transform="translate(506.692 373.971)" fill="#b25619"/>
        <path id="Trazado_579385" data-name="Trazado 579385" d="M-377.374-276.645q0-.168,0-.336c1.045.157,1.171-.435,1.166-1.295-.028-4.4-.013-8.8.276-13.2v14.766A2.2,2.2,0,0,1-377.374-276.645Z" transform="translate(416.814 349.065)" fill="#f68b52"/>
        <path id="Trazado_579386" data-name="Trazado 579386" d="M-361.421-479.737c1.2-.177,1.173.595,1.171,1.438q-.021,11.215-.008,22.43,0,21.993,0,43.986c0,.823.186,1.766-1.168,1.583q0-34.574,0-69.147Q-361.425-479.593-361.421-479.737Z" transform="translate(405.521 482.388)" fill="#9a4916"/>
        <path id="Trazado_579387" data-name="Trazado 579387" d="M-504.282-438.557q.013-20.569.026-41.138l.259,0q0,19.735-.011,39.471C-504.009-439.663-503.8-439.045-504.282-438.557Z" transform="translate(506.675 482.34)" fill="#b25619"/>
        <path id="Trazado_579388" data-name="Trazado 579388" d="M-498.033-468.717v65.574h-.283v-65.567C-498.222-468.71-498.127-468.712-498.033-468.717Z" transform="translate(502.45 474.567)" fill="#9d4b16"/>
        <path id="Trazado_579389" data-name="Trazado 579389" d="M-363.408-421.843q0-23.922,0-47.843c.466.434.28,1,.28,1.513q.014,22.408,0,44.817C-363.13-422.846-362.941-422.277-363.408-421.843Z" transform="translate(406.926 475.253)" fill="#ad5318"/>
        <path id="Trazado_579390" data-name="Trazado 579390" d="M-363.03-290.523v13.609h-.145v-13.616Z" transform="translate(406.76 348.396)" fill="#ad5318"/>
        <path id="Trazado_579391" data-name="Trazado 579391" d="M-455.2-429.259c.424.453.248,1.015.249,1.529q.014,14.407,0,28.814a2.687,2.687,0,0,1-1.427.137c-9.664.008-19.328-.014-28.991.032-1.177.006-1.548-.265-1.546-1.505q.06-30.747,0-61.494c0-1.214.323-1.532,1.526-1.526,9.712.048,19.424.026,29.137.03a4.2,4.2,0,0,1,1.3.076,2.008,2.008,0,0,1,.411,1.638q.016,13.6,0,27.2a2.728,2.728,0,0,1-.235,1.414c-1.517.307-2.953.955-4.506,1.133-.334.038-.676,0-1.007.072-.43.09-.93.189-.9.748s.563.69.974.652C-458.418-430.472-456.912-429.379-455.2-429.259Z" transform="translate(494.374 470.712)" fill="#ea956d"/>
        <path id="Trazado_579392" data-name="Trazado 579392" d="M-455.238-463.406c-10,0-20.008.025-30.011-.03-1.356-.007-1.818.293-1.814,1.741q.07,30.383,0,60.766c0,1.449.459,1.748,1.815,1.74,10-.055,20.007-.03,30.011-.03q0,.144,0,.289l-32.088,0V-463.7l32.084,0,.019.006a.178.178,0,0,1,.055.2C-455.19-463.436-455.215-463.406-455.238-463.406Z" transform="translate(494.666 471.014)" fill="#e6926a"/>
        <path id="Trazado_579393" data-name="Trazado 579393" d="M-377.056-463.694c.738-.066.891.351.88.987-.024,1.406-.007,2.813-.007,4.22l0,41.179c-.472-.425-.283-.99-.286-1.5-.016-3.272-.007-6.543-.009-9.815,0-.569.107-1.183-.55-1.517a6.652,6.652,0,0,1-.214-3c.091-9.661.011-19.321.046-28.981A3.1,3.1,0,0,1-377.056-463.694Z" transform="translate(416.779 471.015)" fill="#e3804b"/>
        <path id="Trazado_579394" data-name="Trazado 579394" d="M-393.816-359.2a2.674,2.674,0,0,1,.074,2.489l-.577.576a2.255,2.255,0,0,1-2.685-.329c-.69-.622-1.581-.24-2.378-.288s-1.547-.208-1.55-1.133.737-1.125,1.545-1.124c1.095,0,2.177.124,3.129-.749.52-.477,1.3-.15,1.935.114C-394.161-359.487-393.848-359.5-393.816-359.2Z" transform="translate(433.495 397.586)" fill="#030201"/>
        <path id="Trazado_579395" data-name="Trazado 579395" d="M-377.786-432.614l-.507-.444c.432-.45.252-1.013.252-1.526q.014-14.4,0-28.81c0-.1.008-.193.019-.289.092,0,.184,0,.276,0Q-377.764-448.148-377.786-432.614Z" transform="translate(417.465 471.002)" fill="#e7834e"/>
        <path id="Trazado_579396" data-name="Trazado 579396" d="M-472.284-434.317l0-2.163a5.023,5.023,0,0,0,.67-2.915c-.018-1.646-.048-3.294.016-4.939.062-1.606.426-2.025,1.989-2.04,5.858-.054,11.716-.043,17.574-.006a2.188,2.188,0,0,1,1.377.378,2.655,2.655,0,0,1,.424,1.8q.022,9.908.008,19.815a.817.817,0,0,1-.27.494,3.265,3.265,0,0,1-1.837.271q-8.273.013-16.546,0c-2.171,0-2.341-.21-2.382-2.444-.042-2.319.128-4.642-.107-6.952C-471.5-433.567-472.061-433.825-472.284-434.317Z" transform="translate(484.019 458.771)" fill="#d46723"/>
        <path id="Trazado_579397" data-name="Trazado 579397" d="M-474.583-317.429a1.6,1.6,0,0,1-1.008-1.728q.037-11.6,0-23.192c-.006-1.3.534-1.683,1.754-1.678q11.447.046,22.894,0c1.357-.007,1.764.53,1.758,1.826-.039,7.633-.028,15.266-.007,22.9,0,.849-.114,1.547-1.005,1.875-.242.227-.545.169-.83.169q-11.361,0-22.722,0C-474.038-317.26-474.341-317.2-474.583-317.429Z" transform="translate(486.362 386.279)" fill="#010101"/>
        <path id="Trazado_579398" data-name="Trazado 579398" d="M-474.635-439.125a1.491,1.491,0,0,1,1.167.661,79.253,79.253,0,0,1,.093,8.435c-.008,1.123.344,1.373,1.409,1.364,6.026-.049,12.052-.02,18.079-.026,1.893,0,2.149-.27,2.151-2.23,0-5.785-.027-11.57.026-17.354a2.189,2.189,0,0,0-1.363-2.415c-6.453-.016-12.907-.016-19.36-.065-.907-.007-1.02.4-1.01,1.141.031,2.232-.008,4.466.02,6.7.011.892-.206,1.536-1.215,1.627a1.285,1.285,0,0,1-.954-1.43c.017-2.91.029-5.819-.008-8.728a1.525,1.525,0,0,1,1-1.58c.243-.224.546-.167.831-.167q11.363,0,22.726,0c.285,0,.588-.057.831.167A1.6,1.6,0,0,1-449.2-451.3q-.036,11.587,0,23.175c.006,1.278-.5,1.7-1.737,1.7q-11.438-.047-22.878,0c-1.322.007-1.819-.463-1.792-1.792.063-3.059.03-6.121.013-9.182C-475.6-438.177-475.537-438.872-474.635-439.125Z" transform="translate(486.37 463.58)" fill="#020101"/>
        <path id="Trazado_579399" data-name="Trazado 579399" d="M-448.5-453.378h-24.389a.393.393,0,0,1-.139-.038,1.557,1.557,0,0,1-.169-.171,4,4,0,0,1,.651-.106q11.852-.008,23.7,0a4,4,0,0,1,.651.107c-.013.036-.015.094-.04.106A2.559,2.559,0,0,1-448.5-453.378Z" transform="translate(484.666 463.931)" fill="#f49b71"/>
        <path id="Trazado_579400" data-name="Trazado 579400" d="M-472.888-252.906h24.383a.394.394,0,0,1,.139.038,1.63,1.63,0,0,1,.172.17,3.9,3.9,0,0,1-.649.108q-11.854.008-23.709,0a3.893,3.893,0,0,1-.649-.109c.014-.036.017-.093.042-.106A2.594,2.594,0,0,1-472.888-252.906Z" transform="translate(484.666 321.756)" fill="#f49b71"/>
        <path id="Trazado_579401" data-name="Trazado 579401" d="M-478.175-316.666c-.558-.067-.279-.5-.279-.745q-.025-11.563-.01-23.126c0-.422-.116-.886.29-1.218a1.646,1.646,0,0,1,.137.989q.005,11.555,0,23.11A1.626,1.626,0,0,1-478.175-316.666Z" transform="translate(488.436 384.667)" fill="#e7936b"/>
        <path id="Trazado_579402" data-name="Trazado 579402" d="M-383.774-341.755c.312.241.294.587.294.927q0,11.854,0,23.707a1.366,1.366,0,0,1-.058.416c-.011.034-.152.026-.233.038a1.627,1.627,0,0,1-.139-.989q-.005-11.555,0-23.11A1.645,1.645,0,0,1-383.774-341.755Z" transform="translate(421.451 384.668)" fill="#e7936b"/>
        <path id="Trazado_579403" data-name="Trazado 579403" d="M-472.111-345.619h24.284v.141h-24.35Z" transform="translate(483.942 387.404)" fill="#f59c72"/>
        <path id="Trazado_579404" data-name="Trazado 579404" d="M-477.33-316.666q0-12.544,0-25.088c.428.387.273.9.274,1.367q.013,11.177,0,22.355C-477.055-317.567-476.9-317.052-477.33-316.666Z" transform="translate(487.59 384.667)" fill="#f59c72"/>
        <path id="Trazado_579405" data-name="Trazado 579405" d="M-384.145-341.755q0,12.544,0,25.088c-.431-.386-.275-.9-.276-1.366q-.013-11.177,0-22.355C-384.419-340.853-384.574-341.368-384.145-341.755Z" transform="translate(421.822 384.668)" fill="#f59c72"/>
        <ellipse id="Elipse_7208" data-name="Elipse 7208" cx="0.073" cy="17.227" rx="0.073" ry="17.227" transform="translate(37.453 6.749)" fill="#f59c72"/>
        <path id="Trazado_579406" data-name="Trazado 579406" d="M-447.693-360.23h-24.284v-.141h24.35Z" transform="translate(483.8 397.849)" fill="#f59c72"/>
        <path id="Trazado_579407" data-name="Trazado 579407" d="M-477.991-391.345c-.092-.162-.262-.325-.263-.488q-.023-5.2,0-10.4c0-.163.172-.325.264-.488A92.893,92.893,0,0,1-477.991-391.345Z" transform="translate(488.253 427.836)" fill="#e7936b"/>
        <path id="Trazado_579408" data-name="Trazado 579408" d="M-477.325-391.345q0-5.688,0-11.376a1.043,1.043,0,0,1,.28.926q0,4.762,0,9.525A1.042,1.042,0,0,1-477.325-391.345Z" transform="translate(487.587 427.836)" fill="#f59c71"/>
        <path id="Trazado_579409" data-name="Trazado 579409" d="M-477.2-438.922v-9.41l.141,0v9.47Z" transform="translate(487.498 460.134)" fill="#f59c71"/>
        <path id="Trazado_579410" data-name="Trazado 579410" d="M-375.134-431.933v-29.618h.146v29.662Z" transform="translate(415.228 469.492)" fill="#e7834e"/>
        <path id="Trazado_579411" data-name="Trazado 579411" d="M-447.91-444.81c1.287-.284,1.763.1,1.745,1.538-.082,6.366-.062,12.735-.011,19.1.009,1.12-.253,1.5-1.439,1.487-6.511-.053-13.023-.032-19.534,0-.889,0-1.179-.26-1.164-1.158.046-2.916.013-5.832.01-8.749.424.389.271.9.274,1.371.014,2.278.052,4.558-.014,6.834-.03,1.038.215,1.45,1.356,1.439,6.348-.06,12.7-.042,19.045-.051,1-.006,1.074-.625,1.071-1.44-.025-6.01-.017-12.021-.008-18.031,0-.461-.125-.953.082-1.305-.294.324-.083.825-.084,1.269-.017,6.059-.009,12.118-.014,18.177,0,.66.164,1.518-1.019,1.075-.483-.487-.271-1.1-.272-1.659Q-447.918-434.858-447.91-444.81Z" transform="translate(481.208 457.7)" fill="#b6581e"/>
        <path id="Trazado_579412" data-name="Trazado 579412" d="M-466.1-401.491c0,2.422.048,4.845-.022,7.265-.032,1.08.3,1.426,1.4,1.415,5.391-.051,10.784-.027,16.175-.015a2.332,2.332,0,0,1,1.612.283h-6.322c-3.935,0-7.87-.027-11.8.018-.994.011-1.373-.268-1.348-1.312.063-2.563.021-5.129.021-7.693Z" transform="translate(479.862 426.992)" fill="#d16522"/>
        <path id="Trazado_579413" data-name="Trazado 579413" d="M-397.479-421.716c1.142.046.872-.806.873-1.43q.017-9.039.007-18.078v-1.51c.429.252.28.558.281.8.01,6.366,0,12.733.018,19.1,0,.866-.009,1.611-1.205,1.381A1.149,1.149,0,0,0-397.479-421.716Z" transform="translate(431.069 456.169)" fill="#bb5c1e"/>
        <path id="Trazado_579414" data-name="Trazado 579414" d="M-467.188-434.68v-7.662l.143,0v7.721Z" transform="translate(480.409 455.892)" fill="#de6b24"/>
        <path id="Trazado_579415" data-name="Trazado 579415" d="M-447.6-314.293l-20.111-.018a1.783,1.783,0,0,1-.148-1.13q-.009-9.752,0-19.5c0-.641-.224-1.371.919-1.357,6.448.082,12.9-.086,19.345.093a1.636,1.636,0,0,1,.409,1.348c.011,6.5.029,13.007-.008,19.511a2.249,2.249,0,0,1-.091.574A1.465,1.465,0,0,1-447.6-314.293Z" transform="translate(480.9 380.807)" fill="#d46623"/>
        <path id="Trazado_579416" data-name="Trazado 579416" d="M-447.96-314.63c0-.086.007-.172.009-.259a3.058,3.058,0,0,0,.14-1.564c.052-6.569-.078-13.14.071-19.709,1.1-.513,1.1.224,1.1.965q0,6.7,0,13.406c0,1.92.04,3.841.01,5.76q0-9.5-.009-18.994c0-.562.291-1.377-.794-1.316a.88.88,0,0,1-.522-.123c-6.166,0-12.333.025-18.5-.043-1.257-.014-1.66.288-1.646,1.606.07,6.75.035,13.5.036,20.251-.487-.3-.264-.791-.266-1.19-.016-6.508.011-13.016-.033-19.524-.007-1.051.221-1.427,1.355-1.417q9.541.086,19.082.01c1.266-.01,1.738.255,1.719,1.66q-.128,9.469,0,18.94C-446.2-314.73-446.674-314.346-447.96-314.63Z" transform="translate(481.257 381.144)" fill="#b6581e"/>
        <path id="Trazado_579417" data-name="Trazado 579417" d="M-398.426-335.7a2.848,2.848,0,0,1,.286,0c.113.054.153.112.12.174s-.069.1-.1.1q0,9.821-.011,19.642c0,.557.212,1.174-.278,1.659Q-398.42-324.915-398.426-335.7Z" transform="translate(431.72 380.383)" fill="#c96120"/>
        <path id="Trazado_579418" data-name="Trazado 579418" d="M-397.431-335.472a2.61,2.61,0,0,0-.015-.27c.731-.087,1.194.048,1.19.97-.025,6.743-.013,13.485-.3,20.24v-1.294q0-9.108-.008-18.215C-396.565-334.66-396.284-335.518-397.431-335.472Z" transform="translate(431.027 380.426)" fill="#bc5c1f"/>
      </g>
      <g id="Grupo_843960" data-name="Grupo 843960" transform="translate(-484.417 -465.173)">
        <path id="Trazado_579419" data-name="Trazado 579419" d="M-392.4-379.94q-1.383,4.268-5.2,4.131a4.824,4.824,0,0,1-2.877-1.089c-4.651-3.69-9.316-7.363-13.939-11.088a4.9,4.9,0,0,1,0-7.8c4.623-3.725,9.293-7.391,13.936-11.092a5.03,5.03,0,0,1,8.08,3.045c.165.376.024.8.18,1.176,1.766.188,3.537.052,5.306.076.64.009,1.067.192,1.15.879-.071.64-.481.871-1.07.877-1.942.02-3.885.034-5.827-.005-.95-.019-1.318-.424-1.392-1.382a8.5,8.5,0,0,0-.058-.966,2.292,2.292,0,0,1-.111-.456,3.033,3.033,0,0,0-1.591-2.2,3.371,3.371,0,0,0-1.107-.38,1.754,1.754,0,0,0-1.151.09,2.933,2.933,0,0,0-1.22.588c-4.682,3.643-9.266,7.41-13.952,11.048a3.361,3.361,0,0,0-.053,5.164c3.7,2.981,7.564,5.767,11.161,8.884,1.032.894,2.218,1.6,3.254,2.5a1.558,1.558,0,0,0,.812.308c1.372.578,3.643-.784,3.834-2.468a2.584,2.584,0,0,1,.114-.468c.081-2.73.72-2.384,2.633-2.386q9.886-.012,19.773-.005a3.421,3.421,0,0,0,3.681-2.938c.071-3.9.008-7.808.029-11.71a3.371,3.371,0,0,0-2.753-3.161c-3.549-.1-7.1-.015-10.644-.045-.716-.006-1.432.026-2.147-.027-.386-.071-.706-.216-.749-.67-.132-.789.276-1.064,1-1.063,4.011,0,8.023-.049,12.034.024a5.077,5.077,0,0,1,5.108,5.3c.015,3.423,0,6.846,0,10.27,0,3.735-2.056,5.778-5.825,5.781q-9.588.006-19.176.006a2.332,2.332,0,0,0-1.059.08C-392.376-380.739-392.235-380.316-392.4-379.94Z" transform="translate(416.354 407.973)" fill="#010101"/>
        <path id="Trazado_579420" data-name="Trazado 579420" d="M-384.854-398.774a2.266,2.266,0,0,1,.107,1.243c-.042.817.26,1.2,1.122,1.181,1.95-.033,3.9-.025,5.852,0a1.1,1.1,0,0,0,1.1-.617c.435.462,1-.028,1.464.193l.507.432a1.386,1.386,0,0,0,.94.179c4.144-.007,8.287.025,12.43-.017a3.5,3.5,0,0,1,2.689,2.959,1.129,1.129,0,0,0-.175.482q-.034,5.59,0,11.179a1.123,1.123,0,0,0,.176.481,3.517,3.517,0,0,1-3.813,3.135q-10.188.012-20.377,0c-1.84,0-1.837,0-1.915,1.851a3.635,3.635,0,0,1-.111.564c-.384-.31-.188-.725-.2-1.1a4.423,4.423,0,0,0,0,1.067,1.3,1.3,0,0,0,.15.355A3.291,3.291,0,0,1-389-372.666c.252-.536-.189-.73-.5-.97-3.919-3.064-7.77-6.212-11.694-9.269a6,6,0,0,1-2.058-2.169c-.184-.419-.6-1.007.3-1.2a2.27,2.27,0,0,1,.989.609c4.067,3.327,8.269,6.485,12.323,9.828a4.625,4.625,0,0,0,.555.4c.915.55,1.624.222,1.726-.835.084-.877.021-1.761.03-2.642.017-1.521.146-1.655,1.7-1.657q6.857-.008,13.714,0a2.659,2.659,0,0,0,1.758-.458,2.08,2.08,0,0,1,1.718.159,2.45,2.45,0,0,0,1.231.255c1.3.007,2.608.022,3.912,0,1.567-.032,2.117-.545,2.164-2.133.068-2.313.016-4.627.022-6.941,0-.652.026-1.3-.02-1.955-.112-1.591-.527-2.017-2.128-2.029-4.075-.031-8.149-.009-12.224-.011-3.423,0-6.846.01-10.268-.006-1.378-.006-1.581-.222-1.611-1.591-.015-.684-.017-1.369,0-2.053a2.94,2.94,0,0,0-.508-1.847c-.053-.118.01.034-.042-.086-.654-1.519-.4-1.9,1.326-2.011a2.852,2.852,0,0,1,1.674,2.184.884.884,0,0,0-.143.221,3.336,3.336,0,0,0,.026,1.2C-385.072-398.059-385.223-398.457-384.854-398.774Z" transform="translate(407.257 403.235)" fill="#f4f4f4"/>
        <path id="Trazado_579421" data-name="Trazado 579421" d="M-408.512-387.039c-.432,1.125.408,1.767,1.065,2.3,4.526,3.653,9.1,7.243,13.708,10.886l-.7.339c-1.31-.183-2.078-1.25-3.058-1.945-1.934-1.371-3.721-2.943-5.565-4.434-2.042-1.652-4.231-3.126-6.132-4.954-.225-.217-.558-.318-.8-.522a3.468,3.468,0,0,1,.008-5.255c2.057-1.665,4.193-3.232,6.265-4.879,2.049-1.63,4.019-3.363,6.105-4.944.994-.754,1.813-1.835,3.175-2.033.235.209.562-.1.791.142.052.708-.592.891-.988,1.2-3.9,3.053-7.717,6.2-11.624,9.237a10.828,10.828,0,0,0-1.354,1.119,2.575,2.575,0,0,0-.816,1.821A3.659,3.659,0,0,0-408.512-387.039Z" transform="translate(412.702 404.086)" fill="#eae4ec"/>
        <path id="Trazado_579422" data-name="Trazado 579422" d="M-402.262-389.083c-.384-1.06.337-1.728.988-2.253,4.563-3.67,9.17-7.285,13.76-10.92a.573.573,0,0,0,.1-.165.5.5,0,0,1,.4-.227,1.628,1.628,0,0,1,1.234.394c-.059.026-.12.049-.178.078-1.286.626-1.286.626-1.074,1.733-2.132.917-3.693,2.623-5.486,4-2.992,2.3-5.941,4.66-8.874,7.039A.95.95,0,0,1-402.262-389.083Z" transform="translate(406.452 404.207)" fill="#f3f3f3"/>
        <path id="Trazado_579423" data-name="Trazado 579423" d="M-291.446-384.238a2.088,2.088,0,0,1-1.038.219c-3.82-.006-7.64,0-11.46-.01-.325,0-.759.165-.872-.371q6.215-.008,12.431-.012A1.376,1.376,0,0,1-291.446-384.238Z" transform="translate(337.377 391.293)" fill="#f7f7f7"/>
        <path id="Trazado_579424" data-name="Trazado 579424" d="M-333.528-317.888h21.214v.1h-21.252Z" transform="translate(357.734 344.186)" fill="#050505"/>
        <ellipse id="Elipse_7209" data-name="Elipse 7209" cx="8.959" cy="0.067" rx="8.959" ry="0.067" transform="translate(30.169 5.742)" fill="#050505"/>
        <path id="Trazado_579425" data-name="Trazado 579425" d="M-250.719-373.474l.189-.2a25.481,25.481,0,0,1,.085,4.076c-.021,2.689.131,5.38-.085,8.066l-.19-.2a1.814,1.814,0,0,1-.091-.955q-.01-4.92,0-9.841A1.814,1.814,0,0,1-250.719-373.474Z" transform="translate(299.149 383.684)" fill="#fefefe"/>
        <path id="Trazado_579426" data-name="Trazado 579426" d="M-248.1-372.183v11.217h-.1v-11.262Z" transform="translate(297.285 382.662)" fill="#040404"/>
        <ellipse id="Elipse_7210" data-name="Elipse 7210" cx="3.959" cy="0.054" rx="3.959" ry="0.054" transform="translate(23.036 5.755)" fill="#050505"/>
        <path id="Trazado_579427" data-name="Trazado 579427" d="M-340.5-317.17l-.177-.194a4.173,4.173,0,0,1,0-1.958c.386.572.067,1.231.229,1.831Z" transform="translate(362.851 345.201)" fill="#fdfdfd"/>
        <path id="Trazado_579428" data-name="Trazado 579428" d="M-340.441-393.479c-.161.6.157,1.258-.229,1.83a5.087,5.087,0,0,1,0-2.155h.173Z" transform="translate(362.844 397.94)" fill="#fdfdfd"/>
        <path id="Trazado_579429" data-name="Trazado 579429" d="M-352.622-402.89a.408.408,0,0,1-.4.227c-.268-.026-.568.083-.78-.183A1.475,1.475,0,0,1-352.622-402.89Z" transform="translate(372.065 404.449)" fill="#f8f2fa"/>
        <path id="Trazado_579430" data-name="Trazado 579430" d="M-359.939-367.618a3.584,3.584,0,0,0-1.459-.146,4.814,4.814,0,0,0-2.459-.448c-4.528.013-9.057.006-13.585.006a2.65,2.65,0,0,0-1.853.44,2.9,2.9,0,0,1-.265.179c-.082.058-.169.111-.253.165-.273.337-.138.739-.171,1.113-.03.347.024.716-.3.973-.457.163-.745-.164-1.037-.4-3.006-2.4-6.045-4.756-9.031-7.179-1.058-.858-1.07-1.309-.027-2.16,3-2.452,6.076-4.821,9.108-7.24.271-.216.543-.494.957-.373.379.275.293.689.325,1.07.029.349-.083.721.17,1.034.092.055.178.113.268.171s.194.121.288.186a2.865,2.865,0,0,0,1.967.41q10.755.007,21.51,0a6.965,6.965,0,0,1,1.268.042c.287.053.7,0,.669.5a2.7,2.7,0,0,1-1.064.071q-11.254.007-22.507,0a8.01,8.01,0,0,0-.91.037c-.122.077.06.24-.006.127-.029-.051,0-.064.033-.094.171-.14.366-.06.545-.06q11.694-.008,23.388,0a1.589,1.589,0,0,1,.581.056,1.187,1.187,0,0,1,.259.915q.017,4.212,0,8.423a1.387,1.387,0,0,1-.183.846,41.516,41.516,0,0,1-5.131.138c1.523.021,3.252-.028,4.979.029.032.649-.492.531-.837.55-1.093.06-2.19.047-3.284.015A2.651,2.651,0,0,0-359.939-367.618Z" transform="translate(398.508 390.089)" fill="#fcde7c"/>
        <path id="Trazado_579431" data-name="Trazado 579431" d="M-362.451-388.059c-.324-.338-.74-.175-1.109-.176q-11.522-.016-23.046,0c-.73,0-1.366-.082-1.724-.814-.42-.9-.114-1.864-.208-2.793-.026-.253.1-.594-.131-.736-.319-.194-.521.167-.73.333-3.689,2.955-7.418,5.862-11.1,8.826-.781.628-.781.652,0,1.28,3.682,2.964,7.411,5.87,11.1,8.826.208.167.411.528.73.334.234-.142.105-.483.131-.736.094-.929-.212-1.888.208-2.793a1.521,1.521,0,0,1,1.532-.814q7.821.024,15.641,0c.586,0,1.037.114,1.139.781-.179.735-.758.68-1.321.679-4.855,0-9.711.019-14.565-.021-.8-.007-1.083.18-1.02,1,.074.971,0,1.953.022,2.93a1.3,1.3,0,0,1-.711,1.375,1.454,1.454,0,0,1-1.572-.336c-2.514-1.837-4.818-3.935-7.343-5.762-2.217-1.6-4.279-3.423-6.41-5.148a1.39,1.39,0,0,1,0-1.923q3.534-2.781,7.068-5.563c2.328-1.834,4.661-3.662,6.976-5.512a1.6,1.6,0,0,1,1.192-.285,1.633,1.633,0,0,1,.807,1.643c-.047.846.071,1.707-.032,2.543-.132,1.078.316,1.244,1.284,1.239,7.38-.04,14.76-.026,22.141-.019,2.405,0,2.777.332,2.812,2.792.041,2.84.013,5.681.008,8.521,0,1.886-.629,2.51-2.518,2.518-1.4.006-2.809,0-4.213,0-.472,0-.928,0-1.146-.533-.015-.72.383-.939,1.046-.928,1.386.022,2.773.014,4.16,0,.305,0,.652.128.9-.177a.772.772,0,0,0,.13-.5c-.028-3.3.057-6.607-.044-9.909Z" transform="translate(407.129 398.863)" fill="#010101"/>
        <path id="Trazado_579432" data-name="Trazado 579432" d="M-321.661-377.956c.039.308-.2.178-.315.178q-11.733.009-23.466,0a1.033,1.033,0,0,1-.283-.031c-.024-.007-.024-.1-.035-.152a1.311,1.311,0,0,1,.763-.091q11.287,0,22.574,0A1.309,1.309,0,0,1-321.661-377.956Z" transform="translate(366.369 386.792)" fill="#fefefe"/>
        <path id="Trazado_579433" data-name="Trazado 579433" d="M-321.663-378.236h-24.1q0-.1,0-.195h0q11.494,0,22.987.007C-322.4-378.424-321.988-378.569-321.663-378.236Z" transform="translate(366.371 387.072)" fill="#f0f0f0"/>
        <path id="Trazado_579434" data-name="Trazado 579434" d="M-314.241-322.424h-22.07v-.1h22.076Z" transform="translate(359.678 347.467)" fill="#f7f7f7"/>
        <path id="Trazado_579435" data-name="Trazado 579435" d="M-345.761-328.575c.008-.356.282-.174.415-.175q7.463-.016,14.926-.008c.254,0,.527-.054.726.18a1.073,1.073,0,0,1-.663.095q-7.37,0-14.739,0A1.092,1.092,0,0,1-345.761-328.575Z" transform="translate(366.369 351.909)" fill="#fefefe"/>
        <path id="Trazado_579436" data-name="Trazado 579436" d="M-345.763-328.046l16.067,0c-.323.335-.739.189-1.112.19q-7.478.015-14.955.007h0Q-345.764-327.949-345.763-328.046Z" transform="translate(366.371 351.381)" fill="#f0f0f0"/>
        <path id="Trazado_579437" data-name="Trazado 579437" d="M-250.944-373v11.751c-.269-.223-.192-.533-.192-.816q-.006-5.06,0-10.12C-251.136-372.467-251.213-372.777-250.944-373Z" transform="translate(299.374 383.209)" fill="#efefef"/>
        <path id="Trazado_579438" data-name="Trazado 579438" d="M-329.915-383.478h-6.391v-.1h6.4Z" transform="translate(359.674 390.698)" fill="#f7f7f7"/>
        <path id="Trazado_579439" data-name="Trazado 579439" d="M-282.669-328.584c.664-.386,1.386-.145,2.078-.168,1.19-.04,2.383,0,3.575.013.019,0,.049.039.053.064a.248.248,0,0,1-.024.093A34.665,34.665,0,0,1-282.669-328.584Z" transform="translate(321.695 351.916)" fill="#fefefe"/>
        <path id="Trazado_579440" data-name="Trazado 579440" d="M-282.669-328.047h5.682c-1.119.439-2.282.138-3.422.173A4.066,4.066,0,0,1-282.669-328.047Z" transform="translate(321.695 351.379)" fill="#f0f0f0"/>
        <path id="Trazado_579441" data-name="Trazado 579441" d="M-346.267-327.374v3.695c-.076-1.233-.426-2.473,0-3.694Z" transform="translate(366.874 350.903)" fill="#f9f9f9"/>
        <path id="Trazado_579442" data-name="Trazado 579442" d="M-346.276-387.333c-.449-1.221-.05-2.462,0-3.694v3.694Z" transform="translate(366.883 395.974)" fill="#f9f9f9"/>
        <path id="Trazado_579443" data-name="Trazado 579443" d="M-340.967-393.8l0,2.155A2.542,2.542,0,0,1-340.967-393.8Z" transform="translate(363.145 397.94)" fill="#f0f0f0"/>
        <path id="Trazado_579444" data-name="Trazado 579444" d="M-340.951-319.322v1.958A2.2,2.2,0,0,1-340.951-319.322Z" transform="translate(363.126 345.201)" fill="#f0f0f0"/>
        <path id="Trazado_579445" data-name="Trazado 579445" d="M-383.978-372.142v4.028c-.363.184-.474-.04-.607-.146q-6.1-4.834-12.192-9.675c-.376-.3-.641-.463-.083-.9,4.156-3.266,8.287-6.565,12.427-9.852a4.909,4.909,0,0,1,.454-.253v4.259a1.182,1.182,0,0,1-.166,0c-.391-.721-.057-1.508-.209-2.249-.1-.122-.2-.224-.363-.1q-4.858,3.831-9.713,7.667c-1.03.818-1.03,1.085,0,1.9q4.845,3.848,9.713,7.667c.163.128.267.029.365-.1.149-.744-.183-1.529.207-2.248l.083,0Z" transform="translate(402.777 394.498)" fill="#facd62"/>
        <path id="Trazado_579446" data-name="Trazado 579446" d="M-323.044-370.781H-347.7v-.183h24.637l.02.016c.058.037.078.074.059.111S-323.024-370.781-323.044-370.781Z" transform="translate(367.743 381.768)" fill="#fee580"/>
        <ellipse id="Elipse_7211" data-name="Elipse 7211" cx="11.431" cy="0.05" rx="11.431" ry="0.05" transform="translate(16.74 21.233)" fill="#fee57f"/>
        <path id="Trazado_579447" data-name="Trazado 579447" d="M-263.236-370.741a1.316,1.316,0,0,0,0-.167c.311.142.25.431.251.679q.007,4.652,0,9.3a1.623,1.623,0,0,1-.092.375c-.052.079-.1.073-.143-.007Q-263.229-365.65-263.236-370.741Z" transform="translate(307.935 381.728)" fill="#fde47f"/>
        <path id="Trazado_579448" data-name="Trazado 579448" d="M-276.417-335.454c.048,0,.1.007.143.007l-.176.19h-5.419v-.2Z" transform="translate(321.13 356.624)" fill="#fce47f"/>
        <path id="Trazado_579449" data-name="Trazado 579449" d="M-353.431-383.088c.4.824.07,1.7.187,2.547-.06,0-.119,0-.179.005A7.278,7.278,0,0,1-353.431-383.088Z" transform="translate(371.877 390.352)" fill="#feee84"/>
        <path id="Trazado_579450" data-name="Trazado 579450" d="M-354.1-383.088q0,1.276.008,2.552c-.373-.41-.131-.91-.2-1.364-.048-.332.114-.706-.2-.986A.419.419,0,0,1-354.1-383.088Z" transform="translate(372.547 390.352)" fill="#f7da78"/>
        <path id="Trazado_579451" data-name="Trazado 579451" d="M-354.1-328.847a.415.415,0,0,1-.385-.2c.368-.412.128-.911.194-1.366.048-.332-.115-.706.2-.983A7,7,0,0,1-354.1-328.847Z" transform="translate(372.547 353.752)" fill="#f7da78"/>
        <path id="Trazado_579452" data-name="Trazado 579452" d="M-353.166-328.847q0-1.276.008-2.551.089,0,.178,0-.015,1.256-.033,2.513c0,.02-.037.052-.06.056A.251.251,0,0,1-353.166-328.847Z" transform="translate(371.612 353.752)" fill="#feee84"/>
      </g>
    </g>
  </g>
</svg>
