<svg xmlns="http://www.w3.org/2000/svg" xmlns:xlink="http://www.w3.org/1999/xlink" width="94" height="94" viewBox="0 0 94 94">
  <defs>
    <clipPath id="clip-path">
      <rect id="Rectángulo_279693" data-name="Rectángulo 279693" width="94" height="94" transform="translate(257 6702)" fill="#fff" stroke="#707070" stroke-width="1"/>
    </clipPath>
  </defs>
  <g id="Enmascarar_grupo_700188" data-name="Enmascarar grupo 700188" transform="translate(-257 -6702)" clip-path="url(#clip-path)">
    <g id="Grupo_843964" data-name="Grupo 843964" transform="translate(1499.776 6834.672)">
      <g id="Grupo_843962" data-name="Grupo 843962" transform="translate(-1196.571 -119.743)">
        <path id="Trazado_579453" data-name="Trazado 579453" d="M-1072.9-51.887c-.337.438-.818.244-1.23.244q-15.253.018-30.505,0c-.537,0-1.187.209-1.48-.525a4.479,4.479,0,0,0,.109-1.579q.011-31.935,0-63.87a4.459,4.459,0,0,0-.109-1.579c.216-.608.738-.53,1.215-.53q15.519,0,31.037,0c.331,0,.72-.133.965.247a5.258,5.258,0,0,1,.108,1.583q0,32.21,0,64.421A5.224,5.224,0,0,1-1072.9-51.887Z" transform="translate(1106.39 119.743)" fill="#010100"/>
        <path id="Trazado_579454" data-name="Trazado 579454" d="M-982.07-51.145a2.8,2.8,0,0,1-.273-1.546q0-32.248,0-64.5a2.8,2.8,0,0,1,.274-1.546c.782.422.481,1.169.482,1.781q.024,26.036.013,52.072c0,4.074.006,8.147-.008,12.221C-981.585-52.119-981.377-51.477-982.07-51.145Z" transform="translate(1015.557 119.001)" fill="#030303"/>
        <path id="Trazado_579455" data-name="Trazado 579455" d="M-1106.865-117.682c.837.259.478.961.478,1.459q.031,20.441.017,40.882,0,11.614-.017,23.228c0,.5.359,1.2-.477,1.459-.4-.407-.236-.922-.237-1.389q-.012-32.125,0-64.25C-1107.1-116.76-1107.269-117.276-1106.865-117.682Z" transform="translate(1107.135 118.23)" fill="#030303"/>
        <path id="Trazado_579456" data-name="Trazado 579456" d="M-1062.931-111.091l0,.264a2.691,2.691,0,0,0-.132,1.432q-.011,29.956,0,59.911a2.69,2.69,0,0,0,.132,1.431l0,.265a10.423,10.423,0,0,1-2.614.127.608.608,0,0,1-.423-.146,1.151,1.151,0,0,1-.192-.43,1.9,1.9,0,0,1,.279-1.4,2.865,2.865,0,0,0,.649-2.1c0-4.385.013-8.77-.006-13.155-.007-1.684-.2-1.869-1.957-1.873-6.954-.015-13.908,0-20.861-.012a3.726,3.726,0,0,1-2.2-.327c-.25-.315.008-.442.216-.59a5.079,5.079,0,0,1,1.835-.15q9.993-.01,19.987-.01a3.186,3.186,0,0,0,1.681-.185,1.324,1.324,0,0,0,.177-.423c.16-2.275.021-4.549.069-6.821a4.783,4.783,0,0,1,.264-2.063,3.4,3.4,0,0,0,.805-2.444q-.016-13.593-.007-27.187a2.964,2.964,0,0,0-.636-2.229,1.94,1.94,0,0,1-.3-1.39,1.175,1.175,0,0,1,.169-.435.525.525,0,0,1,.4-.186A10.869,10.869,0,0,1-1062.931-111.091Z" transform="translate(1094.822 113.502)" fill="#a96e50"/>
        <path id="Trazado_579457" data-name="Trazado 579457" d="M-988.138-46.916c-.434-.392-.26-.912-.26-1.378q-.012-30.009,0-60.019c0-.465-.173-.985.26-1.378.018.353.051.706.052,1.058q0,30.329,0,60.658C-988.086-47.621-988.12-47.268-988.138-46.916Z" transform="translate(1020.025 112.366)" fill="#af7353"/>
        <path id="Trazado_579458" data-name="Trazado 579458" d="M-1099.32-46.968c-.018-.353-.051-.705-.051-1.058q0-30.328,0-60.657c0-.353.034-.705.051-1.058a.348.348,0,0,1,.438.18,2.633,2.633,0,0,1,.236,1.295c-.094,10.5-.019,21.01-.025,31.514,0,8.861.061,17.721-.017,26.581a7.2,7.2,0,0,1-.192,3.024A.351.351,0,0,1-1099.32-46.968Z" transform="translate(1101.439 112.417)" fill="#b68466"/>
        <path id="Trazado_579459" data-name="Trazado 579459" d="M-1099.17-111.751c.112-.532.549-.353.856-.353q12.866-.01,25.731.006a1.278,1.278,0,0,1,.259.054q.127.1.083.2t-.087.1l-.005,0a2.176,2.176,0,0,1-1.631.378q-11.714.01-23.427,0A2.9,2.9,0,0,1-1099.17-111.751Z" transform="translate(1101.29 114.158)" fill="#c68e6f"/>
        <path id="Trazado_579460" data-name="Trazado 579460" d="M-1099.173,124.936h.242a2.4,2.4,0,0,1,1.756-.44q11.541-.015,23.082,0a2.386,2.386,0,0,1,1.755.44l0,.269a1.774,1.774,0,0,1-1.034.124q-12.384.007-24.769,0a1.8,1.8,0,0,1-1.034-.122Z" transform="translate(1101.292 -59.487)" fill="#b38165"/>
        <path id="Trazado_579461" data-name="Trazado 579461" d="M-1099.172-110.7h26.837q0,.134,0,.269c-.92.729-2.01.263-3.011.431q-11.048.032-22.1,0a2.053,2.053,0,0,1-1.487-.432h-.242Z" transform="translate(1101.292 113.105)" fill="#b38165"/>
        <path id="Trazado_579462" data-name="Trazado 579462" d="M-1099.171,127.172h26.837l.005,0c.087.064.116.13.089.2s-.056.1-.084.1c-4.065.023-8.13.056-12.2.066q-6.7.018-13.4-.015C-1098.331,127.513-1098.908,127.834-1099.171,127.172Z" transform="translate(1101.291 -61.454)" fill="#c68e6f"/>
        <path id="Trazado_579463" data-name="Trazado 579463" d="M-998.312,127.464q0-.148,0-.3h2.929C-996.3,127.9-997.335,127.392-998.312,127.464Z" transform="translate(1027.279 -61.454)" fill="#b77857"/>
        <path id="Trazado_579464" data-name="Trazado 579464" d="M-998.317-111.8l0-.3c.978.073,2.015-.443,2.925.3Z" transform="translate(1027.279 114.209)" fill="#b77857"/>
        <path id="Trazado_579465" data-name="Trazado 579465" d="M-981.2-49.1V-114.34h.132v65.3Z" transform="translate(1014.714 115.778)"/>
        <path id="Trazado_579466" data-name="Trazado 579466" d="M-1105.9-114.467v65.3h-.13v-65.349Z" transform="translate(1106.323 115.905)"/>
        <path id="Trazado_579467" data-name="Trazado 579467" d="M-1068.322-105.93a1.28,1.28,0,0,1,1.05,1.455q-.016,14.684,0,29.368a1.283,1.283,0,0,1-1.051,1.456,2.361,2.361,0,0,1-1.639.389q-10.6.016-21.21,0a4.185,4.185,0,0,1-1.441-.176,1.787,1.787,0,0,1-.986-1.21,6.985,6.985,0,0,1-.1-1.584q-.005-13.789,0-27.579a5.391,5.391,0,0,1,.118-1.581,1.119,1.119,0,0,1,.3-.433,2.656,2.656,0,0,1,1.769-.433c7.224-.045,14.45.067,21.674-.056A2.133,2.133,0,0,1-1068.322-105.93Z" transform="translate(1097.274 109.889)" fill="#010101"/>
        <path id="Trazado_579468" data-name="Trazado 579468" d="M-1095.722,15.489q11.129.021,22.257.044c.706,0,1.411.028,2.117.044q0,4.631,0,9.261a2.448,2.448,0,0,1-1.664.261q-11.073.014-22.144.007a3.355,3.355,0,0,0-.681.05c-.588.016-1.208.823-1.762-.039a3.936,3.936,0,0,1,.094-2.839c.456-.441.808-.114,1.124.213.516.533.893,1.234,1.711,1.389a1.233,1.233,0,0,0,.418-.01,1.531,1.531,0,0,1-.917-.216.5.5,0,0,1-.227-.481.49.49,0,0,1,.412-.35,5.176,5.176,0,0,1,1.153.259,2.508,2.508,0,0,0,2.672-1.033,2.459,2.459,0,0,0,.067-2.968,3.058,3.058,0,0,1-.659-1.13c-.061-.2.034-.478-.177-.611a4.16,4.16,0,0,0-3.192.41,3.475,3.475,0,0,1-1.979,1.387,2.682,2.682,0,0,1,.192-3.859A4.016,4.016,0,0,1-1095.722,15.489Z" transform="translate(1100.3 20.661)" fill="#b78466"/>
        <path id="Trazado_579469" data-name="Trazado 579469" d="M-1092.855,53.935q7.433-.036,14.865-.07c3.009-.01,6.019.038,9.027-.022,1.228-.024,1.637.458,1.628,1.643-.036,4.912-.024,9.824-.006,14.736,0,.8-.191,1.4-1.052,1.587a2.563,2.563,0,0,1-1.776.391q-10.5.012-21,0c-.879,0-1.8.051-2.4-.818a32.082,32.082,0,0,1-.109-6.607,1.508,1.508,0,0,1,1.4-1.254c1.04.147,1.331.884,1.393,1.79.079,1.142-.051,2.289.1,3.426a.756.756,0,0,0,.217.375,3.541,3.541,0,0,0,1.577.145q8.173.012,16.343,0c.886-.116,1.832.313,2.662-.294a1.608,1.608,0,0,0,.139-.4c.046-3.681.007-7.358.017-11.035a1.706,1.706,0,0,0-.155-.9c-1.039-.812-2.235-.31-3.358-.4-5.208.02-10.415,0-15.621.014-1.788,0-1.845.075-1.868,1.865a17.155,17.155,0,0,1-.069,2.379c-.154,1.008-.628,1.649-1.782,1.427a1.521,1.521,0,0,1-.92-.831,33.405,33.405,0,0,1-.073-6.324A1.075,1.075,0,0,1-1092.855,53.935Z" transform="translate(1097.345 -7.644)" fill="#010100"/>
        <path id="Trazado_579470" data-name="Trazado 579470" d="M-1096.677-48.776a2.425,2.425,0,0,0,1.955.535q10.8-.005,21.595,0c.485,0,.97.029,1.454.044q0,.641,0,1.283h-26.594v-62.773h23.673c.281.2.678.383.5.807-.216.523-.74.382-1.162.382q-9.988.008-19.975,0c-.527,0-1.074-.113-1.41.454l.017-.028c-.175.1-.223.288-.325.439a2.669,2.669,0,0,0-.386.926q-.063,14.416,0,28.82a2.307,2.307,0,0,0,.426.9,3.674,3.674,0,0,0,.276.245c.1.3-.074.447-.306.567-.88-.121-.808.612-.93,1.1a2.036,2.036,0,0,0,.664,2.358.511.511,0,0,1,.235.449c-.334,1.555.464,2.7,1.36,3.806l.267.267c.19.165.452.257.532.532-1.051.253-1.458-.62-2.034-1.18-.2-.2-.246-.629-.639-.54-.364.083-.271.505-.413.76a1.27,1.27,0,0,0-.1.509c-.1,1.352.381,1.73,1.588,1.248.185.451-.158.744-.328,1.088a2.443,2.443,0,0,0-.222.332,28.623,28.623,0,0,0-.009,6.453,2.365,2.365,0,0,0,.217.327,2.363,2.363,0,0,1,.082,3.047,1.668,1.668,0,0,0-.269.288,22.806,22.806,0,0,0,.007,6.234A1.93,1.93,0,0,0-1096.677-48.776Z" transform="translate(1100.625 112.363)" fill="#b78466"/>
        <path id="Trazado_579471" data-name="Trazado 579471" d="M-1092.149-108.044c.009-.531.175-.746.8-.719,6.9.3,13.8.062,20.7.143.962.011,1.1-.338.536-1.068h2.921q0,.641,0,1.282-11.384.023-22.769.04A5.417,5.417,0,0,0-1092.149-108.044Z" transform="translate(1096.138 112.363)" fill="#b78466"/>
        <path id="Trazado_579472" data-name="Trazado 579472" d="M-1065.1,51.824c-.361.379-.831.23-1.254.23q-11.465.008-22.93,0-.114-.308.212-.348c7.646-.024,15.293,0,22.939-.006A1.716,1.716,0,0,1-1065.1,51.824Z" transform="translate(1094.06 -6.056)" fill="#c68e6f"/>
        <path id="Trazado_579473" data-name="Trazado 579473" d="M-1065.279,51.482l-24.2,0c-.068-.059-.09-.118-.068-.177s.045-.088.068-.088h24.2C-1065.28,51.3-1065.279,51.392-1065.279,51.482Z" transform="translate(1094.235 -5.714)" fill="#b38165"/>
        <path id="Trazado_579474" data-name="Trazado 579474" d="M-1092.208,51.217c0,.088,0,.177,0,.265a1.544,1.544,0,0,0,.017.23l-.281.3-.488.614a.387.387,0,0,1-.31-.341c-.037-.462.38-.7.532-1.064Z" transform="translate(1096.964 -5.717)" fill="#b68466"/>
        <path id="Trazado_579475" data-name="Trazado 579475" d="M-1084.328-68.565q-.028-11.449-.053-22.9c0-1.322.034-2.644.053-3.966a1.561,1.561,0,0,1,1.135-.262q8.368-.007,16.737,0a1.728,1.728,0,0,1,.9.155.71.71,0,0,1,.149.936,2.674,2.674,0,0,1-1.9.34c-4.538.027-9.076-.023-13.607.031a1.824,1.824,0,0,0-.34.183,7.018,7.018,0,0,0-1.044.95,24.278,24.278,0,0,0-.084,4.118,2.007,2.007,0,0,1,.653.551,4.324,4.324,0,0,0,.394.415,1.14,1.14,0,0,0,.4.158c4.559.066,9.113,0,13.667.034a2.649,2.649,0,0,1,1.907.354,3.29,3.29,0,0,1,.333,1.925q.013,7.476,0,14.951a3.123,3.123,0,0,1-.386,2.038,1.979,1.979,0,0,1-1.4.249q-8.062.012-16.125,0A1.95,1.95,0,0,1-1084.328-68.565Z" transform="translate(1090.437 102.096)" fill="#e4f1fe"/>
        <path id="Trazado_579476" data-name="Trazado 579476" d="M-1094.318-103.37l.316-.246q-.013,15.523-.027,31.047a.2.2,0,0,1-.041.31q-.124.007-.247.01a3.48,3.48,0,0,1-.38-1.921q0-13.643,0-27.287A3.1,3.1,0,0,1-1094.318-103.37Z" transform="translate(1098.007 107.908)" fill="#bd886a"/>
        <path id="Trazado_579477" data-name="Trazado 579477" d="M-1004.31-95.815c.022,4.809.06,9.618.061,14.427,0,4.324-.039,8.647-.061,12.97a.3.3,0,0,1-.433-.119,1.75,1.75,0,0,1-.19-.479c-.171-1.981-.072-3.967-.077-5.951q-.023-9.133,0-18.266a12.026,12.026,0,0,1,.074-1.982,1.676,1.676,0,0,1,.19-.481A.316.316,0,0,1-1004.31-95.815Z" transform="translate(1032.208 102.215)" fill="#cdeafe"/>
        <path id="Trazado_579478" data-name="Trazado 579478" d="M-1061.829-99.2h-21.09v-.133h21.143Z" transform="translate(1089.365 104.763)" fill="#040404"/>
        <path id="Trazado_579479" data-name="Trazado 579479" d="M-1061.822,10.739h-21.091v-.131h21.139Z" transform="translate(1089.36 24.084)" fill="#040404"/>
        <path id="Trazado_579480" data-name="Trazado 579480" d="M-1065.325,7.179l-15.8.084c-.8,0-1.594.012-2.391-.007-.271-.006-.668.135-.676-.376a1.18,1.18,0,0,1,.767-.13c5.96.011,11.92-.028,17.881.018A.34.34,0,0,1-1065.325,7.179Z" transform="translate(1090.295 26.92)" fill="#f6fefe"/>
        <path id="Trazado_579481" data-name="Trazado 579481" d="M-1065.33-95.853h-18.856v-.269a2.873,2.873,0,0,1,1.428-.121q8.4-.014,16.8-.006c.163,0,.328,0,.491.014l.2.142Z" transform="translate(1090.295 102.518)" fill="#dfecf9"/>
        <path id="Trazado_579482" data-name="Trazado 579482" d="M-1065.331,6.514l-18.856,0V6.242h18.856l.081.079v.114Z" transform="translate(1090.295 27.288)" fill="#dfecf9"/>
        <path id="Trazado_579483" data-name="Trazado 579483" d="M-1065.333-96.756l-18.856,0c-.014-.4.284-.381.542-.38q9.16.036,18.321.08.111.1.071.2T-1065.333-96.756Z" transform="translate(1090.296 103.151)" fill="#f6fefe"/>
        <path id="Trazado_579484" data-name="Trazado 579484" d="M-1013.34-96.891q0-.148.007-.3c.984.024,2.02-.46,2.928.3l-.271,0a2.4,2.4,0,0,1-2.649,0Z" transform="translate(1038.303 103.285)" fill="#d7f5fe"/>
        <path id="Trazado_579485" data-name="Trazado 579485" d="M-1013.333,6.43l-.006-.3.015-.013a2.4,2.4,0,0,1,2.649,0l.271,0C-1011.312,6.889-1012.349,6.407-1013.333,6.43Z" transform="translate(1038.303 27.668)" fill="#d7f5fe"/>
        <path id="Trazado_579486" data-name="Trazado 579486" d="M-1093.02,13.348l.041-.31.6.811a.8.8,0,0,1-.887.04Z" transform="translate(1096.958 22.301)" fill="#b68466"/>
        <path id="Trazado_579487" data-name="Trazado 579487" d="M-1088.279,23.346c1.936,2.057,1.552,4.62-.8,5.4a3.4,3.4,0,0,1-2.67-.378,2.556,2.556,0,0,1-1.518-1.905,2.054,2.054,0,0,1,0-.991,4.061,4.061,0,0,1,1.437-2.3,3.916,3.916,0,0,1,1.6-.557,1.548,1.548,0,0,1,.37-.011,6.955,6.955,0,0,1,1.063.247A1.022,1.022,0,0,1-1088.279,23.346Z" transform="translate(1097.005 15.28)" fill="#020101"/>
        <path id="Trazado_579488" data-name="Trazado 579488" d="M-1094.127,27.617a5.109,5.109,0,0,0,1.248,1.95l-.235.252a3.155,3.155,0,0,1-1.716-3.233c.061-.337.082-.682.121-1.023a7.8,7.8,0,0,1,1.6-1.33l.157.042a.453.453,0,0,1,.179.259,4.806,4.806,0,0,0-1.37,2.152C-1094.386,27.092-1094.385,27.157-1094.127,27.617Z" transform="translate(1098.134 14.086)" fill="#b68466"/>
        <path id="Trazado_579489" data-name="Trazado 579489" d="M-1084.578,22.318l-.545-.29c-.142-.33-.47-.224-.718-.305a1.5,1.5,0,0,0-1.047.025c-.49-.041-.851.6-1.4.263-.049-.637.288-.825.872-.8.734.027,1.472.03,2.207,0C-1084.233,21.169-1084.189,21.612-1084.578,22.318Z" transform="translate(1093.304 16.307)" fill="#b68466"/>
        <path id="Trazado_579490" data-name="Trazado 579490" d="M-1086.738,46.753a.924.924,0,0,1-.532-.531,1.039,1.039,0,0,1,.841.39Z" transform="translate(1092.557 -2.051)" fill="#b68466"/>
        <path id="Trazado_579491" data-name="Trazado 579491" d="M-1090.262,67.023c1.213.257,1.6-.345,1.573-1.457s.029-2.215-.018-3.32c-.032-.752.126-1.1,1-1.1,5.71.049,11.422.044,17.132.056a1.146,1.146,0,0,1,1.2,1.264c.049,3.7.06,7.392-.009,11.088a1.481,1.481,0,0,1-.347.978,2.478,2.478,0,0,1-1.425.19q-7.976.012-15.952,0a2.186,2.186,0,0,1-1.535-.261c-.017-1.268-.06-2.536-.042-3.8.012-.8-.2-1.377-1.053-1.56C-1090.266,68.5-1089.86,67.658-1090.262,67.023Z" transform="translate(1094.753 -13.005)" fill="#a96e51"/>
        <path id="Trazado_579492" data-name="Trazado 579492" d="M-1015.5,74.41c0-3.938-.017-7.877.021-11.815.007-.7-.144-1.183-.809-1.444,1.24.052,2.505-.322,3.715.227a40.825,40.825,0,0,0-.115,6.187,50.155,50.155,0,0,0,.119,6.846l0,.265a9.907,9.907,0,0,1-2.479.13,1.544,1.544,0,0,1-.412-.041A.232.232,0,0,1-1015.5,74.41Z" transform="translate(1040.467 -12.951)" fill="#985e49"/>
        <path id="Trazado_579493" data-name="Trazado 579493" d="M-1065.325,111.178v.267a1.216,1.216,0,0,1-.767.127q-8.663,0-17.325,0a1.243,1.243,0,0,1-.768-.125q0-.135,0-.27Z" transform="translate(1090.292 -49.719)" fill="#a56c4f"/>
        <path id="Trazado_579494" data-name="Trazado 579494" d="M-1084.184,112.183l18.86,0h0q.131.1.09.2c-.028.066-.056.1-.085.1q-9.064.03-18.129.054C-1083.728,112.528-1084.093,112.628-1084.184,112.183Z" transform="translate(1090.292 -50.454)" fill="#b67857"/>
        <path id="Trazado_579495" data-name="Trazado 579495" d="M-1003.064,75.248c-.329-.258-.265-.627-.266-.973q0-5.542,0-11.085c0-.345-.065-.714.262-.975Q-1003.066,68.731-1003.064,75.248Z" transform="translate(1030.961 -13.788)" fill="#9d614b"/>
        <path id="Trazado_579496" data-name="Trazado 579496" d="M-1092.467,81.523c1.041.475.359,1.383.524,2.078a1.593,1.593,0,0,0-1.034.891.206.206,0,0,1-.089-.2q.018-.11.048-.11c.152-1,.44-2.009-.248-2.936a.389.389,0,0,1,.31-.343Z" transform="translate(1096.957 -27.505)" fill="#b68466"/>
        <path id="Trazado_579497" data-name="Trazado 579497" d="M-1093.848,62.053l-.31.343h0a20.087,20.087,0,0,1,0-7.181h0l.31.341Z" transform="translate(1097.849 -8.651)" fill="#bd896a"/>
        <path id="Trazado_579498" data-name="Trazado 579498" d="M-1093.917,93.2l.041.306q-.016,3.3-.032,6.6h-.258a18.536,18.536,0,0,1,0-6.916C-1094.082,93.192-1094,93.2-1093.917,93.2Z" transform="translate(1097.856 -36.52)" fill="#be896a"/>
        <path id="Trazado_579499" data-name="Trazado 579499" d="M-1013.309,112.472l-.005-.295h2.931C-1011.3,112.889-1012.332,112.394-1013.309,112.472Z" transform="translate(1038.284 -50.452)" fill="#a5654e"/>
        <path id="Trazado_579500" data-name="Trazado 579500" d="M-1095.127-102.691q0,15.56,0,31.121a.923.923,0,0,1-.532-.532,1.766,1.766,0,0,1-.126-1.035q-.007-13.993,0-27.987a1.766,1.766,0,0,1,.126-1.035A.488.488,0,0,1-1095.127-102.691Z" transform="translate(1098.817 107.229)" fill="#b68466"/>
        <path id="Trazado_579501" data-name="Trazado 579501" d="M-1096.072-100.693v30.057c-.431-.392-.258-.911-.259-1.376q-.015-13.653,0-27.305C-1096.331-99.782-1096.5-100.3-1096.072-100.693Z" transform="translate(1099.231 105.763)" fill="#b78466"/>
        <path id="Trazado_579502" data-name="Trazado 579502" d="M-1094.737,55.215V62.4a.941.941,0,0,1-.534-.965q.01-2.625,0-5.251A.941.941,0,0,1-1094.737,55.215Z" transform="translate(1098.429 -8.651)" fill="#b68466"/>
        <path id="Trazado_579503" data-name="Trazado 579503" d="M-1094.862,93.192v6.916C-1095.634,99.177-1095.634,94.122-1094.862,93.192Z" transform="translate(1098.553 -36.52)" fill="#b68466"/>
        <path id="Trazado_579504" data-name="Trazado 579504" d="M-1056.118-95.133v26.864a5.6,5.6,0,0,1-2.652,0l-.013,0q0-9.442,0-18.884a1.132,1.132,0,0,0-.432-.231c-4.694-.088-9.388-.009-14.081-.043a3.11,3.11,0,0,1-1.689-.2l-.281-.308c.5-.509,1.148-.39,1.754-.391,4.508-.012,9.017,0,13.525-.009,1.609,0,1.792-.2,1.839-1.84.092-3.2.09-3.2-3.057-3.2-3.845,0-7.691.01-11.536-.01-.687,0-1.434.145-1.991-.463,0-.073,0-.146,0-.219a2.321,2.321,0,0,1,1.293-.129c4.455-.01,8.909,0,13.364-.012a2.321,2.321,0,0,0,1.293-.13q0-.4,0-.8l.013,0A5.6,5.6,0,0,1-1056.118-95.133Z" transform="translate(1083.748 101.799)" fill="#c6e2fe"/>
        <path id="Trazado_579505" data-name="Trazado 579505" d="M-1076.661-89.855l15.134.047c1.7.005,1.847.149,1.854,1.789,0,.974,0,1.947,0,2.921,0,.8-.371,1.26-1.2,1.252-5.442-.054-10.885.132-16.325-.1l-.494-.629a12.46,12.46,0,0,1-.02-4.4A1.53,1.53,0,0,1-1076.661-89.855Z" transform="translate(1085.675 97.81)" fill="#030303"/>
        <path id="Trazado_579506" data-name="Trazado 579506" d="M-1074.26-66.568q7.606-.011,15.213-.019c.342,0,.715-.088.992.222a2.05,2.05,0,0,1-1.164.126q-6.948.011-13.9,0a2.093,2.093,0,0,1-1.165-.124A1.154,1.154,0,0,1-1074.26-66.568Z" transform="translate(1083.023 80.743)" fill="#f6fefe"/>
        <path id="Trazado_579507" data-name="Trazado 579507" d="M-1074.278-65.717l16.223,0q0,.135,0,.269-7.422,0-14.844-.009C-1073.367-65.46-1073.885-65.287-1074.278-65.717Z" transform="translate(1083.023 80.097)" fill="#dfecf9"/>
        <path id="Trazado_579508" data-name="Trazado 579508" d="M-1057.31-91.851c-.388.44-.909.26-1.372.261q-7.289.02-14.578.009c.245-.531.719-.255,1.07-.256C-1067.23-91.858-1062.27-91.851-1057.31-91.851Z" transform="translate(1082.276 99.316)" fill="#e7f4fe"/>
        <path id="Trazado_579509" data-name="Trazado 579509" d="M-1078.037-86.7q.01,2.2.02,4.4l-.221.058a26.2,26.2,0,0,1-.017-4.477c0-.016.069-.042.1-.038A.369.369,0,0,1-1078.037-86.7Z" transform="translate(1086.006 95.534)" fill="#edf9fe"/>
        <path id="Trazado_579510" data-name="Trazado 579510" d="M-1010.643-95.422h-2.652a2.359,2.359,0,0,1,0-.259l2.649,0C-1010.643-95.6-1010.642-95.51-1010.643-95.422Z" transform="translate(1038.273 102.089)" fill="#c2ddf9"/>
        <path id="Trazado_579511" data-name="Trazado 579511" d="M-1013.294,6.24h2.652q0,.132,0,.264l-2.649,0A2.32,2.32,0,0,1-1013.294,6.24Z" transform="translate(1038.272 27.29)" fill="#c2ddf9"/>
        <path id="Trazado_579512" data-name="Trazado 579512" d="M-1082.409,32.491a.883.883,0,0,1-1.058.774.875.875,0,0,1-.867-.967c.021-.624.4-1.034,1.007-.946A.987.987,0,0,1-1082.409,32.491Z" transform="translate(1090.403 8.87)" fill="#f3cc73"/>
        <path id="Trazado_579513" data-name="Trazado 579513" d="M-1088.27,22.767l1.331-.531c.149.208.485.051.607.312l-1.6.52Z" transform="translate(1093.291 15.551)" fill="#b78466"/>
        <path id="Trazado_579514" data-name="Trazado 579514" d="M-1093.094,33.523c-.643-.323-.261-.807-.2-1.242l.176.311Q-1093.1,33.058-1093.094,33.523Z" transform="translate(1097.101 8.18)" fill="#c18b6b"/>
        <path id="Trazado_579515" data-name="Trazado 579515" d="M-1079.954,22.235c.151.2.7.034.5.549l-1.108-.237C-1080.439,22.286-1080.1,22.443-1079.954,22.235Z" transform="translate(1087.634 15.552)" fill="#b78466"/>
        <path id="Trazado_579516" data-name="Trazado 579516" d="M-1081.94,22.235l-.607.311h-.114l-.607-.312Z" transform="translate(1089.62 15.552)" fill="#c38d6d"/>
        <path id="Trazado_579517" data-name="Trazado 579517" d="M-1058.622-79.589q-5.069.024-10.139.05c-1.437.009-.583-1.023-.737-1.6a55.653,55.653,0,0,1,6.436-.117c1.448-.024,2.9-.076,4.348.042A1.066,1.066,0,0,1-1058.622-79.589Z" transform="translate(1079.598 91.525)" fill="#fcd277"/>
        <path id="Trazado_579518" data-name="Trazado 579518" d="M-1028.32-79.564q0-.774,0-1.548l.2-.112a10.667,10.667,0,0,1,2.731.115c.288,1.171-.007,1.819-1.371,1.6A12.689,12.689,0,0,0-1028.32-79.564Z" transform="translate(1049.296 91.499)" fill="#fcb96d"/>
        <path id="Trazado_579519" data-name="Trazado 579519" d="M-1073.061-69.432h15.567v.133h-15.612Z" transform="translate(1082.163 82.822)" fill="#040404"/>
        <path id="Trazado_579520" data-name="Trazado 579520" d="M-1068.071-84.563h13.111v.132h-13.162Z" transform="translate(1078.505 93.926)" fill="#040302"/>
        <path id="Trazado_579521" data-name="Trazado 579521" d="M-1058.308-81.747h-10.877c0-.4.3-.376.554-.374q5.163.032,10.326.075.208.151,0,.3Z" transform="translate(1079.285 92.135)" fill="#fee480"/>
        <path id="Trazado_579522" data-name="Trazado 579522" d="M-1028.305-81.918v-.3c.98.066,2.026-.513,2.929.3Z" transform="translate(1049.286 92.308)" fill="#feca76"/>
      </g>
      <g id="Grupo_843963" data-name="Grupo 843963" transform="translate(-1229.007 -119.743)">
        <path id="Trazado_579523" data-name="Trazado 579523" d="M-1227.3-51.887c.337.438.818.244,1.23.244q15.253.018,30.505,0c.537,0,1.187.209,1.48-.525a4.473,4.473,0,0,1-.108-1.579q-.012-31.935,0-63.87a4.453,4.453,0,0,1,.109-1.579c-.216-.608-.738-.53-1.215-.53q-15.519,0-31.037,0c-.331,0-.72-.133-.965.247a5.261,5.261,0,0,0-.108,1.583q0,32.21,0,64.421A5.224,5.224,0,0,0-1227.3-51.887Z" transform="translate(1227.843 119.743)" fill="#010100"/>
        <path id="Trazado_579524" data-name="Trazado 579524" d="M-1228.468-51.145a2.8,2.8,0,0,0,.273-1.546q0-32.248,0-64.5a2.8,2.8,0,0,0-.274-1.546c-.782.422-.481,1.169-.482,1.781q-.024,26.036-.013,52.072c0,4.074-.006,8.147.009,12.221C-1228.953-52.119-1229.161-51.477-1228.468-51.145Z" transform="translate(1229.007 119.001)" fill="#030303"/>
        <path id="Trazado_579525" data-name="Trazado 579525" d="M-1103.707-117.682c-.837.259-.477.961-.478,1.459q-.031,20.441-.016,40.882,0,11.614.017,23.228c0,.5-.359,1.2.477,1.459.4-.407.237-.922.237-1.389q.012-32.125,0-64.25C-1103.471-116.76-1103.3-117.276-1103.707-117.682Z" transform="translate(1137.462 118.23)" fill="#030303"/>
        <path id="Trazado_579526" data-name="Trazado 579526" d="M-1220.987-111.091l0,.264a2.691,2.691,0,0,1,.132,1.432q.011,29.956,0,59.911a2.69,2.69,0,0,1-.132,1.431l0,.265a10.425,10.425,0,0,0,2.614.127.608.608,0,0,0,.423-.146,1.155,1.155,0,0,0,.192-.43,1.9,1.9,0,0,0-.279-1.4,2.863,2.863,0,0,1-.649-2.1c0-4.385-.014-8.77.005-13.155.008-1.684.2-1.869,1.958-1.873,6.954-.015,13.907,0,20.861-.012a3.725,3.725,0,0,0,2.2-.327c.25-.315-.008-.442-.216-.59a5.078,5.078,0,0,0-1.834-.15q-9.993-.01-19.987-.01a3.184,3.184,0,0,1-1.681-.185,1.313,1.313,0,0,1-.177-.423c-.16-2.275-.021-4.549-.069-6.821a4.781,4.781,0,0,0-.264-2.063,3.4,3.4,0,0,1-.805-2.444q.016-13.593.007-27.187a2.965,2.965,0,0,1,.636-2.229,1.938,1.938,0,0,0,.3-1.39,1.173,1.173,0,0,0-.169-.435.525.525,0,0,0-.4-.186A10.871,10.871,0,0,0-1220.987-111.091Z" transform="translate(1223.122 113.502)" fill="#a96e50"/>
        <path id="Trazado_579527" data-name="Trazado 579527" d="M-1221.119-46.916c.433-.392.26-.912.26-1.378q.013-30.009,0-60.019c0-.465.173-.985-.26-1.378-.018.353-.052.706-.052,1.058q0,30.329,0,60.658C-1221.171-47.621-1221.137-47.268-1221.119-46.916Z" transform="translate(1223.258 112.366)" fill="#af7353"/>
        <path id="Trazado_579528" data-name="Trazado 579528" d="M-1111.052-46.968c.018-.353.051-.705.052-1.058q0-30.328,0-60.657c0-.353-.034-.705-.052-1.058a.348.348,0,0,0-.438.18,2.63,2.63,0,0,0-.237,1.295c.094,10.5.019,21.01.025,31.514,0,8.861-.062,17.721.017,26.581a7.194,7.194,0,0,0,.192,3.024A.352.352,0,0,0-1111.052-46.968Z" transform="translate(1142.958 112.417)" fill="#b68466"/>
        <path id="Trazado_579529" data-name="Trazado 579529" d="M-1183.411-111.751c-.112-.532-.549-.353-.857-.353q-12.865-.01-25.731.006a1.282,1.282,0,0,0-.259.054q-.127.1-.082.2t.087.1l.005,0a2.176,2.176,0,0,0,1.631.378q11.714.01,23.428,0A2.9,2.9,0,0,0-1183.411-111.751Z" transform="translate(1215.316 114.158)" fill="#c68e6f"/>
        <path id="Trazado_579530" data-name="Trazado 579530" d="M-1183.125,124.936h-.242a2.4,2.4,0,0,0-1.756-.44q-11.541-.015-23.082,0a2.387,2.387,0,0,0-1.756.44l0,.269a1.775,1.775,0,0,0,1.034.124q12.385.007,24.769,0a1.8,1.8,0,0,0,1.035-.122Z" transform="translate(1215.031 -59.487)" fill="#b38165"/>
        <path id="Trazado_579531" data-name="Trazado 579531" d="M-1183.125-110.7h-26.837q0,.134,0,.269c.921.729,2.01.263,3.011.431q11.048.032,22.1,0a2.053,2.053,0,0,0,1.487-.432h.242Z" transform="translate(1215.031 113.105)" fill="#b38165"/>
        <path id="Trazado_579532" data-name="Trazado 579532" d="M-1183.411,127.172h-26.837l-.005,0q-.13.1-.089.2t.084.1c4.065.023,8.13.056,12.2.066q6.7.018,13.4-.015C-1184.251,127.513-1183.674,127.834-1183.411,127.172Z" transform="translate(1215.316 -61.454)" fill="#c68e6f"/>
        <path id="Trazado_579533" data-name="Trazado 579533" d="M-1218.062,127.464c0-.1,0-.2,0-.3h-2.929C-1220.077,127.9-1219.04,127.392-1218.062,127.464Z" transform="translate(1223.122 -61.454)" fill="#b77857"/>
        <path id="Trazado_579534" data-name="Trazado 579534" d="M-1218.058-111.8l0-.3c-.978.073-2.015-.443-2.925.3Z" transform="translate(1223.122 114.209)" fill="#b77857"/>
        <path id="Trazado_579535" data-name="Trazado 579535" d="M-1227.464-49.1V-114.34h-.131v65.3Z" transform="translate(1227.971 115.778)"/>
        <path id="Trazado_579536" data-name="Trazado 579536" d="M-1102.76-114.467v65.3h.131v-65.349Z" transform="translate(1136.36 115.905)"/>
        <path id="Trazado_579537" data-name="Trazado 579537" d="M-1212.843-105.93a1.28,1.28,0,0,0-1.05,1.455q.016,14.684,0,29.368a1.283,1.283,0,0,0,1.05,1.456,2.361,2.361,0,0,0,1.639.389q10.6.016,21.21,0a4.183,4.183,0,0,0,1.441-.176,1.787,1.787,0,0,0,.986-1.21,7,7,0,0,0,.1-1.584q.005-13.789,0-27.579a5.391,5.391,0,0,0-.118-1.581,1.118,1.118,0,0,0-.3-.433,2.657,2.657,0,0,0-1.769-.433c-7.225-.045-14.45.067-21.674-.056A2.134,2.134,0,0,0-1212.843-105.93Z" transform="translate(1217.916 109.889)" fill="#010101"/>
        <path id="Trazado_579538" data-name="Trazado 579538" d="M-1185.578,15.489q-11.129.021-22.257.044c-.706,0-1.411.028-2.117.044q0,4.631,0,9.261a2.448,2.448,0,0,0,1.665.261q11.073.014,22.144.007a3.353,3.353,0,0,1,.681.05c.588.016,1.209.823,1.762-.039a3.936,3.936,0,0,0-.094-2.839c-.456-.441-.808-.114-1.124.213-.516.533-.892,1.234-1.711,1.389a1.233,1.233,0,0,1-.418-.01,1.532,1.532,0,0,0,.917-.216.5.5,0,0,0,.226-.481.49.49,0,0,0-.412-.35,5.172,5.172,0,0,0-1.153.259,2.508,2.508,0,0,1-2.673-1.033,2.46,2.46,0,0,1-.067-2.968,3.06,3.06,0,0,0,.659-1.13c.062-.2-.034-.478.177-.611a4.16,4.16,0,0,1,3.192.41,3.478,3.478,0,0,0,1.979,1.387,2.683,2.683,0,0,0-.192-3.859A4.016,4.016,0,0,0-1185.578,15.489Z" transform="translate(1215.025 20.661)" fill="#b78466"/>
        <path id="Trazado_579539" data-name="Trazado 579539" d="M-1188.4,53.935q-7.433-.036-14.866-.07c-3.009-.01-6.019.038-9.027-.022-1.228-.024-1.637.458-1.628,1.643.036,4.912.024,9.824.006,14.736,0,.8.191,1.4,1.052,1.587a2.564,2.564,0,0,0,1.776.391q10.5.012,21,0c.879,0,1.8.051,2.4-.818a32.091,32.091,0,0,0,.109-6.607,1.508,1.508,0,0,0-1.4-1.254c-1.039.147-1.331.884-1.393,1.79-.079,1.142.051,2.289-.1,3.426a.754.754,0,0,1-.218.375,3.54,3.54,0,0,1-1.577.145q-8.173.012-16.344,0c-.886-.116-1.832.313-2.662-.294a1.638,1.638,0,0,1-.139-.4c-.046-3.681-.007-7.358-.017-11.035a1.709,1.709,0,0,1,.155-.9c1.04-.812,2.235-.31,3.358-.4,5.208.02,10.415,0,15.621.014,1.789,0,1.845.075,1.868,1.865a17.1,17.1,0,0,0,.069,2.379c.154,1.008.628,1.649,1.782,1.427a1.52,1.52,0,0,0,.92-.831,33.4,33.4,0,0,0,.073-6.324A1.076,1.076,0,0,0-1188.4,53.935Z" transform="translate(1217.937 -7.644)" fill="#010100"/>
        <path id="Trazado_579540" data-name="Trazado 579540" d="M-1184.949-48.776a2.425,2.425,0,0,1-1.955.535q-10.8-.005-21.594,0c-.485,0-.97.029-1.454.044q0,.641,0,1.283h26.594v-62.773h-23.673c-.281.2-.678.383-.5.807.216.523.74.382,1.162.382q9.988.008,19.975,0c.527,0,1.074-.113,1.411.454l-.017-.028c.175.1.223.288.325.439a2.668,2.668,0,0,1,.386.926q.063,14.416,0,28.82a2.305,2.305,0,0,1-.426.9c-.088.086-.179.168-.275.245-.1.3.074.447.305.567.88-.121.808.612.93,1.1a2.036,2.036,0,0,1-.664,2.358.511.511,0,0,0-.235.449c.334,1.555-.464,2.7-1.36,3.806l-.267.267c-.19.165-.451.257-.532.532,1.051.253,1.457-.62,2.034-1.18.2-.2.246-.629.639-.54.364.083.271.505.413.76a1.262,1.262,0,0,1,.1.509c.1,1.352-.381,1.73-1.588,1.248-.184.451.158.744.328,1.088a2.432,2.432,0,0,1,.222.332,28.609,28.609,0,0,1,.009,6.453,2.333,2.333,0,0,1-.217.327,2.363,2.363,0,0,0-.081,3.047,1.687,1.687,0,0,1,.269.288,22.811,22.811,0,0,1-.008,6.234A1.924,1.924,0,0,1-1184.949-48.776Z" transform="translate(1215.026 112.363)" fill="#b78466"/>
        <path id="Trazado_579541" data-name="Trazado 579541" d="M-1184.989-108.044c-.009-.531-.175-.746-.8-.719-6.9.3-13.8.062-20.7.143-.962.011-1.1-.338-.536-1.068h-2.921q0,.641,0,1.282,11.385.023,22.769.04A5.419,5.419,0,0,1-1184.989-108.044Z" transform="translate(1215.026 112.363)" fill="#b78466"/>
        <path id="Trazado_579542" data-name="Trazado 579542" d="M-1209.96,51.824c.362.379.831.23,1.254.23q11.465.008,22.93,0,.114-.308-.212-.348c-7.646-.024-15.293,0-22.939-.006A1.716,1.716,0,0,0-1209.96,51.824Z" transform="translate(1215.029 -6.056)" fill="#c68e6f"/>
        <path id="Trazado_579543" data-name="Trazado 579543" d="M-1209.96,51.482l24.2,0c.068-.059.09-.118.068-.177s-.045-.088-.068-.088h-24.2C-1209.959,51.3-1209.959,51.392-1209.96,51.482Z" transform="translate(1215.029 -5.714)" fill="#b38165"/>
        <path id="Trazado_579544" data-name="Trazado 579544" d="M-1119.074,51.217q0,.133,0,.265a1.543,1.543,0,0,1-.016.23l.282.3.488.614a.386.386,0,0,0,.31-.341c.037-.462-.38-.7-.532-1.064Z" transform="translate(1148.344 -5.717)" fill="#b68466"/>
        <path id="Trazado_579545" data-name="Trazado 579545" d="M-1177.355-68.565q.028-11.449.053-22.9c0-1.322-.034-2.644-.053-3.966a1.561,1.561,0,0,0-1.135-.262q-8.368-.007-16.737,0a1.729,1.729,0,0,0-.905.155.71.71,0,0,0-.149.936,2.674,2.674,0,0,0,1.9.34c4.538.027,9.076-.023,13.607.031a1.826,1.826,0,0,1,.34.183,7.022,7.022,0,0,1,1.044.95,24.278,24.278,0,0,1,.084,4.118,2.01,2.01,0,0,0-.653.551,4.264,4.264,0,0,1-.394.415,1.139,1.139,0,0,1-.4.158c-4.559.066-9.113,0-13.667.034a2.65,2.65,0,0,0-1.907.354,3.292,3.292,0,0,0-.333,1.925q-.013,7.476,0,14.951a3.12,3.12,0,0,0,.386,2.038,1.979,1.979,0,0,0,1.4.249q8.062.012,16.125,0A1.95,1.95,0,0,0-1177.355-68.565Z" transform="translate(1205.272 102.096)" fill="#e4f1fe"/>
        <path id="Trazado_579546" data-name="Trazado 579546" d="M-1115.984-103.37l-.316-.246q.013,15.523.026,31.047a.2.2,0,0,0,.041.31q.124.007.247.01a3.482,3.482,0,0,0,.38-1.921q0-13.643,0-27.287A3.1,3.1,0,0,0-1115.984-103.37Z" transform="translate(1146.321 107.908)" fill="#bd886a"/>
        <path id="Trazado_579547" data-name="Trazado 579547" d="M-1206.153-95.815c-.022,4.809-.06,9.618-.061,14.427,0,4.324.039,8.647.061,12.97a.3.3,0,0,0,.433-.119,1.77,1.77,0,0,0,.19-.479c.17-1.981.072-3.967.077-5.951q.023-9.133,0-18.266a12.072,12.072,0,0,0-.073-1.982,1.684,1.684,0,0,0-.19-.481A.316.316,0,0,0-1206.153-95.815Z" transform="translate(1212.28 102.215)" fill="#cdeafe"/>
        <path id="Trazado_579548" data-name="Trazado 579548" d="M-1204.766-99.2h21.091v-.133h-21.143Z" transform="translate(1211.256 104.763)" fill="#040404"/>
        <path id="Trazado_579549" data-name="Trazado 579549" d="M-1204.763,10.739h21.091v-.131h-21.139Z" transform="translate(1211.25 24.084)" fill="#040404"/>
        <path id="Trazado_579550" data-name="Trazado 579550" d="M-1195.008,7.179l15.8.084c.8,0,1.594.012,2.391-.007.271-.006.668.135.676-.376a1.181,1.181,0,0,0-.767-.13c-5.96.011-11.921-.028-17.881.018A.34.34,0,0,0-1195.008,7.179Z" transform="translate(1204.064 26.92)" fill="#f6fefe"/>
        <path id="Trazado_579551" data-name="Trazado 579551" d="M-1195.121-95.853h18.856l0-.269a2.873,2.873,0,0,0-1.428-.121q-8.4-.014-16.8-.006c-.164,0-.328,0-.491.014l-.2.142Z" transform="translate(1204.182 102.518)" fill="#dfecf9"/>
        <path id="Trazado_579552" data-name="Trazado 579552" d="M-1195.187,6.514l18.856,0,0-.269h-18.856l-.081.079v.114Z" transform="translate(1204.249 27.288)" fill="#dfecf9"/>
        <path id="Trazado_579553" data-name="Trazado 579553" d="M-1195.2-96.756l18.856,0c.014-.4-.285-.381-.542-.38q-9.16.036-18.321.08-.111.1-.071.2C-1195.254-96.789-1195.228-96.756-1195.2-96.756Z" transform="translate(1204.265 103.151)" fill="#f6fefe"/>
        <path id="Trazado_579554" data-name="Trazado 579554" d="M-1203.05-96.891c0-.1,0-.2-.007-.3-.984.024-2.02-.46-2.928.3l.271,0a2.4,2.4,0,0,0,2.649,0Z" transform="translate(1212.111 103.285)" fill="#d7f5fe"/>
        <path id="Trazado_579555" data-name="Trazado 579555" d="M-1203.056,6.43q0-.148.007-.3l-.015-.013a2.4,2.4,0,0,0-2.649,0l-.271,0C-1205.076,6.889-1204.04,6.407-1203.056,6.43Z" transform="translate(1212.111 27.668)" fill="#d7f5fe"/>
        <path id="Trazado_579556" data-name="Trazado 579556" d="M-1117.723,13.348l-.041-.31-.6.811a.8.8,0,0,0,.887.04Z" transform="translate(1147.811 22.301)" fill="#b68466"/>
        <path id="Trazado_579557" data-name="Trazado 579557" d="M-1137.363,23.346c-1.936,2.057-1.552,4.62.8,5.4a3.4,3.4,0,0,0,2.67-.378,2.555,2.555,0,0,0,1.518-1.905,2.052,2.052,0,0,0,0-.991,4.061,4.061,0,0,0-1.437-2.3,3.916,3.916,0,0,0-1.6-.557,1.549,1.549,0,0,0-.37-.011,6.96,6.96,0,0,0-1.063.247A1.024,1.024,0,0,0-1137.363,23.346Z" transform="translate(1162.662 15.28)" fill="#020101"/>
        <path id="Trazado_579558" data-name="Trazado 579558" d="M-1119.941,27.617a5.11,5.11,0,0,1-1.249,1.95l.235.252a3.155,3.155,0,0,0,1.716-3.233c-.061-.337-.081-.682-.12-1.023a7.809,7.809,0,0,0-1.6-1.33l-.157.042a.451.451,0,0,0-.179.259,4.8,4.8,0,0,1,1.37,2.152C-1119.682,27.092-1119.683,27.157-1119.941,27.617Z" transform="translate(1149.959 14.086)" fill="#b68466"/>
        <path id="Trazado_579559" data-name="Trazado 579559" d="M-1134.579,22.318l.545-.29c.142-.33.469-.224.718-.305a1.5,1.5,0,0,1,1.047.025c.49-.041.851.6,1.4.263.049-.637-.288-.825-.872-.8-.735.027-1.472.03-2.207,0C-1134.924,21.169-1134.968,21.612-1134.579,22.318Z" transform="translate(1159.879 16.307)" fill="#b68466"/>
        <path id="Trazado_579560" data-name="Trazado 579560" d="M-1123.879,46.753a.923.923,0,0,0,.532-.531,1.039,1.039,0,0,0-.841.39Z" transform="translate(1152.085 -2.051)" fill="#b68466"/>
        <path id="Trazado_579561" data-name="Trazado 579561" d="M-1175.734,67.023c-1.213.257-1.6-.345-1.573-1.457s-.029-2.215.018-3.32c.032-.752-.126-1.1-1-1.1-5.71.049-11.421.044-17.132.056a1.146,1.146,0,0,0-1.2,1.264c-.05,3.7-.06,7.392.009,11.088a1.483,1.483,0,0,0,.347.978,2.478,2.478,0,0,0,1.425.19q7.976.012,15.952,0a2.186,2.186,0,0,0,1.535-.261c.017-1.268.06-2.536.042-3.8-.012-.8.2-1.377,1.053-1.56C-1175.73,68.5-1176.136,67.658-1175.734,67.023Z" transform="translate(1205.269 -13.005)" fill="#a96e51"/>
        <path id="Trazado_579562" data-name="Trazado 579562" d="M-1203.062,74.41c0-3.938.017-7.877-.021-11.815-.007-.7.144-1.183.809-1.444-1.24.052-2.505-.322-3.714.227a40.881,40.881,0,0,1,.115,6.187,50.214,50.214,0,0,1-.119,6.846l0,.265a9.907,9.907,0,0,0,2.479.13,1.544,1.544,0,0,0,.412-.041A.232.232,0,0,0-1203.062,74.41Z" transform="translate(1212.12 -12.951)" fill="#985e49"/>
        <path id="Trazado_579563" data-name="Trazado 579563" d="M-1194.977,111.178v.267a1.216,1.216,0,0,0,.767.127q8.662,0,17.325,0a1.242,1.242,0,0,0,.768-.125q0-.135,0-.27Z" transform="translate(1204.035 -49.719)" fill="#a56c4f"/>
        <path id="Trazado_579564" data-name="Trazado 579564" d="M-1176.4,112.183l-18.86,0h0q-.131.1-.09.2c.028.066.056.1.085.1q9.064.03,18.129.054C-1176.854,112.528-1176.488,112.628-1176.4,112.183Z" transform="translate(1204.315 -50.454)" fill="#b67857"/>
        <path id="Trazado_579565" data-name="Trazado 579565" d="M-1205.981,75.248c.329-.258.265-.627.266-.973q0-5.542,0-11.085c0-.345.065-.714-.261-.975Q-1205.979,68.731-1205.981,75.248Z" transform="translate(1212.109 -13.788)" fill="#9d614b"/>
        <path id="Trazado_579566" data-name="Trazado 579566" d="M-1119.67,81.523c-1.041.475-.359,1.383-.524,2.078a1.592,1.592,0,0,1,1.034.891.205.205,0,0,0,.089-.2q-.018-.11-.048-.11c-.152-1-.44-2.009.248-2.936a.389.389,0,0,0-.31-.343Z" transform="translate(1149.205 -27.505)" fill="#b68466"/>
        <path id="Trazado_579567" data-name="Trazado 579567" d="M-1116.2,62.053l.31.343h0a20.087,20.087,0,0,0,0-7.181h0l-.31.341Z" transform="translate(1146.222 -8.651)" fill="#bd896a"/>
        <path id="Trazado_579568" data-name="Trazado 579568" d="M-1116.077,93.2c-.014.1-.027.2-.041.306q.016,3.3.032,6.6h.258a18.541,18.541,0,0,0,0-6.916C-1115.911,93.192-1115.994,93.2-1116.077,93.2Z" transform="translate(1146.163 -36.52)" fill="#be896a"/>
        <path id="Trazado_579569" data-name="Trazado 579569" d="M-1203.07,112.472l.005-.295h-2.931C-1205.082,112.889-1204.047,112.394-1203.07,112.472Z" transform="translate(1212.12 -50.452)" fill="#a5654e"/>
        <path id="Trazado_579570" data-name="Trazado 579570" d="M-1115.028-102.691q0,15.56,0,31.121a.923.923,0,0,0,.532-.532,1.766,1.766,0,0,0,.126-1.035q.007-13.993,0-27.987a1.766,1.766,0,0,0-.126-1.035A.488.488,0,0,0-1115.028-102.691Z" transform="translate(1145.365 107.229)" fill="#b68466"/>
        <path id="Trazado_579571" data-name="Trazado 579571" d="M-1113.032-100.693v30.057c.431-.392.258-.911.259-1.376q.015-13.653,0-27.305C-1112.774-99.782-1112.6-100.3-1113.032-100.693Z" transform="translate(1143.898 105.763)" fill="#b78466"/>
        <path id="Trazado_579572" data-name="Trazado 579572" d="M-1115.032,55.215V62.4a.941.941,0,0,0,.534-.965q-.01-2.625,0-5.251A.941.941,0,0,0-1115.032,55.215Z" transform="translate(1145.366 -8.651)" fill="#b68466"/>
        <path id="Trazado_579573" data-name="Trazado 579573" d="M-1115.03,93.192v6.916C-1114.259,99.177-1114.259,94.122-1115.03,93.192Z" transform="translate(1145.365 -36.52)" fill="#b68466"/>
        <path id="Trazado_579574" data-name="Trazado 579574" d="M-1204.976-95.133v26.864a5.6,5.6,0,0,0,2.652,0l.013,0q0-9.442,0-18.884a1.131,1.131,0,0,1,.432-.231c4.694-.088,9.388-.009,14.081-.043a3.111,3.111,0,0,0,1.689-.2l.281-.308c-.5-.509-1.148-.39-1.754-.391-4.508-.012-9.016,0-13.525-.009-1.609,0-1.792-.2-1.839-1.84-.092-3.2-.09-3.2,3.057-3.2,3.846,0,7.691.01,11.536-.01.687,0,1.435.145,1.992-.463q0-.11,0-.219a2.321,2.321,0,0,0-1.293-.129c-4.454-.01-8.909,0-13.364-.012a2.321,2.321,0,0,1-1.293-.13q0-.4,0-.8l-.013,0A5.605,5.605,0,0,0-1204.976-95.133Z" transform="translate(1211.372 101.799)" fill="#c6e2fe"/>
        <path id="Trazado_579575" data-name="Trazado 579575" d="M-1181.879-89.855l-15.134.047c-1.695.005-1.847.149-1.854,1.789,0,.974,0,1.947,0,2.921,0,.8.37,1.26,1.2,1.252,5.442-.054,10.885.132,16.325-.1l.494-.629a12.462,12.462,0,0,0,.019-4.4A1.529,1.529,0,0,0-1181.879-89.855Z" transform="translate(1206.89 97.81)" fill="#030303"/>
        <path id="Trazado_579576" data-name="Trazado 579576" d="M-1178.771-66.568q-7.607-.011-15.213-.019c-.342,0-.715-.088-.992.222a2.051,2.051,0,0,0,1.164.126q6.947.011,13.895,0a2.093,2.093,0,0,0,1.165-.124A1.177,1.177,0,0,0-1178.771-66.568Z" transform="translate(1204.033 80.743)" fill="#f6fefe"/>
        <path id="Trazado_579577" data-name="Trazado 579577" d="M-1178.753-65.717l-16.223,0c0,.09,0,.179,0,.269q7.422,0,14.844-.009C-1179.664-65.46-1179.145-65.287-1178.753-65.717Z" transform="translate(1204.033 80.097)" fill="#dfecf9"/>
        <path id="Trazado_579578" data-name="Trazado 579578" d="M-1194.969-91.851c.389.44.909.26,1.372.261q7.289.02,14.579.009c-.245-.531-.719-.255-1.07-.256C-1185.048-91.858-1190.009-91.851-1194.969-91.851Z" transform="translate(1204.028 99.316)" fill="#e7f4fe"/>
        <path id="Trazado_579579" data-name="Trazado 579579" d="M-1131.158-86.7q-.01,2.2-.019,4.4l.221.058a26.178,26.178,0,0,0,.017-4.477c0-.016-.069-.042-.1-.038A.369.369,0,0,0-1131.158-86.7Z" transform="translate(1157.214 95.534)" fill="#edf9fe"/>
        <path id="Trazado_579580" data-name="Trazado 579580" d="M-1204.976-95.422h2.652a2.39,2.39,0,0,0,0-.259l-2.649,0C-1204.976-95.6-1204.977-95.51-1204.976-95.422Z" transform="translate(1211.372 102.089)" fill="#c2ddf9"/>
        <path id="Trazado_579581" data-name="Trazado 579581" d="M-1202.325,6.24h-2.652q0,.132,0,.264l2.649,0A2.277,2.277,0,0,0-1202.325,6.24Z" transform="translate(1211.373 27.29)" fill="#c2ddf9"/>
        <path id="Trazado_579582" data-name="Trazado 579582" d="M-1131.207,32.491a.883.883,0,0,0,1.058.774.875.875,0,0,0,.867-.967c-.021-.624-.4-1.034-1.007-.946A.987.987,0,0,0-1131.207,32.491Z" transform="translate(1157.239 8.87)" fill="#f3cc73"/>
        <path id="Trazado_579583" data-name="Trazado 579583" d="M-1125.372,22.767l-1.331-.531c-.149.208-.486.051-.607.312l1.6.52Z" transform="translate(1154.376 15.551)" fill="#b78466"/>
        <path id="Trazado_579584" data-name="Trazado 579584" d="M-1116.218,33.523c.643-.323.261-.807.2-1.242l-.176.311Q-1116.208,33.058-1116.218,33.523Z" transform="translate(1146.236 8.18)" fill="#c18b6b"/>
        <path id="Trazado_579585" data-name="Trazado 579585" d="M-1131.515,22.235c-.151.2-.7.034-.5.549l1.108-.237C-1131.03,22.286-1131.366,22.443-1131.515,22.235Z" transform="translate(1157.861 15.552)" fill="#b78466"/>
        <path id="Trazado_579586" data-name="Trazado 579586" d="M-1130.018,22.235l.607.311h.114l.607-.312Z" transform="translate(1156.364 15.552)" fill="#c38d6d"/>
        <path id="Trazado_579587" data-name="Trazado 579587" d="M-1180.887-79.589q5.069.024,10.139.05c1.438.009.583-1.023.738-1.6a55.649,55.649,0,0,0-6.435-.117c-1.448-.024-2.9-.076-4.348.042A1.067,1.067,0,0,0-1180.887-79.589Z" transform="translate(1193.936 91.525)" fill="#fcd277"/>
        <path id="Trazado_579588" data-name="Trazado 579588" d="M-1188.341-79.564q0-.774,0-1.548l-.2-.112a10.664,10.664,0,0,0-2.73.115c-.288,1.171.007,1.819,1.371,1.6A12.687,12.687,0,0,1-1188.341-79.564Z" transform="translate(1201.39 91.499)" fill="#fcb96d"/>
        <path id="Trazado_579589" data-name="Trazado 579589" d="M-1178.285-69.432h-15.567v.133h15.612Z" transform="translate(1203.208 82.822)" fill="#040404"/>
        <path id="Trazado_579590" data-name="Trazado 579590" d="M-1176.519-84.563h-13.111v.132h13.162Z" transform="translate(1200.111 93.926)" fill="#040302"/>
        <path id="Trazado_579591" data-name="Trazado 579591" d="M-1180.277-81.747h10.877c0-.4-.3-.376-.554-.374q-5.163.032-10.326.075-.208.151,0,.3Z" transform="translate(1193.325 92.135)" fill="#fee480"/>
        <path id="Trazado_579592" data-name="Trazado 579592" d="M-1188.068-81.918v-.3c-.98.066-2.026-.513-2.929.3Z" transform="translate(1201.113 92.308)" fill="#feca76"/>
      </g>
    </g>
  </g>
</svg>
