<svg xmlns="http://www.w3.org/2000/svg" xmlns:xlink="http://www.w3.org/1999/xlink" width="94" height="94" viewBox="0 0 94 94">
  <defs>
    <clipPath id="clip-path">
      <rect id="Rectángulo_279691" data-name="Rectángulo 279691" width="94" height="94" transform="translate(257 6702)" fill="#fff" stroke="#707070" stroke-width="1"/>
    </clipPath>
  </defs>
  <g id="Enmascarar_grupo_700186" data-name="Enmascarar grupo 700186" transform="translate(-257 -6702)" clip-path="url(#clip-path)">
    <g id="Grupo_843951" data-name="Grupo 843951" transform="translate(1027.785 6841.37)">
      <g id="Grupo_843951-2" data-name="Grupo 843951" transform="translate(-731.603 -129.209)">
        <path id="Trazado_579158" data-name="Trazado 579158" d="M-643.167-69.208q0,16.627.015,33.253c0,.9-.023,1.534-1.207,1.431a.927.927,0,0,0-1.022,1.08,1.037,1.037,0,0,0,1.158.982c.329,0,.658,0,.986,0H-598c.376,0,.753.013,1.126-.018a1,1,0,0,0,.992-1,.89.89,0,0,0-.921-1.03c-1.336.113-1.316-.636-1.315-1.623q.032-33.042.016-66.084c0-2.383-.015-2.4-2.325-2.4h-40.582c-2.065,0-2.151.085-2.151,2.148Q-643.168-85.834-643.167-69.208Z" transform="translate(645.386 104.61)"/>
        <path id="Trazado_579159" data-name="Trazado 579159" d="M-624.735-85.99c-.336.458-.679.92-1.355.737a.994.994,0,0,1-.8-1.157c.308-1.746-.867-2.6-1.985-3.509a.7.7,0,0,0-.081.773,11.6,11.6,0,0,1,.043,2.386q.01,30.053.007,60.106a7.434,7.434,0,0,0,.06,1.544c.108.511.5.637.956.628.488-.01.8-.207.807-.749,0-.375,0-.751,0-1.126q0-26.816.006-53.631a4.136,4.136,0,0,1,.112-1.669c.747-1.433,1.245-1.479,2.238-.208a.475.475,0,0,1,.339.492q-.041,11.449.007,22.891c0,.657-.3,1.488.572,1.919,1.1,0,1.449-.481,1.441-1.626-.055-8.265-.031-16.531-.029-24.8,0-1.849.189-2.044,1.991-2.045q11.554,0,23.108,0c1.656,0,1.893.231,1.894,1.858q.008,15.005,0,30.01c0,1.668-.247,1.9-2.009,1.9q-10.638.005-21.276,0a3.061,3.061,0,0,0-1.961.522,3.168,3.168,0,0,1-3.737.048.674.674,0,0,0-.049.748c.081,7.85.009,15.7.043,23.551,0,.592-.16,1.223.251,1.764a2.851,2.851,0,0,0,1.518.183q13.738.01,27.476,0a2.623,2.623,0,0,0,1.511-.2,2.553,2.553,0,0,0,.233-1.638q.011-29.358,0-58.716c0-.635.175-1.339-.449-1.832a3.479,3.479,0,0,0-1.659-.171q-13.44-.01-26.88.006c-.666,0-1.438-.249-1.931.492C-624.405-86.3-624.458-86.056-624.735-85.99Z" transform="translate(633.642 94.062)" fill="#f6d190"/>
        <path id="Trazado_579160" data-name="Trazado 579160" d="M-597.52-37.149a5.747,5.747,0,0,1,.975,2.131c.036.437.305.538.693.4a2.994,2.994,0,0,1,1.514-.135c6.17-.053,12.341.081,18.511-.072.642-.324.543-.93.544-1.481q.011-12.808,0-25.616c0-1.494-.223-1.712-1.725-1.716q-9.149-.022-18.3,0c-1.778,0-1.949.169-1.951,1.928q-.013,11.118-.005,22.237c0,.61.025,1.22-.033,1.828A1.306,1.306,0,0,1-597.52-37.149Z" transform="translate(611.019 75.197)" fill="#a4ccfe"/>
        <path id="Trazado_579161" data-name="Trazado 579161" d="M-491.4-89.92a8.006,8.006,0,0,0-1.692,1.687,4.094,4.094,0,0,0-.1,1.534q-.008,30.215,0,60.429c0,.329.008.658,0,.986a.7.7,0,0,0,.761.8c.527.023.93-.126,1.024-.718a6.207,6.207,0,0,0,.041-.984c-.013-20.659.032-41.319-.022-61.978a3.752,3.752,0,0,1,.073-.979A.7.7,0,0,0-491.4-89.92Z" transform="translate(536.131 94.063)" fill="#f6d190"/>
        <path id="Trazado_579162" data-name="Trazado 579162" d="M-619.663-94.781a2.228,2.228,0,0,0,2.211,1.108q15.285-.054,30.57,0a2.229,2.229,0,0,0,2.21-1.109c.038-.828-.552-.864-1.134-.88-.842-.024-1.685-.009-2.528-.009q-14.818,0-29.635.014C-618.637-95.656-619.567-95.97-619.663-94.781Z" transform="translate(626.917 98.208)" fill="#f6d190"/>
        <path id="Trazado_579163" data-name="Trazado 579163" d="M-491.827-87.619c-.375.135-.422.407-.414.779.293,15.2.062,30.406.129,45.609.024,5.492,0,10.984,0,16.477,0,.375.005.752-.021,1.126-.03.412-.318.537-.685.537s-.655-.13-.681-.542-.02-.844-.02-1.267q0-30.066,0-60.133c0-.516-.021-1.032-.032-1.548-.445.3-.266.768-.266,1.162q-.013,30.965-.005,61.929c0,.233.037.466.056.7a2.418,2.418,0,0,0,2.055-.123c.052-16.7.008-33.4.022-50.1q.005-6.614-.005-13.228A2.594,2.594,0,0,0-491.827-87.619Z" transform="translate(536.588 92.411)" fill="#f2ce8f"/>
        <path id="Trazado_579164" data-name="Trazado 579164" d="M-627-80.006c-.442.483-.246,1.076-.246,1.617q-.016,26.751-.01,53.5c0,.422.006.846-.024,1.266s-.326.53-.691.528-.648-.138-.674-.549c-.023-.375-.019-.75-.019-1.126q0-30.131-.037-60.261c0-.843.7-1.82-.245-2.59a1.284,1.284,0,0,0-.136.816c.012,21.291-.029,42.582.019,63.873a2.337,2.337,0,0,0,2.057.138c.02-.327.057-.653.057-.979q0-27.627,0-55.255C-626.947-79.353-626.98-79.679-627-80.006Z" transform="translate(633.682 92.411)" fill="#f2ce8f"/>
        <path id="Trazado_579165" data-name="Trazado 579165" d="M-483.309-24.224V-89.473h-.141V-24.18Z" transform="translate(529.119 93.742)" fill="#030302"/>
        <path id="Trazado_579166" data-name="Trazado 579166" d="M-486.752-89.712q0,32.411,0,64.822a.189.189,0,0,0,.3,0c.025-.467.071-.934.071-1.4q.005-31.406,0-62.811c0-.457-.062-.914-.1-1.371,0-.025-.1-.072-.117-.06a1.3,1.3,0,0,0-.182.171Z" transform="translate(531.513 94.503)" fill="#fedc98"/>
        <path id="Trazado_579167" data-name="Trazado 579167" d="M-629.54-24.883q0-32.411,0-64.822l.033-.649c-.121-.2-.3-.252-.358,0a4.494,4.494,0,0,0-.046.98q0,31.758,0,63.515c0,.326.046.652.071.978A.188.188,0,0,0-629.54-24.883Z" transform="translate(634.279 94.497)" fill="#fedc98"/>
        <path id="Trazado_579168" data-name="Trazado 579168" d="M-499.161-16.909V-79.271h-.141v62.425Z" transform="translate(540.5 86.417)" fill="#030302"/>
        <path id="Trazado_579169" data-name="Trazado 579169" d="M-502.824-17.189c.024-.373.069-.745.069-1.118q.005-30.166,0-60.331c0-.373-.045-.745-.069-1.118a.274.274,0,0,0-.429.144,1.116,1.116,0,0,0-.018.541c.04,20.4.005,40.79.017,61.185q0,.272.013.545A.262.262,0,0,0-502.824-17.189Z" transform="translate(543.367 86.803)" fill="#fedb96"/>
        <path id="Trazado_579170" data-name="Trazado 579170" d="M-621.884-95.115c.281-.667.868-.61,1.435-.61q16.06,0,32.12,0c.568,0,1.153-.056,1.436.609a2.227,2.227,0,0,0,.871-.871c-.333-.255-.722-.151-1.087-.151q-17.281-.008-34.561,0c-.365,0-.754-.1-1.087.151A2.232,2.232,0,0,0-621.884-95.115Z" transform="translate(629.138 98.543)" fill="#f1cd8d"/>
        <path id="Trazado_579171" data-name="Trazado 579171" d="M-586.236-99.472h-37v.141h37.06Z" transform="translate(629.481 100.921)" fill="#040302"/>
        <path id="Trazado_579172" data-name="Trazado 579172" d="M-623.291-96.706h36.735c.215-.085.314-.315.1-.375a4.223,4.223,0,0,0-1.112-.048q-17.355,0-34.709.006c-.4,0-.832-.145-1.207.129a.123.123,0,0,0,0,.12A1.659,1.659,0,0,0-623.291-96.706Z" transform="translate(629.673 99.261)" fill="#fee29b"/>
        <path id="Trazado_579173" data-name="Trazado 579173" d="M-582.578-80.815h.294c-.243-.752-.871-.373-1.294-.374-9.69-.026-19.38.006-29.069-.053-1.226-.007-1.431.456-1.274,1.452l.336.384c.037-1.047.569-1.3,1.6-1.3,9.345.045,18.689.028,28.034.019C-583.5-80.687-583.013-80.529-582.578-80.815Z" transform="translate(622.828 87.862)" fill="#fee09a"/>
        <path id="Trazado_579174" data-name="Trazado 579174" d="M-612.366-83.264H-581.5V-83.4h-30.91Z" transform="translate(621.713 89.385)" fill="#040302"/>
        <ellipse id="Elipse_7197" data-name="Elipse 7197" cx="21.826" cy="0.073" rx="21.826" ry="0.073" transform="translate(2.952 70.518)" fill="#040302"/>
        <path id="Trazado_579175" data-name="Trazado 579175" d="M-582.043,141.82h-.293a3.013,3.013,0,0,0-1.519-.129c-9.752-.02-19.5.015-29.256-.023a.808.808,0,0,0-.52.153c.129.654.66.391,1.009.391q14.785.024,29.57,0C-582.7,142.211-582.172,142.474-582.043,141.82Z" transform="translate(622.587 -72.206)" fill="#fee29b"/>
        <path id="Trazado_579176" data-name="Trazado 579176" d="M-519.081-34.714c.591-.116.343-.594.344-.9q.02-13.854,0-27.707a2.8,2.8,0,0,0-.062-.415.281.281,0,0,0-.428.175c-.012,9.446.043,18.893-.028,28.34A.845.845,0,0,0-519.081-34.714Z" transform="translate(554.823 75.296)" fill="#aad4fe"/>
        <path id="Trazado_579177" data-name="Trazado 579177" d="M-612.393-36.974a8.623,8.623,0,0,1-.313-2.866c.08-7.316-.152-14.634.124-21.949a.915.915,0,0,0-.4-.845,1.889,1.889,0,0,0-.133,1.1q-.008,11.9,0,23.792c0,.365-.1.755.153,1.089Z" transform="translate(622.233 74.472)" fill="#f3ce8e"/>
        <path id="Trazado_579178" data-name="Trazado 579178" d="M-597.825-37.245h.255a2.964,2.964,0,0,0,.134-1.52c.012-8.264,0-16.528.012-24.792a.283.283,0,0,0-.43-.18C-597.951-54.906-598.007-46.075-597.825-37.245Z" transform="translate(611.324 75.293)" fill="#aad4fe"/>
        <path id="Trazado_579179" data-name="Trazado 579179" d="M-614.083,75.405h.294a.831.831,0,0,0,.134-.525c.006-8.106-.007-16.212.011-24.317a1.163,1.163,0,0,0-.146-.8q.007-.3.014-.6c-.826.011-.345.651-.347.908-.043,4.694-.041,9.389-.028,14.083C-614.143,67.9-614.107,71.652-614.083,75.405Z" transform="translate(623.039 -5.791)" fill="#fedb96"/>
        <path id="Trazado_579180" data-name="Trazado 579180" d="M-613.546-36.654q-.01-12.99-.02-25.98l-.325.359q-.019,12.5-.031,25.008c0,.256-.122.566.183.755.019.012.072-.016.1-.037A.742.742,0,0,0-613.546-36.654Z" transform="translate(622.813 74.472)" fill="#fedb96"/>
        <path id="Trazado_579181" data-name="Trazado 579181" d="M-616.092,77.81V52.651h-.141V77.87Z" transform="translate(624.455 -8.3)" fill="#030302"/>
        <path id="Trazado_579182" data-name="Trazado 579182" d="M-616.312-61.4v24.661h.141V-61.451Z" transform="translate(624.511 73.623)" fill="#030302"/>
        <path id="Trazado_579183" data-name="Trazado 579183" d="M-597.621-64.719h.288a.868.868,0,0,0,.524.166q10.466-.075,20.932,0a.869.869,0,0,0,.525-.166h.288c-.148-.638-.672-.371-1.021-.372q-10.258-.027-20.516,0C-596.949-65.09-597.473-65.357-597.621-64.719Z" transform="translate(611.092 76.275)" fill="#aed9fe"/>
        <path id="Trazado_579184" data-name="Trazado 579184" d="M-596.374-67.273h21.84v-.141h-21.891Z" transform="translate(610.234 77.904)" fill="#020304"/>
        <path id="Trazado_579185" data-name="Trazado 579185" d="M-571.03,38.264q0-.14,0-.28a.381.381,0,0,0-.562,0q-9.2,0-18.409.01c-.538,0-1.134-.206-1.6.268Z" transform="translate(606.772 2.318)" fill="#a8d1fe"/>
        <path id="Trazado_579186" data-name="Trazado 579186" d="M-608.571,35.235a1.1,1.1,0,0,0-1.1,1.185,1.037,1.037,0,0,0,1.161,1.1,1.042,1.042,0,0,0,1.1-1.161A1.1,1.1,0,0,0-608.571,35.235Z" transform="translate(619.742 4.204)" fill="#6d636f"/>
        <path id="Trazado_579187" data-name="Trazado 579187" d="M-491.309,142.234h-.3l-1.939,0A1.579,1.579,0,0,0-491.309,142.234Z" transform="translate(536.369 -72.62)" fill="#fee29c"/>
        <path id="Trazado_579188" data-name="Trazado 579188" d="M-629.347,142.234h-.3a1.579,1.579,0,0,0,2.239,0Z" transform="translate(634.086 -72.62)" fill="#fee29c"/>
        <path id="Trazado_579189" data-name="Trazado 579189" d="M-604.643,54.951a1.7,1.7,0,0,0-.9,1.739q.033,9.5,0,19.008c-.006,1.245.432,1.779,1.727,1.773,7.838-.032,15.677-.018,23.515-.013.727,0,1.586.027,1.68-.865.113-1.075.531-2.322-.363-3.219-.663-.665-1.276-.117-1.717.516-.4.19-.268.755-.669.945-2.717.193-5.436.064-8.153.081-3.985.025-7.971.014-11.957,0-.544,0-1.134.172-1.617-.258-.148-5.738-.048-11.476-.047-17.214,0-.084.076-.167.121-.249h21.987c.319,2.519.041,5.049.149,7.571a27.106,27.106,0,0,0,.169,5.019c.338.522.687,1.079,1.436.807.693-.251.758-.865.757-1.51-.008-4.176-.017-8.353.008-12.529a1.625,1.625,0,0,0-.9-1.6c-.272-.269-.618-.174-.935-.174q-11.677-.008-23.353,0C-604.025,54.777-604.37,54.682-604.643,54.951Z" transform="translate(616.781 -9.816)" fill="#020201"/>
        <path id="Trazado_579190" data-name="Trazado 579190" d="M-504.095-16.935q0-31,0-62a.383.383,0,0,0-.564,0,3.4,3.4,0,0,1,.28,1.918q0,30.043,0,60.086A.16.16,0,0,0-504.095-16.935Z" transform="translate(544.346 86.268)" fill="#f3cf8f"/>
        <path id="Trazado_579191" data-name="Trazado 579191" d="M-582.247-79.408h.564c0-.094,0-.187,0-.281-9.873,0-19.747.018-29.62-.027-1.137-.005-1.542.358-1.387,1.435.291-.915.89-1.157,1.856-1.153C-601.306-79.391-591.777-79.408-582.247-79.408Z" transform="translate(621.935 86.736)" fill="#f1cd8d"/>
        <path id="Trazado_579192" data-name="Trazado 579192" d="M-581.593,140.974h-30.721q-.141-.207-.282,0c0,.094,0,.187,0,.281h31C-581.592,141.16-581.591,141.067-581.593,140.974Z" transform="translate(621.844 -71.64)" fill="#f1cd8d"/>
        <path id="Trazado_579193" data-name="Trazado 579193" d="M-612.594,76.66h.282c0-7.812.024-15.625-.046-23.436-.006-.609.747-1.416-.236-1.929Q-612.594,63.978-612.594,76.66Z" transform="translate(621.842 -7.327)" fill="#f3ce8e"/>
        <path id="Trazado_579194" data-name="Trazado 579194" d="M-602.534,54.516h25.224c.135-.543-.3-.312-.477-.312q-12.135-.018-24.27-.007a2.622,2.622,0,0,0-.521.083c-.018,0-.036.08-.028.117A.415.415,0,0,0-602.534,54.516Z" transform="translate(614.672 -9.381)" fill="#fed895"/>
        <path id="Trazado_579195" data-name="Trazado 579195" d="M-576.651,136.383h-24.6v.141h24.659Z" transform="translate(613.696 -68.419)" fill="#f9d391"/>
        <path id="Trazado_579196" data-name="Trazado 579196" d="M-574.719,121.251c-.287.921-.89,1.16-1.854,1.153-6.71-.048-13.421-.026-20.131-.026a.258.258,0,0,0,.193.4c7.229.022,14.458.042,21.687-.01A1.451,1.451,0,0,0-574.719,121.251Z" transform="translate(610.462 -57.555)" fill="#f1cd8d"/>
        <path id="Trazado_579197" data-name="Trazado 579197" d="M-597.505,81.108c0-.093,0-.187,0-.28V63.38c-.427.032-.348.367-.347.622q.025,8.554.063,17.107A.173.173,0,0,0-597.505,81.108Z" transform="translate(611.264 -16.004)" fill="#fed995"/>
        <path id="Trazado_579198" data-name="Trazado 579198" d="M-518.329,75.97c.012-3.941.027-7.883.026-11.824,0-.278.18-.7-.343-.766q0,6.191,0,12.383a.326.326,0,0,0,.081.235C-518.518,76.032-518.41,75.982-518.329,75.97Z" transform="translate(554.39 -16.004)" fill="#fed995"/>
        <path id="Trazado_579199" data-name="Trazado 579199" d="M-518.653,121.251l0,1.408a.174.174,0,0,0,.287,0l.051-1.032Z" transform="translate(554.396 -57.555)" fill="#fcd996"/>
        <path id="Trazado_579200" data-name="Trazado 579200" d="M-589.656-44.295c0,3.706.025,7.412-.017,11.117-.011.953.247,1.315,1.259,1.307q7.81-.066,15.622,0c.94.006,1.195-.33,1.191-1.228q-.041-11.188,0-22.376c0-.893-.241-1.24-1.186-1.233q-7.811.055-15.621,0c-1.007-.008-1.276.343-1.264,1.3C-589.63-51.707-589.656-48-589.656-44.295Z" transform="translate(605.386 70.222)" fill="#c3ddfe"/>
        <path id="Trazado_579201" data-name="Trazado 579201" d="M-575.192-34.885h.562q0-14.373,0-28.746h-21.982q0,13.246,0,26.491c.487-.464.274-1.064.276-1.6q.021-11.406.01-22.813c0-1.79.006-1.795,1.82-1.8,5.962,0,11.924.037,17.884-.029,1.39-.015,1.748.463,1.741,1.79-.05,8.355-.026,16.711-.023,25.066A2.959,2.959,0,0,1-575.192-34.885Z" transform="translate(610.37 75.188)" fill="#a1c9fa"/>
        <ellipse id="Elipse_7198" data-name="Elipse 7198" cx="22.221" cy="0.072" rx="22.221" ry="0.072" transform="translate(2.556 4.004)" fill="#f9d391"/>
        <path id="Trazado_579202" data-name="Trazado 579202" d="M-574.468,129.385h-21.778v.141h21.838Z" transform="translate(610.105 -63.395)" fill="#040302"/>
        <path id="Trazado_579203" data-name="Trazado 579203" d="M-575.061,126.243h-22.555c.142.642.667.378,1.017.378q10.261.027,20.521,0C-575.728,126.621-575.2,126.885-575.061,126.243Z" transform="translate(611.087 -61.138)" fill="#fee09a"/>
        <path id="Trazado_579204" data-name="Trazado 579204" d="M-569.082-22.84a1.421,1.421,0,0,0,.924-1.769,3.473,3.473,0,0,0-.622-.751q-5.159-5.169-10.327-10.33a6.707,6.707,0,0,0-.509-.482.987.987,0,0,0-1.5.064.947.947,0,0,0,.024,1.39c.6.655,1.24,1.275,1.868,1.9q4.467,4.471,8.94,8.936C-569.893-23.494-569.456-23.162-569.082-22.84Z" transform="translate(599.448 55.695)" fill="#010202"/>
        <path id="Trazado_579205" data-name="Trazado 579205" d="M-557.354-35.409a1.78,1.78,0,0,0,.564.979q1.993,1.989,3.981,3.984c.509.51,1.082.849,1.713.269s.373-1.177-.152-1.7c-1.393-1.395-2.782-2.793-4.186-4.177a1.044,1.044,0,0,0-1.265-.328A1.1,1.1,0,0,0-557.354-35.409Z" transform="translate(582.181 55.699)" fill="#030405"/>
      </g>
      <g id="Grupo_843952" data-name="Grupo 843952" transform="translate(-765.468 -120.806)">
        <path id="Trazado_579206" data-name="Trazado 579206" d="M-744.185-21.939c0-5.824.025-11.647-.024-17.47-.009-1,.275-1.344,1.252-1.222a11.1,11.1,0,0,0,1.689.008,5.3,5.3,0,0,0,5.53-5.627q.048-4.931,0-9.862c-.017-2.124-1.334-3.54-3.2-3.529s-3.144,1.429-3.16,3.561c-.019,2.583-.056,5.167.019,7.748.031,1.063-.206,1.415-1.352,1.4-5.353-.069-10.707-.035-16.061-.028-3.813,0-5.962,2.12-5.971,5.9q-.019,7.96,0,15.921c0,2.62.931,3.646,3.6,3.771.966.045.621.642.622,1.047.021,5.119.014,10.238.015,15.357,0,.423-.019.848.023,1.267a3.745,3.745,0,0,0,3.713,3.517,3.7,3.7,0,0,0,3.719-3.648c.077-2.393.023-4.789.024-7.185,0-3.569-.016-7.139.014-10.708.006-.712-.473-1.692,1.064-1.665,1.583.028.975,1.082.98,1.737.042,5.682.028,11.365.019,17.048a5.607,5.607,0,0,0,.289,2.078A3.785,3.785,0,0,0-747.428-.2a3.725,3.725,0,0,0,3.213-3.567c.084-1.639.028-3.286.029-4.93Q-744.184-15.318-744.185-21.939Z" transform="translate(765.469 63.919)" fill="#000101"/>
        <path id="Trazado_579207" data-name="Trazado 579207" d="M-739-60.064a7.407,7.407,0,0,0,7.338-7.374,7.4,7.4,0,0,0-7.477-7.375,7.4,7.4,0,0,0-7.338,7.373A7.407,7.407,0,0,0-739-60.064Z" transform="translate(751.834 74.814)" fill="#010101"/>
        <path id="Trazado_579208" data-name="Trazado 579208" d="M-651.55-52.152c-.672.112-1.072.492-1.016,1.146a.981.981,0,0,0,1.031.954.983.983,0,0,0,1.063-1.061A1.02,1.02,0,0,0-651.55-52.152Z" transform="translate(684.41 58.543)" fill="#111"/>
        <path id="Trazado_579209" data-name="Trazado 579209" d="M-659.1-66.918c.078.652.411,1.066,1.081,1.028a.963.963,0,0,0,.988-1.1.937.937,0,0,0-1-.948A.983.983,0,0,0-659.1-66.918Z" transform="translate(689.1 69.878)" fill="#0a0a0a"/>
        <path id="Trazado_579210" data-name="Trazado 579210" d="M-673.883-74.659c-.639.069-1.052.38-1.068,1.051a.926.926,0,0,0,.916,1.024.945.945,0,0,0,1.132-.941C-672.854-74.2-673.262-74.532-673.883-74.659Z" transform="translate(700.479 74.703)" fill="#0a0a0a"/>
        <path id="Trazado_579211" data-name="Trazado 579211" d="M-746.025-6.805l-1.693.019c.392.6.276,1.343.573,1.968.908.439.813,1.263.813,2.067q-.007,17.68,0,35.361c0,.376.009.751,0,1.127a1.622,1.622,0,0,0,1.359,1.824c1.061.187,1.626-.435,1.754-1.471a1,1,0,0,1-.12-.4c-.018-6.686,0-13.372-.014-20.059a.52.52,0,0,1,.175-.355l.866-.862a13.328,13.328,0,0,1,4.707,0l.867.86c.23.167.166.411.166.637q0,9.68,0,19.36a1.408,1.408,0,0,1-.124.818c.138,1.025.688,1.667,1.754,1.472,1.105-.2,1.369-1.06,1.368-2.1q-.022-17.6-.008-35.2c0-.329,0-.657,0-.985,0-1.9.067-1.968,1.936-2.119-.427-.739-1.2-1.133-1.741-1.765a.753.753,0,0,0-.44.027l-.225.061c-3.857.034-7.712.075-11.566-.021A1.018,1.018,0,0,1-746.025-6.805Z" transform="translate(752.724 25.985)" fill="#6a8fe6"/>
        <path id="Trazado_579212" data-name="Trazado 579212" d="M-754.386-4.77c0-.138-.045-.318.023-.407.664-.86.194-1.268-.6-1.561a2.86,2.86,0,0,0-2.816,2.892c-.046,5.712-.022,11.424-.026,17.137,0,.5.078.971.626,1.127.576.164,1.129.156,1.342-.578a39.881,39.881,0,0,1-.1-5.305c-.031-3.688-.018-7.378,0-11.067,0-.44-.2-.925.162-1.327A1.433,1.433,0,0,1-754.386-4.77Z" transform="translate(759.965 25.936)" fill="#587ccd"/>
        <path id="Trazado_579213" data-name="Trazado 579213" d="M-696.745-38.946c.129,1,.878,1.354,1.692,1.645,1.076.013,2.153.059,3.227.032a3.1,3.1,0,0,0,3.28-3.254c.036-3.37.007-6.741.014-10.112,0-.6-.077-1.162-.756-1.331a.878.878,0,0,0-1.2.626,87.655,87.655,0,0,1-.093,11.181l-.515.664a1.73,1.73,0,0,1-.657.242c-1.22.048-2.441,0-3.66.027C-695.872-39.215-696.368-39.346-696.745-38.946Z" transform="translate(716.126 58.444)" fill="#79a1fd"/>
        <path id="Trazado_579214" data-name="Trazado 579214" d="M-692.588,8.51V45.233h.141V8.448Z" transform="translate(713.141 15.033)" fill="#040404"/>
        <path id="Trazado_579215" data-name="Trazado 579215" d="M-708.753,85.169a1.906,1.906,0,0,0,.248-.625q.022-9.973.013-19.946a.372.372,0,0,0-.071-.246c-.04-.038-.152,0-.231,0Z" transform="translate(724.777 -25.093)" fill="#6b91e9"/>
        <path id="Trazado_579216" data-name="Trazado 579216" d="M-732.446,64.326c-.446-.149-.3.215-.3.38q-.011,9.833-.005,19.665a.9.9,0,0,0,.262.765Q-732.466,74.731-732.446,64.326Z" transform="translate(741.989 -25.061)" fill="#6b91e9"/>
        <path id="Trazado_579217" data-name="Trazado 579217" d="M-723.715-7.315l.329-.3q-6.507.074-13.015.15c-1.771.021-3.542.053-5.313.08l0,.316a33.938,33.938,0,0,0,5.566.119,56.075,56.075,0,0,0,6.829-.11l.009-.015C-727.455-7.459-725.569-7.01-723.715-7.315Z" transform="translate(748.413 26.569)" fill="#729af8"/>
        <path id="Trazado_579218" data-name="Trazado 579218" d="M-748.555,76.471V94.029h.141V76.411Z" transform="translate(753.325 -33.763)" fill="#040404"/>
        <path id="Trazado_579219" data-name="Trazado 579219" d="M-751.42,3.367c-.441-.161-.3.2-.3.369q-.011,8.279-.005,16.558a.938.938,0,0,0,.246.772q.05-6.531.1-13.062C-751.378,6.458-751.408,4.913-751.42,3.367Z" transform="translate(755.615 18.71)" fill="#5c80d5"/>
        <ellipse id="Elipse_7199" data-name="Elipse 7199" cx="0.095" cy="8.11" rx="0.095" ry="8.11" transform="translate(29.026 4.771)" fill="#040404"/>
        <path id="Trazado_579220" data-name="Trazado 579220" d="M-675.018-38.439c.232.173.325.05.325-.175q0-5.254-.018-10.509c0-.166-.14-.332-.214-.5C-675.179-45.9-675-42.166-675.018-38.439Z" transform="translate(700.559 56.725)" fill="#7da8fe"/>
        <path id="Trazado_579221" data-name="Trazado 579221" d="M-724,60.407c-.2-.621-.709-.276-1.049-.284-1.225-.03-2.451.026-3.677.054-.016,0-.045.072-.041.108a.4.4,0,0,0,.06.122Z" transform="translate(739.121 -22.005)" fill="#6c92eb"/>
        <path id="Trazado_579222" data-name="Trazado 579222" d="M-688.616,5.564h3.015A5.752,5.752,0,0,0-688.616,5.564Z" transform="translate(710.29 17.248)" fill="#050505"/>
        <path id="Trazado_579223" data-name="Trazado 579223" d="M-725.714-56.531a5.034,5.034,0,0,0,4.266-5.089,5.033,5.033,0,0,0-4.265-5.089,9.122,9.122,0,0,1-1.983,0l-.278.035a1.644,1.644,0,0,0-.774,1.112,15.508,15.508,0,0,0,0,7.88,1.571,1.571,0,0,0,.77,1.112l.277.036A9.278,9.278,0,0,1-725.714-56.531Z" transform="translate(739.468 68.995)" fill="#6a8fe6"/>
        <path id="Trazado_579224" data-name="Trazado 579224" d="M-734.857-56.475a15.105,15.105,0,0,1,0-10.1,5.082,5.082,0,0,0-3.985,5.053A5.082,5.082,0,0,0-734.857-56.475Z" transform="translate(746.352 68.902)" fill="#587cce"/>
        <path id="Trazado_579225" data-name="Trazado 579225" d="M-723.726-67.238a1.58,1.58,0,0,0,1.983,0A2.457,2.457,0,0,0-723.726-67.238Z" transform="translate(735.498 69.525)" fill="#6f97f4"/>
        <path id="Trazado_579226" data-name="Trazado 579226" d="M-721.745-31.508a1.583,1.583,0,0,0-1.982,0A2.455,2.455,0,0,0-721.745-31.508Z" transform="translate(735.499 43.972)" fill="#6f97f4"/>
        <path id="Trazado_579227" data-name="Trazado 579227" d="M-729.3-5.676-741.7-5.685a.985.985,0,0,0,.89.281h10.61C-729.873-5.4-729.539-5.38-729.3-5.676Z" transform="translate(748.402 25.18)" fill="#688ce1"/>
        <path id="Trazado_579228" data-name="Trazado 579228" d="M-692.124-6.7c-1.862.107-3.747-.329-5.59.236l.273.008C-695.671-6.6-693.876-6.167-692.124-6.7Z" transform="translate(716.822 25.95)" fill="#82affe"/>
      </g>
    </g>
  </g>
</svg>
