<svg xmlns="http://www.w3.org/2000/svg" width="90.951" height="74.772" viewBox="0 0 90.951 74.772">
  <g id="Grupo_844323" data-name="Grupo 844323" transform="translate(-2813.75 776.438)">
    <path id="Trazado_581526" data-name="Trazado 581526" d="M2859.192-701.68q-19.129,0-38.258,0c-3.578,0-6.043-1.775-6.981-4.914a3.639,3.639,0,0,1,.385-3.2c2.218-3.57,4.314-7.216,6.517-10.8a5.73,5.73,0,0,0,.885-3.164q-.044-22.33-.017-44.659c0-5.589,2.435-8.017,8.016-8.018q29.628,0,59.255,0c5.335,0,7.84,2.495,7.843,7.834q.011,22.419-.016,44.837a5.7,5.7,0,0,0,.884,3.164c2.055,3.323,4.038,6.69,6.048,10.041a5.159,5.159,0,0,1-.933,6.981,7.27,7.27,0,0,1-5.368,1.913Q2878.321-701.708,2859.192-701.68Z"/>
    <path id="Trazado_581527" data-name="Trazado 581527" d="M2825.795-608.478c1.74-3.167,3.564-6.283,5.587-9.28a.825.825,0,0,1,.671-.033c2.486.117,4.974.047,7.461.048q29.5.018,58.994.01a4.387,4.387,0,0,1,.625.053c.735.254,1.03.925,1.385,1.52,1.2,2.015,2.458,4,3.6,6.045.376.671,1.029,1.475-.222,2.017a11.787,11.787,0,0,1-2.484.114q-35.91.006-71.819,0a14.119,14.119,0,0,1-3.188-.175A1.341,1.341,0,0,1,2825.795-608.478Z" transform="translate(-7.754 -102.095)" fill="#acedfe"/>
    <path id="Trazado_581528" data-name="Trazado 581528" d="M2909.07-768.553h.362a2.127,2.127,0,0,1,.008,2.653c-1.029.641-2.183.441-3.292.442q-27.895.019-55.79.017c-1.222,0-2.511-.22-3.566.685-.291.239-.747.248-.914.665-.115,10.718-.016,21.429-.042,32.139-.007,3.077-.03,6.155.02,9.224a.974.974,0,0,0,.372.624,7.839,7.839,0,0,1,1.436,1.464.914.914,0,0,0,.615.377q13.456.045,26.889-.013a1,1,0,0,0,.594-.417c.488-.511.775-1.182,1.308-1.66.9-.047,1.8-.03,2.7-.009.539.323.647.958,1.021,1.4.109.135.211.274.317.413a1.287,1.287,0,0,0,.5.254c8.89.029,17.774.179,26.655-.085a1.937,1.937,0,0,1,.941-.192c.964.776.82,1.635.188,2.53-1.421.024-2.843.069-4.264.069-19.861,0-39.723-.019-59.583.043-1.661.005-2.032-.466-2.025-2.061.062-14.7.033-29.4.041-44.106,0-2.719,1.085-4.048,3.547-4.445a1.658,1.658,0,0,0,.913.356q30.08.058,60.156,0A1.449,1.449,0,0,0,2909.07-768.553Z" transform="translate(-19.162 -5.076)" fill="#1d53bc"/>
    <path id="Trazado_581529" data-name="Trazado 581529" d="M2976.333-766.089l.04-2.461c2.437.2,3.877,1.586,3.881,3.942.024,15.105.007,30.211.031,45.316,0,.974-.259,1.433-1.3,1.341-.882-.079-1.773-.059-2.66-.083-.126-.783.382-1.664-.366-2.35a4.348,4.348,0,0,1-1.735.288q-12.506,0-25.011-.005a2.51,2.51,0,0,1-1.7-.337q-.011-.156-.017-.311c.81-.851,1.875-.61,2.852-.613q11.739-.035,23.479,0a9.578,9.578,0,0,0,3.654-.576c.056.016.112.036.17.05s.1.017.145.025c-.371-13.7-.069-27.4-.157-41.1a5.588,5.588,0,0,0-.046-1.234A12.465,12.465,0,0,1,2976.333-766.089Z" transform="translate(-86.102 -5.078)" fill="#12388e"/>
    <path id="Trazado_581530" data-name="Trazado 581530" d="M2824.428-579.079c-1.59.015-2.178-1.225-3.428-2.491h25c2.188,0,2.4.345,1.581,2.541a1.275,1.275,0,0,0-.84-.378q-10.72-.078-21.437,0A1.814,1.814,0,0,0,2824.428-579.079Z" transform="translate(-4.667 -125.448)" fill="#a6cdfc"/>
    <path id="Trazado_581531" data-name="Trazado 581531" d="M2904.437-581.282c.217-.549.7-.333,1.069-.333q12.152-.02,24.3,0c.368,0,.852-.216,1.07.332a1.591,1.591,0,0,0-.416.869c-.219.938-.967.916-1.686.917q-11.12.014-22.239,0c-.72,0-1.468.021-1.687-.915A1.573,1.573,0,0,0,2904.437-581.282Z" transform="translate(-58.381 -125.393)" fill="#72a6e4"/>
    <path id="Trazado_581532" data-name="Trazado 581532" d="M2986.708-579.027c-.823-2.173-.6-2.544,1.555-2.54q10.263.02,20.527.048c.537,1.058.142,1.7-.913,2.048-6.77.1-13.541-.022-20.31.064A1.29,1.29,0,0,0,2986.708-579.027Z" transform="translate(-111.06 -125.451)" fill="#a7cdfd"/>
    <path id="Trazado_581533" data-name="Trazado 581533" d="M3037.474-608.524c-1.265-2.8-3.115-5.258-4.574-7.944-.165-.3-.281-.634-.419-.952.822-.7,1.844-.153,2.732-.438a.5.5,0,0,1,.531.06c2.019,3,3.848,6.112,5.585,9.28a.884.884,0,0,1-.432.245,15.036,15.036,0,0,1-3.02.05A.945.945,0,0,1,3037.474-608.524Z" transform="translate(-140.811 -102.055)" fill="#a7cdfd"/>
    <path id="Trazado_581534" data-name="Trazado 581534" d="M2908.357-591.542a2.411,2.411,0,0,0,.279-.007c.579.558.587.876-.337.869-1.185-.01-2.37.02-3.556.02q-38.491,0-76.981,0c-.467,0-.935-.078-1.4-.12.621-.7,1.448-.4,2.181-.4q37.962-.037,75.921-.026a2.655,2.655,0,0,0,.626-.108A23.008,23.008,0,0,0,2908.357-591.542Z" transform="translate(-8.117 -119.025)" fill="#b3defe"/>
    <path id="Trazado_581535" data-name="Trazado 581535" d="M2908.323-587.025h-82.36v-.176h82.426Z" transform="translate(-7.862 -121.824)" fill="#030404"/>
    <path id="Trazado_581536" data-name="Trazado 581536" d="M2904.056-591.192c-.607.566-1.356.3-2.037.306q-37.125.021-74.251.016c-.827,0-1.654.057-2.48.088-.212.127-.457.178-.562-.084-.129-.321.178-.485.361-.681a2.058,2.058,0,0,0,.273.009,11.539,11.539,0,0,0,2.653.169q36.974,0,73.948.009A4.271,4.271,0,0,1,2904.056-591.192Z" transform="translate(-7.046 -119.025)" fill="#bafefe"/>
    <path id="Trazado_581537" data-name="Trazado 581537" d="M2842.821-621.4h70.255v.176h-70.321Z" transform="translate(-18.672 -99.805)" fill="#030404"/>
    <path id="Trazado_581538" data-name="Trazado 581538" d="M2841.885-618.522l-.407-.021c.25-.72.873-.488,1.359-.488q32.815-.015,65.631,0a4.334,4.334,0,0,1,.7.112.431.431,0,0,1-.294.546c-21.984.054-43.969.008-65.953.021A1.675,1.675,0,0,1,2841.885-618.522Z" transform="translate(-17.85 -101.31)" fill="#bafefe"/>
    <path id="Trazado_581539" data-name="Trazado 581539" d="M2915.555-768.689l-.371.4a2.848,2.848,0,0,1-1.565.165q-29.051.011-58.1,0a2.841,2.841,0,0,1-1.565-.165l-.365-.379c.471-.031.942-.089,1.413-.089q29.659-.007,59.318,0C2914.73-768.762,2915.143-768.715,2915.555-768.689Z" transform="translate(-25.646 -4.94)" fill="#1f5acb"/>
    <path id="Trazado_581540" data-name="Trazado 581540" d="M2838.157-758.244v47.821h-.177v-47.89Z" transform="translate(-15.599 -11.669)" fill="#050505"/>
    <path id="Trazado_581541" data-name="Trazado 581541" d="M3044.631-710.3V-758.12h.178v47.894Z" transform="translate(-148.633 -11.792)" fill="#050505"/>
    <path id="Trazado_581542" data-name="Trazado 581542" d="M2931.164-572.173H2905.67v-.178h25.538Z" transform="translate(-59.175 -131.384)" fill="#020304"/>
    <path id="Trazado_581543" data-name="Trazado 581543" d="M2931.466-575.983c-.038.509-.424.494-.774.493q-12.63-.042-25.26-.092a.342.342,0,0,1,.167-.55c8.408-.087,16.817.062,25.225-.075A1.2,1.2,0,0,1,2931.466-575.983Z" transform="translate(-58.972 -128.901)" fill="#7bb3f7"/>
    <path id="Trazado_581544" data-name="Trazado 581544" d="M3047.344-579.794a1.979,1.979,0,0,0,.7-1.734c1.116-.017,2.231-.029,3.347-.053.5-.011.979.222.5.654-.821.734-1.336,2.023-2.778,1.841-.541-.4-1.194-.03-1.76-.258a.3.3,0,0,1-.1-.3C3047.285-579.744,3047.314-579.794,3047.344-579.794Z" transform="translate(-150.317 -125.441)" fill="#70a3e0"/>
    <path id="Trazado_581545" data-name="Trazado 581545" d="M2831.815-572.35H2854.5v.178h-22.646Z" transform="translate(-11.63 -131.384)" fill="#030304"/>
    <path id="Trazado_581546" data-name="Trazado 581546" d="M2830.624-575.572l.356-.357a2.815,2.815,0,0,1,1.559-.165q9.653-.014,19.306,0a2.861,2.861,0,0,1,1.56.163l.368.409C2846.056-575.372,2838.34-575.276,2830.624-575.572Z" transform="translate(-10.863 -128.956)" fill="#b4defe"/>
    <path id="Trazado_581547" data-name="Trazado 581547" d="M3010.047-572.038h-22.192v-.178h22.265Z" transform="translate(-112.082 -131.471)" fill="#030304"/>
    <path id="Trazado_581548" data-name="Trazado 581548" d="M2987.507-575.557l.366-.409a7.5,7.5,0,0,1,2.792-.157c5.888,0,11.776-.05,17.664.017a.333.333,0,0,1,.187.537C3001.514-575.359,2994.51-575.382,2987.507-575.557Z" transform="translate(-111.859 -128.921)" fill="#b4defe"/>
    <path id="Trazado_581549" data-name="Trazado 581549" d="M3031.467-618.593c0-.129,0-.259.006-.388,1.222-.021,2.5-.574,3.619.377l-.411.022a9.822,9.822,0,0,1-2.959.148Z" transform="translate(-140.159 -101.25)" fill="#b3ddfe"/>
    <path id="Trazado_581550" data-name="Trazado 581550" d="M3046.483-575.384c0-.13.009-.261.013-.391q.175-.225.354,0c.6.089,1.277-.236,1.772.357A4.148,4.148,0,0,1,3046.483-575.384Z" transform="translate(-149.825 -129.106)" fill="#7cb3f7"/>
    <path id="Trazado_581551" data-name="Trazado 581551" d="M2904.577-578.807v.394c-.968-.576-.355-1.445-.4-2.191l.411.372A1.4,1.4,0,0,1,2904.577-578.807Z" transform="translate(-58.117 -126.071)" fill="#7ab1f4"/>
    <path id="Trazado_581552" data-name="Trazado 581552" d="M2977.575-578.815l-.395,0a1.381,1.381,0,0,1-.011-1.421l.41-.373A3.615,3.615,0,0,1,2977.575-578.815Z" transform="translate(-105.08 -126.069)" fill="#7ab1f4"/>
    <path id="Trazado_581553" data-name="Trazado 581553" d="M2905.257-591.466q-38.242,0-76.483-.019c-.74,0-1.551.278-2.213-.328.929-.367,1.863.01,2.794.009q37.778-.044,75.556-.024l.35,0q.177.108.124.226c-.035.08-.071.12-.109.12Z" transform="translate(-8.247 -118.751)" fill="#a8e8f9"/>
    <path id="Trazado_581554" data-name="Trazado 581554" d="M2842.62-617.558l67.274-.011.019.013q.17.117.112.233c-.038.077-.076.115-.114.115q-32.722,0-65.445-.008C2843.844-617.215,2843.147-616.978,2842.62-617.558Z" transform="translate(-18.586 -102.274)" fill="#a8e8f9"/>
    <path id="Trazado_581555" data-name="Trazado 581555" d="M3031.511-617.187c0-.116,0-.233,0-.349h3.2c-.877.708-1.907.194-2.853.356Z" transform="translate(-140.186 -102.295)" fill="#a3caf9"/>
    <path id="Trazado_581556" data-name="Trazado 581556" d="M2889.224-712a5.606,5.606,0,0,1-2.692,0c-.637-.123-1.038-.675-1.627-.888a5.6,5.6,0,0,0-2.119-.172c-7.237-.009-14.474.006-21.711-.011-2.6-.006-2.886-.285-2.889-2.839q-.02-17.083,0-34.166c0-2.51.28-2.793,2.735-2.795q25-.018,50.007,0c2.453,0,2.722.28,2.725,2.8q.022,17.083,0,34.166c0,2.554-.283,2.822-2.9,2.83-5.932.018-11.864,0-17.8.01a5.344,5.344,0,0,0-2.106.188C2890.275-712.651,2889.858-712.119,2889.224-712Z" transform="translate(-28.6 -15.166)" fill="#fefefe"/>
    <path id="Trazado_581557" data-name="Trazado 581557" d="M2883.683-717.64c.031-.554.485-.826.8-1.193a3.44,3.44,0,0,1,1.911-.182c6.514-.016,13.028-.007,19.542-.014a4.843,4.843,0,0,0,1.931-.164c3.521-.5,3.521-.5,3.521-4.133q0-16.047,0-32.094a6.38,6.38,0,0,0-.18-2.278c-.975-1.037-2.26-.294-3.366-.586a4.634,4.634,0,0,0-.646-.076q-26.115-.029-52.222,0c-.629,0-1.317-.187-1.856.346a3.217,3.217,0,0,0-.144,1.575c-.007,11.863.02,23.725-.039,35.587-.007,1.473.388,1.876,1.865,1.862,7.829-.074,15.66-.04,23.49-.025a3.442,3.442,0,0,1,1.913.182c.311.367.762.639.8,1.193.006.857-.594,1.233-1.242,1.571-.506.589-1.2.41-1.826.411q-12.319.021-24.639,0c-.627,0-1.32.176-1.829-.407a2.426,2.426,0,0,1-1.457-1.45c-.579-.512-.4-1.2-.4-1.833q-.018-19.436,0-38.872c0-.629-.172-1.32.4-1.838.327-1.4,1.328-1.535,2.568-1.533q29.3.04,58.607.016c.709,0,1.418-.042,2.127-.064.9.131,1.068.924,1.408,1.562.347.414.2.909.2,1.369q.012,19.928,0,39.857c0,.457.156.957-.219,1.36-.409,1.083-1.254,1.2-2.292,1.2-9.312-.028-18.624-.012-27.937-.009A1.544,1.544,0,0,1,2883.683-717.64Z" transform="translate(-23.058 -9.526)" fill="#000001"/>
    <path id="Trazado_581558" data-name="Trazado 581558" d="M2854.61-767.439h61.233c-.526.58-1.222.343-1.844.344q-28.773.018-57.547,0C2855.831-767.1,2855.135-766.859,2854.61-767.439Z" transform="translate(-26.304 -5.793)" fill="#1c52b8"/>
    <path id="Trazado_581559" data-name="Trazado 581559" d="M2848.9-715.661c-.584-.523-.347-1.219-.347-1.84q-.02-20.054,0-40.107c0-.621-.238-1.317.348-1.839a2.4,2.4,0,0,1,.165,1.386q.009,20.506,0,41.013A2.389,2.389,0,0,1,2848.9-715.661Z" transform="translate(-22.374 -10.939)" fill="#1c52b8"/>
    <path id="Trazado_581560" data-name="Trazado 581560" d="M2849.613-715.661q0-21.893,0-43.785c.315.175.335.5.4.8q.033,14.8.062,29.6c0,4.313-.034,8.626-.052,12.939Z" transform="translate(-23.087 -10.939)" fill="#1f5acb"/>
    <path id="Trazado_581561" data-name="Trazado 581561" d="M2854.053-633.715l28.294-.005.453.42a1.953,1.953,0,0,1-1.206.171q-13.391.007-26.782,0a1.977,1.977,0,0,1-1.207-.169Z" transform="translate(-25.658 -91.877)" fill="#1f5acb"/>
    <path id="Trazado_581562" data-name="Trazado 581562" d="M2853.606-632.539l29.194,0c-.461.545-1.094.349-1.66.35q-12.937.017-25.874,0C2854.7-632.192,2854.069-632,2853.606-632.539Z" transform="translate(-25.658 -92.636)" fill="#1c52b8"/>
    <path id="Trazado_581563" data-name="Trazado 581563" d="M2947.546-633.5l28.448.054-.322.29a2,2,0,0,1-1.207.167q-12.856.006-25.712,0a1.952,1.952,0,0,1-1.206-.171C2947.548-633.269,2947.547-633.383,2947.546-633.5Z" transform="translate(-86.133 -92.021)" fill="#1f5acb"/>
    <path id="Trazado_581564" data-name="Trazado 581564" d="M2947.55-632.542l28.125,0c-.464.541-1.1.345-1.661.346q-12.4.017-24.8,0C2948.643-632.193,2948.011-632,2947.55-632.542Z" transform="translate(-86.136 -92.635)" fill="#1c52b8"/>
    <path id="Trazado_581565" data-name="Trazado 581565" d="M3032.352-715.381q.007-21.293.015-42.587c.086-.154.1-.591.346-.29.175.216.046.683.046,1.038q0,20.344,0,40.688a11.253,11.253,0,0,1-.106,1.195c0,.02-.1.048-.144.04A.519.519,0,0,1,3032.352-715.381Z" transform="translate(-140.728 -11.637)" fill="#133d99"/>
    <path id="Trazado_581566" data-name="Trazado 581566" d="M2854.048-576.25l-22.425,0c.4-.5.969-.349,1.481-.349q9.731-.012,19.461,0C2853.079-576.6,2853.644-576.745,2854.048-576.25Z" transform="translate(-11.506 -128.637)" fill="#a3caf9"/>
    <path id="Trazado_581567" data-name="Trazado 581567" d="M2931.2-579.559q.005.711.011,1.421l-25.64,0q0-.712.007-1.425a1.906,1.906,0,0,0,1.953,1.093q10.857-.082,21.716,0A1.906,1.906,0,0,0,2931.2-579.559Z" transform="translate(-59.112 -126.743)" fill="#70a2e0"/>
    <path id="Trazado_581568" data-name="Trazado 581568" d="M3009.545-576.286l-.177,0h-.177l-20.656-.005c.526-.578,1.221-.34,1.843-.342q9.585-.024,19.17-.006Q3009.539-576.462,3009.545-576.286Z" transform="translate(-112.52 -128.598)" fill="#a3caf9"/>
    <path id="Trazado_581569" data-name="Trazado 581569" d="M3047.5-591.213c-.009-.115-.014-.231-.015-.347l3.226.011C3049.7-590.871,3048.563-591.346,3047.5-591.213Z" transform="translate(-150.467 -119.018)" fill="#a3caf9"/>
    <path id="Trazado_581570" data-name="Trazado 581570" d="M2885.958-713.656q-12.991-.008-25.982-.014c-.769,0-1.462.175-1.456-1.09.065-12.811.069-25.621.089-38.432a3.844,3.844,0,0,1,1.919-.163q25.488-.016,50.975-.02c.626,0,1.3.234,1.884-.222l.332,0a3.717,3.717,0,0,1,.367.577,4.212,4.212,0,0,1,.161.671c.125,12.209.038,24.419.047,36.629a4.092,4.092,0,0,1-.187,1.4,1.681,1.681,0,0,1-.4.572l-23.467.084c.511-.614,1.213-.363,1.833-.365,6.465-.018,12.93-.048,19.395.018,1.418.015,1.95-.3,1.942-1.847q-.093-17.613,0-35.227c.007-1.439-.447-1.787-1.823-1.784q-25.444.063-50.889,0c-1.379,0-1.828.348-1.821,1.785q.084,17.613,0,35.227c-.008,1.546.527,1.856,1.943,1.845,7.709-.06,15.42-.036,23.131-.015C2884.622-714.017,2885.385-714.3,2885.958-713.656Z" transform="translate(-28.822 -14.704)" fill="#f9f9f9"/>
    <path id="Trazado_581571" data-name="Trazado 581571" d="M2859.808-756.314h58.15v.178h-58.223Z" transform="translate(-29.604 -12.955)" fill="#040404"/>
    <path id="Trazado_581572" data-name="Trazado 581572" d="M2913.549-753.888c-.553.684-1.322.394-1.993.394q-26.392.024-52.785.012c.042-.807.678-.515,1.066-.516q26.6-.02,53.2,0A2.483,2.483,0,0,1,2913.549-753.888Z" transform="translate(-28.983 -14.413)" fill="#fefefe"/>
    <path id="Trazado_581573" data-name="Trazado 581573" d="M3013.473-752.469l-.006-.356a9.579,9.579,0,0,1,3.706-.043c.413.528.2,1.142.2,1.711.015,11.967-.027,23.936.054,35.9.011,1.667-.469,2.2-2.039,1.961a17.271,17.271,0,0,0-1.948-.081,1.348,1.348,0,0,1,.025-.292,1.86,1.86,0,0,1,.6-.367c2.387-.739,2.392-.737,2.392-3.327q0-15.616,0-31.232c0-2.7,0-2.7-2.548-3.583A1.685,1.685,0,0,1,3013.473-752.469Z" transform="translate(-128.554 -15.07)" fill="#a8e8f9"/>
    <path id="Trazado_581574" data-name="Trazado 581574" d="M3017.193-753.555l-3.706.043c-.005-.134-.01-.268-.015-.4C3014.725-753.923,3016.032-754.494,3017.193-753.555Z" transform="translate(-128.575 -14.384)" fill="#b9fdfe"/>
    <path id="Trazado_581575" data-name="Trazado 581575" d="M3013.519-751.458c3.553,0,3.553,0,3.553,3.531q0,16.318,0,32.635c0,2.956.326,2.608-2.669,2.637-.295,0-.591,0-.886,0Q3013.516-732.056,3013.519-751.458Z" transform="translate(-128.6 -16.081)" fill="#acedfe"/>
  </g>
</svg>
