<svg xmlns="http://www.w3.org/2000/svg" width="141" height="141" viewBox="0 0 141 141">
  <g id="Grupo_844225" data-name="Grupo 844225" transform="translate(-240.085 -1286.827)">
    <rect id="Rectángulo_38178" data-name="Rectángulo 38178" width="141" height="141" transform="translate(240.085 1286.827)" fill="none"/>
    <g id="Grupo_844229" data-name="Grupo 844229" transform="translate(-315.47 1722.084)">
      <path id="Trazado_580325" data-name="Trazado 580325" d="M578.474-305.261c.62-.8,1.5-.438,2.259-.443,6.159-.033,12.319-.061,18.478.014,1.36.017,1.672-.392,1.66-1.7-.064-6.972.018-13.945-.06-20.917-.022-1.957.7-2.755,2.626-2.579a20.73,20.73,0,0,0,2.232.008c1.351-.022,2.994.4,3.969-.215.991-.63.239-2.381.361-3.633.1-1.019.532-1.77,1.581-1.726,1.022.043,1.454.781,1.482,1.821.031,1.2-.552,2.811.255,3.489.953.8,2.587.248,3.923.254,6.7.027,13.4-.033,20.1.049,1.433.018,1.946-.355,1.755-1.783a12.36,12.36,0,0,1,.01-2.433,1.412,1.412,0,0,1,1.456-1.4,1.412,1.412,0,0,1,1.5,1.35c.037.267.04.539.052.809.154,3.422.154,3.422,3.545,3.423,1.286,0,2.573-.012,3.858.009a1.586,1.586,0,0,1,1.755,1.77c.006,3.994,0,7.988,0,11.982a1.736,1.736,0,0,1-1.4,1.754c-1.761.469-1.935-.778-1.988-1.957-.109-2.422-.017-4.849-.047-7.274a3.457,3.457,0,0,0-.322-2.149c-.688-.517-1.487-.257-2.239-.319-3.9,0-7.8-.007-11.7.007a3.367,3.367,0,0,0-2.143.327c-.659,1.01-.151,2.191-.472,3.25a3.377,3.377,0,0,1-3.475,2.512,15.591,15.591,0,0,1-3.814-.125,3.125,3.125,0,0,1-2.452-2.146c-.4-1.108.09-2.341-.473-3.43a1.54,1.54,0,0,0-.548-.32c-5.079-.127-10.152-.134-15.215.018a.926.926,0,0,0-.356.886c.065,6.21.037,12.421.015,18.631a1.323,1.323,0,0,0,.285.94,2.851,2.851,0,0,0,1.583.251q19.853,0,39.707,0a3.715,3.715,0,0,0,.8-.087,1.6,1.6,0,0,0,.555-.374c.56-1.286.148-2.644.3-3.958.13-1.121.306-2.188,1.857-1.954,1.611.363,1.553,1.594,1.55,2.861-.01,4.053.008,4.053,4.111,4.053h15.441c3.429,0,3.44.01,3.441,3.349q0,9.347.006,18.694c0,.672.078,1.344.12,2.016q.417.206-.008.4c.053,1.221,1.008.67,1.515.657,1.7-.045,2.293.743,2.223,2.363-.076,1.759-.077,3.527,0,5.286.072,1.641-.608,2.584-2.244,2.276-2.645-.5-3.837.731-4.288,3.127-.372,1.982-1.483,2.814-3.58,2.6a36.947,36.947,0,0,0-5.688-.014,2.228,2.228,0,0,1-2.632-1.908c-.125-.521-.473-1-.556-1.52-.3-1.909-1.4-2.254-3.239-2.346-2.309-.116-3.527.547-3.906,2.828-.388,2.333-1.739,3.26-4.154,2.962a30.059,30.059,0,0,0-5.281-.018,2.181,2.181,0,0,1-2.558-1.745c-.035-.131-.079-.259-.127-.386-1.383-3.71-1.382-3.667-5.366-3.579a1.609,1.609,0,0,0-1.719,1.27c-1.728,4.428-1.76,4.415-6.542,4.415h-.407c-4.774,0-4.805.013-6.539-4.418-.348-.889-.722-1.41-1.723-1.242a2.329,2.329,0,0,1-.406,0c-3.641-.033-3.748-.068-4.853,3.373a2.857,2.857,0,0,1-3.4,2.316,47.045,47.045,0,0,0-5.893-.007,2.193,2.193,0,0,1-2.518-1.8c-.055-.2-.114-.391-.184-.581-1.29-3.49-1.95-3.824-5.758-3.327-.944.123-1.012.736-1.249,1.336-2.007,5.09-.6,4.271-6.4,4.351q-.407.005-.813,0c-5.6-.077-4.318.737-6.212-4.291a1.821,1.821,0,0,0-2.051-1.4c-3.857.019-3.857-.032-3.857-3.908,0-1.152.072-2.311-.016-3.456-.139-1.8.523-2.692,2.428-2.558.459.032,1.339.451,1.311-.663q-.427-.189-.008-.395c.043-1.268.144-2.536.111-3.8a2.063,2.063,0,0,1,1.514-2.292c1.718-.221,1.97.976,2.15,2.232.2,1.377-.248,2.81.375,4.144a2.983,2.983,0,0,0,1.964.341q10.866.015,21.731,0c2.557-.005,2.771-.2,2.744-2.805-.061-5.887.2-11.777-.148-17.652-.275-.684-.844-.78-1.488-.763-2.081.055-4.166-.118-6.241.1a1.723,1.723,0,0,0-.449.359c-.479,1.271.009,2.632-.37,3.913a3.32,3.32,0,0,1-2.219,1.973,16.885,16.885,0,0,1-4.855.014,3.849,3.849,0,0,1-2.648-2.921c-.367-1.014.131-2.17-.525-3.134-2.195-.613-4.424-.206-6.633-.258-1.008-.024-1.148.706-1.164,1.529-.05,2.567.081,5.136-.072,7.7-.079,1.318-.356,2.61-2.156,2.527-.3-.169-.732-.114-.876-.534a.829.829,0,0,1-.1-.685c-.085-4.3-.107-8.6.009-12.9A.949.949,0,0,1,578.474-305.261Z" transform="translate(0 -47.704)" fill="#010000"/>
      <path id="Trazado_580326" data-name="Trazado 580326" d="M587.155-241.379c1.335-.272,1.6-1.19,1.585-2.406-.047-2.831-.023-5.663-.007-8.494,0-.56-.214-1.371.742-1.336,2.858.1,5.736-.374,8.576.273-2.2.932-4.523.105-6.737.451,1.286-.1,2.546-.038,3.8-.038,2.493,0,2.493.011,2.58,2.582.039.277.146.5.463.539a3.79,3.79,0,0,0,2.1,2.484,10.326,10.326,0,0,0,5,0,5.118,5.118,0,0,0,1.793-1.54c.521-1.464-.129-3.027.375-4.492l0,0a39.1,39.1,0,0,1,6.834-.121.432.432,0,0,1,.019.652c-1.48.2-2.969.032-4.453.089a6.673,6.673,0,0,0-1.213.053c-.516.115-.534.532-.561.941.093-.018.008-.064.013-.1a.907.907,0,0,1,.3-.716,18.634,18.634,0,0,1,5.6.041,1.838,1.838,0,0,1,.538,1.479c.055,5.617.037,11.233.012,16.85-.008,1.875-1.2,2.173-2.719,2.172q-9.439-.005-18.879,0c-.812,0-1.624-.011-2.433.027a4.879,4.879,0,0,0-.979.208,1.062,1.062,0,0,1-.635.023c-.048-1.514-.172-3.03-.121-4.54a2.08,2.08,0,0,0-1.589-2.382Q587.158-240.029,587.155-241.379Z" transform="translate(-7.822 -96.78)" fill="#fcb341"/>
      <path id="Trazado_580327" data-name="Trazado 580327" d="M678.163-408.912a1.691,1.691,0,0,1,.09-2.379c1.155-1.416,2.239-2.892,3.427-4.279,1.495-1.745,3.221-1.812,4.655-.063q4.765,5.81,9.356,11.761c1.433,1.862.7,3.8-1.574,4.624-3.911,1.422-3.91,1.422-3.911,5.558,0,2.709.029,5.419-.011,8.128-.033,2.208-1.039,3.214-3.239,3.266-1.828.043-3.657.024-5.486.006-2.593-.026-3.577-.978-3.594-3.529-.024-3.59-.067-7.181.027-10.768.031-1.188-.351-1.747-1.467-1.934-.4-.066-.774-.24-1.166-.341-1.591-.412-3.322-.738-3.511-2.8-.207-2.253,1.634-3.433,2.882-4.878.428-.5,1.147-.227,1.739-.059,1.474.642,1.095,1.7.5,2.668-.71,1.156-.319,1.608.841,2.032,3.189,1.163,3.608,1.831,3.62,5.21.009,2.766-.015,5.532.013,8.3.007.718-.215,1.5.375,2.118a7.587,7.587,0,0,0,2.621.2,6.79,6.79,0,0,0,1.986-.133c.661-.6.4-1.393.405-2.1.033-2.834,0-5.668.016-8.5.015-3.246.538-3.981,3.547-5.061,1.676-.6,1.734-.774.643-2.2q-2.649-3.453-5.385-6.838c-1.469-1.821-1.509-1.822-3.09.051a11.6,11.6,0,0,1-1.715,1.969C679.923-408.161,679.018-407.871,678.163-408.912Z" transform="translate(-57.978)" fill="#010101"/>
      <path id="Trazado_580328" data-name="Trazado 580328" d="M683.069-400.5a1.761,1.761,0,0,0,2.56-.574c.428-.576.928-1.1,1.4-1.646.975-.094,1.446.624,1.951,1.246,1.154,1.422,2.122,2.983,3.23,4.44,1.042,1.37.994,2.718-.358,3.749-1.658,1.264-2.006,2.876-1.934,4.823.1,2.776.049,5.559.013,8.338-.011.861.111,1.792-.694,2.441-2.544.313-2.749.184-2.714-2.26a81.8,81.8,0,0,1,.157-9c-.39,3.227-.059,6.458-.177,9.681-.026.721.195,1.5-.4,2.116-.691-1.942-.206-3.948-.3-5.922a56.8,56.8,0,0,1,0-5.857,3.4,3.4,0,0,0-2.92-3.928c-.96-.234-1.9-.543-2.862-.821.462-1.627,2.88-2.512,1.267-4.512Q682.179-399.346,683.069-400.5Z" transform="translate(-62.884 -8.408)" fill="#fe636f"/>
      <path id="Trazado_580329" data-name="Trazado 580329" d="M691.9-293.088c-.293.579-.834.329-1.259.33q-20.723.028-41.446.013c-.427,0-.965.245-1.266-.324a2.1,2.1,0,0,1,.648-.443,10.378,10.378,0,0,1,2.828-.165q17.166-.012,34.332-.013c.923,0,1.923.237,2.666-.6a5.086,5.086,0,0,0,.372-2.775c.074-5.406-.12-10.812.1-16.217a2.742,2.742,0,0,1,.228-.7c.072-.095.148-.19.219-.283a.682.682,0,0,1,.644-.072c1.193.095,1.517.823,1.518,1.923,0,2.275-.1,4.551.054,6.8-.144-2.5-.027-4.984-.059-7.464a1.752,1.752,0,0,1,.4-1.5c.49,3.279.115,6.577.2,9.865.033,1.207.261,2.151,1.66,2.321q-.075,1.363-.145,2.725a2.012,2.012,0,0,0-1.52,2.245,15.442,15.442,0,0,1-.183,4.334c-.7-1.187-.346-2.484-.39-3.712a22.9,22.9,0,0,0-.018,3.138C691.657-293.484,691.732-293.254,691.9-293.088Z" transform="translate(-43.855 -60.682)" fill="#fed05b"/>
      <path id="Trazado_580330" data-name="Trazado 580330" d="M674.824-354.455q0-2.221,0-4.443a1.445,1.445,0,0,1,1.421-1.633c1.044-.04,1.567.642,1.568,1.684q.007,4.343,0,8.685c0,1.02-.433,1.745-1.518,1.725s-1.482-.764-1.479-1.776C674.826-351.628,674.822-353.041,674.824-354.455Z" transform="translate(-59.801 -33.429)" fill="#010101"/>
      <path id="Trazado_580331" data-name="Trazado 580331" d="M724.7-354.518c0,1.481.008,2.962,0,4.443-.008.934-.449,1.589-1.415,1.63-1.085.046-1.568-.633-1.572-1.664-.009-2.895,0-5.789-.006-8.684,0-1.041.483-1.761,1.516-1.748s1.5.745,1.486,1.781C724.686-357.345,724.7-355.931,724.7-354.518Z" transform="translate(-87.598 -33.424)" fill="#010101"/>
      <path id="Trazado_580332" data-name="Trazado 580332" d="M736.955-349.541c.006,1.34.036,2.7-1.612,2.621s-1.438-1.473-1.448-2.623c-.01-1.187-.064-2.525,1.6-2.458S736.911-350.514,736.955-349.541Z" transform="translate(-94.827 -38.486)" fill="#060606"/>
      <path id="Trazado_580333" data-name="Trazado 580333" d="M665.542-349.039c.046.9-.023,2.134-1.5,2.117-1.8-.021-1.531-1.529-1.553-2.72-.02-1.115-.016-2.387,1.5-2.361C665.8-351.972,665.51-350.481,665.542-349.039Z" transform="translate(-52.486 -38.487)" fill="#050505"/>
      <path id="Trazado_580334" data-name="Trazado 580334" d="M584.115-245.99l-.017.442c-.679-.341-.609-.991-.611-1.578q-.021-5.564,0-11.128c0-.585-.063-1.238.627-1.566q0,.2.007.4A95.032,95.032,0,0,1,584.115-245.99Z" transform="translate(-5.641 -93.145)" fill="#010101"/>
      <path id="Trazado_580335" data-name="Trazado 580335" d="M690.035-313.6v20.34a1.877,1.877,0,0,1-1.177.195c-12.714-.013-25.428.033-38.141-.021-1.316-.146-1.788-.866-1.777-2.193.046-5.556.057-11.113,0-16.669-.018-1.644.686-2.084,2.2-2.079,4.606.014,9.213.11,13.818-.048a1.188,1.188,0,0,1,.777-.019l0-.014c.315,1.236-.164,2.533.288,3.758,1.878,2.949,7.123,2.948,8.995,0a1.224,1.224,0,0,0,.157-.37c.262-3.285.26-3.285,3.651-3.286,3.029,0,6.057-.008,9.085.006A3.038,3.038,0,0,1,690.035-313.6Z" transform="translate(-44.453 -60.933)" fill="#fee077"/>
      <path id="Trazado_580336" data-name="Trazado 580336" d="M760.789-247.154a4.923,4.923,0,0,0,1.8-1.544c.5-1.463-.146-3.02.371-4.481v0a35.585,35.585,0,0,1,6.851-.114.432.432,0,0,1-.052.659,30.561,30.561,0,0,1-4.457.041c-1.369-.06-2.068.309-1.751,1.463-.142-.88.159-1.508,1.606-1.454,5.206.192,4.883-.973,4.9,4.862.01,4.4.037,8.8-.015,13.194-.026,2.189-.464,2.649-2.63,2.664-6.833.046-13.666.028-20.5.008a2.807,2.807,0,0,1-1.929-.469,4.564,4.564,0,0,1-.308-2.557c-.112-5.84.188-11.685-.161-17.523-.1-.708.255-.987.914-.961,2.725.108,5.461-.244,8.179.2a4.071,4.071,0,0,1,.21,2.5,3.321,3.321,0,0,0,1.978,3.513A8.756,8.756,0,0,0,760.789-247.154Z" transform="translate(-101.112 -96.95)" fill="#fcb341"/>
      <path id="Trazado_580337" data-name="Trazado 580337" d="M668.034-253.363c2.854-.663,5.748-.228,8.62-.249,1.189-.009.693,1.147.676,1.762-.052,1.91-.005,3.7,2.161,4.528a8.493,8.493,0,0,0,4.69,0,3.274,3.274,0,0,0,2.152-3.67,16.831,16.831,0,0,1,.112-2.4,1.794,1.794,0,0,1,.669,0c2.039.174,4.1-.268,6.131.278a1.616,1.616,0,0,1,.416.622c.515,3.437.151,6.893.231,10.339.056,2.368.03,4.74,0,7.109a3.9,3.9,0,0,1-.567,2.526,3.5,3.5,0,0,1-2.334.468q-9.833.021-19.666,0c-2.679-.009-2.9-.249-2.907-2.88q-.013-7.806,0-15.613c.008-2.251.166-2.39,2.439-2.415,1.148-.012,2.3-.019,3.422,0-1.936-.057-3.85.066-5.764-.067A1.441,1.441,0,0,1,668.034-253.363Z" transform="translate(-55.777 -96.754)" fill="#fcb341"/>
      <path id="Trazado_580338" data-name="Trazado 580338" d="M581.543-188.242c-.6-.791-.189-1.7-.287-2.546-.1-.9.388-1.211,1.224-1.131.2.02.407,0,.61,0q47.066.014,94.132.032a2.254,2.254,0,0,1,2.14,3.423c-.268.574-.727.517-1.187.526-1.152.022-2.3.038-3.456.038q-45.439,0-90.879-.016c-.762,0-1.616.345-2.3-.329a2.711,2.711,0,0,1,.68-.425,13.06,13.06,0,0,1,3.233-.159q43.55-.01,87.1-.011a10.985,10.985,0,0,0,3.02-.158c.744-.6.768-1.189-.016-1.78a5.944,5.944,0,0,0-1.824-.141q-44.8,0-89.6,0a8.971,8.971,0,0,0-1.209.057C581.567-190.469,582.471-188.866,581.543-188.242Z" transform="translate(-4.297 -133.398)" fill="#8c7988"/>
      <path id="Trazado_580339" data-name="Trazado 580339" d="M769.711-252.779a2.328,2.328,0,0,0-.016-.34,2.828,2.828,0,0,1,2.371-.09q.062,10.363.131,20.726c.006.713-.136,1.153-.988,1.148q-13.4-.08-26.806-.131c-.049,0-.1-.088-.147-.135a1.2,1.2,0,0,1,.657-.38c7.4-.119,14.794-.01,22.191-.064.774-.006,1.632.266,2.292-.425.331-6.04.052-12.084.155-18.125A5.025,5.025,0,0,1,769.711-252.779Z" transform="translate(-100.971 -96.937)" fill="#fba512"/>
      <path id="Trazado_580340" data-name="Trazado 580340" d="M616.822-252.778a2.27,2.27,0,0,0-.017-.341,2.824,2.824,0,0,1,2.363-.09q.061,10.363.13,20.726c.005.713-.132,1.154-.986,1.15q-13.4-.079-26.8-.129c-.048,0-.095-.091-.142-.139q.155-.05.312-.089a5.592,5.592,0,0,1,2.59-.34c6.632,0,13.265.009,19.9-.013.782,0,1.639.254,2.324-.395.372-3.352.07-6.715.169-10.07C616.758-245.931,616.452-249.36,616.822-252.778Z" transform="translate(-10.319 -96.937)" fill="#fba512"/>
      <path id="Trazado_580341" data-name="Trazado 580341" d="M744.392-231.842c-.113.026-.226.053-.338.082q-.067-10.453-.137-20.907c0-.521.085-.991.731-.962,2.87.13,5.761-.379,8.613.285-2.4,0-4.8-.015-7.194.015-.669.009-1.554-.31-1.741.8.431,3.686.067,7.387.2,11.078.1,2.949-.25,5.908.2,8.848,7.374,0,14.749-.049,22.121.037,1.711.02,2.376-.337,2.329-2.215-.131-5.274-.1-10.554-.014-15.83.024-1.522-.448-2.141-1.962-1.932a4.093,4.093,0,0,1-1.215,0c-2.037-.339-2.927.438-2.562,2.529a.72.72,0,0,1-.394.688,12.185,12.185,0,0,0-.01-1.575c-.209-1.582.386-2.213,2.027-2.067,1.476.132,2.974.027,4.462.027q0,10.376.007,20.752a4.484,4.484,0,0,1-2.2.184c-6.975.016-13.949.005-20.923.016A4.927,4.927,0,0,0,744.392-231.842Z" transform="translate(-100.771 -96.777)" fill="#f8b040"/>
      <path id="Trazado_580342" data-name="Trazado 580342" d="M686.8-253.3q-.166-.032-.328-.077c2.852-.631,5.738-.152,8.606-.262.926-.035.836.691.837,1.289.005,6.487,0,12.973.013,19.46,0,.852-.11,1.4-1.185,1.393-8.783-.035-17.565-.029-26.348-.046-.105,0-.21-.147-.314-.225a1.405,1.405,0,0,1,.644-.4c8.008-.1,16.018.047,24.024-.077l.35-.1a6.593,6.593,0,0,0,.631-.321c.935-.492.988-1.353.986-2.269q-.012-7.626,0-15.252a2.383,2.383,0,0,0-.916-2.327,6.525,6.525,0,0,1-.513-.445l-.039.009C691.126-253.494,688.936-252.861,686.8-253.3Z" transform="translate(-55.807 -96.77)" fill="#f6ad13"/>
      <path id="Trazado_580343" data-name="Trazado 580343" d="M818.3-257.569v23.451h-.2v-23.459Z" transform="translate(-144.753 -94.474)" fill="#050505"/>
      <path id="Trazado_580344" data-name="Trazado 580344" d="M790.3-173.247c-.774-1.181-.454-1.654.949-1.6,1.6.06,3.2.069,4.8,0,1.68-.075,1.411.654.76,1.617A21.214,21.214,0,0,1,790.3-173.247Z" transform="translate(-128.03 -143.522)" fill="#6c5e69"/>
      <path id="Trazado_580345" data-name="Trazado 580345" d="M668-231.338c-.12.029-.24.061-.359.1-.515-1.576-.228-3.2-.207-4.792.073-5.6-.3-11.2.187-16.791.126.018.251.039.376.061a1.048,1.048,0,0,1,.244.71q-.1,10,0,20A1.055,1.055,0,0,1,668-231.338Z" transform="translate(-55.362 -97.293)" fill="#fec146"/>
      <path id="Trazado_580346" data-name="Trazado 580346" d="M648.074-293.353l-.424.07c-.372-7.018-.064-14.041-.162-21.06-.005-.386.132-.655.593-.569a1.328,1.328,0,0,1,.259.718c-.114,6.709-.079,13.418-.016,20.127A1.1,1.1,0,0,1,648.074-293.353Z" transform="translate(-43.579 -60.47)" fill="#fef280"/>
      <path id="Trazado_580347" data-name="Trazado 580347" d="M596.369-173.219c-.606-.929-.738-1.62.742-1.6,1.671.019,3.345.036,5.015-.006,1.536-.038,1.305.686.756,1.6A21.176,21.176,0,0,1,596.369-173.219Z" transform="translate(-13.031 -143.538)" fill="#6c5e69"/>
      <ellipse id="Elipse_7264" data-name="Elipse 7264" cx="0.135" cy="14.861" rx="0.135" ry="14.861" transform="translate(602.93 -379.204)" fill="#040402"/>
      <path id="Trazado_580348" data-name="Trazado 580348" d="M665.539-251.589v20.448l-.2,0v-20.533Z" transform="translate(-54.178 -97.976)" fill="#040301"/>
      <path id="Trazado_580349" data-name="Trazado 580349" d="M624.753-252.116c.183,1.112.006,1.766-1.389,1.718-1.13-.039-1.557-.324-1.45-1.476.085-.918-.216-1.862,1.337-1.815C624.47-253.651,625.044-253.369,624.753-252.116Z" transform="translate(-28.422 -96.779)" fill="#f9cd59"/>
      <path id="Trazado_580350" data-name="Trazado 580350" d="M777.675-251.9c.338,1.318-.4,1.44-1.534,1.486-1.364.055-1.266-.688-1.312-1.618-.056-1.132.145-1.667,1.491-1.674C777.776-253.711,777.812-252.977,777.675-251.9Z" transform="translate(-119.094 -96.771)" fill="#f9cd59"/>
      <path id="Trazado_580351" data-name="Trazado 580351" d="M651.909-173.234a.938.938,0,0,1-.34.862,26.157,26.157,0,0,1-6.157.021l-.34-.88c.107-.254.26-.59.5-.593C647.7-173.849,649.928-174.8,651.909-173.234Z" transform="translate(-42.162 -143.951)" fill="#695c66"/>
      <path id="Trazado_580352" data-name="Trazado 580352" d="M748.854-173.231a.969.969,0,0,1-.341.876,25.912,25.912,0,0,1-6.156-.017.942.942,0,0,1-.34-.864c.1-.256.257-.591.5-.593C744.648-173.843,746.875-174.8,748.854-173.231Z" transform="translate(-99.641 -143.951)" fill="#695c66"/>
      <path id="Trazado_580353" data-name="Trazado 580353" d="M694.365-171.928c-.379-.142-.411-.463-.415-.8.153-.436.219-1,.763-1.081a17.509,17.509,0,0,1,4.983,0c.544.078.611.646.763,1.082,0,.336-.036.657-.415.8A16.868,16.868,0,0,0,694.365-171.928Z" transform="translate(-71.144 -144.037)" fill="#6a5c67"/>
      <path id="Trazado_580354" data-name="Trazado 580354" d="M728.016-313.746c-4.048,0-8.1.095-12.142-.043-1.873-.064-2.825.357-2.524,2.4.04.274-.23.595-.357.894l.045-3.66a114.914,114.914,0,0,1,14.981,0Z" transform="translate(-82.435 -60.783)" fill="#fadc75"/>
      <path id="Trazado_580355" data-name="Trazado 580355" d="M698.615-314.939a3.886,3.886,0,0,1,2.412.048,3.735,3.735,0,0,1,.008,2.713,3.465,3.465,0,0,1-2.413.007A3.974,3.974,0,0,1,698.615-314.939Z" transform="translate(-73.764 -60.363)" fill="#f8b03f"/>
      <path id="Trazado_580356" data-name="Trazado 580356" d="M665.6-317.346H649.063v-.2h16.542Z" transform="translate(-44.529 -58.915)" fill="#040301"/>
      <path id="Trazado_580357" data-name="Trazado 580357" d="M701.026-250.4a4.906,4.906,0,0,1-2.394,0,4.362,4.362,0,0,1-.051-2.8l0,0a3.968,3.968,0,0,1,2.5,0l0,0A4.363,4.363,0,0,1,701.026-250.4Z" transform="translate(-73.768 -96.953)" fill="#facd59"/>
      <path id="Trazado_580358" data-name="Trazado 580358" d="M699.856-173.222a6.5,6.5,0,0,0-6.509,0c-.541-.9-.782-1.634.753-1.6q2.5.06,5,0C700.638-174.856,700.4-174.128,699.856-173.222Z" transform="translate(-70.54 -143.543)" fill="#6d5f6a"/>
      <path id="Trazado_580359" data-name="Trazado 580359" d="M648.989-314.59v-.447q8-.052,15.994-.1c.348,0,.674.047.78.46l-.508.089c-4.758.44-9.527.086-14.29.184A3.5,3.5,0,0,1,648.989-314.59Z" transform="translate(-44.484 -60.344)" fill="#feee7d"/>
      <path id="Trazado_580360" data-name="Trazado 580360" d="M748.406-173.618a12.7,12.7,0,0,0-6.838,0c-.365-.6-.62-1.163.479-1.163q2.941,0,5.883,0C749.029-174.782,748.771-174.221,748.406-173.618Z" transform="translate(-99.192 -143.564)" fill="#6f616c"/>
      <path id="Trazado_580361" data-name="Trazado 580361" d="M651.451-173.621a12.7,12.7,0,0,0-6.838,0c-.366-.6-.622-1.165.477-1.166q2.941,0,5.883,0C652.075-174.784,651.811-174.222,651.451-173.621Z" transform="translate(-41.704 -143.564)" fill="#6f616c"/>
      <path id="Trazado_580362" data-name="Trazado 580362" d="M728.084-314.6l-14.981,0c0-.621.48-.546.854-.543q7.065.042,14.13.106.2.145.136.294t-.131.15Z" transform="translate(-82.5 -60.339)" fill="#feee7d"/>
      <path id="Trazado_580363" data-name="Trazado 580363" d="M596.993-172c.633-.639,1.221-1.187,2.164-.352a1.626,1.626,0,0,0,2.189.014c.935-.815,1.529-.353,2.16.326,0,.335-.037.651-.408.8a16.829,16.829,0,0,0-5.68.016C597.031-171.341,597.006-171.669,596.993-172Z" transform="translate(-13.655 -144.753)" fill="#6a5c67"/>
      <path id="Trazado_580364" data-name="Trazado 580364" d="M790.9-171.372c.558-.436,5.952-.425,6.513.013-.013.335-.04.663-.426.8a16.871,16.871,0,0,0-5.68-.017C790.937-170.721,790.9-171.038,790.9-171.372Z" transform="translate(-128.629 -145.397)" fill="#6a5c67"/>
      <path id="Trazado_580365" data-name="Trazado 580365" d="M585.045-245.412q0-6.717.006-13.433c.593.534.386,1.246.39,1.892q.027,4.826,0,9.653C585.437-246.654,585.647-245.941,585.045-245.412Z" transform="translate(-6.571 -93.723)" fill="#050505"/>
      <path id="Trazado_580366" data-name="Trazado 580366" d="M749.918-314.636l-.006-.444a3.784,3.784,0,0,1,2.437.125c-.006,3.136,0,6.273-.027,9.41-.005.643.21,1.351-.375,1.888a61.351,61.351,0,0,1-.162-9.1c0-1.176-.349-1.741-1.466-1.881h-.4Z" transform="translate(-104.325 -60.297)" fill="#fee061"/>
      <path id="Trazado_580367" data-name="Trazado 580367" d="M601.649-249.416l-.48.534c-.567-1.044.425-2.587-.543-3.23-1.025-.682-2.5-.142-3.774-.236s-2.563.224-3.817-.194c.779-.84,1.775-.325,2.656-.369,1.945-.1,3.9-.036,5.846-.039A8.884,8.884,0,0,1,601.649-249.416Z" transform="translate(-11.308 -97.172)" fill="#febe44"/>
      <path id="Trazado_580368" data-name="Trazado 580368" d="M799.1-253.471l-2.37.089-6.877-.072A26.605,26.605,0,0,1,799.1-253.471Z" transform="translate(-128.01 -96.673)" fill="#d69c38"/>
      <path id="Trazado_580369" data-name="Trazado 580369" d="M646.2-253.467l-2.363.089-6.883-.08A27.192,27.192,0,0,1,646.2-253.467Z" transform="translate(-37.348 -96.679)" fill="#d89d38"/>
      <path id="Trazado_580370" data-name="Trazado 580370" d="M645.906-169.786l6.157-.021A8.548,8.548,0,0,1,645.906-169.786Z" transform="translate(-42.657 -146.516)" fill="#736470"/>
      <path id="Trazado_580371" data-name="Trazado 580371" d="M742.859-169.8l6.156.017A8.524,8.524,0,0,1,742.859-169.8Z" transform="translate(-100.143 -146.517)" fill="#736470"/>
      <path id="Trazado_580372" data-name="Trazado 580372" d="M585.179-207.523v-4.991l.2-.007v5.08Z" transform="translate(-6.65 -121.19)" fill="#050505"/>
      <path id="Trazado_580373" data-name="Trazado 580373" d="M624.2-238.063c.319.781-.344.477-.591.48-1.465.019-2.931,0-4.4-.021-.041,0-.12-.083-.114-.116a2.3,2.3,0,0,1,.1-.339Z" transform="translate(-26.761 -106.045)" fill="#feba43"/>
      <path id="Trazado_580374" data-name="Trazado 580374" d="M777.082-238.061c.1,1.058-.7.441-1,.457-1.329.068-2.664.013-4,0-.039,0-.116-.086-.109-.119a2.3,2.3,0,0,1,.112-.338Z" transform="translate(-117.406 -106.043)" fill="#feba43"/>
      <path id="Trazado_580375" data-name="Trazado 580375" d="M791.9-169.629a8.74,8.74,0,0,1,5.68.017A26.546,26.546,0,0,1,791.9-169.629Z" transform="translate(-129.222 -146.345)" fill="#746571"/>
      <path id="Trazado_580376" data-name="Trazado 580376" d="M700.722-237.984c-1.528.908-3.158.377-4.753.331a.246.246,0,0,1-.037-.163.593.593,0,0,1,.1-.168Z" transform="translate(-72.317 -106.092)" fill="#feba43"/>
      <path id="Trazado_580377" data-name="Trazado 580377" d="M598.036-169.612a8.732,8.732,0,0,1,5.68-.016A26.625,26.625,0,0,1,598.036-169.612Z" transform="translate(-14.273 -146.345)" fill="#746571"/>
      <path id="Trazado_580378" data-name="Trazado 580378" d="M694.969-169.62a8.737,8.737,0,0,1,5.679,0A26.487,26.487,0,0,1,694.969-169.62Z" transform="translate(-71.748 -146.345)" fill="#746571"/>
      <ellipse id="Elipse_7265" data-name="Elipse 7265" cx="0.134" cy="2.501" rx="0.134" ry="2.501" transform="translate(641.196 -383.355)" fill="#050505"/>
      <path id="Trazado_580379" data-name="Trazado 580379" d="M664.473-332.73v3.532l-.167.007v-3.533Z" transform="translate(-53.567 -49.914)" fill="#050505"/>
      <path id="Trazado_580380" data-name="Trazado 580380" d="M789.319-252.856c-.1,1.5.473,3.047-.371,4.481C789.263-249.853,788.761-251.4,789.319-252.856Z" transform="translate(-127.471 -97.274)" fill="#d69c38"/>
      <path id="Trazado_580381" data-name="Trazado 580381" d="M636.412-252.883c-.1,1.5.482,3.056-.375,4.492C636.348-249.873,635.821-251.424,636.412-252.883Z" transform="translate(-36.805 -97.258)" fill="#d89d38"/>
      <path id="Trazado_580382" data-name="Trazado 580382" d="M690.277-310.284c-.738-1.2-.291-2.5-.288-3.758C690.616-312.83,690.179-311.536,690.277-310.284Z" transform="translate(-68.714 -60.995)" fill="#f9dc74"/>
      <path id="Trazado_580383" data-name="Trazado 580383" d="M704.905-311.862q0-1.357-.008-2.713A2.989,2.989,0,0,1,704.905-311.862Z" transform="translate(-77.634 -60.679)" fill="#d5a039"/>
      <path id="Trazado_580384" data-name="Trazado 580384" d="M704.886-250.108q.025-1.4.05-2.8A3.11,3.11,0,0,1,704.886-250.108Z" transform="translate(-77.628 -97.243)" fill="#c5ab4a"/>
      <path id="Trazado_580385" data-name="Trazado 580385" d="M698.432-252.908q.025,1.4.051,2.8A3.109,3.109,0,0,1,698.432-252.908Z" transform="translate(-73.619 -97.243)" fill="#c5ab4a"/>
      <path id="Trazado_580386" data-name="Trazado 580386" d="M698.489-314.694l.007,2.768A3.023,3.023,0,0,1,698.489-314.694Z" transform="translate(-73.638 -60.608)" fill="#d5a039"/>
      <path id="Trazado_580387" data-name="Trazado 580387" d="M701.374-253.49h-2.5A2.134,2.134,0,0,1,701.374-253.49Z" transform="translate(-74.064 -96.658)" fill="#c5ab4a"/>
      <path id="Trazado_580388" data-name="Trazado 580388" d="M617.811-251.839l.01,20.752a3.832,3.832,0,0,1-1.983.185q-10.412.02-20.824,0a3.679,3.679,0,0,1-1.98-.191c.6-.656,1.4-.392,2.113-.394,6.779-.019,13.558-.05,20.336.019,1.487.015,2.012-.382,1.987-1.936q-.129-8.032,0-16.067c.021-1.481-.371-2.2-1.929-1.963a2.6,2.6,0,0,1-.406,0c-3.118-.013-3.118-.013-3.605,2.817-.467-3.222-.467-3.222,2.624-3.223Z" transform="translate(-11.308 -97.877)" fill="#f8b040"/>
      <path id="Trazado_580389" data-name="Trazado 580389" d="M592.5-200.877l24.787.007c-.329.457-.822.394-1.288.393q-11.934-.024-23.867-.056Z" transform="translate(-10.772 -128.094)" fill="#febe45"/>
      <path id="Trazado_580390" data-name="Trazado 580390" d="M596.787-212.8c.389-.9.837-1.746,2.048-1.447A1.539,1.539,0,0,1,600-212.58c.03.866-.118,1.649-1.016,1.989-1.172.444-1.7-.381-2.178-1.229C596.4-212.138,596.418-212.464,596.787-212.8Z" transform="translate(-13.367 -120.132)" fill="#100b04"/>
      <path id="Trazado_580391" data-name="Trazado 580391" d="M610.751-213.272c.69-.97,1.582-1.711,2.624-.677a1.938,1.938,0,0,1-.112,3.025c-1.176.967-1.936.072-2.541-.921A1.017,1.017,0,0,1,610.751-213.272Z" transform="translate(-21.63 -120.046)" fill="#100c04"/>
      <path id="Trazado_580392" data-name="Trazado 580392" d="M593.035-251.91c1.933,0,3.874.107,5.8-.033,1.788-.131,2.656.387,2.348,2.294a8.857,8.857,0,0,0-.011,1.4c-.087-.1-.228-.187-.254-.3-.675-2.954-.674-2.9-3.789-2.979C595.764-251.565,594.33-251.083,593.035-251.91Z" transform="translate(-11.308 -97.804)" fill="#f8b03f"/>
      <path id="Trazado_580393" data-name="Trazado 580393" d="M610.371-211.767q-.015.713-.029,1.426c-1,.014-.266-.714-.423-1.063C609.844-211.569,609.784-212.187,610.371-211.767Z" transform="translate(-21.25 -121.551)" fill="#febd44"/>
      <path id="Trazado_580394" data-name="Trazado 580394" d="M596.438-210.718q.009.488.018.977c-.614.49-.5-.156-.464-.357C596.038-210.323,595.6-211.036,596.438-210.718Z" transform="translate(-13.017 -122.211)" fill="#fdbf44"/>
      <path id="Trazado_580395" data-name="Trazado 580395" d="M699.543-380.8c0-4.132.033-8.265,0-12.4a2.743,2.743,0,0,1,1.207-2.548c2.518-1.873,2.5-2.2.595-4.625-1.369-1.746-2.343-3.8-4.113-5.234,1.867-2.621,1.865-2.619,3.8-.174,2.143,2.7,4.271,5.418,6.448,8.094.642.79.672,1.093-.42,1.467-4.756,1.629-4.674,1.669-4.768,6.786-.058,3.133.425,6.289-.3,9.4-.438-3.347-.088-6.709-.194-10.063-.025-.784-.008-1.568-.05-2.351-.1-.264-.506.02-.246-.056a.08.08,0,0,1,.114.077c.386,3.741.056,7.493.17,11.237.032,1.033-.648,1-1.347.99a6.128,6.128,0,0,1-.718-.029A.377.377,0,0,1,699.543-380.8Z" transform="translate(-73.088 -5.526)" fill="#fd4454"/>
      <path id="Trazado_580396" data-name="Trazado 580396" d="M694.9-359.374c0-3.762-.011-7.524.015-11.286,0-.708-.258-1.495.391-2.094.445,3.228.121,6.471.187,9.707.058,2.878.012,2.879,2.65,3.316l.022-.011q.194.15.125.293c-.046.094-.091.142-.136.142A8.084,8.084,0,0,1,694.9-359.374Z" transform="translate(-71.688 -26.182)" fill="#fe6875"/>
      <path id="Trazado_580397" data-name="Trazado 580397" d="M702.943-358.53c0-.145.008-.29.011-.435,1.572.244,2.115-.368,2.059-2a69.959,69.959,0,0,1,.37-10.481V-358.6A4.86,4.86,0,0,1,702.943-358.53Z" transform="translate(-76.476 -26.96)" fill="#fe4859"/>
      <path id="Trazado_580398" data-name="Trazado 580398" d="M698.785-359.732c-2.835-.017-2.836-.017-2.836-2.783q0-5.12,0-10.24c.814,1.237.328,2.615.384,3.923a51.631,51.631,0,0,1-.013,6.269c-.156,1.964.526,2.75,2.466,2.417Q698.784-359.939,698.785-359.732Z" transform="translate(-72.328 -26.182)" fill="#fa626d"/>
      <path id="Trazado_580399" data-name="Trazado 580399" d="M648.968-262.793c.006-.123.009-.246.01-.37a1.576,1.576,0,0,1,1.624,0l39.453,0c-.467.564-1.116.393-1.7.393Q668.66-262.771,648.968-262.793Z" transform="translate(-44.472 -91.029)" fill="#fee87b"/>
      <path id="Trazado_580400" data-name="Trazado 580400" d="M750.913-313.827c1.184-.15,1.674.3,1.647,1.559-.068,3.139-.02,6.28-.019,9.42-.909-2.884-.257-5.843-.364-8.764A2.247,2.247,0,0,0,750.913-313.827Z" transform="translate(-104.919 -61.106)" fill="#f9cc59"/>
      <path id="Trazado_580401" data-name="Trazado 580401" d="M752.951-270.018H751.62c1.638-1.5.565-3.3,1.007-4.836a.19.19,0,0,1,.141-.1.544.544,0,0,1,.188.053A12.155,12.155,0,0,1,752.951-270.018Z" transform="translate(-105.338 -84.173)" fill="#f9cc59"/>
      <path id="Trazado_580402" data-name="Trazado 580402" d="M754.889-269.941l.006-4.88c.858,1.713.131,3.552.42,5.311l0-.01Z" transform="translate(-107.276 -84.25)" fill="#fee062"/>
      <path id="Trazado_580403" data-name="Trazado 580403" d="M650.615-293.047h-1.624q0-10.371,0-20.742h16.266c-.6.655-1.4.388-2.109.392-3.923.025-7.848.066-11.77-.016-1.447-.031-2.042.309-2.016,1.9.09,5.411.075,10.825,0,16.236A2.16,2.16,0,0,0,650.615-293.047Z" transform="translate(-44.486 -61.144)" fill="#f9dc74"/>
      <path id="Trazado_580404" data-name="Trazado 580404" d="M670.933-273.925c-.04,1-.44,1.814-1.659,1.7s-1.426-1.026-1.389-2.06.488-1.712,1.561-1.688C670.687-275.941,670.938-275.041,670.933-273.925Z" transform="translate(-55.687 -83.569)" fill="#0c0a05"/>
      <path id="Trazado_580405" data-name="Trazado 580405" d="M657.173-273.609c-.443.874-.978,1.667-2.13,1.292-.894-.291-1.091-1.054-1.073-1.926a1.6,1.6,0,0,1,1.087-1.713c1.155-.351,1.689.429,2.118,1.316A.624.624,0,0,1,657.173-273.609Z" transform="translate(-47.437 -83.526)" fill="#0a0905"/>
      <path id="Trazado_580406" data-name="Trazado 580406" d="M661.84-271.666l0-1.032c.812-.282.386.4.433.625C662.31-271.9,662.484-271.255,661.84-271.666Z" transform="translate(-52.105 -85.469)" fill="#feef7e"/>
      <path id="Trazado_580407" data-name="Trazado 580407" d="M676.188-271.443c-.205-.641-.264-1.019-.023-1.424C676.532-272.466,676.428-272.061,676.188-271.443Z" transform="translate(-60.505 -85.409)" fill="#feee7d"/>
      <path id="Trazado_580408" data-name="Trazado 580408" d="M763.711-213.359c.712-.993,1.644-1.591,2.614-.53a1.933,1.933,0,0,1-.206,2.994c-1.2.922-1.919,0-2.5-.976C763.28-212.391,763.135-212.9,763.711-213.359Z" transform="translate(-112.276 -120.046)" fill="#100b04"/>
      <path id="Trazado_580409" data-name="Trazado 580409" d="M753.549-212.47c0,1.23-.439,2.04-1.615,1.989-1.213-.052-1.453-.99-1.435-2.026.018-1.012.444-1.763,1.51-1.752C753.185-214.246,753.6-213.431,753.549-212.47Z" transform="translate(-104.672 -120.159)" fill="#0e0a03"/>
      <path id="Trazado_580410" data-name="Trazado 580410" d="M745.263-230.9c-.654-.6-.391-1.393-.393-2.1-.019-5.941-.009-11.882-.007-17.822.651.6.387,1.394.39,2.1C745.272-242.779,745.263-236.838,745.263-230.9Z" transform="translate(-101.305 -98.479)" fill="#feb642"/>
      <path id="Trazado_580411" data-name="Trazado 580411" d="M763.349-211.771q-.047.744-.1,1.488C762.3-210.842,762.775-211.31,763.349-211.771Z" transform="translate(-111.914 -121.634)" fill="#febf44"/>
      <path id="Trazado_580412" data-name="Trazado 580412" d="M749.166-209.709a.992.992,0,0,1-.1-1.171C749.549-210.5,749.155-210.071,749.166-209.709Z" transform="translate(-103.737 -122.163)" fill="#fdbe44"/>
      <path id="Trazado_580413" data-name="Trazado 580413" d="M729.8-251.856c.125,0,.251.008.376.009,1.093.162,1.465.712,1.45,1.886q-.114,8.484,0,16.97c.015,1.174-.355,1.725-1.449,1.886l-.376.008q-.174-.122-.134-.265t.094-.148Q729.782-241.683,729.8-251.856Z" transform="translate(-92.317 -97.867)" fill="#fca714"/>
      <path id="Trazado_580414" data-name="Trazado 580414" d="M693.779-231.85c.013.138.026.276.039.413l-.038-.007a3.722,3.722,0,0,1-1.982.191q-10.421.021-20.842,0a3.7,3.7,0,0,1-1.982-.191v-20.744a34.255,34.255,0,0,1,8.133,0c-1.871.852-3.847.343-5.766.359-1.468.013-2.02.373-2,1.938.087,5.414.079,10.832,0,16.247-.02,1.466.51,1.828,1.887,1.818C678.751-231.877,686.266-231.85,693.779-231.85Z" transform="translate(-56.335 -97.527)" fill="#f8b03f"/>
      <path id="Trazado_580415" data-name="Trazado 580415" d="M676.97-211.875c-.584.979-1.3,1.9-2.5.981a1.935,1.935,0,0,1-.211-2.994c.97-1.062,1.9-.465,2.614.529C677.456-212.9,677.308-212.394,676.97-211.875Z" transform="translate(-59.107 -120.046)" fill="#100b04"/>
      <path id="Trazado_580416" data-name="Trazado 580416" d="M687.863-212.275c-.014-1.275.466-2.025,1.642-1.963,1.088.057,1.4.87,1.4,1.852,0,1.065-.349,1.951-1.544,1.919A1.494,1.494,0,0,1,687.863-212.275Z" transform="translate(-67.53 -120.169)" fill="#0d0903"/>
      <path id="Trazado_580417" data-name="Trazado 580417" d="M677.1-252.332h-8.133q0-.171-.007-.342,4.042,0,8.085.011c.037,0,.1.086.106.137A.528.528,0,0,1,677.1-252.332Z" transform="translate(-56.324 -97.382)" fill="#febd44"/>
      <path id="Trazado_580418" data-name="Trazado 580418" d="M714.07-252.854c2.15.1,4.338-.489,6.448.351C718.374-252.714,716.184-252.078,714.07-252.854Z" transform="translate(-83.073 -97.211)" fill="#febd43"/>
      <path id="Trazado_580419" data-name="Trazado 580419" d="M681.665-210.287q-.049-.742-.1-1.484C682.325-210.947,682.346-210.639,681.665-210.287Z" transform="translate(-63.801 -121.634)" fill="#febf44"/>
      <path id="Trazado_580420" data-name="Trazado 580420" d="M696.141-211.064c.3.437.3,1.1.1,1.153-.522.149-.208-.385-.265-.611C695.938-210.662,696.067-210.844,696.141-211.064Z" transform="translate(-72.318 -122.053)" fill="#fdbd44"/>
      <path id="Trazado_580421" data-name="Trazado 580421" d="M677.444-190.217v2.445a2.744,2.744,0,0,1-1.587.191q-46.034.009-92.068,0a5.587,5.587,0,0,1-1.013-.059,2.972,2.972,0,0,1-.056-2.687,7.161,7.161,0,0,1,1.818-.087q45.458-.006,90.916,0A3.8,3.8,0,0,1,677.444-190.217Z" transform="translate(-5.018 -134.279)" fill="#a998a5"/>
      <path id="Trazado_580422" data-name="Trazado 580422" d="M582.843-183.877l94.769,0c-.479.551-1.129.363-1.714.363q-46.023.011-92.046,0c-.338,0-.675-.04-1.013-.061-.115-.068-.153-.136-.113-.2S582.8-183.877,582.843-183.877Z" transform="translate(-5.187 -138.172)" fill="#b7a4b2"/>
      <path id="Trazado_580423" data-name="Trazado 580423" d="M677.632-190.528l-94.765,0c-.108-.087-.145-.174-.111-.263s.069-.134.1-.134q46.435-.007,92.871-.006C676.378-190.927,677.105-191.161,677.632-190.528Z" transform="translate(-5.206 -133.968)" fill="#b1a0ad"/>
      <path id="Trazado_580424" data-name="Trazado 580424" d="M582.435-190.853q0,.2.006.4,0,1.222,0,2.444,0,.151,0,.3l-.407.107h0C582.292-188.669,581.72-189.842,582.435-190.853Z" transform="translate(-4.78 -134.037)" fill="#baa7b5"/>
      <path id="Trazado_580425" data-name="Trazado 580425" d="M745.083-200.579c.552-.581,1.268-.338,1.911-.339q11.608-.023,23.215-.006c-.329.456-.821.4-1.286.394Q757-200.552,745.083-200.579Z" transform="translate(-101.462 -128.04)" fill="#febe45"/>
      <path id="Trazado_580426" data-name="Trazado 580426" d="M668.969-200.876h24.807c-.334.447-.824.4-1.293.4q-11.758-.026-23.517-.058Q668.967-200.706,668.969-200.876Z" transform="translate(-56.329 -128.094)" fill="#febe45"/>
      <path id="Trazado_580427" data-name="Trazado 580427" d="M730.93-231.131a2.163,2.163,0,0,0,1.25-2.237q-.111-8.133,0-16.268a2.163,2.163,0,0,0-1.25-2.237c1.206-.152,1.657.331,1.646,1.586q-.078,8.785,0,17.571C732.587-231.462,732.137-230.978,730.93-231.131Z" transform="translate(-93.07 -97.84)" fill="#f8a212"/>
      <path id="Trazado_580428" data-name="Trazado 580428" d="M625.056-252.443h-1.215C624.284-253,624.713-252.6,625.056-252.443Z" transform="translate(-29.574 -97.349)" fill="#fdd95e"/>
      <path id="Trazado_580429" data-name="Trazado 580429" d="M776.782-252.591a1.121,1.121,0,0,1,1.313-.066A1.14,1.14,0,0,1,776.782-252.591Z" transform="translate(-120.257 -97.285)" fill="#fdd95e"/>
      <path id="Trazado_580430" data-name="Trazado 580430" d="M631.2-188.882H675.5c.542,0,1.084,0,1.625.017s.933.208.907.832-.461.757-.978.766q-.609.012-1.219.011h-89.4c-.406,0-.813,0-1.219-.01-.506-.01-.971-.107-1.006-.738-.042-.765.5-.861,1.077-.872.542-.01,1.084-.007,1.625-.007Z" transform="translate(-6.073 -135.206)" fill="#ac9ba8"/>
    </g>
  </g>
</svg>
