<svg xmlns="http://www.w3.org/2000/svg" width="141" height="141" viewBox="0 0 141 141">
  <g id="Grupo_841820" data-name="Grupo 841820" transform="translate(-240.085 -1286.827)">
    <rect id="Rectángulo_38178" data-name="Rectángulo 38178" width="141" height="141" transform="translate(240.085 1286.827)" fill="none"/>
    <g id="Grupo_844232" data-name="Grupo 844232" transform="translate(-1387.381 1733.278)">
      <path id="Trazado_580609" data-name="Trazado 580609" d="M1664.709-324.712a1.9,1.9,0,0,1-2.157,1.452q-7.6-.04-15.19,0c-1.445.006-2.125-.6-2.123-2.086q.028-17.962.017-35.924c0-1.935,1.091-2.814,2.951-2.946,1.48-.105,2.989.281,4.443-.253a19.186,19.186,0,0,0,.213-4.68c.021-5.721,0-11.443.02-17.164,0-.659-.219-1.365.234-1.979a3.836,3.836,0,0,1,3.434-1.41c2.189.069,4.385-.063,6.57.048,1.327.068,1.583-.426,1.571-1.641-.058-5.888-.014-11.776-.035-17.664,0-1.163.062-2.219,1.423-2.6,1.236-.267,1.857.426,2.267,1.452.3,5.523.055,11.052.135,16.578.012.819-.026,1.639.054,2.452a1.6,1.6,0,0,0,.314.616c1.507.686,3.093.268,4.636.317,2.383.075,4.772-.052,7.153.044,1.641.066,2.334-.437,2.273-2.193-.1-2.926-.065-5.86,0-8.789.026-1.234.084-2.488,1.356-3.214,2.72-.509,5.467-.143,8.2-.235,2.291-.077,2.422-.159,2.428-2.5q.022-7.716,0-15.431c0-1.014.185-2.172-1.353-2.292-1.606-.054-3.212-.023-4.817-.028-.669,0-1.359-.063-1.794.614a9.323,9.323,0,0,0-.28,3.447c-.107,3.5-1.208,4.584-4.751,4.634-3.512.049-4.179-.326-5.311-2.98a16.877,16.877,0,0,1-.212-3.638c-.033-.657.162-1.379-.467-1.888-2.442-.1-4.906-.763-7.274.377-.453,2.83.164,5.7-.345,8.521-.443.817-.956,1.508-2.055,1.124-1.233-.264-1.593-1.088-1.578-2.265.037-2.878-.023-5.757.025-8.635.035-2.161,1.017-3.147,3.173-3.153,9.115-.024,18.23.008,27.345-.028a3.231,3.231,0,0,1,3.22,2.058c.339,6,.055,12.01.151,18.014a23.646,23.646,0,0,0,.176,4.29,4.234,4.234,0,0,0,2.21.185q14.374.026,28.748.014c3.158,0,3.917.742,3.926,3.839.014,4.517-.014,9.035.015,13.553.008,1.2-.2,2.184-1.524,2.548-1.925.321-2.131-1.1-2.219-2.376-.2-2.86-.065-5.731-.075-8.6-.024-6.347.356-5.264-5.372-5.35-2.73-.041-5.46-.018-8.191,0a3.17,3.17,0,0,0-2.163.368c-.732,1.758-.052,3.637-.468,5.42a3.827,3.827,0,0,1-3.077,3.106,12,12,0,0,1-3.948-.019c-2.238-.624-3.172-2.125-3.113-4.414a10.975,10.975,0,0,0-.269-4.05,1.852,1.852,0,0,0-1.526-.413q-6.227-.017-12.453,0c-.61,0-1.245-.04-1.636.585a5.4,5.4,0,0,0-.181,2.032q-.012,15.365,0,30.73c0,.922-.258,2.007,1.129,2.247,2.352.59,4.743.177,7.111.283s4.76-.173,7.131.165c1.353.58,1.45,1.8,1.545,3.028.109,1.4-.178,2.828.324,4.191.69.653,1.553.433,2.347.435,6.965.019,13.93.007,20.891.01.716-.031,1.552.2,1.816-.83.213-6.458.026-12.908.089-19.357a11.27,11.27,0,0,1,.155-2.666c.274-1.087.8-1.92,2.144-1.627,1.388.433,1.542,1.5,1.536,2.756-.031,6.418-.018,12.836-.008,19.254,0,.747.072,1.493.111,2.239q.387.211-.008.406c.194,1.137,1.091.583,1.637.59,3.905.054,7.812.008,11.718.037,2.738.021,3.558.857,3.561,3.575.01,8.84-.036,17.681.034,26.521.016,1.972-.7,2.639-2.648,2.636q-38.856-.061-77.712-.017c-1.169,0-2.221-.063-2.58-1.442-.356-1.566.766-1.94,1.876-2.327,9.464-.232,18.929-.028,28.391-.113a6.006,6.006,0,0,0,.746-.065c.94-.36,1.07-1.151,1.067-2.01-.044-10.183.114-20.367-.092-30.541-.341-.941-1.124-.777-1.859-.732-5.11.043-10.217.007-15.324.031a3.753,3.753,0,0,0-2.546.463c-.8,1.157-.285,2.459-.409,3.685a10.456,10.456,0,0,1-.211,2.173,3.242,3.242,0,0,1-3.471,2.232c-.946-.032-1.895-.033-2.84,0a3.251,3.251,0,0,1-3.492-2.2c-.568-1.973.2-4.061-.522-6.017a2.254,2.254,0,0,0-1.741-.412q-8.075-.015-16.15,0c-.67,0-1.389-.1-1.845.59a5.832,5.832,0,0,0-.194,2.241q-.01,13.869.006,27.738c0,.865-.236,1.8.461,2.544,1.784.626,3.622.207,5.43.284,2.634.112,5.275-.112,7.909.122C1664-326.613,1665.133-326.256,1664.709-324.712Z" transform="translate(0 0)"/>
      <path id="Trazado_580610" data-name="Trazado 580610" d="M1674.5-230.12a2.072,2.072,0,0,0-1.458,1.794,7.161,7.161,0,0,0-3.044-.008,2.074,2.074,0,0,0-1.432-1.782.865.865,0,0,0-.84-.452c-3.845-.033-7.685-.023-11.524,0-1.391.007-1.968-.545-1.965-1.954.018-10.08,0-20.16.019-30.24a2.059,2.059,0,0,1,.258-1.188,2.331,2.331,0,0,1,1.757-.383c5.552-.013,11.1.028,16.655-.028,1.546-.016,2.235.4,2.154,2.1-.07,1.457-.353,2.97.222,4.412,1.835,2.813,7.122,2.8,8.925-.022a17.081,17.081,0,0,0,.078-6.465c.107-.449.472-.406.8-.4q9.281.028,18.562.064c.971.481,1.012,1.378,1.013,2.285q.014,14.771,0,29.541c0,.9-.025,1.8-.931,2.346-3.276.309-6.56.1-9.841.124-5.82.04-11.64,0-17.459.027C1675.8-230.36,1675.091-230.662,1674.5-230.12Z" transform="translate(-5.292 -96.375)" fill="#e9b04d"/>
      <path id="Trazado_580611" data-name="Trazado 580611" d="M1695.972-409.623a2.687,2.687,0,0,0,1.566-1.07c.709-1.8.13-3.675.3-5.508a22.666,22.666,0,0,1,.118-3.023c.788-1.066,1.949-.761,2.992-.766,5.879-.028,5.3-.455,5.344,5.121.039.269.11.518.461.523a2.97,2.97,0,0,0,3.553,2.592c.816-.073,1.646.011,2.468-.017,2-.068,2.864-.9,2.934-2.893.063-1.779.065-3.561.094-5.342,2.361-.419,4.739-.116,7.11-.172a.925.925,0,0,1,.586.464,4.111,4.111,0,0,1,.277,2.009c-.1,5.8.23,11.6-.173,17.4a1.652,1.652,0,0,1-.407.623c-2.8.613-5.651.051-8.468.318a1.869,1.869,0,0,0-.615.311,2.716,2.716,0,0,0-.834,2.407c.025,3.487,0,6.975.015,10.462,0,.791.063,1.481-1.1,1.468-4.718-.05-9.436-.036-14.153-.059-.1,0-.206-.154-.309-.236.629-.578,1.41-.387,2.137-.395,3.518-.039,7.036.033,10.517-.039-3.507.067-6.979.019-10.449.021-.665,0-1.375.148-1.955-.361-.3-5.919-.038-11.841-.144-17.76-.012-.642.3-1.354-.262-1.931a2.387,2.387,0,0,0-1.753-1.135Q1695.9-408.118,1695.972-409.623Z" transform="translate(-29.739 -4.955)" fill="#e9b04d"/>
      <path id="Trazado_580612" data-name="Trazado 580612" d="M1810.062-361.355c.273-.617.829-.359,1.257-.361,4.8-.016,9.608.04,14.411-.03,1.325-.019,1.758.325,1.729,1.7-.09,4.253-.007,8.509-.049,12.764-.012,1.246.287,2.161,1.625,2.453q0,1.449-.009,2.9c-1.414.37-1.621,1.389-1.619,2.684.012,7.326-.037,14.652-.065,21.978a3.184,3.184,0,0,1-1.955.121,1.251,1.251,0,0,1-.455-.547,3.248,3.248,0,0,1-.191-.73c-.19-12.8-.034-25.6-.092-38.391a9.021,9.021,0,0,0-.268-3.245c-.63-.889-1.576-.658-2.442-.684-3.75-.114-7.509.223-11.256-.187A4.257,4.257,0,0,1,1810.062-361.355Z" transform="translate(-96.914 -39.331)" fill="#eabd6a"/>
      <path id="Trazado_580613" data-name="Trazado 580613" d="M1788.362-360.386v43.236c-.783.615-1.707.4-2.577.4-6.982.053-13.964-.066-20.944.065a1.212,1.212,0,0,1-1.118-.051c-.027-1.765-.085-3.531-.068-5.3a2.573,2.573,0,0,0-.818-2.2,2.448,2.448,0,0,0-.53-.332,2.622,2.622,0,0,0-.99-.223c-3.769-.045-7.534.03-11.3-.032-2.57-.042-2.825-.322-2.827-2.842q-.012-15.193,0-30.387c0-.866-.2-1.81.625-2.48,1.79-.575,3.63-.218,5.447-.259,3.323-.076,6.648.015,9.973-.043a1.509,1.509,0,0,1,.758.026c.035,1.62.167,3.245.079,4.857-.107,1.974.553,3.287,2.573,3.73a.413.413,0,0,0,.176.41,25.525,25.525,0,0,0,3.881,0c.086-.064.234-.016.282-.154a.513.513,0,0,1-.454-.267,3.319,3.319,0,0,0,2.519-2.525.4.4,0,0,0,.476-.358c.034-1.273,0-2.537.019-3.8.014-.886.262-1.582,1.294-1.688C1779.352-360.461,1783.863-360.839,1788.362-360.386Z" transform="translate(-59.937 -39.866)" fill="#f0ca85"/>
      <path id="Trazado_580614" data-name="Trazado 580614" d="M1804.423-244.5a29.3,29.3,0,0,1,.174,5.293c.086,2.377.741,3.08,3.038,3.163,5.535.2,5.77-.027,5.77-5.567,0-3.233,0-3.241,3.186-3.231,4.027.014,8.054.043,12.081.065a1.849,1.849,0,0,1,1,1.871c0,7.787.092,15.573-.048,23.359a1.575,1.575,0,0,1-.117.391,3.073,3.073,0,0,1-.436.679l-.4.006c-.415-.347-.914-.228-1.381-.228q-19.214-.009-38.428,0c-.468,0-.967-.119-1.382.228-.736-.3-.4-.945-.4-1.423-.024-7.754.014-15.509-.047-23.263-.01-1.338.343-1.743,1.7-1.719,4.734.082,9.469.021,14.2.046.5,0,1.112-.285,1.489.337a1.756,1.756,0,0,0-.4.769c-.15,1.488-.052,2.98-.063,4.452C1804.13-241.025,1803.544-242.828,1804.423-244.5Z" transform="translate(-83.355 -108.052)" fill="#e9b04d"/>
      <path id="Trazado_580615" data-name="Trazado 580615" d="M1671.607-304.469c-.686-.339-.356-.969-.358-1.452-.026-6.371.022-12.743-.048-19.114-.015-1.359.372-1.775,1.72-1.7a56.309,56.309,0,0,0,6.162,0c1.327-.074,1.662.418,1.571,1.642-.1,1.295.058,2.608-.041,3.9a3.013,3.013,0,0,0,2.247,3.436c-.024.284.145.409.4.47a29.07,29.07,0,0,0,3.626-.049.547.547,0,0,0,.26-.417,3.411,3.411,0,0,0,2.265-1.988,1.913,1.913,0,0,0,.28-.592c.251-1.993-.3-4.033.353-6a.691.691,0,0,1,.681-.075c1.4.175,2.8.034,4.2.093.713.03,1.495-.169,2.053.51a4.48,4.48,0,0,1,.441,2.383q.027,7.768,0,15.537a4.314,4.314,0,0,1-.509,2.564c-.772.637-1.7.394-2.562.4-7.236.038-14.472-.026-21.707.04A1.768,1.768,0,0,0,1671.607-304.469Z" transform="translate(-15.248 -59.924)" fill="#f0ca85"/>
      <path id="Trazado_580616" data-name="Trazado 580616" d="M1716.526-326.329h-.443c-.563,2.159.146,4.391-.379,6.552a2.811,2.811,0,0,1-.349.015c-.007-1.779.042-3.56-.043-5.335-.057-1.175.179-1.755,1.545-1.678a58.275,58.275,0,0,0,6.36.013c1.346-.072,1.565.461,1.555,1.653-.052,6.3-.079,12.591.013,18.885.025,1.7-.472,2.262-2.089,1.755a.724.724,0,0,1-.254-.436.706.706,0,0,1,.235-.444q0-10.294,0-20.588C1720.658-326.528,1718.552-325.79,1716.526-326.329Z" transform="translate(-41.198 -59.902)" fill="#eabc6a"/>
      <path id="Trazado_580617" data-name="Trazado 580617" d="M1773.945-230.638a4.078,4.078,0,0,0,.41-2.183q-.011-14.872,0-29.744a3.678,3.678,0,0,0-.4-2.179c.7.043,1.488-.429,2.079.329-.462.689-.227,1.462-.229,2.191-.018,9.968-.031,19.937.014,29.9.005,1.168-.2,1.949-1.471,2.121l-.39,0Q1773.594-230.408,1773.945-230.638Z" transform="translate(-75.576 -96.317)" fill="#e19341"/>
      <path id="Trazado_580618" data-name="Trazado 580618" d="M1888.543-218.887q0-11.648-.005-23.3a4.272,4.272,0,0,0-.4-2.578c.713.034,1.5-.417,2.107.315-.508.6-.252,1.311-.254,1.964-.021,7.361-.009,14.723-.019,22.084C1889.974-219.478,1890.227-218.245,1888.543-218.887Z" transform="translate(-142.823 -108.067)" fill="#de9140"/>
      <path id="Trazado_580619" data-name="Trazado 580619" d="M1654-263.964q0,15.109,0,30.217c0,2.724,0,2.724,2.82,2.725,3.22,0,6.441-.01,9.661.009.659,0,1.389-.217,1.931.4a124.468,124.468,0,0,1-14.857.048,5.318,5.318,0,0,1-.16-2.234c-.013-9.807,0-19.614-.023-29.421,0-.725.274-1.508-.254-2.182.194-.531.659-.383,1.035-.383q9.71-.013,19.419,0c.368,0,.845-.16,1,.408-3.319.446-6.655.077-9.981.2C1661.063-264.042,1657.522-264.448,1654-263.964Z" transform="translate(-4.633 -96.346)" fill="#e4ac4b"/>
      <path id="Trazado_580620" data-name="Trazado 580620" d="M1740.222-399.537c0-.125,0-.251.01-.376,2.2-.417,4.427-.062,6.637-.193a5.3,5.3,0,0,0,2.381-.2l.03,0c.688-.548.616-1.318.616-2.072q0-8.016,0-16.033c0-.754.072-1.525-.617-2.072l-.023,0c-.126-.1-.164-.2-.117-.289s.092-.136.137-.136c1.343-.365,1.983-.083,1.961,1.538q-.123,9.034,0,18.07c.018,1.409-.476,1.726-1.776,1.7C1746.381-399.658,1743.3-399.569,1740.222-399.537Z" transform="translate(-55.849 -4.47)" fill="#ec9a44"/>
      <path id="Trazado_580621" data-name="Trazado 580621" d="M1761.516-324.915l.406.4a113.373,113.373,0,0,1-14.625.044c-1.227.39-1.667.246-1.653-1.331.1-10.9.053-21.8.062-32.7,0-.748.088-1.5.135-2.243.57-.079.646.311.7.729-.115,11.147,0,22.295-.073,33.441-.008,1.211.429,1.5,1.551,1.482,3.829-.054,7.66-.03,11.489-.012A3.9,3.9,0,0,1,1761.516-324.915Z" transform="translate(-59.036 -39.928)" fill="#f6cf88"/>
      <path id="Trazado_580622" data-name="Trazado 580622" d="M1788.163-181.436c.6-.691,1.4-.421,2.121-.421q18.475-.023,36.95,0c.718,0,1.525-.268,2.121.421-7.993.035-15.986.092-23.979.1C1799.638-181.335,1793.9-181.4,1788.163-181.436Z" transform="translate(-84.037 -145.086)" fill="#f5b951"/>
      <path id="Trazado_580623" data-name="Trazado 580623" d="M1775.163-229.579c1.114-.47,1.27-1.355,1.266-2.467q-.053-14.711-.006-29.422c0-.783-.315-1.664.427-2.327q.051,16.578.114,33.155C1776.971-229.115,1776.014-229.5,1775.163-229.579Z" transform="translate(-76.394 -96.938)" fill="#f19d46"/>
      <path id="Trazado_580624" data-name="Trazado 580624" d="M1715.442-261.679c-.483.722,1.011,2.508-1.293,2.595-1.235.047-1.475-.72-1.22-1.562.419-1.385-1.236-3.366,1.069-4.158.94-.323,1.564.184,1.453,1.313C1715.4-262.948,1715.442-262.4,1715.442-261.679Z" transform="translate(-39.691 -96.288)" fill="#355c7b"/>
      <path id="Trazado_580625" data-name="Trazado 580625" d="M1650.685-263.513v33.563h-.206v-33.628Z" transform="translate(-3.081 -97.065)" fill="#040301"/>
      <path id="Trazado_580626" data-name="Trazado 580626" d="M1652.973-263.825c.779.644.453,1.531.455,2.311q.034,15.738.016,31.477c.146.1.194.194.146.29s-.1.145-.146.145c-.6-.028-.572-.482-.571-.884Q1652.918-247.156,1652.973-263.825Z" transform="translate(-4.488 -96.92)" fill="#fcbe53"/>
      <path id="Trazado_580627" data-name="Trazado 580627" d="M1807.355-367.142h-31.817v-.206h31.91Z" transform="translate(-76.614 -36.05)" fill="#040404"/>
      <path id="Trazado_580628" data-name="Trazado 580628" d="M1701.476-324.077c.3-.918-.937-2.982,1.741-2.647.414.052.891.049.9.579a37.824,37.824,0,0,1-.04,4.671c-.084.817-1,.423-1.55.491-.626.077-1.066-.126-1.055-.866C1701.484-322.526,1701.476-323.2,1701.476-324.077Z" transform="translate(-33.049 -59.915)" fill="#da6855"/>
      <path id="Trazado_580629" data-name="Trazado 580629" d="M1839.634-239.527c-2.26.809-2.463.688-2.479-1.483q-.008-1.015,0-2.031c.017-2.143.255-2.28,2.491-1.444A10.938,10.938,0,0,0,1839.634-239.527Z" transform="translate(-112.841 -108.013)" fill="#da6854"/>
      <path id="Trazado_580630" data-name="Trazado 580630" d="M1732.58-181.965q0,.221.011.442l-29.168.018c.283-.937,1.052-.429,1.548-.431C1714.173-181.975,1723.377-181.965,1732.58-181.965Z" transform="translate(-34.211 -144.99)" fill="#f5b951"/>
      <path id="Trazado_580631" data-name="Trazado 580631" d="M1796.159-361.324c2.233-.781,2.452-.642,2.47,1.582q.007.915,0,1.83c-.02,2.231-.24,2.366-2.485,1.535A11.579,11.579,0,0,0,1796.159-361.324Z" transform="translate(-88.73 -39.338)" fill="#345b7a"/>
      <path id="Trazado_580632" data-name="Trazado 580632" d="M1672.5-270.489h26.579v.206h-26.628Z" transform="translate(-16.002 -93.002)" fill="#040302"/>
      <path id="Trazado_580633" data-name="Trazado 580633" d="M1655.257-263.409c.609-.663,1.41-.4,2.129-.4,6.148-.02,12.3-.012,18.445-.012q.036,3.243.071,6.487c-1.089-.318-.424-1.173-.433-1.719-.069-4.357-.04-4.357-4.467-4.357Z" transform="translate(-5.89 -96.901)" fill="#ecb34e"/>
      <path id="Trazado_580634" data-name="Trazado 580634" d="M1889.113-218.286c1.608.074,1.224-1.124,1.226-2,.018-7.088,0-14.175.025-21.263,0-.776-.318-1.657.454-2.3.035,8.249.043,16.5.126,24.745.016,1.552-.819,1.426-1.833,1.24Q1889.112-218.073,1889.113-218.286Z" transform="translate(-143.394 -108.668)" fill="#f5a047"/>
      <path id="Trazado_580635" data-name="Trazado 580635" d="M1814.055-250.315h-25.8v-.206h25.8Z" transform="translate(-84.089 -104.743)" fill="#040302"/>
      <path id="Trazado_580636" data-name="Trazado 580636" d="M1697.343-274.089l.025.454c-8.38.186-16.76.227-25.139-.021l.425-.452a5.268,5.268,0,0,1,2.418-.184q10.135-.027,20.27,0A3.534,3.534,0,0,1,1697.343-274.089Z" transform="translate(-15.87 -90.737)" fill="#feda8f"/>
      <path id="Trazado_580637" data-name="Trazado 580637" d="M1787.336-254.117l.763-.009a6.81,6.81,0,0,1,2.828-.184q9.522-.035,19.044,0a3.837,3.837,0,0,1,2.008.189l0,0q.2.154.135.31c-.044.1-.088.156-.133.156q-11.894.059-23.789.114C1787.805-253.541,1787.336-253.5,1787.336-254.117Z" transform="translate(-83.551 -102.481)" fill="#feda8f"/>
      <path id="Trazado_580638" data-name="Trazado 580638" d="M1857.279-286.216v-23.17l.206,0v23.261Z" transform="translate(-124.677 -70.13)" fill="#050505"/>
      <path id="Trazado_580639" data-name="Trazado 580639" d="M1730.182-415.76c.09-1.658-.552-3.364.333-4.968.481.557,1.694-.226,1.794.849a8.434,8.434,0,0,1-.135,3.963C1731.9-415.238,1730.887-415.5,1730.182-415.76Z" transform="translate(-49.862 -4.663)" fill="#db6955"/>
      <path id="Trazado_580640" data-name="Trazado 580640" d="M1665.391-304.851v-21.523l.206,0v21.612Z" transform="translate(-11.849 -60.141)" fill="#040404"/>
      <path id="Trazado_580641" data-name="Trazado 580641" d="M1700.072-384.416c1.019.22.438,1.024.443,1.487.052,6.054.035,12.108.035,18.162a.343.343,0,0,1,.137.305c-.014.115-.036.173-.065.173a.344.344,0,0,1-.476-.066Q1700.109-374.385,1700.072-384.416Z" transform="translate(-32.241 -26.014)" fill="#efb44e"/>
      <path id="Trazado_580642" data-name="Trazado 580642" d="M1746.577-360.876l-.455-.422c.2-.538.669-.367,1.042-.368q7.6-.017,15.2,0c.361,0,.845-.2,1.014.376l-.366.021c-3.947.4-7.906.062-11.857.183a19.947,19.947,0,0,0-3.875.128A.6.6,0,0,1,1746.577-360.876Z" transform="translate(-59.318 -39.373)" fill="#ecca85"/>
      <path id="Trazado_580643" data-name="Trazado 580643" d="M1857.444-362.45v16.043l-.269,0v-16.073Z" transform="translate(-124.616 -38.911)" fill="#050505"/>
      <path id="Trazado_580644" data-name="Trazado 580644" d="M1700.2-336.077l.407,0a106.386,106.386,0,0,1,14.406,0c-.289.886-1.01.35-1.47.356-4.419.062-8.839.046-13.258.052a1.909,1.909,0,0,1-.116-.257C1700.155-335.973,1700.187-336.028,1700.2-336.077Z" transform="translate(-32.295 -54.291)" fill="#f9bc52"/>
      <path id="Trazado_580645" data-name="Trazado 580645" d="M1654.259-181.383c0-.145,0-.29,0-.436h14.823l-.5.466Z" transform="translate(-5.304 -145.139)" fill="#f5b951"/>
      <ellipse id="Elipse_7271" data-name="Elipse 7271" cx="9.472" cy="0.108" rx="9.472" ry="0.108" transform="translate(1731.473 -355.286)" fill="#050505"/>
      <path id="Trazado_580646" data-name="Trazado 580646" d="M1749.655-272.749l14.626-.044c.009.117.013.233.013.35-4.143-.04-8.285-.073-12.428-.129C1751.128-272.582,1750.392-272.687,1749.655-272.749Z" transform="translate(-61.395 -91.647)" fill="#ecca85"/>
      <path id="Trazado_580647" data-name="Trazado 580647" d="M1700.5-419.021q-.019,4.254-.044,8.509c0,.037-.092.111-.126.1a2.4,2.4,0,0,1-.34-.126q.052-4.655.1-9.31a.359.359,0,0,1,.521-.011A.687.687,0,0,1,1700.5-419.021Z" transform="translate(-32.195 -5.113)" fill="#efb44e"/>
      <path id="Trazado_580648" data-name="Trazado 580648" d="M1730.384-415.959c.775-.137,1.962.416,1.967-1.058.006-1.514.6-3.318-1.635-3.91,1.67-.432,2.436.122,2.187,1.92a18.509,18.509,0,0,0-.019,2.052C1732.839-415.13,1732.16-414.863,1730.384-415.959Z" transform="translate(-50.064 -4.465)" fill="#ea6f5a"/>
      <path id="Trazado_580649" data-name="Trazado 580649" d="M1671.54-332.477h8.079v.206h-8.094Z" transform="translate(-15.456 -56.554)" fill="#040404"/>
      <path id="Trazado_580650" data-name="Trazado 580650" d="M1700.652-420.435l-.408,0c.051-.6.519-.532.9-.529,2.579.022,5.158.061,7.738.094a.4.4,0,0,1-.185.624C1706.018-420.326,1703.327-420,1700.652-420.435Z" transform="translate(-32.342 -4.521)" fill="#f5b951"/>
      <path id="Trazado_580651" data-name="Trazado 580651" d="M1751.686-421.034c-.007.142-.013.283-.019.425h-7.343c.559-1.091,1.546-.468,2.312-.5C1748.314-421.184,1750-421.071,1751.686-421.034Z" transform="translate(-58.26 -4.351)" fill="#f5b950"/>
      <path id="Trazado_580652" data-name="Trazado 580652" d="M1720.864-420.3v-.438c1.232.834.385,2.058.533,3.086a17.408,17.408,0,0,1-.061,3.006l-.467.932A21.984,21.984,0,0,1,1720.864-420.3Z" transform="translate(-44.322 -4.66)" fill="#fabd52"/>
      <path id="Trazado_580653" data-name="Trazado 580653" d="M1727.106-263.765c.822,2.155.343,4.364.265,6.555a.3.3,0,0,1-.174.023.625.625,0,0,1-.168-.113Q1727.067-260.533,1727.106-263.765Z" transform="translate(-48.091 -96.956)" fill="#f2b74f"/>
      <path id="Trazado_580654" data-name="Trazado 580654" d="M1810.294-354.155l-.486-.532a33.147,33.147,0,0,1,.032-6.079l.443.047a1.087,1.087,0,0,1,.268.675C1810.308-358.088,1810.77-356.1,1810.294-354.155Z" transform="translate(-96.691 -39.92)" fill="#feda8f"/>
      <path id="Trazado_580655" data-name="Trazado 580655" d="M1656.337-270.268h-4.795l0-.182h4.795Z" transform="translate(-3.704 -93.025)" fill="#050505"/>
      <path id="Trazado_580656" data-name="Trazado 580656" d="M1796.994-339.883c.144.2.795-.17.535.479a14.864,14.864,0,0,1-5.352,0l.934-.468Z" transform="translate(-86.397 -52.199)" fill="#fed88e"/>
      <path id="Trazado_580657" data-name="Trazado 580657" d="M1698.231-304.444l.54-.489,4.281,0,.533.486A14.888,14.888,0,0,1,1698.231-304.444Z" transform="translate(-31.159 -72.749)" fill="#fed88e"/>
      <path id="Trazado_580658" data-name="Trazado 580658" d="M1796.159-360.707a6.39,6.39,0,0,1-.015,4.947Q1796.151-358.233,1796.159-360.707Z" transform="translate(-88.73 -39.955)" fill="#386283"/>
      <path id="Trazado_580659" data-name="Trazado 580659" d="M1842.451-238.847a6.216,6.216,0,0,1,.012-4.957A24.229,24.229,0,0,1,1842.451-238.847Z" transform="translate(-115.658 -108.692)" fill="#ea715b"/>
      <path id="Trazado_580660" data-name="Trazado 580660" d="M1847.159-253.306c0-.155,0-.311,0-.466l2,.005C1848.709-252.656,1847.844-253.369,1847.159-253.306Z" transform="translate(-118.725 -102.831)" fill="#fccb73"/>
      <path id="Trazado_580661" data-name="Trazado 580661" d="M1711.321-242.459h3.949l.008.148h-3.952Z" transform="translate(-38.855 -109.483)" fill="#fabc52"/>
      <path id="Trazado_580662" data-name="Trazado 580662" d="M1762.2-419.687c1.028-.081,1.244.5,1.241,1.393q-.031,8.694,0,17.389c0,.9-.211,1.475-1.24,1.394Q1762.2-409.6,1762.2-419.687Z" transform="translate(-68.773 -5.271)" fill="#e29341"/>
      <path id="Trazado_580663" data-name="Trazado 580663" d="M1709.465-419.671q0,3.293.005,6.586c-.88-1.378-.313-2.9-.383-4.35-.061-1.275-.487-1.9-1.809-1.831-2.018.1-4.068-.267-6.047.415q0-.411,0-.821Z" transform="translate(-32.923 -5.285)" fill="#e6ad4b"/>
      <path id="Trazado_580664" data-name="Trazado 580664" d="M1715.638-336.372l-14.406,0q0-.2,0-.41c4.094,0,8.188-.012,12.281.012C1714.229-336.763,1715.029-337.031,1715.638-336.372Z" transform="translate(-32.921 -54.002)" fill="#e5ad4b"/>
      <path id="Trazado_580665" data-name="Trazado 580665" d="M1749.264-370.772c-2.155.812-4.392.184-6.583.366-.807.067-1.623.021-2.434.027,2.151-.841,4.391-.2,6.582-.385C1747.635-370.831,1748.452-370.773,1749.264-370.772Z" transform="translate(-55.863 -34.005)" fill="#f9bc51"/>
      <path id="Trazado_580666" data-name="Trazado 580666" d="M1813.068-254.419h-23.88c.611-.661,1.412-.394,2.132-.4q10.872-.029,21.744-.012C1813.067-254.693,1813.068-254.556,1813.068-254.419Z" transform="translate(-84.64 -102.187)" fill="#ebc682"/>
      <path id="Trazado_580667" data-name="Trazado 580667" d="M1811.151-360.314c0-.13-.006-.26-.014-.39,4.372-.007,8.744-.019,13.116-.014.594,0,1.249-.17,1.718.4l-14,0A.556.556,0,0,1,1811.151-360.314Z" transform="translate(-97.546 -39.935)" fill="#f6cf88"/>
      <path id="Trazado_580668" data-name="Trazado 580668" d="M1747.167-359.878l.4,0a.236.236,0,0,1,.41,0,4.054,4.054,0,0,0-.415,2.189c.007,10.224.044,20.449-.033,30.673-.013,1.742.531,2.23,2.219,2.173,3.5-.117,7-.05,10.5-.023.723.006,1.527-.268,2.14.4-4.392,0-8.785-.068-13.175.038-1.637.039-2.1-.468-2.086-2.093C1747.193-337.644,1747.165-348.761,1747.167-359.878Z" transform="translate(-59.908 -40.371)" fill="#ebc682"/>
      <path id="Trazado_580669" data-name="Trazado 580669" d="M1748.613-360.328h-.41c.54-.613,1.266-.4,1.922-.4,4.7-.011,9.408,0,14.111.008-.616.646-1.413.372-2.131.376C1757.608-360.317,1753.111-360.328,1748.613-360.328Z" transform="translate(-60.542 -39.922)" fill="#f6cf88"/>
      <path id="Trazado_580670" data-name="Trazado 580670" d="M1811.168-359.707h.819c-.884,1.986-.124,4.1-.489,6.13-.007.042-.09.092-.142.1a.56.56,0,0,1-.192-.052Q1811.166-356.62,1811.168-359.707Z" transform="translate(-97.562 -40.542)" fill="#ebc682"/>
      <path id="Trazado_580671" data-name="Trazado 580671" d="M1792.176-338.728l5.352,0A7.355,7.355,0,0,1,1792.176-338.728Z" transform="translate(-86.397 -52.878)" fill="#ecc683"/>
      <path id="Trazado_580672" data-name="Trazado 580672" d="M1827.8-243.456l.474-.475,0-.009c-.407,2.2.42,4.487-.463,6.654A19.738,19.738,0,0,1,1827.8-243.456Z" transform="translate(-107.204 -108.612)" fill="#fabd52"/>
      <path id="Trazado_580673" data-name="Trazado 580673" d="M1827.429-242.765q0,3.085.007,6.17A9.722,9.722,0,0,1,1827.429-242.765Z" transform="translate(-106.831 -109.303)" fill="#e4ac4b"/>
      <path id="Trazado_580674" data-name="Trazado 580674" d="M1835.412-222.466h4.335v.192h-4.389Z" transform="translate(-111.787 -121.239)" fill="#f9bc51"/>
      <path id="Trazado_580675" data-name="Trazado 580675" d="M1697.949-274.393l-24.689-.018c.611-.66,1.412-.392,2.132-.394q11.282-.029,22.564-.013C1697.954-274.677,1697.951-274.535,1697.949-274.393Z" transform="translate(-16.476 -90.433)" fill="#ebc682"/>
      <path id="Trazado_580676" data-name="Trazado 580676" d="M1716.21-319.131c.216-2.179-.437-4.408.38-6.552C1716.4-323.5,1717.028-321.275,1716.21-319.131Z" transform="translate(-41.703 -60.549)" fill="#fbd38b"/>
      <path id="Trazado_580677" data-name="Trazado 580677" d="M1718.269-325.786c2.046.205,4.151-.5,6.153.391C1722.377-325.616,1720.274-324.928,1718.269-325.786Z" transform="translate(-42.941 -60.444)" fill="#f6cf88"/>
      <path id="Trazado_580678" data-name="Trazado 580678" d="M1698.231-303.745h5.353A7.361,7.361,0,0,1,1698.231-303.745Z" transform="translate(-31.159 -73.448)" fill="#ecc683"/>
      <path id="Trazado_580679" data-name="Trazado 580679" d="M1706.482-320.685v-3.96h.2v3.989Z" transform="translate(-36.01 -61.159)" fill="#e9705b"/>
      <path id="Trazado_580680" data-name="Trazado 580680" d="M1702.515-320.7v-3.98h.2v3.986Z" transform="translate(-33.677 -61.141)" fill="#ed715c"/>
    </g>
  </g>
</svg>
