<svg xmlns="http://www.w3.org/2000/svg" width="81.396" height="81.396" viewBox="0 0 81.396 81.396">
  <g id="Grupo_845190" data-name="Grupo 845190" transform="translate(-240 -1286.742)">
    <rect id="Rectángulo_38178" data-name="Rectángulo 38178" width="81.396" height="81.396" transform="translate(240 1286.742)" fill="none"/>
    <g id="Grupo_845195" data-name="Grupo 845195" transform="translate(1349.16 2320.011)">
      <path id="Trazado_573173" data-name="Trazado 573173" d="M-1102.956-975.685a9.189,9.189,0,0,1,4.885-7.608q5.117-2.973,10.255-5.908a5.694,5.694,0,0,0,1.713-1.471q8.419-10.763,16.865-21.505c2.148-2.738,5.377-2.532,7.15.483,1.454,2.472,2.894,4.953,4.293,7.456a1.208,1.208,0,0,0,1.373.741c1.248-.135,2.513-.113,3.763-.235a1.8,1.8,0,0,1,1.987,1.012c.722,1.341,1.493,2.656,2.287,3.956a1.713,1.713,0,0,1-.09,2.108c-.68.946-1.247,1.974-1.949,2.9a1.611,1.611,0,0,0-.1,2.141c1.269,2.005,2.4,4.1,3.581,6.158,1.843,3.23.5,5.941-3.136,6.634-8.239,1.568-16.462,3.224-24.7,4.816-.756.146-.928.346-.473,1.012.4.59.71,1.245,1.084,1.856a1.549,1.549,0,0,1-.677,2.448c-1.023.6-2.722.943-2.856,1.928-.129.951,1.04,2.08,1.642,3.128s1.212,2.094,1.813,3.144c1.8,3.151,1.124,6.354-1.679,7.949-2.749,1.564-5.853.55-7.628-2.51-1.934-3.333-3.886-6.656-5.755-10.026a1.422,1.422,0,0,0-1.951-.859C-1097.219-964.419-1102.952-968.908-1102.956-975.685Z" transform="translate(0 -8.117)"/>
      <path id="Trazado_573174" data-name="Trazado 573174" d="M-883.509-997.155a1.478,1.478,0,0,1-1.349-.878,1.138,1.138,0,0,1,.443-1.531q3.887-2.233,7.835-4.36a1.175,1.175,0,0,1,1.667.673,1.28,1.28,0,0,1-.679,1.794c-2.332,1.316-4.677,2.61-7.021,3.9C-882.923-997.382-883.26-997.265-883.509-997.155Z" transform="translate(-159.211 -15.44)" fill="#020202"/>
      <path id="Trazado_573175" data-name="Trazado 573175" d="M-911.23-1018.974c.464-1.677.943-3.581,1.534-5.449a1.156,1.156,0,0,1,1.543-.717,1.245,1.245,0,0,1,.946,1.553c-.433,1.776-.916,3.54-1.428,5.3a1.235,1.235,0,0,1-1.567.912C-910.913-1017.527-911.232-1018.029-911.23-1018.974Z" transform="translate(-140.04 0)" fill="#020202"/>
      <path id="Trazado_573176" data-name="Trazado 573176" d="M-876.818-952.87c-1.725-.477-3.63-.951-5.5-1.548a1.16,1.16,0,0,1-.69-1.556,1.217,1.217,0,0,1,1.443-.93c1.865.441,3.715.95,5.55,1.5a1.175,1.175,0,0,1,.762,1.521C-875.411-953.159-875.94-952.888-876.818-952.87Z" transform="translate(-160.599 -49.869)" fill="#020202"/>
      <path id="Trazado_573177" data-name="Trazado 573177" d="M-1017.985-990.423q7.47,12.932,14.887,25.75c.486.838.44,1.139-.628,1.341-7.087,1.344-14.16,2.757-21.233,4.176a1.261,1.261,0,0,1-1.586-.751c-2-3.552-4.05-7.071-6.108-10.588a1.158,1.158,0,0,1,.023-1.542q7.176-9.069,14.3-18.178C-1018.277-990.278-1018.181-990.306-1017.985-990.423Z" transform="translate(-51.144 -25.411)" fill="#acf2fe"/>
      <path id="Trazado_573178" data-name="Trazado 573178" d="M-1086.3-894.036a6.623,6.623,0,0,1-6.15-4.036,6.419,6.419,0,0,1,1.377-7.277,7.844,7.844,0,0,1,1.968-1.568c3.024-1.747,6.066-3.462,9.065-5.249.721-.43,1.01-.329,1.411.385q2.8,4.975,5.709,9.883c.411.695.383,1.013-.364,1.431-3.2,1.791-6.367,3.656-9.549,5.486A6.674,6.674,0,0,1-1086.3-894.036Z" transform="translate(-7.236 -82.386)" fill="#2bbcc3"/>
      <path id="Trazado_573179" data-name="Trazado 573179" d="M-968.251-1003.266c.514.108.658.566.876.944q7.565,13.089,15.126,26.181c.347.6.664,1.189.2,1.871a1.3,1.3,0,0,1-2.253-.046q-7.772-13.436-15.527-26.88c-.485-.84-.588-1.6.486-2.086C-968.976-1003.256-968.614-1003.264-968.251-1003.266Z" transform="translate(-96.986 -16.018)" fill="#2abcc3"/>
      <path id="Trazado_573180" data-name="Trazado 573180" d="M-1033.825-837.858a2.512,2.512,0,0,1-1.836,2.6,2.58,2.58,0,0,1-3.127-1.231c-.967-1.561-1.844-3.179-2.764-4.769-1.145-1.979-2.271-3.969-3.454-5.924-.4-.662-.46-1.067.33-1.462a31.14,31.14,0,0,0,3.026-1.749c.62-.4.922-.235,1.255.347q3.065,5.372,6.172,10.721A2.732,2.732,0,0,1-1033.825-837.858Z" transform="translate(-42.119 -127.529)" fill="#495d84"/>
      <path id="Trazado_573181" data-name="Trazado 573181" d="M-925.1-959.876l-3.167-5.526c1.437.249,2.781-.7,3.685.973C-923.3-962.069-923.241-962.1-925.1-959.876Z" transform="translate(-127.599 -43.652)" fill="#e5eaec"/>
      <path id="Trazado_573182" data-name="Trazado 573182" d="M-1016.138-858.855a3.039,3.039,0,0,1-2.046,1.3c-.924.037-.922-1.224-1.431-1.845-.147-.179,1.616-1.594,1.976-1.458C-1016.775-860.532-1016.781-859.5-1016.138-858.855Z" transform="translate(-60.867 -120.042)" fill="#f2f4f5"/>
      <path id="Trazado_573183" data-name="Trazado 573183" d="M-965.984-1003.837a.653.653,0,0,1-1.087-.017A.784.784,0,0,1-965.984-1003.837Z" transform="translate(-99.253 -15.447)" fill="#2cc5cd"/>
      <path id="Trazado_573184" data-name="Trazado 573184" d="M-1077.68-866.091a4.13,4.13,0,0,1-3.644-1.828,1.284,1.284,0,0,1,.131-1.821,1.147,1.147,0,0,1,1.792.01c1.022,1.331,2.024.935,3.126.195a8.408,8.408,0,0,1,1.526-.841,1.233,1.233,0,0,1,1.547.467,1.1,1.1,0,0,1-.07,1.589C-1074.664-867.284-1076.084-866.24-1077.68-866.091Z" transform="translate(-15.57 -113.019)" fill="#000101"/>
      <path id="Trazado_573185" data-name="Trazado 573185" d="M-1039.252-879.085c-.1.827-.552,1.362-1.375,1.344a1.24,1.24,0,0,1-1.3-1.378,1.217,1.217,0,0,1,1.278-1.263C-1039.795-880.4-1039.38-879.883-1039.252-879.085Z" transform="translate(-44.573 -105.787)" fill="#010606"/>
    </g>
  </g>
</svg>
