<svg xmlns="http://www.w3.org/2000/svg" width="88.17" height="74.771" viewBox="0 0 88.17 74.771">
  <g id="Grupo_844345" data-name="Grupo 844345" transform="translate(-4908.175 1495.161)">
    <path id="Trazado_582157" data-name="Trazado 582157" d="M5007.476-1421.745a6.4,6.4,0,0,1-4.288,1.355q-12.237-.059-24.474,0a6.533,6.533,0,0,1-4.3-1.314c-1.4-.747-1.643-2.1-1.8-3.48a8.876,8.876,0,0,0-.234-2.372,8.262,8.262,0,0,1-.153-1.148c-.066-2.242-.287-4.471-.539-6.7a6.514,6.514,0,0,1-.151-.9c-.6-8.812-1.59-17.591-2.216-26.4a4.494,4.494,0,0,1-.157-.879,37.139,37.139,0,0,0-.357-4.509c0-.174.007-.351.012-.525a3.1,3.1,0,0,0-.275-1.913c-.323-.5-.728-.951-1.018-1.478a6.629,6.629,0,0,1-.02-4.846c.652-1.147,1.877-1.925,2.147-3.321.271-.7.4-1.448.738-2.124,1.133-2.552,1.939-5.23,3.025-7.8.662-1.25.646-2.871,2.03-3.727a5.466,5.466,0,0,1,4.425-1.321,32.321,32.321,0,0,0,3.245,0,1.748,1.748,0,0,1,1.926,1.318c.313,1.139-.505,1.441-1.306,1.708a14.129,14.129,0,0,1-1.965.232c-1.3,1.293-.481,2.892-.61,4.346-.043.488.251.987.221,1.508.109.726-.8,1.634.4,2.158,4.887.327,9.773.079,14.656.119,1.219.01,2.506.347,3.648-.4.692-2.057.155-4.171.324-6.246-.021-.574.154-1.24-.678-1.437-3.2-.179-6.4.049-9.6-.112-1.137-.057-2.572-.008-2.336-1.885.243-1.009.93-1.313,1.907-1.308q6.76.032,13.52,0a4.708,4.708,0,0,1,3.223,1.351c1.38.854,1.345,2.469,2,3.711,1.074,2.668,2.042,5.376,3.081,8.057.149.476.322.945.478,1.419.334,1.541,1.566,2.524,2.36,3.781a6.475,6.475,0,0,1-.086,4.949,4.235,4.235,0,0,0-1.234,3.645c-.057,1.532-.407,3.042-.34,4.583a5.071,5.071,0,0,1-.147.889c-.3,2.771-.437,5.555-.71,8.329-.335,3.4-.654,6.8-.836,10.218a6.754,6.754,0,0,1-.142.9c-.27,2.325-.422,4.659-.561,6.994a5.515,5.515,0,0,1-.128.852,10.358,10.358,0,0,0-.241,3.025,4.76,4.76,0,0,1-.129.821,10.279,10.279,0,0,0-.2,2.982,6.72,6.72,0,0,1-.142,1.1,9.073,9.073,0,0,0-.229,2.343C5009.074-1423.829,5008.873-1422.478,5007.476-1421.745Z" transform="translate(-38.641)" fill="#000100"/>
    <path id="Trazado_582158" data-name="Trazado 582158" d="M5090.176-1386.2a48.257,48.257,0,0,1,.646-7.305,1.039,1.039,0,0,1,.195.94c-.069-.318.208-.942-.149-1.533.379-6.344.924-12.673,1.67-18.985a.968.968,0,0,1,.192.922c-.065-.3.214-.922-.146-1.512a24.807,24.807,0,0,1,.391-4.809,1.861,1.861,0,0,1,1.408-.53c5.26,0,10.521-.214,15.778.109a1.407,1.407,0,0,1,.771.482,4.988,4.988,0,0,1,.265,3.175,3.58,3.58,0,0,0,.9,3.284,11.143,11.143,0,0,0-.33,2.85c-1.141.557-.874,2.172-2.036,2.713a.567.567,0,0,1-.107-.469c-.125.1-.024.22,0,.3.12.429.5.747.545,1.218a81.191,81.191,0,0,1-.785,10.708c-.135,1.319.284,2.767-.647,3.963-.945.019-.346-.687-.474-1.082a2.547,2.547,0,0,0,.473,1.967c.124,1.039.485,2.119-.5,2.967-.618-.348-.307-.822-.292-1.154-.367.687.182,1.324.468,2.005a28.768,28.768,0,0,1-.963,9.459,1.734,1.734,0,0,1-.891.386c-5.116.233-10.233.089-15.351.078a2.662,2.662,0,0,1-1.157-.259c-1-.587-.016-1.634-.538-2.334a9,9,0,0,1,.291-3.176,1.022,1.022,0,0,1,.19.938c-.065-.321.2-.945-.146-1.541a9.1,9.1,0,0,1,.289-3.194.948.948,0,0,1,.192.917C5090.258-1384.99,5090.544-1385.615,5090.176-1386.2Z" transform="translate(-119.004 -49.932)" fill="#fdf38a"/>
    <path id="Trazado_582159" data-name="Trazado 582159" d="M4937.159-1428.224l1,1.129c.434.606-.035,1.352.306,1.973l0,.344c-1.059.841-2.323.58-3.478.5-5.859-.419-7.032,2.718-6.43,7.369.734,5.662,1.042,11.381,1.54,17.075q.566,6.493,1.128,12.985c.2,2.369,1.338,3.385,3.671,3.424,2,.033,4.005.082,6-.049.443-.023.729-.379,1.108-.54.51,1.993.015,4.261,1.631,5.95a11.409,11.409,0,0,1-3.114-.247c-2.82-1.007-5.748-.491-8.63-.593-1.594-.056-3.192.025-4.787-.025-2.322-.072-3.215-.824-3.438-3.144-.169-1.755-.451-3.508-.446-5.275a4.511,4.511,0,0,0-1.5-3.663,5.182,5.182,0,0,1,.294-2.865,18.087,18.087,0,0,0,.789-2.462,1.977,1.977,0,0,0,.453-1.281c.077-.309-.327-.174-.1-.14.062.009.084.053.063.129-.081.311.142.908-.584.616-.807-1.235-.448-2.661-.591-3.986a29.3,29.3,0,0,1-.441-6.6c.128-.743.684-1.345.635-2.115-.228.174.129.767-.426.8-.955-.848-.614-1.911-.5-2.938.258-.623.755-1.193.438-2.075-.008-.1-.284.233-.076.135.1-.047.163-.018.145.081-.068.362.272.915-.453.972-.943-1.048-.568-2.378-.683-3.569-.236-2.46-.737-4.915-.439-7.409.763-3.261.763-3.227,4.3-3.272a84.326,84.326,0,0,0,8.659-.141c.471-.3.748-.814,1.212-1.125A2.371,2.371,0,0,1,4937.159-1428.224Z" transform="translate(-7.868 -43.636)" fill="#def5fc"/>
    <path id="Trazado_582160" data-name="Trazado 582160" d="M4914.171-1451.554c.17,3.7.462,7.4.98,11.071.254.184.223.39.045.606-.017.943.058,1.926-1.041,2.4-1.251-.081-1.554-.9-1.646-1.986q-1.229-14.432-2.492-28.862a5.036,5.036,0,0,0-1.161-3.427c-1.187-1.255-.719-4.877.6-5.97a3.336,3.336,0,0,0,1.009-1.52q2.372-6.326,4.779-12.64c.952-2.5,1.959-3.206,4.622-3.212,3.944-.008,7.889.009,11.833-.01.909,0,1.728.062,2.108,1.059.06,1.471-.348,1.989-1.9,2.113-2.038.164-4.086.039-6.13.066a25.253,25.253,0,0,0-3.227.1c-.216.057-.521.118-.533.345-.135,2.5-.517,5.018.206,7.494,1.617.509,3.279.151,4.913.276,1.214.093,2.266.375,2.486,1.816a1.469,1.469,0,0,1-1.015,1.437,42.73,42.73,0,0,1-6.854.092,3.348,3.348,0,0,1-3.247-3.528c-.086-2.4.036-4.807-.063-7.19-.284-.177-.283.119-.381.248-1.242,3.56-2.574,7.079-3.951,10.578-.422,1.073-.253,1.4.925,1.384,3.021-.052,6.043-.033,9.064-.009,1.185.01,2.313.152,2.743,1.534a1.847,1.847,0,0,1-1.165,2.019c-4.376.381-8.764.063-13.138.176a3.127,3.127,0,0,0-.505.055c-.883.659-.69,1.068.307,1.29,3.756.032,7.5-.013,11.251.014a4.34,4.34,0,0,1,2.321.4,1.308,1.308,0,0,1,.66,1.855l-.883.965c-1.081.545-2.232.2-3.345.225-2.572.061-5.147.016-7.722.021-1.844,0-1.936.105-1.8,1.939.025.331.219.665-.038.984.173,3.708.463,7.406.983,11.084.269.178.23.379.045.592a9.214,9.214,0,0,0,.287,3.2C4914.454-1452.188,4914.359-1451.875,4914.171-1451.554Z" transform="translate(0 -0.037)" fill="#010101"/>
    <path id="Trazado_582161" data-name="Trazado 582161" d="M5112.532-1461.863c-1.3-.133-1.671-.88-1.529-2.111.155-1.339.185-2.693.269-4.04.047-1.576-.783-1.966-2.257-1.974-3.587-.019-7.184.28-10.767-.168a1.858,1.858,0,0,1-1.106-1.833c.37-1.6,1.641-1.722,2.937-1.738,3.882-.047,7.764.015,11.639-.039.992-.247,1.11-.674.26-1.3-.181-.017-.354-.031-.535-.034-4.364-.106-8.727.2-13.083-.158a1.9,1.9,0,0,1-1.225-1.7c.194-1.561,1.33-1.855,2.612-1.877,3.03-.052,6.062-.019,9.092-.017.907,0,1.514-.183,1.046-1.277-1.208-3.519-2.6-6.969-3.891-10.454-.146-.087-.271-.941-.421-.143a21.739,21.739,0,0,0-.065,3.719c-.013,1.186.046,2.373-.041,3.562a3.725,3.725,0,0,1-2.925,3.194,20.206,20.206,0,0,1-6.655.187,1.907,1.907,0,0,1-1.5-1.8c.237-1.436,1.3-1.7,2.512-1.792,1.637-.123,3.3.245,4.908-.3.7-2.439.255-4.914.25-7.371,0-.3-.335-.421-.634-.463-2.962-.19-5.924.036-8.877-.116-1.165-.06-2.529-.082-2.385-1.889.22-1.031.914-1.317,1.892-1.312,4.17.022,8.34.012,12.51.008a3.935,3.935,0,0,1,4.034,2.809c1.612,4.324,3.269,8.632,4.915,12.944a4.182,4.182,0,0,0,.569,1.23c2.15,2.539,2.257,4.334.347,7.173a2.954,2.954,0,0,0-.339,1.48c-.18,1.876-.356,3.753-.463,5.634A2.093,2.093,0,0,1,5112.532-1461.863Z" transform="translate(-119.439 -0.035)" fill="#010100"/>
    <path id="Trazado_582162" data-name="Trazado 582162" d="M5109.917-1357.555c.347-3.2.723-6.4.795-9.618-.183-.212-.224-.413.045-.59a9.1,9.1,0,0,0,.289-3.19c-.177-.216-.208-.422.045-.607.638-5.046,1.058-10.112,1.337-15.19-.183-.212-.221-.414.045-.592.437-1.071-.12-2.851,1.963-2.746.883.539.858,1.369.779,2.259q-1.149,12.98-2.27,25.963c-.169,1.936-.345,3.871-.512,5.807-.244,2.837-1.957,4.56-4.752,4.6-4.059.053-8.119-.006-12.179.029a1.788,1.788,0,0,1-1.937-1.318c-.127-1.821,1.268-1.819,2.416-1.86,3.355-.119,6.714-.02,10.072-.055,1.063-.011,2.2.158,2.974-.869C5109.45-1356.151,5109.476-1356.946,5109.917-1357.555Z" transform="translate(-121.673 -68.961)" fill="#010101"/>
    <path id="Trazado_582163" data-name="Trazado 582163" d="M4923.276-1319.118c1.248-.141,1.751.5,1.842,1.672.194,2.5.4,5,.646,7.5.2,2,.718,2.444,2.732,2.452,3.763.014,7.526.024,11.29-.008.975-.008,1.817.106,2.286,1.088-.175,1.188-.9,1.569-2.048,1.558-4.006-.039-8.014.02-12.02-.027a4.512,4.512,0,0,1-4.748-4.236c-.268-2.618-.456-5.244-.707-7.864A2.035,2.035,0,0,1,4923.276-1319.118Z" transform="translate(-9.415 -115.532)" fill="#020202"/>
    <path id="Trazado_582164" data-name="Trazado 582164" d="M5103.829-1295.439c-.262,1.323-1.263,1.44-2.341,1.439-3.825,0-7.65.023-11.475-.015-1.074-.011-1.926.178-2.271,1.328l-3.058-.034c1.559-1.675,1.094-3.895,1.581-5.858.46.235.055.8.415,1.076l16.83.033C5104.2-1296.885,5103.463-1296.075,5103.829-1295.439Z" transform="translate(-115.85 -129.024)" fill="#fdef55"/>
    <path id="Trazado_582165" data-name="Trazado 582165" d="M5007.8-1489.905c1.287-.344,3.059.616,3.727-1.387l2.756-.007c.282,1.212,1.178,1.331,2.223,1.33,3.511,0,7.021.04,10.533.065a2.556,2.556,0,0,1,.071,1.712,1.208,1.208,0,0,1-.494.345c-3.061.388-6.135.094-9.2.18a20.406,20.406,0,0,1-2.559-.009c-2.979-.293-5.625-.051-6.427,3.564-.036.163-.224.248-.652.558A13.744,13.744,0,0,1,5007.8-1489.905Z" transform="translate(-65.138 -2.535)" fill="#96d628"/>
    <path id="Trazado_582166" data-name="Trazado 582166" d="M4947.767-1490.383c3.275-.026,6.55-.07,9.826-.068,1.119,0,1.886-.313,1.923-1.575.965.45,1.994.167,2.99.262l-1.673,3.753c-3.011-.287-6.03-.092-9.044-.161a2.942,2.942,0,0,0-2.979,1.565,1.221,1.221,0,0,1-.885.739C4947.021-1487.344,4947.341-1488.861,4947.767-1490.383Z" transform="translate(-25.709 -2.057)" fill="#98e4fa"/>
    <path id="Trazado_582167" data-name="Trazado 582167" d="M5084.595-1491.29c.24,1.134,1.043,1.326,2.055,1.325,3.244,0,6.489.041,9.733.067a1.38,1.38,0,0,1-.026,1.807,4.11,4.11,0,0,1-2.47.443c-3.521.064-7.046-.125-10.564.152l-1.653-3.751Z" transform="translate(-113.871 -2.54)" fill="#f2d802"/>
    <path id="Trazado_582168" data-name="Trazado 582168" d="M5032.763-1418.408c-.462,5.688-.9,11.378-1.392,17.064-.711,8.19-1.463,16.376-2.2,24.563a1.265,1.265,0,0,1-.7.63,5.44,5.44,0,0,1-1.865.19c-5.54.008-11.079.019-16.619,0-3.408-.013-4.838-1.26-5.166-4.6-.267-2.726-.5-5.455-.743-8.183a4.833,4.833,0,0,1,.167-2.694,1.043,1.043,0,0,1,1.222-.367c2.068.618,4.188.34,6.288.412,1,.035,1.962.035,2.022,1.464.031.772.662.936,1.244.558,1.069-.695,2.161-1.628,2.169-2.9.008-1.291-1.257-2.1-2.216-2.863-.608-.485-1.1.01-1.2.667a1.376,1.376,0,0,1-1.556,1.238c-1.652.043-3.306.083-4.956-.02-.97-.06-1.614-.5-1.561-1.613.095-2,.084-2-1.908-2.327-1.046-2.308-.772-4.818-1.06-7.233-.29-2.43-.417-4.885-.672-7.324-.5-4.721,1.672-7.19,6.375-7.2q10.873-.028,21.746,0a5.891,5.891,0,0,1,2.034.194A2.65,2.65,0,0,1,5032.763-1418.408Z" transform="translate(-61.576 -50.011)" fill="#baeb6c"/>
    <path id="Trazado_582169" data-name="Trazado 582169" d="M4991.211-1394.21c-.284,2.618.261,5.2.51,7.775a25.914,25.914,0,0,0,.417,4.409c.528,1.96,1.51,2.935,3.549,2.943q9.768.038,19.537.038c.417.367-.052.963.346,1.334.089,1.474-.742,2.1-2.08,2.107q-13.028.028-26.056.007c-1.507,0-2.084-.875-2.2-2.277-.514-6.032-1.074-12.06-1.591-18.092-.263-3.07-.469-6.144-.7-9.217.361-.445.078-.98.292-1.771-.2.6,0,.969-.342,1.184-.631-4.94-1.041-9.9-1.313-14.871.064-.155.193-.3.143-.479-.441-1.593.412-1.792,1.731-1.767,3.365.063,6.731.015,10.1.022,8.443.017,16.886-.043,25.329.03.728.56.346,1.2.127,1.824-8.008.009-16.02.165-24.022-.035-4-.1-6.412,2.521-5.826,6.857.472,3.491.675,7.017,1.007,10.527a17.231,17.231,0,0,0,.625,4A15.977,15.977,0,0,0,4991.211-1394.21Z" transform="translate(-48.176 -47.435)" fill="#a1e52d"/>
    <path id="Trazado_582170" data-name="Trazado 582170" d="M4956.227-1375.55q-3.347,0-6.695,0c-2.81,0-4.075-1.3-4.309-4.149-.524-6.4-1.14-12.788-1.684-19.184-.38-4.474-.627-8.962-1.083-13.427a5.083,5.083,0,0,1,5.14-5.175,52.209,52.209,0,0,0,5.489.039,24.975,24.975,0,0,1,.391,4.806c-.356.591-.081,1.215-.146,1.516a.981.981,0,0,1,.19-.925c.386,3.964.8,7.926,1.148,11.894.435,4.994.812,9.992,1.214,14.989-.394.586-.036,1.215-.142,1.539a1,1,0,0,1,.187-.953,45.98,45.98,0,0,1,.625,6.974C4956.141-1376.969,4956.647-1376.186,4956.227-1375.55Z" transform="translate(-22.489 -50.97)" fill="#f1fafe"/>
    <path id="Trazado_582171" data-name="Trazado 582171" d="M5007.486-1487.256v5.992c2.036-4.314.688-4.336,6.2-4.3,4.344.03,8.689.007,13.034.007.435,2.384-.057,4.8.268,7.19-.234.462-.671.359-1.055.36q-8.837.008-17.675,0c-.382,0-.821.107-1.055-.357-.23-.792.272-1.617-.106-2.4a41.3,41.3,0,0,1-.116-5.852C5006.982-1486.961,5006.971-1487.318,5007.486-1487.256Z" transform="translate(-64.821 -5.183)" fill="#a1e52e"/>
    <path id="Trazado_582172" data-name="Trazado 582172" d="M5018.976-1475.495c.167.36.323.726.5,1.079.453.88.064,1.056-.772,1.054q-17.572-.023-35.145-.01c-.6,0-1.222.068-.838-.889,1.714-4.272,3.1-8.673,5.044-12.855.058-.125.242-.192.646-.494,0,2.762,0,5.284,0,7.807.007,3.026,1.088,4.111,4.144,4.11q9.428,0,18.856-.037a.449.449,0,0,1-.309.475c-6.366.214-12.732.148-19.1.034,6.4.094,12.789.232,19.181-.072.171-.123.346-.237.527-.343C5014.149-1476.116,5016.575-1476.459,5018.976-1475.495Z" transform="translate(-48.852 -4.956)" fill="#a1e52d"/>
    <path id="Trazado_582173" data-name="Trazado 582173" d="M5086.479-1481.668c.213-1.028,1.044-.686,1.654-.69,3.8-.027,7.6-.014,11.4-.015l.2.215a60.557,60.557,0,0,1,.139,6.683l-.012.291c-1.822.8-3.735.225-5.6.342-1.008.063-1.789.229-2,1.357a1.936,1.936,0,0,1-2.675.014A83.347,83.347,0,0,1,5086.479-1481.668Z" transform="translate(-117.028 -8.369)" fill="#fde803"/>
    <path id="Trazado_582174" data-name="Trazado 582174" d="M4947.983-1479.609c.866-2.521,1.167-2.744,3.747-2.746,2.494,0,4.988-.011,7.482.008.577,0,1.314-.244,1.5.67a73.08,73.08,0,0,1-3.018,7.949,1.9,1.9,0,0,1-2.775.308,1.537,1.537,0,0,0-1.809-1.383q-2.221.051-4.444-.005c-.467-.011-1.047.258-1.371-.359,0-.078,0-.155.006-.233a10.032,10.032,0,0,0-.137-2.564C4947.177-1478.642,4947.26-1479.284,4947.983-1479.609Z" transform="translate(-25.593 -8.392)" fill="#c7eefd"/>
    <path id="Trazado_582175" data-name="Trazado 582175" d="M5017.752-1435.612c-5.644.025-11.287.073-16.93.07-7.867,0-15.734-.045-23.6-.07-.35-2.2-.35-2.2,1.646-2.2q18.62,0,37.241,0C5018.1-1437.813,5018.1-1437.808,5017.752-1435.612Z" transform="translate(-45.202 -37.638)" fill="#baea6b"/>
    <path id="Trazado_582176" data-name="Trazado 582176" d="M4927.7-1486.093c.538-.109.569-.109.571.292.011,2.286,0,4.572.008,6.858.006,3.151,1.068,4.233,4.2,4.23,1.827,0,3.654-.053,5.482-.082a.375.375,0,0,1-.206.423,18.8,18.8,0,0,1-5.439.046,18.9,18.9,0,0,0,5.464-.043c.138-.115.277-.222.423-.325.939-.322,1.863-.579,2.513.51-.059,1.452-1.09,2.254-2.066,3.093-.99.62-1.922.782-2.694-.337-.44-.936-1.25-1.005-2.155-1-3.477.025-6.955-.015-10.431.026-.9.01-1.091-.2-.754-1.053,1.587-4.013,3.136-8.042,4.7-12.066a1.68,1.68,0,0,1,.509,1.394q.005,3.1.009,6.2C4927.8-1480.646,4927.912-1483.369,4927.7-1486.093Z" transform="translate(-9.374 -5.911)" fill="#def5fb"/>
    <path id="Trazado_582177" data-name="Trazado 582177" d="M4932.384-1443.3c.844.542,1.791.265,2.694.337a9.815,9.815,0,0,0,.018,5.14c-.91.081-1.865-.2-2.718.341.009-1.385-.826-1.668-2.02-1.666-4.381.006-8.762-.039-13.143-.065a3.714,3.714,0,0,1,0-2.376l.345,0c3.717.384,7.443.1,11.165.151.918.013,1.887.291,2.771-.231A1.842,1.842,0,0,0,4932.384-1443.3Z" transform="translate(-5.805 -34.04)" fill="#c6edfc"/>
    <path id="Trazado_582178" data-name="Trazado 582178" d="M5106.122-1443.286a2.22,2.22,0,0,0,.911,1.3c.122.234.33.256.565.255,4.3-.01,8.606.008,12.911-.009a.954.954,0,0,0,.469-.165l.345,0a3.707,3.707,0,0,1,0,2.376c-4.386.026-8.772.067-13.158.065-1.013,0-1.814.185-2.044,1.326a1.984,1.984,0,0,1-2.675-.005,9.937,9.937,0,0,0,.015-5.134A2,2,0,0,1,5106.122-1443.286Z" transform="translate(-128.164 -33.714)" fill="#fcf28a"/>
    <path id="Trazado_582179" data-name="Trazado 582179" d="M5101.846-1450.083h-2.661a5.223,5.223,0,0,1-2.253-3.439,2.573,2.573,0,0,1,2.757-.165,1.251,1.251,0,0,1,.464.326,17.647,17.647,0,0,0,6.743-.163,1.252,1.252,0,0,1,.578-.174c2.414-.484,4.821-.777,7.2.162l.952,2.125h-6.438c-1.825,0-3.65.023-5.476-.009C5102.728-1451.435,5102.052-1451.112,5101.846-1450.083Z" transform="translate(-123.889 -26.917)" fill="#fcee55"/>
    <path id="Trazado_582180" data-name="Trazado 582180" d="M5100.862-1427.373l2.675.005a2.2,2.2,0,0,0,.914,1.3c.467.508,1.071.236,1.6.24,3.257.028,6.515,0,9.772.02,1.579.009,1.69.21,1.193,1.856l-17.471.022C5099.419-1425.291,5099.536-1426.562,5100.862-1427.373Z" transform="translate(-125.58 -44.492)" fill="#fcee55"/>
    <path id="Trazado_582181" data-name="Trazado 582181" d="M5074-1472.522l-7.531.018-.008-.007a.62.62,0,0,0-.02-.245,3.655,3.655,0,0,0,2.446-3.9c-.053-2.057.032-4.116.056-6.175a.831.831,0,0,1,1.183-.006Z" transform="translate(-103.875 -7.929)" fill="#b9ea6b"/>
    <path id="Trazado_582182" data-name="Trazado 582182" d="M5017.09-1436.094c.287-1.673-.444-2.081-2.072-2.072q-18.195.1-36.389,0c-1.629-.009-2.358.4-2.072,2.072-.946-1.839-.646-2.453,1.217-2.453q19.046,0,38.092,0C5017.733-1438.546,5018.03-1437.943,5017.09-1436.094Z" transform="translate(-44.539 -37.157)" fill="#bff16f"/>
    <path id="Trazado_582183" data-name="Trazado 582183" d="M5018.635-1423.123c-11.434,0-22.869.032-34.3-.035-1.669-.01-2.98.05-3.13,2.094l-.041-.579a2.425,2.425,0,0,1,.035-1.8c1.935-.033,3.869-.1,5.8-.094q15.817.025,31.635.076c.085.074.114.148.085.223S5018.663-1423.123,5018.635-1423.123Z" transform="translate(-47.802 -47.012)" fill="#a5eb2f"/>
    <path id="Trazado_582184" data-name="Trazado 582184" d="M5023.691-1280.04h-28v-.172h28.05Z" transform="translate(-57.443 -141.079)" fill="#030303"/>
    <path id="Trazado_582185" data-name="Trazado 582185" d="M5030.184-1492.907h15.541v.178h-15.541Z" transform="translate(-80.079 -1.479)" fill="#030303"/>
    <path id="Trazado_582186" data-name="Trazado 582186" d="M4967.512-1455.536a1.881,1.881,0,0,0,.018-.262l.746-1.107a6.678,6.678,0,0,0,2.775-.308q-.384,1.013-.767,2.026a5.223,5.223,0,0,0-2.751-.33Z" transform="translate(-38.945 -24.907)" fill="#edf6f9"/>
    <path id="Trazado_582187" data-name="Trazado 582187" d="M5098.966-1455.01l-2.963-.013-.487-1.4,2.675-.014c.117.713.667,1.034,1.224,1.349A.3.3,0,0,1,5098.966-1455.01Z" transform="translate(-122.959 -25.414)" fill="#f9f088"/>
    <path id="Trazado_582188" data-name="Trazado 582188" d="M5064.718-1475.334c-.579-2.379-.115-4.8-.268-7.19h0c.125-.162.253-.157.382-.005A34.674,34.674,0,0,1,5064.718-1475.334Z" transform="translate(-102.548 -8.215)" fill="#adf731"/>
    <path id="Trazado_582189" data-name="Trazado 582189" d="M5074.9-1485.423l-1.182.007v-1.605C5074.662-1486.842,5074.648-1486.027,5074.9-1485.423Z" transform="translate(-108.655 -5.342)" fill="#b2fd32"/>
    <path id="Trazado_582190" data-name="Trazado 582190" d="M5006.785-1468.357a2.036,2.036,0,0,1,.106,2.4C5006.1-1466.722,5006.6-1467.547,5006.785-1468.357Z" transform="translate(-64.507 -17.592)" fill="#acf430"/>
    <path id="Trazado_582191" data-name="Trazado 582191" d="M5090.492-1422.977q0-.167,0-.334c1.387.464.212,1.371.354,2.05l-.358-.026Z" transform="translate(-119.659 -47.158)" fill="#abf231"/>
    <path id="Trazado_582192" data-name="Trazado 582192" d="M4973.933-1402.757l-.133,1.457c-.214-.7-.5-1.412.088-2.047Z" transform="translate(-42.9 -60.26)" fill="#fcfefe"/>
    <path id="Trazado_582193" data-name="Trazado 582193" d="M5098.4-1403.349c.635.632.222,1.352.09,2.049q-.068-.729-.136-1.459Z" transform="translate(-124.825 -60.26)" fill="#fefd91"/>
    <path id="Trazado_582194" data-name="Trazado 582194" d="M5093.412-1346.387c.593.635.3,1.345.089,2.049l-.135-1.456Z" transform="translate(-121.548 -97.646)" fill="#fefd91"/>
    <path id="Trazado_582195" data-name="Trazado 582195" d="M4980.931-1322.817l-.135,1.462c-.217-.7-.506-1.413.09-2.048Z" transform="translate(-47.491 -112.731)" fill="#fcfefe"/>
    <path id="Trazado_582196" data-name="Trazado 582196" d="M5091.4-1323.4c.6.635.308,1.345.092,2.05q-.069-.732-.137-1.464Z" transform="translate(-120.229 -112.731)" fill="#fefd91"/>
    <path id="Trazado_582197" data-name="Trazado 582197" d="M5090.43-1312.406c.587.635.292,1.344.082,2.047l-.125-1.443Z" transform="translate(-119.592 -119.949)" fill="#fefd91"/>
    <path id="Trazado_582198" data-name="Trazado 582198" d="M4972.776-1422.1c-.512-.594-.268-1.305-.306-1.973C4972.963-1423.479,4972.783-1422.778,4972.776-1422.1Z" transform="translate(-42.182 -46.656)" fill="#c8dade"/>
    <path id="Trazado_582199" data-name="Trazado 582199" d="M4982.522-1299.351c.1-.686-.265-1.447.327-2.055l.074.922C4982.8-1300.1,4982.93-1299.632,4982.522-1299.351Z" transform="translate(-48.784 -127.169)" fill="#fcfdfe"/>
    <path id="Trazado_582200" data-name="Trazado 582200" d="M5089.7-1299.36c-.426-.248-.283-.715-.415-1.076q.044-.485.088-.971C5089.963-1300.8,5089.6-1300.044,5089.7-1299.36Z" transform="translate(-118.869 -127.168)" fill="#fefd91"/>
    <path id="Trazado_582201" data-name="Trazado 582201" d="M4985.4-1375.721l.2-1.387c.246.86.378,1.45-.147,1.973Z" transform="translate(-50.684 -77.483)" fill="#abf22f"/>
    <path id="Trazado_582202" data-name="Trazado 582202" d="M5079.834-1294.573c-.484-.35-.295-.873-.346-1.335l.55-.312Z" transform="translate(-112.439 -130.573)" fill="#acf332"/>
    <path id="Trazado_582203" data-name="Trazado 582203" d="M5064.9-1485.545l-.382.005v-1.7C5065.4-1486.844,5064.854-1486.129,5064.9-1485.545Z" transform="translate(-102.612 -5.199)" fill="#a3e82b"/>
    <path id="Trazado_582204" data-name="Trazado 582204" d="M4980.99-1423.258l-.035,1.8C4980.806-1422.064,4980.428-1422.67,4980.99-1423.258Z" transform="translate(-47.596 -47.193)" fill="#a1e52d"/>
    <path id="Trazado_582205" data-name="Trazado 582205" d="M5126.263-1421.447c.205-1.334-.337-1.76-1.695-1.725-3.573.09-7.149.03-10.724.022-.088,0-.229-.069-.249-.135s.061-.184.1-.279h10.978c2.5,0,2.5,0,1.984,2.507Z" transform="translate(-134.822 -46.992)" fill="#fdf457"/>
    <path id="Trazado_582206" data-name="Trazado 582206" d="M5139.754-1293.363c-.57-.6-.213-1.354-.319-2.031l.583-.022A4.419,4.419,0,0,1,5139.754-1293.363Z" transform="translate(-151.775 -131.1)" fill="#fefb5b"/>
    <path id="Trazado_582207" data-name="Trazado 582207" d="M5143.861-1338.915l-.044.607c-.616-.632-.2-1.351-.08-2.047Q5143.8-1339.635,5143.861-1338.915Z" transform="translate(-154.444 -101.605)" fill="#fefc91"/>
    <path id="Trazado_582208" data-name="Trazado 582208" d="M5142.845-1327.9q-.023.295-.046.59c-.6-.635-.3-1.344-.09-2.049Q5142.776-1328.634,5142.845-1327.9Z" transform="translate(-153.761 -108.819)" fill="#fefd91"/>
    <path id="Trazado_582209" data-name="Trazado 582209" d="M5147.832-1384.8l-.045.592c-.519-.523-.387-1.111-.133-2.013C5147.738-1385.552,5147.785-1385.177,5147.832-1384.8Z" transform="translate(-157.033 -71.501)" fill="#fefd92"/>
    <path id="Trazado_582210" data-name="Trazado 582210" d="M4920.984-1420.4c-.608-3.173-.608-3.174,2.458-3.173l10.446.005c.074.833-.569.395-.83.4-3.205.035-6.414.108-9.614-.013-1.592-.06-2.393.307-2.141,2.035C4921.336-1420.921,4921.1-1420.651,4920.984-1420.4Z" transform="translate(-8.199 -46.985)" fill="#e0f7f9"/>
    <path id="Trazado_582211" data-name="Trazado 582211" d="M4924.5-1384.274l-.045-.592.136-1.455C4924.8-1385.617,4925.093-1384.908,4924.5-1384.274Z" transform="translate(-10.683 -71.436)" fill="#e9fdfe"/>
    <path id="Trazado_582212" data-name="Trazado 582212" d="M4928.52-1338.311l-.044-.606.13-1.442C4928.809-1339.653,4929.1-1338.945,4928.52-1338.311Z" transform="translate(-13.324 -101.602)" fill="#e8fdfe"/>
    <path id="Trazado_582213" data-name="Trazado 582213" d="M4925.488-1372.331l-.069-.914q.083-.578.166-1.155C4925.8-1373.687,4926.057-1372.978,4925.488-1372.331Z" transform="translate(-11.318 -79.26)" fill="#e9fdfe"/>
    <path id="Trazado_582214" data-name="Trazado 582214" d="M4947.646-1482.828c-.205.6-.691,1.1-.608,1.79a7.6,7.6,0,0,1,.023,2.547l-.1.106c-.591-2.878-.14-5.781-.2-8.672,0-.242.324-.235.547-.21C4947.5-1485.793,4946.919-1484.261,4947.646-1482.828Z" transform="translate(-25.256 -5.173)" fill="#a0effe"/>
    <path id="Trazado_582215" data-name="Trazado 582215" d="M4932.53-1438.545c.22.235.166.41-.148.41q-6.6,0-13.2-.026c-.195,0-.389-.2-.583-.3Z" transform="translate(-6.838 -37.159)" fill="#ccf4fe"/>
    <path id="Trazado_582216" data-name="Trazado 582216" d="M4936.967-1485.975c.672,2.8.058,5.617.2,8.425-.526-2.6.16-5.272-.589-7.849C4936.592-1485.669,4936.564-1485.967,4936.967-1485.975Z" transform="translate(-18.643 -6.029)" fill="#e5fbfc"/>
    <path id="Trazado_582217" data-name="Trazado 582217" d="M4954.751-1454.872h-6.061l0-.172h6.032Z" transform="translate(-26.591 -26.33)" fill="#040404"/>
    <path id="Trazado_582218" data-name="Trazado 582218" d="M4916.455-1438.32v2.376A1.486,1.486,0,0,1,4916.455-1438.32Z" transform="translate(-5.044 -37.307)" fill="#d6fdfd"/>
    <path id="Trazado_582219" data-name="Trazado 582219" d="M5134.038-1473.024l-7.564-.013-.04-.191a3.682,3.682,0,0,0,2.5-2.89.98.98,0,0,0,.234-.4c.022-2.252.1-4.5-.044-6.75.306-.883.672-.64,1.058-.058C5131.559-1479.923,5132.925-1476.521,5134.038-1473.024Z" transform="translate(-143.252 -7.427)" fill="#fcf28a"/>
    <path id="Trazado_582220" data-name="Trazado 582220" d="M5127.638-1438.466c-.194.106-.389.3-.583.3q-6.6.036-13.2.026c-.09,0-.233-.064-.255-.13s.058-.186.094-.281Z" transform="translate(-134.824 -37.158)" fill="#fef98d"/>
    <path id="Trazado_582221" data-name="Trazado 582221" d="M5133.982-1478.391h-.132l-.131-.019v-8.926c1,.3,1.06,1.058,1.247,1.722-.314-.049-.654-.56-.932.052A38.438,38.438,0,0,1,5133.982-1478.391Z" transform="translate(-148.033 -5.136)" fill="#e7df54"/>
    <path id="Trazado_582222" data-name="Trazado 582222" d="M5124.475-1485.553l0-1.7c.228-.013.54-.016.536.252-.043,2.879.389,5.77-.212,8.634l-.058-.113c-.313-2.348.184-4.726-.265-7.069Z" transform="translate(-141.966 -5.19)" fill="#fee502"/>
    <path id="Trazado_582223" data-name="Trazado 582223" d="M5112.688-1452.953c.011.064.024.128.039.192-.008.123-.016.247-.024.37a31.157,31.157,0,0,1-7.213,0,2.85,2.85,0,0,1,.021-.329l.45-.081Z" transform="translate(-129.506 -27.703)" fill="#fefe62"/>
    <path id="Trazado_582224" data-name="Trazado 582224" d="M5155.465-1435.943q0-1.188,0-2.376A1.482,1.482,0,0,1,5155.465-1435.943Z" transform="translate(-162.305 -37.307)" fill="#fdfd95"/>
    <path id="Trazado_582225" data-name="Trazado 582225" d="M5007.373-1351.092c-1.211-1.734-1.694-3.524-.422-5.449.576-.556,1.208-.956,1.959-.348.726.588.53,1.265.142,1.994-.675,1.265-.115,1.833,1.188,1.844,1.94.017,3.88,0,5.956,0-.335-.929-.588-1.8.392-2.312.945-.5,1.474.233,2.034.8,2.837,2.856,2.834,2.854-.056,5.723-.582.578-1.152,1.219-2.06.679s-.609-1.355-.326-2.17C5013.234-1350.741,5010.206-1349.851,5007.373-1351.092Z" transform="translate(-64.338 -90.553)" fill="#010201"/>
    <path id="Trazado_582226" data-name="Trazado 582226" d="M5016.483-1383.352c1.046.1,1.877.339,1.882,1.343,0,1.107-.912,1.29-1.793,1.46-3.939.757-4.645.205-4.929-3.864a1.365,1.365,0,0,1,.714-1.431,1.012,1.012,0,0,1,1.4.234c.689,1.016.921.269,1.244-.244.729-1.162,1.431-2.342,2.188-3.485a3.553,3.553,0,0,1,3.666-1.716,4.223,4.223,0,0,1,3.212,2.8c.413.906-.251,1.351-.8,1.851-.8.728-.842-.4-1.288-.55-.261-.09-.4-.531-.6-.81-.733-1.033-1.487-.985-2.155.033C5018.316-1386.345,5017.464-1384.925,5016.483-1383.352Z" transform="translate(-67.906 -68.299)" fill="#010201"/>
    <path id="Trazado_582227" data-name="Trazado 582227" d="M5043.251-1371.847c.235-.876.461-1.755.71-2.628a2.238,2.238,0,0,1,.569-1.22c.748-.642,5.058.137,5.374,1.049.5,1.441-.527,1.728-1.783,1.866.939,1.552,1.87,2.98,2.69,4.47a3.656,3.656,0,0,1-2.393,5.494c-.874.181-1.656.065-1.932-.906-.259-.907.3-1.4,1.118-1.593,1.448-.34,1.324-1.169.717-2.168-.445-.732-.9-1.46-1.347-2.189s-.665-1.826-1.91-.615c-.626.609-1.353-.117-1.829-.733A.475.475,0,0,1,5043.251-1371.847Z" transform="translate(-88.493 -78.256)" fill="#010101"/>
    <path id="Trazado_582228" data-name="Trazado 582228" d="M5042.863-1364.331l-.015.826c-.707.266-.333-.333-.373-.523C5042.439-1364.193,5042.343-1364.737,5042.863-1364.331Z" transform="translate(-88.105 -85.772)" fill="#c3f770"/>
    <path id="Trazado_582229" data-name="Trazado 582229" d="M5004.7-1350.542a1.671,1.671,0,0,1-.036,1.484A1.624,1.624,0,0,1,5004.7-1350.542Z" transform="translate(-63.226 -94.919)" fill="#aaf230"/>
    <path id="Trazado_582230" data-name="Trazado 582230" d="M5027.156-1452.327c0,.112,0,.224,0,.336a2.614,2.614,0,0,1-1.5.165q-8.8.015-17.6,0a2.587,2.587,0,0,1-1.5-.167c.525-.519,1.188-.3,1.79-.3q9.407-.04,18.814-.041Z" transform="translate(-64.563 -28.106)" fill="#b1f839"/>
    <path id="Trazado_582231" data-name="Trazado 582231" d="M5006.544-1451.334l20.609,0c-.389.477-.933.343-1.429.343q-8.876.011-17.753,0C5007.476-1450.99,5006.931-1450.855,5006.544-1451.334Z" transform="translate(-64.563 -28.765)" fill="#9de02b"/>
    <ellipse id="Elipse_7347" data-name="Elipse 7347" cx="0.114" cy="4.53" rx="0.114" ry="4.53" transform="translate(4938.958 -1491.68)" fill="#a4e92e"/>
    <path id="Trazado_582232" data-name="Trazado 582232" d="M5124.4-1482.286c.692,2.334.219,4.713.265,7.07C5124.052-1477.553,5124.565-1479.932,5124.4-1482.286Z" transform="translate(-141.887 -8.45)" fill="#fef503"/>
    <path id="Trazado_582233" data-name="Trazado 582233" d="M4947.791-1466.573q-.012-1.274-.023-2.548A2.742,2.742,0,0,1,4947.791-1466.573Z" transform="translate(-25.986 -17.091)" fill="#d0f9fe"/>
    <path id="Trazado_582234" data-name="Trazado 582234" d="M4953.789-1451.717a15.677,15.677,0,0,1-7.211,0A31.8,31.8,0,0,1,4953.789-1451.717Z" transform="translate(-25.205 -28.38)" fill="#d9f0f7"/>
    <path id="Trazado_582235" data-name="Trazado 582235" d="M4953.789-1452.019l-7.211,0c1.742-.7,3.557-.146,5.331-.306.618-.056,1.242-.03,1.863-.042l.021.02C4953.791-1452.236,4953.79-1452.127,4953.789-1452.019Z" transform="translate(-25.205 -28.078)" fill="#f2fefe"/>
    <path id="Trazado_582236" data-name="Trazado 582236" d="M5105.49-1451.322l7.213,0A15.756,15.756,0,0,1,5105.49-1451.322Z" transform="translate(-129.506 -28.773)" fill="#f8ea52"/>
    <path id="Trazado_582237" data-name="Trazado 582237" d="M5134.485-1475q.026-3.585.052-7.17c.607,2.36.191,4.752.225,7.129,0,.029-.073.079-.116.083A.468.468,0,0,1,5134.485-1475Z" transform="translate(-148.536 -8.523)" fill="#fefd8f"/>
  </g>
</svg>
